{
 "cells": [
  {
   "cell_type": "markdown",
   "id": "b4c8d0df",
   "metadata": {},
   "source": [
    "### Ⅰ. 라이브러리"
   ]
  },
  {
   "cell_type": "code",
   "execution_count": 61,
   "id": "30b96a4e",
   "metadata": {},
   "outputs": [],
   "source": [
    "import numpy as np\n",
    "import pandas as pd\n",
    "\n",
    "import os\n",
    "import mido\n",
    "\n",
    "from mido import MidiFile, MidiTrack, MetaMessage, Message\n",
    "\n",
    "\n"
   ]
  },
  {
   "cell_type": "code",
   "execution_count": null,
   "id": "f750c67d",
   "metadata": {},
   "outputs": [],
   "source": []
  },
  {
   "cell_type": "markdown",
   "id": "2adaa7f3",
   "metadata": {},
   "source": [
    "### Ⅱ. 데이터 추출\n",
    "- Message\n",
    "    - type\n",
    "        - note_on : 음표 시작\n",
    "        - control_change : 컨트롤러 변경 메시지 ex. 페달 볼륨 조절기 움직임\n",
    "        - program_change : 프로그램 변경 메시지 ex. 다양한 소리 또는 패치"
   ]
  },
  {
   "cell_type": "markdown",
   "id": "7b7d5c99",
   "metadata": {},
   "source": [
    "#### 1. pitch (음정) : [  -8192 to 8192 ]\n",
    "- 음의 높낮이\n",
    "- 주파수 표현"
   ]
  },
  {
   "cell_type": "markdown",
   "id": "d2c1dbb8",
   "metadata": {},
   "source": [
    "#### 2. note (음표) : [  0 to 127 ]\n",
    "- msg.type = 'note_on' / 'note_off'\n",
    "    - 소리의 강도 / 세기 ( velocity )\n",
    "    - 지속 시간 ( time, 단위 : tick )"
   ]
  },
  {
   "cell_type": "markdown",
   "id": "6425705d",
   "metadata": {},
   "source": [
    "#### 3. control ( 컨트롤러 번호 ) [ 0 to 127 ]\n",
    "- https://www.midi.org/specifications/midi-reference-tables/midi-1-0-control-change-messages-data-bytes-2\n",
    "----\n",
    "- control=1  ( Modulation Wheel ( 음향 변화 )) ( 0 : 왼쪽, 63 : 중앙 127 : 오른쪽 )\n",
    "- control=7  ( Main Volume 조절 )\n",
    "- control=10 ( Pan, 좌우 스테레오 위치 조절 )\n",
    "- control=64 ( Damper Pedal on/off (Sustain) ) <= 63 Off 64<= On"
   ]
  },
  {
   "cell_type": "code",
   "execution_count": 7,
   "id": "d4ad1aac",
   "metadata": {},
   "outputs": [
    {
     "data": {
      "text/plain": [
       "<enumerate at 0x19a42a516d8>"
      ]
     },
     "execution_count": 7,
     "metadata": {},
     "output_type": "execute_result"
    }
   ],
   "source": [
    "file_name = \"piano_pirate.mid\"\n",
    "file_path = os.path.join(\"midi_data\", file_name)\n",
    "\n",
    "mid = MidiFile(file_path)"
   ]
  },
  {
   "cell_type": "code",
   "execution_count": 43,
   "id": "a7e143bb",
   "metadata": {},
   "outputs": [],
   "source": [
    "def distribute_msg(mid_track):\n",
    "    track_dict = {}\n",
    "    \n",
    "    track_dict['MetaMessage'] = []\n",
    "    track_dict['Message'] = []\n",
    "    track_dict['ETC'] = []\n",
    "    \n",
    "    for msg in mid_track:\n",
    "        \n",
    "        if isinstance(msg, MetaMessage):\n",
    "            track_dict['MetaMessage'].append(msg)\n",
    "            \n",
    "        elif isinstance(msg, Message):\n",
    "            track_dict['Message'].append(msg)\n",
    "            \n",
    "        else:\n",
    "            track_dict['ETC'].append(msg)\n",
    "            \n",
    "    return track_dict"
   ]
  },
  {
   "cell_type": "markdown",
   "id": "35e846bb",
   "metadata": {},
   "source": [
    "#### 4. time\n",
    "- tick : mid.ticks_per_beat\n",
    "    - 1박자의 tick 수를 의미\n",
    "- tick_interval 을 의미"
   ]
  },
  {
   "cell_type": "code",
   "execution_count": 84,
   "id": "35bd55fc",
   "metadata": {},
   "outputs": [
    {
     "data": {
      "text/plain": [
       "MidiTrack([\n",
       "  MetaMessage('track_name', name=\"He's A Pirate\", time=0),\n",
       "  MetaMessage('text', text='By Written by Klaus Badelt', time=0),\n",
       "  MetaMessage('copyright', text='Arrangement © 2004 Cerullean Pictures ', time=0),\n",
       "  MetaMessage('copyright', text='Original Score © Walt Disney Pictures', time=0),\n",
       "  MetaMessage('text', text='Generated by NoteWorthy Composer', time=0),\n",
       "  MetaMessage('set_tempo', tempo=300000, time=0),\n",
       "  MetaMessage('key_signature', key='F', time=0),\n",
       "  MetaMessage('time_signature', numerator=6, denominator=8, clocks_per_click=24, notated_32nd_notes_per_beat=8, time=0),\n",
       "  MetaMessage('end_of_track', time=0)])"
      ]
     },
     "execution_count": 84,
     "metadata": {},
     "output_type": "execute_result"
    }
   ],
   "source": [
    "mid.tracks[0]"
   ]
  },
  {
   "cell_type": "code",
   "execution_count": 83,
   "id": "0c42ca6e",
   "metadata": {},
   "outputs": [
    {
     "name": "stdout",
     "output_type": "stream",
     "text": [
      "192\n"
     ]
    }
   ],
   "source": [
    "print(mid.ticks_per_beat) # 1박 : print(mid.ticks_per_beat) tick"
   ]
  },
  {
   "cell_type": "code",
   "execution_count": 99,
   "id": "c15ebcf1",
   "metadata": {},
   "outputs": [
    {
     "name": "stdout",
     "output_type": "stream",
     "text": [
      "96.0\n"
     ]
    }
   ],
   "source": [
    "t = 192*30/60\n",
    "print(t)"
   ]
  },
  {
   "cell_type": "code",
   "execution_count": null,
   "id": "b18cd83d",
   "metadata": {},
   "outputs": [],
   "source": [
    "time_in_seconds = msg.time / (ticks_per_beat * bpm / 60)"
   ]
  },
  {
   "cell_type": "code",
   "execution_count": 105,
   "id": "453c1754",
   "metadata": {},
   "outputs": [
    {
     "name": "stdout",
     "output_type": "stream",
     "text": [
      "Track 1: He's A Pirate\n",
      "Track 2: Right Hand\n",
      "['control_change' 'note_off' 'note_on' 'program_change']\n",
      "[ 7 10 64]\n",
      "49680\n",
      "Track 3: Left Hand\n",
      "['control_change' 'note_off' 'note_on' 'program_change']\n",
      "[ 7 10 64]\n",
      "49680\n"
     ]
    }
   ],
   "source": [
    "for idx, track in enumerate(mid.tracks):\n",
    "    print(f\"Track {idx + 1}: {track.name}\")\n",
    "    \n",
    "    track_dict = distribute_msg(track)\n",
    "    \n",
    "    if len(track_dict['Message'])==0:\n",
    "        continue;\n",
    "        \n",
    "    track_msg = track_dict['Message']\n",
    "    \n",
    "    #  msg.type == note_on 에 대해서만\n",
    "    msg_type = []\n",
    "    \n",
    "    msg_note = []\n",
    "    msg_channel = []\n",
    "    msg_velocity = []\n",
    "    msg_interval = []\n",
    "    \n",
    "    \n",
    "    msg_pitch = []\n",
    "    \n",
    "    msg_control = []\n",
    "    msg_wheel = []\n",
    "    msg_pedal = []\n",
    "    \n",
    "    msg_time = [0] # 1분 18초 = 78초\n",
    "    \n",
    "    for msg in track_msg:\n",
    "        \n",
    "        # note off : note_on and velocity == 0\n",
    "        if msg.type == 'note_on' and msg.velocity == 0:\n",
    "            msg_typ = 'note_off'\n",
    "        else:\n",
    "            msg_typ = msg.type\n",
    "            \n",
    "        msg_type.append(msg_typ)\n",
    "        \n",
    "        time = msg.time + msg_time[-1]\n",
    "        msg_time.append(time)\n",
    "                \n",
    "        if msg_typ == 'note_on':\n",
    "            msg_note.append(msg.note)\n",
    "            msg_channel.append(msg.channel)\n",
    "            msg_velocity.append(msg.velocity)\n",
    "            msg_interval.append(msg.time) ## 이전 이벤트와의 간격\n",
    "        \n",
    "        elif msg_typ == 'note_off':\n",
    "            continue\n",
    "            \n",
    "        elif msg_typ == 'pitchwheel':\n",
    "            msg_pitch.append(msg.pitch)\n",
    "        \n",
    "        elif msg_typ == 'control_change':\n",
    "            #print(msg.control, msg.value)\n",
    "            msg_control.append(msg.control)\n",
    "        \n",
    "            \n",
    "    msg_time = msg_time[1:]\n",
    "            \n",
    "    \n",
    "    print(np.unique(msg_type))\n",
    "    print(np.unique(msg_control))\n",
    "    print(msg_time[-1])\n",
    "\n",
    "            \n"
   ]
  },
  {
   "cell_type": "code",
   "execution_count": 63,
   "id": "67b44f5b",
   "metadata": {},
   "outputs": [
    {
     "data": {
      "text/plain": [
       "array(['control_change', 'note_on', 'program_change'], dtype='<U14')"
      ]
     },
     "execution_count": 63,
     "metadata": {},
     "output_type": "execute_result"
    }
   ],
   "source": [
    "np.unique(msg_type)"
   ]
  },
  {
   "cell_type": "code",
   "execution_count": 32,
   "id": "e038943d",
   "metadata": {},
   "outputs": [
    {
     "name": "stdout",
     "output_type": "stream",
     "text": [
      "{'MetaMessage': [345]}\n"
     ]
    }
   ],
   "source": [
    "track_dict = {}\n",
    "track_dict['MetaMessage'] = []\n",
    "track_dict['MetaMessage'].append(345)\n",
    "\n",
    "print(track_dict)"
   ]
  },
  {
   "cell_type": "code",
   "execution_count": 18,
   "id": "2c3d1759",
   "metadata": {},
   "outputs": [
    {
     "name": "stdout",
     "output_type": "stream",
     "text": [
      "Track 1: He's A Pirate\n",
      "Track 2: Right Hand\n",
      "Track 3: Left Hand\n"
     ]
    }
   ],
   "source": [
    "for idx, track in enumerate(mid.tracks):\n",
    "    print(f\"Track {i + 1}: {track.name}\")\n",
    "    \n",
    "    for m"
   ]
  },
  {
   "cell_type": "code",
   "execution_count": 9,
   "id": "52f9db53",
   "metadata": {},
   "outputs": [
    {
     "data": {
      "text/plain": [
       "MidiTrack([\n",
       "  MetaMessage('track_name', name=\"He's A Pirate\", time=0),\n",
       "  MetaMessage('text', text='By Written by Klaus Badelt', time=0),\n",
       "  MetaMessage('copyright', text='Arrangement © 2004 Cerullean Pictures ', time=0),\n",
       "  MetaMessage('copyright', text='Original Score © Walt Disney Pictures', time=0),\n",
       "  MetaMessage('text', text='Generated by NoteWorthy Composer', time=0),\n",
       "  MetaMessage('set_tempo', tempo=300000, time=0),\n",
       "  MetaMessage('key_signature', key='F', time=0),\n",
       "  MetaMessage('time_signature', numerator=6, denominator=8, clocks_per_click=24, notated_32nd_notes_per_beat=8, time=0),\n",
       "  MetaMessage('end_of_track', time=0)])"
      ]
     },
     "execution_count": 9,
     "metadata": {},
     "output_type": "execute_result"
    }
   ],
   "source": [
    "mid.tracks[0]"
   ]
  },
  {
   "cell_type": "code",
   "execution_count": 73,
   "id": "160d8778",
   "metadata": {},
   "outputs": [
    {
     "data": {
      "text/plain": [
       "1285"
      ]
     },
     "execution_count": 73,
     "metadata": {},
     "output_type": "execute_result"
    }
   ],
   "source": [
    "len(mid.tracks[1])"
   ]
  },
  {
   "cell_type": "code",
   "execution_count": 11,
   "id": "e174ff62",
   "metadata": {},
   "outputs": [
    {
     "data": {
      "text/plain": [
       "MidiTrack([\n",
       "  MetaMessage('midi_port', port=0, time=0),\n",
       "  MetaMessage('track_name', name='Left Hand', time=0),\n",
       "  Message('program_change', channel=1, program=0, time=0),\n",
       "  Message('control_change', channel=1, control=7, value=127, time=0),\n",
       "  Message('control_change', channel=1, control=10, value=64, time=0),\n",
       "  Message('program_change', channel=1, program=0, time=0),\n",
       "  Message('control_change', channel=1, control=7, value=127, time=0),\n",
       "  Message('control_change', channel=1, control=10, value=64, time=0),\n",
       "  Message('control_change', channel=1, control=64, value=0, time=2304),\n",
       "  Message('control_change', channel=1, control=64, value=127, time=0),\n",
       "  Message('note_on', channel=1, note=26, velocity=110, time=0),\n",
       "  Message('note_on', channel=1, note=38, velocity=110, time=0),\n",
       "  Message('note_on', channel=1, note=26, velocity=0, time=528),\n",
       "  Message('note_on', channel=1, note=38, velocity=0, time=0),\n",
       "  Message('note_on', channel=1, note=26, velocity=110, time=48),\n",
       "  Message('note_on', channel=1, note=38, velocity=110, time=0),\n",
       "  Message('note_on', channel=1, note=26, velocity=0, time=256),\n",
       "  Message('note_on', channel=1, note=38, velocity=0, time=0),\n",
       "  Message('note_on', channel=1, note=26, velocity=110, time=32),\n",
       "  Message('note_on', channel=1, note=38, velocity=110, time=0),\n",
       "  Message('note_on', channel=1, note=26, velocity=0, time=256),\n",
       "  Message('note_on', channel=1, note=38, velocity=0, time=0),\n",
       "  Message('control_change', channel=1, control=64, value=0, time=32),\n",
       "  Message('control_change', channel=1, control=64, value=127, time=0),\n",
       "  Message('note_on', channel=1, note=38, velocity=110, time=0),\n",
       "  Message('note_on', channel=1, note=50, velocity=110, time=0),\n",
       "  Message('note_on', channel=1, note=38, velocity=0, time=160),\n",
       "  Message('note_on', channel=1, note=50, velocity=0, time=0),\n",
       "  Message('note_on', channel=1, note=38, velocity=110, time=32),\n",
       "  Message('note_on', channel=1, note=50, velocity=110, time=0),\n",
       "  Message('note_on', channel=1, note=38, velocity=0, time=94),\n",
       "  Message('note_on', channel=1, note=50, velocity=0, time=0),\n",
       "  Message('note_on', channel=1, note=38, velocity=110, time=2),\n",
       "  Message('note_on', channel=1, note=50, velocity=110, time=0),\n",
       "  Message('note_on', channel=1, note=38, velocity=0, time=160),\n",
       "  Message('note_on', channel=1, note=50, velocity=0, time=0),\n",
       "  Message('note_on', channel=1, note=36, velocity=110, time=32),\n",
       "  Message('note_on', channel=1, note=48, velocity=110, time=0),\n",
       "  Message('note_on', channel=1, note=36, velocity=0, time=94),\n",
       "  Message('note_on', channel=1, note=48, velocity=0, time=0),\n",
       "  Message('control_change', channel=1, control=64, value=0, time=2),\n",
       "  Message('control_change', channel=1, control=64, value=127, time=0),\n",
       "  Message('note_on', channel=1, note=34, velocity=110, time=0),\n",
       "  Message('note_on', channel=1, note=46, velocity=110, time=0),\n",
       "  Message('note_on', channel=1, note=34, velocity=0, time=160),\n",
       "  Message('note_on', channel=1, note=46, velocity=0, time=0),\n",
       "  Message('note_on', channel=1, note=34, velocity=110, time=32),\n",
       "  Message('note_on', channel=1, note=46, velocity=110, time=0),\n",
       "  Message('note_on', channel=1, note=34, velocity=0, time=94),\n",
       "  Message('note_on', channel=1, note=46, velocity=0, time=0),\n",
       "  Message('note_on', channel=1, note=34, velocity=110, time=2),\n",
       "  Message('note_on', channel=1, note=46, velocity=110, time=0),\n",
       "  Message('note_on', channel=1, note=34, velocity=0, time=160),\n",
       "  Message('note_on', channel=1, note=46, velocity=0, time=0),\n",
       "  Message('note_on', channel=1, note=34, velocity=110, time=32),\n",
       "  Message('note_on', channel=1, note=46, velocity=110, time=0),\n",
       "  Message('note_on', channel=1, note=34, velocity=0, time=94),\n",
       "  Message('note_on', channel=1, note=46, velocity=0, time=0),\n",
       "  Message('control_change', channel=1, control=64, value=0, time=2),\n",
       "  Message('control_change', channel=1, control=64, value=127, time=0),\n",
       "  Message('note_on', channel=1, note=33, velocity=110, time=0),\n",
       "  Message('note_on', channel=1, note=45, velocity=110, time=0),\n",
       "  Message('note_on', channel=1, note=33, velocity=0, time=160),\n",
       "  Message('note_on', channel=1, note=45, velocity=0, time=0),\n",
       "  Message('note_on', channel=1, note=33, velocity=110, time=32),\n",
       "  Message('note_on', channel=1, note=45, velocity=110, time=0),\n",
       "  Message('note_on', channel=1, note=33, velocity=0, time=94),\n",
       "  Message('note_on', channel=1, note=45, velocity=0, time=0),\n",
       "  Message('note_on', channel=1, note=33, velocity=110, time=2),\n",
       "  Message('note_on', channel=1, note=45, velocity=110, time=0),\n",
       "  Message('note_on', channel=1, note=33, velocity=0, time=160),\n",
       "  Message('note_on', channel=1, note=45, velocity=0, time=0),\n",
       "  Message('note_on', channel=1, note=33, velocity=110, time=32),\n",
       "  Message('note_on', channel=1, note=45, velocity=110, time=0),\n",
       "  Message('note_on', channel=1, note=33, velocity=0, time=94),\n",
       "  Message('note_on', channel=1, note=45, velocity=0, time=0),\n",
       "  Message('control_change', channel=1, control=64, value=0, time=2),\n",
       "  Message('control_change', channel=1, control=64, value=127, time=0),\n",
       "  Message('note_on', channel=1, note=38, velocity=110, time=0),\n",
       "  Message('note_on', channel=1, note=50, velocity=110, time=0),\n",
       "  Message('note_on', channel=1, note=38, velocity=0, time=160),\n",
       "  Message('note_on', channel=1, note=50, velocity=0, time=0),\n",
       "  Message('note_on', channel=1, note=38, velocity=110, time=32),\n",
       "  Message('note_on', channel=1, note=50, velocity=110, time=0),\n",
       "  Message('note_on', channel=1, note=38, velocity=0, time=94),\n",
       "  Message('note_on', channel=1, note=50, velocity=0, time=0),\n",
       "  Message('note_on', channel=1, note=38, velocity=110, time=2),\n",
       "  Message('note_on', channel=1, note=50, velocity=110, time=0),\n",
       "  Message('note_on', channel=1, note=38, velocity=0, time=160),\n",
       "  Message('note_on', channel=1, note=50, velocity=0, time=0),\n",
       "  Message('note_on', channel=1, note=38, velocity=110, time=32),\n",
       "  Message('note_on', channel=1, note=50, velocity=110, time=0),\n",
       "  Message('note_on', channel=1, note=38, velocity=0, time=94),\n",
       "  Message('note_on', channel=1, note=50, velocity=0, time=0),\n",
       "  Message('control_change', channel=1, control=64, value=0, time=2),\n",
       "  Message('control_change', channel=1, control=64, value=127, time=0),\n",
       "  Message('note_on', channel=1, note=34, velocity=110, time=0),\n",
       "  Message('note_on', channel=1, note=46, velocity=110, time=0),\n",
       "  Message('note_on', channel=1, note=34, velocity=0, time=160),\n",
       "  Message('note_on', channel=1, note=46, velocity=0, time=0),\n",
       "  Message('note_on', channel=1, note=34, velocity=110, time=32),\n",
       "  Message('note_on', channel=1, note=46, velocity=110, time=0),\n",
       "  Message('note_on', channel=1, note=34, velocity=0, time=94),\n",
       "  Message('note_on', channel=1, note=46, velocity=0, time=0),\n",
       "  Message('note_on', channel=1, note=34, velocity=110, time=2),\n",
       "  Message('note_on', channel=1, note=46, velocity=110, time=0),\n",
       "  Message('note_on', channel=1, note=34, velocity=0, time=160),\n",
       "  Message('note_on', channel=1, note=46, velocity=0, time=0),\n",
       "  Message('note_on', channel=1, note=34, velocity=110, time=32),\n",
       "  Message('note_on', channel=1, note=46, velocity=110, time=0),\n",
       "  Message('note_on', channel=1, note=34, velocity=0, time=94),\n",
       "  Message('note_on', channel=1, note=46, velocity=0, time=0),\n",
       "  Message('control_change', channel=1, control=64, value=0, time=2),\n",
       "  Message('control_change', channel=1, control=64, value=127, time=0),\n",
       "  Message('note_on', channel=1, note=29, velocity=110, time=0),\n",
       "  Message('note_on', channel=1, note=41, velocity=110, time=0),\n",
       "  Message('note_on', channel=1, note=29, velocity=0, time=160),\n",
       "  Message('note_on', channel=1, note=41, velocity=0, time=0),\n",
       "  Message('note_on', channel=1, note=29, velocity=110, time=32),\n",
       "  Message('note_on', channel=1, note=41, velocity=110, time=0),\n",
       "  Message('note_on', channel=1, note=29, velocity=0, time=94),\n",
       "  Message('note_on', channel=1, note=41, velocity=0, time=0),\n",
       "  Message('note_on', channel=1, note=29, velocity=110, time=2),\n",
       "  Message('note_on', channel=1, note=41, velocity=110, time=0),\n",
       "  Message('note_on', channel=1, note=29, velocity=0, time=160),\n",
       "  Message('note_on', channel=1, note=41, velocity=0, time=0),\n",
       "  Message('note_on', channel=1, note=29, velocity=110, time=32),\n",
       "  Message('note_on', channel=1, note=41, velocity=110, time=0),\n",
       "  Message('note_on', channel=1, note=29, velocity=0, time=94),\n",
       "  Message('note_on', channel=1, note=41, velocity=0, time=0),\n",
       "  Message('control_change', channel=1, control=64, value=0, time=2),\n",
       "  Message('control_change', channel=1, control=64, value=127, time=0),\n",
       "  Message('note_on', channel=1, note=36, velocity=110, time=0),\n",
       "  Message('note_on', channel=1, note=48, velocity=110, time=0),\n",
       "  Message('note_on', channel=1, note=36, velocity=0, time=160),\n",
       "  Message('note_on', channel=1, note=48, velocity=0, time=0),\n",
       "  Message('note_on', channel=1, note=36, velocity=110, time=32),\n",
       "  Message('note_on', channel=1, note=48, velocity=110, time=0),\n",
       "  Message('note_on', channel=1, note=36, velocity=0, time=94),\n",
       "  Message('note_on', channel=1, note=48, velocity=0, time=0),\n",
       "  Message('note_on', channel=1, note=33, velocity=110, time=2),\n",
       "  Message('note_on', channel=1, note=45, velocity=110, time=0),\n",
       "  Message('note_on', channel=1, note=33, velocity=0, time=160),\n",
       "  Message('note_on', channel=1, note=45, velocity=0, time=0),\n",
       "  Message('note_on', channel=1, note=33, velocity=110, time=32),\n",
       "  Message('note_on', channel=1, note=45, velocity=110, time=0),\n",
       "  Message('note_on', channel=1, note=33, velocity=0, time=94),\n",
       "  Message('note_on', channel=1, note=45, velocity=0, time=0),\n",
       "  Message('control_change', channel=1, control=64, value=0, time=2),\n",
       "  Message('control_change', channel=1, control=64, value=127, time=0),\n",
       "  Message('note_on', channel=1, note=38, velocity=110, time=0),\n",
       "  Message('note_on', channel=1, note=50, velocity=110, time=0),\n",
       "  Message('note_on', channel=1, note=38, velocity=0, time=160),\n",
       "  Message('note_on', channel=1, note=50, velocity=0, time=0),\n",
       "  Message('note_on', channel=1, note=38, velocity=110, time=32),\n",
       "  Message('note_on', channel=1, note=50, velocity=110, time=0),\n",
       "  Message('note_on', channel=1, note=38, velocity=0, time=94),\n",
       "  Message('note_on', channel=1, note=50, velocity=0, time=0),\n",
       "  Message('note_on', channel=1, note=38, velocity=110, time=2),\n",
       "  Message('note_on', channel=1, note=50, velocity=110, time=0),\n",
       "  Message('note_on', channel=1, note=38, velocity=0, time=160),\n",
       "  Message('note_on', channel=1, note=50, velocity=0, time=0),\n",
       "  Message('note_on', channel=1, note=38, velocity=110, time=32),\n",
       "  Message('note_on', channel=1, note=50, velocity=110, time=0),\n",
       "  Message('note_on', channel=1, note=38, velocity=0, time=94),\n",
       "  Message('note_on', channel=1, note=50, velocity=0, time=0),\n",
       "  Message('control_change', channel=1, control=64, value=0, time=2),\n",
       "  Message('control_change', channel=1, control=64, value=127, time=0),\n",
       "  Message('note_on', channel=1, note=38, velocity=110, time=0),\n",
       "  Message('note_on', channel=1, note=50, velocity=110, time=0),\n",
       "  Message('note_on', channel=1, note=38, velocity=0, time=160),\n",
       "  Message('note_on', channel=1, note=50, velocity=0, time=0),\n",
       "  Message('note_on', channel=1, note=38, velocity=110, time=32),\n",
       "  Message('note_on', channel=1, note=50, velocity=110, time=0),\n",
       "  Message('note_on', channel=1, note=38, velocity=0, time=94),\n",
       "  Message('note_on', channel=1, note=50, velocity=0, time=0),\n",
       "  Message('note_on', channel=1, note=38, velocity=110, time=2),\n",
       "  Message('note_on', channel=1, note=50, velocity=110, time=0),\n",
       "  Message('note_on', channel=1, note=38, velocity=0, time=160),\n",
       "  Message('note_on', channel=1, note=50, velocity=0, time=0),\n",
       "  Message('note_on', channel=1, note=38, velocity=110, time=32),\n",
       "  Message('note_on', channel=1, note=50, velocity=110, time=0),\n",
       "  Message('note_on', channel=1, note=38, velocity=0, time=94),\n",
       "  Message('note_on', channel=1, note=50, velocity=0, time=0),\n",
       "  Message('control_change', channel=1, control=64, value=0, time=2),\n",
       "  Message('control_change', channel=1, control=64, value=127, time=0),\n",
       "  Message('note_on', channel=1, note=34, velocity=110, time=0),\n",
       "  Message('note_on', channel=1, note=46, velocity=110, time=0),\n",
       "  Message('note_on', channel=1, note=34, velocity=0, time=160),\n",
       "  Message('note_on', channel=1, note=46, velocity=0, time=0),\n",
       "  Message('note_on', channel=1, note=34, velocity=110, time=32),\n",
       "  Message('note_on', channel=1, note=46, velocity=110, time=0),\n",
       "  Message('note_on', channel=1, note=34, velocity=0, time=94),\n",
       "  Message('note_on', channel=1, note=46, velocity=0, time=0),\n",
       "  Message('note_on', channel=1, note=34, velocity=110, time=2),\n",
       "  Message('note_on', channel=1, note=46, velocity=110, time=0),\n",
       "  Message('note_on', channel=1, note=34, velocity=0, time=160),\n",
       "  Message('note_on', channel=1, note=46, velocity=0, time=0),\n",
       "  Message('note_on', channel=1, note=34, velocity=110, time=32),\n",
       "  Message('note_on', channel=1, note=46, velocity=110, time=0),\n",
       "  Message('note_on', channel=1, note=34, velocity=0, time=94),\n",
       "  Message('note_on', channel=1, note=46, velocity=0, time=0),\n",
       "  Message('control_change', channel=1, control=64, value=0, time=2),\n",
       "  Message('control_change', channel=1, control=64, value=127, time=0),\n",
       "  Message('note_on', channel=1, note=31, velocity=110, time=0),\n",
       "  Message('note_on', channel=1, note=43, velocity=110, time=0),\n",
       "  Message('note_on', channel=1, note=31, velocity=0, time=160),\n",
       "  Message('note_on', channel=1, note=43, velocity=0, time=0),\n",
       "  Message('note_on', channel=1, note=31, velocity=110, time=32),\n",
       "  Message('note_on', channel=1, note=43, velocity=110, time=0),\n",
       "  Message('note_on', channel=1, note=31, velocity=0, time=94),\n",
       "  Message('note_on', channel=1, note=43, velocity=0, time=0),\n",
       "  Message('note_on', channel=1, note=31, velocity=110, time=2),\n",
       "  Message('note_on', channel=1, note=43, velocity=110, time=0),\n",
       "  Message('note_on', channel=1, note=31, velocity=0, time=160),\n",
       "  Message('note_on', channel=1, note=43, velocity=0, time=0),\n",
       "  Message('note_on', channel=1, note=31, velocity=110, time=32),\n",
       "  Message('note_on', channel=1, note=43, velocity=110, time=0),\n",
       "  Message('note_on', channel=1, note=31, velocity=0, time=94),\n",
       "  Message('note_on', channel=1, note=43, velocity=0, time=0),\n",
       "  Message('control_change', channel=1, control=64, value=0, time=2),\n",
       "  Message('control_change', channel=1, control=64, value=127, time=0),\n",
       "  Message('note_on', channel=1, note=38, velocity=110, time=0),\n",
       "  Message('note_on', channel=1, note=50, velocity=110, time=0),\n",
       "  Message('note_on', channel=1, note=38, velocity=0, time=160),\n",
       "  Message('note_on', channel=1, note=50, velocity=0, time=0),\n",
       "  Message('note_on', channel=1, note=38, velocity=110, time=32),\n",
       "  Message('note_on', channel=1, note=50, velocity=110, time=0),\n",
       "  Message('note_on', channel=1, note=38, velocity=0, time=94),\n",
       "  Message('note_on', channel=1, note=50, velocity=0, time=0),\n",
       "  Message('note_on', channel=1, note=38, velocity=110, time=2),\n",
       "  Message('note_on', channel=1, note=50, velocity=110, time=0),\n",
       "  Message('note_on', channel=1, note=38, velocity=0, time=160),\n",
       "  Message('note_on', channel=1, note=50, velocity=0, time=0),\n",
       "  Message('note_on', channel=1, note=38, velocity=110, time=32),\n",
       "  Message('note_on', channel=1, note=50, velocity=110, time=0),\n",
       "  Message('note_on', channel=1, note=38, velocity=0, time=94),\n",
       "  Message('note_on', channel=1, note=50, velocity=0, time=0),\n",
       "  Message('control_change', channel=1, control=64, value=0, time=2),\n",
       "  Message('control_change', channel=1, control=64, value=127, time=0),\n",
       "  Message('note_on', channel=1, note=34, velocity=110, time=0),\n",
       "  Message('note_on', channel=1, note=46, velocity=110, time=0),\n",
       "  Message('note_on', channel=1, note=34, velocity=0, time=160),\n",
       "  Message('note_on', channel=1, note=46, velocity=0, time=0),\n",
       "  Message('note_on', channel=1, note=34, velocity=110, time=32),\n",
       "  Message('note_on', channel=1, note=46, velocity=110, time=0),\n",
       "  Message('note_on', channel=1, note=34, velocity=0, time=94),\n",
       "  Message('note_on', channel=1, note=46, velocity=0, time=0),\n",
       "  Message('note_on', channel=1, note=34, velocity=110, time=2),\n",
       "  Message('note_on', channel=1, note=46, velocity=110, time=0),\n",
       "  Message('note_on', channel=1, note=34, velocity=0, time=160),\n",
       "  Message('note_on', channel=1, note=46, velocity=0, time=0),\n",
       "  Message('note_on', channel=1, note=34, velocity=110, time=32),\n",
       "  Message('note_on', channel=1, note=46, velocity=110, time=0),\n",
       "  Message('note_on', channel=1, note=34, velocity=0, time=94),\n",
       "  Message('note_on', channel=1, note=46, velocity=0, time=0),\n",
       "  Message('control_change', channel=1, control=64, value=0, time=2),\n",
       "  Message('control_change', channel=1, control=64, value=127, time=0),\n",
       "  Message('note_on', channel=1, note=38, velocity=110, time=0),\n",
       "  Message('note_on', channel=1, note=50, velocity=110, time=0),\n",
       "  Message('note_on', channel=1, note=38, velocity=0, time=160),\n",
       "  Message('note_on', channel=1, note=50, velocity=0, time=0),\n",
       "  Message('note_on', channel=1, note=38, velocity=110, time=32),\n",
       "  Message('note_on', channel=1, note=50, velocity=110, time=0),\n",
       "  Message('note_on', channel=1, note=38, velocity=0, time=94),\n",
       "  Message('note_on', channel=1, note=50, velocity=0, time=0),\n",
       "  Message('note_on', channel=1, note=38, velocity=110, time=2),\n",
       "  Message('note_on', channel=1, note=50, velocity=110, time=0),\n",
       "  Message('note_on', channel=1, note=38, velocity=0, time=160),\n",
       "  Message('note_on', channel=1, note=50, velocity=0, time=0),\n",
       "  Message('note_on', channel=1, note=38, velocity=110, time=32),\n",
       "  Message('note_on', channel=1, note=50, velocity=110, time=0),\n",
       "  Message('note_on', channel=1, note=38, velocity=0, time=94),\n",
       "  Message('note_on', channel=1, note=50, velocity=0, time=0),\n",
       "  Message('control_change', channel=1, control=64, value=0, time=2),\n",
       "  Message('control_change', channel=1, control=64, value=127, time=0),\n",
       "  Message('note_on', channel=1, note=33, velocity=110, time=0),\n",
       "  Message('note_on', channel=1, note=45, velocity=110, time=0),\n",
       "  Message('note_on', channel=1, note=33, velocity=0, time=160),\n",
       "  Message('note_on', channel=1, note=45, velocity=0, time=0),\n",
       "  Message('note_on', channel=1, note=33, velocity=110, time=32),\n",
       "  Message('note_on', channel=1, note=45, velocity=110, time=0),\n",
       "  Message('note_on', channel=1, note=33, velocity=0, time=94),\n",
       "  Message('note_on', channel=1, note=45, velocity=0, time=0),\n",
       "  Message('note_on', channel=1, note=33, velocity=110, time=2),\n",
       "  Message('note_on', channel=1, note=45, velocity=110, time=0),\n",
       "  Message('note_on', channel=1, note=33, velocity=0, time=160),\n",
       "  Message('note_on', channel=1, note=45, velocity=0, time=0),\n",
       "  Message('note_on', channel=1, note=33, velocity=110, time=32),\n",
       "  Message('note_on', channel=1, note=45, velocity=110, time=0),\n",
       "  Message('note_on', channel=1, note=33, velocity=0, time=94),\n",
       "  Message('note_on', channel=1, note=45, velocity=0, time=0),\n",
       "  Message('note_on', channel=1, note=33, velocity=110, time=2),\n",
       "  Message('note_on', channel=1, note=45, velocity=110, time=0),\n",
       "  Message('note_on', channel=1, note=33, velocity=0, time=160),\n",
       "  Message('note_on', channel=1, note=45, velocity=0, time=0),\n",
       "  Message('note_on', channel=1, note=33, velocity=110, time=32),\n",
       "  Message('note_on', channel=1, note=45, velocity=110, time=0),\n",
       "  Message('note_on', channel=1, note=33, velocity=0, time=94),\n",
       "  Message('note_on', channel=1, note=45, velocity=0, time=0),\n",
       "  Message('note_on', channel=1, note=33, velocity=110, time=2),\n",
       "  Message('note_on', channel=1, note=45, velocity=110, time=0),\n",
       "  Message('note_on', channel=1, note=33, velocity=0, time=160),\n",
       "  Message('note_on', channel=1, note=45, velocity=0, time=0),\n",
       "  Message('note_on', channel=1, note=33, velocity=110, time=32),\n",
       "  Message('note_on', channel=1, note=45, velocity=110, time=0),\n",
       "  Message('note_on', channel=1, note=33, velocity=0, time=94),\n",
       "  Message('note_on', channel=1, note=45, velocity=0, time=0),\n",
       "  Message('control_change', channel=1, control=64, value=0, time=2),\n",
       "  Message('control_change', channel=1, control=64, value=127, time=0),\n",
       "  Message('note_on', channel=1, note=38, velocity=110, time=0),\n",
       "  Message('note_on', channel=1, note=50, velocity=110, time=0),\n",
       "  Message('note_on', channel=1, note=38, velocity=0, time=160),\n",
       "  Message('note_on', channel=1, note=50, velocity=0, time=0),\n",
       "  Message('note_on', channel=1, note=38, velocity=110, time=32),\n",
       "  Message('note_on', channel=1, note=50, velocity=110, time=0),\n",
       "  Message('note_on', channel=1, note=38, velocity=0, time=94),\n",
       "  Message('note_on', channel=1, note=50, velocity=0, time=0),\n",
       "  Message('note_on', channel=1, note=38, velocity=110, time=2),\n",
       "  Message('note_on', channel=1, note=50, velocity=110, time=0),\n",
       "  Message('note_on', channel=1, note=38, velocity=0, time=160),\n",
       "  Message('note_on', channel=1, note=50, velocity=0, time=0),\n",
       "  Message('note_on', channel=1, note=36, velocity=110, time=32),\n",
       "  Message('note_on', channel=1, note=48, velocity=110, time=0),\n",
       "  Message('note_on', channel=1, note=36, velocity=0, time=94),\n",
       "  Message('note_on', channel=1, note=48, velocity=0, time=0),\n",
       "  Message('control_change', channel=1, control=64, value=0, time=2),\n",
       "  Message('control_change', channel=1, control=64, value=127, time=0),\n",
       "  Message('note_on', channel=1, note=34, velocity=110, time=0),\n",
       "  Message('note_on', channel=1, note=46, velocity=110, time=0),\n",
       "  Message('note_on', channel=1, note=34, velocity=0, time=160),\n",
       "  Message('note_on', channel=1, note=46, velocity=0, time=0),\n",
       "  Message('note_on', channel=1, note=34, velocity=110, time=32),\n",
       "  Message('note_on', channel=1, note=46, velocity=110, time=0),\n",
       "  Message('note_on', channel=1, note=34, velocity=0, time=94),\n",
       "  Message('note_on', channel=1, note=46, velocity=0, time=0),\n",
       "  Message('note_on', channel=1, note=34, velocity=110, time=2),\n",
       "  Message('note_on', channel=1, note=46, velocity=110, time=0),\n",
       "  Message('note_on', channel=1, note=34, velocity=0, time=160),\n",
       "  Message('note_on', channel=1, note=46, velocity=0, time=0),\n",
       "  Message('note_on', channel=1, note=34, velocity=110, time=32),\n",
       "  Message('note_on', channel=1, note=46, velocity=110, time=0),\n",
       "  Message('note_on', channel=1, note=34, velocity=0, time=94),\n",
       "  Message('note_on', channel=1, note=46, velocity=0, time=0),\n",
       "  Message('control_change', channel=1, control=64, value=0, time=2),\n",
       "  Message('control_change', channel=1, control=64, value=127, time=0),\n",
       "  Message('note_on', channel=1, note=33, velocity=110, time=0),\n",
       "  Message('note_on', channel=1, note=45, velocity=110, time=0),\n",
       "  Message('note_on', channel=1, note=33, velocity=0, time=160),\n",
       "  Message('note_on', channel=1, note=45, velocity=0, time=0),\n",
       "  Message('note_on', channel=1, note=33, velocity=110, time=32),\n",
       "  Message('note_on', channel=1, note=45, velocity=110, time=0),\n",
       "  Message('note_on', channel=1, note=33, velocity=0, time=94),\n",
       "  Message('note_on', channel=1, note=45, velocity=0, time=0),\n",
       "  Message('note_on', channel=1, note=33, velocity=110, time=2),\n",
       "  Message('note_on', channel=1, note=45, velocity=110, time=0),\n",
       "  Message('note_on', channel=1, note=33, velocity=0, time=160),\n",
       "  Message('note_on', channel=1, note=45, velocity=0, time=0),\n",
       "  Message('note_on', channel=1, note=33, velocity=110, time=32),\n",
       "  Message('note_on', channel=1, note=45, velocity=110, time=0),\n",
       "  Message('note_on', channel=1, note=33, velocity=0, time=94),\n",
       "  Message('note_on', channel=1, note=45, velocity=0, time=0),\n",
       "  Message('control_change', channel=1, control=64, value=0, time=2),\n",
       "  Message('control_change', channel=1, control=64, value=127, time=0),\n",
       "  Message('note_on', channel=1, note=38, velocity=110, time=0),\n",
       "  Message('note_on', channel=1, note=50, velocity=110, time=0),\n",
       "  Message('note_on', channel=1, note=38, velocity=0, time=160),\n",
       "  Message('note_on', channel=1, note=50, velocity=0, time=0),\n",
       "  Message('note_on', channel=1, note=38, velocity=110, time=32),\n",
       "  Message('note_on', channel=1, note=50, velocity=110, time=0),\n",
       "  Message('note_on', channel=1, note=38, velocity=0, time=94),\n",
       "  Message('note_on', channel=1, note=50, velocity=0, time=0),\n",
       "  Message('note_on', channel=1, note=38, velocity=110, time=2),\n",
       "  Message('note_on', channel=1, note=50, velocity=110, time=0),\n",
       "  Message('note_on', channel=1, note=38, velocity=0, time=160),\n",
       "  Message('note_on', channel=1, note=50, velocity=0, time=0),\n",
       "  Message('note_on', channel=1, note=38, velocity=110, time=32),\n",
       "  Message('note_on', channel=1, note=50, velocity=110, time=0),\n",
       "  Message('note_on', channel=1, note=38, velocity=0, time=94),\n",
       "  Message('note_on', channel=1, note=50, velocity=0, time=0),\n",
       "  Message('control_change', channel=1, control=64, value=0, time=2),\n",
       "  Message('control_change', channel=1, control=64, value=127, time=0),\n",
       "  Message('note_on', channel=1, note=34, velocity=110, time=0),\n",
       "  Message('note_on', channel=1, note=46, velocity=110, time=0),\n",
       "  Message('note_on', channel=1, note=34, velocity=0, time=160),\n",
       "  Message('note_on', channel=1, note=46, velocity=0, time=0),\n",
       "  Message('note_on', channel=1, note=34, velocity=110, time=32),\n",
       "  Message('note_on', channel=1, note=46, velocity=110, time=0),\n",
       "  Message('note_on', channel=1, note=34, velocity=0, time=94),\n",
       "  Message('note_on', channel=1, note=46, velocity=0, time=0),\n",
       "  Message('note_on', channel=1, note=34, velocity=110, time=2),\n",
       "  Message('note_on', channel=1, note=46, velocity=110, time=0),\n",
       "  Message('note_on', channel=1, note=34, velocity=0, time=160),\n",
       "  Message('note_on', channel=1, note=46, velocity=0, time=0),\n",
       "  Message('note_on', channel=1, note=34, velocity=110, time=32),\n",
       "  Message('note_on', channel=1, note=46, velocity=110, time=0),\n",
       "  Message('note_on', channel=1, note=34, velocity=0, time=94),\n",
       "  Message('note_on', channel=1, note=46, velocity=0, time=0),\n",
       "  Message('control_change', channel=1, control=64, value=0, time=2),\n",
       "  Message('control_change', channel=1, control=64, value=127, time=0),\n",
       "  Message('note_on', channel=1, note=29, velocity=110, time=0),\n",
       "  Message('note_on', channel=1, note=41, velocity=110, time=0),\n",
       "  Message('note_on', channel=1, note=29, velocity=0, time=160),\n",
       "  Message('note_on', channel=1, note=41, velocity=0, time=0),\n",
       "  Message('note_on', channel=1, note=29, velocity=110, time=32),\n",
       "  Message('note_on', channel=1, note=41, velocity=110, time=0),\n",
       "  Message('note_on', channel=1, note=29, velocity=0, time=94),\n",
       "  Message('note_on', channel=1, note=41, velocity=0, time=0),\n",
       "  Message('note_on', channel=1, note=29, velocity=110, time=2),\n",
       "  Message('note_on', channel=1, note=41, velocity=110, time=0),\n",
       "  Message('note_on', channel=1, note=29, velocity=0, time=160),\n",
       "  Message('note_on', channel=1, note=41, velocity=0, time=0),\n",
       "  Message('note_on', channel=1, note=29, velocity=110, time=32),\n",
       "  Message('note_on', channel=1, note=41, velocity=110, time=0),\n",
       "  Message('note_on', channel=1, note=29, velocity=0, time=94),\n",
       "  Message('note_on', channel=1, note=41, velocity=0, time=0),\n",
       "  Message('control_change', channel=1, control=64, value=0, time=2),\n",
       "  Message('control_change', channel=1, control=64, value=127, time=0),\n",
       "  Message('note_on', channel=1, note=36, velocity=110, time=0),\n",
       "  Message('note_on', channel=1, note=48, velocity=110, time=0),\n",
       "  Message('note_on', channel=1, note=36, velocity=0, time=160),\n",
       "  Message('note_on', channel=1, note=48, velocity=0, time=0),\n",
       "  Message('note_on', channel=1, note=36, velocity=110, time=32),\n",
       "  Message('note_on', channel=1, note=48, velocity=110, time=0),\n",
       "  Message('note_on', channel=1, note=36, velocity=0, time=94),\n",
       "  Message('note_on', channel=1, note=48, velocity=0, time=0),\n",
       "  Message('control_change', channel=1, control=64, value=0, time=2),\n",
       "  Message('control_change', channel=1, control=64, value=127, time=0),\n",
       "  Message('note_on', channel=1, note=33, velocity=110, time=0),\n",
       "  Message('note_on', channel=1, note=45, velocity=110, time=0),\n",
       "  Message('note_on', channel=1, note=33, velocity=0, time=160),\n",
       "  Message('note_on', channel=1, note=45, velocity=0, time=0),\n",
       "  Message('note_on', channel=1, note=33, velocity=110, time=32),\n",
       "  Message('note_on', channel=1, note=45, velocity=110, time=0),\n",
       "  Message('note_on', channel=1, note=33, velocity=0, time=94),\n",
       "  Message('note_on', channel=1, note=45, velocity=0, time=0),\n",
       "  Message('control_change', channel=1, control=64, value=0, time=2),\n",
       "  Message('control_change', channel=1, control=64, value=127, time=0),\n",
       "  Message('note_on', channel=1, note=38, velocity=110, time=0),\n",
       "  Message('note_on', channel=1, note=50, velocity=110, time=0),\n",
       "  Message('note_on', channel=1, note=38, velocity=0, time=160),\n",
       "  Message('note_on', channel=1, note=50, velocity=0, time=0),\n",
       "  Message('note_on', channel=1, note=38, velocity=110, time=32),\n",
       "  Message('note_on', channel=1, note=50, velocity=110, time=0),\n",
       "  Message('note_on', channel=1, note=38, velocity=0, time=94),\n",
       "  Message('note_on', channel=1, note=50, velocity=0, time=0),\n",
       "  Message('note_on', channel=1, note=38, velocity=110, time=2),\n",
       "  Message('note_on', channel=1, note=50, velocity=110, time=0),\n",
       "  Message('note_on', channel=1, note=38, velocity=0, time=160),\n",
       "  Message('note_on', channel=1, note=50, velocity=0, time=0),\n",
       "  Message('note_on', channel=1, note=38, velocity=110, time=32),\n",
       "  Message('note_on', channel=1, note=50, velocity=110, time=0),\n",
       "  Message('note_on', channel=1, note=38, velocity=0, time=94),\n",
       "  Message('note_on', channel=1, note=50, velocity=0, time=0),\n",
       "  Message('control_change', channel=1, control=64, value=0, time=2),\n",
       "  Message('control_change', channel=1, control=64, value=127, time=0),\n",
       "  Message('note_on', channel=1, note=38, velocity=110, time=0),\n",
       "  Message('note_on', channel=1, note=50, velocity=110, time=0),\n",
       "  Message('note_on', channel=1, note=38, velocity=0, time=160),\n",
       "  Message('note_on', channel=1, note=50, velocity=0, time=0),\n",
       "  Message('note_on', channel=1, note=38, velocity=110, time=32),\n",
       "  Message('note_on', channel=1, note=50, velocity=110, time=0),\n",
       "  Message('note_on', channel=1, note=38, velocity=0, time=94),\n",
       "  Message('note_on', channel=1, note=50, velocity=0, time=0),\n",
       "  Message('note_on', channel=1, note=38, velocity=110, time=2),\n",
       "  Message('note_on', channel=1, note=50, velocity=110, time=0),\n",
       "  Message('note_on', channel=1, note=38, velocity=0, time=160),\n",
       "  Message('note_on', channel=1, note=50, velocity=0, time=0),\n",
       "  Message('note_on', channel=1, note=38, velocity=110, time=32),\n",
       "  Message('note_on', channel=1, note=50, velocity=110, time=0),\n",
       "  Message('note_on', channel=1, note=38, velocity=0, time=94),\n",
       "  Message('note_on', channel=1, note=50, velocity=0, time=0),\n",
       "  Message('control_change', channel=1, control=64, value=0, time=2),\n",
       "  Message('control_change', channel=1, control=64, value=127, time=0),\n",
       "  Message('note_on', channel=1, note=34, velocity=110, time=0),\n",
       "  Message('note_on', channel=1, note=46, velocity=110, time=0),\n",
       "  Message('note_on', channel=1, note=34, velocity=0, time=160),\n",
       "  Message('note_on', channel=1, note=46, velocity=0, time=0),\n",
       "  Message('note_on', channel=1, note=34, velocity=110, time=32),\n",
       "  Message('note_on', channel=1, note=46, velocity=110, time=0),\n",
       "  Message('note_on', channel=1, note=34, velocity=0, time=94),\n",
       "  Message('note_on', channel=1, note=46, velocity=0, time=0),\n",
       "  Message('note_on', channel=1, note=34, velocity=110, time=2),\n",
       "  Message('note_on', channel=1, note=46, velocity=110, time=0),\n",
       "  Message('note_on', channel=1, note=34, velocity=0, time=160),\n",
       "  Message('note_on', channel=1, note=46, velocity=0, time=0),\n",
       "  Message('note_on', channel=1, note=34, velocity=110, time=32),\n",
       "  Message('note_on', channel=1, note=46, velocity=110, time=0),\n",
       "  Message('note_on', channel=1, note=34, velocity=0, time=94),\n",
       "  Message('note_on', channel=1, note=46, velocity=0, time=0),\n",
       "  Message('control_change', channel=1, control=64, value=0, time=2),\n",
       "  Message('control_change', channel=1, control=64, value=127, time=0),\n",
       "  Message('note_on', channel=1, note=31, velocity=110, time=0),\n",
       "  Message('note_on', channel=1, note=43, velocity=110, time=0),\n",
       "  Message('note_on', channel=1, note=31, velocity=0, time=160),\n",
       "  Message('note_on', channel=1, note=43, velocity=0, time=0),\n",
       "  Message('note_on', channel=1, note=31, velocity=110, time=32),\n",
       "  Message('note_on', channel=1, note=43, velocity=110, time=0),\n",
       "  Message('note_on', channel=1, note=31, velocity=0, time=94),\n",
       "  Message('note_on', channel=1, note=43, velocity=0, time=0),\n",
       "  Message('note_on', channel=1, note=31, velocity=110, time=2),\n",
       "  Message('note_on', channel=1, note=43, velocity=110, time=0),\n",
       "  Message('note_on', channel=1, note=31, velocity=0, time=160),\n",
       "  Message('note_on', channel=1, note=43, velocity=0, time=0),\n",
       "  Message('note_on', channel=1, note=31, velocity=110, time=32),\n",
       "  Message('note_on', channel=1, note=43, velocity=110, time=0),\n",
       "  Message('note_on', channel=1, note=31, velocity=0, time=94),\n",
       "  Message('note_on', channel=1, note=43, velocity=0, time=0),\n",
       "  Message('control_change', channel=1, control=64, value=0, time=2),\n",
       "  Message('control_change', channel=1, control=64, value=127, time=0),\n",
       "  Message('note_on', channel=1, note=38, velocity=110, time=0),\n",
       "  Message('note_on', channel=1, note=50, velocity=110, time=0),\n",
       "  Message('note_on', channel=1, note=38, velocity=0, time=160),\n",
       "  Message('note_on', channel=1, note=50, velocity=0, time=0),\n",
       "  Message('note_on', channel=1, note=38, velocity=110, time=32),\n",
       "  Message('note_on', channel=1, note=50, velocity=110, time=0),\n",
       "  Message('note_on', channel=1, note=38, velocity=0, time=94),\n",
       "  Message('note_on', channel=1, note=50, velocity=0, time=0),\n",
       "  Message('note_on', channel=1, note=38, velocity=110, time=2),\n",
       "  Message('note_on', channel=1, note=50, velocity=110, time=0),\n",
       "  Message('note_on', channel=1, note=38, velocity=0, time=160),\n",
       "  Message('note_on', channel=1, note=50, velocity=0, time=0),\n",
       "  Message('note_on', channel=1, note=38, velocity=110, time=32),\n",
       "  Message('note_on', channel=1, note=50, velocity=110, time=0),\n",
       "  Message('note_on', channel=1, note=38, velocity=0, time=94),\n",
       "  Message('note_on', channel=1, note=50, velocity=0, time=0),\n",
       "  Message('control_change', channel=1, control=64, value=0, time=2),\n",
       "  Message('control_change', channel=1, control=64, value=127, time=0),\n",
       "  Message('note_on', channel=1, note=34, velocity=110, time=0),\n",
       "  Message('note_on', channel=1, note=46, velocity=110, time=0),\n",
       "  Message('note_on', channel=1, note=34, velocity=0, time=160),\n",
       "  Message('note_on', channel=1, note=46, velocity=0, time=0),\n",
       "  Message('note_on', channel=1, note=34, velocity=110, time=32),\n",
       "  Message('note_on', channel=1, note=46, velocity=110, time=0),\n",
       "  Message('note_on', channel=1, note=34, velocity=0, time=94),\n",
       "  Message('note_on', channel=1, note=46, velocity=0, time=0),\n",
       "  Message('note_on', channel=1, note=34, velocity=110, time=2),\n",
       "  Message('note_on', channel=1, note=46, velocity=110, time=0),\n",
       "  Message('note_on', channel=1, note=34, velocity=0, time=160),\n",
       "  Message('note_on', channel=1, note=46, velocity=0, time=0),\n",
       "  Message('note_on', channel=1, note=34, velocity=110, time=32),\n",
       "  Message('note_on', channel=1, note=46, velocity=110, time=0),\n",
       "  Message('note_on', channel=1, note=34, velocity=0, time=94),\n",
       "  Message('note_on', channel=1, note=46, velocity=0, time=0),\n",
       "  Message('control_change', channel=1, control=64, value=0, time=2),\n",
       "  Message('control_change', channel=1, control=64, value=127, time=0),\n",
       "  Message('note_on', channel=1, note=38, velocity=110, time=0),\n",
       "  Message('note_on', channel=1, note=50, velocity=110, time=0),\n",
       "  Message('note_on', channel=1, note=38, velocity=0, time=160),\n",
       "  Message('note_on', channel=1, note=50, velocity=0, time=0),\n",
       "  Message('note_on', channel=1, note=38, velocity=110, time=32),\n",
       "  Message('note_on', channel=1, note=50, velocity=110, time=0),\n",
       "  Message('note_on', channel=1, note=38, velocity=0, time=94),\n",
       "  Message('note_on', channel=1, note=50, velocity=0, time=0),\n",
       "  Message('note_on', channel=1, note=38, velocity=110, time=2),\n",
       "  Message('note_on', channel=1, note=50, velocity=110, time=0),\n",
       "  Message('note_on', channel=1, note=38, velocity=0, time=160),\n",
       "  Message('note_on', channel=1, note=50, velocity=0, time=0),\n",
       "  Message('note_on', channel=1, note=38, velocity=110, time=32),\n",
       "  Message('note_on', channel=1, note=50, velocity=110, time=0),\n",
       "  Message('note_on', channel=1, note=38, velocity=0, time=94),\n",
       "  Message('note_on', channel=1, note=50, velocity=0, time=0),\n",
       "  Message('control_change', channel=1, control=64, value=0, time=2),\n",
       "  Message('control_change', channel=1, control=64, value=127, time=0),\n",
       "  Message('note_on', channel=1, note=33, velocity=110, time=0),\n",
       "  Message('note_on', channel=1, note=45, velocity=110, time=0),\n",
       "  Message('note_on', channel=1, note=33, velocity=0, time=160),\n",
       "  Message('note_on', channel=1, note=45, velocity=0, time=0),\n",
       "  Message('note_on', channel=1, note=33, velocity=110, time=32),\n",
       "  Message('note_on', channel=1, note=45, velocity=110, time=0),\n",
       "  Message('note_on', channel=1, note=33, velocity=0, time=94),\n",
       "  Message('note_on', channel=1, note=45, velocity=0, time=0),\n",
       "  Message('note_on', channel=1, note=33, velocity=110, time=2),\n",
       "  Message('note_on', channel=1, note=45, velocity=110, time=0),\n",
       "  Message('note_on', channel=1, note=33, velocity=0, time=160),\n",
       "  Message('note_on', channel=1, note=45, velocity=0, time=0),\n",
       "  Message('note_on', channel=1, note=33, velocity=110, time=32),\n",
       "  Message('note_on', channel=1, note=45, velocity=110, time=0),\n",
       "  Message('note_on', channel=1, note=33, velocity=0, time=94),\n",
       "  Message('note_on', channel=1, note=45, velocity=0, time=0),\n",
       "  Message('control_change', channel=1, control=64, value=0, time=2),\n",
       "  Message('control_change', channel=1, control=64, value=127, time=0),\n",
       "  Message('note_on', channel=1, note=38, velocity=110, time=0),\n",
       "  Message('note_on', channel=1, note=50, velocity=110, time=0),\n",
       "  Message('note_on', channel=1, note=38, velocity=0, time=160),\n",
       "  Message('note_on', channel=1, note=50, velocity=0, time=0),\n",
       "  Message('note_on', channel=1, note=38, velocity=110, time=32),\n",
       "  Message('note_on', channel=1, note=50, velocity=110, time=0),\n",
       "  Message('note_on', channel=1, note=38, velocity=0, time=160),\n",
       "  Message('note_on', channel=1, note=50, velocity=0, time=0),\n",
       "  Message('control_change', channel=1, control=64, value=0, time=32),\n",
       "  Message('control_change', channel=1, control=64, value=127, time=0),\n",
       "  Message('note_on', channel=1, note=36, velocity=110, time=0),\n",
       "  Message('note_on', channel=1, note=48, velocity=110, time=0),\n",
       "  Message('note_on', channel=1, note=36, velocity=0, time=160),\n",
       "  Message('note_on', channel=1, note=48, velocity=0, time=0),\n",
       "  Message('note_on', channel=1, note=36, velocity=110, time=32),\n",
       "  Message('note_on', channel=1, note=48, velocity=110, time=0),\n",
       "  Message('note_on', channel=1, note=36, velocity=0, time=160),\n",
       "  Message('note_on', channel=1, note=48, velocity=0, time=0),\n",
       "  Message('note_on', channel=1, note=36, velocity=110, time=32),\n",
       "  Message('note_on', channel=1, note=48, velocity=110, time=0),\n",
       "  Message('note_on', channel=1, note=36, velocity=0, time=160),\n",
       "  Message('note_on', channel=1, note=48, velocity=0, time=0),\n",
       "  Message('control_change', channel=1, control=64, value=0, time=32),\n",
       "  Message('control_change', channel=1, control=64, value=127, time=0),\n",
       "  Message('note_on', channel=1, note=34, velocity=110, time=0),\n",
       "  Message('note_on', channel=1, note=46, velocity=110, time=0),\n",
       "  Message('note_on', channel=1, note=34, velocity=0, time=160),\n",
       "  Message('note_on', channel=1, note=46, velocity=0, time=0),\n",
       "  Message('control_change', channel=1, control=64, value=0, time=32),\n",
       "  Message('control_change', channel=1, control=64, value=127, time=0),\n",
       "  Message('note_on', channel=1, note=33, velocity=110, time=0),\n",
       "  Message('note_on', channel=1, note=45, velocity=110, time=0),\n",
       "  Message('note_on', channel=1, note=33, velocity=0, time=160),\n",
       "  Message('note_on', channel=1, note=45, velocity=0, time=0),\n",
       "  Message('note_on', channel=1, note=33, velocity=110, time=32),\n",
       "  Message('note_on', channel=1, note=45, velocity=110, time=0),\n",
       "  Message('note_on', channel=1, note=33, velocity=0, time=94),\n",
       "  Message('note_on', channel=1, note=45, velocity=0, time=0),\n",
       "  Message('note_on', channel=1, note=33, velocity=110, time=2),\n",
       "  Message('note_on', channel=1, note=45, velocity=110, time=0),\n",
       "  Message('note_on', channel=1, note=33, velocity=0, time=160),\n",
       "  Message('note_on', channel=1, note=45, velocity=0, time=0),\n",
       "  Message('note_on', channel=1, note=33, velocity=110, time=32),\n",
       "  Message('note_on', channel=1, note=45, velocity=110, time=0),\n",
       "  Message('note_on', channel=1, note=33, velocity=0, time=94),\n",
       "  Message('note_on', channel=1, note=45, velocity=0, time=0),\n",
       "  Message('note_on', channel=1, note=33, velocity=110, time=2),\n",
       "  Message('note_on', channel=1, note=45, velocity=110, time=0),\n",
       "  Message('note_on', channel=1, note=33, velocity=0, time=160),\n",
       "  Message('note_on', channel=1, note=45, velocity=0, time=0),\n",
       "  Message('note_on', channel=1, note=33, velocity=110, time=32),\n",
       "  Message('note_on', channel=1, note=45, velocity=110, time=0),\n",
       "  Message('note_on', channel=1, note=33, velocity=0, time=94),\n",
       "  Message('note_on', channel=1, note=45, velocity=0, time=0),\n",
       "  Message('note_on', channel=1, note=33, velocity=110, time=2),\n",
       "  Message('note_on', channel=1, note=45, velocity=110, time=0),\n",
       "  Message('note_on', channel=1, note=33, velocity=0, time=160),\n",
       "  Message('note_on', channel=1, note=45, velocity=0, time=0),\n",
       "  Message('note_on', channel=1, note=33, velocity=110, time=32),\n",
       "  Message('note_on', channel=1, note=45, velocity=110, time=0),\n",
       "  Message('note_on', channel=1, note=33, velocity=0, time=94),\n",
       "  Message('note_on', channel=1, note=45, velocity=0, time=0),\n",
       "  Message('control_change', channel=1, control=64, value=0, time=2),\n",
       "  Message('control_change', channel=1, control=64, value=127, time=0),\n",
       "  Message('note_on', channel=1, note=31, velocity=110, time=0),\n",
       "  Message('note_on', channel=1, note=43, velocity=110, time=0),\n",
       "  Message('note_on', channel=1, note=31, velocity=0, time=160),\n",
       "  Message('note_on', channel=1, note=43, velocity=0, time=0),\n",
       "  Message('note_on', channel=1, note=31, velocity=110, time=32),\n",
       "  Message('note_on', channel=1, note=43, velocity=110, time=0),\n",
       "  Message('note_on', channel=1, note=31, velocity=0, time=94),\n",
       "  Message('note_on', channel=1, note=43, velocity=0, time=0),\n",
       "  Message('note_on', channel=1, note=31, velocity=110, time=2),\n",
       "  Message('note_on', channel=1, note=43, velocity=110, time=0),\n",
       "  Message('note_on', channel=1, note=31, velocity=0, time=160),\n",
       "  Message('note_on', channel=1, note=43, velocity=0, time=0),\n",
       "  Message('note_on', channel=1, note=31, velocity=110, time=32),\n",
       "  Message('note_on', channel=1, note=43, velocity=110, time=0),\n",
       "  Message('note_on', channel=1, note=31, velocity=0, time=94),\n",
       "  Message('note_on', channel=1, note=43, velocity=0, time=0),\n",
       "  Message('note_on', channel=1, note=31, velocity=110, time=2),\n",
       "  Message('note_on', channel=1, note=43, velocity=110, time=0),\n",
       "  Message('note_on', channel=1, note=31, velocity=0, time=160),\n",
       "  Message('note_on', channel=1, note=43, velocity=0, time=0),\n",
       "  Message('note_on', channel=1, note=31, velocity=110, time=32),\n",
       "  Message('note_on', channel=1, note=43, velocity=110, time=0),\n",
       "  Message('note_on', channel=1, note=31, velocity=0, time=94),\n",
       "  Message('note_on', channel=1, note=43, velocity=0, time=0),\n",
       "  Message('note_on', channel=1, note=31, velocity=110, time=2),\n",
       "  Message('note_on', channel=1, note=43, velocity=110, time=0),\n",
       "  Message('note_on', channel=1, note=31, velocity=0, time=160),\n",
       "  Message('note_on', channel=1, note=43, velocity=0, time=0),\n",
       "  Message('note_on', channel=1, note=31, velocity=110, time=32),\n",
       "  Message('note_on', channel=1, note=43, velocity=110, time=0),\n",
       "  Message('note_on', channel=1, note=31, velocity=0, time=94),\n",
       "  Message('note_on', channel=1, note=43, velocity=0, time=0),\n",
       "  Message('control_change', channel=1, control=64, value=0, time=2),\n",
       "  Message('control_change', channel=1, control=64, value=127, time=0),\n",
       "  Message('note_on', channel=1, note=33, velocity=110, time=0),\n",
       "  Message('note_on', channel=1, note=45, velocity=110, time=0),\n",
       "  Message('note_on', channel=1, note=33, velocity=0, time=160),\n",
       "  Message('note_on', channel=1, note=45, velocity=0, time=0),\n",
       "  Message('note_on', channel=1, note=33, velocity=110, time=32),\n",
       "  Message('note_on', channel=1, note=45, velocity=110, time=0),\n",
       "  Message('note_on', channel=1, note=33, velocity=0, time=94),\n",
       "  Message('note_on', channel=1, note=45, velocity=0, time=0),\n",
       "  Message('control_change', channel=1, control=64, value=0, time=2),\n",
       "  Message('control_change', channel=1, control=64, value=127, time=0),\n",
       "  Message('note_on', channel=1, note=33, velocity=110, time=0),\n",
       "  Message('note_on', channel=1, note=45, velocity=110, time=0),\n",
       "  Message('note_on', channel=1, note=33, velocity=0, time=160),\n",
       "  Message('note_on', channel=1, note=45, velocity=0, time=0),\n",
       "  Message('note_on', channel=1, note=33, velocity=110, time=32),\n",
       "  Message('note_on', channel=1, note=45, velocity=110, time=0),\n",
       "  Message('note_on', channel=1, note=33, velocity=0, time=94),\n",
       "  Message('note_on', channel=1, note=45, velocity=0, time=0),\n",
       "  Message('note_on', channel=1, note=33, velocity=110, time=2),\n",
       "  Message('note_on', channel=1, note=45, velocity=110, time=0),\n",
       "  Message('note_on', channel=1, note=33, velocity=0, time=160),\n",
       "  Message('note_on', channel=1, note=45, velocity=0, time=0),\n",
       "  Message('note_on', channel=1, note=33, velocity=110, time=32),\n",
       "  Message('note_on', channel=1, note=45, velocity=110, time=0),\n",
       "  Message('note_on', channel=1, note=33, velocity=0, time=94),\n",
       "  Message('note_on', channel=1, note=45, velocity=0, time=0),\n",
       "  Message('note_on', channel=1, note=33, velocity=110, time=2),\n",
       "  Message('note_on', channel=1, note=45, velocity=110, time=0),\n",
       "  Message('note_on', channel=1, note=33, velocity=0, time=160),\n",
       "  Message('note_on', channel=1, note=45, velocity=0, time=0),\n",
       "  Message('note_on', channel=1, note=33, velocity=110, time=32),\n",
       "  Message('note_on', channel=1, note=45, velocity=110, time=0),\n",
       "  Message('note_on', channel=1, note=33, velocity=0, time=94),\n",
       "  Message('note_on', channel=1, note=45, velocity=0, time=0),\n",
       "  Message('control_change', channel=1, control=64, value=0, time=2),\n",
       "  Message('control_change', channel=1, control=64, value=127, time=0),\n",
       "  Message('note_on', channel=1, note=38, velocity=110, time=0),\n",
       "  Message('note_on', channel=1, note=50, velocity=110, time=0),\n",
       "  Message('note_on', channel=1, note=38, velocity=0, time=160),\n",
       "  Message('note_on', channel=1, note=50, velocity=0, time=0),\n",
       "  Message('note_on', channel=1, note=38, velocity=110, time=32),\n",
       "  Message('note_on', channel=1, note=50, velocity=110, time=0),\n",
       "  Message('note_on', channel=1, note=38, velocity=0, time=94),\n",
       "  Message('note_on', channel=1, note=50, velocity=0, time=0),\n",
       "  Message('note_on', channel=1, note=38, velocity=110, time=2),\n",
       "  Message('note_on', channel=1, note=50, velocity=110, time=0),\n",
       "  Message('note_on', channel=1, note=38, velocity=0, time=160),\n",
       "  Message('note_on', channel=1, note=50, velocity=0, time=0),\n",
       "  Message('note_on', channel=1, note=38, velocity=110, time=32),\n",
       "  Message('note_on', channel=1, note=50, velocity=110, time=0),\n",
       "  Message('note_on', channel=1, note=38, velocity=0, time=94),\n",
       "  Message('note_on', channel=1, note=50, velocity=0, time=0),\n",
       "  Message('note_on', channel=1, note=38, velocity=110, time=2),\n",
       "  Message('note_on', channel=1, note=50, velocity=110, time=0),\n",
       "  Message('note_on', channel=1, note=38, velocity=0, time=160),\n",
       "  Message('note_on', channel=1, note=50, velocity=0, time=0),\n",
       "  Message('note_on', channel=1, note=38, velocity=110, time=32),\n",
       "  Message('note_on', channel=1, note=50, velocity=110, time=0),\n",
       "  Message('note_on', channel=1, note=38, velocity=0, time=94),\n",
       "  Message('note_on', channel=1, note=50, velocity=0, time=0),\n",
       "  Message('note_on', channel=1, note=38, velocity=110, time=2),\n",
       "  Message('note_on', channel=1, note=50, velocity=110, time=0),\n",
       "  Message('note_on', channel=1, note=38, velocity=0, time=94),\n",
       "  Message('note_on', channel=1, note=50, velocity=0, time=0),\n",
       "  Message('note_on', channel=1, note=38, velocity=110, time=2),\n",
       "  Message('note_on', channel=1, note=50, velocity=110, time=0),\n",
       "  Message('note_on', channel=1, note=38, velocity=0, time=94),\n",
       "  Message('note_on', channel=1, note=50, velocity=0, time=0),\n",
       "  Message('note_on', channel=1, note=38, velocity=110, time=2),\n",
       "  Message('note_on', channel=1, note=50, velocity=110, time=0),\n",
       "  Message('note_on', channel=1, note=38, velocity=0, time=94),\n",
       "  Message('note_on', channel=1, note=50, velocity=0, time=0),\n",
       "  Message('control_change', channel=1, control=64, value=0, time=2),\n",
       "  Message('control_change', channel=1, control=64, value=127, time=0),\n",
       "  Message('note_on', channel=1, note=36, velocity=110, time=0),\n",
       "  Message('note_on', channel=1, note=48, velocity=110, time=0),\n",
       "  Message('note_on', channel=1, note=36, velocity=0, time=160),\n",
       "  Message('note_on', channel=1, note=48, velocity=0, time=0),\n",
       "  Message('note_on', channel=1, note=36, velocity=110, time=32),\n",
       "  Message('note_on', channel=1, note=48, velocity=110, time=0),\n",
       "  Message('note_on', channel=1, note=36, velocity=0, time=94),\n",
       "  Message('note_on', channel=1, note=48, velocity=0, time=0),\n",
       "  Message('note_on', channel=1, note=36, velocity=110, time=2),\n",
       "  Message('note_on', channel=1, note=48, velocity=110, time=0),\n",
       "  Message('note_on', channel=1, note=36, velocity=0, time=160),\n",
       "  Message('note_on', channel=1, note=48, velocity=0, time=0),\n",
       "  Message('note_on', channel=1, note=36, velocity=110, time=32),\n",
       "  Message('note_on', channel=1, note=48, velocity=110, time=0),\n",
       "  Message('note_on', channel=1, note=36, velocity=0, time=94),\n",
       "  Message('note_on', channel=1, note=48, velocity=0, time=0),\n",
       "  Message('control_change', channel=1, control=64, value=0, time=2),\n",
       "  Message('control_change', channel=1, control=64, value=127, time=0),\n",
       "  Message('note_on', channel=1, note=41, velocity=110, time=0),\n",
       "  Message('note_on', channel=1, note=53, velocity=110, time=0),\n",
       "  Message('note_on', channel=1, note=41, velocity=0, time=160),\n",
       "  Message('note_on', channel=1, note=53, velocity=0, time=0),\n",
       "  Message('note_on', channel=1, note=41, velocity=110, time=32),\n",
       "  Message('note_on', channel=1, note=53, velocity=110, time=0),\n",
       "  Message('note_on', channel=1, note=41, velocity=0, time=94),\n",
       "  Message('note_on', channel=1, note=53, velocity=0, time=0),\n",
       "  Message('note_on', channel=1, note=41, velocity=110, time=2),\n",
       "  Message('note_on', channel=1, note=53, velocity=110, time=0),\n",
       "  Message('note_on', channel=1, note=41, velocity=0, time=94),\n",
       "  Message('note_on', channel=1, note=53, velocity=0, time=0),\n",
       "  Message('note_on', channel=1, note=41, velocity=110, time=2),\n",
       "  Message('note_on', channel=1, note=53, velocity=110, time=0),\n",
       "  Message('note_on', channel=1, note=41, velocity=0, time=94),\n",
       "  Message('note_on', channel=1, note=53, velocity=0, time=0),\n",
       "  Message('note_on', channel=1, note=41, velocity=110, time=2),\n",
       "  Message('note_on', channel=1, note=53, velocity=110, time=0),\n",
       "  Message('note_on', channel=1, note=41, velocity=0, time=94),\n",
       "  Message('note_on', channel=1, note=53, velocity=0, time=0),\n",
       "  Message('control_change', channel=1, control=64, value=0, time=2),\n",
       "  Message('control_change', channel=1, control=64, value=127, time=0),\n",
       "  Message('note_on', channel=1, note=38, velocity=110, time=0),\n",
       "  Message('note_on', channel=1, note=50, velocity=110, time=0),\n",
       "  Message('note_on', channel=1, note=38, velocity=0, time=160),\n",
       "  Message('note_on', channel=1, note=50, velocity=0, time=0),\n",
       "  Message('note_on', channel=1, note=38, velocity=110, time=32),\n",
       "  Message('note_on', channel=1, note=50, velocity=110, time=0),\n",
       "  Message('note_on', channel=1, note=38, velocity=0, time=94),\n",
       "  Message('note_on', channel=1, note=50, velocity=0, time=0),\n",
       "  Message('note_on', channel=1, note=38, velocity=110, time=2),\n",
       "  Message('note_on', channel=1, note=50, velocity=110, time=0),\n",
       "  Message('note_on', channel=1, note=38, velocity=0, time=160),\n",
       "  Message('note_on', channel=1, note=50, velocity=0, time=0),\n",
       "  Message('note_on', channel=1, note=38, velocity=110, time=32),\n",
       "  Message('note_on', channel=1, note=50, velocity=110, time=0),\n",
       "  Message('note_on', channel=1, note=38, velocity=0, time=94),\n",
       "  Message('note_on', channel=1, note=50, velocity=0, time=0),\n",
       "  Message('note_on', channel=1, note=38, velocity=110, time=2),\n",
       "  Message('note_on', channel=1, note=50, velocity=110, time=0),\n",
       "  Message('note_on', channel=1, note=38, velocity=0, time=160),\n",
       "  Message('note_on', channel=1, note=50, velocity=0, time=0),\n",
       "  Message('note_on', channel=1, note=38, velocity=110, time=32),\n",
       "  Message('note_on', channel=1, note=50, velocity=110, time=0),\n",
       "  Message('note_on', channel=1, note=38, velocity=0, time=94),\n",
       "  Message('note_on', channel=1, note=50, velocity=0, time=0),\n",
       "  Message('note_on', channel=1, note=38, velocity=110, time=2),\n",
       "  Message('note_on', channel=1, note=50, velocity=110, time=0),\n",
       "  Message('note_on', channel=1, note=38, velocity=0, time=94),\n",
       "  Message('note_on', channel=1, note=50, velocity=0, time=0),\n",
       "  Message('note_on', channel=1, note=38, velocity=110, time=2),\n",
       "  Message('note_on', channel=1, note=50, velocity=110, time=0),\n",
       "  Message('note_on', channel=1, note=38, velocity=0, time=94),\n",
       "  Message('note_on', channel=1, note=50, velocity=0, time=0),\n",
       "  Message('note_on', channel=1, note=38, velocity=110, time=2),\n",
       "  Message('note_on', channel=1, note=50, velocity=110, time=0),\n",
       "  Message('note_on', channel=1, note=38, velocity=0, time=94),\n",
       "  Message('note_on', channel=1, note=50, velocity=0, time=0),\n",
       "  Message('control_change', channel=1, control=64, value=0, time=2),\n",
       "  Message('control_change', channel=1, control=64, value=127, time=0),\n",
       "  Message('note_on', channel=1, note=33, velocity=110, time=0),\n",
       "  Message('note_on', channel=1, note=45, velocity=110, time=0),\n",
       "  Message('note_on', channel=1, note=33, velocity=0, time=160),\n",
       "  Message('note_on', channel=1, note=45, velocity=0, time=0),\n",
       "  Message('note_on', channel=1, note=33, velocity=110, time=32),\n",
       "  Message('note_on', channel=1, note=45, velocity=110, time=0),\n",
       "  Message('note_on', channel=1, note=33, velocity=0, time=94),\n",
       "  Message('note_on', channel=1, note=45, velocity=0, time=0),\n",
       "  Message('note_on', channel=1, note=33, velocity=110, time=2),\n",
       "  Message('note_on', channel=1, note=45, velocity=110, time=0),\n",
       "  Message('note_on', channel=1, note=33, velocity=0, time=160),\n",
       "  Message('note_on', channel=1, note=45, velocity=0, time=0),\n",
       "  Message('note_on', channel=1, note=33, velocity=110, time=32),\n",
       "  Message('note_on', channel=1, note=45, velocity=110, time=0),\n",
       "  Message('note_on', channel=1, note=33, velocity=0, time=94),\n",
       "  Message('note_on', channel=1, note=45, velocity=0, time=0),\n",
       "  Message('control_change', channel=1, control=64, value=0, time=2),\n",
       "  Message('control_change', channel=1, control=64, value=127, time=0),\n",
       "  Message('note_on', channel=1, note=38, velocity=110, time=0),\n",
       "  Message('note_on', channel=1, note=50, velocity=110, time=0),\n",
       "  Message('note_on', channel=1, note=38, velocity=0, time=160),\n",
       "  Message('note_on', channel=1, note=50, velocity=0, time=0),\n",
       "  Message('note_on', channel=1, note=38, velocity=110, time=32),\n",
       "  Message('note_on', channel=1, note=50, velocity=110, time=0),\n",
       "  Message('note_on', channel=1, note=38, velocity=0, time=94),\n",
       "  Message('note_on', channel=1, note=50, velocity=0, time=0),\n",
       "  Message('note_on', channel=1, note=38, velocity=110, time=2),\n",
       "  Message('note_on', channel=1, note=50, velocity=110, time=0),\n",
       "  Message('note_on', channel=1, note=38, velocity=0, time=160),\n",
       "  Message('note_on', channel=1, note=50, velocity=0, time=0),\n",
       "  Message('note_on', channel=1, note=38, velocity=110, time=32),\n",
       "  Message('note_on', channel=1, note=50, velocity=110, time=0),\n",
       "  Message('note_on', channel=1, note=38, velocity=0, time=94),\n",
       "  Message('note_on', channel=1, note=50, velocity=0, time=0),\n",
       "  Message('control_change', channel=1, control=64, value=0, time=2),\n",
       "  Message('control_change', channel=1, control=64, value=127, time=0),\n",
       "  Message('note_on', channel=1, note=38, velocity=110, time=0),\n",
       "  Message('note_on', channel=1, note=50, velocity=110, time=0),\n",
       "  Message('note_on', channel=1, note=38, velocity=0, time=160),\n",
       "  Message('note_on', channel=1, note=50, velocity=0, time=0),\n",
       "  Message('note_on', channel=1, note=38, velocity=110, time=32),\n",
       "  Message('note_on', channel=1, note=50, velocity=110, time=0),\n",
       "  Message('note_on', channel=1, note=38, velocity=0, time=94),\n",
       "  Message('note_on', channel=1, note=50, velocity=0, time=0),\n",
       "  Message('note_on', channel=1, note=38, velocity=110, time=2),\n",
       "  Message('note_on', channel=1, note=50, velocity=110, time=0),\n",
       "  Message('note_on', channel=1, note=38, velocity=0, time=160),\n",
       "  Message('note_on', channel=1, note=50, velocity=0, time=0),\n",
       "  Message('note_on', channel=1, note=38, velocity=110, time=32),\n",
       "  Message('note_on', channel=1, note=50, velocity=110, time=0),\n",
       "  Message('note_on', channel=1, note=38, velocity=0, time=94),\n",
       "  Message('note_on', channel=1, note=50, velocity=0, time=0),\n",
       "  Message('control_change', channel=1, control=64, value=0, time=2),\n",
       "  Message('control_change', channel=1, control=64, value=127, time=0),\n",
       "  Message('note_on', channel=1, note=36, velocity=110, time=0),\n",
       "  Message('note_on', channel=1, note=48, velocity=110, time=0),\n",
       "  Message('note_on', channel=1, note=36, velocity=0, time=160),\n",
       "  Message('note_on', channel=1, note=48, velocity=0, time=0),\n",
       "  Message('note_on', channel=1, note=36, velocity=110, time=32),\n",
       "  Message('note_on', channel=1, note=48, velocity=110, time=0),\n",
       "  Message('note_on', channel=1, note=36, velocity=0, time=94),\n",
       "  Message('note_on', channel=1, note=48, velocity=0, time=0),\n",
       "  Message('note_on', channel=1, note=36, velocity=110, time=2),\n",
       "  Message('note_on', channel=1, note=48, velocity=110, time=0),\n",
       "  Message('note_on', channel=1, note=36, velocity=0, time=94),\n",
       "  Message('note_on', channel=1, note=48, velocity=0, time=0),\n",
       "  Message('note_on', channel=1, note=36, velocity=110, time=2),\n",
       "  Message('note_on', channel=1, note=48, velocity=110, time=0),\n",
       "  Message('note_on', channel=1, note=36, velocity=0, time=94),\n",
       "  Message('note_on', channel=1, note=48, velocity=0, time=0),\n",
       "  Message('note_on', channel=1, note=36, velocity=110, time=2),\n",
       "  Message('note_on', channel=1, note=48, velocity=110, time=0),\n",
       "  Message('note_on', channel=1, note=36, velocity=0, time=94),\n",
       "  Message('note_on', channel=1, note=48, velocity=0, time=0),\n",
       "  Message('control_change', channel=1, control=64, value=0, time=2),\n",
       "  Message('control_change', channel=1, control=64, value=127, time=0),\n",
       "  Message('note_on', channel=1, note=41, velocity=110, time=0),\n",
       "  Message('note_on', channel=1, note=53, velocity=110, time=0),\n",
       "  Message('note_on', channel=1, note=41, velocity=0, time=160),\n",
       "  Message('note_on', channel=1, note=53, velocity=0, time=0),\n",
       "  Message('note_on', channel=1, note=41, velocity=110, time=32),\n",
       "  Message('note_on', channel=1, note=53, velocity=110, time=0),\n",
       "  Message('note_on', channel=1, note=41, velocity=0, time=94),\n",
       "  Message('note_on', channel=1, note=53, velocity=0, time=0),\n",
       "  Message('note_on', channel=1, note=41, velocity=110, time=2),\n",
       "  Message('note_on', channel=1, note=53, velocity=110, time=0),\n",
       "  Message('note_on', channel=1, note=41, velocity=0, time=94),\n",
       "  Message('note_on', channel=1, note=53, velocity=0, time=0),\n",
       "  Message('note_on', channel=1, note=41, velocity=110, time=2),\n",
       "  Message('note_on', channel=1, note=53, velocity=110, time=0),\n",
       "  Message('note_on', channel=1, note=41, velocity=0, time=94),\n",
       "  Message('note_on', channel=1, note=53, velocity=0, time=0),\n",
       "  Message('note_on', channel=1, note=41, velocity=110, time=2),\n",
       "  Message('note_on', channel=1, note=53, velocity=110, time=0),\n",
       "  Message('note_on', channel=1, note=41, velocity=0, time=94),\n",
       "  Message('note_on', channel=1, note=53, velocity=0, time=0),\n",
       "  Message('control_change', channel=1, control=64, value=0, time=2),\n",
       "  Message('control_change', channel=1, control=64, value=127, time=0),\n",
       "  Message('note_on', channel=1, note=36, velocity=110, time=0),\n",
       "  Message('note_on', channel=1, note=48, velocity=110, time=0),\n",
       "  Message('note_on', channel=1, note=36, velocity=0, time=160),\n",
       "  Message('note_on', channel=1, note=48, velocity=0, time=0),\n",
       "  Message('note_on', channel=1, note=36, velocity=110, time=32),\n",
       "  Message('note_on', channel=1, note=48, velocity=110, time=0),\n",
       "  Message('note_on', channel=1, note=36, velocity=0, time=94),\n",
       "  Message('note_on', channel=1, note=48, velocity=0, time=0),\n",
       "  Message('note_on', channel=1, note=36, velocity=110, time=2),\n",
       "  Message('note_on', channel=1, note=48, velocity=110, time=0),\n",
       "  Message('note_on', channel=1, note=36, velocity=0, time=94),\n",
       "  Message('note_on', channel=1, note=48, velocity=0, time=0),\n",
       "  Message('note_on', channel=1, note=36, velocity=110, time=2),\n",
       "  Message('note_on', channel=1, note=48, velocity=110, time=0),\n",
       "  Message('note_on', channel=1, note=36, velocity=0, time=94),\n",
       "  Message('note_on', channel=1, note=48, velocity=0, time=0),\n",
       "  Message('note_on', channel=1, note=36, velocity=110, time=2),\n",
       "  Message('note_on', channel=1, note=48, velocity=110, time=0),\n",
       "  Message('note_on', channel=1, note=36, velocity=0, time=94),\n",
       "  Message('note_on', channel=1, note=48, velocity=0, time=0),\n",
       "  Message('control_change', channel=1, control=64, value=0, time=2),\n",
       "  Message('control_change', channel=1, control=64, value=127, time=0),\n",
       "  Message('note_on', channel=1, note=41, velocity=110, time=0),\n",
       "  Message('note_on', channel=1, note=53, velocity=110, time=0),\n",
       "  Message('note_on', channel=1, note=41, velocity=0, time=160),\n",
       "  Message('note_on', channel=1, note=53, velocity=0, time=0),\n",
       "  Message('note_on', channel=1, note=41, velocity=110, time=32),\n",
       "  Message('note_on', channel=1, note=53, velocity=110, time=0),\n",
       "  Message('note_on', channel=1, note=41, velocity=0, time=94),\n",
       "  Message('note_on', channel=1, note=53, velocity=0, time=0),\n",
       "  Message('note_on', channel=1, note=41, velocity=110, time=2),\n",
       "  Message('note_on', channel=1, note=53, velocity=110, time=0),\n",
       "  Message('note_on', channel=1, note=41, velocity=0, time=94),\n",
       "  Message('note_on', channel=1, note=53, velocity=0, time=0),\n",
       "  Message('note_on', channel=1, note=41, velocity=110, time=2),\n",
       "  Message('note_on', channel=1, note=53, velocity=110, time=0),\n",
       "  Message('note_on', channel=1, note=41, velocity=0, time=94),\n",
       "  Message('note_on', channel=1, note=53, velocity=0, time=0),\n",
       "  Message('note_on', channel=1, note=41, velocity=110, time=2),\n",
       "  Message('note_on', channel=1, note=53, velocity=110, time=0),\n",
       "  Message('note_on', channel=1, note=41, velocity=0, time=94),\n",
       "  Message('note_on', channel=1, note=53, velocity=0, time=0),\n",
       "  Message('control_change', channel=1, control=64, value=0, time=2),\n",
       "  Message('control_change', channel=1, control=64, value=127, time=0),\n",
       "  Message('note_on', channel=1, note=33, velocity=110, time=0),\n",
       "  Message('note_on', channel=1, note=45, velocity=110, time=0),\n",
       "  Message('note_on', channel=1, note=33, velocity=0, time=160),\n",
       "  Message('note_on', channel=1, note=45, velocity=0, time=0),\n",
       "  Message('note_on', channel=1, note=33, velocity=110, time=32),\n",
       "  Message('note_on', channel=1, note=45, velocity=110, time=0),\n",
       "  Message('note_on', channel=1, note=33, velocity=0, time=94),\n",
       "  Message('note_on', channel=1, note=45, velocity=0, time=0),\n",
       "  Message('note_on', channel=1, note=33, velocity=110, time=2),\n",
       "  Message('note_on', channel=1, note=45, velocity=110, time=0),\n",
       "  Message('note_on', channel=1, note=33, velocity=0, time=94),\n",
       "  Message('note_on', channel=1, note=45, velocity=0, time=0),\n",
       "  Message('note_on', channel=1, note=33, velocity=110, time=2),\n",
       "  Message('note_on', channel=1, note=45, velocity=110, time=0),\n",
       "  Message('note_on', channel=1, note=33, velocity=0, time=94),\n",
       "  Message('note_on', channel=1, note=45, velocity=0, time=0),\n",
       "  Message('note_on', channel=1, note=33, velocity=110, time=2),\n",
       "  Message('note_on', channel=1, note=45, velocity=110, time=0),\n",
       "  Message('note_on', channel=1, note=33, velocity=0, time=94),\n",
       "  Message('note_on', channel=1, note=45, velocity=0, time=0),\n",
       "  Message('control_change', channel=1, control=64, value=0, time=2),\n",
       "  Message('control_change', channel=1, control=64, value=127, time=0),\n",
       "  Message('note_on', channel=1, note=38, velocity=110, time=0),\n",
       "  Message('note_on', channel=1, note=50, velocity=110, time=0),\n",
       "  Message('note_on', channel=1, note=38, velocity=0, time=160),\n",
       "  Message('note_on', channel=1, note=50, velocity=0, time=0),\n",
       "  Message('note_on', channel=1, note=38, velocity=110, time=32),\n",
       "  Message('note_on', channel=1, note=50, velocity=110, time=0),\n",
       "  Message('note_on', channel=1, note=38, velocity=0, time=94),\n",
       "  Message('note_on', channel=1, note=50, velocity=0, time=0),\n",
       "  Message('note_on', channel=1, note=38, velocity=110, time=2),\n",
       "  Message('note_on', channel=1, note=50, velocity=110, time=0),\n",
       "  Message('note_on', channel=1, note=38, velocity=0, time=160),\n",
       "  Message('note_on', channel=1, note=50, velocity=0, time=0),\n",
       "  Message('note_on', channel=1, note=38, velocity=110, time=32),\n",
       "  Message('note_on', channel=1, note=50, velocity=110, time=0),\n",
       "  Message('note_on', channel=1, note=38, velocity=0, time=94),\n",
       "  Message('note_on', channel=1, note=50, velocity=0, time=0),\n",
       "  Message('control_change', channel=1, control=64, value=0, time=2),\n",
       "  Message('control_change', channel=1, control=64, value=127, time=0),\n",
       "  Message('note_on', channel=1, note=38, velocity=110, time=0),\n",
       "  Message('note_on', channel=1, note=50, velocity=110, time=0),\n",
       "  Message('note_on', channel=1, note=38, velocity=0, time=160),\n",
       "  Message('note_on', channel=1, note=50, velocity=0, time=0),\n",
       "  Message('note_on', channel=1, note=38, velocity=110, time=32),\n",
       "  Message('note_on', channel=1, note=50, velocity=110, time=0),\n",
       "  Message('note_on', channel=1, note=38, velocity=0, time=94),\n",
       "  Message('note_on', channel=1, note=50, velocity=0, time=0),\n",
       "  Message('note_on', channel=1, note=38, velocity=110, time=2),\n",
       "  Message('note_on', channel=1, note=50, velocity=110, time=0),\n",
       "  Message('note_on', channel=1, note=38, velocity=0, time=94),\n",
       "  Message('note_on', channel=1, note=50, velocity=0, time=0),\n",
       "  Message('note_on', channel=1, note=38, velocity=110, time=2),\n",
       "  Message('note_on', channel=1, note=50, velocity=110, time=0),\n",
       "  Message('note_on', channel=1, note=38, velocity=0, time=94),\n",
       "  Message('note_on', channel=1, note=50, velocity=0, time=0),\n",
       "  Message('note_on', channel=1, note=38, velocity=110, time=2),\n",
       "  Message('note_on', channel=1, note=50, velocity=110, time=0),\n",
       "  Message('note_on', channel=1, note=38, velocity=0, time=94),\n",
       "  Message('note_on', channel=1, note=50, velocity=0, time=0),\n",
       "  Message('control_change', channel=1, control=64, value=0, time=2),\n",
       "  Message('control_change', channel=1, control=64, value=127, time=0),\n",
       "  Message('note_on', channel=1, note=38, velocity=110, time=0),\n",
       "  Message('note_on', channel=1, note=50, velocity=110, time=0),\n",
       "  Message('note_on', channel=1, note=38, velocity=0, time=160),\n",
       "  Message('note_on', channel=1, note=50, velocity=0, time=0),\n",
       "  Message('note_on', channel=1, note=38, velocity=110, time=32),\n",
       "  Message('note_on', channel=1, note=50, velocity=110, time=0),\n",
       "  Message('note_on', channel=1, note=38, velocity=0, time=94),\n",
       "  Message('note_on', channel=1, note=50, velocity=0, time=0),\n",
       "  Message('note_on', channel=1, note=38, velocity=110, time=2),\n",
       "  Message('note_on', channel=1, note=50, velocity=110, time=0),\n",
       "  Message('note_on', channel=1, note=38, velocity=0, time=94),\n",
       "  Message('note_on', channel=1, note=50, velocity=0, time=0),\n",
       "  Message('note_on', channel=1, note=38, velocity=110, time=2),\n",
       "  Message('note_on', channel=1, note=50, velocity=110, time=0),\n",
       "  Message('note_on', channel=1, note=38, velocity=0, time=94),\n",
       "  Message('note_on', channel=1, note=50, velocity=0, time=0),\n",
       "  Message('note_on', channel=1, note=38, velocity=110, time=2),\n",
       "  Message('note_on', channel=1, note=50, velocity=110, time=0),\n",
       "  Message('note_on', channel=1, note=38, velocity=0, time=94),\n",
       "  Message('note_on', channel=1, note=50, velocity=0, time=0),\n",
       "  Message('control_change', channel=1, control=64, value=0, time=2),\n",
       "  Message('control_change', channel=1, control=64, value=127, time=0),\n",
       "  Message('note_on', channel=1, note=36, velocity=110, time=0),\n",
       "  Message('note_on', channel=1, note=48, velocity=110, time=0),\n",
       "  Message('note_on', channel=1, note=36, velocity=0, time=160),\n",
       "  Message('note_on', channel=1, note=48, velocity=0, time=0),\n",
       "  Message('note_on', channel=1, note=36, velocity=110, time=32),\n",
       "  Message('note_on', channel=1, note=48, velocity=110, time=0),\n",
       "  Message('note_on', channel=1, note=36, velocity=0, time=94),\n",
       "  Message('note_on', channel=1, note=48, velocity=0, time=0),\n",
       "  Message('note_on', channel=1, note=36, velocity=110, time=2),\n",
       "  Message('note_on', channel=1, note=48, velocity=110, time=0),\n",
       "  Message('note_on', channel=1, note=36, velocity=0, time=94),\n",
       "  Message('note_on', channel=1, note=48, velocity=0, time=0),\n",
       "  Message('note_on', channel=1, note=36, velocity=110, time=2),\n",
       "  Message('note_on', channel=1, note=48, velocity=110, time=0),\n",
       "  Message('note_on', channel=1, note=36, velocity=0, time=94),\n",
       "  Message('note_on', channel=1, note=48, velocity=0, time=0),\n",
       "  Message('note_on', channel=1, note=36, velocity=110, time=2),\n",
       "  Message('note_on', channel=1, note=48, velocity=110, time=0),\n",
       "  Message('note_on', channel=1, note=36, velocity=0, time=94),\n",
       "  Message('note_on', channel=1, note=48, velocity=0, time=0),\n",
       "  Message('control_change', channel=1, control=64, value=0, time=2),\n",
       "  Message('control_change', channel=1, control=64, value=127, time=0),\n",
       "  Message('note_on', channel=1, note=41, velocity=110, time=0),\n",
       "  Message('note_on', channel=1, note=53, velocity=110, time=0),\n",
       "  Message('note_on', channel=1, note=41, velocity=0, time=160),\n",
       "  Message('note_on', channel=1, note=53, velocity=0, time=0),\n",
       "  Message('note_on', channel=1, note=41, velocity=110, time=32),\n",
       "  Message('note_on', channel=1, note=53, velocity=110, time=0),\n",
       "  Message('note_on', channel=1, note=41, velocity=0, time=94),\n",
       "  Message('note_on', channel=1, note=53, velocity=0, time=0),\n",
       "  Message('note_on', channel=1, note=41, velocity=110, time=2),\n",
       "  Message('note_on', channel=1, note=53, velocity=110, time=0),\n",
       "  Message('note_on', channel=1, note=41, velocity=0, time=94),\n",
       "  Message('note_on', channel=1, note=53, velocity=0, time=0),\n",
       "  Message('note_on', channel=1, note=41, velocity=110, time=2),\n",
       "  Message('note_on', channel=1, note=53, velocity=110, time=0),\n",
       "  Message('note_on', channel=1, note=41, velocity=0, time=94),\n",
       "  Message('note_on', channel=1, note=53, velocity=0, time=0),\n",
       "  Message('note_on', channel=1, note=41, velocity=110, time=2),\n",
       "  Message('note_on', channel=1, note=53, velocity=110, time=0),\n",
       "  Message('note_on', channel=1, note=41, velocity=0, time=94),\n",
       "  Message('note_on', channel=1, note=53, velocity=0, time=0),\n",
       "  Message('control_change', channel=1, control=64, value=0, time=2),\n",
       "  Message('control_change', channel=1, control=64, value=127, time=0),\n",
       "  Message('note_on', channel=1, note=34, velocity=110, time=0),\n",
       "  Message('note_on', channel=1, note=46, velocity=110, time=0),\n",
       "  Message('note_on', channel=1, note=34, velocity=0, time=160),\n",
       "  Message('note_on', channel=1, note=46, velocity=0, time=0),\n",
       "  Message('note_on', channel=1, note=34, velocity=110, time=32),\n",
       "  Message('note_on', channel=1, note=46, velocity=110, time=0),\n",
       "  Message('note_on', channel=1, note=34, velocity=0, time=94),\n",
       "  Message('note_on', channel=1, note=46, velocity=0, time=0),\n",
       "  Message('note_on', channel=1, note=34, velocity=110, time=2),\n",
       "  Message('note_on', channel=1, note=46, velocity=110, time=0),\n",
       "  Message('note_on', channel=1, note=34, velocity=0, time=94),\n",
       "  Message('note_on', channel=1, note=46, velocity=0, time=0),\n",
       "  Message('note_on', channel=1, note=34, velocity=110, time=2),\n",
       "  Message('note_on', channel=1, note=46, velocity=110, time=0),\n",
       "  Message('note_on', channel=1, note=34, velocity=0, time=94),\n",
       "  Message('note_on', channel=1, note=46, velocity=0, time=0),\n",
       "  Message('note_on', channel=1, note=34, velocity=110, time=2),\n",
       "  Message('note_on', channel=1, note=46, velocity=110, time=0),\n",
       "  Message('note_on', channel=1, note=34, velocity=0, time=94),\n",
       "  Message('note_on', channel=1, note=46, velocity=0, time=0),\n",
       "  Message('control_change', channel=1, control=64, value=0, time=2),\n",
       "  Message('control_change', channel=1, control=64, value=127, time=0),\n",
       "  Message('note_on', channel=1, note=38, velocity=110, time=0),\n",
       "  Message('note_on', channel=1, note=50, velocity=110, time=0),\n",
       "  Message('note_on', channel=1, note=38, velocity=0, time=160),\n",
       "  Message('note_on', channel=1, note=50, velocity=0, time=0),\n",
       "  Message('note_on', channel=1, note=38, velocity=110, time=32),\n",
       "  Message('note_on', channel=1, note=50, velocity=110, time=0),\n",
       "  Message('note_on', channel=1, note=38, velocity=0, time=94),\n",
       "  Message('note_on', channel=1, note=50, velocity=0, time=0),\n",
       "  Message('note_on', channel=1, note=38, velocity=110, time=2),\n",
       "  Message('note_on', channel=1, note=50, velocity=110, time=0),\n",
       "  Message('note_on', channel=1, note=38, velocity=0, time=94),\n",
       "  Message('note_on', channel=1, note=50, velocity=0, time=0),\n",
       "  Message('note_on', channel=1, note=38, velocity=110, time=2),\n",
       "  Message('note_on', channel=1, note=50, velocity=110, time=0),\n",
       "  Message('note_on', channel=1, note=38, velocity=0, time=94),\n",
       "  Message('note_on', channel=1, note=50, velocity=0, time=0),\n",
       "  Message('note_on', channel=1, note=38, velocity=110, time=2),\n",
       "  Message('note_on', channel=1, note=50, velocity=110, time=0),\n",
       "  Message('note_on', channel=1, note=38, velocity=0, time=94),\n",
       "  Message('note_on', channel=1, note=50, velocity=0, time=0),\n",
       "  Message('control_change', channel=1, control=64, value=0, time=2),\n",
       "  Message('control_change', channel=1, control=64, value=127, time=0),\n",
       "  Message('note_on', channel=1, note=31, velocity=110, time=0),\n",
       "  Message('note_on', channel=1, note=43, velocity=110, time=0),\n",
       "  Message('note_on', channel=1, note=31, velocity=0, time=160),\n",
       "  Message('note_on', channel=1, note=43, velocity=0, time=0),\n",
       "  Message('note_on', channel=1, note=31, velocity=110, time=32),\n",
       "  Message('note_on', channel=1, note=43, velocity=110, time=0),\n",
       "  Message('note_on', channel=1, note=31, velocity=0, time=94),\n",
       "  Message('note_on', channel=1, note=43, velocity=0, time=0),\n",
       "  Message('note_on', channel=1, note=31, velocity=110, time=2),\n",
       "  Message('note_on', channel=1, note=43, velocity=110, time=0),\n",
       "  Message('note_on', channel=1, note=31, velocity=0, time=94),\n",
       "  Message('note_on', channel=1, note=43, velocity=0, time=0),\n",
       "  Message('note_on', channel=1, note=31, velocity=110, time=2),\n",
       "  Message('note_on', channel=1, note=43, velocity=110, time=0),\n",
       "  Message('note_on', channel=1, note=31, velocity=0, time=94),\n",
       "  Message('note_on', channel=1, note=43, velocity=0, time=0),\n",
       "  Message('note_on', channel=1, note=31, velocity=110, time=2),\n",
       "  Message('note_on', channel=1, note=43, velocity=110, time=0),\n",
       "  Message('note_on', channel=1, note=31, velocity=0, time=94),\n",
       "  Message('note_on', channel=1, note=43, velocity=0, time=0),\n",
       "  Message('control_change', channel=1, control=64, value=0, time=2),\n",
       "  Message('control_change', channel=1, control=64, value=127, time=0),\n",
       "  Message('note_on', channel=1, note=33, velocity=110, time=0),\n",
       "  Message('note_on', channel=1, note=45, velocity=110, time=0),\n",
       "  Message('note_on', channel=1, note=33, velocity=0, time=160),\n",
       "  Message('note_on', channel=1, note=45, velocity=0, time=0),\n",
       "  Message('note_on', channel=1, note=33, velocity=110, time=32),\n",
       "  Message('note_on', channel=1, note=45, velocity=110, time=0),\n",
       "  Message('note_on', channel=1, note=33, velocity=0, time=94),\n",
       "  Message('note_on', channel=1, note=45, velocity=0, time=0),\n",
       "  Message('note_on', channel=1, note=33, velocity=110, time=2),\n",
       "  Message('note_on', channel=1, note=45, velocity=110, time=0),\n",
       "  Message('note_on', channel=1, note=33, velocity=0, time=94),\n",
       "  Message('note_on', channel=1, note=45, velocity=0, time=0),\n",
       "  Message('note_on', channel=1, note=33, velocity=110, time=2),\n",
       "  Message('note_on', channel=1, note=45, velocity=110, time=0),\n",
       "  Message('note_on', channel=1, note=33, velocity=0, time=94),\n",
       "  Message('note_on', channel=1, note=45, velocity=0, time=0),\n",
       "  Message('note_on', channel=1, note=33, velocity=110, time=2),\n",
       "  Message('note_on', channel=1, note=45, velocity=110, time=0),\n",
       "  Message('note_on', channel=1, note=33, velocity=0, time=94),\n",
       "  Message('note_on', channel=1, note=45, velocity=0, time=0),\n",
       "  Message('control_change', channel=1, control=64, value=0, time=2),\n",
       "  Message('control_change', channel=1, control=64, value=127, time=0),\n",
       "  Message('note_on', channel=1, note=33, velocity=110, time=0),\n",
       "  Message('note_on', channel=1, note=45, velocity=110, time=0),\n",
       "  Message('note_on', channel=1, note=33, velocity=0, time=160),\n",
       "  Message('note_on', channel=1, note=45, velocity=0, time=0),\n",
       "  Message('note_on', channel=1, note=33, velocity=110, time=32),\n",
       "  Message('note_on', channel=1, note=45, velocity=110, time=0),\n",
       "  Message('note_on', channel=1, note=33, velocity=0, time=94),\n",
       "  Message('note_on', channel=1, note=45, velocity=0, time=0),\n",
       "  Message('note_on', channel=1, note=33, velocity=110, time=2),\n",
       "  Message('note_on', channel=1, note=45, velocity=110, time=0),\n",
       "  Message('note_on', channel=1, note=33, velocity=0, time=94),\n",
       "  Message('note_on', channel=1, note=45, velocity=0, time=0),\n",
       "  Message('note_on', channel=1, note=33, velocity=110, time=2),\n",
       "  Message('note_on', channel=1, note=45, velocity=110, time=0),\n",
       "  Message('note_on', channel=1, note=33, velocity=0, time=94),\n",
       "  Message('note_on', channel=1, note=45, velocity=0, time=0),\n",
       "  Message('note_on', channel=1, note=33, velocity=110, time=2),\n",
       "  Message('note_on', channel=1, note=45, velocity=110, time=0),\n",
       "  Message('note_on', channel=1, note=33, velocity=0, time=94),\n",
       "  Message('note_on', channel=1, note=45, velocity=0, time=0),\n",
       "  Message('control_change', channel=1, control=64, value=0, time=2),\n",
       "  Message('control_change', channel=1, control=64, value=127, time=0),\n",
       "  Message('note_on', channel=1, note=38, velocity=110, time=0),\n",
       "  Message('note_on', channel=1, note=50, velocity=110, time=0),\n",
       "  Message('note_on', channel=1, note=38, velocity=0, time=160),\n",
       "  Message('note_on', channel=1, note=50, velocity=0, time=0),\n",
       "  Message('note_on', channel=1, note=38, velocity=110, time=32),\n",
       "  Message('note_on', channel=1, note=50, velocity=110, time=0),\n",
       "  Message('note_on', channel=1, note=38, velocity=0, time=94),\n",
       "  Message('note_on', channel=1, note=50, velocity=0, time=0),\n",
       "  Message('note_on', channel=1, note=38, velocity=110, time=2),\n",
       "  Message('note_on', channel=1, note=50, velocity=110, time=0),\n",
       "  Message('note_on', channel=1, note=38, velocity=0, time=94),\n",
       "  Message('note_on', channel=1, note=50, velocity=0, time=0),\n",
       "  Message('note_on', channel=1, note=38, velocity=110, time=2),\n",
       "  Message('note_on', channel=1, note=50, velocity=110, time=0),\n",
       "  Message('note_on', channel=1, note=38, velocity=0, time=94),\n",
       "  Message('note_on', channel=1, note=50, velocity=0, time=0),\n",
       "  Message('note_on', channel=1, note=38, velocity=110, time=2),\n",
       "  Message('note_on', channel=1, note=50, velocity=110, time=0),\n",
       "  Message('note_on', channel=1, note=38, velocity=0, time=94),\n",
       "  Message('note_on', channel=1, note=50, velocity=0, time=0),\n",
       "  Message('control_change', channel=1, control=64, value=0, time=2),\n",
       "  Message('control_change', channel=1, control=64, value=127, time=0),\n",
       "  Message('note_on', channel=1, note=31, velocity=110, time=0),\n",
       "  Message('note_on', channel=1, note=43, velocity=110, time=0),\n",
       "  Message('note_on', channel=1, note=31, velocity=0, time=160),\n",
       "  Message('note_on', channel=1, note=43, velocity=0, time=0),\n",
       "  Message('note_on', channel=1, note=31, velocity=110, time=32),\n",
       "  Message('note_on', channel=1, note=43, velocity=110, time=0),\n",
       "  Message('note_on', channel=1, note=31, velocity=0, time=94),\n",
       "  Message('note_on', channel=1, note=43, velocity=0, time=0),\n",
       "  Message('note_on', channel=1, note=31, velocity=110, time=2),\n",
       "  Message('note_on', channel=1, note=43, velocity=110, time=0),\n",
       "  Message('note_on', channel=1, note=31, velocity=0, time=94),\n",
       "  Message('note_on', channel=1, note=43, velocity=0, time=0),\n",
       "  Message('note_on', channel=1, note=31, velocity=110, time=2),\n",
       "  Message('note_on', channel=1, note=43, velocity=110, time=0),\n",
       "  Message('note_on', channel=1, note=31, velocity=0, time=94),\n",
       "  Message('note_on', channel=1, note=43, velocity=0, time=0),\n",
       "  Message('note_on', channel=1, note=31, velocity=110, time=2),\n",
       "  Message('note_on', channel=1, note=43, velocity=110, time=0),\n",
       "  Message('note_on', channel=1, note=31, velocity=0, time=94),\n",
       "  Message('note_on', channel=1, note=43, velocity=0, time=0),\n",
       "  Message('control_change', channel=1, control=64, value=0, time=2),\n",
       "  Message('control_change', channel=1, control=64, value=127, time=0),\n",
       "  Message('note_on', channel=1, note=41, velocity=110, time=0),\n",
       "  Message('note_on', channel=1, note=53, velocity=110, time=0),\n",
       "  Message('note_on', channel=1, note=41, velocity=0, time=160),\n",
       "  Message('note_on', channel=1, note=53, velocity=0, time=0),\n",
       "  Message('note_on', channel=1, note=41, velocity=110, time=32),\n",
       "  Message('note_on', channel=1, note=53, velocity=110, time=0),\n",
       "  Message('note_on', channel=1, note=41, velocity=0, time=94),\n",
       "  Message('note_on', channel=1, note=53, velocity=0, time=0),\n",
       "  Message('note_on', channel=1, note=41, velocity=110, time=2),\n",
       "  Message('note_on', channel=1, note=53, velocity=110, time=0),\n",
       "  Message('note_on', channel=1, note=41, velocity=0, time=160),\n",
       "  Message('note_on', channel=1, note=53, velocity=0, time=0),\n",
       "  Message('note_on', channel=1, note=41, velocity=110, time=32),\n",
       "  Message('note_on', channel=1, note=53, velocity=110, time=0),\n",
       "  Message('note_on', channel=1, note=41, velocity=0, time=94),\n",
       "  Message('note_on', channel=1, note=53, velocity=0, time=0),\n",
       "  Message('control_change', channel=1, control=64, value=0, time=2),\n",
       "  Message('control_change', channel=1, control=64, value=127, time=0),\n",
       "  Message('note_on', channel=1, note=36, velocity=110, time=0),\n",
       "  Message('note_on', channel=1, note=48, velocity=110, time=0),\n",
       "  Message('note_on', channel=1, note=36, velocity=0, time=160),\n",
       "  Message('note_on', channel=1, note=48, velocity=0, time=0),\n",
       "  Message('note_on', channel=1, note=36, velocity=110, time=32),\n",
       "  Message('note_on', channel=1, note=48, velocity=110, time=0),\n",
       "  Message('note_on', channel=1, note=36, velocity=0, time=94),\n",
       "  Message('note_on', channel=1, note=48, velocity=0, time=0),\n",
       "  Message('note_on', channel=1, note=36, velocity=110, time=2),\n",
       "  Message('note_on', channel=1, note=48, velocity=110, time=0),\n",
       "  Message('note_on', channel=1, note=36, velocity=0, time=94),\n",
       "  Message('note_on', channel=1, note=48, velocity=0, time=0),\n",
       "  Message('note_on', channel=1, note=36, velocity=110, time=2),\n",
       "  Message('note_on', channel=1, note=48, velocity=110, time=0),\n",
       "  Message('note_on', channel=1, note=36, velocity=0, time=94),\n",
       "  Message('note_on', channel=1, note=48, velocity=0, time=0),\n",
       "  Message('note_on', channel=1, note=36, velocity=110, time=2),\n",
       "  Message('note_on', channel=1, note=48, velocity=110, time=0),\n",
       "  Message('note_on', channel=1, note=36, velocity=0, time=94),\n",
       "  Message('note_on', channel=1, note=48, velocity=0, time=0),\n",
       "  Message('control_change', channel=1, control=64, value=0, time=2),\n",
       "  Message('control_change', channel=1, control=64, value=127, time=0),\n",
       "  Message('note_on', channel=1, note=31, velocity=110, time=0),\n",
       "  Message('note_on', channel=1, note=43, velocity=110, time=0),\n",
       "  Message('note_on', channel=1, note=31, velocity=0, time=160),\n",
       "  Message('note_on', channel=1, note=43, velocity=0, time=0),\n",
       "  Message('note_on', channel=1, note=31, velocity=110, time=32),\n",
       "  Message('note_on', channel=1, note=43, velocity=110, time=0),\n",
       "  Message('note_on', channel=1, note=31, velocity=0, time=94),\n",
       "  Message('note_on', channel=1, note=43, velocity=0, time=0),\n",
       "  Message('note_on', channel=1, note=31, velocity=110, time=2),\n",
       "  Message('note_on', channel=1, note=43, velocity=110, time=0),\n",
       "  Message('note_on', channel=1, note=31, velocity=0, time=94),\n",
       "  Message('note_on', channel=1, note=43, velocity=0, time=0),\n",
       "  Message('note_on', channel=1, note=31, velocity=110, time=2),\n",
       "  Message('note_on', channel=1, note=43, velocity=110, time=0),\n",
       "  Message('note_on', channel=1, note=31, velocity=0, time=94),\n",
       "  Message('note_on', channel=1, note=43, velocity=0, time=0),\n",
       "  Message('note_on', channel=1, note=31, velocity=110, time=2),\n",
       "  Message('note_on', channel=1, note=43, velocity=110, time=0),\n",
       "  Message('note_on', channel=1, note=31, velocity=0, time=94),\n",
       "  Message('note_on', channel=1, note=43, velocity=0, time=0),\n",
       "  Message('control_change', channel=1, control=64, value=0, time=2),\n",
       "  Message('control_change', channel=1, control=64, value=127, time=0),\n",
       "  Message('note_on', channel=1, note=33, velocity=110, time=0),\n",
       "  Message('note_on', channel=1, note=45, velocity=110, time=0),\n",
       "  Message('note_on', channel=1, note=33, velocity=0, time=160),\n",
       "  Message('note_on', channel=1, note=45, velocity=0, time=0),\n",
       "  Message('note_on', channel=1, note=33, velocity=110, time=32),\n",
       "  Message('note_on', channel=1, note=45, velocity=110, time=0),\n",
       "  Message('note_on', channel=1, note=33, velocity=0, time=94),\n",
       "  Message('note_on', channel=1, note=45, velocity=0, time=0),\n",
       "  Message('note_on', channel=1, note=33, velocity=110, time=2),\n",
       "  Message('note_on', channel=1, note=45, velocity=110, time=0),\n",
       "  Message('note_on', channel=1, note=33, velocity=0, time=94),\n",
       "  Message('note_on', channel=1, note=45, velocity=0, time=0),\n",
       "  Message('note_on', channel=1, note=33, velocity=110, time=2),\n",
       "  Message('note_on', channel=1, note=45, velocity=110, time=0),\n",
       "  Message('note_on', channel=1, note=33, velocity=0, time=94),\n",
       "  Message('note_on', channel=1, note=45, velocity=0, time=0),\n",
       "  Message('note_on', channel=1, note=33, velocity=110, time=2),\n",
       "  Message('note_on', channel=1, note=45, velocity=110, time=0),\n",
       "  Message('note_on', channel=1, note=33, velocity=0, time=94),\n",
       "  Message('note_on', channel=1, note=45, velocity=0, time=0),\n",
       "  Message('note_on', channel=1, note=33, velocity=110, time=2),\n",
       "  Message('note_on', channel=1, note=45, velocity=110, time=0),\n",
       "  Message('note_on', channel=1, note=33, velocity=0, time=160),\n",
       "  Message('note_on', channel=1, note=45, velocity=0, time=0),\n",
       "  Message('note_on', channel=1, note=33, velocity=110, time=32),\n",
       "  Message('note_on', channel=1, note=45, velocity=110, time=0),\n",
       "  Message('note_on', channel=1, note=33, velocity=0, time=94),\n",
       "  Message('note_on', channel=1, note=45, velocity=0, time=0),\n",
       "  Message('note_on', channel=1, note=33, velocity=110, time=2),\n",
       "  Message('note_on', channel=1, note=45, velocity=110, time=0),\n",
       "  Message('note_on', channel=1, note=33, velocity=0, time=94),\n",
       "  Message('note_on', channel=1, note=45, velocity=0, time=0),\n",
       "  Message('note_on', channel=1, note=33, velocity=110, time=2),\n",
       "  Message('note_on', channel=1, note=45, velocity=110, time=0),\n",
       "  Message('note_on', channel=1, note=33, velocity=0, time=94),\n",
       "  Message('note_on', channel=1, note=45, velocity=0, time=0),\n",
       "  Message('note_on', channel=1, note=33, velocity=110, time=2),\n",
       "  Message('note_on', channel=1, note=45, velocity=110, time=0),\n",
       "  Message('note_on', channel=1, note=33, velocity=0, time=94),\n",
       "  Message('note_on', channel=1, note=45, velocity=0, time=0),\n",
       "  Message('control_change', channel=1, control=64, value=0, time=2),\n",
       "  Message('control_change', channel=1, control=64, value=127, time=0),\n",
       "  Message('note_on', channel=1, note=38, velocity=110, time=0),\n",
       "  Message('note_on', channel=1, note=50, velocity=110, time=0),\n",
       "  Message('note_on', channel=1, note=38, velocity=0, time=160),\n",
       "  Message('note_on', channel=1, note=50, velocity=0, time=0),\n",
       "  Message('note_on', channel=1, note=38, velocity=110, time=32),\n",
       "  Message('note_on', channel=1, note=50, velocity=110, time=0),\n",
       "  Message('note_on', channel=1, note=38, velocity=0, time=94),\n",
       "  Message('note_on', channel=1, note=50, velocity=0, time=0),\n",
       "  Message('note_on', channel=1, note=38, velocity=110, time=2),\n",
       "  Message('note_on', channel=1, note=50, velocity=110, time=0),\n",
       "  Message('note_on', channel=1, note=38, velocity=0, time=94),\n",
       "  Message('note_on', channel=1, note=50, velocity=0, time=0),\n",
       "  Message('note_on', channel=1, note=38, velocity=110, time=2),\n",
       "  Message('note_on', channel=1, note=50, velocity=110, time=0),\n",
       "  Message('note_on', channel=1, note=38, velocity=0, time=94),\n",
       "  Message('note_on', channel=1, note=50, velocity=0, time=0),\n",
       "  Message('note_on', channel=1, note=38, velocity=110, time=2),\n",
       "  Message('note_on', channel=1, note=50, velocity=110, time=0),\n",
       "  Message('note_on', channel=1, note=38, velocity=0, time=94),\n",
       "  Message('note_on', channel=1, note=50, velocity=0, time=0),\n",
       "  Message('control_change', channel=1, control=64, value=0, time=2),\n",
       "  Message('control_change', channel=1, control=64, value=127, time=0),\n",
       "  Message('note_on', channel=1, note=38, velocity=110, time=0),\n",
       "  Message('note_on', channel=1, note=50, velocity=110, time=0),\n",
       "  Message('note_on', channel=1, note=38, velocity=0, time=160),\n",
       "  Message('note_on', channel=1, note=50, velocity=0, time=0),\n",
       "  Message('note_on', channel=1, note=38, velocity=110, time=32),\n",
       "  Message('note_on', channel=1, note=50, velocity=110, time=0),\n",
       "  Message('note_on', channel=1, note=38, velocity=0, time=94),\n",
       "  Message('note_on', channel=1, note=50, velocity=0, time=0),\n",
       "  Message('note_on', channel=1, note=38, velocity=110, time=2),\n",
       "  Message('note_on', channel=1, note=50, velocity=110, time=0),\n",
       "  Message('note_on', channel=1, note=38, velocity=0, time=94),\n",
       "  Message('note_on', channel=1, note=50, velocity=0, time=0),\n",
       "  Message('note_on', channel=1, note=38, velocity=110, time=2),\n",
       "  Message('note_on', channel=1, note=50, velocity=110, time=0),\n",
       "  Message('note_on', channel=1, note=38, velocity=0, time=94),\n",
       "  Message('note_on', channel=1, note=50, velocity=0, time=0),\n",
       "  Message('note_on', channel=1, note=38, velocity=110, time=2),\n",
       "  Message('note_on', channel=1, note=50, velocity=110, time=0),\n",
       "  Message('note_on', channel=1, note=38, velocity=0, time=94),\n",
       "  Message('note_on', channel=1, note=50, velocity=0, time=0),\n",
       "  Message('control_change', channel=1, control=64, value=0, time=2),\n",
       "  Message('control_change', channel=1, control=64, value=127, time=0),\n",
       "  Message('note_on', channel=1, note=34, velocity=110, time=0),\n",
       "  Message('note_on', channel=1, note=46, velocity=110, time=0),\n",
       "  Message('note_on', channel=1, note=34, velocity=0, time=160),\n",
       "  Message('note_on', channel=1, note=46, velocity=0, time=0),\n",
       "  Message('note_on', channel=1, note=34, velocity=110, time=32),\n",
       "  Message('note_on', channel=1, note=46, velocity=110, time=0),\n",
       "  Message('note_on', channel=1, note=34, velocity=0, time=94),\n",
       "  Message('note_on', channel=1, note=46, velocity=0, time=0),\n",
       "  Message('note_on', channel=1, note=34, velocity=110, time=2),\n",
       "  Message('note_on', channel=1, note=46, velocity=110, time=0),\n",
       "  Message('note_on', channel=1, note=34, velocity=0, time=94),\n",
       "  Message('note_on', channel=1, note=46, velocity=0, time=0),\n",
       "  Message('note_on', channel=1, note=34, velocity=110, time=2),\n",
       "  Message('note_on', channel=1, note=46, velocity=110, time=0),\n",
       "  Message('note_on', channel=1, note=34, velocity=0, time=94),\n",
       "  Message('note_on', channel=1, note=46, velocity=0, time=0),\n",
       "  Message('note_on', channel=1, note=34, velocity=110, time=2),\n",
       "  Message('note_on', channel=1, note=46, velocity=110, time=0),\n",
       "  Message('note_on', channel=1, note=34, velocity=0, time=94),\n",
       "  Message('note_on', channel=1, note=46, velocity=0, time=0),\n",
       "  Message('control_change', channel=1, control=64, value=0, time=2),\n",
       "  Message('control_change', channel=1, control=64, value=127, time=0),\n",
       "  Message('note_on', channel=1, note=41, velocity=110, time=0),\n",
       "  Message('note_on', channel=1, note=53, velocity=110, time=0),\n",
       "  Message('note_on', channel=1, note=41, velocity=0, time=160),\n",
       "  Message('note_on', channel=1, note=53, velocity=0, time=0),\n",
       "  Message('note_on', channel=1, note=41, velocity=110, time=32),\n",
       "  Message('note_on', channel=1, note=53, velocity=110, time=0),\n",
       "  Message('note_on', channel=1, note=41, velocity=0, time=94),\n",
       "  Message('note_on', channel=1, note=53, velocity=0, time=0),\n",
       "  Message('note_on', channel=1, note=41, velocity=110, time=2),\n",
       "  Message('note_on', channel=1, note=53, velocity=110, time=0),\n",
       "  Message('note_on', channel=1, note=41, velocity=0, time=94),\n",
       "  Message('note_on', channel=1, note=53, velocity=0, time=0),\n",
       "  Message('note_on', channel=1, note=41, velocity=110, time=2),\n",
       "  Message('note_on', channel=1, note=53, velocity=110, time=0),\n",
       "  Message('note_on', channel=1, note=41, velocity=0, time=94),\n",
       "  Message('note_on', channel=1, note=53, velocity=0, time=0),\n",
       "  Message('note_on', channel=1, note=41, velocity=110, time=2),\n",
       "  Message('note_on', channel=1, note=53, velocity=110, time=0),\n",
       "  Message('note_on', channel=1, note=41, velocity=0, time=94),\n",
       "  Message('note_on', channel=1, note=53, velocity=0, time=0),\n",
       "  Message('control_change', channel=1, control=64, value=0, time=2),\n",
       "  Message('control_change', channel=1, control=64, value=127, time=0),\n",
       "  Message('note_on', channel=1, note=36, velocity=110, time=0),\n",
       "  Message('note_on', channel=1, note=48, velocity=110, time=0),\n",
       "  Message('note_on', channel=1, note=36, velocity=0, time=160),\n",
       "  Message('note_on', channel=1, note=48, velocity=0, time=0),\n",
       "  Message('note_on', channel=1, note=36, velocity=110, time=32),\n",
       "  Message('note_on', channel=1, note=48, velocity=110, time=0),\n",
       "  Message('note_on', channel=1, note=36, velocity=0, time=94),\n",
       "  Message('note_on', channel=1, note=48, velocity=0, time=0),\n",
       "  Message('note_on', channel=1, note=36, velocity=110, time=2),\n",
       "  Message('note_on', channel=1, note=48, velocity=110, time=0),\n",
       "  Message('note_on', channel=1, note=36, velocity=0, time=94),\n",
       "  Message('note_on', channel=1, note=48, velocity=0, time=0),\n",
       "  Message('note_on', channel=1, note=36, velocity=110, time=2),\n",
       "  Message('note_on', channel=1, note=48, velocity=110, time=0),\n",
       "  Message('note_on', channel=1, note=36, velocity=0, time=94),\n",
       "  Message('note_on', channel=1, note=48, velocity=0, time=0),\n",
       "  Message('note_on', channel=1, note=36, velocity=110, time=2),\n",
       "  Message('note_on', channel=1, note=48, velocity=110, time=0),\n",
       "  Message('note_on', channel=1, note=36, velocity=0, time=94),\n",
       "  Message('note_on', channel=1, note=48, velocity=0, time=0),\n",
       "  Message('control_change', channel=1, control=64, value=0, time=2),\n",
       "  Message('control_change', channel=1, control=64, value=127, time=0),\n",
       "  Message('note_on', channel=1, note=31, velocity=110, time=0),\n",
       "  Message('note_on', channel=1, note=43, velocity=110, time=0),\n",
       "  Message('note_on', channel=1, note=31, velocity=0, time=160),\n",
       "  Message('note_on', channel=1, note=43, velocity=0, time=0),\n",
       "  Message('note_on', channel=1, note=31, velocity=110, time=32),\n",
       "  Message('note_on', channel=1, note=43, velocity=110, time=0),\n",
       "  Message('note_on', channel=1, note=31, velocity=0, time=94),\n",
       "  Message('note_on', channel=1, note=43, velocity=0, time=0),\n",
       "  Message('note_on', channel=1, note=31, velocity=110, time=2),\n",
       "  Message('note_on', channel=1, note=43, velocity=110, time=0),\n",
       "  Message('note_on', channel=1, note=31, velocity=0, time=94),\n",
       "  Message('note_on', channel=1, note=43, velocity=0, time=0),\n",
       "  Message('note_on', channel=1, note=31, velocity=110, time=2),\n",
       "  Message('note_on', channel=1, note=43, velocity=110, time=0),\n",
       "  Message('note_on', channel=1, note=31, velocity=0, time=94),\n",
       "  Message('note_on', channel=1, note=43, velocity=0, time=0),\n",
       "  Message('note_on', channel=1, note=31, velocity=110, time=2),\n",
       "  Message('note_on', channel=1, note=43, velocity=110, time=0),\n",
       "  Message('note_on', channel=1, note=31, velocity=0, time=94),\n",
       "  Message('note_on', channel=1, note=43, velocity=0, time=0),\n",
       "  Message('control_change', channel=1, control=64, value=0, time=2),\n",
       "  Message('control_change', channel=1, control=64, value=127, time=0),\n",
       "  Message('note_on', channel=1, note=33, velocity=110, time=0),\n",
       "  Message('note_on', channel=1, note=45, velocity=110, time=0),\n",
       "  Message('note_on', channel=1, note=33, velocity=0, time=160),\n",
       "  Message('note_on', channel=1, note=45, velocity=0, time=0),\n",
       "  Message('note_on', channel=1, note=33, velocity=110, time=32),\n",
       "  Message('note_on', channel=1, note=45, velocity=110, time=0),\n",
       "  Message('note_on', channel=1, note=33, velocity=0, time=94),\n",
       "  Message('note_on', channel=1, note=45, velocity=0, time=0),\n",
       "  Message('note_on', channel=1, note=33, velocity=110, time=2),\n",
       "  Message('note_on', channel=1, note=45, velocity=110, time=0),\n",
       "  Message('note_on', channel=1, note=33, velocity=0, time=94),\n",
       "  Message('note_on', channel=1, note=45, velocity=0, time=0),\n",
       "  Message('note_on', channel=1, note=33, velocity=110, time=2),\n",
       "  Message('note_on', channel=1, note=45, velocity=110, time=0),\n",
       "  Message('note_on', channel=1, note=33, velocity=0, time=94),\n",
       "  Message('note_on', channel=1, note=45, velocity=0, time=0),\n",
       "  Message('note_on', channel=1, note=33, velocity=110, time=2),\n",
       "  Message('note_on', channel=1, note=45, velocity=110, time=0),\n",
       "  Message('note_on', channel=1, note=33, velocity=0, time=94),\n",
       "  Message('note_on', channel=1, note=45, velocity=0, time=0),\n",
       "  Message('note_on', channel=1, note=33, velocity=110, time=2),\n",
       "  Message('note_on', channel=1, note=45, velocity=110, time=0),\n",
       "  Message('note_on', channel=1, note=33, velocity=0, time=160),\n",
       "  Message('note_on', channel=1, note=45, velocity=0, time=0),\n",
       "  Message('note_on', channel=1, note=33, velocity=110, time=32),\n",
       "  Message('note_on', channel=1, note=45, velocity=110, time=0),\n",
       "  Message('note_on', channel=1, note=33, velocity=0, time=94),\n",
       "  Message('note_on', channel=1, note=45, velocity=0, time=0),\n",
       "  Message('note_on', channel=1, note=33, velocity=110, time=2),\n",
       "  Message('note_on', channel=1, note=45, velocity=110, time=0),\n",
       "  Message('note_on', channel=1, note=33, velocity=0, time=94),\n",
       "  Message('note_on', channel=1, note=45, velocity=0, time=0),\n",
       "  Message('note_on', channel=1, note=33, velocity=110, time=2),\n",
       "  Message('note_on', channel=1, note=45, velocity=110, time=0),\n",
       "  Message('note_on', channel=1, note=33, velocity=0, time=94),\n",
       "  Message('note_on', channel=1, note=45, velocity=0, time=0),\n",
       "  Message('note_on', channel=1, note=33, velocity=110, time=2),\n",
       "  Message('note_on', channel=1, note=45, velocity=110, time=0),\n",
       "  Message('note_on', channel=1, note=33, velocity=0, time=94),\n",
       "  Message('note_on', channel=1, note=45, velocity=0, time=0),\n",
       "  Message('control_change', channel=1, control=64, value=0, time=2),\n",
       "  Message('control_change', channel=1, control=64, value=127, time=0),\n",
       "  Message('note_on', channel=1, note=38, velocity=110, time=0),\n",
       "  Message('note_on', channel=1, note=50, velocity=110, time=0),\n",
       "  Message('note_on', channel=1, note=38, velocity=0, time=256),\n",
       "  Message('note_on', channel=1, note=50, velocity=0, time=0),\n",
       "  Message('note_on', channel=1, note=38, velocity=110, time=32),\n",
       "  Message('note_on', channel=1, note=50, velocity=110, time=0),\n",
       "  Message('note_on', channel=1, note=38, velocity=0, time=94),\n",
       "  Message('note_on', channel=1, note=50, velocity=0, time=0),\n",
       "  Message('note_on', channel=1, note=38, velocity=110, time=2),\n",
       "  Message('note_on', channel=1, note=50, velocity=110, time=0),\n",
       "  Message('note_on', channel=1, note=38, velocity=0, time=94),\n",
       "  Message('note_on', channel=1, note=50, velocity=0, time=0),\n",
       "  Message('note_on', channel=1, note=38, velocity=110, time=2),\n",
       "  Message('note_on', channel=1, note=50, velocity=110, time=0),\n",
       "  Message('note_on', channel=1, note=38, velocity=0, time=94),\n",
       "  Message('note_on', channel=1, note=50, velocity=0, time=0),\n",
       "  Message('control_change', channel=1, control=64, value=0, time=2),\n",
       "  Message('control_change', channel=1, control=64, value=127, time=0),\n",
       "  Message('note_on', channel=1, note=26, velocity=110, time=0),\n",
       "  Message('note_on', channel=1, note=38, velocity=110, time=0),\n",
       "  Message('note_on', channel=1, note=26, velocity=0, time=720),\n",
       "  Message('note_on', channel=1, note=38, velocity=0, time=0),\n",
       "  MetaMessage('end_of_track', time=0)])"
      ]
     },
     "execution_count": 11,
     "metadata": {},
     "output_type": "execute_result"
    }
   ],
   "source": [
    "mid.tracks[2]"
   ]
  },
  {
   "cell_type": "code",
   "execution_count": null,
   "id": "df043a85",
   "metadata": {},
   "outputs": [],
   "source": []
  },
  {
   "cell_type": "code",
   "execution_count": 14,
   "id": "3223f6a5",
   "metadata": {},
   "outputs": [
    {
     "name": "stdout",
     "output_type": "stream",
     "text": [
      "MidiFile(type=1, ticks_per_beat=120, tracks=[\n",
      "  MidiTrack([\n",
      "    MetaMessage('sequencer_specific', data=(0, 0, 65), time=0),\n",
      "    MetaMessage('track_name', name='JESU        ', time=0),\n",
      "    MetaMessage('key_signature', key='G', time=0),\n",
      "    MetaMessage('midi_port', port=0, time=0),\n",
      "    MetaMessage('time_signature', numerator=9, denominator=8, clocks_per_click=24, notated_32nd_notes_per_beat=8, time=0),\n",
      "    MetaMessage('set_tempo', tempo=500000, time=38340),\n",
      "    MetaMessage('end_of_track', time=0)]),\n",
      "  MidiTrack([\n",
      "    MetaMessage('track_name', name=\"Jesu, Joy of Man's\", time=0),\n",
      "    MetaMessage('instrument_name', name='Synths Strings 1', time=0),\n",
      "    MetaMessage('midi_port', port=0, time=0),\n",
      "    Message('control_change', channel=0, control=0, value=80, time=0),\n",
      "    Message('control_change', channel=0, control=32, value=0, time=0),\n",
      "    Message('program_change', channel=0, program=50, time=0),\n",
      "    Message('note_on', channel=0, note=67, velocity=104, time=60),\n",
      "    Message('note_on', channel=0, note=67, velocity=0, time=48),\n",
      "    Message('note_on', channel=0, note=69, velocity=104, time=12),\n",
      "    Message('note_on', channel=0, note=69, velocity=0, time=48),\n",
      "    Message('note_on', channel=0, note=71, velocity=104, time=12),\n",
      "    Message('note_on', channel=0, note=71, velocity=0, time=48),\n",
      "    Message('note_on', channel=0, note=74, velocity=104, time=12),\n",
      "    Message('note_on', channel=0, note=74, velocity=0, time=48),\n",
      "    Message('note_on', channel=0, note=72, velocity=104, time=12),\n",
      "    Message('note_on', channel=0, note=72, velocity=0, time=48),\n",
      "    Message('note_on', channel=0, note=72, velocity=104, time=12),\n",
      "    Message('note_on', channel=0, note=72, velocity=0, time=48),\n",
      "    Message('note_on', channel=0, note=76, velocity=104, time=12),\n",
      "    Message('note_on', channel=0, note=76, velocity=0, time=48),\n",
      "    Message('note_on', channel=0, note=74, velocity=104, time=12),\n",
      "    Message('note_on', channel=0, note=74, velocity=0, time=48),\n",
      "    Message('note_on', channel=0, note=74, velocity=104, time=12),\n",
      "    Message('note_on', channel=0, note=74, velocity=0, time=48),\n",
      "    Message('note_on', channel=0, note=79, velocity=104, time=12),\n",
      "    Message('note_on', channel=0, note=79, velocity=0, time=48),\n",
      "    Message('note_on', channel=0, note=78, velocity=104, time=12),\n",
      "    Message('note_on', channel=0, note=78, velocity=0, time=48),\n",
      "    Message('note_on', channel=0, note=79, velocity=104, time=12),\n",
      "    Message('note_on', channel=0, note=79, velocity=0, time=48),\n",
      "    Message('note_on', channel=0, note=74, velocity=104, time=12),\n",
      "    Message('note_on', channel=0, note=74, velocity=0, time=48),\n",
      "    Message('note_on', channel=0, note=71, velocity=104, time=12),\n",
      "    Message('note_on', channel=0, note=71, velocity=0, time=48),\n",
      "    Message('note_on', channel=0, note=67, velocity=104, time=12),\n",
      "    Message('note_on', channel=0, note=67, velocity=0, time=48),\n",
      "    Message('note_on', channel=0, note=69, velocity=104, time=12),\n",
      "    Message('note_on', channel=0, note=69, velocity=0, time=48),\n",
      "    Message('note_on', channel=0, note=71, velocity=104, time=12),\n",
      "    Message('note_on', channel=0, note=71, velocity=0, time=48),\n",
      "    Message('note_on', channel=0, note=72, velocity=104, time=12),\n",
      "    Message('note_on', channel=0, note=72, velocity=0, time=48),\n",
      "    Message('note_on', channel=0, note=74, velocity=104, time=12),\n",
      "    Message('note_on', channel=0, note=74, velocity=0, time=48),\n",
      "    Message('note_on', channel=0, note=76, velocity=104, time=12),\n",
      "    Message('note_on', channel=0, note=76, velocity=0, time=48),\n",
      "    Message('note_on', channel=0, note=74, velocity=104, time=12),\n",
      "    Message('note_on', channel=0, note=74, velocity=0, time=48),\n",
      "    Message('note_on', channel=0, note=72, velocity=104, time=12),\n",
      "    Message('note_on', channel=0, note=72, velocity=0, time=48),\n",
      "    Message('note_on', channel=0, note=71, velocity=104, time=12),\n",
      "    Message('note_on', channel=0, note=71, velocity=0, time=48),\n",
      "    Message('note_on', channel=0, note=69, velocity=104, time=12),\n",
      "    Message('note_on', channel=0, note=69, velocity=0, time=48),\n",
      "    Message('note_on', channel=0, note=71, velocity=104, time=12),\n",
      "    Message('note_on', channel=0, note=71, velocity=0, time=48),\n",
      "    Message('note_on', channel=0, note=67, velocity=104, time=12),\n",
      "    Message('note_on', channel=0, note=67, velocity=0, time=48),\n",
      "    Message('note_on', channel=0, note=66, velocity=104, time=12),\n",
      "    Message('note_on', channel=0, note=66, velocity=0, time=48),\n",
      "    Message('note_on', channel=0, note=67, velocity=104, time=12),\n",
      "    Message('note_on', channel=0, note=67, velocity=0, time=48),\n",
      "    Message('note_on', channel=0, note=69, velocity=104, time=12),\n",
      "    Message('note_on', channel=0, note=69, velocity=0, time=48),\n",
      "    Message('note_on', channel=0, note=62, velocity=104, time=12),\n",
      "    Message('note_on', channel=0, note=62, velocity=0, time=48),\n",
      "    Message('note_on', channel=0, note=66, velocity=104, time=12),\n",
      "    Message('note_on', channel=0, note=66, velocity=0, time=48),\n",
      "    Message('note_on', channel=0, note=69, velocity=104, time=12),\n",
      "    Message('note_on', channel=0, note=69, velocity=0, time=48),\n",
      "    Message('note_on', channel=0, note=72, velocity=104, time=12),\n",
      "    Message('note_on', channel=0, note=72, velocity=0, time=48),\n",
      "    Message('note_on', channel=0, note=71, velocity=104, time=12),\n",
      "    Message('note_on', channel=0, note=71, velocity=0, time=48),\n",
      "    Message('note_on', channel=0, note=69, velocity=104, time=12),\n",
      "    Message('note_on', channel=0, note=69, velocity=0, time=48),\n",
      "    Message('note_on', channel=0, note=71, velocity=104, time=12),\n",
      "    Message('note_on', channel=0, note=71, velocity=0, time=48),\n",
      "    Message('note_on', channel=0, note=67, velocity=104, time=12),\n",
      "    Message('note_on', channel=0, note=67, velocity=0, time=48),\n",
      "    Message('note_on', channel=0, note=69, velocity=104, time=12),\n",
      "    Message('note_on', channel=0, note=69, velocity=0, time=48),\n",
      "    Message('note_on', channel=0, note=71, velocity=104, time=12),\n",
      "    Message('note_on', channel=0, note=71, velocity=0, time=48),\n",
      "    Message('note_on', channel=0, note=74, velocity=104, time=12),\n",
      "    Message('note_on', channel=0, note=74, velocity=0, time=48),\n",
      "    Message('note_on', channel=0, note=72, velocity=104, time=12),\n",
      "    Message('note_on', channel=0, note=72, velocity=0, time=48),\n",
      "    Message('note_on', channel=0, note=72, velocity=104, time=12),\n",
      "    Message('note_on', channel=0, note=72, velocity=0, time=48),\n",
      "    Message('note_on', channel=0, note=76, velocity=104, time=12),\n",
      "    Message('note_on', channel=0, note=76, velocity=0, time=48),\n",
      "    Message('note_on', channel=0, note=74, velocity=104, time=12),\n",
      "    Message('note_on', channel=0, note=74, velocity=0, time=48),\n",
      "    Message('note_on', channel=0, note=74, velocity=104, time=12),\n",
      "    Message('note_on', channel=0, note=74, velocity=0, time=48),\n",
      "    Message('note_on', channel=0, note=79, velocity=104, time=12),\n",
      "    Message('note_on', channel=0, note=79, velocity=0, time=48),\n",
      "    Message('note_on', channel=0, note=78, velocity=104, time=12),\n",
      "    Message('note_on', channel=0, note=78, velocity=0, time=48),\n",
      "    Message('note_on', channel=0, note=79, velocity=104, time=12),\n",
      "    Message('note_on', channel=0, note=79, velocity=0, time=48),\n",
      "    Message('note_on', channel=0, note=74, velocity=104, time=12),\n",
      "    Message('note_on', channel=0, note=74, velocity=0, time=48),\n",
      "    Message('note_on', channel=0, note=71, velocity=104, time=12),\n",
      "    Message('note_on', channel=0, note=71, velocity=0, time=48),\n",
      "    Message('note_on', channel=0, note=67, velocity=104, time=12),\n",
      "    Message('note_on', channel=0, note=67, velocity=0, time=48),\n",
      "    Message('note_on', channel=0, note=69, velocity=104, time=12),\n",
      "    Message('note_on', channel=0, note=69, velocity=0, time=48),\n",
      "    Message('note_on', channel=0, note=71, velocity=104, time=12),\n",
      "    Message('note_on', channel=0, note=71, velocity=0, time=48),\n",
      "    Message('note_on', channel=0, note=64, velocity=104, time=12),\n",
      "    Message('note_on', channel=0, note=64, velocity=0, time=48),\n",
      "    Message('note_on', channel=0, note=74, velocity=104, time=12),\n",
      "    Message('note_on', channel=0, note=74, velocity=0, time=48),\n",
      "    Message('note_on', channel=0, note=72, velocity=104, time=12),\n",
      "    Message('note_on', channel=0, note=72, velocity=0, time=48),\n",
      "    Message('note_on', channel=0, note=71, velocity=104, time=12),\n",
      "    Message('note_on', channel=0, note=71, velocity=0, time=48),\n",
      "    Message('note_on', channel=0, note=69, velocity=104, time=12),\n",
      "    Message('note_on', channel=0, note=69, velocity=0, time=48),\n",
      "    Message('note_on', channel=0, note=67, velocity=104, time=12),\n",
      "    Message('note_on', channel=0, note=67, velocity=0, time=48),\n",
      "    Message('note_on', channel=0, note=62, velocity=104, time=12),\n",
      "    Message('note_on', channel=0, note=62, velocity=0, time=48),\n",
      "    Message('note_on', channel=0, note=67, velocity=104, time=12),\n",
      "    Message('note_on', channel=0, note=67, velocity=0, time=48),\n",
      "    Message('note_on', channel=0, note=66, velocity=104, time=12),\n",
      "    Message('note_on', channel=0, note=66, velocity=0, time=48),\n",
      "    Message('note_on', channel=0, note=67, velocity=104, time=12),\n",
      "    Message('note_on', channel=0, note=67, velocity=0, time=48),\n",
      "    Message('note_on', channel=0, note=71, velocity=104, time=12),\n",
      "    Message('note_on', channel=0, note=71, velocity=0, time=48),\n",
      "    Message('note_on', channel=0, note=74, velocity=104, time=12),\n",
      "    Message('note_on', channel=0, note=74, velocity=0, time=48),\n",
      "    Message('note_on', channel=0, note=79, velocity=104, time=12),\n",
      "    Message('note_on', channel=0, note=79, velocity=0, time=48),\n",
      "    Message('note_on', channel=0, note=74, velocity=104, time=12),\n",
      "    Message('note_on', channel=0, note=74, velocity=0, time=48),\n",
      "    Message('note_on', channel=0, note=71, velocity=104, time=12),\n",
      "    Message('note_on', channel=0, note=71, velocity=0, time=48),\n",
      "    Message('note_on', channel=0, note=67, velocity=104, time=12),\n",
      "    Message('note_on', channel=0, note=67, velocity=0, time=48),\n",
      "    Message('note_on', channel=0, note=71, velocity=104, time=12),\n",
      "    Message('note_on', channel=0, note=71, velocity=0, time=48),\n",
      "    Message('note_on', channel=0, note=74, velocity=104, time=12),\n",
      "    Message('note_on', channel=0, note=74, velocity=0, time=48),\n",
      "    Message('note_on', channel=0, note=62, velocity=104, time=12),\n",
      "    Message('note_on', channel=0, note=71, velocity=104, time=0),\n",
      "    Message('note_on', channel=0, note=67, velocity=104, time=0),\n",
      "    Message('note_on', channel=0, note=62, velocity=0, time=336),\n",
      "    Message('note_on', channel=0, note=71, velocity=0, time=0),\n",
      "    Message('note_on', channel=0, note=67, velocity=0, time=0),\n",
      "    Message('note_on', channel=0, note=64, velocity=104, time=24),\n",
      "    Message('note_on', channel=0, note=67, velocity=104, time=0),\n",
      "    Message('note_on', channel=0, note=60, velocity=104, time=0),\n",
      "    Message('note_on', channel=0, note=72, velocity=104, time=0),\n",
      "    Message('note_on', channel=0, note=64, velocity=0, time=168),\n",
      "    Message('note_on', channel=0, note=67, velocity=0, time=0),\n",
      "    Message('note_on', channel=0, note=60, velocity=0, time=0),\n",
      "    Message('note_on', channel=0, note=72, velocity=0, time=0),\n",
      "    Message('note_on', channel=0, note=74, velocity=104, time=12),\n",
      "    Message('note_on', channel=0, note=74, velocity=0, time=336),\n",
      "    Message('note_on', channel=0, note=66, velocity=104, time=24),\n",
      "    Message('note_on', channel=0, note=71, velocity=104, time=0),\n",
      "    Message('note_on', channel=0, note=74, velocity=104, time=0),\n",
      "    Message('note_on', channel=0, note=62, velocity=104, time=0),\n",
      "    Message('note_on', channel=0, note=66, velocity=0, time=168),\n",
      "    Message('note_on', channel=0, note=71, velocity=0, time=0),\n",
      "    Message('note_on', channel=0, note=74, velocity=0, time=0),\n",
      "    Message('note_on', channel=0, note=62, velocity=0, time=0),\n",
      "    Message('note_on', channel=0, note=72, velocity=104, time=12),\n",
      "    Message('note_on', channel=0, note=72, velocity=0, time=336),\n",
      "    Message('note_on', channel=0, note=67, velocity=104, time=24),\n",
      "    Message('note_on', channel=0, note=62, velocity=104, time=0),\n",
      "    Message('note_on', channel=0, note=71, velocity=104, time=0),\n",
      "    Message('note_on', channel=0, note=67, velocity=0, time=168),\n",
      "    Message('note_on', channel=0, note=62, velocity=0, time=0),\n",
      "    Message('note_on', channel=0, note=71, velocity=0, time=0),\n",
      "    Message('note_on', channel=0, note=66, velocity=104, time=12),\n",
      "    Message('note_on', channel=0, note=69, velocity=104, time=0),\n",
      "    Message('note_on', channel=0, note=66, velocity=0, time=48),\n",
      "    Message('note_on', channel=0, note=69, velocity=0, time=0),\n",
      "    Message('note_on', channel=0, note=62, velocity=104, time=12),\n",
      "    Message('note_on', channel=0, note=62, velocity=0, time=48),\n",
      "    Message('note_on', channel=0, note=64, velocity=104, time=12),\n",
      "    Message('note_on', channel=0, note=64, velocity=0, time=48),\n",
      "    Message('note_on', channel=0, note=66, velocity=104, time=12),\n",
      "    Message('note_on', channel=0, note=69, velocity=104, time=0),\n",
      "    Message('note_on', channel=0, note=66, velocity=0, time=48),\n",
      "    Message('note_on', channel=0, note=69, velocity=0, time=0),\n",
      "    Message('note_on', channel=0, note=69, velocity=104, time=12),\n",
      "    Message('note_on', channel=0, note=69, velocity=0, time=48),\n",
      "    Message('note_on', channel=0, note=67, velocity=104, time=12),\n",
      "    Message('note_on', channel=0, note=67, velocity=0, time=48),\n",
      "    Message('note_on', channel=0, note=69, velocity=104, time=12),\n",
      "    Message('note_on', channel=0, note=69, velocity=0, time=48),\n",
      "    Message('note_on', channel=0, note=72, velocity=104, time=12),\n",
      "    Message('note_on', channel=0, note=72, velocity=0, time=48),\n",
      "    Message('note_on', channel=0, note=71, velocity=104, time=12),\n",
      "    Message('note_on', channel=0, note=71, velocity=0, time=48),\n",
      "    Message('note_on', channel=0, note=72, velocity=104, time=12),\n",
      "    Message('note_on', channel=0, note=72, velocity=0, time=48),\n",
      "    Message('note_on', channel=0, note=69, velocity=104, time=12),\n",
      "    Message('note_on', channel=0, note=69, velocity=0, time=48),\n",
      "    Message('note_on', channel=0, note=66, velocity=104, time=12),\n",
      "    Message('note_on', channel=0, note=66, velocity=0, time=48),\n",
      "    Message('note_on', channel=0, note=62, velocity=104, time=12),\n",
      "    Message('note_on', channel=0, note=62, velocity=0, time=48),\n",
      "    Message('note_on', channel=0, note=66, velocity=104, time=12),\n",
      "    Message('note_on', channel=0, note=66, velocity=0, time=48),\n",
      "    Message('note_on', channel=0, note=69, velocity=104, time=12),\n",
      "    Message('note_on', channel=0, note=69, velocity=0, time=48),\n",
      "    Message('note_on', channel=0, note=72, velocity=104, time=12),\n",
      "    Message('note_on', channel=0, note=72, velocity=0, time=48),\n",
      "    Message('note_on', channel=0, note=71, velocity=104, time=12),\n",
      "    Message('note_on', channel=0, note=71, velocity=0, time=48),\n",
      "    Message('note_on', channel=0, note=69, velocity=104, time=12),\n",
      "    Message('note_on', channel=0, note=69, velocity=0, time=48),\n",
      "    Message('note_on', channel=0, note=67, velocity=104, time=12),\n",
      "    Message('note_on', channel=0, note=71, velocity=104, time=0),\n",
      "    Message('note_on', channel=0, note=67, velocity=0, time=336),\n",
      "    Message('note_on', channel=0, note=71, velocity=0, time=0),\n",
      "    Message('note_on', channel=0, note=64, velocity=104, time=24),\n",
      "    Message('note_on', channel=0, note=72, velocity=104, time=0),\n",
      "    Message('note_on', channel=0, note=67, velocity=104, time=0),\n",
      "    Message('note_on', channel=0, note=60, velocity=104, time=0),\n",
      "    Message('note_on', channel=0, note=64, velocity=0, time=168),\n",
      "    Message('note_on', channel=0, note=72, velocity=0, time=0),\n",
      "    Message('note_on', channel=0, note=67, velocity=0, time=0),\n",
      "    Message('note_on', channel=0, note=60, velocity=0, time=0),\n",
      "    Message('note_on', channel=0, note=67, velocity=104, time=12),\n",
      "    Message('note_on', channel=0, note=62, velocity=104, time=0),\n",
      "    Message('note_on', channel=0, note=74, velocity=104, time=0),\n",
      "    Message('note_on', channel=0, note=67, velocity=0, time=336),\n",
      "    Message('note_on', channel=0, note=62, velocity=0, time=0),\n",
      "    Message('note_on', channel=0, note=74, velocity=0, time=0),\n",
      "    Message('note_on', channel=0, note=67, velocity=104, time=24),\n",
      "    Message('note_on', channel=0, note=64, velocity=104, time=0),\n",
      "    Message('note_on', channel=0, note=71, velocity=104, time=0),\n",
      "    Message('note_on', channel=0, note=67, velocity=0, time=168),\n",
      "    Message('note_on', channel=0, note=64, velocity=0, time=0),\n",
      "    Message('note_on', channel=0, note=71, velocity=0, time=0),\n",
      "    Message('note_on', channel=0, note=69, velocity=63, time=12),\n",
      "    Message('note_on', channel=0, note=69, velocity=0, time=116),\n",
      "    Message('note_on', channel=0, note=71, velocity=74, time=4),\n",
      "    Message('note_on', channel=0, note=72, velocity=68, time=30),\n",
      "    Message('note_on', channel=0, note=71, velocity=0, time=14),\n",
      "    Message('note_on', channel=0, note=71, velocity=65, time=16),\n",
      "    Message('note_on', channel=0, note=66, velocity=67, time=0),\n",
      "    Message('note_on', channel=0, note=62, velocity=55, time=0),\n",
      "    Message('note_on', channel=0, note=72, velocity=0, time=14),\n",
      "    Message('note_on', channel=0, note=66, velocity=55, time=166),\n",
      "    Message('note_on', channel=0, note=60, velocity=46, time=0),\n",
      "    Message('note_on', channel=0, note=69, velocity=45, time=0),\n",
      "    Message('note_on', channel=0, note=71, velocity=0, time=8),\n",
      "    Message('note_on', channel=0, note=66, velocity=0, time=0),\n",
      "    Message('note_on', channel=0, note=62, velocity=0, time=0),\n",
      "    Message('note_on', channel=0, note=67, velocity=104, time=172),\n",
      "    Message('note_on', channel=0, note=66, velocity=0, time=8),\n",
      "    Message('note_on', channel=0, note=60, velocity=0, time=0),\n",
      "    Message('note_on', channel=0, note=69, velocity=0, time=0),\n",
      "    Message('note_on', channel=0, note=67, velocity=0, time=40),\n",
      "    Message('note_on', channel=0, note=71, velocity=104, time=12),\n",
      "    Message('note_on', channel=0, note=71, velocity=0, time=48),\n",
      "    Message('note_on', channel=0, note=69, velocity=104, time=12),\n",
      "    Message('note_on', channel=0, note=69, velocity=0, time=48),\n",
      "    Message('note_on', channel=0, note=71, velocity=104, time=12),\n",
      "    Message('note_on', channel=0, note=71, velocity=0, time=48),\n",
      "    Message('note_on', channel=0, note=74, velocity=104, time=12),\n",
      "    Message('note_on', channel=0, note=74, velocity=0, time=48),\n",
      "    Message('note_on', channel=0, note=72, velocity=104, time=12),\n",
      "    Message('note_on', channel=0, note=72, velocity=0, time=48),\n",
      "    Message('note_on', channel=0, note=72, velocity=104, time=12),\n",
      "    Message('note_on', channel=0, note=72, velocity=0, time=48),\n",
      "    Message('note_on', channel=0, note=76, velocity=104, time=12),\n",
      "    Message('note_on', channel=0, note=76, velocity=0, time=48),\n",
      "    Message('note_on', channel=0, note=74, velocity=104, time=12),\n",
      "    Message('note_on', channel=0, note=74, velocity=0, time=48),\n",
      "    Message('note_on', channel=0, note=74, velocity=104, time=12),\n",
      "    Message('note_on', channel=0, note=74, velocity=0, time=48),\n",
      "    Message('note_on', channel=0, note=79, velocity=104, time=12),\n",
      "    Message('note_on', channel=0, note=79, velocity=0, time=48),\n",
      "    Message('note_on', channel=0, note=78, velocity=104, time=12),\n",
      "    Message('note_on', channel=0, note=78, velocity=0, time=48),\n",
      "    Message('note_on', channel=0, note=79, velocity=104, time=12),\n",
      "    Message('note_on', channel=0, note=79, velocity=0, time=48),\n",
      "    Message('note_on', channel=0, note=74, velocity=104, time=12),\n",
      "    Message('note_on', channel=0, note=74, velocity=0, time=48),\n",
      "    Message('note_on', channel=0, note=71, velocity=104, time=12),\n",
      "    Message('note_on', channel=0, note=71, velocity=0, time=48),\n",
      "    Message('note_on', channel=0, note=67, velocity=104, time=12),\n",
      "    Message('note_on', channel=0, note=67, velocity=0, time=48),\n",
      "    Message('note_on', channel=0, note=69, velocity=104, time=12),\n",
      "    Message('note_on', channel=0, note=69, velocity=0, time=48),\n",
      "    Message('note_on', channel=0, note=71, velocity=104, time=12),\n",
      "    Message('note_on', channel=0, note=71, velocity=0, time=48),\n",
      "    Message('note_on', channel=0, note=72, velocity=104, time=12),\n",
      "    Message('note_on', channel=0, note=72, velocity=0, time=48),\n",
      "    Message('note_on', channel=0, note=74, velocity=104, time=12),\n",
      "    Message('note_on', channel=0, note=74, velocity=0, time=48),\n",
      "    Message('note_on', channel=0, note=76, velocity=104, time=12),\n",
      "    Message('note_on', channel=0, note=76, velocity=0, time=48),\n",
      "    Message('note_on', channel=0, note=74, velocity=104, time=12),\n",
      "    Message('note_on', channel=0, note=74, velocity=0, time=48),\n",
      "    Message('note_on', channel=0, note=72, velocity=104, time=12),\n",
      "    Message('note_on', channel=0, note=72, velocity=0, time=48),\n",
      "    Message('note_on', channel=0, note=71, velocity=104, time=12),\n",
      "    Message('note_on', channel=0, note=71, velocity=0, time=48),\n",
      "    Message('note_on', channel=0, note=69, velocity=104, time=12),\n",
      "    Message('note_on', channel=0, note=69, velocity=0, time=48),\n",
      "    Message('note_on', channel=0, note=71, velocity=104, time=12),\n",
      "    Message('note_on', channel=0, note=71, velocity=0, time=48),\n",
      "    Message('note_on', channel=0, note=67, velocity=104, time=12),\n",
      "    Message('note_on', channel=0, note=67, velocity=0, time=48),\n",
      "    Message('note_on', channel=0, note=66, velocity=104, time=12),\n",
      "    Message('note_on', channel=0, note=66, velocity=0, time=48),\n",
      "    Message('note_on', channel=0, note=67, velocity=104, time=12),\n",
      "    Message('note_on', channel=0, note=67, velocity=0, time=48),\n",
      "    Message('note_on', channel=0, note=69, velocity=104, time=12),\n",
      "    Message('note_on', channel=0, note=69, velocity=0, time=48),\n",
      "    Message('note_on', channel=0, note=62, velocity=104, time=12),\n",
      "    Message('note_on', channel=0, note=62, velocity=0, time=48),\n",
      "    Message('note_on', channel=0, note=66, velocity=104, time=12),\n",
      "    Message('note_on', channel=0, note=66, velocity=0, time=48),\n",
      "    Message('note_on', channel=0, note=69, velocity=104, time=12),\n",
      "    Message('note_on', channel=0, note=69, velocity=0, time=48),\n",
      "    Message('note_on', channel=0, note=72, velocity=104, time=12),\n",
      "    Message('note_on', channel=0, note=72, velocity=0, time=48),\n",
      "    Message('note_on', channel=0, note=71, velocity=104, time=12),\n",
      "    Message('note_on', channel=0, note=71, velocity=0, time=48),\n",
      "    Message('note_on', channel=0, note=69, velocity=104, time=12),\n",
      "    Message('note_on', channel=0, note=69, velocity=0, time=48),\n",
      "    Message('note_on', channel=0, note=71, velocity=104, time=12),\n",
      "    Message('note_on', channel=0, note=71, velocity=0, time=48),\n",
      "    Message('note_on', channel=0, note=67, velocity=104, time=12),\n",
      "    Message('note_on', channel=0, note=67, velocity=0, time=48),\n",
      "    Message('note_on', channel=0, note=69, velocity=104, time=12),\n",
      "    Message('note_on', channel=0, note=69, velocity=0, time=48),\n",
      "    Message('note_on', channel=0, note=71, velocity=104, time=12),\n",
      "    Message('note_on', channel=0, note=71, velocity=0, time=48),\n",
      "    Message('note_on', channel=0, note=74, velocity=104, time=12),\n",
      "    Message('note_on', channel=0, note=74, velocity=0, time=48),\n",
      "    Message('note_on', channel=0, note=72, velocity=104, time=12),\n",
      "    Message('note_on', channel=0, note=72, velocity=0, time=48),\n",
      "    Message('note_on', channel=0, note=72, velocity=104, time=12),\n",
      "    Message('note_on', channel=0, note=72, velocity=0, time=48),\n",
      "    Message('note_on', channel=0, note=76, velocity=104, time=12),\n",
      "    Message('note_on', channel=0, note=76, velocity=0, time=48),\n",
      "    Message('note_on', channel=0, note=74, velocity=104, time=12),\n",
      "    Message('note_on', channel=0, note=74, velocity=0, time=48),\n",
      "    Message('note_on', channel=0, note=74, velocity=104, time=12),\n",
      "    Message('note_on', channel=0, note=74, velocity=0, time=48),\n",
      "    Message('note_on', channel=0, note=79, velocity=104, time=12),\n",
      "    Message('note_on', channel=0, note=79, velocity=0, time=48),\n",
      "    Message('note_on', channel=0, note=78, velocity=104, time=12),\n",
      "    Message('note_on', channel=0, note=78, velocity=0, time=48),\n",
      "    Message('note_on', channel=0, note=79, velocity=104, time=12),\n",
      "    Message('note_on', channel=0, note=79, velocity=0, time=48),\n",
      "    Message('note_on', channel=0, note=74, velocity=104, time=12),\n",
      "    Message('note_on', channel=0, note=74, velocity=0, time=48),\n",
      "    Message('note_on', channel=0, note=71, velocity=104, time=12),\n",
      "    Message('note_on', channel=0, note=71, velocity=0, time=48),\n",
      "    Message('note_on', channel=0, note=67, velocity=104, time=12),\n",
      "    Message('note_on', channel=0, note=67, velocity=0, time=48),\n",
      "    Message('note_on', channel=0, note=69, velocity=104, time=12),\n",
      "    Message('note_on', channel=0, note=69, velocity=0, time=48),\n",
      "    Message('note_on', channel=0, note=71, velocity=104, time=12),\n",
      "    Message('note_on', channel=0, note=71, velocity=0, time=48),\n",
      "    Message('note_on', channel=0, note=64, velocity=104, time=12),\n",
      "    Message('note_on', channel=0, note=64, velocity=0, time=48),\n",
      "    Message('note_on', channel=0, note=74, velocity=104, time=12),\n",
      "    Message('note_on', channel=0, note=74, velocity=0, time=48),\n",
      "    Message('note_on', channel=0, note=72, velocity=104, time=12),\n",
      "    Message('note_on', channel=0, note=72, velocity=0, time=48),\n",
      "    Message('note_on', channel=0, note=71, velocity=104, time=12),\n",
      "    Message('note_on', channel=0, note=71, velocity=0, time=48),\n",
      "    Message('note_on', channel=0, note=69, velocity=104, time=12),\n",
      "    Message('note_on', channel=0, note=69, velocity=0, time=48),\n",
      "    Message('note_on', channel=0, note=67, velocity=104, time=12),\n",
      "    Message('note_on', channel=0, note=67, velocity=0, time=48),\n",
      "    Message('note_on', channel=0, note=62, velocity=104, time=12),\n",
      "    Message('note_on', channel=0, note=62, velocity=0, time=48),\n",
      "    Message('note_on', channel=0, note=67, velocity=104, time=12),\n",
      "    Message('note_on', channel=0, note=67, velocity=0, time=48),\n",
      "    Message('note_on', channel=0, note=66, velocity=104, time=12),\n",
      "    Message('note_on', channel=0, note=66, velocity=0, time=48),\n",
      "    Message('note_on', channel=0, note=67, velocity=104, time=12),\n",
      "    Message('note_on', channel=0, note=71, velocity=104, time=0),\n",
      "    Message('note_on', channel=0, note=67, velocity=0, time=336),\n",
      "    Message('note_on', channel=0, note=71, velocity=0, time=0),\n",
      "    Message('note_on', channel=0, note=64, velocity=104, time=24),\n",
      "    Message('note_on', channel=0, note=60, velocity=104, time=0),\n",
      "    Message('note_on', channel=0, note=67, velocity=104, time=0),\n",
      "    Message('note_on', channel=0, note=72, velocity=104, time=0),\n",
      "    Message('note_on', channel=0, note=64, velocity=0, time=168),\n",
      "    Message('note_on', channel=0, note=60, velocity=0, time=0),\n",
      "    Message('note_on', channel=0, note=67, velocity=0, time=0),\n",
      "    Message('note_on', channel=0, note=72, velocity=0, time=0),\n",
      "    Message('note_on', channel=0, note=74, velocity=104, time=12),\n",
      "    Message('note_on', channel=0, note=74, velocity=0, time=336),\n",
      "    Message('note_on', channel=0, note=66, velocity=104, time=24),\n",
      "    Message('note_on', channel=0, note=71, velocity=104, time=0),\n",
      "    Message('note_on', channel=0, note=74, velocity=104, time=0),\n",
      "    Message('note_on', channel=0, note=62, velocity=104, time=0),\n",
      "    Message('note_on', channel=0, note=66, velocity=0, time=168),\n",
      "    Message('note_on', channel=0, note=71, velocity=0, time=0),\n",
      "    Message('note_on', channel=0, note=74, velocity=0, time=0),\n",
      "    Message('note_on', channel=0, note=62, velocity=0, time=0),\n",
      "    Message('note_on', channel=0, note=72, velocity=104, time=12),\n",
      "    Message('note_on', channel=0, note=72, velocity=0, time=336),\n",
      "    Message('note_on', channel=0, note=67, velocity=104, time=24),\n",
      "    Message('note_on', channel=0, note=62, velocity=104, time=0),\n",
      "    Message('note_on', channel=0, note=71, velocity=104, time=0),\n",
      "    Message('note_on', channel=0, note=67, velocity=0, time=168),\n",
      "    Message('note_on', channel=0, note=62, velocity=0, time=0),\n",
      "    Message('note_on', channel=0, note=71, velocity=0, time=0),\n",
      "    Message('note_on', channel=0, note=66, velocity=104, time=12),\n",
      "    Message('note_on', channel=0, note=69, velocity=104, time=0),\n",
      "    Message('note_on', channel=0, note=66, velocity=0, time=48),\n",
      "    Message('note_on', channel=0, note=69, velocity=0, time=0),\n",
      "    Message('note_on', channel=0, note=62, velocity=104, time=12),\n",
      "    Message('note_on', channel=0, note=62, velocity=0, time=48),\n",
      "    Message('note_on', channel=0, note=64, velocity=104, time=12),\n",
      "    Message('note_on', channel=0, note=64, velocity=0, time=48),\n",
      "    Message('note_on', channel=0, note=66, velocity=104, time=12),\n",
      "    Message('note_on', channel=0, note=69, velocity=104, time=0),\n",
      "    Message('note_on', channel=0, note=66, velocity=0, time=48),\n",
      "    Message('note_on', channel=0, note=69, velocity=0, time=0),\n",
      "    Message('note_on', channel=0, note=69, velocity=104, time=12),\n",
      "    Message('note_on', channel=0, note=69, velocity=0, time=48),\n",
      "    Message('note_on', channel=0, note=67, velocity=104, time=12),\n",
      "    Message('note_on', channel=0, note=67, velocity=0, time=48),\n",
      "    Message('note_on', channel=0, note=69, velocity=104, time=12),\n",
      "    Message('note_on', channel=0, note=69, velocity=0, time=48),\n",
      "    Message('note_on', channel=0, note=72, velocity=104, time=12),\n",
      "    Message('note_on', channel=0, note=72, velocity=0, time=48),\n",
      "    Message('note_on', channel=0, note=71, velocity=104, time=12),\n",
      "    Message('note_on', channel=0, note=71, velocity=0, time=48),\n",
      "    Message('note_on', channel=0, note=72, velocity=104, time=12),\n",
      "    Message('note_on', channel=0, note=72, velocity=0, time=48),\n",
      "    Message('note_on', channel=0, note=69, velocity=104, time=12),\n",
      "    Message('note_on', channel=0, note=69, velocity=0, time=48),\n",
      "    Message('note_on', channel=0, note=66, velocity=104, time=12),\n",
      "    Message('note_on', channel=0, note=66, velocity=0, time=48),\n",
      "    Message('note_on', channel=0, note=62, velocity=104, time=12),\n",
      "    Message('note_on', channel=0, note=62, velocity=0, time=48),\n",
      "    Message('note_on', channel=0, note=66, velocity=104, time=12),\n",
      "    Message('note_on', channel=0, note=66, velocity=0, time=48),\n",
      "    Message('note_on', channel=0, note=69, velocity=104, time=12),\n",
      "    Message('note_on', channel=0, note=69, velocity=0, time=48),\n",
      "    Message('note_on', channel=0, note=72, velocity=104, time=12),\n",
      "    Message('note_on', channel=0, note=72, velocity=0, time=48),\n",
      "    Message('note_on', channel=0, note=71, velocity=104, time=12),\n",
      "    Message('note_on', channel=0, note=71, velocity=0, time=48),\n",
      "    Message('note_on', channel=0, note=69, velocity=104, time=12),\n",
      "    Message('note_on', channel=0, note=69, velocity=0, time=48),\n",
      "    Message('note_on', channel=0, note=71, velocity=104, time=12),\n",
      "    Message('note_on', channel=0, note=67, velocity=104, time=0),\n",
      "    Message('note_on', channel=0, note=71, velocity=0, time=336),\n",
      "    Message('note_on', channel=0, note=67, velocity=0, time=0),\n",
      "    Message('note_on', channel=0, note=64, velocity=104, time=24),\n",
      "    Message('note_on', channel=0, note=60, velocity=104, time=0),\n",
      "    Message('note_on', channel=0, note=67, velocity=104, time=0),\n",
      "    Message('note_on', channel=0, note=72, velocity=104, time=0),\n",
      "    Message('note_on', channel=0, note=64, velocity=0, time=168),\n",
      "    Message('note_on', channel=0, note=60, velocity=0, time=0),\n",
      "    Message('note_on', channel=0, note=67, velocity=0, time=0),\n",
      "    Message('note_on', channel=0, note=72, velocity=0, time=0),\n",
      "    Message('note_on', channel=0, note=67, velocity=104, time=12),\n",
      "    Message('note_on', channel=0, note=74, velocity=104, time=0),\n",
      "    Message('note_on', channel=0, note=62, velocity=104, time=0),\n",
      "    Message('note_on', channel=0, note=67, velocity=0, time=336),\n",
      "    Message('note_on', channel=0, note=74, velocity=0, time=0),\n",
      "    Message('note_on', channel=0, note=62, velocity=0, time=0),\n",
      "    Message('note_on', channel=0, note=67, velocity=104, time=24),\n",
      "    Message('note_on', channel=0, note=64, velocity=104, time=0),\n",
      "    Message('note_on', channel=0, note=71, velocity=104, time=0),\n",
      "    Message('note_on', channel=0, note=67, velocity=0, time=168),\n",
      "    Message('note_on', channel=0, note=64, velocity=0, time=0),\n",
      "    Message('note_on', channel=0, note=71, velocity=0, time=0),\n",
      "    Message('note_on', channel=0, note=69, velocity=104, time=12),\n",
      "    Message('note_on', channel=0, note=69, velocity=0, time=116),\n",
      "    Message('note_on', channel=0, note=71, velocity=104, time=4),\n",
      "    Message('note_on', channel=0, note=72, velocity=104, time=30),\n",
      "    Message('note_on', channel=0, note=71, velocity=0, time=14),\n",
      "    Message('note_on', channel=0, note=66, velocity=104, time=16),\n",
      "    Message('note_on', channel=0, note=71, velocity=104, time=0),\n",
      "    Message('note_on', channel=0, note=62, velocity=104, time=0),\n",
      "    Message('note_on', channel=0, note=72, velocity=0, time=14),\n",
      "    Message('note_on', channel=0, note=66, velocity=0, time=154),\n",
      "    Message('note_on', channel=0, note=71, velocity=0, time=0),\n",
      "    Message('note_on', channel=0, note=62, velocity=0, time=0),\n",
      "    Message('note_on', channel=0, note=66, velocity=104, time=12),\n",
      "    Message('note_on', channel=0, note=60, velocity=104, time=0),\n",
      "    Message('note_on', channel=0, note=69, velocity=104, time=0),\n",
      "    Message('note_on', channel=0, note=66, velocity=0, time=168),\n",
      "    Message('note_on', channel=0, note=60, velocity=0, time=0),\n",
      "    Message('note_on', channel=0, note=69, velocity=0, time=0),\n",
      "    Message('note_on', channel=0, note=67, velocity=104, time=12),\n",
      "    Message('note_on', channel=0, note=67, velocity=0, time=48),\n",
      "    Message('note_on', channel=0, note=71, velocity=104, time=12),\n",
      "    Message('note_on', channel=0, note=71, velocity=0, time=48),\n",
      "    Message('note_on', channel=0, note=69, velocity=104, time=12),\n",
      "    Message('note_on', channel=0, note=69, velocity=0, time=48),\n",
      "    Message('note_on', channel=0, note=71, velocity=104, time=12),\n",
      "    Message('note_on', channel=0, note=71, velocity=0, time=48),\n",
      "    Message('note_on', channel=0, note=74, velocity=104, time=12),\n",
      "    Message('note_on', channel=0, note=74, velocity=0, time=48),\n",
      "    Message('note_on', channel=0, note=72, velocity=104, time=12),\n",
      "    Message('note_on', channel=0, note=72, velocity=0, time=48),\n",
      "    Message('note_on', channel=0, note=72, velocity=104, time=12),\n",
      "    Message('note_on', channel=0, note=72, velocity=0, time=48),\n",
      "    Message('note_on', channel=0, note=76, velocity=104, time=12),\n",
      "    Message('note_on', channel=0, note=76, velocity=0, time=48),\n",
      "    Message('note_on', channel=0, note=74, velocity=104, time=12),\n",
      "    Message('note_on', channel=0, note=74, velocity=0, time=48),\n",
      "    Message('note_on', channel=0, note=74, velocity=104, time=12),\n",
      "    Message('note_on', channel=0, note=74, velocity=0, time=48),\n",
      "    Message('note_on', channel=0, note=79, velocity=104, time=12),\n",
      "    Message('note_on', channel=0, note=79, velocity=0, time=48),\n",
      "    Message('note_on', channel=0, note=78, velocity=104, time=12),\n",
      "    Message('note_on', channel=0, note=78, velocity=0, time=48),\n",
      "    Message('note_on', channel=0, note=79, velocity=104, time=12),\n",
      "    Message('note_on', channel=0, note=79, velocity=0, time=48),\n",
      "    Message('note_on', channel=0, note=74, velocity=104, time=12),\n",
      "    Message('note_on', channel=0, note=74, velocity=0, time=48),\n",
      "    Message('note_on', channel=0, note=71, velocity=104, time=12),\n",
      "    Message('note_on', channel=0, note=71, velocity=0, time=48),\n",
      "    Message('note_on', channel=0, note=67, velocity=104, time=12),\n",
      "    Message('note_on', channel=0, note=67, velocity=0, time=48),\n",
      "    Message('note_on', channel=0, note=69, velocity=104, time=12),\n",
      "    Message('note_on', channel=0, note=69, velocity=0, time=48),\n",
      "    Message('note_on', channel=0, note=71, velocity=104, time=12),\n",
      "    Message('note_on', channel=0, note=71, velocity=0, time=48),\n",
      "    Message('note_on', channel=0, note=72, velocity=104, time=12),\n",
      "    Message('note_on', channel=0, note=72, velocity=0, time=48),\n",
      "    Message('note_on', channel=0, note=74, velocity=104, time=12),\n",
      "    Message('note_on', channel=0, note=74, velocity=0, time=48),\n",
      "    Message('note_on', channel=0, note=76, velocity=104, time=12),\n",
      "    Message('note_on', channel=0, note=76, velocity=0, time=48),\n",
      "    Message('note_on', channel=0, note=74, velocity=104, time=12),\n",
      "    Message('note_on', channel=0, note=74, velocity=0, time=48),\n",
      "    Message('note_on', channel=0, note=72, velocity=104, time=12),\n",
      "    Message('note_on', channel=0, note=72, velocity=0, time=48),\n",
      "    Message('note_on', channel=0, note=71, velocity=104, time=12),\n",
      "    Message('note_on', channel=0, note=71, velocity=0, time=48),\n",
      "    Message('note_on', channel=0, note=69, velocity=104, time=12),\n",
      "    Message('note_on', channel=0, note=69, velocity=0, time=48),\n",
      "    Message('note_on', channel=0, note=71, velocity=104, time=12),\n",
      "    Message('note_on', channel=0, note=71, velocity=0, time=48),\n",
      "    Message('note_on', channel=0, note=67, velocity=104, time=12),\n",
      "    Message('note_on', channel=0, note=67, velocity=0, time=48),\n",
      "    Message('note_on', channel=0, note=66, velocity=104, time=12),\n",
      "    Message('note_on', channel=0, note=66, velocity=0, time=48),\n",
      "    Message('note_on', channel=0, note=67, velocity=104, time=12),\n",
      "    Message('note_on', channel=0, note=67, velocity=0, time=48),\n",
      "    Message('note_on', channel=0, note=69, velocity=104, time=12),\n",
      "    Message('note_on', channel=0, note=69, velocity=0, time=48),\n",
      "    Message('note_on', channel=0, note=62, velocity=104, time=12),\n",
      "    Message('note_on', channel=0, note=62, velocity=0, time=48),\n",
      "    Message('note_on', channel=0, note=66, velocity=104, time=12),\n",
      "    Message('note_on', channel=0, note=66, velocity=0, time=48),\n",
      "    Message('note_on', channel=0, note=69, velocity=104, time=12),\n",
      "    Message('note_on', channel=0, note=69, velocity=0, time=48),\n",
      "    Message('note_on', channel=0, note=72, velocity=104, time=12),\n",
      "    Message('note_on', channel=0, note=72, velocity=0, time=48),\n",
      "    Message('note_on', channel=0, note=71, velocity=104, time=12),\n",
      "    Message('note_on', channel=0, note=71, velocity=0, time=48),\n",
      "    Message('note_on', channel=0, note=69, velocity=104, time=12),\n",
      "    Message('note_on', channel=0, note=69, velocity=0, time=48),\n",
      "    Message('note_on', channel=0, note=71, velocity=104, time=12),\n",
      "    Message('note_on', channel=0, note=71, velocity=0, time=48),\n",
      "    Message('note_on', channel=0, note=67, velocity=104, time=12),\n",
      "    Message('note_on', channel=0, note=67, velocity=0, time=48),\n",
      "    Message('note_on', channel=0, note=69, velocity=104, time=12),\n",
      "    Message('note_on', channel=0, note=69, velocity=0, time=48),\n",
      "    Message('note_on', channel=0, note=71, velocity=104, time=12),\n",
      "    Message('note_on', channel=0, note=71, velocity=0, time=48),\n",
      "    Message('note_on', channel=0, note=74, velocity=104, time=12),\n",
      "    Message('note_on', channel=0, note=74, velocity=0, time=48),\n",
      "    Message('note_on', channel=0, note=72, velocity=104, time=12),\n",
      "    Message('note_on', channel=0, note=72, velocity=0, time=48),\n",
      "    Message('note_on', channel=0, note=72, velocity=104, time=12),\n",
      "    Message('note_on', channel=0, note=72, velocity=0, time=48),\n",
      "    Message('note_on', channel=0, note=76, velocity=104, time=12),\n",
      "    Message('note_on', channel=0, note=76, velocity=0, time=48),\n",
      "    Message('note_on', channel=0, note=74, velocity=104, time=12),\n",
      "    Message('note_on', channel=0, note=74, velocity=0, time=48),\n",
      "    Message('note_on', channel=0, note=74, velocity=104, time=12),\n",
      "    Message('note_on', channel=0, note=74, velocity=0, time=48),\n",
      "    Message('note_on', channel=0, note=79, velocity=104, time=12),\n",
      "    Message('note_on', channel=0, note=79, velocity=0, time=48),\n",
      "    Message('note_on', channel=0, note=78, velocity=104, time=12),\n",
      "    Message('note_on', channel=0, note=78, velocity=0, time=48),\n",
      "    Message('note_on', channel=0, note=79, velocity=104, time=12),\n",
      "    Message('note_on', channel=0, note=79, velocity=0, time=48),\n",
      "    Message('note_on', channel=0, note=74, velocity=104, time=12),\n",
      "    Message('note_on', channel=0, note=74, velocity=0, time=48),\n",
      "    Message('note_on', channel=0, note=71, velocity=104, time=12),\n",
      "    Message('note_on', channel=0, note=71, velocity=0, time=48),\n",
      "    Message('note_on', channel=0, note=67, velocity=104, time=12),\n",
      "    Message('note_on', channel=0, note=67, velocity=0, time=48),\n",
      "    Message('note_on', channel=0, note=69, velocity=104, time=12),\n",
      "    Message('note_on', channel=0, note=69, velocity=0, time=48),\n",
      "    Message('note_on', channel=0, note=71, velocity=104, time=12),\n",
      "    Message('note_on', channel=0, note=71, velocity=0, time=48),\n",
      "    Message('note_on', channel=0, note=64, velocity=104, time=12),\n",
      "    Message('note_on', channel=0, note=64, velocity=0, time=48),\n",
      "    Message('note_on', channel=0, note=74, velocity=104, time=12),\n",
      "    Message('note_on', channel=0, note=74, velocity=0, time=48),\n",
      "    Message('note_on', channel=0, note=72, velocity=104, time=12),\n",
      "    Message('note_on', channel=0, note=72, velocity=0, time=48),\n",
      "    Message('note_on', channel=0, note=71, velocity=104, time=12),\n",
      "    Message('note_on', channel=0, note=71, velocity=0, time=48),\n",
      "    Message('note_on', channel=0, note=69, velocity=104, time=12),\n",
      "    Message('note_on', channel=0, note=69, velocity=0, time=48),\n",
      "    Message('note_on', channel=0, note=67, velocity=104, time=12),\n",
      "    Message('note_on', channel=0, note=67, velocity=0, time=48),\n",
      "    Message('note_on', channel=0, note=62, velocity=104, time=12),\n",
      "    Message('note_on', channel=0, note=62, velocity=0, time=48),\n",
      "    Message('note_on', channel=0, note=67, velocity=104, time=12),\n",
      "    Message('note_on', channel=0, note=67, velocity=0, time=48),\n",
      "    Message('note_on', channel=0, note=66, velocity=104, time=12),\n",
      "    Message('note_on', channel=0, note=66, velocity=0, time=48),\n",
      "    Message('note_on', channel=0, note=67, velocity=104, time=12),\n",
      "    Message('note_on', channel=0, note=67, velocity=0, time=48),\n",
      "    Message('note_on', channel=0, note=71, velocity=104, time=12),\n",
      "    Message('note_on', channel=0, note=71, velocity=0, time=48),\n",
      "    Message('note_on', channel=0, note=74, velocity=104, time=12),\n",
      "    Message('note_on', channel=0, note=74, velocity=0, time=48),\n",
      "    Message('note_on', channel=0, note=79, velocity=104, time=12),\n",
      "    Message('note_on', channel=0, note=79, velocity=0, time=48),\n",
      "    Message('note_on', channel=0, note=74, velocity=104, time=12),\n",
      "    Message('note_on', channel=0, note=74, velocity=0, time=48),\n",
      "    Message('note_on', channel=0, note=71, velocity=104, time=12),\n",
      "    Message('note_on', channel=0, note=71, velocity=0, time=48),\n",
      "    Message('note_on', channel=0, note=67, velocity=104, time=12),\n",
      "    Message('note_on', channel=0, note=67, velocity=0, time=168),\n",
      "    Message('note_on', channel=0, note=66, velocity=94, time=13),\n",
      "    Message('note_on', channel=0, note=69, velocity=94, time=0),\n",
      "    Message('note_on', channel=0, note=66, velocity=0, time=336),\n",
      "    Message('note_on', channel=0, note=69, velocity=0, time=0),\n",
      "    Message('note_on', channel=0, note=68, velocity=94, time=24),\n",
      "    Message('note_on', channel=0, note=71, velocity=94, time=0),\n",
      "    Message('note_on', channel=0, note=62, velocity=94, time=0),\n",
      "    Message('note_on', channel=0, note=68, velocity=0, time=168),\n",
      "    Message('note_on', channel=0, note=71, velocity=0, time=0),\n",
      "    Message('note_on', channel=0, note=62, velocity=0, time=0),\n",
      "    Message('note_on', channel=0, note=72, velocity=94, time=12),\n",
      "    Message('note_on', channel=0, note=64, velocity=94, time=0),\n",
      "    Message('note_on', channel=0, note=69, velocity=94, time=0),\n",
      "    Message('note_on', channel=0, note=72, velocity=0, time=336),\n",
      "    Message('note_on', channel=0, note=64, velocity=0, time=0),\n",
      "    Message('note_on', channel=0, note=69, velocity=0, time=0),\n",
      "    Message('note_on', channel=0, note=69, velocity=94, time=24),\n",
      "    Message('note_on', channel=0, note=64, velocity=94, time=0),\n",
      "    Message('note_on', channel=0, note=72, velocity=94, time=0),\n",
      "    Message('note_on', channel=0, note=69, velocity=0, time=168),\n",
      "    Message('note_on', channel=0, note=64, velocity=0, time=0),\n",
      "    Message('note_on', channel=0, note=72, velocity=0, time=0),\n",
      "    Message('note_on', channel=0, note=71, velocity=94, time=12),\n",
      "    Message('note_on', channel=0, note=71, velocity=0, time=276),\n",
      "    Message('note_on', channel=0, note=72, velocity=94, time=24),\n",
      "    Message('note_on', channel=0, note=72, velocity=0, time=24),\n",
      "    Message('note_on', channel=0, note=74, velocity=94, time=6),\n",
      "    Message('note_on', channel=0, note=74, velocity=0, time=24),\n",
      "    Message('note_on', channel=0, note=71, velocity=94, time=6),\n",
      "    Message('note_on', channel=0, note=68, velocity=94, time=0),\n",
      "    Message('note_on', channel=0, note=71, velocity=0, time=168),\n",
      "    Message('note_on', channel=0, note=68, velocity=0, time=0),\n",
      "    Message('note_on', channel=0, note=69, velocity=94, time=12),\n",
      "    Message('note_on', channel=0, note=69, velocity=0, time=168),\n",
      "    Message('note_on', channel=0, note=69, velocity=94, time=12),\n",
      "    Message('note_on', channel=0, note=69, velocity=0, time=48),\n",
      "    Message('note_on', channel=0, note=76, velocity=94, time=12),\n",
      "    Message('note_on', channel=0, note=76, velocity=0, time=48),\n",
      "    Message('note_on', channel=0, note=74, velocity=94, time=12),\n",
      "    Message('note_on', channel=0, note=74, velocity=0, time=48),\n",
      "    Message('note_on', channel=0, note=74, velocity=94, time=12),\n",
      "    Message('note_on', channel=0, note=74, velocity=0, time=48),\n",
      "    Message('note_on', channel=0, note=77, velocity=94, time=12),\n",
      "    Message('note_on', channel=0, note=77, velocity=0, time=48),\n",
      "    Message('note_on', channel=0, note=76, velocity=94, time=12),\n",
      "    Message('note_on', channel=0, note=76, velocity=0, time=48),\n",
      "    Message('note_on', channel=0, note=76, velocity=94, time=12),\n",
      "    Message('note_on', channel=0, note=76, velocity=0, time=48),\n",
      "    Message('note_on', channel=0, note=81, velocity=94, time=12),\n",
      "    Message('note_on', channel=0, note=81, velocity=0, time=48),\n",
      "    Message('note_on', channel=0, note=80, velocity=94, time=12),\n",
      "    Message('note_on', channel=0, note=80, velocity=0, time=48),\n",
      "    Message('note_on', channel=0, note=81, velocity=94, time=12),\n",
      "    Message('note_on', channel=0, note=81, velocity=0, time=48),\n",
      "    Message('note_on', channel=0, note=76, velocity=94, time=12),\n",
      "    Message('note_on', channel=0, note=76, velocity=0, time=48),\n",
      "    Message('note_on', channel=0, note=72, velocity=94, time=12),\n",
      "    Message('note_on', channel=0, note=72, velocity=0, time=48),\n",
      "    Message('note_on', channel=0, note=69, velocity=94, time=12),\n",
      "    Message('note_on', channel=0, note=69, velocity=0, time=48),\n",
      "    Message('note_on', channel=0, note=71, velocity=94, time=12),\n",
      "    Message('note_on', channel=0, note=71, velocity=0, time=48),\n",
      "    Message('note_on', channel=0, note=72, velocity=94, time=12),\n",
      "    Message('note_on', channel=0, note=72, velocity=0, time=48),\n",
      "    Message('note_on', channel=0, note=77, velocity=94, time=12),\n",
      "    Message('note_on', channel=0, note=77, velocity=0, time=48),\n",
      "    Message('note_on', channel=0, note=76, velocity=94, time=12),\n",
      "    Message('note_on', channel=0, note=76, velocity=0, time=48),\n",
      "    Message('note_on', channel=0, note=74, velocity=94, time=12),\n",
      "    Message('note_on', channel=0, note=74, velocity=0, time=48),\n",
      "    Message('note_on', channel=0, note=72, velocity=94, time=12),\n",
      "    Message('note_on', channel=0, note=72, velocity=0, time=48),\n",
      "    Message('note_on', channel=0, note=71, velocity=94, time=12),\n",
      "    Message('note_on', channel=0, note=71, velocity=0, time=48),\n",
      "    Message('note_on', channel=0, note=69, velocity=94, time=12),\n",
      "    Message('note_on', channel=0, note=69, velocity=0, time=48),\n",
      "    Message('note_on', channel=0, note=64, velocity=94, time=12),\n",
      "    Message('note_on', channel=0, note=64, velocity=0, time=48),\n",
      "    Message('note_on', channel=0, note=69, velocity=94, time=12),\n",
      "    Message('note_on', channel=0, note=69, velocity=0, time=48),\n",
      "    Message('note_on', channel=0, note=68, velocity=94, time=12),\n",
      "    Message('note_on', channel=0, note=62, velocity=94, time=0),\n",
      "    Message('note_on', channel=0, note=68, velocity=0, time=48),\n",
      "    Message('note_on', channel=0, note=62, velocity=0, time=0),\n",
      "    Message('note_on', channel=0, note=64, velocity=94, time=12),\n",
      "    Message('note_on', channel=0, note=69, velocity=94, time=0),\n",
      "    Message('note_on', channel=0, note=72, velocity=94, time=0),\n",
      "    Message('note_on', channel=0, note=64, velocity=0, time=336),\n",
      "    Message('note_on', channel=0, note=69, velocity=0, time=0),\n",
      "    Message('note_on', channel=0, note=72, velocity=0, time=0),\n",
      "    Message('note_on', channel=0, note=74, velocity=94, time=24),\n",
      "    Message('note_on', channel=0, note=62, velocity=94, time=0),\n",
      "    Message('note_on', channel=0, note=67, velocity=94, time=0),\n",
      "    Message('note_on', channel=0, note=74, velocity=0, time=168),\n",
      "    Message('note_on', channel=0, note=62, velocity=0, time=0),\n",
      "    Message('note_on', channel=0, note=67, velocity=0, time=0),\n",
      "    Message('note_on', channel=0, note=72, velocity=94, time=12),\n",
      "    Message('note_on', channel=0, note=76, velocity=94, time=0),\n",
      "    Message('note_on', channel=0, note=72, velocity=0, time=336),\n",
      "    Message('note_on', channel=0, note=76, velocity=0, time=0),\n",
      "    Message('note_on', channel=0, note=72, velocity=94, time=24),\n",
      "    Message('note_on', channel=0, note=76, velocity=94, time=0),\n",
      "    Message('note_on', channel=0, note=67, velocity=94, time=0),\n",
      "    Message('note_on', channel=0, note=72, velocity=0, time=168),\n",
      "    Message('note_on', channel=0, note=76, velocity=0, time=0),\n",
      "    Message('note_on', channel=0, note=67, velocity=0, time=0),\n",
      "    Message('note_on', channel=0, note=74, velocity=94, time=12),\n",
      "    Message('note_on', channel=0, note=74, velocity=0, time=276),\n",
      "    Message('note_on', channel=0, note=76, velocity=94, time=24),\n",
      "    Message('note_on', channel=0, note=76, velocity=0, time=24),\n",
      "    Message('note_on', channel=0, note=77, velocity=94, time=6),\n",
      "    Message('note_on', channel=0, note=77, velocity=0, time=24),\n",
      "    Message('note_on', channel=0, note=74, velocity=94, time=6),\n",
      "    Message('note_on', channel=0, note=74, velocity=0, time=168),\n",
      "    Message('note_on', channel=0, note=64, velocity=94, time=12),\n",
      "    Message('note_on', channel=0, note=72, velocity=94, time=0),\n",
      "    Message('note_on', channel=0, note=64, velocity=0, time=168),\n",
      "    Message('note_on', channel=0, note=72, velocity=0, time=0),\n",
      "    Message('note_on', channel=0, note=72, velocity=94, time=12),\n",
      "    Message('note_on', channel=0, note=72, velocity=0, time=48),\n",
      "    Message('note_on', channel=0, note=76, velocity=94, time=12),\n",
      "    Message('note_on', channel=0, note=76, velocity=0, time=48),\n",
      "    Message('note_on', channel=0, note=72, velocity=94, time=12),\n",
      "    Message('note_on', channel=0, note=72, velocity=0, time=48),\n",
      "    Message('note_on', channel=0, note=67, velocity=94, time=12),\n",
      "    Message('note_on', channel=0, note=67, velocity=0, time=48),\n",
      "    Message('note_on', channel=0, note=69, velocity=94, time=12),\n",
      "    Message('note_on', channel=0, note=69, velocity=0, time=48),\n",
      "    Message('note_on', channel=0, note=70, velocity=94, time=12),\n",
      "    Message('note_on', channel=0, note=70, velocity=0, time=48),\n",
      "    Message('note_on', channel=0, note=69, velocity=94, time=12),\n",
      "    Message('note_on', channel=0, note=69, velocity=0, time=48),\n",
      "    Message('note_on', channel=0, note=72, velocity=94, time=12),\n",
      "    Message('note_on', channel=0, note=72, velocity=0, time=48),\n",
      "    Message('note_on', channel=0, note=71, velocity=94, time=12),\n",
      "    Message('note_on', channel=0, note=71, velocity=0, time=48),\n",
      "    Message('note_on', channel=0, note=72, velocity=94, time=12),\n",
      "    Message('note_on', channel=0, note=72, velocity=0, time=48),\n",
      "    Message('note_on', channel=0, note=69, velocity=94, time=12),\n",
      "    Message('note_on', channel=0, note=69, velocity=0, time=48),\n",
      "    Message('note_on', channel=0, note=66, velocity=94, time=12),\n",
      "    Message('note_on', channel=0, note=66, velocity=0, time=48),\n",
      "    Message('note_on', channel=0, note=62, velocity=94, time=12),\n",
      "    Message('note_on', channel=0, note=62, velocity=0, time=48),\n",
      "    Message('note_on', channel=0, note=64, velocity=94, time=12),\n",
      "    Message('note_on', channel=0, note=64, velocity=0, time=48),\n",
      "    Message('note_on', channel=0, note=66, velocity=94, time=12),\n",
      "    Message('note_on', channel=0, note=66, velocity=0, time=48),\n",
      "    Message('note_on', channel=0, note=64, velocity=94, time=12),\n",
      "    Message('note_on', channel=0, note=64, velocity=0, time=48),\n",
      "    Message('note_on', channel=0, note=60, velocity=94, time=12),\n",
      "    Message('note_on', channel=0, note=60, velocity=0, time=48),\n",
      "    Message('note_on', channel=0, note=62, velocity=94, time=12),\n",
      "    Message('note_on', channel=0, note=62, velocity=0, time=48),\n",
      "    Message('note_on', channel=0, note=64, velocity=94, time=12),\n",
      "    Message('note_on', channel=0, note=64, velocity=0, time=48),\n",
      "    Message('note_on', channel=0, note=67, velocity=94, time=12),\n",
      "    Message('note_on', channel=0, note=67, velocity=0, time=48),\n",
      "    Message('note_on', channel=0, note=66, velocity=94, time=12),\n",
      "    Message('note_on', channel=0, note=66, velocity=0, time=48),\n",
      "    Message('note_on', channel=0, note=67, velocity=94, time=12),\n",
      "    Message('note_on', channel=0, note=67, velocity=0, time=48),\n",
      "    Message('note_on', channel=0, note=71, velocity=94, time=12),\n",
      "    Message('note_on', channel=0, note=71, velocity=0, time=48),\n",
      "    Message('note_on', channel=0, note=69, velocity=94, time=12),\n",
      "    Message('note_on', channel=0, note=69, velocity=0, time=48),\n",
      "    Message('note_on', channel=0, note=67, velocity=94, time=12),\n",
      "    Message('note_on', channel=0, note=71, velocity=94, time=0),\n",
      "    Message('note_on', channel=0, note=67, velocity=0, time=336),\n",
      "    Message('note_on', channel=0, note=71, velocity=0, time=0),\n",
      "    Message('note_on', channel=0, note=64, velocity=94, time=24),\n",
      "    Message('note_on', channel=0, note=60, velocity=94, time=0),\n",
      "    Message('note_on', channel=0, note=67, velocity=94, time=0),\n",
      "    Message('note_on', channel=0, note=72, velocity=94, time=0),\n",
      "    Message('note_on', channel=0, note=64, velocity=0, time=168),\n",
      "    Message('note_on', channel=0, note=60, velocity=0, time=0),\n",
      "    Message('note_on', channel=0, note=67, velocity=0, time=0),\n",
      "    Message('note_on', channel=0, note=72, velocity=0, time=0),\n",
      "    Message('note_on', channel=0, note=74, velocity=94, time=12),\n",
      "    Message('note_on', channel=0, note=67, velocity=94, time=0),\n",
      "    Message('note_on', channel=0, note=62, velocity=94, time=0),\n",
      "    Message('note_on', channel=0, note=74, velocity=0, time=336),\n",
      "    Message('note_on', channel=0, note=67, velocity=0, time=0),\n",
      "    Message('note_on', channel=0, note=62, velocity=0, time=0),\n",
      "    Message('note_on', channel=0, note=74, velocity=94, time=24),\n",
      "    Message('note_on', channel=0, note=67, velocity=94, time=0),\n",
      "    Message('note_on', channel=0, note=62, velocity=94, time=0),\n",
      "    Message('note_on', channel=0, note=74, velocity=0, time=168),\n",
      "    Message('note_on', channel=0, note=67, velocity=0, time=0),\n",
      "    Message('note_on', channel=0, note=62, velocity=0, time=0),\n",
      "    Message('note_on', channel=0, note=69, velocity=94, time=12),\n",
      "    Message('note_on', channel=0, note=64, velocity=94, time=0),\n",
      "    Message('note_on', channel=0, note=72, velocity=94, time=0),\n",
      "    Message('note_on', channel=0, note=69, velocity=0, time=168),\n",
      "    Message('note_on', channel=0, note=64, velocity=0, time=0),\n",
      "    Message('note_on', channel=0, note=72, velocity=0, time=0),\n",
      "    Message('note_on', channel=0, note=71, velocity=94, time=12),\n",
      "    Message('note_on', channel=0, note=71, velocity=0, time=336),\n",
      "    Message('note_on', channel=0, note=66, velocity=94, time=24),\n",
      "    Message('note_on', channel=0, note=69, velocity=94, time=0),\n",
      "    Message('note_on', channel=0, note=66, velocity=0, time=48),\n",
      "    Message('note_on', channel=0, note=69, velocity=0, time=0),\n",
      "    Message('note_on', channel=0, note=62, velocity=94, time=12),\n",
      "    Message('note_on', channel=0, note=62, velocity=0, time=48),\n",
      "    Message('note_on', channel=0, note=64, velocity=94, time=12),\n",
      "    Message('note_on', channel=0, note=64, velocity=0, time=48),\n",
      "    Message('note_on', channel=0, note=66, velocity=94, time=12),\n",
      "    Message('note_on', channel=0, note=66, velocity=0, time=48),\n",
      "    Message('note_on', channel=0, note=69, velocity=94, time=12),\n",
      "    Message('note_on', channel=0, note=69, velocity=0, time=48),\n",
      "    Message('note_on', channel=0, note=67, velocity=94, time=12),\n",
      "    Message('note_on', channel=0, note=67, velocity=0, time=48),\n",
      "    Message('note_on', channel=0, note=69, velocity=94, time=12),\n",
      "    Message('note_on', channel=0, note=69, velocity=0, time=48),\n",
      "    Message('note_on', channel=0, note=72, velocity=94, time=12),\n",
      "    Message('note_on', channel=0, note=72, velocity=0, time=48),\n",
      "    Message('note_on', channel=0, note=71, velocity=94, time=12),\n",
      "    Message('note_on', channel=0, note=71, velocity=0, time=48),\n",
      "    Message('note_on', channel=0, note=72, velocity=94, time=12),\n",
      "    Message('note_on', channel=0, note=72, velocity=0, time=48),\n",
      "    Message('note_on', channel=0, note=69, velocity=94, time=12),\n",
      "    Message('note_on', channel=0, note=69, velocity=0, time=48),\n",
      "    Message('note_on', channel=0, note=66, velocity=94, time=12),\n",
      "    Message('note_on', channel=0, note=66, velocity=0, time=48),\n",
      "    Message('note_on', channel=0, note=62, velocity=94, time=12),\n",
      "    Message('note_on', channel=0, note=62, velocity=0, time=48),\n",
      "    Message('note_on', channel=0, note=66, velocity=94, time=12),\n",
      "    Message('note_on', channel=0, note=66, velocity=0, time=48),\n",
      "    Message('note_on', channel=0, note=69, velocity=94, time=12),\n",
      "    Message('note_on', channel=0, note=69, velocity=0, time=48),\n",
      "    Message('note_on', channel=0, note=72, velocity=94, time=12),\n",
      "    Message('note_on', channel=0, note=72, velocity=0, time=48),\n",
      "    Message('note_on', channel=0, note=71, velocity=94, time=12),\n",
      "    Message('note_on', channel=0, note=71, velocity=0, time=48),\n",
      "    Message('note_on', channel=0, note=69, velocity=94, time=12),\n",
      "    Message('note_on', channel=0, note=69, velocity=0, time=48),\n",
      "    Message('note_on', channel=0, note=67, velocity=94, time=12),\n",
      "    Message('note_on', channel=0, note=71, velocity=94, time=0),\n",
      "    Message('note_on', channel=0, note=67, velocity=0, time=336),\n",
      "    Message('note_on', channel=0, note=71, velocity=0, time=0),\n",
      "    Message('note_on', channel=0, note=72, velocity=94, time=24),\n",
      "    Message('note_on', channel=0, note=67, velocity=94, time=0),\n",
      "    Message('note_on', channel=0, note=64, velocity=94, time=0),\n",
      "    Message('note_on', channel=0, note=60, velocity=94, time=0),\n",
      "    Message('note_on', channel=0, note=72, velocity=0, time=168),\n",
      "    Message('note_on', channel=0, note=67, velocity=0, time=0),\n",
      "    Message('note_on', channel=0, note=64, velocity=0, time=0),\n",
      "    Message('note_on', channel=0, note=60, velocity=0, time=0),\n",
      "    Message('note_on', channel=0, note=74, velocity=94, time=12),\n",
      "    Message('note_on', channel=0, note=62, velocity=94, time=0),\n",
      "    Message('note_on', channel=0, note=67, velocity=94, time=0),\n",
      "    Message('note_on', channel=0, note=74, velocity=0, time=336),\n",
      "    Message('note_on', channel=0, note=62, velocity=0, time=0),\n",
      "    Message('note_on', channel=0, note=67, velocity=0, time=0),\n",
      "    Message('note_on', channel=0, note=67, velocity=94, time=24),\n",
      "    Message('note_on', channel=0, note=64, velocity=94, time=0),\n",
      "    Message('note_on', channel=0, note=71, velocity=94, time=0),\n",
      "    Message('note_on', channel=0, note=67, velocity=0, time=168),\n",
      "    Message('note_on', channel=0, note=64, velocity=0, time=0),\n",
      "    Message('note_on', channel=0, note=71, velocity=0, time=0),\n",
      "    Message('note_on', channel=0, note=69, velocity=94, time=12),\n",
      "    Message('note_on', channel=0, note=69, velocity=0, time=96),\n",
      "    Message('note_on', channel=0, note=71, velocity=94, time=24),\n",
      "    Message('note_on', channel=0, note=71, velocity=0, time=24),\n",
      "    Message('note_on', channel=0, note=72, velocity=94, time=6),\n",
      "    Message('note_on', channel=0, note=72, velocity=0, time=24),\n",
      "    Message('note_on', channel=0, note=71, velocity=94, time=6),\n",
      "    Message('note_on', channel=0, note=71, velocity=0, time=168),\n",
      "    Message('note_on', channel=0, note=69, velocity=94, time=12),\n",
      "    Message('note_on', channel=0, note=69, velocity=0, time=168),\n",
      "    Message('note_on', channel=0, note=67, velocity=94, time=12),\n",
      "    Message('note_on', channel=0, note=67, velocity=0, time=48),\n",
      "    Message('note_on', channel=0, note=71, velocity=94, time=12),\n",
      "    Message('note_on', channel=0, note=71, velocity=0, time=48),\n",
      "    Message('note_on', channel=0, note=74, velocity=94, time=12),\n",
      "    Message('note_on', channel=0, note=74, velocity=0, time=48),\n",
      "    Message('note_on', channel=0, note=79, velocity=94, time=12),\n",
      "    Message('note_on', channel=0, note=79, velocity=0, time=48),\n",
      "    Message('note_on', channel=0, note=74, velocity=94, time=12),\n",
      "    Message('note_on', channel=0, note=74, velocity=0, time=48),\n",
      "    Message('note_on', channel=0, note=71, velocity=94, time=12),\n",
      "    Message('note_on', channel=0, note=71, velocity=0, time=48),\n",
      "    Message('note_on', channel=0, note=67, velocity=94, time=12),\n",
      "    Message('note_on', channel=0, note=67, velocity=0, time=48),\n",
      "    Message('note_on', channel=0, note=71, velocity=94, time=12),\n",
      "    Message('note_on', channel=0, note=71, velocity=0, time=48),\n",
      "    Message('note_on', channel=0, note=74, velocity=94, time=12),\n",
      "    Message('note_on', channel=0, note=74, velocity=0, time=48),\n",
      "    Message('note_on', channel=0, note=77, velocity=94, time=12),\n",
      "    Message('note_on', channel=0, note=77, velocity=0, time=48),\n",
      "    Message('note_on', channel=0, note=74, velocity=94, time=12),\n",
      "    Message('note_on', channel=0, note=74, velocity=0, time=48),\n",
      "    Message('note_on', channel=0, note=71, velocity=94, time=12),\n",
      "    Message('note_on', channel=0, note=71, velocity=0, time=48),\n",
      "    Message('note_on', channel=0, note=67, velocity=94, time=12),\n",
      "    Message('note_on', channel=0, note=67, velocity=0, time=48),\n",
      "    Message('note_on', channel=0, note=71, velocity=94, time=12),\n",
      "    Message('note_on', channel=0, note=71, velocity=0, time=48),\n",
      "    Message('note_on', channel=0, note=74, velocity=94, time=12),\n",
      "    Message('note_on', channel=0, note=74, velocity=0, time=48),\n",
      "    Message('note_on', channel=0, note=76, velocity=94, time=12),\n",
      "    Message('note_on', channel=0, note=76, velocity=0, time=48),\n",
      "    Message('note_on', channel=0, note=72, velocity=94, time=12),\n",
      "    Message('note_on', channel=0, note=72, velocity=0, time=48),\n",
      "    Message('note_on', channel=0, note=69, velocity=94, time=12),\n",
      "    Message('note_on', channel=0, note=69, velocity=0, time=48),\n",
      "    Message('note_on', channel=0, note=66, velocity=94, time=12),\n",
      "    Message('note_on', channel=0, note=66, velocity=0, time=48),\n",
      "    Message('note_on', channel=0, note=69, velocity=94, time=12),\n",
      "    Message('note_on', channel=0, note=69, velocity=0, time=48),\n",
      "    Message('note_on', channel=0, note=72, velocity=94, time=12),\n",
      "    Message('note_on', channel=0, note=72, velocity=0, time=48),\n",
      "    Message('note_on', channel=0, note=74, velocity=94, time=12),\n",
      "    Message('note_on', channel=0, note=74, velocity=0, time=48),\n",
      "    Message('note_on', channel=0, note=71, velocity=94, time=12),\n",
      "    Message('note_on', channel=0, note=71, velocity=0, time=48),\n",
      "    Message('note_on', channel=0, note=67, velocity=94, time=12),\n",
      "    Message('note_on', channel=0, note=67, velocity=0, time=48),\n",
      "    Message('note_on', channel=0, note=64, velocity=94, time=12),\n",
      "    Message('note_on', channel=0, note=64, velocity=0, time=48),\n",
      "    Message('note_on', channel=0, note=67, velocity=94, time=12),\n",
      "    Message('note_on', channel=0, note=67, velocity=0, time=48),\n",
      "    Message('note_on', channel=0, note=71, velocity=94, time=12),\n",
      "    Message('note_on', channel=0, note=71, velocity=0, time=48),\n",
      "    Message('note_on', channel=0, note=72, velocity=94, time=12),\n",
      "    Message('note_on', channel=0, note=72, velocity=0, time=48),\n",
      "    Message('note_on', channel=0, note=69, velocity=94, time=12),\n",
      "    Message('note_on', channel=0, note=69, velocity=0, time=48),\n",
      "    Message('note_on', channel=0, note=66, velocity=94, time=12),\n",
      "    Message('note_on', channel=0, note=66, velocity=0, time=48),\n",
      "    Message('note_on', channel=0, note=62, velocity=94, time=12),\n",
      "    Message('note_on', channel=0, note=62, velocity=0, time=48),\n",
      "    Message('note_on', channel=0, note=66, velocity=94, time=12),\n",
      "    Message('note_on', channel=0, note=66, velocity=0, time=48),\n",
      "    Message('note_on', channel=0, note=69, velocity=94, time=12),\n",
      "    Message('note_on', channel=0, note=69, velocity=0, time=48),\n",
      "    Message('note_on', channel=0, note=72, velocity=94, time=12),\n",
      "    Message('note_on', channel=0, note=72, velocity=0, time=48),\n",
      "    Message('note_on', channel=0, note=71, velocity=94, time=12),\n",
      "    Message('note_on', channel=0, note=71, velocity=0, time=48),\n",
      "    Message('note_on', channel=0, note=69, velocity=94, time=12),\n",
      "    Message('note_on', channel=0, note=69, velocity=0, time=48),\n",
      "    Message('note_on', channel=0, note=71, velocity=94, time=12),\n",
      "    Message('note_on', channel=0, note=71, velocity=0, time=48),\n",
      "    Message('note_on', channel=0, note=67, velocity=94, time=12),\n",
      "    Message('note_on', channel=0, note=67, velocity=0, time=48),\n",
      "    Message('note_on', channel=0, note=69, velocity=94, time=12),\n",
      "    Message('note_on', channel=0, note=69, velocity=0, time=48),\n",
      "    Message('note_on', channel=0, note=71, velocity=94, time=12),\n",
      "    Message('note_on', channel=0, note=71, velocity=0, time=48),\n",
      "    Message('note_on', channel=0, note=74, velocity=94, time=12),\n",
      "    Message('note_on', channel=0, note=74, velocity=0, time=48),\n",
      "    Message('note_on', channel=0, note=72, velocity=94, time=12),\n",
      "    Message('note_on', channel=0, note=72, velocity=0, time=48),\n",
      "    Message('note_on', channel=0, note=72, velocity=94, time=12),\n",
      "    Message('note_on', channel=0, note=72, velocity=0, time=48),\n",
      "    Message('note_on', channel=0, note=76, velocity=94, time=12),\n",
      "    Message('note_on', channel=0, note=76, velocity=0, time=48),\n",
      "    Message('note_on', channel=0, note=74, velocity=94, time=12),\n",
      "    Message('note_on', channel=0, note=74, velocity=0, time=48),\n",
      "    Message('note_on', channel=0, note=74, velocity=94, time=12),\n",
      "    Message('note_on', channel=0, note=74, velocity=0, time=48),\n",
      "    Message('note_on', channel=0, note=79, velocity=94, time=12),\n",
      "    Message('note_on', channel=0, note=79, velocity=0, time=48),\n",
      "    Message('note_on', channel=0, note=78, velocity=94, time=12),\n",
      "    Message('note_on', channel=0, note=78, velocity=0, time=48),\n",
      "    Message('note_on', channel=0, note=79, velocity=94, time=12),\n",
      "    Message('note_on', channel=0, note=79, velocity=0, time=48),\n",
      "    Message('note_on', channel=0, note=74, velocity=94, time=12),\n",
      "    Message('note_on', channel=0, note=74, velocity=0, time=48),\n",
      "    Message('note_on', channel=0, note=71, velocity=94, time=12),\n",
      "    Message('note_on', channel=0, note=71, velocity=0, time=48),\n",
      "    Message('note_on', channel=0, note=67, velocity=94, time=12),\n",
      "    Message('note_on', channel=0, note=67, velocity=0, time=48),\n",
      "    Message('note_on', channel=0, note=69, velocity=94, time=12),\n",
      "    Message('note_on', channel=0, note=69, velocity=0, time=48),\n",
      "    Message('note_on', channel=0, note=71, velocity=94, time=12),\n",
      "    Message('note_on', channel=0, note=71, velocity=0, time=48),\n",
      "    Message('note_on', channel=0, note=72, velocity=94, time=12),\n",
      "    Message('note_on', channel=0, note=72, velocity=0, time=48),\n",
      "    Message('note_on', channel=0, note=74, velocity=94, time=12),\n",
      "    Message('note_on', channel=0, note=74, velocity=0, time=48),\n",
      "    Message('note_on', channel=0, note=76, velocity=94, time=12),\n",
      "    Message('note_on', channel=0, note=76, velocity=0, time=48),\n",
      "    Message('note_on', channel=0, note=74, velocity=94, time=12),\n",
      "    Message('note_on', channel=0, note=74, velocity=0, time=48),\n",
      "    Message('note_on', channel=0, note=72, velocity=94, time=12),\n",
      "    Message('note_on', channel=0, note=72, velocity=0, time=48),\n",
      "    Message('note_on', channel=0, note=71, velocity=94, time=12),\n",
      "    Message('note_on', channel=0, note=71, velocity=0, time=48),\n",
      "    Message('note_on', channel=0, note=69, velocity=94, time=12),\n",
      "    Message('note_on', channel=0, note=69, velocity=0, time=48),\n",
      "    Message('note_on', channel=0, note=71, velocity=94, time=12),\n",
      "    Message('note_on', channel=0, note=71, velocity=0, time=48),\n",
      "    Message('note_on', channel=0, note=67, velocity=94, time=12),\n",
      "    Message('note_on', channel=0, note=67, velocity=0, time=48),\n",
      "    Message('note_on', channel=0, note=66, velocity=94, time=12),\n",
      "    Message('note_on', channel=0, note=66, velocity=0, time=48),\n",
      "    Message('note_on', channel=0, note=67, velocity=94, time=12),\n",
      "    Message('note_on', channel=0, note=67, velocity=0, time=48),\n",
      "    Message('note_on', channel=0, note=69, velocity=94, time=12),\n",
      "    Message('note_on', channel=0, note=69, velocity=0, time=48),\n",
      "    Message('note_on', channel=0, note=62, velocity=94, time=12),\n",
      "    Message('note_on', channel=0, note=62, velocity=0, time=48),\n",
      "    Message('note_on', channel=0, note=66, velocity=94, time=12),\n",
      "    Message('note_on', channel=0, note=66, velocity=0, time=48),\n",
      "    Message('note_on', channel=0, note=69, velocity=94, time=12),\n",
      "    Message('note_on', channel=0, note=69, velocity=0, time=48),\n",
      "    Message('note_on', channel=0, note=72, velocity=94, time=12),\n",
      "    Message('note_on', channel=0, note=72, velocity=0, time=48),\n",
      "    Message('note_on', channel=0, note=71, velocity=94, time=12),\n",
      "    Message('note_on', channel=0, note=71, velocity=0, time=48),\n",
      "    Message('note_on', channel=0, note=69, velocity=94, time=12),\n",
      "    Message('note_on', channel=0, note=69, velocity=0, time=48),\n",
      "    Message('note_on', channel=0, note=71, velocity=94, time=12),\n",
      "    Message('note_on', channel=0, note=71, velocity=0, time=48),\n",
      "    Message('note_on', channel=0, note=67, velocity=94, time=12),\n",
      "    Message('note_on', channel=0, note=67, velocity=0, time=48),\n",
      "    Message('note_on', channel=0, note=69, velocity=94, time=12),\n",
      "    Message('note_on', channel=0, note=69, velocity=0, time=48),\n",
      "    Message('note_on', channel=0, note=71, velocity=94, time=12),\n",
      "    Message('note_on', channel=0, note=71, velocity=0, time=48),\n",
      "    Message('note_on', channel=0, note=74, velocity=94, time=12),\n",
      "    Message('note_on', channel=0, note=74, velocity=0, time=48),\n",
      "    Message('note_on', channel=0, note=72, velocity=94, time=12),\n",
      "    Message('note_on', channel=0, note=72, velocity=0, time=48),\n",
      "    Message('note_on', channel=0, note=72, velocity=94, time=12),\n",
      "    Message('note_on', channel=0, note=72, velocity=0, time=48),\n",
      "    Message('note_on', channel=0, note=76, velocity=94, time=12),\n",
      "    Message('note_on', channel=0, note=76, velocity=0, time=48),\n",
      "    Message('note_on', channel=0, note=74, velocity=94, time=12),\n",
      "    Message('note_on', channel=0, note=74, velocity=0, time=48),\n",
      "    Message('note_on', channel=0, note=74, velocity=94, time=12),\n",
      "    Message('note_on', channel=0, note=74, velocity=0, time=48),\n",
      "    Message('note_on', channel=0, note=79, velocity=94, time=12),\n",
      "    Message('note_on', channel=0, note=79, velocity=0, time=48),\n",
      "    Message('note_on', channel=0, note=78, velocity=94, time=12),\n",
      "    Message('note_on', channel=0, note=78, velocity=0, time=48),\n",
      "    Message('note_on', channel=0, note=79, velocity=94, time=12),\n",
      "    Message('note_on', channel=0, note=79, velocity=0, time=48),\n",
      "    Message('note_on', channel=0, note=74, velocity=94, time=12),\n",
      "    Message('note_on', channel=0, note=74, velocity=0, time=48),\n",
      "    Message('note_on', channel=0, note=71, velocity=94, time=12),\n",
      "    Message('note_on', channel=0, note=71, velocity=0, time=48),\n",
      "    Message('note_on', channel=0, note=67, velocity=94, time=12),\n",
      "    Message('note_on', channel=0, note=67, velocity=0, time=48),\n",
      "    Message('note_on', channel=0, note=69, velocity=94, time=12),\n",
      "    Message('note_on', channel=0, note=69, velocity=0, time=48),\n",
      "    Message('note_on', channel=0, note=71, velocity=94, time=12),\n",
      "    Message('note_on', channel=0, note=71, velocity=0, time=48),\n",
      "    Message('note_on', channel=0, note=64, velocity=94, time=12),\n",
      "    Message('note_on', channel=0, note=64, velocity=0, time=48),\n",
      "    Message('note_on', channel=0, note=74, velocity=94, time=12),\n",
      "    Message('note_on', channel=0, note=74, velocity=0, time=48),\n",
      "    Message('note_on', channel=0, note=72, velocity=94, time=12),\n",
      "    Message('note_on', channel=0, note=72, velocity=0, time=48),\n",
      "    Message('note_on', channel=0, note=71, velocity=94, time=12),\n",
      "    Message('note_on', channel=0, note=71, velocity=0, time=48),\n",
      "    Message('note_on', channel=0, note=69, velocity=94, time=12),\n",
      "    Message('note_on', channel=0, note=69, velocity=0, time=48),\n",
      "    Message('note_on', channel=0, note=67, velocity=94, time=12),\n",
      "    Message('note_on', channel=0, note=67, velocity=0, time=48),\n",
      "    Message('note_on', channel=0, note=62, velocity=94, time=12),\n",
      "    Message('note_on', channel=0, note=62, velocity=0, time=48),\n",
      "    Message('note_on', channel=0, note=67, velocity=94, time=12),\n",
      "    Message('note_on', channel=0, note=67, velocity=0, time=48),\n",
      "    Message('note_on', channel=0, note=66, velocity=94, time=12),\n",
      "    Message('note_on', channel=0, note=66, velocity=0, time=48),\n",
      "    Message('note_on', channel=0, note=62, velocity=94, time=12),\n",
      "    Message('note_on', channel=0, note=67, velocity=94, time=0),\n",
      "    Message('note_on', channel=0, note=59, velocity=94, time=0),\n",
      "    Message('note_on', channel=0, note=55, velocity=94, time=0),\n",
      "    Message('note_on', channel=0, note=62, velocity=0, time=456),\n",
      "    Message('note_on', channel=0, note=67, velocity=0, time=0),\n",
      "    Message('note_on', channel=0, note=59, velocity=0, time=0),\n",
      "    Message('note_on', channel=0, note=55, velocity=0, time=0),\n",
      "    Message('note_on', channel=0, note=67, velocity=104, time=143),\n",
      "    Message('note_on', channel=0, note=67, velocity=0, time=48),\n",
      "    Message('note_on', channel=0, note=69, velocity=104, time=12),\n",
      "    Message('note_on', channel=0, note=69, velocity=0, time=48),\n",
      "    Message('note_on', channel=0, note=71, velocity=104, time=12),\n",
      "    Message('note_on', channel=0, note=71, velocity=0, time=48),\n",
      "    Message('note_on', channel=0, note=74, velocity=104, time=12),\n",
      "    Message('note_on', channel=0, note=74, velocity=0, time=48),\n",
      "    Message('note_on', channel=0, note=72, velocity=104, time=12),\n",
      "    Message('note_on', channel=0, note=72, velocity=0, time=48),\n",
      "    Message('note_on', channel=0, note=72, velocity=104, time=12),\n",
      "    Message('note_on', channel=0, note=72, velocity=0, time=48),\n",
      "    Message('note_on', channel=0, note=76, velocity=104, time=12),\n",
      "    Message('note_on', channel=0, note=76, velocity=0, time=48),\n",
      "    Message('note_on', channel=0, note=74, velocity=104, time=12),\n",
      "    Message('note_on', channel=0, note=74, velocity=0, time=48),\n",
      "    Message('note_on', channel=0, note=74, velocity=104, time=12),\n",
      "    Message('note_on', channel=0, note=74, velocity=0, time=48),\n",
      "    Message('note_on', channel=0, note=79, velocity=104, time=12),\n",
      "    Message('note_on', channel=0, note=79, velocity=0, time=48),\n",
      "    Message('note_on', channel=0, note=78, velocity=104, time=12),\n",
      "    Message('note_on', channel=0, note=78, velocity=0, time=48),\n",
      "    Message('note_on', channel=0, note=79, velocity=104, time=12),\n",
      "    Message('note_on', channel=0, note=79, velocity=0, time=48),\n",
      "    Message('note_on', channel=0, note=74, velocity=104, time=12),\n",
      "    Message('note_on', channel=0, note=74, velocity=0, time=48),\n",
      "    Message('note_on', channel=0, note=71, velocity=104, time=12),\n",
      "    Message('note_on', channel=0, note=71, velocity=0, time=48),\n",
      "    Message('note_on', channel=0, note=67, velocity=104, time=12),\n",
      "    Message('note_on', channel=0, note=67, velocity=0, time=48),\n",
      "    Message('note_on', channel=0, note=69, velocity=104, time=12),\n",
      "    Message('note_on', channel=0, note=69, velocity=0, time=48),\n",
      "    Message('note_on', channel=0, note=71, velocity=104, time=12),\n",
      "    Message('note_on', channel=0, note=71, velocity=0, time=48),\n",
      "    Message('note_on', channel=0, note=72, velocity=104, time=12),\n",
      "    Message('note_on', channel=0, note=72, velocity=0, time=48),\n",
      "    Message('note_on', channel=0, note=74, velocity=104, time=12),\n",
      "    Message('note_on', channel=0, note=74, velocity=0, time=48),\n",
      "    Message('note_on', channel=0, note=76, velocity=104, time=12),\n",
      "    Message('note_on', channel=0, note=76, velocity=0, time=48),\n",
      "    Message('note_on', channel=0, note=74, velocity=104, time=12),\n",
      "    Message('note_on', channel=0, note=74, velocity=0, time=48),\n",
      "    Message('note_on', channel=0, note=72, velocity=104, time=12),\n",
      "    Message('note_on', channel=0, note=72, velocity=0, time=48),\n",
      "    Message('note_on', channel=0, note=71, velocity=104, time=12),\n",
      "    Message('note_on', channel=0, note=71, velocity=0, time=48),\n",
      "    Message('note_on', channel=0, note=69, velocity=104, time=12),\n",
      "    Message('note_on', channel=0, note=69, velocity=0, time=48),\n",
      "    Message('note_on', channel=0, note=71, velocity=104, time=12),\n",
      "    Message('note_on', channel=0, note=71, velocity=0, time=48),\n",
      "    Message('note_on', channel=0, note=67, velocity=104, time=12),\n",
      "    Message('note_on', channel=0, note=67, velocity=0, time=48),\n",
      "    Message('note_on', channel=0, note=66, velocity=104, time=12),\n",
      "    Message('note_on', channel=0, note=66, velocity=0, time=48),\n",
      "    Message('note_on', channel=0, note=67, velocity=104, time=12),\n",
      "    Message('note_on', channel=0, note=67, velocity=0, time=48),\n",
      "    Message('note_on', channel=0, note=69, velocity=104, time=12),\n",
      "    Message('note_on', channel=0, note=69, velocity=0, time=48),\n",
      "    Message('note_on', channel=0, note=62, velocity=104, time=12),\n",
      "    Message('note_on', channel=0, note=62, velocity=0, time=48),\n",
      "    Message('note_on', channel=0, note=66, velocity=104, time=12),\n",
      "    Message('note_on', channel=0, note=66, velocity=0, time=48),\n",
      "    Message('note_on', channel=0, note=69, velocity=104, time=12),\n",
      "    Message('note_on', channel=0, note=69, velocity=0, time=48),\n",
      "    Message('note_on', channel=0, note=72, velocity=104, time=12),\n",
      "    Message('note_on', channel=0, note=72, velocity=0, time=48),\n",
      "    Message('note_on', channel=0, note=71, velocity=104, time=12),\n",
      "    Message('note_on', channel=0, note=71, velocity=0, time=48),\n",
      "    Message('note_on', channel=0, note=69, velocity=104, time=12),\n",
      "    Message('note_on', channel=0, note=69, velocity=0, time=48),\n",
      "    Message('note_on', channel=0, note=71, velocity=104, time=12),\n",
      "    Message('note_on', channel=0, note=71, velocity=0, time=48),\n",
      "    Message('note_on', channel=0, note=67, velocity=104, time=12),\n",
      "    Message('note_on', channel=0, note=67, velocity=0, time=48),\n",
      "    Message('note_on', channel=0, note=69, velocity=104, time=12),\n",
      "    Message('note_on', channel=0, note=69, velocity=0, time=48),\n",
      "    Message('note_on', channel=0, note=71, velocity=104, time=12),\n",
      "    Message('note_on', channel=0, note=71, velocity=0, time=48),\n",
      "    Message('note_on', channel=0, note=74, velocity=104, time=12),\n",
      "    Message('note_on', channel=0, note=74, velocity=0, time=48),\n",
      "    Message('note_on', channel=0, note=72, velocity=104, time=12),\n",
      "    Message('note_on', channel=0, note=72, velocity=0, time=48),\n",
      "    Message('note_on', channel=0, note=72, velocity=104, time=12),\n",
      "    Message('note_on', channel=0, note=72, velocity=0, time=48),\n",
      "    Message('note_on', channel=0, note=76, velocity=104, time=12),\n",
      "    Message('note_on', channel=0, note=76, velocity=0, time=48),\n",
      "    Message('note_on', channel=0, note=74, velocity=104, time=12),\n",
      "    Message('note_on', channel=0, note=74, velocity=0, time=48),\n",
      "    Message('note_on', channel=0, note=74, velocity=104, time=12),\n",
      "    Message('note_on', channel=0, note=74, velocity=0, time=48),\n",
      "    Message('note_on', channel=0, note=79, velocity=104, time=12),\n",
      "    Message('note_on', channel=0, note=79, velocity=0, time=48),\n",
      "    Message('note_on', channel=0, note=78, velocity=104, time=12),\n",
      "    Message('note_on', channel=0, note=78, velocity=0, time=48),\n",
      "    Message('note_on', channel=0, note=79, velocity=104, time=12),\n",
      "    Message('note_on', channel=0, note=79, velocity=0, time=48),\n",
      "    Message('note_on', channel=0, note=74, velocity=104, time=12),\n",
      "    Message('note_on', channel=0, note=74, velocity=0, time=48),\n",
      "    Message('note_on', channel=0, note=71, velocity=104, time=12),\n",
      "    Message('note_on', channel=0, note=71, velocity=0, time=48),\n",
      "    Message('note_on', channel=0, note=67, velocity=104, time=12),\n",
      "    Message('note_on', channel=0, note=67, velocity=0, time=48),\n",
      "    Message('note_on', channel=0, note=69, velocity=104, time=12),\n",
      "    Message('note_on', channel=0, note=69, velocity=0, time=48),\n",
      "    Message('note_on', channel=0, note=71, velocity=104, time=12),\n",
      "    Message('note_on', channel=0, note=71, velocity=0, time=48),\n",
      "    Message('note_on', channel=0, note=64, velocity=104, time=12),\n",
      "    Message('note_on', channel=0, note=64, velocity=0, time=48),\n",
      "    Message('note_on', channel=0, note=74, velocity=104, time=12),\n",
      "    Message('note_on', channel=0, note=74, velocity=0, time=48),\n",
      "    Message('note_on', channel=0, note=72, velocity=104, time=12),\n",
      "    Message('note_on', channel=0, note=72, velocity=0, time=48),\n",
      "    Message('note_on', channel=0, note=71, velocity=104, time=12),\n",
      "    Message('note_on', channel=0, note=71, velocity=0, time=48),\n",
      "    Message('note_on', channel=0, note=69, velocity=104, time=12),\n",
      "    Message('note_on', channel=0, note=69, velocity=0, time=48),\n",
      "    Message('note_on', channel=0, note=67, velocity=104, time=12),\n",
      "    Message('note_on', channel=0, note=67, velocity=0, time=48),\n",
      "    Message('note_on', channel=0, note=62, velocity=104, time=12),\n",
      "    Message('note_on', channel=0, note=62, velocity=0, time=48),\n",
      "    Message('note_on', channel=0, note=67, velocity=104, time=12),\n",
      "    Message('note_on', channel=0, note=67, velocity=0, time=48),\n",
      "    Message('note_on', channel=0, note=66, velocity=104, time=12),\n",
      "    Message('note_on', channel=0, note=66, velocity=0, time=48),\n",
      "    Message('note_on', channel=0, note=67, velocity=104, time=12),\n",
      "    Message('note_on', channel=0, note=67, velocity=0, time=48),\n",
      "    Message('note_on', channel=0, note=71, velocity=104, time=12),\n",
      "    Message('note_on', channel=0, note=71, velocity=0, time=48),\n",
      "    Message('note_on', channel=0, note=74, velocity=104, time=12),\n",
      "    Message('note_on', channel=0, note=74, velocity=0, time=48),\n",
      "    Message('note_on', channel=0, note=79, velocity=104, time=12),\n",
      "    Message('note_on', channel=0, note=79, velocity=0, time=48),\n",
      "    Message('note_on', channel=0, note=74, velocity=104, time=12),\n",
      "    Message('note_on', channel=0, note=74, velocity=0, time=48),\n",
      "    Message('note_on', channel=0, note=71, velocity=104, time=12),\n",
      "    Message('note_on', channel=0, note=71, velocity=0, time=48),\n",
      "    Message('note_on', channel=0, note=67, velocity=104, time=12),\n",
      "    Message('note_on', channel=0, note=67, velocity=0, time=48),\n",
      "    Message('note_on', channel=0, note=71, velocity=104, time=12),\n",
      "    Message('note_on', channel=0, note=71, velocity=0, time=48),\n",
      "    Message('note_on', channel=0, note=74, velocity=104, time=12),\n",
      "    Message('note_on', channel=0, note=74, velocity=0, time=48),\n",
      "    Message('note_on', channel=0, note=62, velocity=104, time=12),\n",
      "    Message('note_on', channel=0, note=71, velocity=104, time=0),\n",
      "    Message('note_on', channel=0, note=67, velocity=104, time=0),\n",
      "    Message('note_on', channel=0, note=62, velocity=0, time=336),\n",
      "    Message('note_on', channel=0, note=71, velocity=0, time=0),\n",
      "    Message('note_on', channel=0, note=67, velocity=0, time=0),\n",
      "    Message('note_on', channel=0, note=64, velocity=104, time=24),\n",
      "    Message('note_on', channel=0, note=67, velocity=104, time=0),\n",
      "    Message('note_on', channel=0, note=60, velocity=104, time=0),\n",
      "    Message('note_on', channel=0, note=72, velocity=104, time=0),\n",
      "    Message('note_on', channel=0, note=64, velocity=0, time=168),\n",
      "    Message('note_on', channel=0, note=67, velocity=0, time=0),\n",
      "    Message('note_on', channel=0, note=60, velocity=0, time=0),\n",
      "    Message('note_on', channel=0, note=72, velocity=0, time=0),\n",
      "    Message('note_on', channel=0, note=74, velocity=104, time=12),\n",
      "    Message('note_on', channel=0, note=74, velocity=0, time=336),\n",
      "    Message('note_on', channel=0, note=66, velocity=104, time=24),\n",
      "    Message('note_on', channel=0, note=71, velocity=104, time=0),\n",
      "    Message('note_on', channel=0, note=74, velocity=104, time=0),\n",
      "    Message('note_on', channel=0, note=62, velocity=104, time=0),\n",
      "    Message('note_on', channel=0, note=66, velocity=0, time=168),\n",
      "    Message('note_on', channel=0, note=71, velocity=0, time=0),\n",
      "    Message('note_on', channel=0, note=74, velocity=0, time=0),\n",
      "    Message('note_on', channel=0, note=62, velocity=0, time=0),\n",
      "    Message('note_on', channel=0, note=72, velocity=104, time=12),\n",
      "    Message('note_on', channel=0, note=72, velocity=0, time=336),\n",
      "    Message('note_on', channel=0, note=67, velocity=104, time=24),\n",
      "    Message('note_on', channel=0, note=62, velocity=104, time=0),\n",
      "    Message('note_on', channel=0, note=71, velocity=104, time=0),\n",
      "    Message('note_on', channel=0, note=67, velocity=0, time=168),\n",
      "    Message('note_on', channel=0, note=62, velocity=0, time=0),\n",
      "    Message('note_on', channel=0, note=71, velocity=0, time=0),\n",
      "    Message('note_on', channel=0, note=66, velocity=104, time=12),\n",
      "    Message('note_on', channel=0, note=69, velocity=104, time=0),\n",
      "    Message('note_on', channel=0, note=66, velocity=0, time=48),\n",
      "    Message('note_on', channel=0, note=69, velocity=0, time=0),\n",
      "    Message('note_on', channel=0, note=62, velocity=104, time=12),\n",
      "    Message('note_on', channel=0, note=62, velocity=0, time=48),\n",
      "    Message('note_on', channel=0, note=64, velocity=104, time=12),\n",
      "    Message('note_on', channel=0, note=64, velocity=0, time=48),\n",
      "    Message('note_on', channel=0, note=66, velocity=104, time=12),\n",
      "    Message('note_on', channel=0, note=69, velocity=104, time=0),\n",
      "    Message('note_on', channel=0, note=66, velocity=0, time=48),\n",
      "    Message('note_on', channel=0, note=69, velocity=0, time=0),\n",
      "    Message('note_on', channel=0, note=69, velocity=104, time=12),\n",
      "    Message('note_on', channel=0, note=69, velocity=0, time=48),\n",
      "    Message('note_on', channel=0, note=67, velocity=104, time=12),\n",
      "    Message('note_on', channel=0, note=67, velocity=0, time=48),\n",
      "    Message('note_on', channel=0, note=69, velocity=104, time=12),\n",
      "    Message('note_on', channel=0, note=69, velocity=0, time=48),\n",
      "    Message('note_on', channel=0, note=72, velocity=104, time=12),\n",
      "    Message('note_on', channel=0, note=72, velocity=0, time=48),\n",
      "    Message('note_on', channel=0, note=71, velocity=104, time=12),\n",
      "    Message('note_on', channel=0, note=71, velocity=0, time=48),\n",
      "    Message('note_on', channel=0, note=72, velocity=104, time=12),\n",
      "    Message('note_on', channel=0, note=72, velocity=0, time=48),\n",
      "    Message('note_on', channel=0, note=69, velocity=104, time=12),\n",
      "    Message('note_on', channel=0, note=69, velocity=0, time=48),\n",
      "    Message('note_on', channel=0, note=66, velocity=104, time=12),\n",
      "    Message('note_on', channel=0, note=66, velocity=0, time=48),\n",
      "    Message('note_on', channel=0, note=62, velocity=104, time=12),\n",
      "    Message('note_on', channel=0, note=62, velocity=0, time=48),\n",
      "    Message('note_on', channel=0, note=66, velocity=104, time=12),\n",
      "    Message('note_on', channel=0, note=66, velocity=0, time=48),\n",
      "    Message('note_on', channel=0, note=69, velocity=104, time=12),\n",
      "    Message('note_on', channel=0, note=69, velocity=0, time=48),\n",
      "    Message('note_on', channel=0, note=72, velocity=104, time=12),\n",
      "    Message('note_on', channel=0, note=72, velocity=0, time=48),\n",
      "    Message('note_on', channel=0, note=71, velocity=104, time=12),\n",
      "    Message('note_on', channel=0, note=71, velocity=0, time=48),\n",
      "    Message('note_on', channel=0, note=69, velocity=104, time=12),\n",
      "    Message('note_on', channel=0, note=69, velocity=0, time=48),\n",
      "    Message('note_on', channel=0, note=67, velocity=104, time=12),\n",
      "    Message('note_on', channel=0, note=71, velocity=104, time=0),\n",
      "    Message('note_on', channel=0, note=67, velocity=0, time=336),\n",
      "    Message('note_on', channel=0, note=71, velocity=0, time=0),\n",
      "    Message('note_on', channel=0, note=64, velocity=104, time=24),\n",
      "    Message('note_on', channel=0, note=72, velocity=104, time=0),\n",
      "    Message('note_on', channel=0, note=67, velocity=104, time=0),\n",
      "    Message('note_on', channel=0, note=60, velocity=104, time=0),\n",
      "    Message('note_on', channel=0, note=64, velocity=0, time=168),\n",
      "    Message('note_on', channel=0, note=72, velocity=0, time=0),\n",
      "    Message('note_on', channel=0, note=67, velocity=0, time=0),\n",
      "    Message('note_on', channel=0, note=60, velocity=0, time=0),\n",
      "    Message('note_on', channel=0, note=67, velocity=104, time=12),\n",
      "    Message('note_on', channel=0, note=62, velocity=104, time=0),\n",
      "    Message('note_on', channel=0, note=74, velocity=104, time=0),\n",
      "    Message('note_on', channel=0, note=67, velocity=0, time=336),\n",
      "    Message('note_on', channel=0, note=62, velocity=0, time=0),\n",
      "    Message('note_on', channel=0, note=74, velocity=0, time=0),\n",
      "    Message('note_on', channel=0, note=67, velocity=104, time=24),\n",
      "    Message('note_on', channel=0, note=64, velocity=104, time=0),\n",
      "    Message('note_on', channel=0, note=71, velocity=104, time=0),\n",
      "    Message('note_on', channel=0, note=67, velocity=0, time=168),\n",
      "    Message('note_on', channel=0, note=64, velocity=0, time=0),\n",
      "    Message('note_on', channel=0, note=71, velocity=0, time=0),\n",
      "    Message('note_on', channel=0, note=69, velocity=63, time=12),\n",
      "    Message('note_on', channel=0, note=69, velocity=0, time=116),\n",
      "    Message('note_on', channel=0, note=71, velocity=74, time=4),\n",
      "    Message('note_on', channel=0, note=72, velocity=68, time=30),\n",
      "    Message('note_on', channel=0, note=71, velocity=0, time=14),\n",
      "    Message('note_on', channel=0, note=71, velocity=65, time=16),\n",
      "    Message('note_on', channel=0, note=66, velocity=67, time=0),\n",
      "    Message('note_on', channel=0, note=62, velocity=55, time=0),\n",
      "    Message('note_on', channel=0, note=72, velocity=0, time=14),\n",
      "    Message('note_on', channel=0, note=66, velocity=55, time=166),\n",
      "    Message('note_on', channel=0, note=60, velocity=46, time=0),\n",
      "    Message('note_on', channel=0, note=69, velocity=45, time=0),\n",
      "    Message('note_on', channel=0, note=71, velocity=0, time=8),\n",
      "    Message('note_on', channel=0, note=66, velocity=0, time=0),\n",
      "    Message('note_on', channel=0, note=62, velocity=0, time=0),\n",
      "    Message('note_on', channel=0, note=67, velocity=104, time=172),\n",
      "    Message('note_on', channel=0, note=66, velocity=0, time=8),\n",
      "    Message('note_on', channel=0, note=60, velocity=0, time=0),\n",
      "    Message('note_on', channel=0, note=69, velocity=0, time=0),\n",
      "    Message('note_on', channel=0, note=67, velocity=0, time=40),\n",
      "    Message('note_on', channel=0, note=71, velocity=104, time=12),\n",
      "    Message('note_on', channel=0, note=71, velocity=0, time=48),\n",
      "    Message('note_on', channel=0, note=69, velocity=104, time=12),\n",
      "    Message('note_on', channel=0, note=69, velocity=0, time=48),\n",
      "    Message('note_on', channel=0, note=71, velocity=104, time=12),\n",
      "    Message('note_on', channel=0, note=71, velocity=0, time=48),\n",
      "    Message('note_on', channel=0, note=74, velocity=104, time=12),\n",
      "    Message('note_on', channel=0, note=74, velocity=0, time=48),\n",
      "    Message('note_on', channel=0, note=72, velocity=104, time=12),\n",
      "    Message('note_on', channel=0, note=72, velocity=0, time=48),\n",
      "    Message('note_on', channel=0, note=72, velocity=104, time=12),\n",
      "    Message('note_on', channel=0, note=72, velocity=0, time=48),\n",
      "    Message('note_on', channel=0, note=76, velocity=104, time=12),\n",
      "    Message('note_on', channel=0, note=76, velocity=0, time=48),\n",
      "    Message('note_on', channel=0, note=74, velocity=104, time=12),\n",
      "    Message('note_on', channel=0, note=74, velocity=0, time=48),\n",
      "    Message('note_on', channel=0, note=74, velocity=104, time=12),\n",
      "    Message('note_on', channel=0, note=74, velocity=0, time=48),\n",
      "    Message('note_on', channel=0, note=79, velocity=104, time=12),\n",
      "    Message('note_on', channel=0, note=79, velocity=0, time=48),\n",
      "    Message('note_on', channel=0, note=78, velocity=104, time=12),\n",
      "    Message('note_on', channel=0, note=78, velocity=0, time=48),\n",
      "    Message('note_on', channel=0, note=79, velocity=104, time=12),\n",
      "    Message('note_on', channel=0, note=79, velocity=0, time=48),\n",
      "    Message('note_on', channel=0, note=74, velocity=104, time=12),\n",
      "    Message('note_on', channel=0, note=74, velocity=0, time=48),\n",
      "    Message('note_on', channel=0, note=71, velocity=104, time=12),\n",
      "    Message('note_on', channel=0, note=71, velocity=0, time=48),\n",
      "    Message('note_on', channel=0, note=67, velocity=104, time=12),\n",
      "    Message('note_on', channel=0, note=67, velocity=0, time=48),\n",
      "    Message('note_on', channel=0, note=69, velocity=104, time=12),\n",
      "    Message('note_on', channel=0, note=69, velocity=0, time=48),\n",
      "    Message('note_on', channel=0, note=71, velocity=104, time=12),\n",
      "    Message('note_on', channel=0, note=71, velocity=0, time=48),\n",
      "    Message('note_on', channel=0, note=72, velocity=104, time=12),\n",
      "    Message('note_on', channel=0, note=72, velocity=0, time=48),\n",
      "    Message('note_on', channel=0, note=74, velocity=104, time=12),\n",
      "    Message('note_on', channel=0, note=74, velocity=0, time=48),\n",
      "    Message('note_on', channel=0, note=76, velocity=104, time=12),\n",
      "    Message('note_on', channel=0, note=76, velocity=0, time=48),\n",
      "    Message('note_on', channel=0, note=74, velocity=104, time=12),\n",
      "    Message('note_on', channel=0, note=74, velocity=0, time=48),\n",
      "    Message('note_on', channel=0, note=72, velocity=104, time=12),\n",
      "    Message('note_on', channel=0, note=72, velocity=0, time=48),\n",
      "    Message('note_on', channel=0, note=71, velocity=104, time=12),\n",
      "    Message('note_on', channel=0, note=71, velocity=0, time=48),\n",
      "    Message('note_on', channel=0, note=69, velocity=104, time=12),\n",
      "    Message('note_on', channel=0, note=69, velocity=0, time=48),\n",
      "    Message('note_on', channel=0, note=71, velocity=104, time=12),\n",
      "    Message('note_on', channel=0, note=71, velocity=0, time=48),\n",
      "    Message('note_on', channel=0, note=67, velocity=104, time=12),\n",
      "    Message('note_on', channel=0, note=67, velocity=0, time=48),\n",
      "    Message('note_on', channel=0, note=66, velocity=104, time=12),\n",
      "    Message('note_on', channel=0, note=66, velocity=0, time=48),\n",
      "    Message('note_on', channel=0, note=67, velocity=104, time=12),\n",
      "    Message('note_on', channel=0, note=67, velocity=0, time=48),\n",
      "    Message('note_on', channel=0, note=69, velocity=104, time=12),\n",
      "    Message('note_on', channel=0, note=69, velocity=0, time=48),\n",
      "    Message('note_on', channel=0, note=62, velocity=104, time=12),\n",
      "    Message('note_on', channel=0, note=62, velocity=0, time=48),\n",
      "    Message('note_on', channel=0, note=66, velocity=104, time=12),\n",
      "    Message('note_on', channel=0, note=66, velocity=0, time=48),\n",
      "    Message('note_on', channel=0, note=69, velocity=104, time=12),\n",
      "    Message('note_on', channel=0, note=69, velocity=0, time=48),\n",
      "    Message('note_on', channel=0, note=72, velocity=104, time=12),\n",
      "    Message('note_on', channel=0, note=72, velocity=0, time=48),\n",
      "    Message('note_on', channel=0, note=71, velocity=104, time=12),\n",
      "    Message('note_on', channel=0, note=71, velocity=0, time=48),\n",
      "    Message('note_on', channel=0, note=69, velocity=104, time=12),\n",
      "    Message('note_on', channel=0, note=69, velocity=0, time=48),\n",
      "    Message('note_on', channel=0, note=71, velocity=104, time=12),\n",
      "    Message('note_on', channel=0, note=71, velocity=0, time=48),\n",
      "    Message('note_on', channel=0, note=67, velocity=104, time=12),\n",
      "    Message('note_on', channel=0, note=67, velocity=0, time=48),\n",
      "    Message('note_on', channel=0, note=69, velocity=104, time=12),\n",
      "    Message('note_on', channel=0, note=69, velocity=0, time=48),\n",
      "    Message('note_on', channel=0, note=71, velocity=104, time=12),\n",
      "    Message('note_on', channel=0, note=71, velocity=0, time=48),\n",
      "    Message('note_on', channel=0, note=74, velocity=104, time=12),\n",
      "    Message('note_on', channel=0, note=74, velocity=0, time=48),\n",
      "    Message('note_on', channel=0, note=72, velocity=104, time=12),\n",
      "    Message('note_on', channel=0, note=72, velocity=0, time=48),\n",
      "    Message('note_on', channel=0, note=72, velocity=104, time=12),\n",
      "    Message('note_on', channel=0, note=72, velocity=0, time=48),\n",
      "    Message('note_on', channel=0, note=76, velocity=104, time=12),\n",
      "    Message('note_on', channel=0, note=76, velocity=0, time=48),\n",
      "    Message('note_on', channel=0, note=74, velocity=104, time=12),\n",
      "    Message('note_on', channel=0, note=74, velocity=0, time=48),\n",
      "    Message('note_on', channel=0, note=74, velocity=104, time=12),\n",
      "    Message('note_on', channel=0, note=74, velocity=0, time=48),\n",
      "    Message('note_on', channel=0, note=79, velocity=104, time=12),\n",
      "    Message('note_on', channel=0, note=79, velocity=0, time=48),\n",
      "    Message('note_on', channel=0, note=78, velocity=104, time=12),\n",
      "    Message('note_on', channel=0, note=78, velocity=0, time=48),\n",
      "    Message('note_on', channel=0, note=79, velocity=104, time=12),\n",
      "    Message('note_on', channel=0, note=79, velocity=0, time=48),\n",
      "    Message('note_on', channel=0, note=74, velocity=104, time=12),\n",
      "    Message('note_on', channel=0, note=74, velocity=0, time=48),\n",
      "    Message('note_on', channel=0, note=71, velocity=104, time=12),\n",
      "    Message('note_on', channel=0, note=71, velocity=0, time=48),\n",
      "    Message('note_on', channel=0, note=67, velocity=104, time=12),\n",
      "    Message('note_on', channel=0, note=67, velocity=0, time=48),\n",
      "    Message('note_on', channel=0, note=69, velocity=104, time=12),\n",
      "    Message('note_on', channel=0, note=69, velocity=0, time=48),\n",
      "    Message('note_on', channel=0, note=71, velocity=104, time=12),\n",
      "    Message('note_on', channel=0, note=71, velocity=0, time=48),\n",
      "    Message('note_on', channel=0, note=64, velocity=104, time=12),\n",
      "    Message('note_on', channel=0, note=64, velocity=0, time=48),\n",
      "    Message('note_on', channel=0, note=74, velocity=104, time=12),\n",
      "    Message('note_on', channel=0, note=74, velocity=0, time=48),\n",
      "    Message('note_on', channel=0, note=72, velocity=104, time=12),\n",
      "    Message('note_on', channel=0, note=72, velocity=0, time=48),\n",
      "    Message('note_on', channel=0, note=71, velocity=104, time=12),\n",
      "    Message('note_on', channel=0, note=71, velocity=0, time=48),\n",
      "    Message('note_on', channel=0, note=69, velocity=104, time=12),\n",
      "    Message('note_on', channel=0, note=69, velocity=0, time=48),\n",
      "    Message('note_on', channel=0, note=67, velocity=104, time=12),\n",
      "    Message('note_on', channel=0, note=67, velocity=0, time=48),\n",
      "    Message('note_on', channel=0, note=62, velocity=104, time=12),\n",
      "    Message('note_on', channel=0, note=62, velocity=0, time=48),\n",
      "    Message('note_on', channel=0, note=67, velocity=104, time=12),\n",
      "    Message('note_on', channel=0, note=67, velocity=0, time=48),\n",
      "    Message('note_on', channel=0, note=66, velocity=104, time=12),\n",
      "    Message('note_on', channel=0, note=66, velocity=0, time=48),\n",
      "    Message('note_on', channel=0, note=67, velocity=104, time=12),\n",
      "    Message('note_on', channel=0, note=71, velocity=104, time=0),\n",
      "    Message('note_on', channel=0, note=67, velocity=0, time=336),\n",
      "    Message('note_on', channel=0, note=71, velocity=0, time=0),\n",
      "    Message('note_on', channel=0, note=64, velocity=104, time=24),\n",
      "    Message('note_on', channel=0, note=60, velocity=104, time=0),\n",
      "    Message('note_on', channel=0, note=67, velocity=104, time=0),\n",
      "    Message('note_on', channel=0, note=72, velocity=104, time=0),\n",
      "    Message('note_on', channel=0, note=64, velocity=0, time=168),\n",
      "    Message('note_on', channel=0, note=60, velocity=0, time=0),\n",
      "    Message('note_on', channel=0, note=67, velocity=0, time=0),\n",
      "    Message('note_on', channel=0, note=72, velocity=0, time=0),\n",
      "    Message('note_on', channel=0, note=74, velocity=104, time=12),\n",
      "    Message('note_on', channel=0, note=74, velocity=0, time=336),\n",
      "    Message('note_on', channel=0, note=66, velocity=104, time=24),\n",
      "    Message('note_on', channel=0, note=71, velocity=104, time=0),\n",
      "    Message('note_on', channel=0, note=74, velocity=104, time=0),\n",
      "    Message('note_on', channel=0, note=62, velocity=104, time=0),\n",
      "    Message('note_on', channel=0, note=66, velocity=0, time=168),\n",
      "    Message('note_on', channel=0, note=71, velocity=0, time=0),\n",
      "    Message('note_on', channel=0, note=74, velocity=0, time=0),\n",
      "    Message('note_on', channel=0, note=62, velocity=0, time=0),\n",
      "    Message('note_on', channel=0, note=72, velocity=104, time=12),\n",
      "    Message('note_on', channel=0, note=72, velocity=0, time=336),\n",
      "    Message('note_on', channel=0, note=67, velocity=104, time=24),\n",
      "    Message('note_on', channel=0, note=62, velocity=104, time=0),\n",
      "    Message('note_on', channel=0, note=71, velocity=104, time=0),\n",
      "    Message('note_on', channel=0, note=67, velocity=0, time=168),\n",
      "    Message('note_on', channel=0, note=62, velocity=0, time=0),\n",
      "    Message('note_on', channel=0, note=71, velocity=0, time=0),\n",
      "    Message('note_on', channel=0, note=66, velocity=104, time=12),\n",
      "    Message('note_on', channel=0, note=69, velocity=104, time=0),\n",
      "    Message('note_on', channel=0, note=66, velocity=0, time=48),\n",
      "    Message('note_on', channel=0, note=69, velocity=0, time=0),\n",
      "    Message('note_on', channel=0, note=62, velocity=104, time=12),\n",
      "    Message('note_on', channel=0, note=62, velocity=0, time=48),\n",
      "    Message('note_on', channel=0, note=64, velocity=104, time=12),\n",
      "    Message('note_on', channel=0, note=64, velocity=0, time=48),\n",
      "    Message('note_on', channel=0, note=66, velocity=104, time=12),\n",
      "    Message('note_on', channel=0, note=69, velocity=104, time=0),\n",
      "    Message('note_on', channel=0, note=66, velocity=0, time=48),\n",
      "    Message('note_on', channel=0, note=69, velocity=0, time=0),\n",
      "    Message('note_on', channel=0, note=69, velocity=104, time=12),\n",
      "    Message('note_on', channel=0, note=69, velocity=0, time=48),\n",
      "    Message('note_on', channel=0, note=67, velocity=104, time=12),\n",
      "    Message('note_on', channel=0, note=67, velocity=0, time=48),\n",
      "    Message('note_on', channel=0, note=69, velocity=104, time=12),\n",
      "    Message('note_on', channel=0, note=69, velocity=0, time=48),\n",
      "    Message('note_on', channel=0, note=72, velocity=104, time=12),\n",
      "    Message('note_on', channel=0, note=72, velocity=0, time=48),\n",
      "    Message('note_on', channel=0, note=71, velocity=104, time=12),\n",
      "    Message('note_on', channel=0, note=71, velocity=0, time=48),\n",
      "    Message('note_on', channel=0, note=72, velocity=104, time=12),\n",
      "    Message('note_on', channel=0, note=72, velocity=0, time=48),\n",
      "    Message('note_on', channel=0, note=69, velocity=104, time=12),\n",
      "    Message('note_on', channel=0, note=69, velocity=0, time=48),\n",
      "    Message('note_on', channel=0, note=66, velocity=104, time=12),\n",
      "    Message('note_on', channel=0, note=66, velocity=0, time=48),\n",
      "    Message('note_on', channel=0, note=62, velocity=104, time=12),\n",
      "    Message('note_on', channel=0, note=62, velocity=0, time=48),\n",
      "    Message('note_on', channel=0, note=66, velocity=104, time=12),\n",
      "    Message('note_on', channel=0, note=66, velocity=0, time=48),\n",
      "    Message('note_on', channel=0, note=69, velocity=104, time=12),\n",
      "    Message('note_on', channel=0, note=69, velocity=0, time=48),\n",
      "    Message('note_on', channel=0, note=72, velocity=104, time=12),\n",
      "    Message('note_on', channel=0, note=72, velocity=0, time=48),\n",
      "    Message('note_on', channel=0, note=71, velocity=104, time=12),\n",
      "    Message('note_on', channel=0, note=71, velocity=0, time=48),\n",
      "    Message('note_on', channel=0, note=69, velocity=104, time=12),\n",
      "    Message('note_on', channel=0, note=69, velocity=0, time=48),\n",
      "    Message('note_on', channel=0, note=71, velocity=104, time=12),\n",
      "    Message('note_on', channel=0, note=67, velocity=104, time=0),\n",
      "    Message('note_on', channel=0, note=71, velocity=0, time=336),\n",
      "    Message('note_on', channel=0, note=67, velocity=0, time=0),\n",
      "    Message('note_on', channel=0, note=64, velocity=104, time=24),\n",
      "    Message('note_on', channel=0, note=60, velocity=104, time=0),\n",
      "    Message('note_on', channel=0, note=67, velocity=104, time=0),\n",
      "    Message('note_on', channel=0, note=72, velocity=104, time=0),\n",
      "    Message('note_on', channel=0, note=64, velocity=0, time=168),\n",
      "    Message('note_on', channel=0, note=60, velocity=0, time=0),\n",
      "    Message('note_on', channel=0, note=67, velocity=0, time=0),\n",
      "    Message('note_on', channel=0, note=72, velocity=0, time=0),\n",
      "    Message('note_on', channel=0, note=67, velocity=104, time=12),\n",
      "    Message('note_on', channel=0, note=74, velocity=104, time=0),\n",
      "    Message('note_on', channel=0, note=62, velocity=104, time=0),\n",
      "    Message('note_on', channel=0, note=67, velocity=0, time=336),\n",
      "    Message('note_on', channel=0, note=74, velocity=0, time=0),\n",
      "    Message('note_on', channel=0, note=62, velocity=0, time=0),\n",
      "    Message('note_on', channel=0, note=67, velocity=104, time=24),\n",
      "    Message('note_on', channel=0, note=64, velocity=104, time=0),\n",
      "    Message('note_on', channel=0, note=71, velocity=104, time=0),\n",
      "    Message('note_on', channel=0, note=67, velocity=0, time=168),\n",
      "    Message('note_on', channel=0, note=64, velocity=0, time=0),\n",
      "    Message('note_on', channel=0, note=71, velocity=0, time=0),\n",
      "    Message('note_on', channel=0, note=69, velocity=104, time=12),\n",
      "    Message('note_on', channel=0, note=69, velocity=0, time=116),\n",
      "    Message('note_on', channel=0, note=71, velocity=104, time=4),\n",
      "    Message('note_on', channel=0, note=72, velocity=104, time=30),\n",
      "    Message('note_on', channel=0, note=71, velocity=0, time=14),\n",
      "    Message('note_on', channel=0, note=66, velocity=104, time=16),\n",
      "    Message('note_on', channel=0, note=71, velocity=104, time=0),\n",
      "    Message('note_on', channel=0, note=62, velocity=104, time=0),\n",
      "    Message('note_on', channel=0, note=72, velocity=0, time=14),\n",
      "    Message('note_on', channel=0, note=66, velocity=0, time=154),\n",
      "    Message('note_on', channel=0, note=71, velocity=0, time=0),\n",
      "    Message('note_on', channel=0, note=62, velocity=0, time=0),\n",
      "    Message('note_on', channel=0, note=66, velocity=104, time=12),\n",
      "    Message('note_on', channel=0, note=60, velocity=104, time=0),\n",
      "    Message('note_on', channel=0, note=69, velocity=104, time=0),\n",
      "    Message('note_on', channel=0, note=66, velocity=0, time=168),\n",
      "    Message('note_on', channel=0, note=60, velocity=0, time=0),\n",
      "    Message('note_on', channel=0, note=69, velocity=0, time=0),\n",
      "    Message('note_on', channel=0, note=67, velocity=104, time=12),\n",
      "    Message('note_on', channel=0, note=67, velocity=0, time=48),\n",
      "    Message('note_on', channel=0, note=71, velocity=104, time=12),\n",
      "    Message('note_on', channel=0, note=71, velocity=0, time=48),\n",
      "    Message('note_on', channel=0, note=69, velocity=104, time=12),\n",
      "    Message('note_on', channel=0, note=69, velocity=0, time=48),\n",
      "    Message('note_on', channel=0, note=71, velocity=104, time=12),\n",
      "    Message('note_on', channel=0, note=71, velocity=0, time=48),\n",
      "    Message('note_on', channel=0, note=74, velocity=104, time=12),\n",
      "    Message('note_on', channel=0, note=74, velocity=0, time=48),\n",
      "    Message('note_on', channel=0, note=72, velocity=104, time=12),\n",
      "    Message('note_on', channel=0, note=72, velocity=0, time=48),\n",
      "    Message('note_on', channel=0, note=72, velocity=104, time=12),\n",
      "    Message('note_on', channel=0, note=72, velocity=0, time=48),\n",
      "    Message('note_on', channel=0, note=76, velocity=104, time=12),\n",
      "    Message('note_on', channel=0, note=76, velocity=0, time=48),\n",
      "    Message('note_on', channel=0, note=74, velocity=104, time=12),\n",
      "    Message('note_on', channel=0, note=74, velocity=0, time=48),\n",
      "    Message('note_on', channel=0, note=74, velocity=104, time=12),\n",
      "    Message('note_on', channel=0, note=74, velocity=0, time=48),\n",
      "    Message('note_on', channel=0, note=79, velocity=104, time=12),\n",
      "    Message('note_on', channel=0, note=79, velocity=0, time=48),\n",
      "    Message('note_on', channel=0, note=78, velocity=104, time=12),\n",
      "    Message('note_on', channel=0, note=78, velocity=0, time=48),\n",
      "    Message('note_on', channel=0, note=79, velocity=104, time=12),\n",
      "    Message('note_on', channel=0, note=79, velocity=0, time=48),\n",
      "    Message('note_on', channel=0, note=74, velocity=104, time=12),\n",
      "    Message('note_on', channel=0, note=74, velocity=0, time=48),\n",
      "    Message('note_on', channel=0, note=71, velocity=104, time=12),\n",
      "    Message('note_on', channel=0, note=71, velocity=0, time=48),\n",
      "    Message('note_on', channel=0, note=67, velocity=104, time=12),\n",
      "    Message('note_on', channel=0, note=67, velocity=0, time=48),\n",
      "    Message('note_on', channel=0, note=69, velocity=104, time=12),\n",
      "    Message('note_on', channel=0, note=69, velocity=0, time=48),\n",
      "    Message('note_on', channel=0, note=71, velocity=104, time=12),\n",
      "    Message('note_on', channel=0, note=71, velocity=0, time=48),\n",
      "    Message('note_on', channel=0, note=72, velocity=104, time=12),\n",
      "    Message('note_on', channel=0, note=72, velocity=0, time=48),\n",
      "    Message('note_on', channel=0, note=74, velocity=104, time=12),\n",
      "    Message('note_on', channel=0, note=74, velocity=0, time=48),\n",
      "    Message('note_on', channel=0, note=76, velocity=104, time=12),\n",
      "    Message('note_on', channel=0, note=76, velocity=0, time=48),\n",
      "    Message('note_on', channel=0, note=74, velocity=104, time=12),\n",
      "    Message('note_on', channel=0, note=74, velocity=0, time=48),\n",
      "    Message('note_on', channel=0, note=72, velocity=104, time=12),\n",
      "    Message('note_on', channel=0, note=72, velocity=0, time=48),\n",
      "    Message('note_on', channel=0, note=71, velocity=104, time=12),\n",
      "    Message('note_on', channel=0, note=71, velocity=0, time=48),\n",
      "    Message('note_on', channel=0, note=69, velocity=104, time=12),\n",
      "    Message('note_on', channel=0, note=69, velocity=0, time=48),\n",
      "    Message('note_on', channel=0, note=71, velocity=104, time=12),\n",
      "    Message('note_on', channel=0, note=71, velocity=0, time=48),\n",
      "    Message('note_on', channel=0, note=67, velocity=104, time=12),\n",
      "    Message('note_on', channel=0, note=67, velocity=0, time=48),\n",
      "    Message('note_on', channel=0, note=66, velocity=104, time=12),\n",
      "    Message('note_on', channel=0, note=66, velocity=0, time=48),\n",
      "    Message('note_on', channel=0, note=67, velocity=104, time=12),\n",
      "    Message('note_on', channel=0, note=67, velocity=0, time=48),\n",
      "    Message('note_on', channel=0, note=69, velocity=104, time=12),\n",
      "    Message('note_on', channel=0, note=69, velocity=0, time=48),\n",
      "    Message('note_on', channel=0, note=62, velocity=104, time=12),\n",
      "    Message('note_on', channel=0, note=62, velocity=0, time=48),\n",
      "    Message('note_on', channel=0, note=66, velocity=104, time=12),\n",
      "    Message('note_on', channel=0, note=66, velocity=0, time=48),\n",
      "    Message('note_on', channel=0, note=69, velocity=104, time=12),\n",
      "    Message('note_on', channel=0, note=69, velocity=0, time=48),\n",
      "    Message('note_on', channel=0, note=72, velocity=104, time=12),\n",
      "    Message('note_on', channel=0, note=72, velocity=0, time=48),\n",
      "    Message('note_on', channel=0, note=71, velocity=104, time=12),\n",
      "    Message('note_on', channel=0, note=71, velocity=0, time=48),\n",
      "    Message('note_on', channel=0, note=69, velocity=104, time=12),\n",
      "    Message('note_on', channel=0, note=69, velocity=0, time=48),\n",
      "    Message('note_on', channel=0, note=71, velocity=104, time=12),\n",
      "    Message('note_on', channel=0, note=71, velocity=0, time=48),\n",
      "    Message('note_on', channel=0, note=67, velocity=104, time=12),\n",
      "    Message('note_on', channel=0, note=67, velocity=0, time=48),\n",
      "    Message('note_on', channel=0, note=69, velocity=104, time=12),\n",
      "    Message('note_on', channel=0, note=69, velocity=0, time=48),\n",
      "    Message('note_on', channel=0, note=71, velocity=104, time=12),\n",
      "    Message('note_on', channel=0, note=71, velocity=0, time=48),\n",
      "    Message('note_on', channel=0, note=74, velocity=104, time=12),\n",
      "    Message('note_on', channel=0, note=74, velocity=0, time=48),\n",
      "    Message('note_on', channel=0, note=72, velocity=104, time=12),\n",
      "    Message('note_on', channel=0, note=72, velocity=0, time=48),\n",
      "    Message('note_on', channel=0, note=72, velocity=104, time=12),\n",
      "    Message('note_on', channel=0, note=72, velocity=0, time=48),\n",
      "    Message('note_on', channel=0, note=76, velocity=104, time=12),\n",
      "    Message('note_on', channel=0, note=76, velocity=0, time=48),\n",
      "    Message('note_on', channel=0, note=74, velocity=104, time=12),\n",
      "    Message('note_on', channel=0, note=74, velocity=0, time=48),\n",
      "    Message('note_on', channel=0, note=74, velocity=104, time=12),\n",
      "    Message('note_on', channel=0, note=74, velocity=0, time=48),\n",
      "    Message('note_on', channel=0, note=79, velocity=104, time=12),\n",
      "    Message('note_on', channel=0, note=79, velocity=0, time=48),\n",
      "    Message('note_on', channel=0, note=78, velocity=104, time=12),\n",
      "    Message('note_on', channel=0, note=78, velocity=0, time=48),\n",
      "    Message('note_on', channel=0, note=79, velocity=104, time=12),\n",
      "    Message('note_on', channel=0, note=79, velocity=0, time=48),\n",
      "    Message('note_on', channel=0, note=74, velocity=104, time=12),\n",
      "    Message('note_on', channel=0, note=74, velocity=0, time=48),\n",
      "    Message('note_on', channel=0, note=71, velocity=104, time=12),\n",
      "    Message('note_on', channel=0, note=71, velocity=0, time=48),\n",
      "    Message('note_on', channel=0, note=67, velocity=104, time=12),\n",
      "    Message('note_on', channel=0, note=67, velocity=0, time=48),\n",
      "    Message('note_on', channel=0, note=69, velocity=104, time=12),\n",
      "    Message('note_on', channel=0, note=69, velocity=0, time=48),\n",
      "    Message('note_on', channel=0, note=71, velocity=104, time=12),\n",
      "    Message('note_on', channel=0, note=71, velocity=0, time=48),\n",
      "    Message('note_on', channel=0, note=64, velocity=104, time=12),\n",
      "    Message('note_on', channel=0, note=64, velocity=0, time=48),\n",
      "    Message('note_on', channel=0, note=74, velocity=104, time=12),\n",
      "    Message('note_on', channel=0, note=74, velocity=0, time=48),\n",
      "    Message('note_on', channel=0, note=72, velocity=104, time=12),\n",
      "    Message('note_on', channel=0, note=72, velocity=0, time=48),\n",
      "    Message('note_on', channel=0, note=71, velocity=104, time=12),\n",
      "    Message('note_on', channel=0, note=71, velocity=0, time=48),\n",
      "    Message('note_on', channel=0, note=69, velocity=104, time=12),\n",
      "    Message('note_on', channel=0, note=69, velocity=0, time=48),\n",
      "    Message('note_on', channel=0, note=67, velocity=104, time=12),\n",
      "    Message('note_on', channel=0, note=67, velocity=0, time=48),\n",
      "    Message('note_on', channel=0, note=62, velocity=104, time=12),\n",
      "    Message('note_on', channel=0, note=62, velocity=0, time=48),\n",
      "    Message('note_on', channel=0, note=67, velocity=104, time=12),\n",
      "    Message('note_on', channel=0, note=67, velocity=0, time=48),\n",
      "    Message('note_on', channel=0, note=66, velocity=104, time=12),\n",
      "    Message('note_on', channel=0, note=66, velocity=0, time=48),\n",
      "    Message('note_on', channel=0, note=67, velocity=104, time=12),\n",
      "    Message('note_on', channel=0, note=67, velocity=0, time=48),\n",
      "    Message('note_on', channel=0, note=71, velocity=104, time=12),\n",
      "    Message('note_on', channel=0, note=71, velocity=0, time=48),\n",
      "    Message('note_on', channel=0, note=74, velocity=104, time=12),\n",
      "    Message('note_on', channel=0, note=74, velocity=0, time=48),\n",
      "    Message('note_on', channel=0, note=79, velocity=104, time=12),\n",
      "    Message('note_on', channel=0, note=79, velocity=0, time=48),\n",
      "    Message('note_on', channel=0, note=74, velocity=104, time=12),\n",
      "    Message('note_on', channel=0, note=74, velocity=0, time=48),\n",
      "    Message('note_on', channel=0, note=71, velocity=104, time=12),\n",
      "    Message('note_on', channel=0, note=71, velocity=0, time=48),\n",
      "    Message('note_on', channel=0, note=67, velocity=104, time=12),\n",
      "    Message('note_on', channel=0, note=67, velocity=0, time=168),\n",
      "    Message('note_on', channel=0, note=66, velocity=94, time=13),\n",
      "    Message('note_on', channel=0, note=69, velocity=94, time=0),\n",
      "    Message('note_on', channel=0, note=66, velocity=0, time=336),\n",
      "    Message('note_on', channel=0, note=69, velocity=0, time=0),\n",
      "    Message('note_on', channel=0, note=68, velocity=94, time=24),\n",
      "    Message('note_on', channel=0, note=71, velocity=94, time=0),\n",
      "    Message('note_on', channel=0, note=62, velocity=94, time=0),\n",
      "    Message('note_on', channel=0, note=68, velocity=0, time=168),\n",
      "    Message('note_on', channel=0, note=71, velocity=0, time=0),\n",
      "    Message('note_on', channel=0, note=62, velocity=0, time=0),\n",
      "    Message('note_on', channel=0, note=72, velocity=94, time=12),\n",
      "    Message('note_on', channel=0, note=64, velocity=94, time=0),\n",
      "    Message('note_on', channel=0, note=69, velocity=94, time=0),\n",
      "    Message('note_on', channel=0, note=72, velocity=0, time=336),\n",
      "    Message('note_on', channel=0, note=64, velocity=0, time=0),\n",
      "    Message('note_on', channel=0, note=69, velocity=0, time=0),\n",
      "    Message('note_on', channel=0, note=69, velocity=94, time=24),\n",
      "    Message('note_on', channel=0, note=64, velocity=94, time=0),\n",
      "    Message('note_on', channel=0, note=72, velocity=94, time=0),\n",
      "    Message('note_on', channel=0, note=69, velocity=0, time=168),\n",
      "    Message('note_on', channel=0, note=64, velocity=0, time=0),\n",
      "    Message('note_on', channel=0, note=72, velocity=0, time=0),\n",
      "    Message('note_on', channel=0, note=71, velocity=94, time=12),\n",
      "    Message('note_on', channel=0, note=71, velocity=0, time=276),\n",
      "    Message('note_on', channel=0, note=72, velocity=94, time=24),\n",
      "    Message('note_on', channel=0, note=72, velocity=0, time=24),\n",
      "    Message('note_on', channel=0, note=74, velocity=94, time=6),\n",
      "    Message('note_on', channel=0, note=74, velocity=0, time=24),\n",
      "    Message('note_on', channel=0, note=71, velocity=94, time=6),\n",
      "    Message('note_on', channel=0, note=68, velocity=94, time=0),\n",
      "    Message('note_on', channel=0, note=71, velocity=0, time=168),\n",
      "    Message('note_on', channel=0, note=68, velocity=0, time=0),\n",
      "    Message('note_on', channel=0, note=69, velocity=94, time=12),\n",
      "    Message('note_on', channel=0, note=69, velocity=0, time=168),\n",
      "    Message('note_on', channel=0, note=69, velocity=94, time=12),\n",
      "    Message('note_on', channel=0, note=69, velocity=0, time=48),\n",
      "    Message('note_on', channel=0, note=76, velocity=94, time=12),\n",
      "    Message('note_on', channel=0, note=76, velocity=0, time=48),\n",
      "    Message('note_on', channel=0, note=74, velocity=94, time=12),\n",
      "    Message('note_on', channel=0, note=74, velocity=0, time=48),\n",
      "    Message('note_on', channel=0, note=74, velocity=94, time=12),\n",
      "    Message('note_on', channel=0, note=74, velocity=0, time=48),\n",
      "    Message('note_on', channel=0, note=77, velocity=94, time=12),\n",
      "    Message('note_on', channel=0, note=77, velocity=0, time=48),\n",
      "    Message('note_on', channel=0, note=76, velocity=94, time=12),\n",
      "    Message('note_on', channel=0, note=76, velocity=0, time=48),\n",
      "    Message('note_on', channel=0, note=76, velocity=94, time=12),\n",
      "    Message('note_on', channel=0, note=76, velocity=0, time=48),\n",
      "    Message('note_on', channel=0, note=81, velocity=94, time=12),\n",
      "    Message('note_on', channel=0, note=81, velocity=0, time=48),\n",
      "    Message('note_on', channel=0, note=80, velocity=94, time=12),\n",
      "    Message('note_on', channel=0, note=80, velocity=0, time=48),\n",
      "    Message('note_on', channel=0, note=81, velocity=94, time=12),\n",
      "    Message('note_on', channel=0, note=81, velocity=0, time=48),\n",
      "    Message('note_on', channel=0, note=76, velocity=94, time=12),\n",
      "    Message('note_on', channel=0, note=76, velocity=0, time=48),\n",
      "    Message('note_on', channel=0, note=72, velocity=94, time=12),\n",
      "    Message('note_on', channel=0, note=72, velocity=0, time=48),\n",
      "    Message('note_on', channel=0, note=69, velocity=94, time=12),\n",
      "    Message('note_on', channel=0, note=69, velocity=0, time=48),\n",
      "    Message('note_on', channel=0, note=71, velocity=94, time=12),\n",
      "    Message('note_on', channel=0, note=71, velocity=0, time=48),\n",
      "    Message('note_on', channel=0, note=72, velocity=94, time=12),\n",
      "    Message('note_on', channel=0, note=72, velocity=0, time=48),\n",
      "    Message('note_on', channel=0, note=77, velocity=94, time=12),\n",
      "    Message('note_on', channel=0, note=77, velocity=0, time=48),\n",
      "    Message('note_on', channel=0, note=76, velocity=94, time=12),\n",
      "    Message('note_on', channel=0, note=76, velocity=0, time=48),\n",
      "    Message('note_on', channel=0, note=74, velocity=94, time=12),\n",
      "    Message('note_on', channel=0, note=74, velocity=0, time=48),\n",
      "    Message('note_on', channel=0, note=72, velocity=94, time=12),\n",
      "    Message('note_on', channel=0, note=72, velocity=0, time=48),\n",
      "    Message('note_on', channel=0, note=71, velocity=94, time=12),\n",
      "    Message('note_on', channel=0, note=71, velocity=0, time=48),\n",
      "    Message('note_on', channel=0, note=69, velocity=94, time=12),\n",
      "    Message('note_on', channel=0, note=69, velocity=0, time=48),\n",
      "    Message('note_on', channel=0, note=64, velocity=94, time=12),\n",
      "    Message('note_on', channel=0, note=64, velocity=0, time=48),\n",
      "    Message('note_on', channel=0, note=69, velocity=94, time=12),\n",
      "    Message('note_on', channel=0, note=69, velocity=0, time=48),\n",
      "    Message('note_on', channel=0, note=68, velocity=94, time=12),\n",
      "    Message('note_on', channel=0, note=62, velocity=94, time=0),\n",
      "    Message('note_on', channel=0, note=68, velocity=0, time=48),\n",
      "    Message('note_on', channel=0, note=62, velocity=0, time=0),\n",
      "    Message('note_on', channel=0, note=64, velocity=94, time=12),\n",
      "    Message('note_on', channel=0, note=69, velocity=94, time=0),\n",
      "    Message('note_on', channel=0, note=72, velocity=94, time=0),\n",
      "    Message('note_on', channel=0, note=64, velocity=0, time=336),\n",
      "    Message('note_on', channel=0, note=69, velocity=0, time=0),\n",
      "    Message('note_on', channel=0, note=72, velocity=0, time=0),\n",
      "    Message('note_on', channel=0, note=74, velocity=94, time=24),\n",
      "    Message('note_on', channel=0, note=62, velocity=94, time=0),\n",
      "    Message('note_on', channel=0, note=67, velocity=94, time=0),\n",
      "    Message('note_on', channel=0, note=74, velocity=0, time=168),\n",
      "    Message('note_on', channel=0, note=62, velocity=0, time=0),\n",
      "    Message('note_on', channel=0, note=67, velocity=0, time=0),\n",
      "    Message('note_on', channel=0, note=72, velocity=94, time=12),\n",
      "    Message('note_on', channel=0, note=76, velocity=94, time=0),\n",
      "    Message('note_on', channel=0, note=72, velocity=0, time=336),\n",
      "    Message('note_on', channel=0, note=76, velocity=0, time=0),\n",
      "    Message('note_on', channel=0, note=72, velocity=94, time=24),\n",
      "    Message('note_on', channel=0, note=76, velocity=94, time=0),\n",
      "    Message('note_on', channel=0, note=67, velocity=94, time=0),\n",
      "    Message('note_on', channel=0, note=72, velocity=0, time=168),\n",
      "    Message('note_on', channel=0, note=76, velocity=0, time=0),\n",
      "    Message('note_on', channel=0, note=67, velocity=0, time=0),\n",
      "    Message('note_on', channel=0, note=74, velocity=94, time=12),\n",
      "    Message('note_on', channel=0, note=74, velocity=0, time=276),\n",
      "    Message('note_on', channel=0, note=76, velocity=94, time=24),\n",
      "    Message('note_on', channel=0, note=76, velocity=0, time=24),\n",
      "    Message('note_on', channel=0, note=77, velocity=94, time=6),\n",
      "    Message('note_on', channel=0, note=77, velocity=0, time=24),\n",
      "    Message('note_on', channel=0, note=74, velocity=94, time=6),\n",
      "    Message('note_on', channel=0, note=74, velocity=0, time=168),\n",
      "    Message('note_on', channel=0, note=64, velocity=94, time=12),\n",
      "    Message('note_on', channel=0, note=72, velocity=94, time=0),\n",
      "    Message('note_on', channel=0, note=64, velocity=0, time=168),\n",
      "    Message('note_on', channel=0, note=72, velocity=0, time=0),\n",
      "    Message('note_on', channel=0, note=72, velocity=94, time=12),\n",
      "    Message('note_on', channel=0, note=72, velocity=0, time=48),\n",
      "    Message('note_on', channel=0, note=76, velocity=94, time=12),\n",
      "    Message('note_on', channel=0, note=76, velocity=0, time=48),\n",
      "    Message('note_on', channel=0, note=72, velocity=94, time=12),\n",
      "    Message('note_on', channel=0, note=72, velocity=0, time=48),\n",
      "    Message('note_on', channel=0, note=67, velocity=94, time=12),\n",
      "    Message('note_on', channel=0, note=67, velocity=0, time=48),\n",
      "    Message('note_on', channel=0, note=69, velocity=94, time=12),\n",
      "    Message('note_on', channel=0, note=69, velocity=0, time=48),\n",
      "    Message('note_on', channel=0, note=70, velocity=94, time=12),\n",
      "    Message('note_on', channel=0, note=70, velocity=0, time=48),\n",
      "    Message('note_on', channel=0, note=69, velocity=94, time=12),\n",
      "    Message('note_on', channel=0, note=69, velocity=0, time=48),\n",
      "    Message('note_on', channel=0, note=72, velocity=94, time=12),\n",
      "    Message('note_on', channel=0, note=72, velocity=0, time=48),\n",
      "    Message('note_on', channel=0, note=71, velocity=94, time=12),\n",
      "    Message('note_on', channel=0, note=71, velocity=0, time=48),\n",
      "    Message('note_on', channel=0, note=72, velocity=94, time=12),\n",
      "    Message('note_on', channel=0, note=72, velocity=0, time=48),\n",
      "    Message('note_on', channel=0, note=69, velocity=94, time=12),\n",
      "    Message('note_on', channel=0, note=69, velocity=0, time=48),\n",
      "    Message('note_on', channel=0, note=66, velocity=94, time=12),\n",
      "    Message('note_on', channel=0, note=66, velocity=0, time=48),\n",
      "    Message('note_on', channel=0, note=62, velocity=94, time=12),\n",
      "    Message('note_on', channel=0, note=62, velocity=0, time=48),\n",
      "    Message('note_on', channel=0, note=64, velocity=94, time=12),\n",
      "    Message('note_on', channel=0, note=64, velocity=0, time=48),\n",
      "    Message('note_on', channel=0, note=66, velocity=94, time=12),\n",
      "    Message('note_on', channel=0, note=66, velocity=0, time=48),\n",
      "    Message('note_on', channel=0, note=64, velocity=94, time=12),\n",
      "    Message('note_on', channel=0, note=64, velocity=0, time=48),\n",
      "    Message('note_on', channel=0, note=60, velocity=94, time=12),\n",
      "    Message('note_on', channel=0, note=60, velocity=0, time=48),\n",
      "    Message('note_on', channel=0, note=62, velocity=94, time=12),\n",
      "    Message('note_on', channel=0, note=62, velocity=0, time=48),\n",
      "    Message('note_on', channel=0, note=64, velocity=94, time=12),\n",
      "    Message('note_on', channel=0, note=64, velocity=0, time=48),\n",
      "    Message('note_on', channel=0, note=67, velocity=94, time=12),\n",
      "    Message('note_on', channel=0, note=67, velocity=0, time=48),\n",
      "    Message('note_on', channel=0, note=66, velocity=94, time=12),\n",
      "    Message('note_on', channel=0, note=66, velocity=0, time=48),\n",
      "    Message('note_on', channel=0, note=67, velocity=94, time=12),\n",
      "    Message('note_on', channel=0, note=67, velocity=0, time=48),\n",
      "    Message('note_on', channel=0, note=71, velocity=94, time=12),\n",
      "    Message('note_on', channel=0, note=71, velocity=0, time=48),\n",
      "    Message('note_on', channel=0, note=69, velocity=94, time=12),\n",
      "    Message('note_on', channel=0, note=69, velocity=0, time=48),\n",
      "    Message('note_on', channel=0, note=67, velocity=94, time=12),\n",
      "    Message('note_on', channel=0, note=71, velocity=94, time=0),\n",
      "    Message('note_on', channel=0, note=67, velocity=0, time=336),\n",
      "    Message('note_on', channel=0, note=71, velocity=0, time=0),\n",
      "    Message('note_on', channel=0, note=64, velocity=94, time=24),\n",
      "    Message('note_on', channel=0, note=60, velocity=94, time=0),\n",
      "    Message('note_on', channel=0, note=67, velocity=94, time=0),\n",
      "    Message('note_on', channel=0, note=72, velocity=94, time=0),\n",
      "    Message('note_on', channel=0, note=64, velocity=0, time=168),\n",
      "    Message('note_on', channel=0, note=60, velocity=0, time=0),\n",
      "    Message('note_on', channel=0, note=67, velocity=0, time=0),\n",
      "    Message('note_on', channel=0, note=72, velocity=0, time=0),\n",
      "    Message('note_on', channel=0, note=74, velocity=94, time=12),\n",
      "    Message('note_on', channel=0, note=67, velocity=94, time=0),\n",
      "    Message('note_on', channel=0, note=62, velocity=94, time=0),\n",
      "    Message('note_on', channel=0, note=74, velocity=0, time=336),\n",
      "    Message('note_on', channel=0, note=67, velocity=0, time=0),\n",
      "    Message('note_on', channel=0, note=62, velocity=0, time=0),\n",
      "    Message('note_on', channel=0, note=74, velocity=94, time=24),\n",
      "    Message('note_on', channel=0, note=67, velocity=94, time=0),\n",
      "    Message('note_on', channel=0, note=62, velocity=94, time=0),\n",
      "    Message('note_on', channel=0, note=74, velocity=0, time=168),\n",
      "    Message('note_on', channel=0, note=67, velocity=0, time=0),\n",
      "    Message('note_on', channel=0, note=62, velocity=0, time=0),\n",
      "    Message('note_on', channel=0, note=69, velocity=94, time=12),\n",
      "    Message('note_on', channel=0, note=64, velocity=94, time=0),\n",
      "    Message('note_on', channel=0, note=72, velocity=94, time=0),\n",
      "    Message('note_on', channel=0, note=69, velocity=0, time=168),\n",
      "    Message('note_on', channel=0, note=64, velocity=0, time=0),\n",
      "    Message('note_on', channel=0, note=72, velocity=0, time=0),\n",
      "    Message('note_on', channel=0, note=71, velocity=94, time=12),\n",
      "    Message('note_on', channel=0, note=71, velocity=0, time=336),\n",
      "    Message('note_on', channel=0, note=66, velocity=94, time=24),\n",
      "    Message('note_on', channel=0, note=69, velocity=94, time=0),\n",
      "    Message('note_on', channel=0, note=66, velocity=0, time=48),\n",
      "    Message('note_on', channel=0, note=69, velocity=0, time=0),\n",
      "    Message('note_on', channel=0, note=62, velocity=94, time=12),\n",
      "    Message('note_on', channel=0, note=62, velocity=0, time=48),\n",
      "    Message('note_on', channel=0, note=64, velocity=94, time=12),\n",
      "    Message('note_on', channel=0, note=64, velocity=0, time=48),\n",
      "    Message('note_on', channel=0, note=66, velocity=94, time=12),\n",
      "    Message('note_on', channel=0, note=66, velocity=0, time=48),\n",
      "    Message('note_on', channel=0, note=69, velocity=94, time=12),\n",
      "    Message('note_on', channel=0, note=69, velocity=0, time=48),\n",
      "    Message('note_on', channel=0, note=67, velocity=94, time=12),\n",
      "    Message('note_on', channel=0, note=67, velocity=0, time=48),\n",
      "    Message('note_on', channel=0, note=69, velocity=94, time=12),\n",
      "    Message('note_on', channel=0, note=69, velocity=0, time=48),\n",
      "    Message('note_on', channel=0, note=72, velocity=94, time=12),\n",
      "    Message('note_on', channel=0, note=72, velocity=0, time=48),\n",
      "    Message('note_on', channel=0, note=71, velocity=94, time=12),\n",
      "    Message('note_on', channel=0, note=71, velocity=0, time=48),\n",
      "    Message('note_on', channel=0, note=72, velocity=94, time=12),\n",
      "    Message('note_on', channel=0, note=72, velocity=0, time=48),\n",
      "    Message('note_on', channel=0, note=69, velocity=94, time=12),\n",
      "    Message('note_on', channel=0, note=69, velocity=0, time=48),\n",
      "    Message('note_on', channel=0, note=66, velocity=94, time=12),\n",
      "    Message('note_on', channel=0, note=66, velocity=0, time=48),\n",
      "    Message('note_on', channel=0, note=62, velocity=94, time=12),\n",
      "    Message('note_on', channel=0, note=62, velocity=0, time=48),\n",
      "    Message('note_on', channel=0, note=66, velocity=94, time=12),\n",
      "    Message('note_on', channel=0, note=66, velocity=0, time=48),\n",
      "    Message('note_on', channel=0, note=69, velocity=94, time=12),\n",
      "    Message('note_on', channel=0, note=69, velocity=0, time=48),\n",
      "    Message('note_on', channel=0, note=72, velocity=94, time=12),\n",
      "    Message('note_on', channel=0, note=72, velocity=0, time=48),\n",
      "    Message('note_on', channel=0, note=71, velocity=94, time=12),\n",
      "    Message('note_on', channel=0, note=71, velocity=0, time=48),\n",
      "    Message('note_on', channel=0, note=69, velocity=94, time=12),\n",
      "    Message('note_on', channel=0, note=69, velocity=0, time=48),\n",
      "    Message('note_on', channel=0, note=67, velocity=94, time=12),\n",
      "    Message('note_on', channel=0, note=71, velocity=94, time=0),\n",
      "    Message('note_on', channel=0, note=67, velocity=0, time=336),\n",
      "    Message('note_on', channel=0, note=71, velocity=0, time=0),\n",
      "    Message('note_on', channel=0, note=72, velocity=94, time=24),\n",
      "    Message('note_on', channel=0, note=67, velocity=94, time=0),\n",
      "    Message('note_on', channel=0, note=64, velocity=94, time=0),\n",
      "    Message('note_on', channel=0, note=60, velocity=94, time=0),\n",
      "    Message('note_on', channel=0, note=72, velocity=0, time=168),\n",
      "    Message('note_on', channel=0, note=67, velocity=0, time=0),\n",
      "    Message('note_on', channel=0, note=64, velocity=0, time=0),\n",
      "    Message('note_on', channel=0, note=60, velocity=0, time=0),\n",
      "    Message('note_on', channel=0, note=74, velocity=94, time=12),\n",
      "    Message('note_on', channel=0, note=62, velocity=94, time=0),\n",
      "    Message('note_on', channel=0, note=67, velocity=94, time=0),\n",
      "    Message('note_on', channel=0, note=74, velocity=0, time=336),\n",
      "    Message('note_on', channel=0, note=62, velocity=0, time=0),\n",
      "    Message('note_on', channel=0, note=67, velocity=0, time=0),\n",
      "    Message('note_on', channel=0, note=67, velocity=94, time=24),\n",
      "    Message('note_on', channel=0, note=64, velocity=94, time=0),\n",
      "    Message('note_on', channel=0, note=71, velocity=94, time=0),\n",
      "    Message('note_on', channel=0, note=67, velocity=0, time=168),\n",
      "    Message('note_on', channel=0, note=64, velocity=0, time=0),\n",
      "    Message('note_on', channel=0, note=71, velocity=0, time=0),\n",
      "    Message('note_on', channel=0, note=69, velocity=94, time=12),\n",
      "    Message('note_on', channel=0, note=69, velocity=0, time=96),\n",
      "    Message('note_on', channel=0, note=71, velocity=94, time=24),\n",
      "    Message('note_on', channel=0, note=71, velocity=0, time=24),\n",
      "    Message('note_on', channel=0, note=72, velocity=94, time=6),\n",
      "    Message('note_on', channel=0, note=72, velocity=0, time=24),\n",
      "    Message('note_on', channel=0, note=71, velocity=94, time=6),\n",
      "    Message('note_on', channel=0, note=71, velocity=0, time=168),\n",
      "    Message('note_on', channel=0, note=69, velocity=94, time=12),\n",
      "    Message('note_on', channel=0, note=69, velocity=0, time=168),\n",
      "    Message('note_on', channel=0, note=67, velocity=94, time=12),\n",
      "    Message('note_on', channel=0, note=67, velocity=0, time=48),\n",
      "    Message('note_on', channel=0, note=71, velocity=94, time=12),\n",
      "    Message('note_on', channel=0, note=71, velocity=0, time=48),\n",
      "    Message('note_on', channel=0, note=74, velocity=94, time=12),\n",
      "    Message('note_on', channel=0, note=74, velocity=0, time=48),\n",
      "    Message('note_on', channel=0, note=79, velocity=94, time=12),\n",
      "    Message('note_on', channel=0, note=79, velocity=0, time=48),\n",
      "    Message('note_on', channel=0, note=74, velocity=94, time=12),\n",
      "    Message('note_on', channel=0, note=74, velocity=0, time=48),\n",
      "    Message('note_on', channel=0, note=71, velocity=94, time=12),\n",
      "    Message('note_on', channel=0, note=71, velocity=0, time=48),\n",
      "    Message('note_on', channel=0, note=67, velocity=94, time=12),\n",
      "    Message('note_on', channel=0, note=67, velocity=0, time=48),\n",
      "    Message('note_on', channel=0, note=71, velocity=94, time=12),\n",
      "    Message('note_on', channel=0, note=71, velocity=0, time=48),\n",
      "    Message('note_on', channel=0, note=74, velocity=94, time=12),\n",
      "    Message('note_on', channel=0, note=74, velocity=0, time=48),\n",
      "    Message('note_on', channel=0, note=77, velocity=94, time=12),\n",
      "    Message('note_on', channel=0, note=77, velocity=0, time=48),\n",
      "    Message('note_on', channel=0, note=74, velocity=94, time=12),\n",
      "    Message('note_on', channel=0, note=74, velocity=0, time=48),\n",
      "    Message('note_on', channel=0, note=71, velocity=94, time=12),\n",
      "    Message('note_on', channel=0, note=71, velocity=0, time=48),\n",
      "    Message('note_on', channel=0, note=67, velocity=94, time=12),\n",
      "    Message('note_on', channel=0, note=67, velocity=0, time=48),\n",
      "    Message('note_on', channel=0, note=71, velocity=94, time=12),\n",
      "    Message('note_on', channel=0, note=71, velocity=0, time=48),\n",
      "    Message('note_on', channel=0, note=74, velocity=94, time=12),\n",
      "    Message('note_on', channel=0, note=74, velocity=0, time=48),\n",
      "    Message('note_on', channel=0, note=76, velocity=94, time=12),\n",
      "    Message('note_on', channel=0, note=76, velocity=0, time=48),\n",
      "    Message('note_on', channel=0, note=72, velocity=94, time=12),\n",
      "    Message('note_on', channel=0, note=72, velocity=0, time=48),\n",
      "    Message('note_on', channel=0, note=69, velocity=94, time=12),\n",
      "    Message('note_on', channel=0, note=69, velocity=0, time=48),\n",
      "    Message('note_on', channel=0, note=66, velocity=94, time=12),\n",
      "    Message('note_on', channel=0, note=66, velocity=0, time=48),\n",
      "    Message('note_on', channel=0, note=69, velocity=94, time=12),\n",
      "    Message('note_on', channel=0, note=69, velocity=0, time=48),\n",
      "    Message('note_on', channel=0, note=72, velocity=94, time=12),\n",
      "    Message('note_on', channel=0, note=72, velocity=0, time=48),\n",
      "    Message('note_on', channel=0, note=74, velocity=94, time=12),\n",
      "    Message('note_on', channel=0, note=74, velocity=0, time=48),\n",
      "    Message('note_on', channel=0, note=71, velocity=94, time=12),\n",
      "    Message('note_on', channel=0, note=71, velocity=0, time=48),\n",
      "    Message('note_on', channel=0, note=67, velocity=94, time=12),\n",
      "    Message('note_on', channel=0, note=67, velocity=0, time=48),\n",
      "    Message('note_on', channel=0, note=64, velocity=94, time=12),\n",
      "    Message('note_on', channel=0, note=64, velocity=0, time=48),\n",
      "    Message('note_on', channel=0, note=67, velocity=94, time=12),\n",
      "    Message('note_on', channel=0, note=67, velocity=0, time=48),\n",
      "    Message('note_on', channel=0, note=71, velocity=94, time=12),\n",
      "    Message('note_on', channel=0, note=71, velocity=0, time=48),\n",
      "    Message('note_on', channel=0, note=72, velocity=94, time=12),\n",
      "    Message('note_on', channel=0, note=72, velocity=0, time=48),\n",
      "    Message('note_on', channel=0, note=69, velocity=94, time=12),\n",
      "    Message('note_on', channel=0, note=69, velocity=0, time=48),\n",
      "    Message('note_on', channel=0, note=66, velocity=94, time=12),\n",
      "    Message('note_on', channel=0, note=66, velocity=0, time=48),\n",
      "    Message('note_on', channel=0, note=62, velocity=94, time=12),\n",
      "    Message('note_on', channel=0, note=62, velocity=0, time=48),\n",
      "    Message('note_on', channel=0, note=66, velocity=94, time=12),\n",
      "    Message('note_on', channel=0, note=66, velocity=0, time=48),\n",
      "    Message('note_on', channel=0, note=69, velocity=94, time=12),\n",
      "    Message('note_on', channel=0, note=69, velocity=0, time=48),\n",
      "    Message('note_on', channel=0, note=72, velocity=94, time=12),\n",
      "    Message('note_on', channel=0, note=72, velocity=0, time=48),\n",
      "    Message('note_on', channel=0, note=71, velocity=94, time=12),\n",
      "    Message('note_on', channel=0, note=71, velocity=0, time=48),\n",
      "    Message('note_on', channel=0, note=69, velocity=94, time=12),\n",
      "    Message('note_on', channel=0, note=69, velocity=0, time=48),\n",
      "    Message('note_on', channel=0, note=71, velocity=94, time=12),\n",
      "    Message('note_on', channel=0, note=71, velocity=0, time=48),\n",
      "    Message('note_on', channel=0, note=67, velocity=94, time=12),\n",
      "    Message('note_on', channel=0, note=67, velocity=0, time=48),\n",
      "    Message('note_on', channel=0, note=69, velocity=94, time=12),\n",
      "    Message('note_on', channel=0, note=69, velocity=0, time=48),\n",
      "    Message('note_on', channel=0, note=71, velocity=94, time=12),\n",
      "    Message('note_on', channel=0, note=71, velocity=0, time=48),\n",
      "    Message('note_on', channel=0, note=74, velocity=94, time=12),\n",
      "    Message('note_on', channel=0, note=74, velocity=0, time=48),\n",
      "    Message('note_on', channel=0, note=72, velocity=94, time=12),\n",
      "    Message('note_on', channel=0, note=72, velocity=0, time=48),\n",
      "    Message('note_on', channel=0, note=72, velocity=94, time=12),\n",
      "    Message('note_on', channel=0, note=72, velocity=0, time=48),\n",
      "    Message('note_on', channel=0, note=76, velocity=94, time=12),\n",
      "    Message('note_on', channel=0, note=76, velocity=0, time=48),\n",
      "    Message('note_on', channel=0, note=74, velocity=94, time=12),\n",
      "    Message('note_on', channel=0, note=74, velocity=0, time=48),\n",
      "    Message('note_on', channel=0, note=74, velocity=94, time=12),\n",
      "    Message('note_on', channel=0, note=74, velocity=0, time=48),\n",
      "    Message('note_on', channel=0, note=79, velocity=94, time=12),\n",
      "    Message('note_on', channel=0, note=79, velocity=0, time=48),\n",
      "    Message('note_on', channel=0, note=78, velocity=94, time=12),\n",
      "    Message('note_on', channel=0, note=78, velocity=0, time=48),\n",
      "    Message('note_on', channel=0, note=79, velocity=94, time=12),\n",
      "    Message('note_on', channel=0, note=79, velocity=0, time=48),\n",
      "    Message('note_on', channel=0, note=74, velocity=94, time=12),\n",
      "    Message('note_on', channel=0, note=74, velocity=0, time=48),\n",
      "    Message('note_on', channel=0, note=71, velocity=94, time=12),\n",
      "    Message('note_on', channel=0, note=71, velocity=0, time=48),\n",
      "    Message('note_on', channel=0, note=67, velocity=94, time=12),\n",
      "    Message('note_on', channel=0, note=67, velocity=0, time=48),\n",
      "    Message('note_on', channel=0, note=69, velocity=94, time=12),\n",
      "    Message('note_on', channel=0, note=69, velocity=0, time=48),\n",
      "    Message('note_on', channel=0, note=71, velocity=94, time=12),\n",
      "    Message('note_on', channel=0, note=71, velocity=0, time=48),\n",
      "    Message('note_on', channel=0, note=72, velocity=94, time=12),\n",
      "    Message('note_on', channel=0, note=72, velocity=0, time=48),\n",
      "    Message('note_on', channel=0, note=74, velocity=94, time=12),\n",
      "    Message('note_on', channel=0, note=74, velocity=0, time=48),\n",
      "    Message('note_on', channel=0, note=76, velocity=94, time=12),\n",
      "    Message('note_on', channel=0, note=76, velocity=0, time=48),\n",
      "    Message('note_on', channel=0, note=74, velocity=94, time=12),\n",
      "    Message('note_on', channel=0, note=74, velocity=0, time=48),\n",
      "    Message('note_on', channel=0, note=72, velocity=94, time=12),\n",
      "    Message('note_on', channel=0, note=72, velocity=0, time=48),\n",
      "    Message('note_on', channel=0, note=71, velocity=94, time=12),\n",
      "    Message('note_on', channel=0, note=71, velocity=0, time=48),\n",
      "    Message('note_on', channel=0, note=69, velocity=94, time=12),\n",
      "    Message('note_on', channel=0, note=69, velocity=0, time=48),\n",
      "    Message('note_on', channel=0, note=71, velocity=94, time=12),\n",
      "    Message('note_on', channel=0, note=71, velocity=0, time=48),\n",
      "    Message('note_on', channel=0, note=67, velocity=94, time=12),\n",
      "    Message('note_on', channel=0, note=67, velocity=0, time=48),\n",
      "    Message('note_on', channel=0, note=66, velocity=94, time=12),\n",
      "    Message('note_on', channel=0, note=66, velocity=0, time=48),\n",
      "    Message('note_on', channel=0, note=67, velocity=94, time=12),\n",
      "    Message('note_on', channel=0, note=67, velocity=0, time=48),\n",
      "    Message('note_on', channel=0, note=69, velocity=94, time=12),\n",
      "    Message('note_on', channel=0, note=69, velocity=0, time=48),\n",
      "    Message('note_on', channel=0, note=62, velocity=94, time=12),\n",
      "    Message('note_on', channel=0, note=62, velocity=0, time=48),\n",
      "    Message('note_on', channel=0, note=66, velocity=94, time=12),\n",
      "    Message('note_on', channel=0, note=66, velocity=0, time=48),\n",
      "    Message('note_on', channel=0, note=69, velocity=94, time=12),\n",
      "    Message('note_on', channel=0, note=69, velocity=0, time=48),\n",
      "    Message('note_on', channel=0, note=72, velocity=94, time=12),\n",
      "    Message('note_on', channel=0, note=72, velocity=0, time=48),\n",
      "    Message('note_on', channel=0, note=71, velocity=94, time=12),\n",
      "    Message('note_on', channel=0, note=71, velocity=0, time=48),\n",
      "    Message('note_on', channel=0, note=69, velocity=94, time=12),\n",
      "    Message('note_on', channel=0, note=69, velocity=0, time=48),\n",
      "    Message('note_on', channel=0, note=71, velocity=94, time=12),\n",
      "    Message('note_on', channel=0, note=71, velocity=0, time=48),\n",
      "    Message('note_on', channel=0, note=67, velocity=94, time=12),\n",
      "    Message('note_on', channel=0, note=67, velocity=0, time=48),\n",
      "    Message('note_on', channel=0, note=69, velocity=94, time=12),\n",
      "    Message('note_on', channel=0, note=69, velocity=0, time=48),\n",
      "    Message('note_on', channel=0, note=71, velocity=94, time=12),\n",
      "    Message('note_on', channel=0, note=71, velocity=0, time=48),\n",
      "    Message('note_on', channel=0, note=74, velocity=94, time=12),\n",
      "    Message('note_on', channel=0, note=74, velocity=0, time=48),\n",
      "    Message('note_on', channel=0, note=72, velocity=94, time=12),\n",
      "    Message('note_on', channel=0, note=72, velocity=0, time=48),\n",
      "    Message('note_on', channel=0, note=72, velocity=94, time=12),\n",
      "    Message('note_on', channel=0, note=72, velocity=0, time=48),\n",
      "    Message('note_on', channel=0, note=76, velocity=94, time=12),\n",
      "    Message('note_on', channel=0, note=76, velocity=0, time=48),\n",
      "    Message('note_on', channel=0, note=74, velocity=94, time=12),\n",
      "    Message('note_on', channel=0, note=74, velocity=0, time=48),\n",
      "    Message('note_on', channel=0, note=74, velocity=94, time=12),\n",
      "    Message('note_on', channel=0, note=74, velocity=0, time=48),\n",
      "    Message('note_on', channel=0, note=79, velocity=94, time=12),\n",
      "    Message('note_on', channel=0, note=79, velocity=0, time=48),\n",
      "    Message('note_on', channel=0, note=78, velocity=94, time=12),\n",
      "    Message('note_on', channel=0, note=78, velocity=0, time=48),\n",
      "    Message('note_on', channel=0, note=79, velocity=94, time=12),\n",
      "    Message('note_on', channel=0, note=79, velocity=0, time=48),\n",
      "    Message('note_on', channel=0, note=74, velocity=94, time=12),\n",
      "    Message('note_on', channel=0, note=74, velocity=0, time=48),\n",
      "    Message('note_on', channel=0, note=71, velocity=94, time=12),\n",
      "    Message('note_on', channel=0, note=71, velocity=0, time=48),\n",
      "    Message('note_on', channel=0, note=67, velocity=94, time=12),\n",
      "    Message('note_on', channel=0, note=67, velocity=0, time=48),\n",
      "    Message('note_on', channel=0, note=69, velocity=94, time=12),\n",
      "    Message('note_on', channel=0, note=69, velocity=0, time=48),\n",
      "    Message('note_on', channel=0, note=71, velocity=94, time=12),\n",
      "    Message('note_on', channel=0, note=71, velocity=0, time=48),\n",
      "    Message('note_on', channel=0, note=64, velocity=94, time=12),\n",
      "    Message('note_on', channel=0, note=64, velocity=0, time=48),\n",
      "    Message('note_on', channel=0, note=74, velocity=94, time=12),\n",
      "    Message('note_on', channel=0, note=74, velocity=0, time=48),\n",
      "    Message('note_on', channel=0, note=72, velocity=94, time=12),\n",
      "    Message('note_on', channel=0, note=72, velocity=0, time=48),\n",
      "    Message('note_on', channel=0, note=71, velocity=94, time=12),\n",
      "    Message('note_on', channel=0, note=71, velocity=0, time=48),\n",
      "    Message('note_on', channel=0, note=69, velocity=94, time=12),\n",
      "    Message('note_on', channel=0, note=69, velocity=0, time=48),\n",
      "    Message('note_on', channel=0, note=67, velocity=94, time=12),\n",
      "    Message('note_on', channel=0, note=67, velocity=0, time=48),\n",
      "    Message('note_on', channel=0, note=62, velocity=94, time=12),\n",
      "    Message('note_on', channel=0, note=62, velocity=0, time=48),\n",
      "    Message('note_on', channel=0, note=67, velocity=94, time=12),\n",
      "    Message('note_on', channel=0, note=67, velocity=0, time=48),\n",
      "    Message('note_on', channel=0, note=66, velocity=94, time=12),\n",
      "    Message('note_on', channel=0, note=66, velocity=0, time=48),\n",
      "    Message('note_on', channel=0, note=62, velocity=94, time=12),\n",
      "    Message('note_on', channel=0, note=67, velocity=94, time=0),\n",
      "    Message('note_on', channel=0, note=59, velocity=94, time=0),\n",
      "    Message('note_on', channel=0, note=55, velocity=94, time=0),\n",
      "    Message('note_on', channel=0, note=62, velocity=0, time=456),\n",
      "    Message('note_on', channel=0, note=67, velocity=0, time=0),\n",
      "    Message('note_on', channel=0, note=59, velocity=0, time=0),\n",
      "    Message('note_on', channel=0, note=55, velocity=0, time=0),\n",
      "    MetaMessage('end_of_track', time=0)]),\n",
      "  MidiTrack([\n",
      "    MetaMessage('track_name', name='Desiring', time=0),\n",
      "    MetaMessage('instrument_name', name='Synth Brass 2', time=0),\n",
      "    MetaMessage('midi_port', port=0, time=0),\n",
      "    Message('control_change', channel=1, control=0, value=80, time=0),\n",
      "    Message('control_change', channel=1, control=32, value=0, time=0),\n",
      "    Message('program_change', channel=1, program=63, time=0),\n",
      "    Message('note_on', channel=1, note=67, velocity=85, time=60),\n",
      "    Message('note_on', channel=1, note=67, velocity=0, time=48),\n",
      "    Message('note_on', channel=1, note=69, velocity=85, time=12),\n",
      "    Message('note_on', channel=1, note=69, velocity=0, time=48),\n",
      "    Message('note_on', channel=1, note=67, velocity=85, time=12),\n",
      "    Message('note_on', channel=1, note=67, velocity=0, time=168),\n",
      "    Message('note_on', channel=1, note=67, velocity=85, time=12),\n",
      "    Message('note_on', channel=1, note=67, velocity=0, time=168),\n",
      "    Message('note_on', channel=1, note=67, velocity=85, time=12),\n",
      "    Message('note_on', channel=1, note=67, velocity=0, time=168),\n",
      "    Message('note_on', channel=1, note=67, velocity=85, time=12),\n",
      "    Message('note_on', channel=1, note=67, velocity=0, time=168),\n",
      "    Message('note_on', channel=1, note=67, velocity=85, time=12),\n",
      "    Message('note_on', channel=1, note=67, velocity=0, time=48),\n",
      "    Message('note_on', channel=1, note=69, velocity=85, time=12),\n",
      "    Message('note_on', channel=1, note=69, velocity=0, time=48),\n",
      "    Message('note_on', channel=1, note=71, velocity=85, time=12),\n",
      "    Message('note_on', channel=1, note=71, velocity=0, time=48),\n",
      "    Message('note_on', channel=1, note=72, velocity=85, time=12),\n",
      "    Message('note_on', channel=1, note=72, velocity=0, time=48),\n",
      "    Message('note_on', channel=1, note=74, velocity=85, time=12),\n",
      "    Message('note_on', channel=1, note=74, velocity=0, time=48),\n",
      "    Message('note_on', channel=1, note=76, velocity=85, time=12),\n",
      "    Message('note_on', channel=1, note=76, velocity=0, time=48),\n",
      "    Message('note_on', channel=1, note=74, velocity=85, time=12),\n",
      "    Message('note_on', channel=1, note=74, velocity=0, time=48),\n",
      "    Message('note_on', channel=1, note=72, velocity=85, time=12),\n",
      "    Message('note_on', channel=1, note=72, velocity=0, time=48),\n",
      "    Message('note_on', channel=1, note=71, velocity=85, time=12),\n",
      "    Message('note_on', channel=1, note=71, velocity=0, time=48),\n",
      "    Message('note_on', channel=1, note=69, velocity=85, time=12),\n",
      "    Message('note_on', channel=1, note=69, velocity=0, time=48),\n",
      "    Message('note_on', channel=1, note=71, velocity=85, time=12),\n",
      "    Message('note_on', channel=1, note=71, velocity=0, time=48),\n",
      "    Message('note_on', channel=1, note=67, velocity=85, time=12),\n",
      "    Message('note_on', channel=1, note=67, velocity=0, time=48),\n",
      "    Message('note_on', channel=1, note=66, velocity=85, time=12),\n",
      "    Message('note_on', channel=1, note=66, velocity=0, time=48),\n",
      "    Message('note_on', channel=1, note=67, velocity=85, time=12),\n",
      "    Message('note_on', channel=1, note=67, velocity=0, time=48),\n",
      "    Message('note_on', channel=1, note=69, velocity=85, time=12),\n",
      "    Message('note_on', channel=1, note=69, velocity=0, time=48),\n",
      "    Message('note_on', channel=1, note=62, velocity=85, time=12),\n",
      "    Message('note_on', channel=1, note=62, velocity=0, time=48),\n",
      "    Message('note_on', channel=1, note=66, velocity=85, time=12),\n",
      "    Message('note_on', channel=1, note=66, velocity=0, time=48),\n",
      "    Message('note_on', channel=1, note=69, velocity=85, time=12),\n",
      "    Message('note_on', channel=1, note=69, velocity=0, time=48),\n",
      "    Message('note_on', channel=1, note=72, velocity=85, time=12),\n",
      "    Message('note_on', channel=1, note=72, velocity=0, time=48),\n",
      "    Message('note_on', channel=1, note=71, velocity=85, time=12),\n",
      "    Message('note_on', channel=1, note=71, velocity=0, time=48),\n",
      "    Message('note_on', channel=1, note=69, velocity=85, time=12),\n",
      "    Message('note_on', channel=1, note=69, velocity=0, time=48),\n",
      "    Message('note_on', channel=1, note=71, velocity=85, time=12),\n",
      "    Message('note_on', channel=1, note=71, velocity=0, time=48),\n",
      "    Message('note_on', channel=1, note=67, velocity=85, time=12),\n",
      "    Message('note_on', channel=1, note=67, velocity=0, time=48),\n",
      "    Message('note_on', channel=1, note=69, velocity=85, time=12),\n",
      "    Message('note_on', channel=1, note=69, velocity=0, time=48),\n",
      "    Message('note_on', channel=1, note=67, velocity=85, time=12),\n",
      "    Message('note_on', channel=1, note=67, velocity=0, time=168),\n",
      "    Message('note_on', channel=1, note=67, velocity=85, time=12),\n",
      "    Message('note_on', channel=1, note=67, velocity=0, time=168),\n",
      "    Message('note_on', channel=1, note=67, velocity=85, time=12),\n",
      "    Message('note_on', channel=1, note=67, velocity=0, time=168),\n",
      "    Message('note_on', channel=1, note=67, velocity=85, time=12),\n",
      "    Message('note_on', channel=1, note=67, velocity=0, time=168),\n",
      "    Message('note_on', channel=1, note=66, velocity=85, time=1812),\n",
      "    Message('note_on', channel=1, note=69, velocity=85, time=0),\n",
      "    Message('note_on', channel=1, note=62, velocity=85, time=0),\n",
      "    Message('note_on', channel=1, note=66, velocity=0, time=168),\n",
      "    Message('note_on', channel=1, note=69, velocity=0, time=0),\n",
      "    Message('note_on', channel=1, note=62, velocity=0, time=0),\n",
      "    Message('note_on', channel=1, note=67, velocity=85, time=12),\n",
      "    Message('note_on', channel=1, note=67, velocity=0, time=168),\n",
      "    Message('note_on', channel=1, note=60, velocity=85, time=192),\n",
      "    Message('note_on', channel=1, note=67, velocity=85, time=0),\n",
      "    Message('note_on', channel=1, note=64, velocity=85, time=0),\n",
      "    Message('note_on', channel=1, note=60, velocity=0, time=168),\n",
      "    Message('note_on', channel=1, note=67, velocity=0, time=0),\n",
      "    Message('note_on', channel=1, note=64, velocity=0, time=0),\n",
      "    Message('note_on', channel=1, note=62, velocity=85, time=12),\n",
      "    Message('note_on', channel=1, note=69, velocity=85, time=0),\n",
      "    Message('note_on', channel=1, note=62, velocity=0, time=168),\n",
      "    Message('note_on', channel=1, note=69, velocity=0, time=0),\n",
      "    Message('note_on', channel=1, note=64, velocity=85, time=2352),\n",
      "    Message('note_on', channel=1, note=67, velocity=85, time=0),\n",
      "    Message('note_on', channel=1, note=64, velocity=0, time=168),\n",
      "    Message('note_on', channel=1, note=67, velocity=0, time=0),\n",
      "    Message('note_on', channel=1, note=66, velocity=85, time=12),\n",
      "    Message('note_on', channel=1, note=71, velocity=85, time=0),\n",
      "    Message('note_on', channel=1, note=62, velocity=85, time=0),\n",
      "    Message('note_on', channel=1, note=66, velocity=0, time=168),\n",
      "    Message('note_on', channel=1, note=71, velocity=0, time=0),\n",
      "    Message('note_on', channel=1, note=62, velocity=0, time=0),\n",
      "    Message('note_on', channel=1, note=66, velocity=85, time=12),\n",
      "    Message('note_on', channel=1, note=69, velocity=85, time=0),\n",
      "    Message('note_on', channel=1, note=60, velocity=85, time=0),\n",
      "    Message('note_on', channel=1, note=66, velocity=0, time=168),\n",
      "    Message('note_on', channel=1, note=69, velocity=0, time=0),\n",
      "    Message('note_on', channel=1, note=60, velocity=0, time=0),\n",
      "    Message('note_on', channel=1, note=67, velocity=85, time=192),\n",
      "    Message('note_on', channel=1, note=67, velocity=0, time=168),\n",
      "    Message('note_on', channel=1, note=67, velocity=85, time=12),\n",
      "    Message('note_on', channel=1, note=67, velocity=0, time=168),\n",
      "    Message('note_on', channel=1, note=67, velocity=85, time=12),\n",
      "    Message('note_on', channel=1, note=67, velocity=0, time=168),\n",
      "    Message('note_on', channel=1, note=67, velocity=85, time=12),\n",
      "    Message('note_on', channel=1, note=67, velocity=0, time=168),\n",
      "    Message('note_on', channel=1, note=67, velocity=85, time=1452),\n",
      "    Message('note_on', channel=1, note=67, velocity=0, time=168),\n",
      "    Message('note_on', channel=1, note=67, velocity=85, time=12),\n",
      "    Message('note_on', channel=1, note=67, velocity=0, time=168),\n",
      "    Message('note_on', channel=1, note=67, velocity=85, time=12),\n",
      "    Message('note_on', channel=1, note=67, velocity=0, time=168),\n",
      "    Message('note_on', channel=1, note=67, velocity=85, time=12),\n",
      "    Message('note_on', channel=1, note=67, velocity=0, time=168),\n",
      "    Message('note_on', channel=1, note=66, velocity=85, time=1272),\n",
      "    Message('note_on', channel=1, note=62, velocity=85, time=0),\n",
      "    Message('note_on', channel=1, note=69, velocity=85, time=0),\n",
      "    Message('note_on', channel=1, note=66, velocity=0, time=168),\n",
      "    Message('note_on', channel=1, note=62, velocity=0, time=0),\n",
      "    Message('note_on', channel=1, note=69, velocity=0, time=0),\n",
      "    Message('note_on', channel=1, note=67, velocity=85, time=12),\n",
      "    Message('note_on', channel=1, note=67, velocity=0, time=168),\n",
      "    Message('note_on', channel=1, note=64, velocity=85, time=192),\n",
      "    Message('note_on', channel=1, note=60, velocity=85, time=0),\n",
      "    Message('note_on', channel=1, note=69, velocity=85, time=0),\n",
      "    Message('note_on', channel=1, note=64, velocity=0, time=168),\n",
      "    Message('note_on', channel=1, note=60, velocity=0, time=0),\n",
      "    Message('note_on', channel=1, note=69, velocity=0, time=0),\n",
      "    Message('note_on', channel=1, note=62, velocity=85, time=12),\n",
      "    Message('note_on', channel=1, note=69, velocity=85, time=0),\n",
      "    Message('note_on', channel=1, note=62, velocity=0, time=168),\n",
      "    Message('note_on', channel=1, note=69, velocity=0, time=0),\n",
      "    Message('note_on', channel=1, note=64, velocity=85, time=2352),\n",
      "    Message('note_on', channel=1, note=67, velocity=85, time=0),\n",
      "    Message('note_on', channel=1, note=64, velocity=0, time=168),\n",
      "    Message('note_on', channel=1, note=67, velocity=0, time=0),\n",
      "    Message('note_on', channel=1, note=66, velocity=85, time=12),\n",
      "    Message('note_on', channel=1, note=71, velocity=85, time=0),\n",
      "    Message('note_on', channel=1, note=62, velocity=85, time=0),\n",
      "    Message('note_on', channel=1, note=66, velocity=0, time=168),\n",
      "    Message('note_on', channel=1, note=71, velocity=0, time=0),\n",
      "    Message('note_on', channel=1, note=62, velocity=0, time=0),\n",
      "    Message('note_on', channel=1, note=66, velocity=85, time=12),\n",
      "    Message('note_on', channel=1, note=60, velocity=85, time=0),\n",
      "    Message('note_on', channel=1, note=69, velocity=85, time=0),\n",
      "    Message('note_on', channel=1, note=66, velocity=0, time=168),\n",
      "    Message('note_on', channel=1, note=60, velocity=0, time=0),\n",
      "    Message('note_on', channel=1, note=69, velocity=0, time=0),\n",
      "    Message('note_on', channel=1, note=67, velocity=85, time=192),\n",
      "    Message('note_on', channel=1, note=67, velocity=0, time=168),\n",
      "    Message('note_on', channel=1, note=67, velocity=85, time=12),\n",
      "    Message('note_on', channel=1, note=67, velocity=0, time=168),\n",
      "    Message('note_on', channel=1, note=67, velocity=85, time=12),\n",
      "    Message('note_on', channel=1, note=67, velocity=0, time=168),\n",
      "    Message('note_on', channel=1, note=67, velocity=85, time=12),\n",
      "    Message('note_on', channel=1, note=67, velocity=0, time=168),\n",
      "    Message('note_on', channel=1, note=67, velocity=85, time=1452),\n",
      "    Message('note_on', channel=1, note=67, velocity=0, time=168),\n",
      "    Message('note_on', channel=1, note=67, velocity=85, time=12),\n",
      "    Message('note_on', channel=1, note=67, velocity=0, time=168),\n",
      "    Message('note_on', channel=1, note=67, velocity=85, time=12),\n",
      "    Message('note_on', channel=1, note=67, velocity=0, time=168),\n",
      "    Message('note_on', channel=1, note=67, velocity=85, time=12),\n",
      "    Message('note_on', channel=1, note=67, velocity=0, time=168),\n",
      "    Message('note_on', channel=1, note=69, velocity=85, time=2352),\n",
      "    Message('note_on', channel=1, note=62, velocity=85, time=0),\n",
      "    Message('note_on', channel=1, note=69, velocity=0, time=336),\n",
      "    Message('note_on', channel=1, note=62, velocity=0, time=0),\n",
      "    Message('note_on', channel=1, note=69, velocity=85, time=564),\n",
      "    Message('note_on', channel=1, note=69, velocity=0, time=168),\n",
      "    Message('note_on', channel=1, note=69, velocity=85, time=12),\n",
      "    Message('note_on', channel=1, note=69, velocity=0, time=168),\n",
      "    Message('note_on', channel=1, note=69, velocity=85, time=12),\n",
      "    Message('note_on', channel=1, note=69, velocity=0, time=168),\n",
      "    Message('note_on', channel=1, note=69, velocity=85, time=192),\n",
      "    Message('note_on', channel=1, note=69, velocity=0, time=168),\n",
      "    Message('note_on', channel=1, note=66, velocity=85, time=12),\n",
      "    Message('note_on', channel=1, note=66, velocity=0, time=168),\n",
      "    Message('note_on', channel=1, note=67, velocity=85, time=732),\n",
      "    Message('note_on', channel=1, note=67, velocity=0, time=168),\n",
      "    Message('note_on', channel=1, note=69, velocity=85, time=12),\n",
      "    Message('note_on', channel=1, note=69, velocity=0, time=168),\n",
      "    Message('note_on', channel=1, note=65, velocity=85, time=192),\n",
      "    Message('note_on', channel=1, note=65, velocity=0, time=336),\n",
      "    Message('note_on', channel=1, note=62, velocity=85, time=3084),\n",
      "    Message('note_on', channel=1, note=62, velocity=0, time=168),\n",
      "    Message('note_on', channel=1, note=64, velocity=85, time=12),\n",
      "    Message('note_on', channel=1, note=64, velocity=0, time=168),\n",
      "    Message('note_on', channel=1, note=64, velocity=85, time=2172),\n",
      "    Message('note_on', channel=1, note=67, velocity=85, time=0),\n",
      "    Message('note_on', channel=1, note=64, velocity=0, time=168),\n",
      "    Message('note_on', channel=1, note=67, velocity=0, time=0),\n",
      "    Message('note_on', channel=1, note=67, velocity=85, time=2712),\n",
      "    Message('note_on', channel=1, note=67, velocity=0, time=168),\n",
      "    Message('note_on', channel=1, note=67, velocity=85, time=12),\n",
      "    Message('note_on', channel=1, note=67, velocity=0, time=168),\n",
      "    Message('note_on', channel=1, note=67, velocity=85, time=12),\n",
      "    Message('note_on', channel=1, note=67, velocity=0, time=168),\n",
      "    Message('note_on', channel=1, note=67, velocity=85, time=12),\n",
      "    Message('note_on', channel=1, note=67, velocity=0, time=168),\n",
      "    Message('note_on', channel=1, note=67, velocity=85, time=1452),\n",
      "    Message('note_on', channel=1, note=67, velocity=0, time=168),\n",
      "    Message('note_on', channel=1, note=67, velocity=85, time=12),\n",
      "    Message('note_on', channel=1, note=67, velocity=0, time=168),\n",
      "    Message('note_on', channel=1, note=67, velocity=85, time=12),\n",
      "    Message('note_on', channel=1, note=67, velocity=0, time=168),\n",
      "    Message('note_on', channel=1, note=67, velocity=85, time=12),\n",
      "    Message('note_on', channel=1, note=67, velocity=0, time=168),\n",
      "    Message('note_on', channel=1, note=67, velocity=85, time=1332),\n",
      "    Message('note_on', channel=1, note=67, velocity=0, time=48),\n",
      "    Message('note_on', channel=1, note=69, velocity=85, time=12),\n",
      "    Message('note_on', channel=1, note=69, velocity=0, time=48),\n",
      "    Message('note_on', channel=1, note=67, velocity=85, time=12),\n",
      "    Message('note_on', channel=1, note=67, velocity=0, time=168),\n",
      "    Message('note_on', channel=1, note=67, velocity=85, time=12),\n",
      "    Message('note_on', channel=1, note=67, velocity=0, time=168),\n",
      "    Message('note_on', channel=1, note=67, velocity=85, time=12),\n",
      "    Message('note_on', channel=1, note=67, velocity=0, time=168),\n",
      "    Message('note_on', channel=1, note=67, velocity=85, time=12),\n",
      "    Message('note_on', channel=1, note=67, velocity=0, time=168),\n",
      "    Message('note_on', channel=1, note=67, velocity=85, time=12),\n",
      "    Message('note_on', channel=1, note=67, velocity=0, time=48),\n",
      "    Message('note_on', channel=1, note=69, velocity=85, time=12),\n",
      "    Message('note_on', channel=1, note=69, velocity=0, time=48),\n",
      "    Message('note_on', channel=1, note=71, velocity=85, time=12),\n",
      "    Message('note_on', channel=1, note=71, velocity=0, time=48),\n",
      "    Message('note_on', channel=1, note=72, velocity=85, time=12),\n",
      "    Message('note_on', channel=1, note=72, velocity=0, time=48),\n",
      "    Message('note_on', channel=1, note=74, velocity=85, time=12),\n",
      "    Message('note_on', channel=1, note=74, velocity=0, time=48),\n",
      "    Message('note_on', channel=1, note=76, velocity=85, time=12),\n",
      "    Message('note_on', channel=1, note=76, velocity=0, time=48),\n",
      "    Message('note_on', channel=1, note=74, velocity=85, time=12),\n",
      "    Message('note_on', channel=1, note=74, velocity=0, time=48),\n",
      "    Message('note_on', channel=1, note=72, velocity=85, time=12),\n",
      "    Message('note_on', channel=1, note=72, velocity=0, time=48),\n",
      "    Message('note_on', channel=1, note=71, velocity=85, time=12),\n",
      "    Message('note_on', channel=1, note=71, velocity=0, time=48),\n",
      "    Message('note_on', channel=1, note=69, velocity=85, time=12),\n",
      "    Message('note_on', channel=1, note=69, velocity=0, time=48),\n",
      "    Message('note_on', channel=1, note=71, velocity=85, time=12),\n",
      "    Message('note_on', channel=1, note=71, velocity=0, time=48),\n",
      "    Message('note_on', channel=1, note=67, velocity=85, time=12),\n",
      "    Message('note_on', channel=1, note=67, velocity=0, time=48),\n",
      "    Message('note_on', channel=1, note=66, velocity=85, time=12),\n",
      "    Message('note_on', channel=1, note=66, velocity=0, time=48),\n",
      "    Message('note_on', channel=1, note=67, velocity=85, time=12),\n",
      "    Message('note_on', channel=1, note=67, velocity=0, time=48),\n",
      "    Message('note_on', channel=1, note=69, velocity=85, time=12),\n",
      "    Message('note_on', channel=1, note=69, velocity=0, time=48),\n",
      "    Message('note_on', channel=1, note=62, velocity=85, time=12),\n",
      "    Message('note_on', channel=1, note=62, velocity=0, time=48),\n",
      "    Message('note_on', channel=1, note=66, velocity=85, time=12),\n",
      "    Message('note_on', channel=1, note=66, velocity=0, time=48),\n",
      "    Message('note_on', channel=1, note=69, velocity=85, time=12),\n",
      "    Message('note_on', channel=1, note=69, velocity=0, time=48),\n",
      "    Message('note_on', channel=1, note=72, velocity=85, time=12),\n",
      "    Message('note_on', channel=1, note=72, velocity=0, time=48),\n",
      "    Message('note_on', channel=1, note=71, velocity=85, time=12),\n",
      "    Message('note_on', channel=1, note=71, velocity=0, time=48),\n",
      "    Message('note_on', channel=1, note=69, velocity=85, time=12),\n",
      "    Message('note_on', channel=1, note=69, velocity=0, time=48),\n",
      "    Message('note_on', channel=1, note=71, velocity=85, time=12),\n",
      "    Message('note_on', channel=1, note=71, velocity=0, time=48),\n",
      "    Message('note_on', channel=1, note=67, velocity=85, time=12),\n",
      "    Message('note_on', channel=1, note=67, velocity=0, time=48),\n",
      "    Message('note_on', channel=1, note=69, velocity=85, time=12),\n",
      "    Message('note_on', channel=1, note=69, velocity=0, time=48),\n",
      "    Message('note_on', channel=1, note=67, velocity=85, time=12),\n",
      "    Message('note_on', channel=1, note=67, velocity=0, time=168),\n",
      "    Message('note_on', channel=1, note=67, velocity=85, time=12),\n",
      "    Message('note_on', channel=1, note=67, velocity=0, time=168),\n",
      "    Message('note_on', channel=1, note=67, velocity=85, time=12),\n",
      "    Message('note_on', channel=1, note=67, velocity=0, time=168),\n",
      "    Message('note_on', channel=1, note=67, velocity=85, time=12),\n",
      "    Message('note_on', channel=1, note=67, velocity=0, time=168),\n",
      "    Message('note_on', channel=1, note=66, velocity=85, time=1812),\n",
      "    Message('note_on', channel=1, note=69, velocity=85, time=0),\n",
      "    Message('note_on', channel=1, note=62, velocity=85, time=0),\n",
      "    Message('note_on', channel=1, note=66, velocity=0, time=168),\n",
      "    Message('note_on', channel=1, note=69, velocity=0, time=0),\n",
      "    Message('note_on', channel=1, note=62, velocity=0, time=0),\n",
      "    Message('note_on', channel=1, note=67, velocity=85, time=12),\n",
      "    Message('note_on', channel=1, note=67, velocity=0, time=168),\n",
      "    Message('note_on', channel=1, note=60, velocity=85, time=192),\n",
      "    Message('note_on', channel=1, note=67, velocity=85, time=0),\n",
      "    Message('note_on', channel=1, note=64, velocity=85, time=0),\n",
      "    Message('note_on', channel=1, note=60, velocity=0, time=168),\n",
      "    Message('note_on', channel=1, note=67, velocity=0, time=0),\n",
      "    Message('note_on', channel=1, note=64, velocity=0, time=0),\n",
      "    Message('note_on', channel=1, note=62, velocity=85, time=12),\n",
      "    Message('note_on', channel=1, note=69, velocity=85, time=0),\n",
      "    Message('note_on', channel=1, note=62, velocity=0, time=168),\n",
      "    Message('note_on', channel=1, note=69, velocity=0, time=0),\n",
      "    Message('note_on', channel=1, note=64, velocity=85, time=2352),\n",
      "    Message('note_on', channel=1, note=67, velocity=85, time=0),\n",
      "    Message('note_on', channel=1, note=64, velocity=0, time=168),\n",
      "    Message('note_on', channel=1, note=67, velocity=0, time=0),\n",
      "    Message('note_on', channel=1, note=66, velocity=85, time=12),\n",
      "    Message('note_on', channel=1, note=71, velocity=85, time=0),\n",
      "    Message('note_on', channel=1, note=62, velocity=85, time=0),\n",
      "    Message('note_on', channel=1, note=66, velocity=0, time=168),\n",
      "    Message('note_on', channel=1, note=71, velocity=0, time=0),\n",
      "    Message('note_on', channel=1, note=62, velocity=0, time=0),\n",
      "    Message('note_on', channel=1, note=66, velocity=85, time=12),\n",
      "    Message('note_on', channel=1, note=69, velocity=85, time=0),\n",
      "    Message('note_on', channel=1, note=60, velocity=85, time=0),\n",
      "    Message('note_on', channel=1, note=66, velocity=0, time=168),\n",
      "    Message('note_on', channel=1, note=69, velocity=0, time=0),\n",
      "    Message('note_on', channel=1, note=60, velocity=0, time=0),\n",
      "    Message('note_on', channel=1, note=67, velocity=85, time=192),\n",
      "    Message('note_on', channel=1, note=67, velocity=0, time=168),\n",
      "    Message('note_on', channel=1, note=67, velocity=85, time=12),\n",
      "    Message('note_on', channel=1, note=67, velocity=0, time=168),\n",
      "    Message('note_on', channel=1, note=67, velocity=85, time=12),\n",
      "    Message('note_on', channel=1, note=67, velocity=0, time=168),\n",
      "    Message('note_on', channel=1, note=67, velocity=85, time=12),\n",
      "    Message('note_on', channel=1, note=67, velocity=0, time=168),\n",
      "    Message('note_on', channel=1, note=67, velocity=85, time=1452),\n",
      "    Message('note_on', channel=1, note=67, velocity=0, time=168),\n",
      "    Message('note_on', channel=1, note=67, velocity=85, time=12),\n",
      "    Message('note_on', channel=1, note=67, velocity=0, time=168),\n",
      "    Message('note_on', channel=1, note=67, velocity=85, time=12),\n",
      "    Message('note_on', channel=1, note=67, velocity=0, time=168),\n",
      "    Message('note_on', channel=1, note=67, velocity=85, time=12),\n",
      "    Message('note_on', channel=1, note=67, velocity=0, time=168),\n",
      "    Message('note_on', channel=1, note=66, velocity=85, time=1272),\n",
      "    Message('note_on', channel=1, note=62, velocity=85, time=0),\n",
      "    Message('note_on', channel=1, note=69, velocity=85, time=0),\n",
      "    Message('note_on', channel=1, note=66, velocity=0, time=168),\n",
      "    Message('note_on', channel=1, note=62, velocity=0, time=0),\n",
      "    Message('note_on', channel=1, note=69, velocity=0, time=0),\n",
      "    Message('note_on', channel=1, note=67, velocity=85, time=12),\n",
      "    Message('note_on', channel=1, note=67, velocity=0, time=168),\n",
      "    Message('note_on', channel=1, note=64, velocity=85, time=192),\n",
      "    Message('note_on', channel=1, note=60, velocity=85, time=0),\n",
      "    Message('note_on', channel=1, note=69, velocity=85, time=0),\n",
      "    Message('note_on', channel=1, note=64, velocity=0, time=168),\n",
      "    Message('note_on', channel=1, note=60, velocity=0, time=0),\n",
      "    Message('note_on', channel=1, note=69, velocity=0, time=0),\n",
      "    Message('note_on', channel=1, note=62, velocity=85, time=12),\n",
      "    Message('note_on', channel=1, note=69, velocity=85, time=0),\n",
      "    Message('note_on', channel=1, note=62, velocity=0, time=168),\n",
      "    Message('note_on', channel=1, note=69, velocity=0, time=0),\n",
      "    Message('note_on', channel=1, note=64, velocity=85, time=2352),\n",
      "    Message('note_on', channel=1, note=67, velocity=85, time=0),\n",
      "    Message('note_on', channel=1, note=64, velocity=0, time=168),\n",
      "    Message('note_on', channel=1, note=67, velocity=0, time=0),\n",
      "    Message('note_on', channel=1, note=66, velocity=85, time=12),\n",
      "    Message('note_on', channel=1, note=71, velocity=85, time=0),\n",
      "    Message('note_on', channel=1, note=62, velocity=85, time=0),\n",
      "    Message('note_on', channel=1, note=66, velocity=0, time=168),\n",
      "    Message('note_on', channel=1, note=71, velocity=0, time=0),\n",
      "    Message('note_on', channel=1, note=62, velocity=0, time=0),\n",
      "    Message('note_on', channel=1, note=66, velocity=85, time=12),\n",
      "    Message('note_on', channel=1, note=60, velocity=85, time=0),\n",
      "    Message('note_on', channel=1, note=69, velocity=85, time=0),\n",
      "    Message('note_on', channel=1, note=66, velocity=0, time=168),\n",
      "    Message('note_on', channel=1, note=60, velocity=0, time=0),\n",
      "    Message('note_on', channel=1, note=69, velocity=0, time=0),\n",
      "    Message('note_on', channel=1, note=67, velocity=85, time=192),\n",
      "    Message('note_on', channel=1, note=67, velocity=0, time=168),\n",
      "    Message('note_on', channel=1, note=67, velocity=85, time=12),\n",
      "    Message('note_on', channel=1, note=67, velocity=0, time=168),\n",
      "    Message('note_on', channel=1, note=67, velocity=85, time=12),\n",
      "    Message('note_on', channel=1, note=67, velocity=0, time=168),\n",
      "    Message('note_on', channel=1, note=67, velocity=85, time=12),\n",
      "    Message('note_on', channel=1, note=67, velocity=0, time=168),\n",
      "    Message('note_on', channel=1, note=67, velocity=85, time=1452),\n",
      "    Message('note_on', channel=1, note=67, velocity=0, time=168),\n",
      "    Message('note_on', channel=1, note=67, velocity=85, time=12),\n",
      "    Message('note_on', channel=1, note=67, velocity=0, time=168),\n",
      "    Message('note_on', channel=1, note=67, velocity=85, time=12),\n",
      "    Message('note_on', channel=1, note=67, velocity=0, time=168),\n",
      "    Message('note_on', channel=1, note=67, velocity=85, time=12),\n",
      "    Message('note_on', channel=1, note=67, velocity=0, time=168),\n",
      "    Message('note_on', channel=1, note=69, velocity=85, time=2352),\n",
      "    Message('note_on', channel=1, note=62, velocity=85, time=0),\n",
      "    Message('note_on', channel=1, note=69, velocity=0, time=336),\n",
      "    Message('note_on', channel=1, note=62, velocity=0, time=0),\n",
      "    Message('note_on', channel=1, note=69, velocity=85, time=564),\n",
      "    Message('note_on', channel=1, note=69, velocity=0, time=168),\n",
      "    Message('note_on', channel=1, note=69, velocity=85, time=12),\n",
      "    Message('note_on', channel=1, note=69, velocity=0, time=168),\n",
      "    Message('note_on', channel=1, note=69, velocity=85, time=12),\n",
      "    Message('note_on', channel=1, note=69, velocity=0, time=168),\n",
      "    Message('note_on', channel=1, note=69, velocity=85, time=192),\n",
      "    Message('note_on', channel=1, note=69, velocity=0, time=168),\n",
      "    Message('note_on', channel=1, note=66, velocity=85, time=12),\n",
      "    Message('note_on', channel=1, note=66, velocity=0, time=168),\n",
      "    Message('note_on', channel=1, note=67, velocity=85, time=732),\n",
      "    Message('note_on', channel=1, note=67, velocity=0, time=168),\n",
      "    Message('note_on', channel=1, note=69, velocity=85, time=12),\n",
      "    Message('note_on', channel=1, note=69, velocity=0, time=168),\n",
      "    Message('note_on', channel=1, note=65, velocity=85, time=192),\n",
      "    Message('note_on', channel=1, note=65, velocity=0, time=336),\n",
      "    Message('note_on', channel=1, note=62, velocity=85, time=3084),\n",
      "    Message('note_on', channel=1, note=62, velocity=0, time=168),\n",
      "    Message('note_on', channel=1, note=64, velocity=85, time=12),\n",
      "    Message('note_on', channel=1, note=64, velocity=0, time=168),\n",
      "    Message('note_on', channel=1, note=64, velocity=85, time=2172),\n",
      "    Message('note_on', channel=1, note=67, velocity=85, time=0),\n",
      "    Message('note_on', channel=1, note=64, velocity=0, time=168),\n",
      "    Message('note_on', channel=1, note=67, velocity=0, time=0),\n",
      "    Message('note_on', channel=1, note=67, velocity=85, time=2712),\n",
      "    Message('note_on', channel=1, note=67, velocity=0, time=168),\n",
      "    Message('note_on', channel=1, note=67, velocity=85, time=12),\n",
      "    Message('note_on', channel=1, note=67, velocity=0, time=168),\n",
      "    Message('note_on', channel=1, note=67, velocity=85, time=12),\n",
      "    Message('note_on', channel=1, note=67, velocity=0, time=168),\n",
      "    Message('note_on', channel=1, note=67, velocity=85, time=12),\n",
      "    Message('note_on', channel=1, note=67, velocity=0, time=168),\n",
      "    Message('note_on', channel=1, note=67, velocity=85, time=1452),\n",
      "    Message('note_on', channel=1, note=67, velocity=0, time=168),\n",
      "    Message('note_on', channel=1, note=67, velocity=85, time=12),\n",
      "    Message('note_on', channel=1, note=67, velocity=0, time=168),\n",
      "    Message('note_on', channel=1, note=67, velocity=85, time=12),\n",
      "    Message('note_on', channel=1, note=67, velocity=0, time=168),\n",
      "    Message('note_on', channel=1, note=67, velocity=85, time=12),\n",
      "    Message('note_on', channel=1, note=67, velocity=0, time=168),\n",
      "    MetaMessage('end_of_track', time=0)]),\n",
      "  MidiTrack([\n",
      "    MetaMessage('track_name', name='by J.S. Bach', time=0),\n",
      "    MetaMessage('instrument_name', name='Synth Brass 2', time=0),\n",
      "    MetaMessage('midi_port', port=0, time=0),\n",
      "    Message('control_change', channel=2, control=0, value=80, time=0),\n",
      "    Message('control_change', channel=2, control=32, value=0, time=0),\n",
      "    Message('program_change', channel=2, program=63, time=0),\n",
      "    Message('note_on', channel=2, note=43, velocity=84, time=0),\n",
      "    Message('note_on', channel=2, note=55, velocity=84, time=0),\n",
      "    Message('note_on', channel=2, note=43, velocity=0, time=168),\n",
      "    Message('note_on', channel=2, note=55, velocity=0, time=0),\n",
      "    Message('note_on', channel=2, note=50, velocity=84, time=12),\n",
      "    Message('note_on', channel=2, note=55, velocity=84, time=0),\n",
      "    Message('note_on', channel=2, note=50, velocity=0, time=168),\n",
      "    Message('note_on', channel=2, note=55, velocity=0, time=0),\n",
      "    Message('note_on', channel=2, note=52, velocity=84, time=12),\n",
      "    Message('note_on', channel=2, note=60, velocity=84, time=0),\n",
      "    Message('note_on', channel=2, note=52, velocity=0, time=168),\n",
      "    Message('note_on', channel=2, note=60, velocity=0, time=0),\n",
      "    Message('note_on', channel=2, note=47, velocity=84, time=12),\n",
      "    Message('note_on', channel=2, note=55, velocity=84, time=0),\n",
      "    Message('note_on', channel=2, note=47, velocity=0, time=168),\n",
      "    Message('note_on', channel=2, note=55, velocity=0, time=0),\n",
      "    Message('note_on', channel=2, note=52, velocity=84, time=12),\n",
      "    Message('note_on', channel=2, note=59, velocity=84, time=0),\n",
      "    Message('note_on', channel=2, note=52, velocity=0, time=168),\n",
      "    Message('note_on', channel=2, note=59, velocity=0, time=0),\n",
      "    Message('note_on', channel=2, note=59, velocity=84, time=12),\n",
      "    Message('note_on', channel=2, note=64, velocity=84, time=0),\n",
      "    Message('note_on', channel=2, note=59, velocity=0, time=168),\n",
      "    Message('note_on', channel=2, note=64, velocity=0, time=0),\n",
      "    Message('note_on', channel=2, note=64, velocity=84, time=12),\n",
      "    Message('note_on', channel=2, note=57, velocity=84, time=0),\n",
      "    Message('note_on', channel=2, note=64, velocity=0, time=168),\n",
      "    Message('note_on', channel=2, note=57, velocity=0, time=0),\n",
      "    Message('note_on', channel=2, note=67, velocity=84, time=12),\n",
      "    Message('note_on', channel=2, note=59, velocity=84, time=0),\n",
      "    Message('note_on', channel=2, note=67, velocity=0, time=168),\n",
      "    Message('note_on', channel=2, note=59, velocity=0, time=0),\n",
      "    Message('note_on', channel=2, note=67, velocity=84, time=12),\n",
      "    Message('note_on', channel=2, note=60, velocity=84, time=0),\n",
      "    Message('note_on', channel=2, note=67, velocity=0, time=168),\n",
      "    Message('note_on', channel=2, note=60, velocity=0, time=0),\n",
      "    Message('note_on', channel=2, note=52, velocity=84, time=12),\n",
      "    Message('note_on', channel=2, note=57, velocity=84, time=0),\n",
      "    Message('note_on', channel=2, note=52, velocity=0, time=336),\n",
      "    Message('note_on', channel=2, note=57, velocity=0, time=0),\n",
      "    Message('note_on', channel=2, note=54, velocity=84, time=24),\n",
      "    Message('note_on', channel=2, note=54, velocity=0, time=168),\n",
      "    Message('note_on', channel=2, note=43, velocity=84, time=12),\n",
      "    Message('note_on', channel=2, note=55, velocity=84, time=0),\n",
      "    Message('note_on', channel=2, note=43, velocity=0, time=168),\n",
      "    Message('note_on', channel=2, note=55, velocity=0, time=0),\n",
      "    Message('note_on', channel=2, note=55, velocity=84, time=12),\n",
      "    Message('note_on', channel=2, note=62, velocity=84, time=0),\n",
      "    Message('note_on', channel=2, note=55, velocity=0, time=168),\n",
      "    Message('note_on', channel=2, note=62, velocity=0, time=0),\n",
      "    Message('note_on', channel=2, note=60, velocity=84, time=12),\n",
      "    Message('note_on', channel=2, note=52, velocity=84, time=0),\n",
      "    Message('note_on', channel=2, note=60, velocity=0, time=168),\n",
      "    Message('note_on', channel=2, note=52, velocity=0, time=0),\n",
      "    Message('note_on', channel=2, note=47, velocity=84, time=12),\n",
      "    Message('note_on', channel=2, note=55, velocity=84, time=0),\n",
      "    Message('note_on', channel=2, note=47, velocity=0, time=168),\n",
      "    Message('note_on', channel=2, note=55, velocity=0, time=0),\n",
      "    Message('note_on', channel=2, note=52, velocity=84, time=12),\n",
      "    Message('note_on', channel=2, note=59, velocity=84, time=0),\n",
      "    Message('note_on', channel=2, note=52, velocity=0, time=168),\n",
      "    Message('note_on', channel=2, note=59, velocity=0, time=0),\n",
      "    Message('note_on', channel=2, note=59, velocity=84, time=12),\n",
      "    Message('note_on', channel=2, note=64, velocity=84, time=0),\n",
      "    Message('note_on', channel=2, note=59, velocity=0, time=168),\n",
      "    Message('note_on', channel=2, note=64, velocity=0, time=0),\n",
      "    Message('note_on', channel=2, note=52, velocity=84, time=12),\n",
      "    Message('note_on', channel=2, note=57, velocity=84, time=0),\n",
      "    Message('note_on', channel=2, note=52, velocity=0, time=336),\n",
      "    Message('note_on', channel=2, note=57, velocity=0, time=0),\n",
      "    Message('note_on', channel=2, note=50, velocity=84, time=24),\n",
      "    Message('note_on', channel=2, note=57, velocity=84, time=0),\n",
      "    Message('note_on', channel=2, note=60, velocity=84, time=0),\n",
      "    Message('note_on', channel=2, note=50, velocity=0, time=168),\n",
      "    Message('note_on', channel=2, note=57, velocity=0, time=0),\n",
      "    Message('note_on', channel=2, note=60, velocity=0, time=0),\n",
      "    Message('note_on', channel=2, note=59, velocity=84, time=12),\n",
      "    Message('note_on', channel=2, note=55, velocity=84, time=0),\n",
      "    Message('note_on', channel=2, note=62, velocity=84, time=0),\n",
      "    Message('note_on', channel=2, note=59, velocity=0, time=528),\n",
      "    Message('note_on', channel=2, note=55, velocity=0, time=0),\n",
      "    Message('note_on', channel=2, note=62, velocity=0, time=0),\n",
      "    Message('note_on', channel=2, note=43, velocity=84, time=12),\n",
      "    Message('note_on', channel=2, note=55, velocity=84, time=0),\n",
      "    Message('note_on', channel=2, note=43, velocity=0, time=168),\n",
      "    Message('note_on', channel=2, note=55, velocity=0, time=0),\n",
      "    Message('note_on', channel=2, note=42, velocity=84, time=12),\n",
      "    Message('note_on', channel=2, note=54, velocity=84, time=0),\n",
      "    Message('note_on', channel=2, note=42, velocity=0, time=168),\n",
      "    Message('note_on', channel=2, note=54, velocity=0, time=0),\n",
      "    Message('note_on', channel=2, note=40, velocity=84, time=12),\n",
      "    Message('note_on', channel=2, note=52, velocity=84, time=0),\n",
      "    Message('note_on', channel=2, note=40, velocity=0, time=168),\n",
      "    Message('note_on', channel=2, note=52, velocity=0, time=0),\n",
      "    Message('note_on', channel=2, note=54, velocity=84, time=12),\n",
      "    Message('note_on', channel=2, note=42, velocity=84, time=0),\n",
      "    Message('note_on', channel=2, note=54, velocity=0, time=168),\n",
      "    Message('note_on', channel=2, note=42, velocity=0, time=0),\n",
      "    Message('note_on', channel=2, note=40, velocity=84, time=12),\n",
      "    Message('note_on', channel=2, note=52, velocity=84, time=0),\n",
      "    Message('note_on', channel=2, note=40, velocity=0, time=168),\n",
      "    Message('note_on', channel=2, note=52, velocity=0, time=0),\n",
      "    Message('note_on', channel=2, note=50, velocity=84, time=12),\n",
      "    Message('note_on', channel=2, note=38, velocity=84, time=0),\n",
      "    Message('note_on', channel=2, note=50, velocity=0, time=168),\n",
      "    Message('note_on', channel=2, note=38, velocity=0, time=0),\n",
      "    Message('note_on', channel=2, note=52, velocity=84, time=12),\n",
      "    Message('note_on', channel=2, note=40, velocity=84, time=0),\n",
      "    Message('note_on', channel=2, note=52, velocity=0, time=168),\n",
      "    Message('note_on', channel=2, note=40, velocity=0, time=0),\n",
      "    Message('note_on', channel=2, note=42, velocity=84, time=12),\n",
      "    Message('note_on', channel=2, note=54, velocity=84, time=0),\n",
      "    Message('note_on', channel=2, note=42, velocity=0, time=168),\n",
      "    Message('note_on', channel=2, note=54, velocity=0, time=0),\n",
      "    Message('note_on', channel=2, note=55, velocity=84, time=12),\n",
      "    Message('note_on', channel=2, note=43, velocity=84, time=0),\n",
      "    Message('note_on', channel=2, note=55, velocity=0, time=168),\n",
      "    Message('note_on', channel=2, note=43, velocity=0, time=0),\n",
      "    Message('note_on', channel=2, note=38, velocity=84, time=12),\n",
      "    Message('note_on', channel=2, note=50, velocity=84, time=0),\n",
      "    Message('note_on', channel=2, note=38, velocity=0, time=528),\n",
      "    Message('note_on', channel=2, note=50, velocity=0, time=0),\n",
      "    Message('note_on', channel=2, note=50, velocity=84, time=12),\n",
      "    Message('note_on', channel=2, note=54, velocity=84, time=0),\n",
      "    Message('note_on', channel=2, note=50, velocity=0, time=528),\n",
      "    Message('note_on', channel=2, note=54, velocity=0, time=0),\n",
      "    Message('note_on', channel=2, note=43, velocity=84, time=12),\n",
      "    Message('note_on', channel=2, note=55, velocity=84, time=0),\n",
      "    Message('note_on', channel=2, note=43, velocity=0, time=168),\n",
      "    Message('note_on', channel=2, note=55, velocity=0, time=0),\n",
      "    Message('note_on', channel=2, note=42, velocity=84, time=12),\n",
      "    Message('note_on', channel=2, note=54, velocity=84, time=0),\n",
      "    Message('note_on', channel=2, note=42, velocity=0, time=168),\n",
      "    Message('note_on', channel=2, note=54, velocity=0, time=0),\n",
      "    Message('note_on', channel=2, note=52, velocity=84, time=12),\n",
      "    Message('note_on', channel=2, note=40, velocity=84, time=0),\n",
      "    Message('note_on', channel=2, note=52, velocity=0, time=168),\n",
      "    Message('note_on', channel=2, note=40, velocity=0, time=0),\n",
      "    Message('note_on', channel=2, note=59, velocity=84, time=12),\n",
      "    Message('note_on', channel=2, note=47, velocity=84, time=0),\n",
      "    Message('note_on', channel=2, note=59, velocity=0, time=168),\n",
      "    Message('note_on', channel=2, note=47, velocity=0, time=0),\n",
      "    Message('note_on', channel=2, note=47, velocity=84, time=12),\n",
      "    Message('note_on', channel=2, note=35, velocity=84, time=0),\n",
      "    Message('note_on', channel=2, note=47, velocity=0, time=168),\n",
      "    Message('note_on', channel=2, note=35, velocity=0, time=0),\n",
      "    Message('note_on', channel=2, note=52, velocity=84, time=12),\n",
      "    Message('note_on', channel=2, note=40, velocity=84, time=0),\n",
      "    Message('note_on', channel=2, note=52, velocity=0, time=168),\n",
      "    Message('note_on', channel=2, note=40, velocity=0, time=0),\n",
      "    Message('note_on', channel=2, note=48, velocity=84, time=12),\n",
      "    Message('note_on', channel=2, note=36, velocity=84, time=0),\n",
      "    Message('note_on', channel=2, note=48, velocity=0, time=168),\n",
      "    Message('note_on', channel=2, note=36, velocity=0, time=0),\n",
      "    Message('note_on', channel=2, note=38, velocity=84, time=12),\n",
      "    Message('note_on', channel=2, note=50, velocity=84, time=0),\n",
      "    Message('note_on', channel=2, note=38, velocity=0, time=336),\n",
      "    Message('note_on', channel=2, note=50, velocity=0, time=0),\n",
      "    Message('note_on', channel=2, note=43, velocity=84, time=24),\n",
      "    Message('note_on', channel=2, note=55, velocity=84, time=0),\n",
      "    Message('note_on', channel=2, note=43, velocity=0, time=168),\n",
      "    Message('note_on', channel=2, note=55, velocity=0, time=0),\n",
      "    Message('note_on', channel=2, note=55, velocity=84, time=12),\n",
      "    Message('note_on', channel=2, note=62, velocity=84, time=0),\n",
      "    Message('note_on', channel=2, note=55, velocity=0, time=168),\n",
      "    Message('note_on', channel=2, note=62, velocity=0, time=0),\n",
      "    Message('note_on', channel=2, note=52, velocity=84, time=12),\n",
      "    Message('note_on', channel=2, note=60, velocity=84, time=0),\n",
      "    Message('note_on', channel=2, note=52, velocity=0, time=168),\n",
      "    Message('note_on', channel=2, note=60, velocity=0, time=0),\n",
      "    Message('note_on', channel=2, note=47, velocity=84, time=12),\n",
      "    Message('note_on', channel=2, note=55, velocity=84, time=0),\n",
      "    Message('note_on', channel=2, note=47, velocity=0, time=168),\n",
      "    Message('note_on', channel=2, note=55, velocity=0, time=0),\n",
      "    Message('note_on', channel=2, note=52, velocity=84, time=12),\n",
      "    Message('note_on', channel=2, note=59, velocity=84, time=0),\n",
      "    Message('note_on', channel=2, note=52, velocity=0, time=168),\n",
      "    Message('note_on', channel=2, note=59, velocity=0, time=0),\n",
      "    Message('note_on', channel=2, note=59, velocity=84, time=12),\n",
      "    Message('note_on', channel=2, note=64, velocity=84, time=0),\n",
      "    Message('note_on', channel=2, note=59, velocity=0, time=168),\n",
      "    Message('note_on', channel=2, note=64, velocity=0, time=0),\n",
      "    Message('note_on', channel=2, note=57, velocity=84, time=12),\n",
      "    Message('note_on', channel=2, note=64, velocity=84, time=0),\n",
      "    Message('note_on', channel=2, note=57, velocity=0, time=168),\n",
      "    Message('note_on', channel=2, note=64, velocity=0, time=0),\n",
      "    Message('note_on', channel=2, note=67, velocity=84, time=12),\n",
      "    Message('note_on', channel=2, note=59, velocity=84, time=0),\n",
      "    Message('note_on', channel=2, note=67, velocity=0, time=168),\n",
      "    Message('note_on', channel=2, note=59, velocity=0, time=0),\n",
      "    Message('note_on', channel=2, note=60, velocity=84, time=12),\n",
      "    Message('note_on', channel=2, note=64, velocity=84, time=0),\n",
      "    Message('note_on', channel=2, note=60, velocity=0, time=168),\n",
      "    Message('note_on', channel=2, note=64, velocity=0, time=0),\n",
      "    Message('note_on', channel=2, note=50, velocity=84, time=12),\n",
      "    Message('note_on', channel=2, note=57, velocity=84, time=0),\n",
      "    Message('note_on', channel=2, note=50, velocity=0, time=336),\n",
      "    Message('note_on', channel=2, note=57, velocity=0, time=0),\n",
      "    Message('note_on', channel=2, note=54, velocity=84, time=24),\n",
      "    Message('note_on', channel=2, note=54, velocity=0, time=168),\n",
      "    Message('note_on', channel=2, note=43, velocity=84, time=12),\n",
      "    Message('note_on', channel=2, note=55, velocity=84, time=0),\n",
      "    Message('note_on', channel=2, note=43, velocity=0, time=168),\n",
      "    Message('note_on', channel=2, note=55, velocity=0, time=0),\n",
      "    Message('note_on', channel=2, note=62, velocity=84, time=12),\n",
      "    Message('note_on', channel=2, note=55, velocity=84, time=0),\n",
      "    Message('note_on', channel=2, note=62, velocity=0, time=168),\n",
      "    Message('note_on', channel=2, note=55, velocity=0, time=0),\n",
      "    Message('note_on', channel=2, note=52, velocity=84, time=12),\n",
      "    Message('note_on', channel=2, note=60, velocity=84, time=0),\n",
      "    Message('note_on', channel=2, note=52, velocity=0, time=168),\n",
      "    Message('note_on', channel=2, note=60, velocity=0, time=0),\n",
      "    Message('note_on', channel=2, note=47, velocity=84, time=12),\n",
      "    Message('note_on', channel=2, note=55, velocity=84, time=0),\n",
      "    Message('note_on', channel=2, note=47, velocity=0, time=168),\n",
      "    Message('note_on', channel=2, note=55, velocity=0, time=0),\n",
      "    Message('note_on', channel=2, note=59, velocity=84, time=12),\n",
      "    Message('note_on', channel=2, note=52, velocity=84, time=0),\n",
      "    Message('note_on', channel=2, note=59, velocity=0, time=168),\n",
      "    Message('note_on', channel=2, note=52, velocity=0, time=0),\n",
      "    Message('note_on', channel=2, note=59, velocity=84, time=12),\n",
      "    Message('note_on', channel=2, note=64, velocity=84, time=0),\n",
      "    Message('note_on', channel=2, note=59, velocity=0, time=168),\n",
      "    Message('note_on', channel=2, note=64, velocity=0, time=0),\n",
      "    Message('note_on', channel=2, note=48, velocity=84, time=12),\n",
      "    Message('note_on', channel=2, note=57, velocity=84, time=0),\n",
      "    Message('note_on', channel=2, note=48, velocity=0, time=336),\n",
      "    Message('note_on', channel=2, note=57, velocity=0, time=0),\n",
      "    Message('note_on', channel=2, note=52, velocity=84, time=24),\n",
      "    Message('note_on', channel=2, note=57, velocity=84, time=0),\n",
      "    Message('note_on', channel=2, note=60, velocity=84, time=0),\n",
      "    Message('note_on', channel=2, note=52, velocity=0, time=168),\n",
      "    Message('note_on', channel=2, note=57, velocity=0, time=0),\n",
      "    Message('note_on', channel=2, note=60, velocity=0, time=0),\n",
      "    Message('note_on', channel=2, note=43, velocity=84, time=12),\n",
      "    Message('note_on', channel=2, note=55, velocity=84, time=0),\n",
      "    Message('note_on', channel=2, note=43, velocity=0, time=168),\n",
      "    Message('note_on', channel=2, note=55, velocity=0, time=0),\n",
      "    Message('note_on', channel=2, note=54, velocity=84, time=12),\n",
      "    Message('note_on', channel=2, note=42, velocity=84, time=0),\n",
      "    Message('note_on', channel=2, note=54, velocity=0, time=168),\n",
      "    Message('note_on', channel=2, note=42, velocity=0, time=0),\n",
      "    Message('note_on', channel=2, note=52, velocity=84, time=12),\n",
      "    Message('note_on', channel=2, note=40, velocity=84, time=0),\n",
      "    Message('note_on', channel=2, note=52, velocity=0, time=168),\n",
      "    Message('note_on', channel=2, note=40, velocity=0, time=0),\n",
      "    Message('note_on', channel=2, note=42, velocity=84, time=12),\n",
      "    Message('note_on', channel=2, note=54, velocity=84, time=0),\n",
      "    Message('note_on', channel=2, note=42, velocity=0, time=168),\n",
      "    Message('note_on', channel=2, note=54, velocity=0, time=0),\n",
      "    Message('note_on', channel=2, note=40, velocity=84, time=12),\n",
      "    Message('note_on', channel=2, note=52, velocity=84, time=0),\n",
      "    Message('note_on', channel=2, note=40, velocity=0, time=168),\n",
      "    Message('note_on', channel=2, note=52, velocity=0, time=0),\n",
      "    Message('note_on', channel=2, note=38, velocity=84, time=12),\n",
      "    Message('note_on', channel=2, note=50, velocity=84, time=0),\n",
      "    Message('note_on', channel=2, note=38, velocity=0, time=168),\n",
      "    Message('note_on', channel=2, note=50, velocity=0, time=0),\n",
      "    Message('note_on', channel=2, note=40, velocity=84, time=12),\n",
      "    Message('note_on', channel=2, note=52, velocity=84, time=0),\n",
      "    Message('note_on', channel=2, note=40, velocity=0, time=168),\n",
      "    Message('note_on', channel=2, note=52, velocity=0, time=0),\n",
      "    Message('note_on', channel=2, note=42, velocity=84, time=12),\n",
      "    Message('note_on', channel=2, note=54, velocity=84, time=0),\n",
      "    Message('note_on', channel=2, note=42, velocity=0, time=168),\n",
      "    Message('note_on', channel=2, note=54, velocity=0, time=0),\n",
      "    Message('note_on', channel=2, note=43, velocity=84, time=12),\n",
      "    Message('note_on', channel=2, note=55, velocity=84, time=0),\n",
      "    Message('note_on', channel=2, note=43, velocity=0, time=168),\n",
      "    Message('note_on', channel=2, note=55, velocity=0, time=0),\n",
      "    Message('note_on', channel=2, note=50, velocity=84, time=12),\n",
      "    Message('note_on', channel=2, note=38, velocity=84, time=0),\n",
      "    Message('note_on', channel=2, note=50, velocity=0, time=528),\n",
      "    Message('note_on', channel=2, note=38, velocity=0, time=0),\n",
      "    Message('note_on', channel=2, note=50, velocity=84, time=12),\n",
      "    Message('note_on', channel=2, note=54, velocity=84, time=0),\n",
      "    Message('note_on', channel=2, note=50, velocity=0, time=528),\n",
      "    Message('note_on', channel=2, note=54, velocity=0, time=0),\n",
      "    Message('note_on', channel=2, note=43, velocity=84, time=12),\n",
      "    Message('note_on', channel=2, note=55, velocity=84, time=0),\n",
      "    Message('note_on', channel=2, note=43, velocity=0, time=168),\n",
      "    Message('note_on', channel=2, note=55, velocity=0, time=0),\n",
      "    Message('note_on', channel=2, note=42, velocity=84, time=12),\n",
      "    Message('note_on', channel=2, note=54, velocity=84, time=0),\n",
      "    Message('note_on', channel=2, note=42, velocity=0, time=168),\n",
      "    Message('note_on', channel=2, note=54, velocity=0, time=0),\n",
      "    Message('note_on', channel=2, note=40, velocity=84, time=12),\n",
      "    Message('note_on', channel=2, note=52, velocity=84, time=0),\n",
      "    Message('note_on', channel=2, note=40, velocity=0, time=168),\n",
      "    Message('note_on', channel=2, note=52, velocity=0, time=0),\n",
      "    Message('note_on', channel=2, note=47, velocity=84, time=12),\n",
      "    Message('note_on', channel=2, note=59, velocity=84, time=0),\n",
      "    Message('note_on', channel=2, note=47, velocity=0, time=168),\n",
      "    Message('note_on', channel=2, note=59, velocity=0, time=0),\n",
      "    Message('note_on', channel=2, note=47, velocity=84, time=12),\n",
      "    Message('note_on', channel=2, note=35, velocity=84, time=0),\n",
      "    Message('note_on', channel=2, note=47, velocity=0, time=168),\n",
      "    Message('note_on', channel=2, note=35, velocity=0, time=0),\n",
      "    Message('note_on', channel=2, note=52, velocity=84, time=12),\n",
      "    Message('note_on', channel=2, note=40, velocity=84, time=0),\n",
      "    Message('note_on', channel=2, note=52, velocity=0, time=168),\n",
      "    Message('note_on', channel=2, note=40, velocity=0, time=0),\n",
      "    Message('note_on', channel=2, note=48, velocity=84, time=12),\n",
      "    Message('note_on', channel=2, note=36, velocity=84, time=0),\n",
      "    Message('note_on', channel=2, note=48, velocity=0, time=168),\n",
      "    Message('note_on', channel=2, note=36, velocity=0, time=0),\n",
      "    Message('note_on', channel=2, note=50, velocity=84, time=12),\n",
      "    Message('note_on', channel=2, note=38, velocity=84, time=0),\n",
      "    Message('note_on', channel=2, note=50, velocity=0, time=336),\n",
      "    Message('note_on', channel=2, note=38, velocity=0, time=0),\n",
      "    Message('note_on', channel=2, note=43, velocity=84, time=24),\n",
      "    Message('note_on', channel=2, note=55, velocity=84, time=0),\n",
      "    Message('note_on', channel=2, note=43, velocity=0, time=168),\n",
      "    Message('note_on', channel=2, note=55, velocity=0, time=0),\n",
      "    Message('note_on', channel=2, note=55, velocity=84, time=12),\n",
      "    Message('note_on', channel=2, note=62, velocity=84, time=0),\n",
      "    Message('note_on', channel=2, note=55, velocity=0, time=168),\n",
      "    Message('note_on', channel=2, note=62, velocity=0, time=0),\n",
      "    Message('note_on', channel=2, note=60, velocity=84, time=12),\n",
      "    Message('note_on', channel=2, note=52, velocity=84, time=0),\n",
      "    Message('note_on', channel=2, note=60, velocity=0, time=168),\n",
      "    Message('note_on', channel=2, note=52, velocity=0, time=0),\n",
      "    Message('note_on', channel=2, note=55, velocity=84, time=12),\n",
      "    Message('note_on', channel=2, note=47, velocity=84, time=0),\n",
      "    Message('note_on', channel=2, note=55, velocity=0, time=168),\n",
      "    Message('note_on', channel=2, note=47, velocity=0, time=0),\n",
      "    Message('note_on', channel=2, note=52, velocity=84, time=12),\n",
      "    Message('note_on', channel=2, note=59, velocity=84, time=0),\n",
      "    Message('note_on', channel=2, note=52, velocity=0, time=168),\n",
      "    Message('note_on', channel=2, note=59, velocity=0, time=0),\n",
      "    Message('note_on', channel=2, note=59, velocity=84, time=12),\n",
      "    Message('note_on', channel=2, note=64, velocity=84, time=0),\n",
      "    Message('note_on', channel=2, note=59, velocity=0, time=168),\n",
      "    Message('note_on', channel=2, note=64, velocity=0, time=0),\n",
      "    Message('note_on', channel=2, note=57, velocity=84, time=12),\n",
      "    Message('note_on', channel=2, note=64, velocity=84, time=0),\n",
      "    Message('note_on', channel=2, note=57, velocity=0, time=168),\n",
      "    Message('note_on', channel=2, note=64, velocity=0, time=0),\n",
      "    Message('note_on', channel=2, note=59, velocity=84, time=12),\n",
      "    Message('note_on', channel=2, note=67, velocity=84, time=0),\n",
      "    Message('note_on', channel=2, note=59, velocity=0, time=168),\n",
      "    Message('note_on', channel=2, note=67, velocity=0, time=0),\n",
      "    Message('note_on', channel=2, note=67, velocity=84, time=12),\n",
      "    Message('note_on', channel=2, note=60, velocity=84, time=0),\n",
      "    Message('note_on', channel=2, note=67, velocity=0, time=168),\n",
      "    Message('note_on', channel=2, note=60, velocity=0, time=0),\n",
      "    Message('note_on', channel=2, note=57, velocity=84, time=12),\n",
      "    Message('note_on', channel=2, note=50, velocity=84, time=0),\n",
      "    Message('note_on', channel=2, note=57, velocity=0, time=336),\n",
      "    Message('note_on', channel=2, note=50, velocity=0, time=0),\n",
      "    Message('note_on', channel=2, note=54, velocity=84, time=24),\n",
      "    Message('note_on', channel=2, note=54, velocity=0, time=168),\n",
      "    Message('note_on', channel=2, note=43, velocity=84, time=12),\n",
      "    Message('note_on', channel=2, note=55, velocity=84, time=0),\n",
      "    Message('note_on', channel=2, note=43, velocity=0, time=168),\n",
      "    Message('note_on', channel=2, note=55, velocity=0, time=0),\n",
      "    Message('note_on', channel=2, note=55, velocity=84, time=12),\n",
      "    Message('note_on', channel=2, note=62, velocity=84, time=0),\n",
      "    Message('note_on', channel=2, note=55, velocity=0, time=168),\n",
      "    Message('note_on', channel=2, note=62, velocity=0, time=0),\n",
      "    Message('note_on', channel=2, note=60, velocity=84, time=12),\n",
      "    Message('note_on', channel=2, note=52, velocity=84, time=0),\n",
      "    Message('note_on', channel=2, note=60, velocity=0, time=168),\n",
      "    Message('note_on', channel=2, note=52, velocity=0, time=0),\n",
      "    Message('note_on', channel=2, note=55, velocity=84, time=12),\n",
      "    Message('note_on', channel=2, note=47, velocity=84, time=0),\n",
      "    Message('note_on', channel=2, note=55, velocity=0, time=168),\n",
      "    Message('note_on', channel=2, note=47, velocity=0, time=0),\n",
      "    Message('note_on', channel=2, note=52, velocity=84, time=12),\n",
      "    Message('note_on', channel=2, note=59, velocity=84, time=0),\n",
      "    Message('note_on', channel=2, note=52, velocity=0, time=168),\n",
      "    Message('note_on', channel=2, note=59, velocity=0, time=0),\n",
      "    Message('note_on', channel=2, note=64, velocity=84, time=12),\n",
      "    Message('note_on', channel=2, note=59, velocity=84, time=0),\n",
      "    Message('note_on', channel=2, note=64, velocity=0, time=168),\n",
      "    Message('note_on', channel=2, note=59, velocity=0, time=0),\n",
      "    Message('note_on', channel=2, note=48, velocity=84, time=12),\n",
      "    Message('note_on', channel=2, note=57, velocity=84, time=0),\n",
      "    Message('note_on', channel=2, note=48, velocity=0, time=336),\n",
      "    Message('note_on', channel=2, note=57, velocity=0, time=0),\n",
      "    Message('note_on', channel=2, note=50, velocity=84, time=24),\n",
      "    Message('note_on', channel=2, note=57, velocity=84, time=0),\n",
      "    Message('note_on', channel=2, note=60, velocity=84, time=0),\n",
      "    Message('note_on', channel=2, note=50, velocity=0, time=168),\n",
      "    Message('note_on', channel=2, note=57, velocity=0, time=0),\n",
      "    Message('note_on', channel=2, note=60, velocity=0, time=0),\n",
      "    Message('note_on', channel=2, note=59, velocity=84, time=12),\n",
      "    Message('note_on', channel=2, note=55, velocity=84, time=0),\n",
      "    Message('note_on', channel=2, note=62, velocity=84, time=0),\n",
      "    Message('note_on', channel=2, note=59, velocity=0, time=336),\n",
      "    Message('note_on', channel=2, note=55, velocity=0, time=0),\n",
      "    Message('note_on', channel=2, note=62, velocity=0, time=0),\n",
      "    Message('note_on', channel=2, note=55, velocity=84, time=24),\n",
      "    Message('note_on', channel=2, note=55, velocity=0, time=48),\n",
      "    Message('note_on', channel=2, note=59, velocity=84, time=12),\n",
      "    Message('note_on', channel=2, note=59, velocity=0, time=48),\n",
      "    Message('note_on', channel=2, note=61, velocity=84, time=12),\n",
      "    Message('note_on', channel=2, note=61, velocity=0, time=48),\n",
      "    Message('note_on', channel=2, note=62, velocity=84, time=12),\n",
      "    Message('note_on', channel=2, note=62, velocity=0, time=168),\n",
      "    Message('note_on', channel=2, note=60, velocity=84, time=12),\n",
      "    Message('note_on', channel=2, note=60, velocity=0, time=168),\n",
      "    Message('note_on', channel=2, note=59, velocity=84, time=12),\n",
      "    Message('note_on', channel=2, note=59, velocity=0, time=168),\n",
      "    Message('note_on', channel=2, note=57, velocity=84, time=12),\n",
      "    Message('note_on', channel=2, note=57, velocity=0, time=168),\n",
      "    Message('note_on', channel=2, note=57, velocity=84, time=12),\n",
      "    Message('note_on', channel=2, note=57, velocity=0, time=64),\n",
      "    Message('note_on', channel=2, note=55, velocity=84, time=16),\n",
      "    Message('note_on', channel=2, note=55, velocity=0, time=64),\n",
      "    Message('note_on', channel=2, note=53, velocity=84, time=16),\n",
      "    Message('note_on', channel=2, note=53, velocity=0, time=64),\n",
      "    Message('note_on', channel=2, note=52, velocity=84, time=16),\n",
      "    Message('note_on', channel=2, note=52, velocity=0, time=64),\n",
      "    Message('note_on', channel=2, note=53, velocity=84, time=76),\n",
      "    Message('note_on', channel=2, note=53, velocity=0, time=168),\n",
      "    Message('note_on', channel=2, note=47, velocity=84, time=12),\n",
      "    Message('note_on', channel=2, note=47, velocity=0, time=168),\n",
      "    Message('note_on', channel=2, note=50, velocity=84, time=12),\n",
      "    Message('note_on', channel=2, note=62, velocity=84, time=0),\n",
      "    Message('note_on', channel=2, note=50, velocity=0, time=168),\n",
      "    Message('note_on', channel=2, note=62, velocity=0, time=0),\n",
      "    Message('note_on', channel=2, note=60, velocity=84, time=12),\n",
      "    Message('note_on', channel=2, note=57, velocity=84, time=0),\n",
      "    Message('note_on', channel=2, note=60, velocity=0, time=168),\n",
      "    Message('note_on', channel=2, note=57, velocity=0, time=0),\n",
      "    Message('note_on', channel=2, note=60, velocity=84, time=12),\n",
      "    Message('note_on', channel=2, note=64, velocity=84, time=0),\n",
      "    Message('note_on', channel=2, note=57, velocity=84, time=0),\n",
      "    Message('note_on', channel=2, note=60, velocity=0, time=168),\n",
      "    Message('note_on', channel=2, note=64, velocity=0, time=0),\n",
      "    Message('note_on', channel=2, note=57, velocity=0, time=0),\n",
      "    Message('note_on', channel=2, note=62, velocity=84, time=12),\n",
      "    Message('note_on', channel=2, note=53, velocity=84, time=0),\n",
      "    Message('note_on', channel=2, note=62, velocity=0, time=168),\n",
      "    Message('note_on', channel=2, note=53, velocity=0, time=0),\n",
      "    Message('note_on', channel=2, note=57, velocity=84, time=12),\n",
      "    Message('note_on', channel=2, note=48, velocity=84, time=0),\n",
      "    Message('note_on', channel=2, note=57, velocity=0, time=168),\n",
      "    Message('note_on', channel=2, note=48, velocity=0, time=0),\n",
      "    Message('note_on', channel=2, note=60, velocity=84, time=12),\n",
      "    Message('note_on', channel=2, note=53, velocity=84, time=0),\n",
      "    Message('note_on', channel=2, note=60, velocity=0, time=168),\n",
      "    Message('note_on', channel=2, note=53, velocity=0, time=0),\n",
      "    Message('note_on', channel=2, note=60, velocity=84, time=12),\n",
      "    Message('note_on', channel=2, note=52, velocity=84, time=0),\n",
      "    Message('note_on', channel=2, note=60, velocity=0, time=168),\n",
      "    Message('note_on', channel=2, note=52, velocity=0, time=0),\n",
      "    Message('note_on', channel=2, note=50, velocity=84, time=12),\n",
      "    Message('note_on', channel=2, note=50, velocity=0, time=168),\n",
      "    Message('note_on', channel=2, note=51, velocity=84, time=12),\n",
      "    Message('note_on', channel=2, note=51, velocity=0, time=168),\n",
      "    Message('note_on', channel=2, note=52, velocity=84, time=12),\n",
      "    Message('note_on', channel=2, note=52, velocity=0, time=168),\n",
      "    Message('note_on', channel=2, note=45, velocity=84, time=12),\n",
      "    Message('note_on', channel=2, note=45, velocity=0, time=168),\n",
      "    Message('note_on', channel=2, note=57, velocity=84, time=12),\n",
      "    Message('note_on', channel=2, note=57, velocity=0, time=168),\n",
      "    Message('note_on', channel=2, note=59, velocity=84, time=12),\n",
      "    Message('note_on', channel=2, note=47, velocity=84, time=0),\n",
      "    Message('note_on', channel=2, note=59, velocity=0, time=168),\n",
      "    Message('note_on', channel=2, note=47, velocity=0, time=0),\n",
      "    Message('note_on', channel=2, note=60, velocity=84, time=12),\n",
      "    Message('note_on', channel=2, note=48, velocity=84, time=0),\n",
      "    Message('note_on', channel=2, note=60, velocity=0, time=336),\n",
      "    Message('note_on', channel=2, note=48, velocity=0, time=0),\n",
      "    Message('note_on', channel=2, note=60, velocity=84, time=24),\n",
      "    Message('note_on', channel=2, note=52, velocity=84, time=0),\n",
      "    Message('note_on', channel=2, note=60, velocity=0, time=168),\n",
      "    Message('note_on', channel=2, note=52, velocity=0, time=0),\n",
      "    Message('note_on', channel=2, note=53, velocity=84, time=12),\n",
      "    Message('note_on', channel=2, note=53, velocity=0, time=168),\n",
      "    Message('note_on', channel=2, note=50, velocity=84, time=12),\n",
      "    Message('note_on', channel=2, note=50, velocity=0, time=168),\n",
      "    Message('note_on', channel=2, note=55, velocity=84, time=12),\n",
      "    Message('note_on', channel=2, note=43, velocity=84, time=0),\n",
      "    Message('note_on', channel=2, note=55, velocity=0, time=168),\n",
      "    Message('note_on', channel=2, note=43, velocity=0, time=0),\n",
      "    Message('note_on', channel=2, note=48, velocity=84, time=12),\n",
      "    Message('note_on', channel=2, note=55, velocity=84, time=0),\n",
      "    Message('note_on', channel=2, note=48, velocity=0, time=168),\n",
      "    Message('note_on', channel=2, note=55, velocity=0, time=0),\n",
      "    Message('note_on', channel=2, note=52, velocity=84, time=12),\n",
      "    Message('note_on', channel=2, note=52, velocity=0, time=168),\n",
      "    Message('note_on', channel=2, note=60, velocity=84, time=12),\n",
      "    Message('note_on', channel=2, note=60, velocity=0, time=168),\n",
      "    Message('note_on', channel=2, note=60, velocity=84, time=12),\n",
      "    Message('note_on', channel=2, note=53, velocity=84, time=0),\n",
      "    Message('note_on', channel=2, note=60, velocity=0, time=336),\n",
      "    Message('note_on', channel=2, note=53, velocity=0, time=0),\n",
      "    Message('note_on', channel=2, note=55, velocity=84, time=24),\n",
      "    Message('note_on', channel=2, note=47, velocity=84, time=0),\n",
      "    Message('note_on', channel=2, note=55, velocity=0, time=168),\n",
      "    Message('note_on', channel=2, note=47, velocity=0, time=0),\n",
      "    Message('note_on', channel=2, note=55, velocity=84, time=12),\n",
      "    Message('note_on', channel=2, note=48, velocity=84, time=0),\n",
      "    Message('note_on', channel=2, note=55, velocity=0, time=336),\n",
      "    Message('note_on', channel=2, note=48, velocity=0, time=0),\n",
      "    Message('note_on', channel=2, note=59, velocity=84, time=24),\n",
      "    Message('note_on', channel=2, note=59, velocity=0, time=168),\n",
      "    Message('note_on', channel=2, note=62, velocity=84, time=12),\n",
      "    Message('note_on', channel=2, note=55, velocity=84, time=0),\n",
      "    Message('note_on', channel=2, note=62, velocity=0, time=168),\n",
      "    Message('note_on', channel=2, note=55, velocity=0, time=0),\n",
      "    Message('note_on', channel=2, note=43, velocity=84, time=12),\n",
      "    Message('note_on', channel=2, note=43, velocity=0, time=168),\n",
      "    Message('note_on', channel=2, note=52, velocity=84, time=12),\n",
      "    Message('note_on', channel=2, note=40, velocity=84, time=0),\n",
      "    Message('note_on', channel=2, note=52, velocity=0, time=168),\n",
      "    Message('note_on', channel=2, note=40, velocity=0, time=0),\n",
      "    Message('note_on', channel=2, note=47, velocity=84, time=12),\n",
      "    Message('note_on', channel=2, note=59, velocity=84, time=0),\n",
      "    Message('note_on', channel=2, note=47, velocity=0, time=168),\n",
      "    Message('note_on', channel=2, note=59, velocity=0, time=0),\n",
      "    Message('note_on', channel=2, note=40, velocity=84, time=12),\n",
      "    Message('note_on', channel=2, note=52, velocity=84, time=0),\n",
      "    Message('note_on', channel=2, note=40, velocity=0, time=168),\n",
      "    Message('note_on', channel=2, note=52, velocity=0, time=0),\n",
      "    Message('note_on', channel=2, note=52, velocity=84, time=12),\n",
      "    Message('note_on', channel=2, note=59, velocity=84, time=0),\n",
      "    Message('note_on', channel=2, note=52, velocity=0, time=168),\n",
      "    Message('note_on', channel=2, note=59, velocity=0, time=0),\n",
      "    Message('note_on', channel=2, note=42, velocity=84, time=12),\n",
      "    Message('note_on', channel=2, note=54, velocity=84, time=0),\n",
      "    Message('note_on', channel=2, note=42, velocity=0, time=168),\n",
      "    Message('note_on', channel=2, note=54, velocity=0, time=0),\n",
      "    Message('note_on', channel=2, note=55, velocity=84, time=12),\n",
      "    Message('note_on', channel=2, note=47, velocity=84, time=0),\n",
      "    Message('note_on', channel=2, note=55, velocity=0, time=168),\n",
      "    Message('note_on', channel=2, note=47, velocity=0, time=0),\n",
      "    Message('note_on', channel=2, note=48, velocity=84, time=12),\n",
      "    Message('note_on', channel=2, note=48, velocity=0, time=168),\n",
      "    Message('note_on', channel=2, note=50, velocity=84, time=12),\n",
      "    Message('note_on', channel=2, note=38, velocity=84, time=0),\n",
      "    Message('note_on', channel=2, note=50, velocity=0, time=528),\n",
      "    Message('note_on', channel=2, note=38, velocity=0, time=0),\n",
      "    Message('note_on', channel=2, note=54, velocity=84, time=12),\n",
      "    Message('note_on', channel=2, note=50, velocity=84, time=0),\n",
      "    Message('note_on', channel=2, note=54, velocity=0, time=528),\n",
      "    Message('note_on', channel=2, note=50, velocity=0, time=0),\n",
      "    Message('note_on', channel=2, note=43, velocity=84, time=12),\n",
      "    Message('note_on', channel=2, note=55, velocity=84, time=0),\n",
      "    Message('note_on', channel=2, note=43, velocity=0, time=168),\n",
      "    Message('note_on', channel=2, note=55, velocity=0, time=0),\n",
      "    Message('note_on', channel=2, note=42, velocity=84, time=12),\n",
      "    Message('note_on', channel=2, note=54, velocity=84, time=0),\n",
      "    Message('note_on', channel=2, note=42, velocity=0, time=168),\n",
      "    Message('note_on', channel=2, note=54, velocity=0, time=0),\n",
      "    Message('note_on', channel=2, note=40, velocity=84, time=12),\n",
      "    Message('note_on', channel=2, note=52, velocity=84, time=0),\n",
      "    Message('note_on', channel=2, note=40, velocity=0, time=168),\n",
      "    Message('note_on', channel=2, note=52, velocity=0, time=0),\n",
      "    Message('note_on', channel=2, note=55, velocity=84, time=12),\n",
      "    Message('note_on', channel=2, note=47, velocity=84, time=0),\n",
      "    Message('note_on', channel=2, note=55, velocity=0, time=168),\n",
      "    Message('note_on', channel=2, note=47, velocity=0, time=0),\n",
      "    Message('note_on', channel=2, note=47, velocity=84, time=12),\n",
      "    Message('note_on', channel=2, note=35, velocity=84, time=0),\n",
      "    Message('note_on', channel=2, note=47, velocity=0, time=168),\n",
      "    Message('note_on', channel=2, note=35, velocity=0, time=0),\n",
      "    Message('note_on', channel=2, note=52, velocity=84, time=12),\n",
      "    Message('note_on', channel=2, note=52, velocity=0, time=168),\n",
      "    Message('note_on', channel=2, note=48, velocity=84, time=12),\n",
      "    Message('note_on', channel=2, note=36, velocity=84, time=0),\n",
      "    Message('note_on', channel=2, note=48, velocity=0, time=168),\n",
      "    Message('note_on', channel=2, note=36, velocity=0, time=0),\n",
      "    Message('note_on', channel=2, note=38, velocity=84, time=12),\n",
      "    Message('note_on', channel=2, note=50, velocity=84, time=0),\n",
      "    Message('note_on', channel=2, note=38, velocity=0, time=336),\n",
      "    Message('note_on', channel=2, note=50, velocity=0, time=0),\n",
      "    Message('note_on', channel=2, note=55, velocity=84, time=24),\n",
      "    Message('note_on', channel=2, note=43, velocity=84, time=0),\n",
      "    Message('note_on', channel=2, note=55, velocity=0, time=168),\n",
      "    Message('note_on', channel=2, note=43, velocity=0, time=0),\n",
      "    Message('note_on', channel=2, note=59, velocity=84, time=12),\n",
      "    Message('note_on', channel=2, note=59, velocity=0, time=168),\n",
      "    Message('note_on', channel=2, note=50, velocity=84, time=12),\n",
      "    Message('note_on', channel=2, note=50, velocity=0, time=168),\n",
      "    Message('note_on', channel=2, note=55, velocity=84, time=12),\n",
      "    Message('note_on', channel=2, note=59, velocity=84, time=0),\n",
      "    Message('note_on', channel=2, note=55, velocity=0, time=336),\n",
      "    Message('note_on', channel=2, note=59, velocity=0, time=0),\n",
      "    Message('note_on', channel=2, note=60, velocity=84, time=24),\n",
      "    Message('note_on', channel=2, note=55, velocity=84, time=0),\n",
      "    Message('note_on', channel=2, note=60, velocity=0, time=168),\n",
      "    Message('note_on', channel=2, note=55, velocity=0, time=0),\n",
      "    Message('note_on', channel=2, note=57, velocity=84, time=12),\n",
      "    Message('note_on', channel=2, note=55, velocity=84, time=0),\n",
      "    Message('note_on', channel=2, note=57, velocity=0, time=168),\n",
      "    Message('note_on', channel=2, note=55, velocity=0, time=0),\n",
      "    Message('note_on', channel=2, note=59, velocity=84, time=12),\n",
      "    Message('note_on', channel=2, note=59, velocity=0, time=168),\n",
      "    Message('note_on', channel=2, note=62, velocity=84, time=12),\n",
      "    Message('note_on', channel=2, note=62, velocity=0, time=168),\n",
      "    Message('note_on', channel=2, note=43, velocity=84, time=12),\n",
      "    Message('note_on', channel=2, note=43, velocity=0, time=336),\n",
      "    Message('note_on', channel=2, note=43, velocity=84, time=24),\n",
      "    Message('note_on', channel=2, note=54, velocity=84, time=0),\n",
      "    Message('note_on', channel=2, note=43, velocity=0, time=168),\n",
      "    Message('note_on', channel=2, note=54, velocity=0, time=0),\n",
      "    Message('note_on', channel=2, note=55, velocity=84, time=12),\n",
      "    Message('note_on', channel=2, note=43, velocity=84, time=0),\n",
      "    Message('note_on', channel=2, note=55, velocity=0, time=168),\n",
      "    Message('note_on', channel=2, note=43, velocity=0, time=0),\n",
      "    Message('note_on', channel=2, note=62, velocity=84, time=12),\n",
      "    Message('note_on', channel=2, note=55, velocity=84, time=0),\n",
      "    Message('note_on', channel=2, note=62, velocity=0, time=168),\n",
      "    Message('note_on', channel=2, note=55, velocity=0, time=0),\n",
      "    Message('note_on', channel=2, note=60, velocity=84, time=12),\n",
      "    Message('note_on', channel=2, note=52, velocity=84, time=0),\n",
      "    Message('note_on', channel=2, note=60, velocity=0, time=168),\n",
      "    Message('note_on', channel=2, note=52, velocity=0, time=0),\n",
      "    Message('note_on', channel=2, note=47, velocity=84, time=12),\n",
      "    Message('note_on', channel=2, note=55, velocity=84, time=0),\n",
      "    Message('note_on', channel=2, note=47, velocity=0, time=168),\n",
      "    Message('note_on', channel=2, note=55, velocity=0, time=0),\n",
      "    Message('note_on', channel=2, note=52, velocity=84, time=12),\n",
      "    Message('note_on', channel=2, note=59, velocity=84, time=0),\n",
      "    Message('note_on', channel=2, note=52, velocity=0, time=168),\n",
      "    Message('note_on', channel=2, note=59, velocity=0, time=0),\n",
      "    Message('note_on', channel=2, note=64, velocity=84, time=12),\n",
      "    Message('note_on', channel=2, note=59, velocity=84, time=0),\n",
      "    Message('note_on', channel=2, note=64, velocity=0, time=168),\n",
      "    Message('note_on', channel=2, note=59, velocity=0, time=0),\n",
      "    Message('note_on', channel=2, note=64, velocity=84, time=12),\n",
      "    Message('note_on', channel=2, note=57, velocity=84, time=0),\n",
      "    Message('note_on', channel=2, note=64, velocity=0, time=168),\n",
      "    Message('note_on', channel=2, note=57, velocity=0, time=0),\n",
      "    Message('note_on', channel=2, note=59, velocity=84, time=12),\n",
      "    Message('note_on', channel=2, note=67, velocity=84, time=0),\n",
      "    Message('note_on', channel=2, note=59, velocity=0, time=168),\n",
      "    Message('note_on', channel=2, note=67, velocity=0, time=0),\n",
      "    Message('note_on', channel=2, note=60, velocity=84, time=12),\n",
      "    Message('note_on', channel=2, note=57, velocity=84, time=0),\n",
      "    Message('note_on', channel=2, note=60, velocity=0, time=168),\n",
      "    Message('note_on', channel=2, note=57, velocity=0, time=0),\n",
      "    Message('note_on', channel=2, note=57, velocity=84, time=12),\n",
      "    Message('note_on', channel=2, note=50, velocity=84, time=0),\n",
      "    Message('note_on', channel=2, note=57, velocity=0, time=336),\n",
      "    Message('note_on', channel=2, note=50, velocity=0, time=0),\n",
      "    Message('note_on', channel=2, note=54, velocity=84, time=24),\n",
      "    Message('note_on', channel=2, note=54, velocity=0, time=168),\n",
      "    Message('note_on', channel=2, note=43, velocity=84, time=12),\n",
      "    Message('note_on', channel=2, note=55, velocity=84, time=0),\n",
      "    Message('note_on', channel=2, note=43, velocity=0, time=168),\n",
      "    Message('note_on', channel=2, note=55, velocity=0, time=0),\n",
      "    Message('note_on', channel=2, note=55, velocity=84, time=12),\n",
      "    Message('note_on', channel=2, note=62, velocity=84, time=0),\n",
      "    Message('note_on', channel=2, note=55, velocity=0, time=168),\n",
      "    Message('note_on', channel=2, note=62, velocity=0, time=0),\n",
      "    Message('note_on', channel=2, note=52, velocity=84, time=12),\n",
      "    Message('note_on', channel=2, note=60, velocity=84, time=0),\n",
      "    Message('note_on', channel=2, note=52, velocity=0, time=168),\n",
      "    Message('note_on', channel=2, note=60, velocity=0, time=0),\n",
      "    Message('note_on', channel=2, note=55, velocity=84, time=12),\n",
      "    Message('note_on', channel=2, note=47, velocity=84, time=0),\n",
      "    Message('note_on', channel=2, note=55, velocity=0, time=168),\n",
      "    Message('note_on', channel=2, note=47, velocity=0, time=0),\n",
      "    Message('note_on', channel=2, note=52, velocity=84, time=12),\n",
      "    Message('note_on', channel=2, note=59, velocity=84, time=0),\n",
      "    Message('note_on', channel=2, note=52, velocity=0, time=168),\n",
      "    Message('note_on', channel=2, note=59, velocity=0, time=0),\n",
      "    Message('note_on', channel=2, note=59, velocity=84, time=12),\n",
      "    Message('note_on', channel=2, note=64, velocity=84, time=0),\n",
      "    Message('note_on', channel=2, note=59, velocity=0, time=168),\n",
      "    Message('note_on', channel=2, note=64, velocity=0, time=0),\n",
      "    Message('note_on', channel=2, note=57, velocity=84, time=12),\n",
      "    Message('note_on', channel=2, note=48, velocity=84, time=0),\n",
      "    Message('note_on', channel=2, note=57, velocity=0, time=336),\n",
      "    Message('note_on', channel=2, note=48, velocity=0, time=0),\n",
      "    Message('note_on', channel=2, note=60, velocity=84, time=24),\n",
      "    Message('note_on', channel=2, note=57, velocity=84, time=0),\n",
      "    Message('note_on', channel=2, note=50, velocity=84, time=0),\n",
      "    Message('note_on', channel=2, note=60, velocity=0, time=168),\n",
      "    Message('note_on', channel=2, note=57, velocity=0, time=0),\n",
      "    Message('note_on', channel=2, note=50, velocity=0, time=0),\n",
      "    Message('note_on', channel=2, note=43, velocity=84, time=12),\n",
      "    Message('note_on', channel=2, note=31, velocity=84, time=0),\n",
      "    Message('note_on', channel=2, note=43, velocity=84, time=520),\n",
      "    Message('note_on', channel=2, note=55, velocity=84, time=0),\n",
      "    Message('note_on', channel=2, note=43, velocity=0, time=8),\n",
      "    Message('note_on', channel=2, note=31, velocity=0, time=0),\n",
      "    Message('note_on', channel=2, note=43, velocity=0, time=160),\n",
      "    Message('note_on', channel=2, note=55, velocity=0, time=0),\n",
      "    Message('note_on', channel=2, note=50, velocity=84, time=12),\n",
      "    Message('note_on', channel=2, note=55, velocity=84, time=0),\n",
      "    Message('note_on', channel=2, note=50, velocity=0, time=168),\n",
      "    Message('note_on', channel=2, note=55, velocity=0, time=0),\n",
      "    Message('note_on', channel=2, note=52, velocity=84, time=12),\n",
      "    Message('note_on', channel=2, note=60, velocity=84, time=0),\n",
      "    Message('note_on', channel=2, note=52, velocity=0, time=168),\n",
      "    Message('note_on', channel=2, note=60, velocity=0, time=0),\n",
      "    Message('note_on', channel=2, note=47, velocity=84, time=12),\n",
      "    Message('note_on', channel=2, note=55, velocity=84, time=0),\n",
      "    Message('note_on', channel=2, note=47, velocity=0, time=168),\n",
      "    Message('note_on', channel=2, note=55, velocity=0, time=0),\n",
      "    Message('note_on', channel=2, note=52, velocity=84, time=12),\n",
      "    Message('note_on', channel=2, note=59, velocity=84, time=0),\n",
      "    Message('note_on', channel=2, note=52, velocity=0, time=168),\n",
      "    Message('note_on', channel=2, note=59, velocity=0, time=0),\n",
      "    Message('note_on', channel=2, note=59, velocity=84, time=12),\n",
      "    Message('note_on', channel=2, note=64, velocity=84, time=0),\n",
      "    Message('note_on', channel=2, note=59, velocity=0, time=168),\n",
      "    Message('note_on', channel=2, note=64, velocity=0, time=0),\n",
      "    Message('note_on', channel=2, note=64, velocity=84, time=12),\n",
      "    Message('note_on', channel=2, note=57, velocity=84, time=0),\n",
      "    Message('note_on', channel=2, note=64, velocity=0, time=168),\n",
      "    Message('note_on', channel=2, note=57, velocity=0, time=0),\n",
      "    Message('note_on', channel=2, note=67, velocity=84, time=12),\n",
      "    Message('note_on', channel=2, note=59, velocity=84, time=0),\n",
      "    Message('note_on', channel=2, note=67, velocity=0, time=168),\n",
      "    Message('note_on', channel=2, note=59, velocity=0, time=0),\n",
      "    Message('note_on', channel=2, note=67, velocity=84, time=12),\n",
      "    Message('note_on', channel=2, note=60, velocity=84, time=0),\n",
      "    Message('note_on', channel=2, note=67, velocity=0, time=168),\n",
      "    Message('note_on', channel=2, note=60, velocity=0, time=0),\n",
      "    Message('note_on', channel=2, note=52, velocity=84, time=12),\n",
      "    Message('note_on', channel=2, note=57, velocity=84, time=0),\n",
      "    Message('note_on', channel=2, note=52, velocity=0, time=336),\n",
      "    Message('note_on', channel=2, note=57, velocity=0, time=0),\n",
      "    Message('note_on', channel=2, note=54, velocity=84, time=24),\n",
      "    Message('note_on', channel=2, note=54, velocity=0, time=168),\n",
      "    Message('note_on', channel=2, note=43, velocity=84, time=12),\n",
      "    Message('note_on', channel=2, note=55, velocity=84, time=0),\n",
      "    Message('note_on', channel=2, note=43, velocity=0, time=168),\n",
      "    Message('note_on', channel=2, note=55, velocity=0, time=0),\n",
      "    Message('note_on', channel=2, note=55, velocity=84, time=12),\n",
      "    Message('note_on', channel=2, note=62, velocity=84, time=0),\n",
      "    Message('note_on', channel=2, note=55, velocity=0, time=168),\n",
      "    Message('note_on', channel=2, note=62, velocity=0, time=0),\n",
      "    Message('note_on', channel=2, note=60, velocity=84, time=12),\n",
      "    Message('note_on', channel=2, note=52, velocity=84, time=0),\n",
      "    Message('note_on', channel=2, note=60, velocity=0, time=168),\n",
      "    Message('note_on', channel=2, note=52, velocity=0, time=0),\n",
      "    Message('note_on', channel=2, note=47, velocity=84, time=12),\n",
      "    Message('note_on', channel=2, note=55, velocity=84, time=0),\n",
      "    Message('note_on', channel=2, note=47, velocity=0, time=168),\n",
      "    Message('note_on', channel=2, note=55, velocity=0, time=0),\n",
      "    Message('note_on', channel=2, note=52, velocity=84, time=12),\n",
      "    Message('note_on', channel=2, note=59, velocity=84, time=0),\n",
      "    Message('note_on', channel=2, note=52, velocity=0, time=168),\n",
      "    Message('note_on', channel=2, note=59, velocity=0, time=0),\n",
      "    Message('note_on', channel=2, note=59, velocity=84, time=12),\n",
      "    Message('note_on', channel=2, note=64, velocity=84, time=0),\n",
      "    Message('note_on', channel=2, note=59, velocity=0, time=168),\n",
      "    Message('note_on', channel=2, note=64, velocity=0, time=0),\n",
      "    Message('note_on', channel=2, note=52, velocity=84, time=12),\n",
      "    Message('note_on', channel=2, note=57, velocity=84, time=0),\n",
      "    Message('note_on', channel=2, note=52, velocity=0, time=336),\n",
      "    Message('note_on', channel=2, note=57, velocity=0, time=0),\n",
      "    Message('note_on', channel=2, note=50, velocity=84, time=24),\n",
      "    Message('note_on', channel=2, note=57, velocity=84, time=0),\n",
      "    Message('note_on', channel=2, note=60, velocity=84, time=0),\n",
      "    Message('note_on', channel=2, note=50, velocity=0, time=168),\n",
      "    Message('note_on', channel=2, note=57, velocity=0, time=0),\n",
      "    Message('note_on', channel=2, note=60, velocity=0, time=0),\n",
      "    Message('note_on', channel=2, note=59, velocity=84, time=12),\n",
      "    Message('note_on', channel=2, note=55, velocity=84, time=0),\n",
      "    Message('note_on', channel=2, note=62, velocity=84, time=0),\n",
      "    Message('note_on', channel=2, note=59, velocity=0, time=528),\n",
      "    Message('note_on', channel=2, note=55, velocity=0, time=0),\n",
      "    Message('note_on', channel=2, note=62, velocity=0, time=0),\n",
      "    Message('note_on', channel=2, note=43, velocity=84, time=12),\n",
      "    Message('note_on', channel=2, note=55, velocity=84, time=0),\n",
      "    Message('note_on', channel=2, note=43, velocity=0, time=168),\n",
      "    Message('note_on', channel=2, note=55, velocity=0, time=0),\n",
      "    Message('note_on', channel=2, note=42, velocity=84, time=12),\n",
      "    Message('note_on', channel=2, note=54, velocity=84, time=0),\n",
      "    Message('note_on', channel=2, note=42, velocity=0, time=168),\n",
      "    Message('note_on', channel=2, note=54, velocity=0, time=0),\n",
      "    Message('note_on', channel=2, note=40, velocity=84, time=12),\n",
      "    Message('note_on', channel=2, note=52, velocity=84, time=0),\n",
      "    Message('note_on', channel=2, note=40, velocity=0, time=168),\n",
      "    Message('note_on', channel=2, note=52, velocity=0, time=0),\n",
      "    Message('note_on', channel=2, note=54, velocity=84, time=12),\n",
      "    Message('note_on', channel=2, note=42, velocity=84, time=0),\n",
      "    Message('note_on', channel=2, note=54, velocity=0, time=168),\n",
      "    Message('note_on', channel=2, note=42, velocity=0, time=0),\n",
      "    Message('note_on', channel=2, note=40, velocity=84, time=12),\n",
      "    Message('note_on', channel=2, note=52, velocity=84, time=0),\n",
      "    Message('note_on', channel=2, note=40, velocity=0, time=168),\n",
      "    Message('note_on', channel=2, note=52, velocity=0, time=0),\n",
      "    Message('note_on', channel=2, note=50, velocity=84, time=12),\n",
      "    Message('note_on', channel=2, note=38, velocity=84, time=0),\n",
      "    Message('note_on', channel=2, note=50, velocity=0, time=168),\n",
      "    Message('note_on', channel=2, note=38, velocity=0, time=0),\n",
      "    Message('note_on', channel=2, note=52, velocity=84, time=12),\n",
      "    Message('note_on', channel=2, note=40, velocity=84, time=0),\n",
      "    Message('note_on', channel=2, note=52, velocity=0, time=168),\n",
      "    Message('note_on', channel=2, note=40, velocity=0, time=0),\n",
      "    Message('note_on', channel=2, note=42, velocity=84, time=12),\n",
      "    Message('note_on', channel=2, note=54, velocity=84, time=0),\n",
      "    Message('note_on', channel=2, note=42, velocity=0, time=168),\n",
      "    Message('note_on', channel=2, note=54, velocity=0, time=0),\n",
      "    Message('note_on', channel=2, note=55, velocity=84, time=12),\n",
      "    Message('note_on', channel=2, note=43, velocity=84, time=0),\n",
      "    Message('note_on', channel=2, note=55, velocity=0, time=168),\n",
      "    Message('note_on', channel=2, note=43, velocity=0, time=0),\n",
      "    Message('note_on', channel=2, note=38, velocity=84, time=12),\n",
      "    Message('note_on', channel=2, note=50, velocity=84, time=0),\n",
      "    Message('note_on', channel=2, note=38, velocity=0, time=528),\n",
      "    Message('note_on', channel=2, note=50, velocity=0, time=0),\n",
      "    Message('note_on', channel=2, note=50, velocity=84, time=12),\n",
      "    Message('note_on', channel=2, note=54, velocity=84, time=0),\n",
      "    Message('note_on', channel=2, note=50, velocity=0, time=528),\n",
      "    Message('note_on', channel=2, note=54, velocity=0, time=0),\n",
      "    Message('note_on', channel=2, note=43, velocity=84, time=12),\n",
      "    Message('note_on', channel=2, note=55, velocity=84, time=0),\n",
      "    Message('note_on', channel=2, note=43, velocity=0, time=168),\n",
      "    Message('note_on', channel=2, note=55, velocity=0, time=0),\n",
      "    Message('note_on', channel=2, note=42, velocity=84, time=12),\n",
      "    Message('note_on', channel=2, note=54, velocity=84, time=0),\n",
      "    Message('note_on', channel=2, note=42, velocity=0, time=168),\n",
      "    Message('note_on', channel=2, note=54, velocity=0, time=0),\n",
      "    Message('note_on', channel=2, note=52, velocity=84, time=12),\n",
      "    Message('note_on', channel=2, note=40, velocity=84, time=0),\n",
      "    Message('note_on', channel=2, note=52, velocity=0, time=168),\n",
      "    Message('note_on', channel=2, note=40, velocity=0, time=0),\n",
      "    Message('note_on', channel=2, note=59, velocity=84, time=12),\n",
      "    Message('note_on', channel=2, note=47, velocity=84, time=0),\n",
      "    Message('note_on', channel=2, note=59, velocity=0, time=168),\n",
      "    Message('note_on', channel=2, note=47, velocity=0, time=0),\n",
      "    Message('note_on', channel=2, note=47, velocity=84, time=12),\n",
      "    Message('note_on', channel=2, note=35, velocity=84, time=0),\n",
      "    Message('note_on', channel=2, note=47, velocity=0, time=168),\n",
      "    Message('note_on', channel=2, note=35, velocity=0, time=0),\n",
      "    Message('note_on', channel=2, note=52, velocity=84, time=12),\n",
      "    Message('note_on', channel=2, note=40, velocity=84, time=0),\n",
      "    Message('note_on', channel=2, note=52, velocity=0, time=168),\n",
      "    Message('note_on', channel=2, note=40, velocity=0, time=0),\n",
      "    Message('note_on', channel=2, note=48, velocity=84, time=12),\n",
      "    Message('note_on', channel=2, note=36, velocity=84, time=0),\n",
      "    Message('note_on', channel=2, note=48, velocity=0, time=168),\n",
      "    Message('note_on', channel=2, note=36, velocity=0, time=0),\n",
      "    Message('note_on', channel=2, note=38, velocity=84, time=12),\n",
      "    Message('note_on', channel=2, note=50, velocity=84, time=0),\n",
      "    Message('note_on', channel=2, note=38, velocity=0, time=336),\n",
      "    Message('note_on', channel=2, note=50, velocity=0, time=0),\n",
      "    Message('note_on', channel=2, note=43, velocity=84, time=24),\n",
      "    Message('note_on', channel=2, note=55, velocity=84, time=0),\n",
      "    Message('note_on', channel=2, note=43, velocity=0, time=168),\n",
      "    Message('note_on', channel=2, note=55, velocity=0, time=0),\n",
      "    Message('note_on', channel=2, note=55, velocity=84, time=12),\n",
      "    Message('note_on', channel=2, note=62, velocity=84, time=0),\n",
      "    Message('note_on', channel=2, note=55, velocity=0, time=168),\n",
      "    Message('note_on', channel=2, note=62, velocity=0, time=0),\n",
      "    Message('note_on', channel=2, note=52, velocity=84, time=12),\n",
      "    Message('note_on', channel=2, note=60, velocity=84, time=0),\n",
      "    Message('note_on', channel=2, note=52, velocity=0, time=168),\n",
      "    Message('note_on', channel=2, note=60, velocity=0, time=0),\n",
      "    Message('note_on', channel=2, note=47, velocity=84, time=12),\n",
      "    Message('note_on', channel=2, note=55, velocity=84, time=0),\n",
      "    Message('note_on', channel=2, note=47, velocity=0, time=168),\n",
      "    Message('note_on', channel=2, note=55, velocity=0, time=0),\n",
      "    Message('note_on', channel=2, note=52, velocity=84, time=12),\n",
      "    Message('note_on', channel=2, note=59, velocity=84, time=0),\n",
      "    Message('note_on', channel=2, note=52, velocity=0, time=168),\n",
      "    Message('note_on', channel=2, note=59, velocity=0, time=0),\n",
      "    Message('note_on', channel=2, note=59, velocity=84, time=12),\n",
      "    Message('note_on', channel=2, note=64, velocity=84, time=0),\n",
      "    Message('note_on', channel=2, note=59, velocity=0, time=168),\n",
      "    Message('note_on', channel=2, note=64, velocity=0, time=0),\n",
      "    Message('note_on', channel=2, note=57, velocity=84, time=12),\n",
      "    Message('note_on', channel=2, note=64, velocity=84, time=0),\n",
      "    Message('note_on', channel=2, note=57, velocity=0, time=168),\n",
      "    Message('note_on', channel=2, note=64, velocity=0, time=0),\n",
      "    Message('note_on', channel=2, note=67, velocity=84, time=12),\n",
      "    Message('note_on', channel=2, note=59, velocity=84, time=0),\n",
      "    Message('note_on', channel=2, note=67, velocity=0, time=168),\n",
      "    Message('note_on', channel=2, note=59, velocity=0, time=0),\n",
      "    Message('note_on', channel=2, note=60, velocity=84, time=12),\n",
      "    Message('note_on', channel=2, note=64, velocity=84, time=0),\n",
      "    Message('note_on', channel=2, note=60, velocity=0, time=168),\n",
      "    Message('note_on', channel=2, note=64, velocity=0, time=0),\n",
      "    Message('note_on', channel=2, note=50, velocity=84, time=12),\n",
      "    Message('note_on', channel=2, note=57, velocity=84, time=0),\n",
      "    Message('note_on', channel=2, note=50, velocity=0, time=336),\n",
      "    Message('note_on', channel=2, note=57, velocity=0, time=0),\n",
      "    Message('note_on', channel=2, note=54, velocity=84, time=24),\n",
      "    Message('note_on', channel=2, note=54, velocity=0, time=168),\n",
      "    Message('note_on', channel=2, note=43, velocity=84, time=12),\n",
      "    Message('note_on', channel=2, note=55, velocity=84, time=0),\n",
      "    Message('note_on', channel=2, note=43, velocity=0, time=168),\n",
      "    Message('note_on', channel=2, note=55, velocity=0, time=0),\n",
      "    Message('note_on', channel=2, note=62, velocity=84, time=12),\n",
      "    Message('note_on', channel=2, note=55, velocity=84, time=0),\n",
      "    Message('note_on', channel=2, note=62, velocity=0, time=168),\n",
      "    Message('note_on', channel=2, note=55, velocity=0, time=0),\n",
      "    Message('note_on', channel=2, note=52, velocity=84, time=12),\n",
      "    Message('note_on', channel=2, note=60, velocity=84, time=0),\n",
      "    Message('note_on', channel=2, note=52, velocity=0, time=168),\n",
      "    Message('note_on', channel=2, note=60, velocity=0, time=0),\n",
      "    Message('note_on', channel=2, note=47, velocity=84, time=12),\n",
      "    Message('note_on', channel=2, note=55, velocity=84, time=0),\n",
      "    Message('note_on', channel=2, note=47, velocity=0, time=168),\n",
      "    Message('note_on', channel=2, note=55, velocity=0, time=0),\n",
      "    Message('note_on', channel=2, note=59, velocity=84, time=12),\n",
      "    Message('note_on', channel=2, note=52, velocity=84, time=0),\n",
      "    Message('note_on', channel=2, note=59, velocity=0, time=168),\n",
      "    Message('note_on', channel=2, note=52, velocity=0, time=0),\n",
      "    Message('note_on', channel=2, note=59, velocity=84, time=12),\n",
      "    Message('note_on', channel=2, note=64, velocity=84, time=0),\n",
      "    Message('note_on', channel=2, note=59, velocity=0, time=168),\n",
      "    Message('note_on', channel=2, note=64, velocity=0, time=0),\n",
      "    Message('note_on', channel=2, note=48, velocity=84, time=12),\n",
      "    Message('note_on', channel=2, note=57, velocity=84, time=0),\n",
      "    Message('note_on', channel=2, note=48, velocity=0, time=336),\n",
      "    Message('note_on', channel=2, note=57, velocity=0, time=0),\n",
      "    Message('note_on', channel=2, note=52, velocity=84, time=24),\n",
      "    Message('note_on', channel=2, note=57, velocity=84, time=0),\n",
      "    Message('note_on', channel=2, note=60, velocity=84, time=0),\n",
      "    Message('note_on', channel=2, note=52, velocity=0, time=168),\n",
      "    Message('note_on', channel=2, note=57, velocity=0, time=0),\n",
      "    Message('note_on', channel=2, note=60, velocity=0, time=0),\n",
      "    Message('note_on', channel=2, note=43, velocity=84, time=12),\n",
      "    Message('note_on', channel=2, note=55, velocity=84, time=0),\n",
      "    Message('note_on', channel=2, note=43, velocity=0, time=168),\n",
      "    Message('note_on', channel=2, note=55, velocity=0, time=0),\n",
      "    Message('note_on', channel=2, note=54, velocity=84, time=12),\n",
      "    Message('note_on', channel=2, note=42, velocity=84, time=0),\n",
      "    Message('note_on', channel=2, note=54, velocity=0, time=168),\n",
      "    Message('note_on', channel=2, note=42, velocity=0, time=0),\n",
      "    Message('note_on', channel=2, note=52, velocity=84, time=12),\n",
      "    Message('note_on', channel=2, note=40, velocity=84, time=0),\n",
      "    Message('note_on', channel=2, note=52, velocity=0, time=168),\n",
      "    Message('note_on', channel=2, note=40, velocity=0, time=0),\n",
      "    Message('note_on', channel=2, note=42, velocity=84, time=12),\n",
      "    Message('note_on', channel=2, note=54, velocity=84, time=0),\n",
      "    Message('note_on', channel=2, note=42, velocity=0, time=168),\n",
      "    Message('note_on', channel=2, note=54, velocity=0, time=0),\n",
      "    Message('note_on', channel=2, note=40, velocity=84, time=12),\n",
      "    Message('note_on', channel=2, note=52, velocity=84, time=0),\n",
      "    Message('note_on', channel=2, note=40, velocity=0, time=168),\n",
      "    Message('note_on', channel=2, note=52, velocity=0, time=0),\n",
      "    Message('note_on', channel=2, note=38, velocity=84, time=12),\n",
      "    Message('note_on', channel=2, note=50, velocity=84, time=0),\n",
      "    Message('note_on', channel=2, note=38, velocity=0, time=168),\n",
      "    Message('note_on', channel=2, note=50, velocity=0, time=0),\n",
      "    Message('note_on', channel=2, note=40, velocity=84, time=12),\n",
      "    Message('note_on', channel=2, note=52, velocity=84, time=0),\n",
      "    Message('note_on', channel=2, note=40, velocity=0, time=168),\n",
      "    Message('note_on', channel=2, note=52, velocity=0, time=0),\n",
      "    Message('note_on', channel=2, note=42, velocity=84, time=12),\n",
      "    Message('note_on', channel=2, note=54, velocity=84, time=0),\n",
      "    Message('note_on', channel=2, note=42, velocity=0, time=168),\n",
      "    Message('note_on', channel=2, note=54, velocity=0, time=0),\n",
      "    Message('note_on', channel=2, note=43, velocity=84, time=12),\n",
      "    Message('note_on', channel=2, note=55, velocity=84, time=0),\n",
      "    Message('note_on', channel=2, note=43, velocity=0, time=168),\n",
      "    Message('note_on', channel=2, note=55, velocity=0, time=0),\n",
      "    Message('note_on', channel=2, note=50, velocity=84, time=12),\n",
      "    Message('note_on', channel=2, note=38, velocity=84, time=0),\n",
      "    Message('note_on', channel=2, note=50, velocity=0, time=528),\n",
      "    Message('note_on', channel=2, note=38, velocity=0, time=0),\n",
      "    Message('note_on', channel=2, note=50, velocity=84, time=12),\n",
      "    Message('note_on', channel=2, note=54, velocity=84, time=0),\n",
      "    Message('note_on', channel=2, note=50, velocity=0, time=528),\n",
      "    Message('note_on', channel=2, note=54, velocity=0, time=0),\n",
      "    Message('note_on', channel=2, note=43, velocity=84, time=12),\n",
      "    Message('note_on', channel=2, note=55, velocity=84, time=0),\n",
      "    Message('note_on', channel=2, note=43, velocity=0, time=168),\n",
      "    Message('note_on', channel=2, note=55, velocity=0, time=0),\n",
      "    Message('note_on', channel=2, note=42, velocity=84, time=12),\n",
      "    Message('note_on', channel=2, note=54, velocity=84, time=0),\n",
      "    Message('note_on', channel=2, note=42, velocity=0, time=168),\n",
      "    Message('note_on', channel=2, note=54, velocity=0, time=0),\n",
      "    Message('note_on', channel=2, note=40, velocity=84, time=12),\n",
      "    Message('note_on', channel=2, note=52, velocity=84, time=0),\n",
      "    Message('note_on', channel=2, note=40, velocity=0, time=168),\n",
      "    Message('note_on', channel=2, note=52, velocity=0, time=0),\n",
      "    Message('note_on', channel=2, note=47, velocity=84, time=12),\n",
      "    Message('note_on', channel=2, note=59, velocity=84, time=0),\n",
      "    Message('note_on', channel=2, note=47, velocity=0, time=168),\n",
      "    Message('note_on', channel=2, note=59, velocity=0, time=0),\n",
      "    Message('note_on', channel=2, note=47, velocity=84, time=12),\n",
      "    Message('note_on', channel=2, note=35, velocity=84, time=0),\n",
      "    Message('note_on', channel=2, note=47, velocity=0, time=168),\n",
      "    Message('note_on', channel=2, note=35, velocity=0, time=0),\n",
      "    Message('note_on', channel=2, note=52, velocity=84, time=12),\n",
      "    Message('note_on', channel=2, note=40, velocity=84, time=0),\n",
      "    Message('note_on', channel=2, note=52, velocity=0, time=168),\n",
      "    Message('note_on', channel=2, note=40, velocity=0, time=0),\n",
      "    Message('note_on', channel=2, note=48, velocity=84, time=12),\n",
      "    Message('note_on', channel=2, note=36, velocity=84, time=0),\n",
      "    Message('note_on', channel=2, note=48, velocity=0, time=168),\n",
      "    Message('note_on', channel=2, note=36, velocity=0, time=0),\n",
      "    Message('note_on', channel=2, note=50, velocity=84, time=12),\n",
      "    Message('note_on', channel=2, note=38, velocity=84, time=0),\n",
      "    Message('note_on', channel=2, note=50, velocity=0, time=336),\n",
      "    Message('note_on', channel=2, note=38, velocity=0, time=0),\n",
      "    Message('note_on', channel=2, note=43, velocity=84, time=24),\n",
      "    Message('note_on', channel=2, note=55, velocity=84, time=0),\n",
      "    Message('note_on', channel=2, note=43, velocity=0, time=168),\n",
      "    Message('note_on', channel=2, note=55, velocity=0, time=0),\n",
      "    Message('note_on', channel=2, note=55, velocity=84, time=12),\n",
      "    Message('note_on', channel=2, note=62, velocity=84, time=0),\n",
      "    Message('note_on', channel=2, note=55, velocity=0, time=168),\n",
      "    Message('note_on', channel=2, note=62, velocity=0, time=0),\n",
      "    Message('note_on', channel=2, note=60, velocity=84, time=12),\n",
      "    Message('note_on', channel=2, note=52, velocity=84, time=0),\n",
      "    Message('note_on', channel=2, note=60, velocity=0, time=168),\n",
      "    Message('note_on', channel=2, note=52, velocity=0, time=0),\n",
      "    Message('note_on', channel=2, note=55, velocity=84, time=12),\n",
      "    Message('note_on', channel=2, note=47, velocity=84, time=0),\n",
      "    Message('note_on', channel=2, note=55, velocity=0, time=168),\n",
      "    Message('note_on', channel=2, note=47, velocity=0, time=0),\n",
      "    Message('note_on', channel=2, note=52, velocity=84, time=12),\n",
      "    Message('note_on', channel=2, note=59, velocity=84, time=0),\n",
      "    Message('note_on', channel=2, note=52, velocity=0, time=168),\n",
      "    Message('note_on', channel=2, note=59, velocity=0, time=0),\n",
      "    Message('note_on', channel=2, note=59, velocity=84, time=12),\n",
      "    Message('note_on', channel=2, note=64, velocity=84, time=0),\n",
      "    Message('note_on', channel=2, note=59, velocity=0, time=168),\n",
      "    Message('note_on', channel=2, note=64, velocity=0, time=0),\n",
      "    Message('note_on', channel=2, note=57, velocity=84, time=12),\n",
      "    Message('note_on', channel=2, note=64, velocity=84, time=0),\n",
      "    Message('note_on', channel=2, note=57, velocity=0, time=168),\n",
      "    Message('note_on', channel=2, note=64, velocity=0, time=0),\n",
      "    Message('note_on', channel=2, note=59, velocity=84, time=12),\n",
      "    Message('note_on', channel=2, note=67, velocity=84, time=0),\n",
      "    Message('note_on', channel=2, note=59, velocity=0, time=168),\n",
      "    Message('note_on', channel=2, note=67, velocity=0, time=0),\n",
      "    Message('note_on', channel=2, note=67, velocity=84, time=12),\n",
      "    Message('note_on', channel=2, note=60, velocity=84, time=0),\n",
      "    Message('note_on', channel=2, note=67, velocity=0, time=168),\n",
      "    Message('note_on', channel=2, note=60, velocity=0, time=0),\n",
      "    Message('note_on', channel=2, note=57, velocity=84, time=12),\n",
      "    Message('note_on', channel=2, note=50, velocity=84, time=0),\n",
      "    Message('note_on', channel=2, note=57, velocity=0, time=336),\n",
      "    Message('note_on', channel=2, note=50, velocity=0, time=0),\n",
      "    Message('note_on', channel=2, note=54, velocity=84, time=24),\n",
      "    Message('note_on', channel=2, note=54, velocity=0, time=168),\n",
      "    Message('note_on', channel=2, note=43, velocity=84, time=12),\n",
      "    Message('note_on', channel=2, note=55, velocity=84, time=0),\n",
      "    Message('note_on', channel=2, note=43, velocity=0, time=168),\n",
      "    Message('note_on', channel=2, note=55, velocity=0, time=0),\n",
      "    Message('note_on', channel=2, note=55, velocity=84, time=12),\n",
      "    Message('note_on', channel=2, note=62, velocity=84, time=0),\n",
      "    Message('note_on', channel=2, note=55, velocity=0, time=168),\n",
      "    Message('note_on', channel=2, note=62, velocity=0, time=0),\n",
      "    Message('note_on', channel=2, note=60, velocity=84, time=12),\n",
      "    Message('note_on', channel=2, note=52, velocity=84, time=0),\n",
      "    Message('note_on', channel=2, note=60, velocity=0, time=168),\n",
      "    Message('note_on', channel=2, note=52, velocity=0, time=0),\n",
      "    Message('note_on', channel=2, note=55, velocity=84, time=12),\n",
      "    Message('note_on', channel=2, note=47, velocity=84, time=0),\n",
      "    Message('note_on', channel=2, note=55, velocity=0, time=168),\n",
      "    Message('note_on', channel=2, note=47, velocity=0, time=0),\n",
      "    Message('note_on', channel=2, note=52, velocity=84, time=12),\n",
      "    Message('note_on', channel=2, note=59, velocity=84, time=0),\n",
      "    Message('note_on', channel=2, note=52, velocity=0, time=168),\n",
      "    Message('note_on', channel=2, note=59, velocity=0, time=0),\n",
      "    Message('note_on', channel=2, note=64, velocity=84, time=12),\n",
      "    Message('note_on', channel=2, note=59, velocity=84, time=0),\n",
      "    Message('note_on', channel=2, note=64, velocity=0, time=168),\n",
      "    Message('note_on', channel=2, note=59, velocity=0, time=0),\n",
      "    Message('note_on', channel=2, note=48, velocity=84, time=12),\n",
      "    Message('note_on', channel=2, note=57, velocity=84, time=0),\n",
      "    Message('note_on', channel=2, note=48, velocity=0, time=336),\n",
      "    Message('note_on', channel=2, note=57, velocity=0, time=0),\n",
      "    Message('note_on', channel=2, note=50, velocity=84, time=24),\n",
      "    Message('note_on', channel=2, note=57, velocity=84, time=0),\n",
      "    Message('note_on', channel=2, note=60, velocity=84, time=0),\n",
      "    Message('note_on', channel=2, note=50, velocity=0, time=168),\n",
      "    Message('note_on', channel=2, note=57, velocity=0, time=0),\n",
      "    Message('note_on', channel=2, note=60, velocity=0, time=0),\n",
      "    Message('note_on', channel=2, note=59, velocity=84, time=12),\n",
      "    Message('note_on', channel=2, note=55, velocity=84, time=0),\n",
      "    Message('note_on', channel=2, note=62, velocity=84, time=0),\n",
      "    Message('note_on', channel=2, note=59, velocity=0, time=336),\n",
      "    Message('note_on', channel=2, note=55, velocity=0, time=0),\n",
      "    Message('note_on', channel=2, note=62, velocity=0, time=0),\n",
      "    Message('note_on', channel=2, note=55, velocity=84, time=24),\n",
      "    Message('note_on', channel=2, note=55, velocity=0, time=48),\n",
      "    Message('note_on', channel=2, note=59, velocity=84, time=12),\n",
      "    Message('note_on', channel=2, note=59, velocity=0, time=48),\n",
      "    Message('note_on', channel=2, note=61, velocity=84, time=12),\n",
      "    Message('note_on', channel=2, note=61, velocity=0, time=48),\n",
      "    Message('note_on', channel=2, note=62, velocity=84, time=12),\n",
      "    Message('note_on', channel=2, note=62, velocity=0, time=168),\n",
      "    Message('note_on', channel=2, note=60, velocity=84, time=12),\n",
      "    Message('note_on', channel=2, note=60, velocity=0, time=168),\n",
      "    Message('note_on', channel=2, note=59, velocity=84, time=12),\n",
      "    Message('note_on', channel=2, note=59, velocity=0, time=168),\n",
      "    Message('note_on', channel=2, note=57, velocity=84, time=12),\n",
      "    Message('note_on', channel=2, note=57, velocity=0, time=168),\n",
      "    Message('note_on', channel=2, note=57, velocity=84, time=12),\n",
      "    Message('note_on', channel=2, note=57, velocity=0, time=64),\n",
      "    Message('note_on', channel=2, note=55, velocity=84, time=16),\n",
      "    Message('note_on', channel=2, note=55, velocity=0, time=64),\n",
      "    Message('note_on', channel=2, note=53, velocity=84, time=16),\n",
      "    Message('note_on', channel=2, note=53, velocity=0, time=64),\n",
      "    Message('note_on', channel=2, note=52, velocity=84, time=16),\n",
      "    Message('note_on', channel=2, note=52, velocity=0, time=64),\n",
      "    Message('note_on', channel=2, note=53, velocity=84, time=76),\n",
      "    Message('note_on', channel=2, note=53, velocity=0, time=168),\n",
      "    Message('note_on', channel=2, note=47, velocity=84, time=12),\n",
      "    Message('note_on', channel=2, note=47, velocity=0, time=168),\n",
      "    Message('note_on', channel=2, note=50, velocity=84, time=12),\n",
      "    Message('note_on', channel=2, note=62, velocity=84, time=0),\n",
      "    Message('note_on', channel=2, note=50, velocity=0, time=168),\n",
      "    Message('note_on', channel=2, note=62, velocity=0, time=0),\n",
      "    Message('note_on', channel=2, note=60, velocity=84, time=12),\n",
      "    Message('note_on', channel=2, note=57, velocity=84, time=0),\n",
      "    Message('note_on', channel=2, note=60, velocity=0, time=168),\n",
      "    Message('note_on', channel=2, note=57, velocity=0, time=0),\n",
      "    Message('note_on', channel=2, note=60, velocity=84, time=12),\n",
      "    Message('note_on', channel=2, note=64, velocity=84, time=0),\n",
      "    Message('note_on', channel=2, note=57, velocity=84, time=0),\n",
      "    Message('note_on', channel=2, note=60, velocity=0, time=168),\n",
      "    Message('note_on', channel=2, note=64, velocity=0, time=0),\n",
      "    Message('note_on', channel=2, note=57, velocity=0, time=0),\n",
      "    Message('note_on', channel=2, note=62, velocity=84, time=12),\n",
      "    Message('note_on', channel=2, note=53, velocity=84, time=0),\n",
      "    Message('note_on', channel=2, note=62, velocity=0, time=168),\n",
      "    Message('note_on', channel=2, note=53, velocity=0, time=0),\n",
      "    Message('note_on', channel=2, note=57, velocity=84, time=12),\n",
      "    Message('note_on', channel=2, note=48, velocity=84, time=0),\n",
      "    Message('note_on', channel=2, note=57, velocity=0, time=168),\n",
      "    Message('note_on', channel=2, note=48, velocity=0, time=0),\n",
      "    Message('note_on', channel=2, note=60, velocity=84, time=12),\n",
      "    Message('note_on', channel=2, note=53, velocity=84, time=0),\n",
      "    Message('note_on', channel=2, note=60, velocity=0, time=168),\n",
      "    Message('note_on', channel=2, note=53, velocity=0, time=0),\n",
      "    Message('note_on', channel=2, note=60, velocity=84, time=12),\n",
      "    Message('note_on', channel=2, note=52, velocity=84, time=0),\n",
      "    Message('note_on', channel=2, note=60, velocity=0, time=168),\n",
      "    Message('note_on', channel=2, note=52, velocity=0, time=0),\n",
      "    Message('note_on', channel=2, note=50, velocity=84, time=12),\n",
      "    Message('note_on', channel=2, note=50, velocity=0, time=168),\n",
      "    Message('note_on', channel=2, note=51, velocity=84, time=12),\n",
      "    Message('note_on', channel=2, note=51, velocity=0, time=168),\n",
      "    Message('note_on', channel=2, note=52, velocity=84, time=12),\n",
      "    Message('note_on', channel=2, note=52, velocity=0, time=168),\n",
      "    Message('note_on', channel=2, note=45, velocity=84, time=12),\n",
      "    Message('note_on', channel=2, note=45, velocity=0, time=168),\n",
      "    Message('note_on', channel=2, note=57, velocity=84, time=12),\n",
      "    Message('note_on', channel=2, note=57, velocity=0, time=168),\n",
      "    Message('note_on', channel=2, note=59, velocity=84, time=12),\n",
      "    Message('note_on', channel=2, note=47, velocity=84, time=0),\n",
      "    Message('note_on', channel=2, note=59, velocity=0, time=168),\n",
      "    Message('note_on', channel=2, note=47, velocity=0, time=0),\n",
      "    Message('note_on', channel=2, note=60, velocity=84, time=12),\n",
      "    Message('note_on', channel=2, note=48, velocity=84, time=0),\n",
      "    Message('note_on', channel=2, note=60, velocity=0, time=336),\n",
      "    Message('note_on', channel=2, note=48, velocity=0, time=0),\n",
      "    Message('note_on', channel=2, note=60, velocity=84, time=24),\n",
      "    Message('note_on', channel=2, note=52, velocity=84, time=0),\n",
      "    Message('note_on', channel=2, note=60, velocity=0, time=168),\n",
      "    Message('note_on', channel=2, note=52, velocity=0, time=0),\n",
      "    Message('note_on', channel=2, note=53, velocity=84, time=12),\n",
      "    Message('note_on', channel=2, note=53, velocity=0, time=168),\n",
      "    Message('note_on', channel=2, note=50, velocity=84, time=12),\n",
      "    Message('note_on', channel=2, note=50, velocity=0, time=168),\n",
      "    Message('note_on', channel=2, note=55, velocity=84, time=12),\n",
      "    Message('note_on', channel=2, note=43, velocity=84, time=0),\n",
      "    Message('note_on', channel=2, note=55, velocity=0, time=168),\n",
      "    Message('note_on', channel=2, note=43, velocity=0, time=0),\n",
      "    Message('note_on', channel=2, note=48, velocity=84, time=12),\n",
      "    Message('note_on', channel=2, note=55, velocity=84, time=0),\n",
      "    Message('note_on', channel=2, note=48, velocity=0, time=168),\n",
      "    Message('note_on', channel=2, note=55, velocity=0, time=0),\n",
      "    Message('note_on', channel=2, note=52, velocity=84, time=12),\n",
      "    Message('note_on', channel=2, note=52, velocity=0, time=168),\n",
      "    Message('note_on', channel=2, note=60, velocity=84, time=12),\n",
      "    Message('note_on', channel=2, note=60, velocity=0, time=168),\n",
      "    Message('note_on', channel=2, note=60, velocity=84, time=12),\n",
      "    Message('note_on', channel=2, note=53, velocity=84, time=0),\n",
      "    Message('note_on', channel=2, note=60, velocity=0, time=336),\n",
      "    Message('note_on', channel=2, note=53, velocity=0, time=0),\n",
      "    Message('note_on', channel=2, note=55, velocity=84, time=24),\n",
      "    Message('note_on', channel=2, note=47, velocity=84, time=0),\n",
      "    Message('note_on', channel=2, note=55, velocity=0, time=168),\n",
      "    Message('note_on', channel=2, note=47, velocity=0, time=0),\n",
      "    Message('note_on', channel=2, note=55, velocity=84, time=12),\n",
      "    Message('note_on', channel=2, note=48, velocity=84, time=0),\n",
      "    Message('note_on', channel=2, note=55, velocity=0, time=336),\n",
      "    Message('note_on', channel=2, note=48, velocity=0, time=0),\n",
      "    Message('note_on', channel=2, note=59, velocity=84, time=24),\n",
      "    Message('note_on', channel=2, note=59, velocity=0, time=168),\n",
      "    Message('note_on', channel=2, note=62, velocity=84, time=12),\n",
      "    Message('note_on', channel=2, note=55, velocity=84, time=0),\n",
      "    Message('note_on', channel=2, note=62, velocity=0, time=168),\n",
      "    Message('note_on', channel=2, note=55, velocity=0, time=0),\n",
      "    Message('note_on', channel=2, note=43, velocity=84, time=12),\n",
      "    Message('note_on', channel=2, note=43, velocity=0, time=168),\n",
      "    Message('note_on', channel=2, note=52, velocity=84, time=12),\n",
      "    Message('note_on', channel=2, note=40, velocity=84, time=0),\n",
      "    Message('note_on', channel=2, note=52, velocity=0, time=168),\n",
      "    Message('note_on', channel=2, note=40, velocity=0, time=0),\n",
      "    Message('note_on', channel=2, note=47, velocity=84, time=12),\n",
      "    Message('note_on', channel=2, note=59, velocity=84, time=0),\n",
      "    Message('note_on', channel=2, note=47, velocity=0, time=168),\n",
      "    Message('note_on', channel=2, note=59, velocity=0, time=0),\n",
      "    Message('note_on', channel=2, note=40, velocity=84, time=12),\n",
      "    Message('note_on', channel=2, note=52, velocity=84, time=0),\n",
      "    Message('note_on', channel=2, note=40, velocity=0, time=168),\n",
      "    Message('note_on', channel=2, note=52, velocity=0, time=0),\n",
      "    Message('note_on', channel=2, note=52, velocity=84, time=12),\n",
      "    Message('note_on', channel=2, note=59, velocity=84, time=0),\n",
      "    Message('note_on', channel=2, note=52, velocity=0, time=168),\n",
      "    Message('note_on', channel=2, note=59, velocity=0, time=0),\n",
      "    Message('note_on', channel=2, note=42, velocity=84, time=12),\n",
      "    Message('note_on', channel=2, note=54, velocity=84, time=0),\n",
      "    Message('note_on', channel=2, note=42, velocity=0, time=168),\n",
      "    Message('note_on', channel=2, note=54, velocity=0, time=0),\n",
      "    Message('note_on', channel=2, note=55, velocity=84, time=12),\n",
      "    Message('note_on', channel=2, note=47, velocity=84, time=0),\n",
      "    Message('note_on', channel=2, note=55, velocity=0, time=168),\n",
      "    Message('note_on', channel=2, note=47, velocity=0, time=0),\n",
      "    Message('note_on', channel=2, note=48, velocity=84, time=12),\n",
      "    Message('note_on', channel=2, note=48, velocity=0, time=168),\n",
      "    Message('note_on', channel=2, note=50, velocity=84, time=12),\n",
      "    Message('note_on', channel=2, note=38, velocity=84, time=0),\n",
      "    Message('note_on', channel=2, note=50, velocity=0, time=528),\n",
      "    Message('note_on', channel=2, note=38, velocity=0, time=0),\n",
      "    Message('note_on', channel=2, note=54, velocity=84, time=12),\n",
      "    Message('note_on', channel=2, note=50, velocity=84, time=0),\n",
      "    Message('note_on', channel=2, note=54, velocity=0, time=528),\n",
      "    Message('note_on', channel=2, note=50, velocity=0, time=0),\n",
      "    Message('note_on', channel=2, note=43, velocity=84, time=12),\n",
      "    Message('note_on', channel=2, note=55, velocity=84, time=0),\n",
      "    Message('note_on', channel=2, note=43, velocity=0, time=168),\n",
      "    Message('note_on', channel=2, note=55, velocity=0, time=0),\n",
      "    Message('note_on', channel=2, note=42, velocity=84, time=12),\n",
      "    Message('note_on', channel=2, note=54, velocity=84, time=0),\n",
      "    Message('note_on', channel=2, note=42, velocity=0, time=168),\n",
      "    Message('note_on', channel=2, note=54, velocity=0, time=0),\n",
      "    Message('note_on', channel=2, note=40, velocity=84, time=12),\n",
      "    Message('note_on', channel=2, note=52, velocity=84, time=0),\n",
      "    Message('note_on', channel=2, note=40, velocity=0, time=168),\n",
      "    Message('note_on', channel=2, note=52, velocity=0, time=0),\n",
      "    Message('note_on', channel=2, note=55, velocity=84, time=12),\n",
      "    Message('note_on', channel=2, note=47, velocity=84, time=0),\n",
      "    Message('note_on', channel=2, note=55, velocity=0, time=168),\n",
      "    Message('note_on', channel=2, note=47, velocity=0, time=0),\n",
      "    Message('note_on', channel=2, note=47, velocity=84, time=12),\n",
      "    Message('note_on', channel=2, note=35, velocity=84, time=0),\n",
      "    Message('note_on', channel=2, note=47, velocity=0, time=168),\n",
      "    Message('note_on', channel=2, note=35, velocity=0, time=0),\n",
      "    Message('note_on', channel=2, note=52, velocity=84, time=12),\n",
      "    Message('note_on', channel=2, note=52, velocity=0, time=168),\n",
      "    Message('note_on', channel=2, note=48, velocity=84, time=12),\n",
      "    Message('note_on', channel=2, note=36, velocity=84, time=0),\n",
      "    Message('note_on', channel=2, note=48, velocity=0, time=168),\n",
      "    Message('note_on', channel=2, note=36, velocity=0, time=0),\n",
      "    Message('note_on', channel=2, note=38, velocity=84, time=12),\n",
      "    Message('note_on', channel=2, note=50, velocity=84, time=0),\n",
      "    Message('note_on', channel=2, note=38, velocity=0, time=336),\n",
      "    Message('note_on', channel=2, note=50, velocity=0, time=0),\n",
      "    Message('note_on', channel=2, note=55, velocity=84, time=24),\n",
      "    Message('note_on', channel=2, note=43, velocity=84, time=0),\n",
      "    Message('note_on', channel=2, note=55, velocity=0, time=168),\n",
      "    Message('note_on', channel=2, note=43, velocity=0, time=0),\n",
      "    Message('note_on', channel=2, note=59, velocity=84, time=12),\n",
      "    Message('note_on', channel=2, note=59, velocity=0, time=168),\n",
      "    Message('note_on', channel=2, note=50, velocity=84, time=12),\n",
      "    Message('note_on', channel=2, note=50, velocity=0, time=168),\n",
      "    Message('note_on', channel=2, note=55, velocity=84, time=12),\n",
      "    Message('note_on', channel=2, note=59, velocity=84, time=0),\n",
      "    Message('note_on', channel=2, note=55, velocity=0, time=336),\n",
      "    Message('note_on', channel=2, note=59, velocity=0, time=0),\n",
      "    Message('note_on', channel=2, note=60, velocity=84, time=24),\n",
      "    Message('note_on', channel=2, note=55, velocity=84, time=0),\n",
      "    Message('note_on', channel=2, note=60, velocity=0, time=168),\n",
      "    Message('note_on', channel=2, note=55, velocity=0, time=0),\n",
      "    Message('note_on', channel=2, note=57, velocity=84, time=12),\n",
      "    Message('note_on', channel=2, note=55, velocity=84, time=0),\n",
      "    Message('note_on', channel=2, note=57, velocity=0, time=168),\n",
      "    Message('note_on', channel=2, note=55, velocity=0, time=0),\n",
      "    Message('note_on', channel=2, note=59, velocity=84, time=12),\n",
      "    Message('note_on', channel=2, note=59, velocity=0, time=168),\n",
      "    Message('note_on', channel=2, note=62, velocity=84, time=12),\n",
      "    Message('note_on', channel=2, note=62, velocity=0, time=168),\n",
      "    Message('note_on', channel=2, note=43, velocity=84, time=12),\n",
      "    Message('note_on', channel=2, note=43, velocity=0, time=336),\n",
      "    Message('note_on', channel=2, note=43, velocity=84, time=24),\n",
      "    Message('note_on', channel=2, note=54, velocity=84, time=0),\n",
      "    Message('note_on', channel=2, note=43, velocity=0, time=168),\n",
      "    Message('note_on', channel=2, note=54, velocity=0, time=0),\n",
      "    Message('note_on', channel=2, note=55, velocity=84, time=12),\n",
      "    Message('note_on', channel=2, note=43, velocity=84, time=0),\n",
      "    Message('note_on', channel=2, note=55, velocity=0, time=168),\n",
      "    Message('note_on', channel=2, note=43, velocity=0, time=0),\n",
      "    Message('note_on', channel=2, note=62, velocity=84, time=12),\n",
      "    Message('note_on', channel=2, note=55, velocity=84, time=0),\n",
      "    Message('note_on', channel=2, note=62, velocity=0, time=168),\n",
      "    Message('note_on', channel=2, note=55, velocity=0, time=0),\n",
      "    Message('note_on', channel=2, note=60, velocity=84, time=12),\n",
      "    Message('note_on', channel=2, note=52, velocity=84, time=0),\n",
      "    Message('note_on', channel=2, note=60, velocity=0, time=168),\n",
      "    Message('note_on', channel=2, note=52, velocity=0, time=0),\n",
      "    Message('note_on', channel=2, note=47, velocity=84, time=12),\n",
      "    Message('note_on', channel=2, note=55, velocity=84, time=0),\n",
      "    Message('note_on', channel=2, note=47, velocity=0, time=168),\n",
      "    Message('note_on', channel=2, note=55, velocity=0, time=0),\n",
      "    Message('note_on', channel=2, note=52, velocity=84, time=12),\n",
      "    Message('note_on', channel=2, note=59, velocity=84, time=0),\n",
      "    Message('note_on', channel=2, note=52, velocity=0, time=168),\n",
      "    Message('note_on', channel=2, note=59, velocity=0, time=0),\n",
      "    Message('note_on', channel=2, note=64, velocity=84, time=12),\n",
      "    Message('note_on', channel=2, note=59, velocity=84, time=0),\n",
      "    Message('note_on', channel=2, note=64, velocity=0, time=168),\n",
      "    Message('note_on', channel=2, note=59, velocity=0, time=0),\n",
      "    Message('note_on', channel=2, note=64, velocity=84, time=12),\n",
      "    Message('note_on', channel=2, note=57, velocity=84, time=0),\n",
      "    Message('note_on', channel=2, note=64, velocity=0, time=168),\n",
      "    Message('note_on', channel=2, note=57, velocity=0, time=0),\n",
      "    Message('note_on', channel=2, note=59, velocity=84, time=12),\n",
      "    Message('note_on', channel=2, note=67, velocity=84, time=0),\n",
      "    Message('note_on', channel=2, note=59, velocity=0, time=168),\n",
      "    Message('note_on', channel=2, note=67, velocity=0, time=0),\n",
      "    Message('note_on', channel=2, note=60, velocity=84, time=12),\n",
      "    Message('note_on', channel=2, note=57, velocity=84, time=0),\n",
      "    Message('note_on', channel=2, note=60, velocity=0, time=168),\n",
      "    Message('note_on', channel=2, note=57, velocity=0, time=0),\n",
      "    Message('note_on', channel=2, note=57, velocity=84, time=12),\n",
      "    Message('note_on', channel=2, note=50, velocity=84, time=0),\n",
      "    Message('note_on', channel=2, note=57, velocity=0, time=336),\n",
      "    Message('note_on', channel=2, note=50, velocity=0, time=0),\n",
      "    Message('note_on', channel=2, note=54, velocity=84, time=24),\n",
      "    Message('note_on', channel=2, note=54, velocity=0, time=168),\n",
      "    Message('note_on', channel=2, note=43, velocity=84, time=12),\n",
      "    Message('note_on', channel=2, note=55, velocity=84, time=0),\n",
      "    Message('note_on', channel=2, note=43, velocity=0, time=168),\n",
      "    Message('note_on', channel=2, note=55, velocity=0, time=0),\n",
      "    Message('note_on', channel=2, note=55, velocity=84, time=12),\n",
      "    Message('note_on', channel=2, note=62, velocity=84, time=0),\n",
      "    Message('note_on', channel=2, note=55, velocity=0, time=168),\n",
      "    Message('note_on', channel=2, note=62, velocity=0, time=0),\n",
      "    Message('note_on', channel=2, note=52, velocity=84, time=12),\n",
      "    Message('note_on', channel=2, note=60, velocity=84, time=0),\n",
      "    Message('note_on', channel=2, note=52, velocity=0, time=168),\n",
      "    Message('note_on', channel=2, note=60, velocity=0, time=0),\n",
      "    Message('note_on', channel=2, note=55, velocity=84, time=12),\n",
      "    Message('note_on', channel=2, note=47, velocity=84, time=0),\n",
      "    Message('note_on', channel=2, note=55, velocity=0, time=168),\n",
      "    Message('note_on', channel=2, note=47, velocity=0, time=0),\n",
      "    Message('note_on', channel=2, note=52, velocity=84, time=12),\n",
      "    Message('note_on', channel=2, note=59, velocity=84, time=0),\n",
      "    Message('note_on', channel=2, note=52, velocity=0, time=168),\n",
      "    Message('note_on', channel=2, note=59, velocity=0, time=0),\n",
      "    Message('note_on', channel=2, note=59, velocity=84, time=12),\n",
      "    Message('note_on', channel=2, note=64, velocity=84, time=0),\n",
      "    Message('note_on', channel=2, note=59, velocity=0, time=168),\n",
      "    Message('note_on', channel=2, note=64, velocity=0, time=0),\n",
      "    Message('note_on', channel=2, note=57, velocity=84, time=12),\n",
      "    Message('note_on', channel=2, note=48, velocity=84, time=0),\n",
      "    Message('note_on', channel=2, note=57, velocity=0, time=336),\n",
      "    Message('note_on', channel=2, note=48, velocity=0, time=0),\n",
      "    Message('note_on', channel=2, note=60, velocity=84, time=24),\n",
      "    Message('note_on', channel=2, note=57, velocity=84, time=0),\n",
      "    Message('note_on', channel=2, note=50, velocity=84, time=0),\n",
      "    Message('note_on', channel=2, note=60, velocity=0, time=168),\n",
      "    Message('note_on', channel=2, note=57, velocity=0, time=0),\n",
      "    Message('note_on', channel=2, note=50, velocity=0, time=0),\n",
      "    Message('note_on', channel=2, note=43, velocity=84, time=12),\n",
      "    Message('note_on', channel=2, note=31, velocity=84, time=0),\n",
      "    Message('note_on', channel=2, note=43, velocity=0, time=528),\n",
      "    Message('note_on', channel=2, note=31, velocity=0, time=0),\n",
      "    MetaMessage('end_of_track', time=0)]),\n",
      "  MidiTrack([\n",
      "    MetaMessage('track_name', name='Arranged by', time=0),\n",
      "    MetaMessage('instrument_name', name='Harpsichord', time=0),\n",
      "    MetaMessage('midi_port', port=0, time=0),\n",
      "    Message('control_change', channel=3, control=0, value=80, time=0),\n",
      "    Message('control_change', channel=3, control=32, value=0, time=0),\n",
      "    Message('program_change', channel=3, program=6, time=0),\n",
      "    Message('note_on', channel=3, note=67, velocity=94, time=60),\n",
      "    Message('note_on', channel=3, note=67, velocity=0, time=48),\n",
      "    Message('note_on', channel=3, note=69, velocity=94, time=12),\n",
      "    Message('note_on', channel=3, note=69, velocity=0, time=48),\n",
      "    Message('note_on', channel=3, note=71, velocity=94, time=12),\n",
      "    Message('note_on', channel=3, note=71, velocity=0, time=48),\n",
      "    Message('note_on', channel=3, note=74, velocity=94, time=12),\n",
      "    Message('note_on', channel=3, note=74, velocity=0, time=48),\n",
      "    Message('note_on', channel=3, note=72, velocity=94, time=12),\n",
      "    Message('note_on', channel=3, note=72, velocity=0, time=48),\n",
      "    Message('note_on', channel=3, note=72, velocity=94, time=12),\n",
      "    Message('note_on', channel=3, note=72, velocity=0, time=48),\n",
      "    Message('note_on', channel=3, note=76, velocity=94, time=12),\n",
      "    Message('note_on', channel=3, note=76, velocity=0, time=48),\n",
      "    Message('note_on', channel=3, note=74, velocity=94, time=12),\n",
      "    Message('note_on', channel=3, note=74, velocity=0, time=48),\n",
      "    Message('note_on', channel=3, note=74, velocity=94, time=12),\n",
      "    Message('note_on', channel=3, note=74, velocity=0, time=48),\n",
      "    Message('note_on', channel=3, note=79, velocity=94, time=12),\n",
      "    Message('note_on', channel=3, note=79, velocity=0, time=48),\n",
      "    Message('note_on', channel=3, note=78, velocity=94, time=12),\n",
      "    Message('note_on', channel=3, note=78, velocity=0, time=48),\n",
      "    Message('note_on', channel=3, note=79, velocity=94, time=12),\n",
      "    Message('note_on', channel=3, note=79, velocity=0, time=48),\n",
      "    Message('note_on', channel=3, note=74, velocity=94, time=12),\n",
      "    Message('note_on', channel=3, note=74, velocity=0, time=48),\n",
      "    Message('note_on', channel=3, note=71, velocity=94, time=12),\n",
      "    Message('note_on', channel=3, note=71, velocity=0, time=48),\n",
      "    Message('note_on', channel=3, note=67, velocity=94, time=12),\n",
      "    Message('note_on', channel=3, note=67, velocity=0, time=48),\n",
      "    Message('note_on', channel=3, note=69, velocity=94, time=12),\n",
      "    Message('note_on', channel=3, note=69, velocity=0, time=48),\n",
      "    Message('note_on', channel=3, note=71, velocity=94, time=12),\n",
      "    Message('note_on', channel=3, note=71, velocity=0, time=48),\n",
      "    Message('note_on', channel=3, note=72, velocity=94, time=12),\n",
      "    Message('note_on', channel=3, note=72, velocity=0, time=48),\n",
      "    Message('note_on', channel=3, note=74, velocity=94, time=12),\n",
      "    Message('note_on', channel=3, note=74, velocity=0, time=48),\n",
      "    Message('note_on', channel=3, note=76, velocity=94, time=12),\n",
      "    Message('note_on', channel=3, note=76, velocity=0, time=48),\n",
      "    Message('note_on', channel=3, note=74, velocity=94, time=12),\n",
      "    Message('note_on', channel=3, note=74, velocity=0, time=48),\n",
      "    Message('note_on', channel=3, note=72, velocity=94, time=12),\n",
      "    Message('note_on', channel=3, note=72, velocity=0, time=48),\n",
      "    Message('note_on', channel=3, note=71, velocity=94, time=12),\n",
      "    Message('note_on', channel=3, note=71, velocity=0, time=48),\n",
      "    Message('note_on', channel=3, note=69, velocity=94, time=12),\n",
      "    Message('note_on', channel=3, note=69, velocity=0, time=48),\n",
      "    Message('note_on', channel=3, note=71, velocity=94, time=12),\n",
      "    Message('note_on', channel=3, note=71, velocity=0, time=48),\n",
      "    Message('note_on', channel=3, note=67, velocity=94, time=12),\n",
      "    Message('note_on', channel=3, note=67, velocity=0, time=48),\n",
      "    Message('note_on', channel=3, note=66, velocity=94, time=12),\n",
      "    Message('note_on', channel=3, note=66, velocity=0, time=48),\n",
      "    Message('note_on', channel=3, note=67, velocity=94, time=12),\n",
      "    Message('note_on', channel=3, note=67, velocity=0, time=48),\n",
      "    Message('note_on', channel=3, note=69, velocity=94, time=12),\n",
      "    Message('note_on', channel=3, note=69, velocity=0, time=48),\n",
      "    Message('note_on', channel=3, note=62, velocity=94, time=12),\n",
      "    Message('note_on', channel=3, note=62, velocity=0, time=48),\n",
      "    Message('note_on', channel=3, note=66, velocity=94, time=12),\n",
      "    Message('note_on', channel=3, note=66, velocity=0, time=48),\n",
      "    Message('note_on', channel=3, note=69, velocity=94, time=12),\n",
      "    Message('note_on', channel=3, note=69, velocity=0, time=48),\n",
      "    Message('note_on', channel=3, note=72, velocity=94, time=12),\n",
      "    Message('note_on', channel=3, note=72, velocity=0, time=48),\n",
      "    Message('note_on', channel=3, note=71, velocity=94, time=12),\n",
      "    Message('note_on', channel=3, note=71, velocity=0, time=48),\n",
      "    Message('note_on', channel=3, note=69, velocity=94, time=12),\n",
      "    Message('note_on', channel=3, note=69, velocity=0, time=48),\n",
      "    Message('note_on', channel=3, note=71, velocity=94, time=12),\n",
      "    Message('note_on', channel=3, note=71, velocity=0, time=48),\n",
      "    Message('note_on', channel=3, note=67, velocity=94, time=12),\n",
      "    Message('note_on', channel=3, note=67, velocity=0, time=48),\n",
      "    Message('note_on', channel=3, note=69, velocity=94, time=12),\n",
      "    Message('note_on', channel=3, note=69, velocity=0, time=48),\n",
      "    Message('note_on', channel=3, note=71, velocity=94, time=12),\n",
      "    Message('note_on', channel=3, note=71, velocity=0, time=48),\n",
      "    Message('note_on', channel=3, note=74, velocity=94, time=12),\n",
      "    Message('note_on', channel=3, note=74, velocity=0, time=48),\n",
      "    Message('note_on', channel=3, note=72, velocity=94, time=12),\n",
      "    Message('note_on', channel=3, note=72, velocity=0, time=48),\n",
      "    Message('note_on', channel=3, note=72, velocity=94, time=12),\n",
      "    Message('note_on', channel=3, note=72, velocity=0, time=48),\n",
      "    Message('note_on', channel=3, note=76, velocity=94, time=12),\n",
      "    Message('note_on', channel=3, note=76, velocity=0, time=48),\n",
      "    Message('note_on', channel=3, note=74, velocity=94, time=12),\n",
      "    Message('note_on', channel=3, note=74, velocity=0, time=48),\n",
      "    Message('note_on', channel=3, note=74, velocity=94, time=12),\n",
      "    Message('note_on', channel=3, note=74, velocity=0, time=48),\n",
      "    Message('note_on', channel=3, note=79, velocity=94, time=12),\n",
      "    Message('note_on', channel=3, note=79, velocity=0, time=48),\n",
      "    Message('note_on', channel=3, note=78, velocity=94, time=12),\n",
      "    Message('note_on', channel=3, note=78, velocity=0, time=48),\n",
      "    Message('note_on', channel=3, note=79, velocity=94, time=12),\n",
      "    Message('note_on', channel=3, note=79, velocity=0, time=48),\n",
      "    Message('note_on', channel=3, note=74, velocity=94, time=12),\n",
      "    Message('note_on', channel=3, note=74, velocity=0, time=48),\n",
      "    Message('note_on', channel=3, note=71, velocity=94, time=12),\n",
      "    Message('note_on', channel=3, note=71, velocity=0, time=48),\n",
      "    Message('note_on', channel=3, note=67, velocity=94, time=12),\n",
      "    Message('note_on', channel=3, note=67, velocity=0, time=48),\n",
      "    Message('note_on', channel=3, note=69, velocity=94, time=12),\n",
      "    Message('note_on', channel=3, note=69, velocity=0, time=48),\n",
      "    Message('note_on', channel=3, note=71, velocity=94, time=12),\n",
      "    Message('note_on', channel=3, note=71, velocity=0, time=48),\n",
      "    Message('note_on', channel=3, note=64, velocity=94, time=12),\n",
      "    Message('note_on', channel=3, note=64, velocity=0, time=48),\n",
      "    Message('note_on', channel=3, note=74, velocity=94, time=12),\n",
      "    Message('note_on', channel=3, note=74, velocity=0, time=48),\n",
      "    Message('note_on', channel=3, note=72, velocity=94, time=12),\n",
      "    Message('note_on', channel=3, note=72, velocity=0, time=48),\n",
      "    Message('note_on', channel=3, note=71, velocity=94, time=12),\n",
      "    Message('note_on', channel=3, note=71, velocity=0, time=48),\n",
      "    Message('note_on', channel=3, note=69, velocity=94, time=12),\n",
      "    Message('note_on', channel=3, note=69, velocity=0, time=48),\n",
      "    Message('note_on', channel=3, note=67, velocity=94, time=12),\n",
      "    Message('note_on', channel=3, note=67, velocity=0, time=48),\n",
      "    Message('note_on', channel=3, note=62, velocity=94, time=12),\n",
      "    Message('note_on', channel=3, note=62, velocity=0, time=48),\n",
      "    Message('note_on', channel=3, note=67, velocity=94, time=12),\n",
      "    Message('note_on', channel=3, note=67, velocity=0, time=48),\n",
      "    Message('note_on', channel=3, note=66, velocity=94, time=12),\n",
      "    Message('note_on', channel=3, note=66, velocity=0, time=48),\n",
      "    Message('note_on', channel=3, note=67, velocity=94, time=12),\n",
      "    Message('note_on', channel=3, note=67, velocity=0, time=48),\n",
      "    Message('note_on', channel=3, note=71, velocity=94, time=12),\n",
      "    Message('note_on', channel=3, note=71, velocity=0, time=48),\n",
      "    Message('note_on', channel=3, note=74, velocity=94, time=12),\n",
      "    Message('note_on', channel=3, note=74, velocity=0, time=48),\n",
      "    Message('note_on', channel=3, note=79, velocity=94, time=12),\n",
      "    Message('note_on', channel=3, note=79, velocity=0, time=48),\n",
      "    Message('note_on', channel=3, note=74, velocity=94, time=12),\n",
      "    Message('note_on', channel=3, note=74, velocity=0, time=48),\n",
      "    Message('note_on', channel=3, note=71, velocity=94, time=12),\n",
      "    Message('note_on', channel=3, note=71, velocity=0, time=48),\n",
      "    Message('note_on', channel=3, note=67, velocity=94, time=12),\n",
      "    Message('note_on', channel=3, note=67, velocity=0, time=48),\n",
      "    Message('note_on', channel=3, note=71, velocity=94, time=12),\n",
      "    Message('note_on', channel=3, note=71, velocity=0, time=48),\n",
      "    Message('note_on', channel=3, note=74, velocity=94, time=12),\n",
      "    Message('note_on', channel=3, note=74, velocity=0, time=48),\n",
      "    Message('note_on', channel=3, note=62, velocity=94, time=12),\n",
      "    Message('note_on', channel=3, note=71, velocity=94, time=0),\n",
      "    Message('note_on', channel=3, note=67, velocity=94, time=0),\n",
      "    Message('note_on', channel=3, note=62, velocity=0, time=336),\n",
      "    Message('note_on', channel=3, note=71, velocity=0, time=0),\n",
      "    Message('note_on', channel=3, note=67, velocity=0, time=0),\n",
      "    Message('note_on', channel=3, note=64, velocity=94, time=24),\n",
      "    Message('note_on', channel=3, note=67, velocity=94, time=0),\n",
      "    Message('note_on', channel=3, note=60, velocity=94, time=0),\n",
      "    Message('note_on', channel=3, note=72, velocity=94, time=0),\n",
      "    Message('note_on', channel=3, note=64, velocity=0, time=168),\n",
      "    Message('note_on', channel=3, note=67, velocity=0, time=0),\n",
      "    Message('note_on', channel=3, note=60, velocity=0, time=0),\n",
      "    Message('note_on', channel=3, note=72, velocity=0, time=0),\n",
      "    Message('note_on', channel=3, note=74, velocity=94, time=12),\n",
      "    Message('note_on', channel=3, note=74, velocity=0, time=336),\n",
      "    Message('note_on', channel=3, note=66, velocity=94, time=24),\n",
      "    Message('note_on', channel=3, note=71, velocity=94, time=0),\n",
      "    Message('note_on', channel=3, note=74, velocity=94, time=0),\n",
      "    Message('note_on', channel=3, note=62, velocity=94, time=0),\n",
      "    Message('note_on', channel=3, note=66, velocity=0, time=168),\n",
      "    Message('note_on', channel=3, note=71, velocity=0, time=0),\n",
      "    Message('note_on', channel=3, note=74, velocity=0, time=0),\n",
      "    Message('note_on', channel=3, note=62, velocity=0, time=0),\n",
      "    Message('note_on', channel=3, note=72, velocity=94, time=12),\n",
      "    Message('note_on', channel=3, note=72, velocity=0, time=336),\n",
      "    Message('note_on', channel=3, note=67, velocity=94, time=24),\n",
      "    Message('note_on', channel=3, note=62, velocity=94, time=0),\n",
      "    Message('note_on', channel=3, note=71, velocity=94, time=0),\n",
      "    Message('note_on', channel=3, note=67, velocity=0, time=168),\n",
      "    Message('note_on', channel=3, note=62, velocity=0, time=0),\n",
      "    Message('note_on', channel=3, note=71, velocity=0, time=0),\n",
      "    Message('note_on', channel=3, note=66, velocity=94, time=12),\n",
      "    Message('note_on', channel=3, note=69, velocity=94, time=0),\n",
      "    Message('note_on', channel=3, note=66, velocity=0, time=48),\n",
      "    Message('note_on', channel=3, note=69, velocity=0, time=0),\n",
      "    Message('note_on', channel=3, note=62, velocity=94, time=12),\n",
      "    Message('note_on', channel=3, note=62, velocity=0, time=48),\n",
      "    Message('note_on', channel=3, note=64, velocity=94, time=12),\n",
      "    Message('note_on', channel=3, note=64, velocity=0, time=48),\n",
      "    Message('note_on', channel=3, note=66, velocity=94, time=12),\n",
      "    Message('note_on', channel=3, note=69, velocity=94, time=0),\n",
      "    Message('note_on', channel=3, note=66, velocity=0, time=48),\n",
      "    Message('note_on', channel=3, note=69, velocity=0, time=0),\n",
      "    Message('note_on', channel=3, note=69, velocity=94, time=12),\n",
      "    Message('note_on', channel=3, note=69, velocity=0, time=48),\n",
      "    Message('note_on', channel=3, note=67, velocity=94, time=12),\n",
      "    Message('note_on', channel=3, note=67, velocity=0, time=48),\n",
      "    Message('note_on', channel=3, note=69, velocity=94, time=12),\n",
      "    Message('note_on', channel=3, note=69, velocity=0, time=48),\n",
      "    Message('note_on', channel=3, note=72, velocity=94, time=12),\n",
      "    Message('note_on', channel=3, note=72, velocity=0, time=48),\n",
      "    Message('note_on', channel=3, note=71, velocity=94, time=12),\n",
      "    Message('note_on', channel=3, note=71, velocity=0, time=48),\n",
      "    Message('note_on', channel=3, note=72, velocity=94, time=12),\n",
      "    Message('note_on', channel=3, note=72, velocity=0, time=48),\n",
      "    Message('note_on', channel=3, note=69, velocity=94, time=12),\n",
      "    Message('note_on', channel=3, note=69, velocity=0, time=48),\n",
      "    Message('note_on', channel=3, note=66, velocity=94, time=12),\n",
      "    Message('note_on', channel=3, note=66, velocity=0, time=48),\n",
      "    Message('note_on', channel=3, note=62, velocity=94, time=12),\n",
      "    Message('note_on', channel=3, note=62, velocity=0, time=48),\n",
      "    Message('note_on', channel=3, note=66, velocity=94, time=12),\n",
      "    Message('note_on', channel=3, note=66, velocity=0, time=48),\n",
      "    Message('note_on', channel=3, note=69, velocity=94, time=12),\n",
      "    Message('note_on', channel=3, note=69, velocity=0, time=48),\n",
      "    Message('note_on', channel=3, note=72, velocity=94, time=12),\n",
      "    Message('note_on', channel=3, note=72, velocity=0, time=48),\n",
      "    Message('note_on', channel=3, note=71, velocity=94, time=12),\n",
      "    Message('note_on', channel=3, note=71, velocity=0, time=48),\n",
      "    Message('note_on', channel=3, note=69, velocity=94, time=12),\n",
      "    Message('note_on', channel=3, note=69, velocity=0, time=48),\n",
      "    Message('note_on', channel=3, note=67, velocity=94, time=12),\n",
      "    Message('note_on', channel=3, note=71, velocity=94, time=0),\n",
      "    Message('note_on', channel=3, note=67, velocity=0, time=336),\n",
      "    Message('note_on', channel=3, note=71, velocity=0, time=0),\n",
      "    Message('note_on', channel=3, note=64, velocity=94, time=24),\n",
      "    Message('note_on', channel=3, note=72, velocity=94, time=0),\n",
      "    Message('note_on', channel=3, note=67, velocity=94, time=0),\n",
      "    Message('note_on', channel=3, note=60, velocity=94, time=0),\n",
      "    Message('note_on', channel=3, note=64, velocity=0, time=168),\n",
      "    Message('note_on', channel=3, note=72, velocity=0, time=0),\n",
      "    Message('note_on', channel=3, note=67, velocity=0, time=0),\n",
      "    Message('note_on', channel=3, note=60, velocity=0, time=0),\n",
      "    Message('note_on', channel=3, note=67, velocity=94, time=12),\n",
      "    Message('note_on', channel=3, note=62, velocity=94, time=0),\n",
      "    Message('note_on', channel=3, note=74, velocity=94, time=0),\n",
      "    Message('note_on', channel=3, note=67, velocity=0, time=336),\n",
      "    Message('note_on', channel=3, note=62, velocity=0, time=0),\n",
      "    Message('note_on', channel=3, note=74, velocity=0, time=0),\n",
      "    Message('note_on', channel=3, note=67, velocity=94, time=24),\n",
      "    Message('note_on', channel=3, note=64, velocity=94, time=0),\n",
      "    Message('note_on', channel=3, note=71, velocity=94, time=0),\n",
      "    Message('note_on', channel=3, note=67, velocity=0, time=168),\n",
      "    Message('note_on', channel=3, note=64, velocity=0, time=0),\n",
      "    Message('note_on', channel=3, note=71, velocity=0, time=0),\n",
      "    Message('note_on', channel=3, note=69, velocity=53, time=12),\n",
      "    Message('note_on', channel=3, note=69, velocity=0, time=116),\n",
      "    Message('note_on', channel=3, note=71, velocity=64, time=4),\n",
      "    Message('note_on', channel=3, note=72, velocity=58, time=30),\n",
      "    Message('note_on', channel=3, note=71, velocity=0, time=14),\n",
      "    Message('note_on', channel=3, note=71, velocity=55, time=16),\n",
      "    Message('note_on', channel=3, note=66, velocity=57, time=0),\n",
      "    Message('note_on', channel=3, note=62, velocity=45, time=0),\n",
      "    Message('note_on', channel=3, note=72, velocity=0, time=14),\n",
      "    Message('note_on', channel=3, note=66, velocity=45, time=166),\n",
      "    Message('note_on', channel=3, note=60, velocity=36, time=0),\n",
      "    Message('note_on', channel=3, note=69, velocity=35, time=0),\n",
      "    Message('note_on', channel=3, note=71, velocity=0, time=8),\n",
      "    Message('note_on', channel=3, note=66, velocity=0, time=0),\n",
      "    Message('note_on', channel=3, note=62, velocity=0, time=0),\n",
      "    Message('note_on', channel=3, note=67, velocity=94, time=172),\n",
      "    Message('note_on', channel=3, note=66, velocity=0, time=8),\n",
      "    Message('note_on', channel=3, note=60, velocity=0, time=0),\n",
      "    Message('note_on', channel=3, note=69, velocity=0, time=0),\n",
      "    Message('note_on', channel=3, note=67, velocity=0, time=40),\n",
      "    Message('note_on', channel=3, note=71, velocity=94, time=12),\n",
      "    Message('note_on', channel=3, note=71, velocity=0, time=48),\n",
      "    Message('note_on', channel=3, note=69, velocity=94, time=12),\n",
      "    Message('note_on', channel=3, note=69, velocity=0, time=48),\n",
      "    Message('note_on', channel=3, note=71, velocity=94, time=12),\n",
      "    Message('note_on', channel=3, note=71, velocity=0, time=48),\n",
      "    Message('note_on', channel=3, note=74, velocity=94, time=12),\n",
      "    Message('note_on', channel=3, note=74, velocity=0, time=48),\n",
      "    Message('note_on', channel=3, note=72, velocity=94, time=12),\n",
      "    Message('note_on', channel=3, note=72, velocity=0, time=48),\n",
      "    Message('note_on', channel=3, note=72, velocity=94, time=12),\n",
      "    Message('note_on', channel=3, note=72, velocity=0, time=48),\n",
      "    Message('note_on', channel=3, note=76, velocity=94, time=12),\n",
      "    Message('note_on', channel=3, note=76, velocity=0, time=48),\n",
      "    Message('note_on', channel=3, note=74, velocity=94, time=12),\n",
      "    Message('note_on', channel=3, note=74, velocity=0, time=48),\n",
      "    Message('note_on', channel=3, note=74, velocity=94, time=12),\n",
      "    Message('note_on', channel=3, note=74, velocity=0, time=48),\n",
      "    Message('note_on', channel=3, note=79, velocity=94, time=12),\n",
      "    Message('note_on', channel=3, note=79, velocity=0, time=48),\n",
      "    Message('note_on', channel=3, note=78, velocity=94, time=12),\n",
      "    Message('note_on', channel=3, note=78, velocity=0, time=48),\n",
      "    Message('note_on', channel=3, note=79, velocity=94, time=12),\n",
      "    Message('note_on', channel=3, note=79, velocity=0, time=48),\n",
      "    Message('note_on', channel=3, note=74, velocity=94, time=12),\n",
      "    Message('note_on', channel=3, note=74, velocity=0, time=48),\n",
      "    Message('note_on', channel=3, note=71, velocity=94, time=12),\n",
      "    Message('note_on', channel=3, note=71, velocity=0, time=48),\n",
      "    Message('note_on', channel=3, note=67, velocity=94, time=12),\n",
      "    Message('note_on', channel=3, note=67, velocity=0, time=48),\n",
      "    Message('note_on', channel=3, note=69, velocity=94, time=12),\n",
      "    Message('note_on', channel=3, note=69, velocity=0, time=48),\n",
      "    Message('note_on', channel=3, note=71, velocity=94, time=12),\n",
      "    Message('note_on', channel=3, note=71, velocity=0, time=48),\n",
      "    Message('note_on', channel=3, note=72, velocity=94, time=12),\n",
      "    Message('note_on', channel=3, note=72, velocity=0, time=48),\n",
      "    Message('note_on', channel=3, note=74, velocity=94, time=12),\n",
      "    Message('note_on', channel=3, note=74, velocity=0, time=48),\n",
      "    Message('note_on', channel=3, note=76, velocity=94, time=12),\n",
      "    Message('note_on', channel=3, note=76, velocity=0, time=48),\n",
      "    Message('note_on', channel=3, note=74, velocity=94, time=12),\n",
      "    Message('note_on', channel=3, note=74, velocity=0, time=48),\n",
      "    Message('note_on', channel=3, note=72, velocity=94, time=12),\n",
      "    Message('note_on', channel=3, note=72, velocity=0, time=48),\n",
      "    Message('note_on', channel=3, note=71, velocity=94, time=12),\n",
      "    Message('note_on', channel=3, note=71, velocity=0, time=48),\n",
      "    Message('note_on', channel=3, note=69, velocity=94, time=12),\n",
      "    Message('note_on', channel=3, note=69, velocity=0, time=48),\n",
      "    Message('note_on', channel=3, note=71, velocity=94, time=12),\n",
      "    Message('note_on', channel=3, note=71, velocity=0, time=48),\n",
      "    Message('note_on', channel=3, note=67, velocity=94, time=12),\n",
      "    Message('note_on', channel=3, note=67, velocity=0, time=48),\n",
      "    Message('note_on', channel=3, note=66, velocity=94, time=12),\n",
      "    Message('note_on', channel=3, note=66, velocity=0, time=48),\n",
      "    Message('note_on', channel=3, note=67, velocity=94, time=12),\n",
      "    Message('note_on', channel=3, note=67, velocity=0, time=48),\n",
      "    Message('note_on', channel=3, note=69, velocity=94, time=12),\n",
      "    Message('note_on', channel=3, note=69, velocity=0, time=48),\n",
      "    Message('note_on', channel=3, note=62, velocity=94, time=12),\n",
      "    Message('note_on', channel=3, note=62, velocity=0, time=48),\n",
      "    Message('note_on', channel=3, note=66, velocity=94, time=12),\n",
      "    Message('note_on', channel=3, note=66, velocity=0, time=48),\n",
      "    Message('note_on', channel=3, note=69, velocity=94, time=12),\n",
      "    Message('note_on', channel=3, note=69, velocity=0, time=48),\n",
      "    Message('note_on', channel=3, note=72, velocity=94, time=12),\n",
      "    Message('note_on', channel=3, note=72, velocity=0, time=48),\n",
      "    Message('note_on', channel=3, note=71, velocity=94, time=12),\n",
      "    Message('note_on', channel=3, note=71, velocity=0, time=48),\n",
      "    Message('note_on', channel=3, note=69, velocity=94, time=12),\n",
      "    Message('note_on', channel=3, note=69, velocity=0, time=48),\n",
      "    Message('note_on', channel=3, note=71, velocity=94, time=12),\n",
      "    Message('note_on', channel=3, note=71, velocity=0, time=48),\n",
      "    Message('note_on', channel=3, note=67, velocity=94, time=12),\n",
      "    Message('note_on', channel=3, note=67, velocity=0, time=48),\n",
      "    Message('note_on', channel=3, note=69, velocity=94, time=12),\n",
      "    Message('note_on', channel=3, note=69, velocity=0, time=48),\n",
      "    Message('note_on', channel=3, note=71, velocity=94, time=12),\n",
      "    Message('note_on', channel=3, note=71, velocity=0, time=48),\n",
      "    Message('note_on', channel=3, note=74, velocity=94, time=12),\n",
      "    Message('note_on', channel=3, note=74, velocity=0, time=48),\n",
      "    Message('note_on', channel=3, note=72, velocity=94, time=12),\n",
      "    Message('note_on', channel=3, note=72, velocity=0, time=48),\n",
      "    Message('note_on', channel=3, note=72, velocity=94, time=12),\n",
      "    Message('note_on', channel=3, note=72, velocity=0, time=48),\n",
      "    Message('note_on', channel=3, note=76, velocity=94, time=12),\n",
      "    Message('note_on', channel=3, note=76, velocity=0, time=48),\n",
      "    Message('note_on', channel=3, note=74, velocity=94, time=12),\n",
      "    Message('note_on', channel=3, note=74, velocity=0, time=48),\n",
      "    Message('note_on', channel=3, note=74, velocity=94, time=12),\n",
      "    Message('note_on', channel=3, note=74, velocity=0, time=48),\n",
      "    Message('note_on', channel=3, note=79, velocity=94, time=12),\n",
      "    Message('note_on', channel=3, note=79, velocity=0, time=48),\n",
      "    Message('note_on', channel=3, note=78, velocity=94, time=12),\n",
      "    Message('note_on', channel=3, note=78, velocity=0, time=48),\n",
      "    Message('note_on', channel=3, note=79, velocity=94, time=12),\n",
      "    Message('note_on', channel=3, note=79, velocity=0, time=48),\n",
      "    Message('note_on', channel=3, note=74, velocity=94, time=12),\n",
      "    Message('note_on', channel=3, note=74, velocity=0, time=48),\n",
      "    Message('note_on', channel=3, note=71, velocity=94, time=12),\n",
      "    Message('note_on', channel=3, note=71, velocity=0, time=48),\n",
      "    Message('note_on', channel=3, note=67, velocity=94, time=12),\n",
      "    Message('note_on', channel=3, note=67, velocity=0, time=48),\n",
      "    Message('note_on', channel=3, note=69, velocity=94, time=12),\n",
      "    Message('note_on', channel=3, note=69, velocity=0, time=48),\n",
      "    Message('note_on', channel=3, note=71, velocity=94, time=12),\n",
      "    Message('note_on', channel=3, note=71, velocity=0, time=48),\n",
      "    Message('note_on', channel=3, note=64, velocity=94, time=12),\n",
      "    Message('note_on', channel=3, note=64, velocity=0, time=48),\n",
      "    Message('note_on', channel=3, note=74, velocity=94, time=12),\n",
      "    Message('note_on', channel=3, note=74, velocity=0, time=48),\n",
      "    Message('note_on', channel=3, note=72, velocity=94, time=12),\n",
      "    Message('note_on', channel=3, note=72, velocity=0, time=48),\n",
      "    Message('note_on', channel=3, note=71, velocity=94, time=12),\n",
      "    Message('note_on', channel=3, note=71, velocity=0, time=48),\n",
      "    Message('note_on', channel=3, note=69, velocity=94, time=12),\n",
      "    Message('note_on', channel=3, note=69, velocity=0, time=48),\n",
      "    Message('note_on', channel=3, note=67, velocity=94, time=12),\n",
      "    Message('note_on', channel=3, note=67, velocity=0, time=48),\n",
      "    Message('note_on', channel=3, note=62, velocity=94, time=12),\n",
      "    Message('note_on', channel=3, note=62, velocity=0, time=48),\n",
      "    Message('note_on', channel=3, note=67, velocity=94, time=12),\n",
      "    Message('note_on', channel=3, note=67, velocity=0, time=48),\n",
      "    Message('note_on', channel=3, note=66, velocity=94, time=12),\n",
      "    Message('note_on', channel=3, note=66, velocity=0, time=48),\n",
      "    Message('note_on', channel=3, note=67, velocity=94, time=12),\n",
      "    Message('note_on', channel=3, note=71, velocity=94, time=0),\n",
      "    Message('note_on', channel=3, note=67, velocity=0, time=336),\n",
      "    Message('note_on', channel=3, note=71, velocity=0, time=0),\n",
      "    Message('note_on', channel=3, note=64, velocity=94, time=24),\n",
      "    Message('note_on', channel=3, note=60, velocity=94, time=0),\n",
      "    Message('note_on', channel=3, note=67, velocity=94, time=0),\n",
      "    Message('note_on', channel=3, note=72, velocity=94, time=0),\n",
      "    Message('note_on', channel=3, note=64, velocity=0, time=168),\n",
      "    Message('note_on', channel=3, note=60, velocity=0, time=0),\n",
      "    Message('note_on', channel=3, note=67, velocity=0, time=0),\n",
      "    Message('note_on', channel=3, note=72, velocity=0, time=0),\n",
      "    Message('note_on', channel=3, note=74, velocity=94, time=12),\n",
      "    Message('note_on', channel=3, note=74, velocity=0, time=336),\n",
      "    Message('note_on', channel=3, note=66, velocity=94, time=24),\n",
      "    Message('note_on', channel=3, note=71, velocity=94, time=0),\n",
      "    Message('note_on', channel=3, note=74, velocity=94, time=0),\n",
      "    Message('note_on', channel=3, note=62, velocity=94, time=0),\n",
      "    Message('note_on', channel=3, note=66, velocity=0, time=168),\n",
      "    Message('note_on', channel=3, note=71, velocity=0, time=0),\n",
      "    Message('note_on', channel=3, note=74, velocity=0, time=0),\n",
      "    Message('note_on', channel=3, note=62, velocity=0, time=0),\n",
      "    Message('note_on', channel=3, note=72, velocity=94, time=12),\n",
      "    Message('note_on', channel=3, note=72, velocity=0, time=336),\n",
      "    Message('note_on', channel=3, note=67, velocity=94, time=24),\n",
      "    Message('note_on', channel=3, note=62, velocity=94, time=0),\n",
      "    Message('note_on', channel=3, note=71, velocity=94, time=0),\n",
      "    Message('note_on', channel=3, note=67, velocity=0, time=168),\n",
      "    Message('note_on', channel=3, note=62, velocity=0, time=0),\n",
      "    Message('note_on', channel=3, note=71, velocity=0, time=0),\n",
      "    Message('note_on', channel=3, note=66, velocity=94, time=12),\n",
      "    Message('note_on', channel=3, note=69, velocity=94, time=0),\n",
      "    Message('note_on', channel=3, note=66, velocity=0, time=48),\n",
      "    Message('note_on', channel=3, note=69, velocity=0, time=0),\n",
      "    Message('note_on', channel=3, note=62, velocity=94, time=12),\n",
      "    Message('note_on', channel=3, note=62, velocity=0, time=48),\n",
      "    Message('note_on', channel=3, note=64, velocity=94, time=12),\n",
      "    Message('note_on', channel=3, note=64, velocity=0, time=48),\n",
      "    Message('note_on', channel=3, note=66, velocity=94, time=12),\n",
      "    Message('note_on', channel=3, note=69, velocity=94, time=0),\n",
      "    Message('note_on', channel=3, note=66, velocity=0, time=48),\n",
      "    Message('note_on', channel=3, note=69, velocity=0, time=0),\n",
      "    Message('note_on', channel=3, note=69, velocity=94, time=12),\n",
      "    Message('note_on', channel=3, note=69, velocity=0, time=48),\n",
      "    Message('note_on', channel=3, note=67, velocity=94, time=12),\n",
      "    Message('note_on', channel=3, note=67, velocity=0, time=48),\n",
      "    Message('note_on', channel=3, note=69, velocity=94, time=12),\n",
      "    Message('note_on', channel=3, note=69, velocity=0, time=48),\n",
      "    Message('note_on', channel=3, note=72, velocity=94, time=12),\n",
      "    Message('note_on', channel=3, note=72, velocity=0, time=48),\n",
      "    Message('note_on', channel=3, note=71, velocity=94, time=12),\n",
      "    Message('note_on', channel=3, note=71, velocity=0, time=48),\n",
      "    Message('note_on', channel=3, note=72, velocity=94, time=12),\n",
      "    Message('note_on', channel=3, note=72, velocity=0, time=48),\n",
      "    Message('note_on', channel=3, note=69, velocity=94, time=12),\n",
      "    Message('note_on', channel=3, note=69, velocity=0, time=48),\n",
      "    Message('note_on', channel=3, note=66, velocity=94, time=12),\n",
      "    Message('note_on', channel=3, note=66, velocity=0, time=48),\n",
      "    Message('note_on', channel=3, note=62, velocity=94, time=12),\n",
      "    Message('note_on', channel=3, note=62, velocity=0, time=48),\n",
      "    Message('note_on', channel=3, note=66, velocity=94, time=12),\n",
      "    Message('note_on', channel=3, note=66, velocity=0, time=48),\n",
      "    Message('note_on', channel=3, note=69, velocity=94, time=12),\n",
      "    Message('note_on', channel=3, note=69, velocity=0, time=48),\n",
      "    Message('note_on', channel=3, note=72, velocity=94, time=12),\n",
      "    Message('note_on', channel=3, note=72, velocity=0, time=48),\n",
      "    Message('note_on', channel=3, note=71, velocity=94, time=12),\n",
      "    Message('note_on', channel=3, note=71, velocity=0, time=48),\n",
      "    Message('note_on', channel=3, note=69, velocity=94, time=12),\n",
      "    Message('note_on', channel=3, note=69, velocity=0, time=48),\n",
      "    Message('note_on', channel=3, note=71, velocity=94, time=12),\n",
      "    Message('note_on', channel=3, note=67, velocity=94, time=0),\n",
      "    Message('note_on', channel=3, note=71, velocity=0, time=336),\n",
      "    Message('note_on', channel=3, note=67, velocity=0, time=0),\n",
      "    Message('note_on', channel=3, note=64, velocity=94, time=24),\n",
      "    Message('note_on', channel=3, note=60, velocity=94, time=0),\n",
      "    Message('note_on', channel=3, note=67, velocity=94, time=0),\n",
      "    Message('note_on', channel=3, note=72, velocity=94, time=0),\n",
      "    Message('note_on', channel=3, note=64, velocity=0, time=168),\n",
      "    Message('note_on', channel=3, note=60, velocity=0, time=0),\n",
      "    Message('note_on', channel=3, note=67, velocity=0, time=0),\n",
      "    Message('note_on', channel=3, note=72, velocity=0, time=0),\n",
      "    Message('note_on', channel=3, note=67, velocity=94, time=12),\n",
      "    Message('note_on', channel=3, note=74, velocity=94, time=0),\n",
      "    Message('note_on', channel=3, note=62, velocity=94, time=0),\n",
      "    Message('note_on', channel=3, note=67, velocity=0, time=336),\n",
      "    Message('note_on', channel=3, note=74, velocity=0, time=0),\n",
      "    Message('note_on', channel=3, note=62, velocity=0, time=0),\n",
      "    Message('note_on', channel=3, note=67, velocity=94, time=24),\n",
      "    Message('note_on', channel=3, note=64, velocity=94, time=0),\n",
      "    Message('note_on', channel=3, note=71, velocity=94, time=0),\n",
      "    Message('note_on', channel=3, note=67, velocity=0, time=168),\n",
      "    Message('note_on', channel=3, note=64, velocity=0, time=0),\n",
      "    Message('note_on', channel=3, note=71, velocity=0, time=0),\n",
      "    Message('note_on', channel=3, note=69, velocity=94, time=12),\n",
      "    Message('note_on', channel=3, note=69, velocity=0, time=116),\n",
      "    Message('note_on', channel=3, note=71, velocity=94, time=4),\n",
      "    Message('note_on', channel=3, note=72, velocity=94, time=30),\n",
      "    Message('note_on', channel=3, note=71, velocity=0, time=14),\n",
      "    Message('note_on', channel=3, note=66, velocity=94, time=16),\n",
      "    Message('note_on', channel=3, note=71, velocity=94, time=0),\n",
      "    Message('note_on', channel=3, note=62, velocity=94, time=0),\n",
      "    Message('note_on', channel=3, note=72, velocity=0, time=14),\n",
      "    Message('note_on', channel=3, note=66, velocity=0, time=154),\n",
      "    Message('note_on', channel=3, note=71, velocity=0, time=0),\n",
      "    Message('note_on', channel=3, note=62, velocity=0, time=0),\n",
      "    Message('note_on', channel=3, note=66, velocity=94, time=12),\n",
      "    Message('note_on', channel=3, note=60, velocity=94, time=0),\n",
      "    Message('note_on', channel=3, note=69, velocity=94, time=0),\n",
      "    Message('note_on', channel=3, note=66, velocity=0, time=168),\n",
      "    Message('note_on', channel=3, note=60, velocity=0, time=0),\n",
      "    Message('note_on', channel=3, note=69, velocity=0, time=0),\n",
      "    Message('note_on', channel=3, note=67, velocity=94, time=12),\n",
      "    Message('note_on', channel=3, note=67, velocity=0, time=48),\n",
      "    Message('note_on', channel=3, note=71, velocity=94, time=12),\n",
      "    Message('note_on', channel=3, note=71, velocity=0, time=48),\n",
      "    Message('note_on', channel=3, note=69, velocity=94, time=12),\n",
      "    Message('note_on', channel=3, note=69, velocity=0, time=48),\n",
      "    Message('note_on', channel=3, note=71, velocity=94, time=12),\n",
      "    Message('note_on', channel=3, note=71, velocity=0, time=48),\n",
      "    Message('note_on', channel=3, note=74, velocity=94, time=12),\n",
      "    Message('note_on', channel=3, note=74, velocity=0, time=48),\n",
      "    Message('note_on', channel=3, note=72, velocity=94, time=12),\n",
      "    Message('note_on', channel=3, note=72, velocity=0, time=48),\n",
      "    Message('note_on', channel=3, note=72, velocity=94, time=12),\n",
      "    Message('note_on', channel=3, note=72, velocity=0, time=48),\n",
      "    Message('note_on', channel=3, note=76, velocity=94, time=12),\n",
      "    Message('note_on', channel=3, note=76, velocity=0, time=48),\n",
      "    Message('note_on', channel=3, note=74, velocity=94, time=12),\n",
      "    Message('note_on', channel=3, note=74, velocity=0, time=48),\n",
      "    Message('note_on', channel=3, note=74, velocity=94, time=12),\n",
      "    Message('note_on', channel=3, note=74, velocity=0, time=48),\n",
      "    Message('note_on', channel=3, note=79, velocity=94, time=12),\n",
      "    Message('note_on', channel=3, note=79, velocity=0, time=48),\n",
      "    Message('note_on', channel=3, note=78, velocity=94, time=12),\n",
      "    Message('note_on', channel=3, note=78, velocity=0, time=48),\n",
      "    Message('note_on', channel=3, note=79, velocity=94, time=12),\n",
      "    Message('note_on', channel=3, note=79, velocity=0, time=48),\n",
      "    Message('note_on', channel=3, note=74, velocity=94, time=12),\n",
      "    Message('note_on', channel=3, note=74, velocity=0, time=48),\n",
      "    Message('note_on', channel=3, note=71, velocity=94, time=12),\n",
      "    Message('note_on', channel=3, note=71, velocity=0, time=48),\n",
      "    Message('note_on', channel=3, note=67, velocity=94, time=12),\n",
      "    Message('note_on', channel=3, note=67, velocity=0, time=48),\n",
      "    Message('note_on', channel=3, note=69, velocity=94, time=12),\n",
      "    Message('note_on', channel=3, note=69, velocity=0, time=48),\n",
      "    Message('note_on', channel=3, note=71, velocity=94, time=12),\n",
      "    Message('note_on', channel=3, note=71, velocity=0, time=48),\n",
      "    Message('note_on', channel=3, note=72, velocity=94, time=12),\n",
      "    Message('note_on', channel=3, note=72, velocity=0, time=48),\n",
      "    Message('note_on', channel=3, note=74, velocity=94, time=12),\n",
      "    Message('note_on', channel=3, note=74, velocity=0, time=48),\n",
      "    Message('note_on', channel=3, note=76, velocity=94, time=12),\n",
      "    Message('note_on', channel=3, note=76, velocity=0, time=48),\n",
      "    Message('note_on', channel=3, note=74, velocity=94, time=12),\n",
      "    Message('note_on', channel=3, note=74, velocity=0, time=48),\n",
      "    Message('note_on', channel=3, note=72, velocity=94, time=12),\n",
      "    Message('note_on', channel=3, note=72, velocity=0, time=48),\n",
      "    Message('note_on', channel=3, note=71, velocity=94, time=12),\n",
      "    Message('note_on', channel=3, note=71, velocity=0, time=48),\n",
      "    Message('note_on', channel=3, note=69, velocity=94, time=12),\n",
      "    Message('note_on', channel=3, note=69, velocity=0, time=48),\n",
      "    Message('note_on', channel=3, note=71, velocity=94, time=12),\n",
      "    Message('note_on', channel=3, note=71, velocity=0, time=48),\n",
      "    Message('note_on', channel=3, note=67, velocity=94, time=12),\n",
      "    Message('note_on', channel=3, note=67, velocity=0, time=48),\n",
      "    Message('note_on', channel=3, note=66, velocity=94, time=12),\n",
      "    Message('note_on', channel=3, note=66, velocity=0, time=48),\n",
      "    Message('note_on', channel=3, note=67, velocity=94, time=12),\n",
      "    Message('note_on', channel=3, note=67, velocity=0, time=48),\n",
      "    Message('note_on', channel=3, note=69, velocity=94, time=12),\n",
      "    Message('note_on', channel=3, note=69, velocity=0, time=48),\n",
      "    Message('note_on', channel=3, note=62, velocity=94, time=12),\n",
      "    Message('note_on', channel=3, note=62, velocity=0, time=48),\n",
      "    Message('note_on', channel=3, note=66, velocity=94, time=12),\n",
      "    Message('note_on', channel=3, note=66, velocity=0, time=48),\n",
      "    Message('note_on', channel=3, note=69, velocity=94, time=12),\n",
      "    Message('note_on', channel=3, note=69, velocity=0, time=48),\n",
      "    Message('note_on', channel=3, note=72, velocity=94, time=12),\n",
      "    Message('note_on', channel=3, note=72, velocity=0, time=48),\n",
      "    Message('note_on', channel=3, note=71, velocity=94, time=12),\n",
      "    Message('note_on', channel=3, note=71, velocity=0, time=48),\n",
      "    Message('note_on', channel=3, note=69, velocity=94, time=12),\n",
      "    Message('note_on', channel=3, note=69, velocity=0, time=48),\n",
      "    Message('note_on', channel=3, note=71, velocity=94, time=12),\n",
      "    Message('note_on', channel=3, note=71, velocity=0, time=48),\n",
      "    Message('note_on', channel=3, note=67, velocity=94, time=12),\n",
      "    Message('note_on', channel=3, note=67, velocity=0, time=48),\n",
      "    Message('note_on', channel=3, note=69, velocity=94, time=12),\n",
      "    Message('note_on', channel=3, note=69, velocity=0, time=48),\n",
      "    Message('note_on', channel=3, note=71, velocity=94, time=12),\n",
      "    Message('note_on', channel=3, note=71, velocity=0, time=48),\n",
      "    Message('note_on', channel=3, note=74, velocity=94, time=12),\n",
      "    Message('note_on', channel=3, note=74, velocity=0, time=48),\n",
      "    Message('note_on', channel=3, note=72, velocity=94, time=12),\n",
      "    Message('note_on', channel=3, note=72, velocity=0, time=48),\n",
      "    Message('note_on', channel=3, note=72, velocity=94, time=12),\n",
      "    Message('note_on', channel=3, note=72, velocity=0, time=48),\n",
      "    Message('note_on', channel=3, note=76, velocity=94, time=12),\n",
      "    Message('note_on', channel=3, note=76, velocity=0, time=48),\n",
      "    Message('note_on', channel=3, note=74, velocity=94, time=12),\n",
      "    Message('note_on', channel=3, note=74, velocity=0, time=48),\n",
      "    Message('note_on', channel=3, note=74, velocity=94, time=12),\n",
      "    Message('note_on', channel=3, note=74, velocity=0, time=48),\n",
      "    Message('note_on', channel=3, note=79, velocity=94, time=12),\n",
      "    Message('note_on', channel=3, note=79, velocity=0, time=48),\n",
      "    Message('note_on', channel=3, note=78, velocity=94, time=12),\n",
      "    Message('note_on', channel=3, note=78, velocity=0, time=48),\n",
      "    Message('note_on', channel=3, note=79, velocity=94, time=12),\n",
      "    Message('note_on', channel=3, note=79, velocity=0, time=48),\n",
      "    Message('note_on', channel=3, note=74, velocity=94, time=12),\n",
      "    Message('note_on', channel=3, note=74, velocity=0, time=48),\n",
      "    Message('note_on', channel=3, note=71, velocity=94, time=12),\n",
      "    Message('note_on', channel=3, note=71, velocity=0, time=48),\n",
      "    Message('note_on', channel=3, note=67, velocity=94, time=12),\n",
      "    Message('note_on', channel=3, note=67, velocity=0, time=48),\n",
      "    Message('note_on', channel=3, note=69, velocity=94, time=12),\n",
      "    Message('note_on', channel=3, note=69, velocity=0, time=48),\n",
      "    Message('note_on', channel=3, note=71, velocity=94, time=12),\n",
      "    Message('note_on', channel=3, note=71, velocity=0, time=48),\n",
      "    Message('note_on', channel=3, note=64, velocity=94, time=12),\n",
      "    Message('note_on', channel=3, note=64, velocity=0, time=48),\n",
      "    Message('note_on', channel=3, note=74, velocity=94, time=12),\n",
      "    Message('note_on', channel=3, note=74, velocity=0, time=48),\n",
      "    Message('note_on', channel=3, note=72, velocity=94, time=12),\n",
      "    Message('note_on', channel=3, note=72, velocity=0, time=48),\n",
      "    Message('note_on', channel=3, note=71, velocity=94, time=12),\n",
      "    Message('note_on', channel=3, note=71, velocity=0, time=48),\n",
      "    Message('note_on', channel=3, note=69, velocity=94, time=12),\n",
      "    Message('note_on', channel=3, note=69, velocity=0, time=48),\n",
      "    Message('note_on', channel=3, note=67, velocity=94, time=12),\n",
      "    Message('note_on', channel=3, note=67, velocity=0, time=48),\n",
      "    Message('note_on', channel=3, note=62, velocity=94, time=12),\n",
      "    Message('note_on', channel=3, note=62, velocity=0, time=48),\n",
      "    Message('note_on', channel=3, note=67, velocity=94, time=12),\n",
      "    Message('note_on', channel=3, note=67, velocity=0, time=48),\n",
      "    Message('note_on', channel=3, note=66, velocity=94, time=12),\n",
      "    Message('note_on', channel=3, note=66, velocity=0, time=48),\n",
      "    Message('note_on', channel=3, note=67, velocity=94, time=12),\n",
      "    Message('note_on', channel=3, note=67, velocity=0, time=48),\n",
      "    Message('note_on', channel=3, note=71, velocity=94, time=12),\n",
      "    Message('note_on', channel=3, note=71, velocity=0, time=48),\n",
      "    Message('note_on', channel=3, note=74, velocity=94, time=12),\n",
      "    Message('note_on', channel=3, note=74, velocity=0, time=48),\n",
      "    Message('note_on', channel=3, note=79, velocity=94, time=12),\n",
      "    Message('note_on', channel=3, note=79, velocity=0, time=48),\n",
      "    Message('note_on', channel=3, note=74, velocity=94, time=12),\n",
      "    Message('note_on', channel=3, note=74, velocity=0, time=48),\n",
      "    Message('note_on', channel=3, note=71, velocity=94, time=12),\n",
      "    Message('note_on', channel=3, note=71, velocity=0, time=48),\n",
      "    Message('note_on', channel=3, note=67, velocity=94, time=12),\n",
      "    Message('note_on', channel=3, note=67, velocity=0, time=168),\n",
      "    Message('note_on', channel=3, note=66, velocity=84, time=13),\n",
      "    Message('note_on', channel=3, note=69, velocity=84, time=0),\n",
      "    Message('note_on', channel=3, note=66, velocity=0, time=336),\n",
      "    Message('note_on', channel=3, note=69, velocity=0, time=0),\n",
      "    Message('note_on', channel=3, note=68, velocity=84, time=24),\n",
      "    Message('note_on', channel=3, note=71, velocity=84, time=0),\n",
      "    Message('note_on', channel=3, note=62, velocity=84, time=0),\n",
      "    Message('note_on', channel=3, note=68, velocity=0, time=168),\n",
      "    Message('note_on', channel=3, note=71, velocity=0, time=0),\n",
      "    Message('note_on', channel=3, note=62, velocity=0, time=0),\n",
      "    Message('note_on', channel=3, note=72, velocity=84, time=12),\n",
      "    Message('note_on', channel=3, note=64, velocity=84, time=0),\n",
      "    Message('note_on', channel=3, note=69, velocity=84, time=0),\n",
      "    Message('note_on', channel=3, note=72, velocity=0, time=336),\n",
      "    Message('note_on', channel=3, note=64, velocity=0, time=0),\n",
      "    Message('note_on', channel=3, note=69, velocity=0, time=0),\n",
      "    Message('note_on', channel=3, note=69, velocity=84, time=24),\n",
      "    Message('note_on', channel=3, note=64, velocity=84, time=0),\n",
      "    Message('note_on', channel=3, note=72, velocity=84, time=0),\n",
      "    Message('note_on', channel=3, note=69, velocity=0, time=168),\n",
      "    Message('note_on', channel=3, note=64, velocity=0, time=0),\n",
      "    Message('note_on', channel=3, note=72, velocity=0, time=0),\n",
      "    Message('note_on', channel=3, note=71, velocity=84, time=12),\n",
      "    Message('note_on', channel=3, note=71, velocity=0, time=276),\n",
      "    Message('note_on', channel=3, note=72, velocity=84, time=24),\n",
      "    Message('note_on', channel=3, note=72, velocity=0, time=24),\n",
      "    Message('note_on', channel=3, note=74, velocity=84, time=6),\n",
      "    Message('note_on', channel=3, note=74, velocity=0, time=24),\n",
      "    Message('note_on', channel=3, note=71, velocity=84, time=6),\n",
      "    Message('note_on', channel=3, note=68, velocity=84, time=0),\n",
      "    Message('note_on', channel=3, note=71, velocity=0, time=168),\n",
      "    Message('note_on', channel=3, note=68, velocity=0, time=0),\n",
      "    Message('note_on', channel=3, note=67, velocity=84, time=12),\n",
      "    Message('note_on', channel=3, note=67, velocity=0, time=168),\n",
      "    Message('note_on', channel=3, note=67, velocity=84, time=12),\n",
      "    Message('note_on', channel=3, note=67, velocity=0, time=48),\n",
      "    Message('note_on', channel=3, note=76, velocity=84, time=12),\n",
      "    Message('note_on', channel=3, note=76, velocity=0, time=48),\n",
      "    Message('note_on', channel=3, note=74, velocity=84, time=12),\n",
      "    Message('note_on', channel=3, note=74, velocity=0, time=48),\n",
      "    Message('note_on', channel=3, note=74, velocity=84, time=12),\n",
      "    Message('note_on', channel=3, note=74, velocity=0, time=48),\n",
      "    Message('note_on', channel=3, note=77, velocity=84, time=12),\n",
      "    Message('note_on', channel=3, note=77, velocity=0, time=48),\n",
      "    Message('note_on', channel=3, note=76, velocity=84, time=12),\n",
      "    Message('note_on', channel=3, note=76, velocity=0, time=48),\n",
      "    Message('note_on', channel=3, note=76, velocity=84, time=12),\n",
      "    Message('note_on', channel=3, note=76, velocity=0, time=48),\n",
      "    Message('note_on', channel=3, note=81, velocity=84, time=12),\n",
      "    Message('note_on', channel=3, note=81, velocity=0, time=48),\n",
      "    Message('note_on', channel=3, note=80, velocity=84, time=12),\n",
      "    Message('note_on', channel=3, note=80, velocity=0, time=48),\n",
      "    Message('note_on', channel=3, note=81, velocity=84, time=12),\n",
      "    Message('note_on', channel=3, note=81, velocity=0, time=48),\n",
      "    Message('note_on', channel=3, note=76, velocity=84, time=12),\n",
      "    Message('note_on', channel=3, note=76, velocity=0, time=48),\n",
      "    Message('note_on', channel=3, note=72, velocity=84, time=12),\n",
      "    Message('note_on', channel=3, note=72, velocity=0, time=48),\n",
      "    Message('note_on', channel=3, note=69, velocity=84, time=12),\n",
      "    Message('note_on', channel=3, note=69, velocity=0, time=48),\n",
      "    Message('note_on', channel=3, note=71, velocity=84, time=12),\n",
      "    Message('note_on', channel=3, note=71, velocity=0, time=48),\n",
      "    Message('note_on', channel=3, note=72, velocity=84, time=12),\n",
      "    Message('note_on', channel=3, note=72, velocity=0, time=48),\n",
      "    Message('note_on', channel=3, note=77, velocity=84, time=12),\n",
      "    Message('note_on', channel=3, note=77, velocity=0, time=48),\n",
      "    Message('note_on', channel=3, note=76, velocity=84, time=12),\n",
      "    Message('note_on', channel=3, note=76, velocity=0, time=48),\n",
      "    Message('note_on', channel=3, note=74, velocity=84, time=12),\n",
      "    Message('note_on', channel=3, note=74, velocity=0, time=48),\n",
      "    Message('note_on', channel=3, note=72, velocity=84, time=12),\n",
      "    Message('note_on', channel=3, note=72, velocity=0, time=48),\n",
      "    Message('note_on', channel=3, note=71, velocity=84, time=12),\n",
      "    Message('note_on', channel=3, note=71, velocity=0, time=48),\n",
      "    Message('note_on', channel=3, note=69, velocity=84, time=12),\n",
      "    Message('note_on', channel=3, note=69, velocity=0, time=48),\n",
      "    Message('note_on', channel=3, note=64, velocity=84, time=12),\n",
      "    Message('note_on', channel=3, note=64, velocity=0, time=48),\n",
      "    Message('note_on', channel=3, note=69, velocity=84, time=12),\n",
      "    Message('note_on', channel=3, note=69, velocity=0, time=48),\n",
      "    Message('note_on', channel=3, note=68, velocity=84, time=12),\n",
      "    Message('note_on', channel=3, note=62, velocity=84, time=0),\n",
      "    Message('note_on', channel=3, note=68, velocity=0, time=48),\n",
      "    Message('note_on', channel=3, note=62, velocity=0, time=0),\n",
      "    Message('note_on', channel=3, note=64, velocity=84, time=12),\n",
      "    Message('note_on', channel=3, note=69, velocity=84, time=0),\n",
      "    Message('note_on', channel=3, note=72, velocity=84, time=0),\n",
      "    Message('note_on', channel=3, note=64, velocity=0, time=336),\n",
      "    Message('note_on', channel=3, note=69, velocity=0, time=0),\n",
      "    Message('note_on', channel=3, note=72, velocity=0, time=0),\n",
      "    Message('note_on', channel=3, note=74, velocity=84, time=24),\n",
      "    Message('note_on', channel=3, note=62, velocity=84, time=0),\n",
      "    Message('note_on', channel=3, note=67, velocity=84, time=0),\n",
      "    Message('note_on', channel=3, note=74, velocity=0, time=168),\n",
      "    Message('note_on', channel=3, note=62, velocity=0, time=0),\n",
      "    Message('note_on', channel=3, note=67, velocity=0, time=0),\n",
      "    Message('note_on', channel=3, note=72, velocity=84, time=12),\n",
      "    Message('note_on', channel=3, note=76, velocity=84, time=0),\n",
      "    Message('note_on', channel=3, note=72, velocity=0, time=336),\n",
      "    Message('note_on', channel=3, note=76, velocity=0, time=0),\n",
      "    Message('note_on', channel=3, note=72, velocity=84, time=24),\n",
      "    Message('note_on', channel=3, note=76, velocity=84, time=0),\n",
      "    Message('note_on', channel=3, note=67, velocity=84, time=0),\n",
      "    Message('note_on', channel=3, note=72, velocity=0, time=168),\n",
      "    Message('note_on', channel=3, note=76, velocity=0, time=0),\n",
      "    Message('note_on', channel=3, note=67, velocity=0, time=0),\n",
      "    Message('note_on', channel=3, note=74, velocity=84, time=12),\n",
      "    Message('note_on', channel=3, note=74, velocity=0, time=276),\n",
      "    Message('note_on', channel=3, note=76, velocity=84, time=24),\n",
      "    Message('note_on', channel=3, note=76, velocity=0, time=24),\n",
      "    Message('note_on', channel=3, note=77, velocity=84, time=6),\n",
      "    Message('note_on', channel=3, note=77, velocity=0, time=24),\n",
      "    Message('note_on', channel=3, note=74, velocity=84, time=6),\n",
      "    Message('note_on', channel=3, note=74, velocity=0, time=168),\n",
      "    Message('note_on', channel=3, note=64, velocity=84, time=12),\n",
      "    Message('note_on', channel=3, note=72, velocity=84, time=0),\n",
      "    Message('note_on', channel=3, note=64, velocity=0, time=168),\n",
      "    Message('note_on', channel=3, note=72, velocity=0, time=0),\n",
      "    Message('note_on', channel=3, note=72, velocity=84, time=12),\n",
      "    Message('note_on', channel=3, note=72, velocity=0, time=48),\n",
      "    Message('note_on', channel=3, note=76, velocity=84, time=12),\n",
      "    Message('note_on', channel=3, note=76, velocity=0, time=48),\n",
      "    Message('note_on', channel=3, note=72, velocity=84, time=12),\n",
      "    Message('note_on', channel=3, note=72, velocity=0, time=48),\n",
      "    Message('note_on', channel=3, note=67, velocity=84, time=12),\n",
      "    Message('note_on', channel=3, note=67, velocity=0, time=48),\n",
      "    Message('note_on', channel=3, note=69, velocity=84, time=12),\n",
      "    Message('note_on', channel=3, note=69, velocity=0, time=48),\n",
      "    Message('note_on', channel=3, note=70, velocity=84, time=12),\n",
      "    Message('note_on', channel=3, note=70, velocity=0, time=48),\n",
      "    Message('note_on', channel=3, note=69, velocity=84, time=12),\n",
      "    Message('note_on', channel=3, note=69, velocity=0, time=48),\n",
      "    Message('note_on', channel=3, note=72, velocity=84, time=12),\n",
      "    Message('note_on', channel=3, note=72, velocity=0, time=48),\n",
      "    Message('note_on', channel=3, note=71, velocity=84, time=12),\n",
      "    Message('note_on', channel=3, note=71, velocity=0, time=48),\n",
      "    Message('note_on', channel=3, note=72, velocity=84, time=12),\n",
      "    Message('note_on', channel=3, note=72, velocity=0, time=48),\n",
      "    Message('note_on', channel=3, note=69, velocity=84, time=12),\n",
      "    Message('note_on', channel=3, note=69, velocity=0, time=48),\n",
      "    Message('note_on', channel=3, note=66, velocity=84, time=12),\n",
      "    Message('note_on', channel=3, note=66, velocity=0, time=48),\n",
      "    Message('note_on', channel=3, note=62, velocity=84, time=12),\n",
      "    Message('note_on', channel=3, note=62, velocity=0, time=48),\n",
      "    Message('note_on', channel=3, note=64, velocity=84, time=12),\n",
      "    Message('note_on', channel=3, note=64, velocity=0, time=48),\n",
      "    Message('note_on', channel=3, note=66, velocity=84, time=12),\n",
      "    Message('note_on', channel=3, note=66, velocity=0, time=48),\n",
      "    Message('note_on', channel=3, note=64, velocity=84, time=12),\n",
      "    Message('note_on', channel=3, note=64, velocity=0, time=48),\n",
      "    Message('note_on', channel=3, note=60, velocity=84, time=12),\n",
      "    Message('note_on', channel=3, note=60, velocity=0, time=48),\n",
      "    Message('note_on', channel=3, note=62, velocity=84, time=12),\n",
      "    Message('note_on', channel=3, note=62, velocity=0, time=48),\n",
      "    Message('note_on', channel=3, note=64, velocity=84, time=12),\n",
      "    Message('note_on', channel=3, note=64, velocity=0, time=48),\n",
      "    Message('note_on', channel=3, note=67, velocity=84, time=12),\n",
      "    Message('note_on', channel=3, note=67, velocity=0, time=48),\n",
      "    Message('note_on', channel=3, note=66, velocity=84, time=12),\n",
      "    Message('note_on', channel=3, note=66, velocity=0, time=48),\n",
      "    Message('note_on', channel=3, note=67, velocity=84, time=12),\n",
      "    Message('note_on', channel=3, note=67, velocity=0, time=48),\n",
      "    Message('note_on', channel=3, note=71, velocity=84, time=12),\n",
      "    Message('note_on', channel=3, note=71, velocity=0, time=48),\n",
      "    Message('note_on', channel=3, note=69, velocity=84, time=12),\n",
      "    Message('note_on', channel=3, note=69, velocity=0, time=48),\n",
      "    Message('note_on', channel=3, note=67, velocity=84, time=12),\n",
      "    Message('note_on', channel=3, note=71, velocity=84, time=0),\n",
      "    Message('note_on', channel=3, note=67, velocity=0, time=336),\n",
      "    Message('note_on', channel=3, note=71, velocity=0, time=0),\n",
      "    Message('note_on', channel=3, note=64, velocity=84, time=24),\n",
      "    Message('note_on', channel=3, note=60, velocity=84, time=0),\n",
      "    Message('note_on', channel=3, note=67, velocity=84, time=0),\n",
      "    Message('note_on', channel=3, note=72, velocity=84, time=0),\n",
      "    Message('note_on', channel=3, note=64, velocity=0, time=168),\n",
      "    Message('note_on', channel=3, note=60, velocity=0, time=0),\n",
      "    Message('note_on', channel=3, note=67, velocity=0, time=0),\n",
      "    Message('note_on', channel=3, note=72, velocity=0, time=0),\n",
      "    Message('note_on', channel=3, note=74, velocity=84, time=12),\n",
      "    Message('note_on', channel=3, note=67, velocity=84, time=0),\n",
      "    Message('note_on', channel=3, note=62, velocity=84, time=0),\n",
      "    Message('note_on', channel=3, note=74, velocity=0, time=336),\n",
      "    Message('note_on', channel=3, note=67, velocity=0, time=0),\n",
      "    Message('note_on', channel=3, note=62, velocity=0, time=0),\n",
      "    Message('note_on', channel=3, note=74, velocity=84, time=24),\n",
      "    Message('note_on', channel=3, note=67, velocity=84, time=0),\n",
      "    Message('note_on', channel=3, note=62, velocity=84, time=0),\n",
      "    Message('note_on', channel=3, note=74, velocity=0, time=168),\n",
      "    Message('note_on', channel=3, note=67, velocity=0, time=0),\n",
      "    Message('note_on', channel=3, note=62, velocity=0, time=0),\n",
      "    Message('note_on', channel=3, note=69, velocity=84, time=12),\n",
      "    Message('note_on', channel=3, note=64, velocity=84, time=0),\n",
      "    Message('note_on', channel=3, note=72, velocity=84, time=0),\n",
      "    Message('note_on', channel=3, note=69, velocity=0, time=168),\n",
      "    Message('note_on', channel=3, note=64, velocity=0, time=0),\n",
      "    Message('note_on', channel=3, note=72, velocity=0, time=0),\n",
      "    Message('note_on', channel=3, note=71, velocity=84, time=12),\n",
      "    Message('note_on', channel=3, note=71, velocity=0, time=336),\n",
      "    Message('note_on', channel=3, note=66, velocity=84, time=24),\n",
      "    Message('note_on', channel=3, note=69, velocity=84, time=0),\n",
      "    Message('note_on', channel=3, note=66, velocity=0, time=48),\n",
      "    Message('note_on', channel=3, note=69, velocity=0, time=0),\n",
      "    Message('note_on', channel=3, note=62, velocity=84, time=12),\n",
      "    Message('note_on', channel=3, note=62, velocity=0, time=48),\n",
      "    Message('note_on', channel=3, note=64, velocity=84, time=12),\n",
      "    Message('note_on', channel=3, note=64, velocity=0, time=48),\n",
      "    Message('note_on', channel=3, note=66, velocity=84, time=12),\n",
      "    Message('note_on', channel=3, note=66, velocity=0, time=48),\n",
      "    Message('note_on', channel=3, note=69, velocity=84, time=12),\n",
      "    Message('note_on', channel=3, note=69, velocity=0, time=48),\n",
      "    Message('note_on', channel=3, note=67, velocity=84, time=12),\n",
      "    Message('note_on', channel=3, note=67, velocity=0, time=48),\n",
      "    Message('note_on', channel=3, note=69, velocity=84, time=12),\n",
      "    Message('note_on', channel=3, note=69, velocity=0, time=48),\n",
      "    Message('note_on', channel=3, note=72, velocity=84, time=12),\n",
      "    Message('note_on', channel=3, note=72, velocity=0, time=48),\n",
      "    Message('note_on', channel=3, note=71, velocity=84, time=12),\n",
      "    Message('note_on', channel=3, note=71, velocity=0, time=48),\n",
      "    Message('note_on', channel=3, note=72, velocity=84, time=12),\n",
      "    Message('note_on', channel=3, note=72, velocity=0, time=48),\n",
      "    Message('note_on', channel=3, note=69, velocity=84, time=12),\n",
      "    Message('note_on', channel=3, note=69, velocity=0, time=48),\n",
      "    Message('note_on', channel=3, note=66, velocity=84, time=12),\n",
      "    Message('note_on', channel=3, note=66, velocity=0, time=48),\n",
      "    Message('note_on', channel=3, note=62, velocity=84, time=12),\n",
      "    Message('note_on', channel=3, note=62, velocity=0, time=48),\n",
      "    Message('note_on', channel=3, note=66, velocity=84, time=12),\n",
      "    Message('note_on', channel=3, note=66, velocity=0, time=48),\n",
      "    Message('note_on', channel=3, note=69, velocity=84, time=12),\n",
      "    Message('note_on', channel=3, note=69, velocity=0, time=48),\n",
      "    Message('note_on', channel=3, note=72, velocity=84, time=12),\n",
      "    Message('note_on', channel=3, note=72, velocity=0, time=48),\n",
      "    Message('note_on', channel=3, note=71, velocity=84, time=12),\n",
      "    Message('note_on', channel=3, note=71, velocity=0, time=48),\n",
      "    Message('note_on', channel=3, note=69, velocity=84, time=12),\n",
      "    Message('note_on', channel=3, note=69, velocity=0, time=48),\n",
      "    Message('note_on', channel=3, note=67, velocity=84, time=12),\n",
      "    Message('note_on', channel=3, note=71, velocity=84, time=0),\n",
      "    Message('note_on', channel=3, note=67, velocity=0, time=336),\n",
      "    Message('note_on', channel=3, note=71, velocity=0, time=0),\n",
      "    Message('note_on', channel=3, note=72, velocity=84, time=24),\n",
      "    Message('note_on', channel=3, note=67, velocity=84, time=0),\n",
      "    Message('note_on', channel=3, note=64, velocity=84, time=0),\n",
      "    Message('note_on', channel=3, note=60, velocity=84, time=0),\n",
      "    Message('note_on', channel=3, note=72, velocity=0, time=168),\n",
      "    Message('note_on', channel=3, note=67, velocity=0, time=0),\n",
      "    Message('note_on', channel=3, note=64, velocity=0, time=0),\n",
      "    Message('note_on', channel=3, note=60, velocity=0, time=0),\n",
      "    Message('note_on', channel=3, note=74, velocity=84, time=12),\n",
      "    Message('note_on', channel=3, note=62, velocity=84, time=0),\n",
      "    Message('note_on', channel=3, note=67, velocity=84, time=0),\n",
      "    Message('note_on', channel=3, note=74, velocity=0, time=336),\n",
      "    Message('note_on', channel=3, note=62, velocity=0, time=0),\n",
      "    Message('note_on', channel=3, note=67, velocity=0, time=0),\n",
      "    Message('note_on', channel=3, note=67, velocity=84, time=24),\n",
      "    Message('note_on', channel=3, note=64, velocity=84, time=0),\n",
      "    Message('note_on', channel=3, note=71, velocity=84, time=0),\n",
      "    Message('note_on', channel=3, note=67, velocity=0, time=168),\n",
      "    Message('note_on', channel=3, note=64, velocity=0, time=0),\n",
      "    Message('note_on', channel=3, note=71, velocity=0, time=0),\n",
      "    Message('note_on', channel=3, note=69, velocity=84, time=12),\n",
      "    Message('note_on', channel=3, note=69, velocity=0, time=96),\n",
      "    Message('note_on', channel=3, note=71, velocity=84, time=24),\n",
      "    Message('note_on', channel=3, note=71, velocity=0, time=24),\n",
      "    Message('note_on', channel=3, note=72, velocity=84, time=6),\n",
      "    Message('note_on', channel=3, note=72, velocity=0, time=24),\n",
      "    Message('note_on', channel=3, note=71, velocity=84, time=6),\n",
      "    Message('note_on', channel=3, note=71, velocity=0, time=168),\n",
      "    Message('note_on', channel=3, note=69, velocity=84, time=12),\n",
      "    Message('note_on', channel=3, note=69, velocity=0, time=168),\n",
      "    Message('note_on', channel=3, note=67, velocity=84, time=12),\n",
      "    Message('note_on', channel=3, note=67, velocity=0, time=48),\n",
      "    Message('note_on', channel=3, note=71, velocity=84, time=12),\n",
      "    Message('note_on', channel=3, note=71, velocity=0, time=48),\n",
      "    Message('note_on', channel=3, note=74, velocity=84, time=12),\n",
      "    Message('note_on', channel=3, note=74, velocity=0, time=48),\n",
      "    Message('note_on', channel=3, note=79, velocity=84, time=12),\n",
      "    Message('note_on', channel=3, note=79, velocity=0, time=48),\n",
      "    Message('note_on', channel=3, note=74, velocity=84, time=12),\n",
      "    Message('note_on', channel=3, note=74, velocity=0, time=48),\n",
      "    Message('note_on', channel=3, note=71, velocity=84, time=12),\n",
      "    Message('note_on', channel=3, note=71, velocity=0, time=48),\n",
      "    Message('note_on', channel=3, note=67, velocity=84, time=12),\n",
      "    Message('note_on', channel=3, note=67, velocity=0, time=48),\n",
      "    Message('note_on', channel=3, note=71, velocity=84, time=12),\n",
      "    Message('note_on', channel=3, note=71, velocity=0, time=48),\n",
      "    Message('note_on', channel=3, note=74, velocity=84, time=12),\n",
      "    Message('note_on', channel=3, note=74, velocity=0, time=48),\n",
      "    Message('note_on', channel=3, note=77, velocity=84, time=12),\n",
      "    Message('note_on', channel=3, note=77, velocity=0, time=48),\n",
      "    Message('note_on', channel=3, note=74, velocity=84, time=12),\n",
      "    Message('note_on', channel=3, note=74, velocity=0, time=48),\n",
      "    Message('note_on', channel=3, note=71, velocity=84, time=12),\n",
      "    Message('note_on', channel=3, note=71, velocity=0, time=48),\n",
      "    Message('note_on', channel=3, note=67, velocity=84, time=12),\n",
      "    Message('note_on', channel=3, note=67, velocity=0, time=48),\n",
      "    Message('note_on', channel=3, note=71, velocity=84, time=12),\n",
      "    Message('note_on', channel=3, note=71, velocity=0, time=48),\n",
      "    Message('note_on', channel=3, note=74, velocity=84, time=12),\n",
      "    Message('note_on', channel=3, note=74, velocity=0, time=48),\n",
      "    Message('note_on', channel=3, note=76, velocity=84, time=12),\n",
      "    Message('note_on', channel=3, note=76, velocity=0, time=48),\n",
      "    Message('note_on', channel=3, note=72, velocity=84, time=12),\n",
      "    Message('note_on', channel=3, note=72, velocity=0, time=48),\n",
      "    Message('note_on', channel=3, note=69, velocity=84, time=12),\n",
      "    Message('note_on', channel=3, note=69, velocity=0, time=48),\n",
      "    Message('note_on', channel=3, note=66, velocity=84, time=12),\n",
      "    Message('note_on', channel=3, note=66, velocity=0, time=48),\n",
      "    Message('note_on', channel=3, note=69, velocity=84, time=12),\n",
      "    Message('note_on', channel=3, note=69, velocity=0, time=48),\n",
      "    Message('note_on', channel=3, note=72, velocity=84, time=12),\n",
      "    Message('note_on', channel=3, note=72, velocity=0, time=48),\n",
      "    Message('note_on', channel=3, note=74, velocity=84, time=12),\n",
      "    Message('note_on', channel=3, note=74, velocity=0, time=48),\n",
      "    Message('note_on', channel=3, note=71, velocity=84, time=12),\n",
      "    Message('note_on', channel=3, note=71, velocity=0, time=48),\n",
      "    Message('note_on', channel=3, note=67, velocity=84, time=12),\n",
      "    Message('note_on', channel=3, note=67, velocity=0, time=48),\n",
      "    Message('note_on', channel=3, note=64, velocity=84, time=12),\n",
      "    Message('note_on', channel=3, note=64, velocity=0, time=48),\n",
      "    Message('note_on', channel=3, note=67, velocity=84, time=12),\n",
      "    Message('note_on', channel=3, note=67, velocity=0, time=48),\n",
      "    Message('note_on', channel=3, note=71, velocity=84, time=12),\n",
      "    Message('note_on', channel=3, note=71, velocity=0, time=48),\n",
      "    Message('note_on', channel=3, note=72, velocity=84, time=12),\n",
      "    Message('note_on', channel=3, note=72, velocity=0, time=48),\n",
      "    Message('note_on', channel=3, note=69, velocity=84, time=12),\n",
      "    Message('note_on', channel=3, note=69, velocity=0, time=48),\n",
      "    Message('note_on', channel=3, note=66, velocity=84, time=12),\n",
      "    Message('note_on', channel=3, note=66, velocity=0, time=48),\n",
      "    Message('note_on', channel=3, note=62, velocity=84, time=12),\n",
      "    Message('note_on', channel=3, note=62, velocity=0, time=48),\n",
      "    Message('note_on', channel=3, note=66, velocity=84, time=12),\n",
      "    Message('note_on', channel=3, note=66, velocity=0, time=48),\n",
      "    Message('note_on', channel=3, note=69, velocity=84, time=12),\n",
      "    Message('note_on', channel=3, note=69, velocity=0, time=48),\n",
      "    Message('note_on', channel=3, note=72, velocity=84, time=12),\n",
      "    Message('note_on', channel=3, note=72, velocity=0, time=48),\n",
      "    Message('note_on', channel=3, note=71, velocity=84, time=12),\n",
      "    Message('note_on', channel=3, note=71, velocity=0, time=48),\n",
      "    Message('note_on', channel=3, note=69, velocity=84, time=12),\n",
      "    Message('note_on', channel=3, note=69, velocity=0, time=48),\n",
      "    Message('note_on', channel=3, note=71, velocity=84, time=12),\n",
      "    Message('note_on', channel=3, note=71, velocity=0, time=48),\n",
      "    Message('note_on', channel=3, note=67, velocity=84, time=12),\n",
      "    Message('note_on', channel=3, note=67, velocity=0, time=48),\n",
      "    Message('note_on', channel=3, note=69, velocity=84, time=12),\n",
      "    Message('note_on', channel=3, note=69, velocity=0, time=48),\n",
      "    Message('note_on', channel=3, note=71, velocity=84, time=12),\n",
      "    Message('note_on', channel=3, note=71, velocity=0, time=48),\n",
      "    Message('note_on', channel=3, note=74, velocity=84, time=12),\n",
      "    Message('note_on', channel=3, note=74, velocity=0, time=48),\n",
      "    Message('note_on', channel=3, note=72, velocity=84, time=12),\n",
      "    Message('note_on', channel=3, note=72, velocity=0, time=48),\n",
      "    Message('note_on', channel=3, note=72, velocity=84, time=12),\n",
      "    Message('note_on', channel=3, note=72, velocity=0, time=48),\n",
      "    Message('note_on', channel=3, note=76, velocity=84, time=12),\n",
      "    Message('note_on', channel=3, note=76, velocity=0, time=48),\n",
      "    Message('note_on', channel=3, note=74, velocity=84, time=12),\n",
      "    Message('note_on', channel=3, note=74, velocity=0, time=48),\n",
      "    Message('note_on', channel=3, note=74, velocity=84, time=12),\n",
      "    Message('note_on', channel=3, note=74, velocity=0, time=48),\n",
      "    Message('note_on', channel=3, note=79, velocity=84, time=12),\n",
      "    Message('note_on', channel=3, note=79, velocity=0, time=48),\n",
      "    Message('note_on', channel=3, note=78, velocity=84, time=12),\n",
      "    Message('note_on', channel=3, note=78, velocity=0, time=48),\n",
      "    Message('note_on', channel=3, note=79, velocity=84, time=12),\n",
      "    Message('note_on', channel=3, note=79, velocity=0, time=48),\n",
      "    Message('note_on', channel=3, note=74, velocity=84, time=12),\n",
      "    Message('note_on', channel=3, note=74, velocity=0, time=48),\n",
      "    Message('note_on', channel=3, note=71, velocity=84, time=12),\n",
      "    Message('note_on', channel=3, note=71, velocity=0, time=48),\n",
      "    Message('note_on', channel=3, note=67, velocity=84, time=12),\n",
      "    Message('note_on', channel=3, note=67, velocity=0, time=48),\n",
      "    Message('note_on', channel=3, note=69, velocity=84, time=12),\n",
      "    Message('note_on', channel=3, note=69, velocity=0, time=48),\n",
      "    Message('note_on', channel=3, note=71, velocity=84, time=12),\n",
      "    Message('note_on', channel=3, note=71, velocity=0, time=48),\n",
      "    Message('note_on', channel=3, note=72, velocity=84, time=12),\n",
      "    Message('note_on', channel=3, note=72, velocity=0, time=48),\n",
      "    Message('note_on', channel=3, note=74, velocity=84, time=12),\n",
      "    Message('note_on', channel=3, note=74, velocity=0, time=48),\n",
      "    Message('note_on', channel=3, note=76, velocity=84, time=12),\n",
      "    Message('note_on', channel=3, note=76, velocity=0, time=48),\n",
      "    Message('note_on', channel=3, note=74, velocity=84, time=12),\n",
      "    Message('note_on', channel=3, note=74, velocity=0, time=48),\n",
      "    Message('note_on', channel=3, note=72, velocity=84, time=12),\n",
      "    Message('note_on', channel=3, note=72, velocity=0, time=48),\n",
      "    Message('note_on', channel=3, note=71, velocity=84, time=12),\n",
      "    Message('note_on', channel=3, note=71, velocity=0, time=48),\n",
      "    Message('note_on', channel=3, note=69, velocity=84, time=12),\n",
      "    Message('note_on', channel=3, note=69, velocity=0, time=48),\n",
      "    Message('note_on', channel=3, note=71, velocity=84, time=12),\n",
      "    Message('note_on', channel=3, note=71, velocity=0, time=48),\n",
      "    Message('note_on', channel=3, note=67, velocity=84, time=12),\n",
      "    Message('note_on', channel=3, note=67, velocity=0, time=48),\n",
      "    Message('note_on', channel=3, note=66, velocity=84, time=12),\n",
      "    Message('note_on', channel=3, note=66, velocity=0, time=48),\n",
      "    Message('note_on', channel=3, note=67, velocity=84, time=12),\n",
      "    Message('note_on', channel=3, note=67, velocity=0, time=48),\n",
      "    Message('note_on', channel=3, note=69, velocity=84, time=12),\n",
      "    Message('note_on', channel=3, note=69, velocity=0, time=48),\n",
      "    Message('note_on', channel=3, note=62, velocity=84, time=12),\n",
      "    Message('note_on', channel=3, note=62, velocity=0, time=48),\n",
      "    Message('note_on', channel=3, note=66, velocity=84, time=12),\n",
      "    Message('note_on', channel=3, note=66, velocity=0, time=48),\n",
      "    Message('note_on', channel=3, note=69, velocity=84, time=12),\n",
      "    Message('note_on', channel=3, note=69, velocity=0, time=48),\n",
      "    Message('note_on', channel=3, note=72, velocity=84, time=12),\n",
      "    Message('note_on', channel=3, note=72, velocity=0, time=48),\n",
      "    Message('note_on', channel=3, note=71, velocity=84, time=12),\n",
      "    Message('note_on', channel=3, note=71, velocity=0, time=48),\n",
      "    Message('note_on', channel=3, note=69, velocity=84, time=12),\n",
      "    Message('note_on', channel=3, note=69, velocity=0, time=48),\n",
      "    Message('note_on', channel=3, note=71, velocity=84, time=12),\n",
      "    Message('note_on', channel=3, note=71, velocity=0, time=48),\n",
      "    Message('note_on', channel=3, note=67, velocity=84, time=12),\n",
      "    Message('note_on', channel=3, note=67, velocity=0, time=48),\n",
      "    Message('note_on', channel=3, note=69, velocity=84, time=12),\n",
      "    Message('note_on', channel=3, note=69, velocity=0, time=48),\n",
      "    Message('note_on', channel=3, note=71, velocity=84, time=12),\n",
      "    Message('note_on', channel=3, note=71, velocity=0, time=48),\n",
      "    Message('note_on', channel=3, note=74, velocity=84, time=12),\n",
      "    Message('note_on', channel=3, note=74, velocity=0, time=48),\n",
      "    Message('note_on', channel=3, note=72, velocity=84, time=12),\n",
      "    Message('note_on', channel=3, note=72, velocity=0, time=48),\n",
      "    Message('note_on', channel=3, note=72, velocity=84, time=12),\n",
      "    Message('note_on', channel=3, note=72, velocity=0, time=48),\n",
      "    Message('note_on', channel=3, note=76, velocity=84, time=12),\n",
      "    Message('note_on', channel=3, note=76, velocity=0, time=48),\n",
      "    Message('note_on', channel=3, note=74, velocity=84, time=12),\n",
      "    Message('note_on', channel=3, note=74, velocity=0, time=48),\n",
      "    Message('note_on', channel=3, note=74, velocity=84, time=12),\n",
      "    Message('note_on', channel=3, note=74, velocity=0, time=48),\n",
      "    Message('note_on', channel=3, note=79, velocity=84, time=12),\n",
      "    Message('note_on', channel=3, note=79, velocity=0, time=48),\n",
      "    Message('note_on', channel=3, note=78, velocity=84, time=12),\n",
      "    Message('note_on', channel=3, note=78, velocity=0, time=48),\n",
      "    Message('note_on', channel=3, note=79, velocity=84, time=12),\n",
      "    Message('note_on', channel=3, note=79, velocity=0, time=48),\n",
      "    Message('note_on', channel=3, note=74, velocity=84, time=12),\n",
      "    Message('note_on', channel=3, note=74, velocity=0, time=48),\n",
      "    Message('note_on', channel=3, note=71, velocity=84, time=12),\n",
      "    Message('note_on', channel=3, note=71, velocity=0, time=48),\n",
      "    Message('note_on', channel=3, note=67, velocity=84, time=12),\n",
      "    Message('note_on', channel=3, note=67, velocity=0, time=48),\n",
      "    Message('note_on', channel=3, note=69, velocity=84, time=12),\n",
      "    Message('note_on', channel=3, note=69, velocity=0, time=48),\n",
      "    Message('note_on', channel=3, note=71, velocity=84, time=12),\n",
      "    Message('note_on', channel=3, note=71, velocity=0, time=48),\n",
      "    Message('note_on', channel=3, note=64, velocity=84, time=12),\n",
      "    Message('note_on', channel=3, note=64, velocity=0, time=48),\n",
      "    Message('note_on', channel=3, note=74, velocity=84, time=12),\n",
      "    Message('note_on', channel=3, note=74, velocity=0, time=48),\n",
      "    Message('note_on', channel=3, note=72, velocity=84, time=12),\n",
      "    Message('note_on', channel=3, note=72, velocity=0, time=48),\n",
      "    Message('note_on', channel=3, note=71, velocity=84, time=12),\n",
      "    Message('note_on', channel=3, note=71, velocity=0, time=48),\n",
      "    Message('note_on', channel=3, note=69, velocity=84, time=12),\n",
      "    Message('note_on', channel=3, note=69, velocity=0, time=48),\n",
      "    Message('note_on', channel=3, note=67, velocity=84, time=12),\n",
      "    Message('note_on', channel=3, note=67, velocity=0, time=48),\n",
      "    Message('note_on', channel=3, note=62, velocity=84, time=12),\n",
      "    Message('note_on', channel=3, note=62, velocity=0, time=48),\n",
      "    Message('note_on', channel=3, note=67, velocity=84, time=12),\n",
      "    Message('note_on', channel=3, note=67, velocity=0, time=48),\n",
      "    Message('note_on', channel=3, note=66, velocity=84, time=12),\n",
      "    Message('note_on', channel=3, note=66, velocity=0, time=48),\n",
      "    Message('note_on', channel=3, note=62, velocity=58, time=12),\n",
      "    Message('note_on', channel=3, note=67, velocity=60, time=0),\n",
      "    Message('note_on', channel=3, note=59, velocity=57, time=0),\n",
      "    Message('note_on', channel=3, note=55, velocity=75, time=0),\n",
      "    Message('note_on', channel=3, note=62, velocity=0, time=456),\n",
      "    Message('note_on', channel=3, note=67, velocity=0, time=0),\n",
      "    Message('note_on', channel=3, note=59, velocity=0, time=0),\n",
      "    Message('note_on', channel=3, note=55, velocity=0, time=0),\n",
      "    Message('note_on', channel=3, note=67, velocity=94, time=143),\n",
      "    Message('note_on', channel=3, note=67, velocity=0, time=48),\n",
      "    Message('note_on', channel=3, note=69, velocity=94, time=12),\n",
      "    Message('note_on', channel=3, note=69, velocity=0, time=48),\n",
      "    Message('note_on', channel=3, note=71, velocity=94, time=12),\n",
      "    Message('note_on', channel=3, note=71, velocity=0, time=48),\n",
      "    Message('note_on', channel=3, note=74, velocity=94, time=12),\n",
      "    Message('note_on', channel=3, note=74, velocity=0, time=48),\n",
      "    Message('note_on', channel=3, note=72, velocity=94, time=12),\n",
      "    Message('note_on', channel=3, note=72, velocity=0, time=48),\n",
      "    Message('note_on', channel=3, note=72, velocity=94, time=12),\n",
      "    Message('note_on', channel=3, note=72, velocity=0, time=48),\n",
      "    Message('note_on', channel=3, note=76, velocity=94, time=12),\n",
      "    Message('note_on', channel=3, note=76, velocity=0, time=48),\n",
      "    Message('note_on', channel=3, note=74, velocity=94, time=12),\n",
      "    Message('note_on', channel=3, note=74, velocity=0, time=48),\n",
      "    Message('note_on', channel=3, note=74, velocity=94, time=12),\n",
      "    Message('note_on', channel=3, note=74, velocity=0, time=48),\n",
      "    Message('note_on', channel=3, note=79, velocity=94, time=12),\n",
      "    Message('note_on', channel=3, note=79, velocity=0, time=48),\n",
      "    Message('note_on', channel=3, note=78, velocity=94, time=12),\n",
      "    Message('note_on', channel=3, note=78, velocity=0, time=48),\n",
      "    Message('note_on', channel=3, note=79, velocity=94, time=12),\n",
      "    Message('note_on', channel=3, note=79, velocity=0, time=48),\n",
      "    Message('note_on', channel=3, note=74, velocity=94, time=12),\n",
      "    Message('note_on', channel=3, note=74, velocity=0, time=48),\n",
      "    Message('note_on', channel=3, note=71, velocity=94, time=12),\n",
      "    Message('note_on', channel=3, note=71, velocity=0, time=48),\n",
      "    Message('note_on', channel=3, note=67, velocity=94, time=12),\n",
      "    Message('note_on', channel=3, note=67, velocity=0, time=48),\n",
      "    Message('note_on', channel=3, note=69, velocity=94, time=12),\n",
      "    Message('note_on', channel=3, note=69, velocity=0, time=48),\n",
      "    Message('note_on', channel=3, note=71, velocity=94, time=12),\n",
      "    Message('note_on', channel=3, note=71, velocity=0, time=48),\n",
      "    Message('note_on', channel=3, note=72, velocity=94, time=12),\n",
      "    Message('note_on', channel=3, note=72, velocity=0, time=48),\n",
      "    Message('note_on', channel=3, note=74, velocity=94, time=12),\n",
      "    Message('note_on', channel=3, note=74, velocity=0, time=48),\n",
      "    Message('note_on', channel=3, note=76, velocity=94, time=12),\n",
      "    Message('note_on', channel=3, note=76, velocity=0, time=48),\n",
      "    Message('note_on', channel=3, note=74, velocity=94, time=12),\n",
      "    Message('note_on', channel=3, note=74, velocity=0, time=48),\n",
      "    Message('note_on', channel=3, note=72, velocity=94, time=12),\n",
      "    Message('note_on', channel=3, note=72, velocity=0, time=48),\n",
      "    Message('note_on', channel=3, note=71, velocity=94, time=12),\n",
      "    Message('note_on', channel=3, note=71, velocity=0, time=48),\n",
      "    Message('note_on', channel=3, note=69, velocity=94, time=12),\n",
      "    Message('note_on', channel=3, note=69, velocity=0, time=48),\n",
      "    Message('note_on', channel=3, note=71, velocity=94, time=12),\n",
      "    Message('note_on', channel=3, note=71, velocity=0, time=48),\n",
      "    Message('note_on', channel=3, note=67, velocity=94, time=12),\n",
      "    Message('note_on', channel=3, note=67, velocity=0, time=48),\n",
      "    Message('note_on', channel=3, note=66, velocity=94, time=12),\n",
      "    Message('note_on', channel=3, note=66, velocity=0, time=48),\n",
      "    Message('note_on', channel=3, note=67, velocity=94, time=12),\n",
      "    Message('note_on', channel=3, note=67, velocity=0, time=48),\n",
      "    Message('note_on', channel=3, note=69, velocity=94, time=12),\n",
      "    Message('note_on', channel=3, note=69, velocity=0, time=48),\n",
      "    Message('note_on', channel=3, note=62, velocity=94, time=12),\n",
      "    Message('note_on', channel=3, note=62, velocity=0, time=48),\n",
      "    Message('note_on', channel=3, note=66, velocity=94, time=12),\n",
      "    Message('note_on', channel=3, note=66, velocity=0, time=48),\n",
      "    Message('note_on', channel=3, note=69, velocity=94, time=12),\n",
      "    Message('note_on', channel=3, note=69, velocity=0, time=48),\n",
      "    Message('note_on', channel=3, note=72, velocity=94, time=12),\n",
      "    Message('note_on', channel=3, note=72, velocity=0, time=48),\n",
      "    Message('note_on', channel=3, note=71, velocity=94, time=12),\n",
      "    Message('note_on', channel=3, note=71, velocity=0, time=48),\n",
      "    Message('note_on', channel=3, note=69, velocity=94, time=12),\n",
      "    Message('note_on', channel=3, note=69, velocity=0, time=48),\n",
      "    Message('note_on', channel=3, note=71, velocity=94, time=12),\n",
      "    Message('note_on', channel=3, note=71, velocity=0, time=48),\n",
      "    Message('note_on', channel=3, note=67, velocity=94, time=12),\n",
      "    Message('note_on', channel=3, note=67, velocity=0, time=48),\n",
      "    Message('note_on', channel=3, note=69, velocity=94, time=12),\n",
      "    Message('note_on', channel=3, note=69, velocity=0, time=48),\n",
      "    Message('note_on', channel=3, note=71, velocity=94, time=12),\n",
      "    Message('note_on', channel=3, note=71, velocity=0, time=48),\n",
      "    Message('note_on', channel=3, note=74, velocity=94, time=12),\n",
      "    Message('note_on', channel=3, note=74, velocity=0, time=48),\n",
      "    Message('note_on', channel=3, note=72, velocity=94, time=12),\n",
      "    Message('note_on', channel=3, note=72, velocity=0, time=48),\n",
      "    Message('note_on', channel=3, note=72, velocity=94, time=12),\n",
      "    Message('note_on', channel=3, note=72, velocity=0, time=48),\n",
      "    Message('note_on', channel=3, note=76, velocity=94, time=12),\n",
      "    Message('note_on', channel=3, note=76, velocity=0, time=48),\n",
      "    Message('note_on', channel=3, note=74, velocity=94, time=12),\n",
      "    Message('note_on', channel=3, note=74, velocity=0, time=48),\n",
      "    Message('note_on', channel=3, note=74, velocity=94, time=12),\n",
      "    Message('note_on', channel=3, note=74, velocity=0, time=48),\n",
      "    Message('note_on', channel=3, note=79, velocity=94, time=12),\n",
      "    Message('note_on', channel=3, note=79, velocity=0, time=48),\n",
      "    Message('note_on', channel=3, note=78, velocity=94, time=12),\n",
      "    Message('note_on', channel=3, note=78, velocity=0, time=48),\n",
      "    Message('note_on', channel=3, note=79, velocity=94, time=12),\n",
      "    Message('note_on', channel=3, note=79, velocity=0, time=48),\n",
      "    Message('note_on', channel=3, note=74, velocity=94, time=12),\n",
      "    Message('note_on', channel=3, note=74, velocity=0, time=48),\n",
      "    Message('note_on', channel=3, note=71, velocity=94, time=12),\n",
      "    Message('note_on', channel=3, note=71, velocity=0, time=48),\n",
      "    Message('note_on', channel=3, note=67, velocity=94, time=12),\n",
      "    Message('note_on', channel=3, note=67, velocity=0, time=48),\n",
      "    Message('note_on', channel=3, note=69, velocity=94, time=12),\n",
      "    Message('note_on', channel=3, note=69, velocity=0, time=48),\n",
      "    Message('note_on', channel=3, note=71, velocity=94, time=12),\n",
      "    Message('note_on', channel=3, note=71, velocity=0, time=48),\n",
      "    Message('note_on', channel=3, note=64, velocity=94, time=12),\n",
      "    Message('note_on', channel=3, note=64, velocity=0, time=48),\n",
      "    Message('note_on', channel=3, note=74, velocity=94, time=12),\n",
      "    Message('note_on', channel=3, note=74, velocity=0, time=48),\n",
      "    Message('note_on', channel=3, note=72, velocity=94, time=12),\n",
      "    Message('note_on', channel=3, note=72, velocity=0, time=48),\n",
      "    Message('note_on', channel=3, note=71, velocity=94, time=12),\n",
      "    Message('note_on', channel=3, note=71, velocity=0, time=48),\n",
      "    Message('note_on', channel=3, note=69, velocity=94, time=12),\n",
      "    Message('note_on', channel=3, note=69, velocity=0, time=48),\n",
      "    Message('note_on', channel=3, note=67, velocity=94, time=12),\n",
      "    Message('note_on', channel=3, note=67, velocity=0, time=48),\n",
      "    Message('note_on', channel=3, note=62, velocity=94, time=12),\n",
      "    Message('note_on', channel=3, note=62, velocity=0, time=48),\n",
      "    Message('note_on', channel=3, note=67, velocity=94, time=12),\n",
      "    Message('note_on', channel=3, note=67, velocity=0, time=48),\n",
      "    Message('note_on', channel=3, note=66, velocity=94, time=12),\n",
      "    Message('note_on', channel=3, note=66, velocity=0, time=48),\n",
      "    Message('note_on', channel=3, note=67, velocity=94, time=12),\n",
      "    Message('note_on', channel=3, note=67, velocity=0, time=48),\n",
      "    Message('note_on', channel=3, note=71, velocity=94, time=12),\n",
      "    Message('note_on', channel=3, note=71, velocity=0, time=48),\n",
      "    Message('note_on', channel=3, note=74, velocity=94, time=12),\n",
      "    Message('note_on', channel=3, note=74, velocity=0, time=48),\n",
      "    Message('note_on', channel=3, note=79, velocity=94, time=12),\n",
      "    Message('note_on', channel=3, note=79, velocity=0, time=48),\n",
      "    Message('note_on', channel=3, note=74, velocity=94, time=12),\n",
      "    Message('note_on', channel=3, note=74, velocity=0, time=48),\n",
      "    Message('note_on', channel=3, note=71, velocity=94, time=12),\n",
      "    Message('note_on', channel=3, note=71, velocity=0, time=48),\n",
      "    Message('note_on', channel=3, note=67, velocity=94, time=12),\n",
      "    Message('note_on', channel=3, note=67, velocity=0, time=48),\n",
      "    Message('note_on', channel=3, note=71, velocity=94, time=12),\n",
      "    Message('note_on', channel=3, note=71, velocity=0, time=48),\n",
      "    Message('note_on', channel=3, note=74, velocity=94, time=12),\n",
      "    Message('note_on', channel=3, note=74, velocity=0, time=48),\n",
      "    Message('note_on', channel=3, note=62, velocity=94, time=12),\n",
      "    Message('note_on', channel=3, note=71, velocity=94, time=0),\n",
      "    Message('note_on', channel=3, note=67, velocity=94, time=0),\n",
      "    Message('note_on', channel=3, note=62, velocity=0, time=336),\n",
      "    Message('note_on', channel=3, note=71, velocity=0, time=0),\n",
      "    Message('note_on', channel=3, note=67, velocity=0, time=0),\n",
      "    Message('note_on', channel=3, note=64, velocity=94, time=24),\n",
      "    Message('note_on', channel=3, note=67, velocity=94, time=0),\n",
      "    Message('note_on', channel=3, note=60, velocity=94, time=0),\n",
      "    Message('note_on', channel=3, note=72, velocity=94, time=0),\n",
      "    Message('note_on', channel=3, note=64, velocity=0, time=168),\n",
      "    Message('note_on', channel=3, note=67, velocity=0, time=0),\n",
      "    Message('note_on', channel=3, note=60, velocity=0, time=0),\n",
      "    Message('note_on', channel=3, note=72, velocity=0, time=0),\n",
      "    Message('note_on', channel=3, note=74, velocity=94, time=12),\n",
      "    Message('note_on', channel=3, note=74, velocity=0, time=336),\n",
      "    Message('note_on', channel=3, note=66, velocity=94, time=24),\n",
      "    Message('note_on', channel=3, note=71, velocity=94, time=0),\n",
      "    Message('note_on', channel=3, note=74, velocity=94, time=0),\n",
      "    Message('note_on', channel=3, note=62, velocity=94, time=0),\n",
      "    Message('note_on', channel=3, note=66, velocity=0, time=168),\n",
      "    Message('note_on', channel=3, note=71, velocity=0, time=0),\n",
      "    Message('note_on', channel=3, note=74, velocity=0, time=0),\n",
      "    Message('note_on', channel=3, note=62, velocity=0, time=0),\n",
      "    Message('note_on', channel=3, note=72, velocity=94, time=12),\n",
      "    Message('note_on', channel=3, note=72, velocity=0, time=336),\n",
      "    Message('note_on', channel=3, note=67, velocity=94, time=24),\n",
      "    Message('note_on', channel=3, note=62, velocity=94, time=0),\n",
      "    Message('note_on', channel=3, note=71, velocity=94, time=0),\n",
      "    Message('note_on', channel=3, note=67, velocity=0, time=168),\n",
      "    Message('note_on', channel=3, note=62, velocity=0, time=0),\n",
      "    Message('note_on', channel=3, note=71, velocity=0, time=0),\n",
      "    Message('note_on', channel=3, note=66, velocity=94, time=12),\n",
      "    Message('note_on', channel=3, note=69, velocity=94, time=0),\n",
      "    Message('note_on', channel=3, note=66, velocity=0, time=48),\n",
      "    Message('note_on', channel=3, note=69, velocity=0, time=0),\n",
      "    Message('note_on', channel=3, note=62, velocity=94, time=12),\n",
      "    Message('note_on', channel=3, note=62, velocity=0, time=48),\n",
      "    Message('note_on', channel=3, note=64, velocity=94, time=12),\n",
      "    Message('note_on', channel=3, note=64, velocity=0, time=48),\n",
      "    Message('note_on', channel=3, note=66, velocity=94, time=12),\n",
      "    Message('note_on', channel=3, note=69, velocity=94, time=0),\n",
      "    Message('note_on', channel=3, note=66, velocity=0, time=48),\n",
      "    Message('note_on', channel=3, note=69, velocity=0, time=0),\n",
      "    Message('note_on', channel=3, note=69, velocity=94, time=12),\n",
      "    Message('note_on', channel=3, note=69, velocity=0, time=48),\n",
      "    Message('note_on', channel=3, note=67, velocity=94, time=12),\n",
      "    Message('note_on', channel=3, note=67, velocity=0, time=48),\n",
      "    Message('note_on', channel=3, note=69, velocity=94, time=12),\n",
      "    Message('note_on', channel=3, note=69, velocity=0, time=48),\n",
      "    Message('note_on', channel=3, note=72, velocity=94, time=12),\n",
      "    Message('note_on', channel=3, note=72, velocity=0, time=48),\n",
      "    Message('note_on', channel=3, note=71, velocity=94, time=12),\n",
      "    Message('note_on', channel=3, note=71, velocity=0, time=48),\n",
      "    Message('note_on', channel=3, note=72, velocity=94, time=12),\n",
      "    Message('note_on', channel=3, note=72, velocity=0, time=48),\n",
      "    Message('note_on', channel=3, note=69, velocity=94, time=12),\n",
      "    Message('note_on', channel=3, note=69, velocity=0, time=48),\n",
      "    Message('note_on', channel=3, note=66, velocity=94, time=12),\n",
      "    Message('note_on', channel=3, note=66, velocity=0, time=48),\n",
      "    Message('note_on', channel=3, note=62, velocity=94, time=12),\n",
      "    Message('note_on', channel=3, note=62, velocity=0, time=48),\n",
      "    Message('note_on', channel=3, note=66, velocity=94, time=12),\n",
      "    Message('note_on', channel=3, note=66, velocity=0, time=48),\n",
      "    Message('note_on', channel=3, note=69, velocity=94, time=12),\n",
      "    Message('note_on', channel=3, note=69, velocity=0, time=48),\n",
      "    Message('note_on', channel=3, note=72, velocity=94, time=12),\n",
      "    Message('note_on', channel=3, note=72, velocity=0, time=48),\n",
      "    Message('note_on', channel=3, note=71, velocity=94, time=12),\n",
      "    Message('note_on', channel=3, note=71, velocity=0, time=48),\n",
      "    Message('note_on', channel=3, note=69, velocity=94, time=12),\n",
      "    Message('note_on', channel=3, note=69, velocity=0, time=48),\n",
      "    Message('note_on', channel=3, note=67, velocity=94, time=12),\n",
      "    Message('note_on', channel=3, note=71, velocity=94, time=0),\n",
      "    Message('note_on', channel=3, note=67, velocity=0, time=336),\n",
      "    Message('note_on', channel=3, note=71, velocity=0, time=0),\n",
      "    Message('note_on', channel=3, note=64, velocity=94, time=24),\n",
      "    Message('note_on', channel=3, note=72, velocity=94, time=0),\n",
      "    Message('note_on', channel=3, note=67, velocity=94, time=0),\n",
      "    Message('note_on', channel=3, note=60, velocity=94, time=0),\n",
      "    Message('note_on', channel=3, note=64, velocity=0, time=168),\n",
      "    Message('note_on', channel=3, note=72, velocity=0, time=0),\n",
      "    Message('note_on', channel=3, note=67, velocity=0, time=0),\n",
      "    Message('note_on', channel=3, note=60, velocity=0, time=0),\n",
      "    Message('note_on', channel=3, note=67, velocity=94, time=12),\n",
      "    Message('note_on', channel=3, note=62, velocity=94, time=0),\n",
      "    Message('note_on', channel=3, note=74, velocity=94, time=0),\n",
      "    Message('note_on', channel=3, note=67, velocity=0, time=336),\n",
      "    Message('note_on', channel=3, note=62, velocity=0, time=0),\n",
      "    Message('note_on', channel=3, note=74, velocity=0, time=0),\n",
      "    Message('note_on', channel=3, note=67, velocity=94, time=24),\n",
      "    Message('note_on', channel=3, note=64, velocity=94, time=0),\n",
      "    Message('note_on', channel=3, note=71, velocity=94, time=0),\n",
      "    Message('note_on', channel=3, note=67, velocity=0, time=168),\n",
      "    Message('note_on', channel=3, note=64, velocity=0, time=0),\n",
      "    Message('note_on', channel=3, note=71, velocity=0, time=0),\n",
      "    Message('note_on', channel=3, note=69, velocity=94, time=12),\n",
      "    Message('note_on', channel=3, note=69, velocity=0, time=116),\n",
      "    Message('note_on', channel=3, note=71, velocity=94, time=4),\n",
      "    Message('note_on', channel=3, note=72, velocity=94, time=30),\n",
      "    Message('note_on', channel=3, note=71, velocity=0, time=14),\n",
      "    Message('note_on', channel=3, note=71, velocity=94, time=16),\n",
      "    Message('note_on', channel=3, note=66, velocity=94, time=0),\n",
      "    Message('note_on', channel=3, note=62, velocity=94, time=0),\n",
      "    Message('note_on', channel=3, note=72, velocity=0, time=14),\n",
      "    Message('note_on', channel=3, note=66, velocity=94, time=166),\n",
      "    Message('note_on', channel=3, note=60, velocity=94, time=0),\n",
      "    Message('note_on', channel=3, note=69, velocity=94, time=0),\n",
      "    Message('note_on', channel=3, note=71, velocity=0, time=8),\n",
      "    Message('note_on', channel=3, note=66, velocity=0, time=0),\n",
      "    Message('note_on', channel=3, note=62, velocity=0, time=0),\n",
      "    Message('note_on', channel=3, note=67, velocity=94, time=172),\n",
      "    Message('note_on', channel=3, note=66, velocity=0, time=8),\n",
      "    Message('note_on', channel=3, note=60, velocity=0, time=0),\n",
      "    Message('note_on', channel=3, note=69, velocity=0, time=0),\n",
      "    Message('note_on', channel=3, note=67, velocity=0, time=40),\n",
      "    Message('note_on', channel=3, note=71, velocity=94, time=12),\n",
      "    Message('note_on', channel=3, note=71, velocity=0, time=48),\n",
      "    Message('note_on', channel=3, note=69, velocity=94, time=12),\n",
      "    Message('note_on', channel=3, note=69, velocity=0, time=48),\n",
      "    Message('note_on', channel=3, note=71, velocity=94, time=12),\n",
      "    Message('note_on', channel=3, note=71, velocity=0, time=48),\n",
      "    Message('note_on', channel=3, note=74, velocity=94, time=12),\n",
      "    Message('note_on', channel=3, note=74, velocity=0, time=48),\n",
      "    Message('note_on', channel=3, note=72, velocity=94, time=12),\n",
      "    Message('note_on', channel=3, note=72, velocity=0, time=48),\n",
      "    Message('note_on', channel=3, note=72, velocity=94, time=12),\n",
      "    Message('note_on', channel=3, note=72, velocity=0, time=48),\n",
      "    Message('note_on', channel=3, note=76, velocity=94, time=12),\n",
      "    Message('note_on', channel=3, note=76, velocity=0, time=48),\n",
      "    Message('note_on', channel=3, note=74, velocity=94, time=12),\n",
      "    Message('note_on', channel=3, note=74, velocity=0, time=48),\n",
      "    Message('note_on', channel=3, note=74, velocity=94, time=12),\n",
      "    Message('note_on', channel=3, note=74, velocity=0, time=48),\n",
      "    Message('note_on', channel=3, note=79, velocity=94, time=12),\n",
      "    Message('note_on', channel=3, note=79, velocity=0, time=48),\n",
      "    Message('note_on', channel=3, note=78, velocity=94, time=12),\n",
      "    Message('note_on', channel=3, note=78, velocity=0, time=48),\n",
      "    Message('note_on', channel=3, note=79, velocity=94, time=12),\n",
      "    Message('note_on', channel=3, note=79, velocity=0, time=48),\n",
      "    Message('note_on', channel=3, note=74, velocity=94, time=12),\n",
      "    Message('note_on', channel=3, note=74, velocity=0, time=48),\n",
      "    Message('note_on', channel=3, note=71, velocity=94, time=12),\n",
      "    Message('note_on', channel=3, note=71, velocity=0, time=48),\n",
      "    Message('note_on', channel=3, note=67, velocity=94, time=12),\n",
      "    Message('note_on', channel=3, note=67, velocity=0, time=48),\n",
      "    Message('note_on', channel=3, note=69, velocity=94, time=12),\n",
      "    Message('note_on', channel=3, note=69, velocity=0, time=48),\n",
      "    Message('note_on', channel=3, note=71, velocity=94, time=12),\n",
      "    Message('note_on', channel=3, note=71, velocity=0, time=48),\n",
      "    Message('note_on', channel=3, note=72, velocity=94, time=12),\n",
      "    Message('note_on', channel=3, note=72, velocity=0, time=48),\n",
      "    Message('note_on', channel=3, note=74, velocity=94, time=12),\n",
      "    Message('note_on', channel=3, note=74, velocity=0, time=48),\n",
      "    Message('note_on', channel=3, note=76, velocity=94, time=12),\n",
      "    Message('note_on', channel=3, note=76, velocity=0, time=48),\n",
      "    Message('note_on', channel=3, note=74, velocity=94, time=12),\n",
      "    Message('note_on', channel=3, note=74, velocity=0, time=48),\n",
      "    Message('note_on', channel=3, note=72, velocity=94, time=12),\n",
      "    Message('note_on', channel=3, note=72, velocity=0, time=48),\n",
      "    Message('note_on', channel=3, note=71, velocity=94, time=12),\n",
      "    Message('note_on', channel=3, note=71, velocity=0, time=48),\n",
      "    Message('note_on', channel=3, note=69, velocity=94, time=12),\n",
      "    Message('note_on', channel=3, note=69, velocity=0, time=48),\n",
      "    Message('note_on', channel=3, note=71, velocity=94, time=12),\n",
      "    Message('note_on', channel=3, note=71, velocity=0, time=48),\n",
      "    Message('note_on', channel=3, note=67, velocity=94, time=12),\n",
      "    Message('note_on', channel=3, note=67, velocity=0, time=48),\n",
      "    Message('note_on', channel=3, note=66, velocity=94, time=12),\n",
      "    Message('note_on', channel=3, note=66, velocity=0, time=48),\n",
      "    Message('note_on', channel=3, note=67, velocity=94, time=12),\n",
      "    Message('note_on', channel=3, note=67, velocity=0, time=48),\n",
      "    Message('note_on', channel=3, note=69, velocity=94, time=12),\n",
      "    Message('note_on', channel=3, note=69, velocity=0, time=48),\n",
      "    Message('note_on', channel=3, note=62, velocity=94, time=12),\n",
      "    Message('note_on', channel=3, note=62, velocity=0, time=48),\n",
      "    Message('note_on', channel=3, note=66, velocity=94, time=12),\n",
      "    Message('note_on', channel=3, note=66, velocity=0, time=48),\n",
      "    Message('note_on', channel=3, note=69, velocity=94, time=12),\n",
      "    Message('note_on', channel=3, note=69, velocity=0, time=48),\n",
      "    Message('note_on', channel=3, note=72, velocity=94, time=12),\n",
      "    Message('note_on', channel=3, note=72, velocity=0, time=48),\n",
      "    Message('note_on', channel=3, note=71, velocity=94, time=12),\n",
      "    Message('note_on', channel=3, note=71, velocity=0, time=48),\n",
      "    Message('note_on', channel=3, note=69, velocity=94, time=12),\n",
      "    Message('note_on', channel=3, note=69, velocity=0, time=48),\n",
      "    Message('note_on', channel=3, note=71, velocity=94, time=12),\n",
      "    Message('note_on', channel=3, note=71, velocity=0, time=48),\n",
      "    Message('note_on', channel=3, note=67, velocity=94, time=12),\n",
      "    Message('note_on', channel=3, note=67, velocity=0, time=48),\n",
      "    Message('note_on', channel=3, note=69, velocity=94, time=12),\n",
      "    Message('note_on', channel=3, note=69, velocity=0, time=48),\n",
      "    Message('note_on', channel=3, note=71, velocity=94, time=12),\n",
      "    Message('note_on', channel=3, note=71, velocity=0, time=48),\n",
      "    Message('note_on', channel=3, note=74, velocity=94, time=12),\n",
      "    Message('note_on', channel=3, note=74, velocity=0, time=48),\n",
      "    Message('note_on', channel=3, note=72, velocity=94, time=12),\n",
      "    Message('note_on', channel=3, note=72, velocity=0, time=48),\n",
      "    Message('note_on', channel=3, note=72, velocity=94, time=12),\n",
      "    Message('note_on', channel=3, note=72, velocity=0, time=48),\n",
      "    Message('note_on', channel=3, note=76, velocity=94, time=12),\n",
      "    Message('note_on', channel=3, note=76, velocity=0, time=48),\n",
      "    Message('note_on', channel=3, note=74, velocity=94, time=12),\n",
      "    Message('note_on', channel=3, note=74, velocity=0, time=48),\n",
      "    Message('note_on', channel=3, note=74, velocity=94, time=12),\n",
      "    Message('note_on', channel=3, note=74, velocity=0, time=48),\n",
      "    Message('note_on', channel=3, note=79, velocity=94, time=12),\n",
      "    Message('note_on', channel=3, note=79, velocity=0, time=48),\n",
      "    Message('note_on', channel=3, note=78, velocity=94, time=12),\n",
      "    Message('note_on', channel=3, note=78, velocity=0, time=48),\n",
      "    Message('note_on', channel=3, note=79, velocity=94, time=12),\n",
      "    Message('note_on', channel=3, note=79, velocity=0, time=48),\n",
      "    Message('note_on', channel=3, note=74, velocity=94, time=12),\n",
      "    Message('note_on', channel=3, note=74, velocity=0, time=48),\n",
      "    Message('note_on', channel=3, note=71, velocity=94, time=12),\n",
      "    Message('note_on', channel=3, note=71, velocity=0, time=48),\n",
      "    Message('note_on', channel=3, note=67, velocity=94, time=12),\n",
      "    Message('note_on', channel=3, note=67, velocity=0, time=48),\n",
      "    Message('note_on', channel=3, note=69, velocity=94, time=12),\n",
      "    Message('note_on', channel=3, note=69, velocity=0, time=48),\n",
      "    Message('note_on', channel=3, note=71, velocity=94, time=12),\n",
      "    Message('note_on', channel=3, note=71, velocity=0, time=48),\n",
      "    Message('note_on', channel=3, note=64, velocity=94, time=12),\n",
      "    Message('note_on', channel=3, note=64, velocity=0, time=48),\n",
      "    Message('note_on', channel=3, note=74, velocity=94, time=12),\n",
      "    Message('note_on', channel=3, note=74, velocity=0, time=48),\n",
      "    Message('note_on', channel=3, note=72, velocity=94, time=12),\n",
      "    Message('note_on', channel=3, note=72, velocity=0, time=48),\n",
      "    Message('note_on', channel=3, note=71, velocity=94, time=12),\n",
      "    Message('note_on', channel=3, note=71, velocity=0, time=48),\n",
      "    Message('note_on', channel=3, note=69, velocity=94, time=12),\n",
      "    Message('note_on', channel=3, note=69, velocity=0, time=48),\n",
      "    Message('note_on', channel=3, note=67, velocity=94, time=12),\n",
      "    Message('note_on', channel=3, note=67, velocity=0, time=48),\n",
      "    Message('note_on', channel=3, note=62, velocity=94, time=12),\n",
      "    Message('note_on', channel=3, note=62, velocity=0, time=48),\n",
      "    Message('note_on', channel=3, note=67, velocity=94, time=12),\n",
      "    Message('note_on', channel=3, note=67, velocity=0, time=48),\n",
      "    Message('note_on', channel=3, note=66, velocity=94, time=12),\n",
      "    Message('note_on', channel=3, note=66, velocity=0, time=48),\n",
      "    Message('note_on', channel=3, note=67, velocity=94, time=12),\n",
      "    Message('note_on', channel=3, note=71, velocity=94, time=0),\n",
      "    Message('note_on', channel=3, note=67, velocity=0, time=336),\n",
      "    Message('note_on', channel=3, note=71, velocity=0, time=0),\n",
      "    Message('note_on', channel=3, note=64, velocity=94, time=24),\n",
      "    Message('note_on', channel=3, note=60, velocity=94, time=0),\n",
      "    Message('note_on', channel=3, note=67, velocity=94, time=0),\n",
      "    Message('note_on', channel=3, note=72, velocity=94, time=0),\n",
      "    Message('note_on', channel=3, note=64, velocity=0, time=168),\n",
      "    Message('note_on', channel=3, note=60, velocity=0, time=0),\n",
      "    Message('note_on', channel=3, note=67, velocity=0, time=0),\n",
      "    Message('note_on', channel=3, note=72, velocity=0, time=0),\n",
      "    Message('note_on', channel=3, note=74, velocity=94, time=12),\n",
      "    Message('note_on', channel=3, note=74, velocity=0, time=336),\n",
      "    Message('note_on', channel=3, note=66, velocity=94, time=24),\n",
      "    Message('note_on', channel=3, note=71, velocity=94, time=0),\n",
      "    Message('note_on', channel=3, note=74, velocity=94, time=0),\n",
      "    Message('note_on', channel=3, note=62, velocity=94, time=0),\n",
      "    Message('note_on', channel=3, note=66, velocity=0, time=168),\n",
      "    Message('note_on', channel=3, note=71, velocity=0, time=0),\n",
      "    Message('note_on', channel=3, note=74, velocity=0, time=0),\n",
      "    Message('note_on', channel=3, note=62, velocity=0, time=0),\n",
      "    Message('note_on', channel=3, note=72, velocity=94, time=12),\n",
      "    Message('note_on', channel=3, note=72, velocity=0, time=336),\n",
      "    Message('note_on', channel=3, note=67, velocity=94, time=24),\n",
      "    Message('note_on', channel=3, note=62, velocity=94, time=0),\n",
      "    Message('note_on', channel=3, note=71, velocity=94, time=0),\n",
      "    Message('note_on', channel=3, note=67, velocity=0, time=168),\n",
      "    Message('note_on', channel=3, note=62, velocity=0, time=0),\n",
      "    Message('note_on', channel=3, note=71, velocity=0, time=0),\n",
      "    Message('note_on', channel=3, note=66, velocity=94, time=12),\n",
      "    Message('note_on', channel=3, note=69, velocity=94, time=0),\n",
      "    Message('note_on', channel=3, note=66, velocity=0, time=48),\n",
      "    Message('note_on', channel=3, note=69, velocity=0, time=0),\n",
      "    Message('note_on', channel=3, note=62, velocity=94, time=12),\n",
      "    Message('note_on', channel=3, note=62, velocity=0, time=48),\n",
      "    Message('note_on', channel=3, note=64, velocity=94, time=12),\n",
      "    Message('note_on', channel=3, note=64, velocity=0, time=48),\n",
      "    Message('note_on', channel=3, note=66, velocity=94, time=12),\n",
      "    Message('note_on', channel=3, note=69, velocity=94, time=0),\n",
      "    Message('note_on', channel=3, note=66, velocity=0, time=48),\n",
      "    Message('note_on', channel=3, note=69, velocity=0, time=0),\n",
      "    Message('note_on', channel=3, note=69, velocity=94, time=12),\n",
      "    Message('note_on', channel=3, note=69, velocity=0, time=48),\n",
      "    Message('note_on', channel=3, note=67, velocity=94, time=12),\n",
      "    Message('note_on', channel=3, note=67, velocity=0, time=48),\n",
      "    Message('note_on', channel=3, note=69, velocity=94, time=12),\n",
      "    Message('note_on', channel=3, note=69, velocity=0, time=48),\n",
      "    Message('note_on', channel=3, note=72, velocity=94, time=12),\n",
      "    Message('note_on', channel=3, note=72, velocity=0, time=48),\n",
      "    Message('note_on', channel=3, note=71, velocity=94, time=12),\n",
      "    Message('note_on', channel=3, note=71, velocity=0, time=48),\n",
      "    Message('note_on', channel=3, note=72, velocity=94, time=12),\n",
      "    Message('note_on', channel=3, note=72, velocity=0, time=48),\n",
      "    Message('note_on', channel=3, note=69, velocity=94, time=12),\n",
      "    Message('note_on', channel=3, note=69, velocity=0, time=48),\n",
      "    Message('note_on', channel=3, note=66, velocity=94, time=12),\n",
      "    Message('note_on', channel=3, note=66, velocity=0, time=48),\n",
      "    Message('note_on', channel=3, note=62, velocity=94, time=12),\n",
      "    Message('note_on', channel=3, note=62, velocity=0, time=48),\n",
      "    Message('note_on', channel=3, note=66, velocity=94, time=12),\n",
      "    Message('note_on', channel=3, note=66, velocity=0, time=48),\n",
      "    Message('note_on', channel=3, note=69, velocity=94, time=12),\n",
      "    Message('note_on', channel=3, note=69, velocity=0, time=48),\n",
      "    Message('note_on', channel=3, note=72, velocity=94, time=12),\n",
      "    Message('note_on', channel=3, note=72, velocity=0, time=48),\n",
      "    Message('note_on', channel=3, note=71, velocity=94, time=12),\n",
      "    Message('note_on', channel=3, note=71, velocity=0, time=48),\n",
      "    Message('note_on', channel=3, note=69, velocity=94, time=12),\n",
      "    Message('note_on', channel=3, note=69, velocity=0, time=48),\n",
      "    Message('note_on', channel=3, note=71, velocity=94, time=12),\n",
      "    Message('note_on', channel=3, note=67, velocity=94, time=0),\n",
      "    Message('note_on', channel=3, note=71, velocity=0, time=336),\n",
      "    Message('note_on', channel=3, note=67, velocity=0, time=0),\n",
      "    Message('note_on', channel=3, note=64, velocity=94, time=24),\n",
      "    Message('note_on', channel=3, note=60, velocity=94, time=0),\n",
      "    Message('note_on', channel=3, note=67, velocity=94, time=0),\n",
      "    Message('note_on', channel=3, note=72, velocity=94, time=0),\n",
      "    Message('note_on', channel=3, note=64, velocity=0, time=168),\n",
      "    Message('note_on', channel=3, note=60, velocity=0, time=0),\n",
      "    Message('note_on', channel=3, note=67, velocity=0, time=0),\n",
      "    Message('note_on', channel=3, note=72, velocity=0, time=0),\n",
      "    Message('note_on', channel=3, note=67, velocity=94, time=12),\n",
      "    Message('note_on', channel=3, note=74, velocity=94, time=0),\n",
      "    Message('note_on', channel=3, note=62, velocity=94, time=0),\n",
      "    Message('note_on', channel=3, note=67, velocity=0, time=336),\n",
      "    Message('note_on', channel=3, note=74, velocity=0, time=0),\n",
      "    Message('note_on', channel=3, note=62, velocity=0, time=0),\n",
      "    Message('note_on', channel=3, note=67, velocity=94, time=24),\n",
      "    Message('note_on', channel=3, note=64, velocity=94, time=0),\n",
      "    Message('note_on', channel=3, note=71, velocity=94, time=0),\n",
      "    Message('note_on', channel=3, note=67, velocity=0, time=168),\n",
      "    Message('note_on', channel=3, note=64, velocity=0, time=0),\n",
      "    Message('note_on', channel=3, note=71, velocity=0, time=0),\n",
      "    Message('note_on', channel=3, note=69, velocity=94, time=12),\n",
      "    Message('note_on', channel=3, note=69, velocity=0, time=116),\n",
      "    Message('note_on', channel=3, note=71, velocity=94, time=4),\n",
      "    Message('note_on', channel=3, note=72, velocity=94, time=30),\n",
      "    Message('note_on', channel=3, note=71, velocity=0, time=14),\n",
      "    Message('note_on', channel=3, note=66, velocity=94, time=16),\n",
      "    Message('note_on', channel=3, note=71, velocity=94, time=0),\n",
      "    Message('note_on', channel=3, note=62, velocity=94, time=0),\n",
      "    Message('note_on', channel=3, note=72, velocity=0, time=14),\n",
      "    Message('note_on', channel=3, note=66, velocity=0, time=154),\n",
      "    Message('note_on', channel=3, note=71, velocity=0, time=0),\n",
      "    Message('note_on', channel=3, note=62, velocity=0, time=0),\n",
      "    Message('note_on', channel=3, note=66, velocity=94, time=12),\n",
      "    Message('note_on', channel=3, note=60, velocity=94, time=0),\n",
      "    Message('note_on', channel=3, note=69, velocity=94, time=0),\n",
      "    Message('note_on', channel=3, note=66, velocity=0, time=168),\n",
      "    Message('note_on', channel=3, note=60, velocity=0, time=0),\n",
      "    Message('note_on', channel=3, note=69, velocity=0, time=0),\n",
      "    Message('note_on', channel=3, note=67, velocity=94, time=12),\n",
      "    Message('note_on', channel=3, note=67, velocity=0, time=48),\n",
      "    Message('note_on', channel=3, note=71, velocity=94, time=12),\n",
      "    Message('note_on', channel=3, note=71, velocity=0, time=48),\n",
      "    Message('note_on', channel=3, note=69, velocity=94, time=12),\n",
      "    Message('note_on', channel=3, note=69, velocity=0, time=48),\n",
      "    Message('note_on', channel=3, note=71, velocity=94, time=12),\n",
      "    Message('note_on', channel=3, note=71, velocity=0, time=48),\n",
      "    Message('note_on', channel=3, note=74, velocity=94, time=12),\n",
      "    Message('note_on', channel=3, note=74, velocity=0, time=48),\n",
      "    Message('note_on', channel=3, note=72, velocity=94, time=12),\n",
      "    Message('note_on', channel=3, note=72, velocity=0, time=48),\n",
      "    Message('note_on', channel=3, note=72, velocity=94, time=12),\n",
      "    Message('note_on', channel=3, note=72, velocity=0, time=48),\n",
      "    Message('note_on', channel=3, note=76, velocity=94, time=12),\n",
      "    Message('note_on', channel=3, note=76, velocity=0, time=48),\n",
      "    Message('note_on', channel=3, note=74, velocity=94, time=12),\n",
      "    Message('note_on', channel=3, note=74, velocity=0, time=48),\n",
      "    Message('note_on', channel=3, note=74, velocity=94, time=12),\n",
      "    Message('note_on', channel=3, note=74, velocity=0, time=48),\n",
      "    Message('note_on', channel=3, note=79, velocity=94, time=12),\n",
      "    Message('note_on', channel=3, note=79, velocity=0, time=48),\n",
      "    Message('note_on', channel=3, note=78, velocity=94, time=12),\n",
      "    Message('note_on', channel=3, note=78, velocity=0, time=48),\n",
      "    Message('note_on', channel=3, note=79, velocity=94, time=12),\n",
      "    Message('note_on', channel=3, note=79, velocity=0, time=48),\n",
      "    Message('note_on', channel=3, note=74, velocity=94, time=12),\n",
      "    Message('note_on', channel=3, note=74, velocity=0, time=48),\n",
      "    Message('note_on', channel=3, note=71, velocity=94, time=12),\n",
      "    Message('note_on', channel=3, note=71, velocity=0, time=48),\n",
      "    Message('note_on', channel=3, note=67, velocity=94, time=12),\n",
      "    Message('note_on', channel=3, note=67, velocity=0, time=48),\n",
      "    Message('note_on', channel=3, note=69, velocity=94, time=12),\n",
      "    Message('note_on', channel=3, note=69, velocity=0, time=48),\n",
      "    Message('note_on', channel=3, note=71, velocity=94, time=12),\n",
      "    Message('note_on', channel=3, note=71, velocity=0, time=48),\n",
      "    Message('note_on', channel=3, note=72, velocity=94, time=12),\n",
      "    Message('note_on', channel=3, note=72, velocity=0, time=48),\n",
      "    Message('note_on', channel=3, note=74, velocity=94, time=12),\n",
      "    Message('note_on', channel=3, note=74, velocity=0, time=48),\n",
      "    Message('note_on', channel=3, note=76, velocity=94, time=12),\n",
      "    Message('note_on', channel=3, note=76, velocity=0, time=48),\n",
      "    Message('note_on', channel=3, note=74, velocity=94, time=12),\n",
      "    Message('note_on', channel=3, note=74, velocity=0, time=48),\n",
      "    Message('note_on', channel=3, note=72, velocity=94, time=12),\n",
      "    Message('note_on', channel=3, note=72, velocity=0, time=48),\n",
      "    Message('note_on', channel=3, note=71, velocity=94, time=12),\n",
      "    Message('note_on', channel=3, note=71, velocity=0, time=48),\n",
      "    Message('note_on', channel=3, note=69, velocity=94, time=12),\n",
      "    Message('note_on', channel=3, note=69, velocity=0, time=48),\n",
      "    Message('note_on', channel=3, note=71, velocity=94, time=12),\n",
      "    Message('note_on', channel=3, note=71, velocity=0, time=48),\n",
      "    Message('note_on', channel=3, note=67, velocity=94, time=12),\n",
      "    Message('note_on', channel=3, note=67, velocity=0, time=48),\n",
      "    Message('note_on', channel=3, note=66, velocity=94, time=12),\n",
      "    Message('note_on', channel=3, note=66, velocity=0, time=48),\n",
      "    Message('note_on', channel=3, note=67, velocity=94, time=12),\n",
      "    Message('note_on', channel=3, note=67, velocity=0, time=48),\n",
      "    Message('note_on', channel=3, note=69, velocity=94, time=12),\n",
      "    Message('note_on', channel=3, note=69, velocity=0, time=48),\n",
      "    Message('note_on', channel=3, note=62, velocity=94, time=12),\n",
      "    Message('note_on', channel=3, note=62, velocity=0, time=48),\n",
      "    Message('note_on', channel=3, note=66, velocity=94, time=12),\n",
      "    Message('note_on', channel=3, note=66, velocity=0, time=48),\n",
      "    Message('note_on', channel=3, note=69, velocity=94, time=12),\n",
      "    Message('note_on', channel=3, note=69, velocity=0, time=48),\n",
      "    Message('note_on', channel=3, note=72, velocity=94, time=12),\n",
      "    Message('note_on', channel=3, note=72, velocity=0, time=48),\n",
      "    Message('note_on', channel=3, note=71, velocity=94, time=12),\n",
      "    Message('note_on', channel=3, note=71, velocity=0, time=48),\n",
      "    Message('note_on', channel=3, note=69, velocity=94, time=12),\n",
      "    Message('note_on', channel=3, note=69, velocity=0, time=48),\n",
      "    Message('note_on', channel=3, note=71, velocity=94, time=12),\n",
      "    Message('note_on', channel=3, note=71, velocity=0, time=48),\n",
      "    Message('note_on', channel=3, note=67, velocity=94, time=12),\n",
      "    Message('note_on', channel=3, note=67, velocity=0, time=48),\n",
      "    Message('note_on', channel=3, note=69, velocity=94, time=12),\n",
      "    Message('note_on', channel=3, note=69, velocity=0, time=48),\n",
      "    Message('note_on', channel=3, note=71, velocity=94, time=12),\n",
      "    Message('note_on', channel=3, note=71, velocity=0, time=48),\n",
      "    Message('note_on', channel=3, note=74, velocity=94, time=12),\n",
      "    Message('note_on', channel=3, note=74, velocity=0, time=48),\n",
      "    Message('note_on', channel=3, note=72, velocity=94, time=12),\n",
      "    Message('note_on', channel=3, note=72, velocity=0, time=48),\n",
      "    Message('note_on', channel=3, note=72, velocity=94, time=12),\n",
      "    Message('note_on', channel=3, note=72, velocity=0, time=48),\n",
      "    Message('note_on', channel=3, note=76, velocity=94, time=12),\n",
      "    Message('note_on', channel=3, note=76, velocity=0, time=48),\n",
      "    Message('note_on', channel=3, note=74, velocity=94, time=12),\n",
      "    Message('note_on', channel=3, note=74, velocity=0, time=48),\n",
      "    Message('note_on', channel=3, note=74, velocity=94, time=12),\n",
      "    Message('note_on', channel=3, note=74, velocity=0, time=48),\n",
      "    Message('note_on', channel=3, note=79, velocity=94, time=12),\n",
      "    Message('note_on', channel=3, note=79, velocity=0, time=48),\n",
      "    Message('note_on', channel=3, note=78, velocity=94, time=12),\n",
      "    Message('note_on', channel=3, note=78, velocity=0, time=48),\n",
      "    Message('note_on', channel=3, note=79, velocity=94, time=12),\n",
      "    Message('note_on', channel=3, note=79, velocity=0, time=48),\n",
      "    Message('note_on', channel=3, note=74, velocity=94, time=12),\n",
      "    Message('note_on', channel=3, note=74, velocity=0, time=48),\n",
      "    Message('note_on', channel=3, note=71, velocity=94, time=12),\n",
      "    Message('note_on', channel=3, note=71, velocity=0, time=48),\n",
      "    Message('note_on', channel=3, note=67, velocity=94, time=12),\n",
      "    Message('note_on', channel=3, note=67, velocity=0, time=48),\n",
      "    Message('note_on', channel=3, note=69, velocity=94, time=12),\n",
      "    Message('note_on', channel=3, note=69, velocity=0, time=48),\n",
      "    Message('note_on', channel=3, note=71, velocity=94, time=12),\n",
      "    Message('note_on', channel=3, note=71, velocity=0, time=48),\n",
      "    Message('note_on', channel=3, note=64, velocity=94, time=12),\n",
      "    Message('note_on', channel=3, note=64, velocity=0, time=48),\n",
      "    Message('note_on', channel=3, note=74, velocity=94, time=12),\n",
      "    Message('note_on', channel=3, note=74, velocity=0, time=48),\n",
      "    Message('note_on', channel=3, note=72, velocity=94, time=12),\n",
      "    Message('note_on', channel=3, note=72, velocity=0, time=48),\n",
      "    Message('note_on', channel=3, note=71, velocity=94, time=12),\n",
      "    Message('note_on', channel=3, note=71, velocity=0, time=48),\n",
      "    Message('note_on', channel=3, note=69, velocity=94, time=12),\n",
      "    Message('note_on', channel=3, note=69, velocity=0, time=48),\n",
      "    Message('note_on', channel=3, note=67, velocity=94, time=12),\n",
      "    Message('note_on', channel=3, note=67, velocity=0, time=48),\n",
      "    Message('note_on', channel=3, note=62, velocity=94, time=12),\n",
      "    Message('note_on', channel=3, note=62, velocity=0, time=48),\n",
      "    Message('note_on', channel=3, note=67, velocity=94, time=12),\n",
      "    Message('note_on', channel=3, note=67, velocity=0, time=48),\n",
      "    Message('note_on', channel=3, note=66, velocity=94, time=12),\n",
      "    Message('note_on', channel=3, note=66, velocity=0, time=48),\n",
      "    Message('note_on', channel=3, note=67, velocity=94, time=12),\n",
      "    Message('note_on', channel=3, note=67, velocity=0, time=48),\n",
      "    Message('note_on', channel=3, note=71, velocity=94, time=12),\n",
      "    Message('note_on', channel=3, note=71, velocity=0, time=48),\n",
      "    Message('note_on', channel=3, note=74, velocity=94, time=12),\n",
      "    Message('note_on', channel=3, note=74, velocity=0, time=48),\n",
      "    Message('note_on', channel=3, note=79, velocity=94, time=12),\n",
      "    Message('note_on', channel=3, note=79, velocity=0, time=48),\n",
      "    Message('note_on', channel=3, note=74, velocity=94, time=12),\n",
      "    Message('note_on', channel=3, note=74, velocity=0, time=48),\n",
      "    Message('note_on', channel=3, note=71, velocity=94, time=12),\n",
      "    Message('note_on', channel=3, note=71, velocity=0, time=48),\n",
      "    Message('note_on', channel=3, note=67, velocity=94, time=12),\n",
      "    Message('note_on', channel=3, note=67, velocity=0, time=168),\n",
      "    Message('note_on', channel=3, note=66, velocity=84, time=13),\n",
      "    Message('note_on', channel=3, note=69, velocity=84, time=0),\n",
      "    Message('note_on', channel=3, note=66, velocity=0, time=336),\n",
      "    Message('note_on', channel=3, note=69, velocity=0, time=0),\n",
      "    Message('note_on', channel=3, note=68, velocity=84, time=24),\n",
      "    Message('note_on', channel=3, note=71, velocity=84, time=0),\n",
      "    Message('note_on', channel=3, note=62, velocity=84, time=0),\n",
      "    Message('note_on', channel=3, note=68, velocity=0, time=168),\n",
      "    Message('note_on', channel=3, note=71, velocity=0, time=0),\n",
      "    Message('note_on', channel=3, note=62, velocity=0, time=0),\n",
      "    Message('note_on', channel=3, note=72, velocity=84, time=12),\n",
      "    Message('note_on', channel=3, note=64, velocity=84, time=0),\n",
      "    Message('note_on', channel=3, note=69, velocity=84, time=0),\n",
      "    Message('note_on', channel=3, note=72, velocity=0, time=336),\n",
      "    Message('note_on', channel=3, note=64, velocity=0, time=0),\n",
      "    Message('note_on', channel=3, note=69, velocity=0, time=0),\n",
      "    Message('note_on', channel=3, note=69, velocity=84, time=24),\n",
      "    Message('note_on', channel=3, note=64, velocity=84, time=0),\n",
      "    Message('note_on', channel=3, note=72, velocity=84, time=0),\n",
      "    Message('note_on', channel=3, note=69, velocity=0, time=168),\n",
      "    Message('note_on', channel=3, note=64, velocity=0, time=0),\n",
      "    Message('note_on', channel=3, note=72, velocity=0, time=0),\n",
      "    Message('note_on', channel=3, note=71, velocity=84, time=12),\n",
      "    Message('note_on', channel=3, note=71, velocity=0, time=276),\n",
      "    Message('note_on', channel=3, note=72, velocity=84, time=24),\n",
      "    Message('note_on', channel=3, note=72, velocity=0, time=24),\n",
      "    Message('note_on', channel=3, note=74, velocity=84, time=6),\n",
      "    Message('note_on', channel=3, note=74, velocity=0, time=24),\n",
      "    Message('note_on', channel=3, note=71, velocity=84, time=6),\n",
      "    Message('note_on', channel=3, note=68, velocity=84, time=0),\n",
      "    Message('note_on', channel=3, note=71, velocity=0, time=168),\n",
      "    Message('note_on', channel=3, note=68, velocity=0, time=0),\n",
      "    Message('note_on', channel=3, note=67, velocity=84, time=12),\n",
      "    Message('note_on', channel=3, note=67, velocity=0, time=168),\n",
      "    Message('note_on', channel=3, note=67, velocity=84, time=12),\n",
      "    Message('note_on', channel=3, note=67, velocity=0, time=48),\n",
      "    Message('note_on', channel=3, note=76, velocity=84, time=12),\n",
      "    Message('note_on', channel=3, note=76, velocity=0, time=48),\n",
      "    Message('note_on', channel=3, note=74, velocity=84, time=12),\n",
      "    Message('note_on', channel=3, note=74, velocity=0, time=48),\n",
      "    Message('note_on', channel=3, note=74, velocity=84, time=12),\n",
      "    Message('note_on', channel=3, note=74, velocity=0, time=48),\n",
      "    Message('note_on', channel=3, note=77, velocity=84, time=12),\n",
      "    Message('note_on', channel=3, note=77, velocity=0, time=48),\n",
      "    Message('note_on', channel=3, note=76, velocity=84, time=12),\n",
      "    Message('note_on', channel=3, note=76, velocity=0, time=48),\n",
      "    Message('note_on', channel=3, note=76, velocity=84, time=12),\n",
      "    Message('note_on', channel=3, note=76, velocity=0, time=48),\n",
      "    Message('note_on', channel=3, note=81, velocity=84, time=12),\n",
      "    Message('note_on', channel=3, note=81, velocity=0, time=48),\n",
      "    Message('note_on', channel=3, note=80, velocity=84, time=12),\n",
      "    Message('note_on', channel=3, note=80, velocity=0, time=48),\n",
      "    Message('note_on', channel=3, note=81, velocity=84, time=12),\n",
      "    Message('note_on', channel=3, note=81, velocity=0, time=48),\n",
      "    Message('note_on', channel=3, note=76, velocity=84, time=12),\n",
      "    Message('note_on', channel=3, note=76, velocity=0, time=48),\n",
      "    Message('note_on', channel=3, note=72, velocity=84, time=12),\n",
      "    Message('note_on', channel=3, note=72, velocity=0, time=48),\n",
      "    Message('note_on', channel=3, note=69, velocity=84, time=12),\n",
      "    Message('note_on', channel=3, note=69, velocity=0, time=48),\n",
      "    Message('note_on', channel=3, note=71, velocity=84, time=12),\n",
      "    Message('note_on', channel=3, note=71, velocity=0, time=48),\n",
      "    Message('note_on', channel=3, note=72, velocity=84, time=12),\n",
      "    Message('note_on', channel=3, note=72, velocity=0, time=48),\n",
      "    Message('note_on', channel=3, note=77, velocity=84, time=12),\n",
      "    Message('note_on', channel=3, note=77, velocity=0, time=48),\n",
      "    Message('note_on', channel=3, note=76, velocity=84, time=12),\n",
      "    Message('note_on', channel=3, note=76, velocity=0, time=48),\n",
      "    Message('note_on', channel=3, note=74, velocity=84, time=12),\n",
      "    Message('note_on', channel=3, note=74, velocity=0, time=48),\n",
      "    Message('note_on', channel=3, note=72, velocity=84, time=12),\n",
      "    Message('note_on', channel=3, note=72, velocity=0, time=48),\n",
      "    Message('note_on', channel=3, note=71, velocity=84, time=12),\n",
      "    Message('note_on', channel=3, note=71, velocity=0, time=48),\n",
      "    Message('note_on', channel=3, note=69, velocity=84, time=12),\n",
      "    Message('note_on', channel=3, note=69, velocity=0, time=48),\n",
      "    Message('note_on', channel=3, note=64, velocity=84, time=12),\n",
      "    Message('note_on', channel=3, note=64, velocity=0, time=48),\n",
      "    Message('note_on', channel=3, note=69, velocity=84, time=12),\n",
      "    Message('note_on', channel=3, note=69, velocity=0, time=48),\n",
      "    Message('note_on', channel=3, note=68, velocity=84, time=12),\n",
      "    Message('note_on', channel=3, note=62, velocity=84, time=0),\n",
      "    Message('note_on', channel=3, note=68, velocity=0, time=48),\n",
      "    Message('note_on', channel=3, note=62, velocity=0, time=0),\n",
      "    Message('note_on', channel=3, note=64, velocity=84, time=12),\n",
      "    Message('note_on', channel=3, note=69, velocity=84, time=0),\n",
      "    Message('note_on', channel=3, note=72, velocity=84, time=0),\n",
      "    Message('note_on', channel=3, note=64, velocity=0, time=336),\n",
      "    Message('note_on', channel=3, note=69, velocity=0, time=0),\n",
      "    Message('note_on', channel=3, note=72, velocity=0, time=0),\n",
      "    Message('note_on', channel=3, note=74, velocity=84, time=24),\n",
      "    Message('note_on', channel=3, note=62, velocity=84, time=0),\n",
      "    Message('note_on', channel=3, note=67, velocity=84, time=0),\n",
      "    Message('note_on', channel=3, note=74, velocity=0, time=168),\n",
      "    Message('note_on', channel=3, note=62, velocity=0, time=0),\n",
      "    Message('note_on', channel=3, note=67, velocity=0, time=0),\n",
      "    Message('note_on', channel=3, note=72, velocity=84, time=12),\n",
      "    Message('note_on', channel=3, note=76, velocity=84, time=0),\n",
      "    Message('note_on', channel=3, note=72, velocity=0, time=336),\n",
      "    Message('note_on', channel=3, note=76, velocity=0, time=0),\n",
      "    Message('note_on', channel=3, note=72, velocity=84, time=24),\n",
      "    Message('note_on', channel=3, note=76, velocity=84, time=0),\n",
      "    Message('note_on', channel=3, note=67, velocity=84, time=0),\n",
      "    Message('note_on', channel=3, note=72, velocity=0, time=168),\n",
      "    Message('note_on', channel=3, note=76, velocity=0, time=0),\n",
      "    Message('note_on', channel=3, note=67, velocity=0, time=0),\n",
      "    Message('note_on', channel=3, note=74, velocity=84, time=12),\n",
      "    Message('note_on', channel=3, note=74, velocity=0, time=276),\n",
      "    Message('note_on', channel=3, note=76, velocity=84, time=24),\n",
      "    Message('note_on', channel=3, note=76, velocity=0, time=24),\n",
      "    Message('note_on', channel=3, note=77, velocity=84, time=6),\n",
      "    Message('note_on', channel=3, note=77, velocity=0, time=24),\n",
      "    Message('note_on', channel=3, note=74, velocity=84, time=6),\n",
      "    Message('note_on', channel=3, note=74, velocity=0, time=168),\n",
      "    Message('note_on', channel=3, note=64, velocity=84, time=12),\n",
      "    Message('note_on', channel=3, note=72, velocity=84, time=0),\n",
      "    Message('note_on', channel=3, note=64, velocity=0, time=168),\n",
      "    Message('note_on', channel=3, note=72, velocity=0, time=0),\n",
      "    Message('note_on', channel=3, note=72, velocity=84, time=12),\n",
      "    Message('note_on', channel=3, note=72, velocity=0, time=48),\n",
      "    Message('note_on', channel=3, note=76, velocity=84, time=12),\n",
      "    Message('note_on', channel=3, note=76, velocity=0, time=48),\n",
      "    Message('note_on', channel=3, note=72, velocity=84, time=12),\n",
      "    Message('note_on', channel=3, note=72, velocity=0, time=48),\n",
      "    Message('note_on', channel=3, note=67, velocity=84, time=12),\n",
      "    Message('note_on', channel=3, note=67, velocity=0, time=48),\n",
      "    Message('note_on', channel=3, note=69, velocity=84, time=12),\n",
      "    Message('note_on', channel=3, note=69, velocity=0, time=48),\n",
      "    Message('note_on', channel=3, note=70, velocity=84, time=12),\n",
      "    Message('note_on', channel=3, note=70, velocity=0, time=48),\n",
      "    Message('note_on', channel=3, note=69, velocity=84, time=12),\n",
      "    Message('note_on', channel=3, note=69, velocity=0, time=48),\n",
      "    Message('note_on', channel=3, note=72, velocity=84, time=12),\n",
      "    Message('note_on', channel=3, note=72, velocity=0, time=48),\n",
      "    Message('note_on', channel=3, note=71, velocity=84, time=12),\n",
      "    Message('note_on', channel=3, note=71, velocity=0, time=48),\n",
      "    Message('note_on', channel=3, note=72, velocity=84, time=12),\n",
      "    Message('note_on', channel=3, note=72, velocity=0, time=48),\n",
      "    Message('note_on', channel=3, note=69, velocity=84, time=12),\n",
      "    Message('note_on', channel=3, note=69, velocity=0, time=48),\n",
      "    Message('note_on', channel=3, note=66, velocity=84, time=12),\n",
      "    Message('note_on', channel=3, note=66, velocity=0, time=48),\n",
      "    Message('note_on', channel=3, note=62, velocity=84, time=12),\n",
      "    Message('note_on', channel=3, note=62, velocity=0, time=48),\n",
      "    Message('note_on', channel=3, note=64, velocity=84, time=12),\n",
      "    Message('note_on', channel=3, note=64, velocity=0, time=48),\n",
      "    Message('note_on', channel=3, note=66, velocity=84, time=12),\n",
      "    Message('note_on', channel=3, note=66, velocity=0, time=48),\n",
      "    Message('note_on', channel=3, note=64, velocity=84, time=12),\n",
      "    Message('note_on', channel=3, note=64, velocity=0, time=48),\n",
      "    Message('note_on', channel=3, note=60, velocity=84, time=12),\n",
      "    Message('note_on', channel=3, note=60, velocity=0, time=48),\n",
      "    Message('note_on', channel=3, note=62, velocity=84, time=12),\n",
      "    Message('note_on', channel=3, note=62, velocity=0, time=48),\n",
      "    Message('note_on', channel=3, note=64, velocity=84, time=12),\n",
      "    Message('note_on', channel=3, note=64, velocity=0, time=48),\n",
      "    Message('note_on', channel=3, note=67, velocity=84, time=12),\n",
      "    Message('note_on', channel=3, note=67, velocity=0, time=48),\n",
      "    Message('note_on', channel=3, note=66, velocity=84, time=12),\n",
      "    Message('note_on', channel=3, note=66, velocity=0, time=48),\n",
      "    Message('note_on', channel=3, note=67, velocity=84, time=12),\n",
      "    Message('note_on', channel=3, note=67, velocity=0, time=48),\n",
      "    Message('note_on', channel=3, note=71, velocity=84, time=12),\n",
      "    Message('note_on', channel=3, note=71, velocity=0, time=48),\n",
      "    Message('note_on', channel=3, note=69, velocity=84, time=12),\n",
      "    Message('note_on', channel=3, note=69, velocity=0, time=48),\n",
      "    Message('note_on', channel=3, note=67, velocity=84, time=12),\n",
      "    Message('note_on', channel=3, note=71, velocity=84, time=0),\n",
      "    Message('note_on', channel=3, note=67, velocity=0, time=336),\n",
      "    Message('note_on', channel=3, note=71, velocity=0, time=0),\n",
      "    Message('note_on', channel=3, note=64, velocity=84, time=24),\n",
      "    Message('note_on', channel=3, note=60, velocity=84, time=0),\n",
      "    Message('note_on', channel=3, note=67, velocity=84, time=0),\n",
      "    Message('note_on', channel=3, note=72, velocity=84, time=0),\n",
      "    Message('note_on', channel=3, note=64, velocity=0, time=168),\n",
      "    Message('note_on', channel=3, note=60, velocity=0, time=0),\n",
      "    Message('note_on', channel=3, note=67, velocity=0, time=0),\n",
      "    Message('note_on', channel=3, note=72, velocity=0, time=0),\n",
      "    Message('note_on', channel=3, note=74, velocity=84, time=12),\n",
      "    Message('note_on', channel=3, note=67, velocity=84, time=0),\n",
      "    Message('note_on', channel=3, note=62, velocity=84, time=0),\n",
      "    Message('note_on', channel=3, note=74, velocity=0, time=336),\n",
      "    Message('note_on', channel=3, note=67, velocity=0, time=0),\n",
      "    Message('note_on', channel=3, note=62, velocity=0, time=0),\n",
      "    Message('note_on', channel=3, note=74, velocity=84, time=24),\n",
      "    Message('note_on', channel=3, note=67, velocity=84, time=0),\n",
      "    Message('note_on', channel=3, note=62, velocity=84, time=0),\n",
      "    Message('note_on', channel=3, note=74, velocity=0, time=168),\n",
      "    Message('note_on', channel=3, note=67, velocity=0, time=0),\n",
      "    Message('note_on', channel=3, note=62, velocity=0, time=0),\n",
      "    Message('note_on', channel=3, note=69, velocity=84, time=12),\n",
      "    Message('note_on', channel=3, note=64, velocity=84, time=0),\n",
      "    Message('note_on', channel=3, note=72, velocity=84, time=0),\n",
      "    Message('note_on', channel=3, note=69, velocity=0, time=168),\n",
      "    Message('note_on', channel=3, note=64, velocity=0, time=0),\n",
      "    Message('note_on', channel=3, note=72, velocity=0, time=0),\n",
      "    Message('note_on', channel=3, note=71, velocity=84, time=12),\n",
      "    Message('note_on', channel=3, note=71, velocity=0, time=336),\n",
      "    Message('note_on', channel=3, note=66, velocity=84, time=24),\n",
      "    Message('note_on', channel=3, note=69, velocity=84, time=0),\n",
      "    Message('note_on', channel=3, note=66, velocity=0, time=48),\n",
      "    Message('note_on', channel=3, note=69, velocity=0, time=0),\n",
      "    Message('note_on', channel=3, note=62, velocity=84, time=12),\n",
      "    Message('note_on', channel=3, note=62, velocity=0, time=48),\n",
      "    Message('note_on', channel=3, note=64, velocity=84, time=12),\n",
      "    Message('note_on', channel=3, note=64, velocity=0, time=48),\n",
      "    Message('note_on', channel=3, note=66, velocity=84, time=12),\n",
      "    Message('note_on', channel=3, note=66, velocity=0, time=48),\n",
      "    Message('note_on', channel=3, note=69, velocity=84, time=12),\n",
      "    Message('note_on', channel=3, note=69, velocity=0, time=48),\n",
      "    Message('note_on', channel=3, note=67, velocity=84, time=12),\n",
      "    Message('note_on', channel=3, note=67, velocity=0, time=48),\n",
      "    Message('note_on', channel=3, note=69, velocity=84, time=12),\n",
      "    Message('note_on', channel=3, note=69, velocity=0, time=48),\n",
      "    Message('note_on', channel=3, note=72, velocity=84, time=12),\n",
      "    Message('note_on', channel=3, note=72, velocity=0, time=48),\n",
      "    Message('note_on', channel=3, note=71, velocity=84, time=12),\n",
      "    Message('note_on', channel=3, note=71, velocity=0, time=48),\n",
      "    Message('note_on', channel=3, note=72, velocity=84, time=12),\n",
      "    Message('note_on', channel=3, note=72, velocity=0, time=48),\n",
      "    Message('note_on', channel=3, note=69, velocity=84, time=12),\n",
      "    Message('note_on', channel=3, note=69, velocity=0, time=48),\n",
      "    Message('note_on', channel=3, note=66, velocity=84, time=12),\n",
      "    Message('note_on', channel=3, note=66, velocity=0, time=48),\n",
      "    Message('note_on', channel=3, note=62, velocity=84, time=12),\n",
      "    Message('note_on', channel=3, note=62, velocity=0, time=48),\n",
      "    Message('note_on', channel=3, note=66, velocity=84, time=12),\n",
      "    Message('note_on', channel=3, note=66, velocity=0, time=48),\n",
      "    Message('note_on', channel=3, note=69, velocity=84, time=12),\n",
      "    Message('note_on', channel=3, note=69, velocity=0, time=48),\n",
      "    Message('note_on', channel=3, note=72, velocity=84, time=12),\n",
      "    Message('note_on', channel=3, note=72, velocity=0, time=48),\n",
      "    Message('note_on', channel=3, note=71, velocity=84, time=12),\n",
      "    Message('note_on', channel=3, note=71, velocity=0, time=48),\n",
      "    Message('note_on', channel=3, note=69, velocity=84, time=12),\n",
      "    Message('note_on', channel=3, note=69, velocity=0, time=48),\n",
      "    Message('note_on', channel=3, note=67, velocity=84, time=12),\n",
      "    Message('note_on', channel=3, note=71, velocity=84, time=0),\n",
      "    Message('note_on', channel=3, note=67, velocity=0, time=336),\n",
      "    Message('note_on', channel=3, note=71, velocity=0, time=0),\n",
      "    Message('note_on', channel=3, note=72, velocity=84, time=24),\n",
      "    Message('note_on', channel=3, note=67, velocity=84, time=0),\n",
      "    Message('note_on', channel=3, note=64, velocity=84, time=0),\n",
      "    Message('note_on', channel=3, note=60, velocity=84, time=0),\n",
      "    Message('note_on', channel=3, note=72, velocity=0, time=168),\n",
      "    Message('note_on', channel=3, note=67, velocity=0, time=0),\n",
      "    Message('note_on', channel=3, note=64, velocity=0, time=0),\n",
      "    Message('note_on', channel=3, note=60, velocity=0, time=0),\n",
      "    Message('note_on', channel=3, note=74, velocity=84, time=12),\n",
      "    Message('note_on', channel=3, note=62, velocity=84, time=0),\n",
      "    Message('note_on', channel=3, note=67, velocity=84, time=0),\n",
      "    Message('note_on', channel=3, note=74, velocity=0, time=336),\n",
      "    Message('note_on', channel=3, note=62, velocity=0, time=0),\n",
      "    Message('note_on', channel=3, note=67, velocity=0, time=0),\n",
      "    Message('note_on', channel=3, note=67, velocity=84, time=24),\n",
      "    Message('note_on', channel=3, note=64, velocity=84, time=0),\n",
      "    Message('note_on', channel=3, note=71, velocity=84, time=0),\n",
      "    Message('note_on', channel=3, note=67, velocity=0, time=168),\n",
      "    Message('note_on', channel=3, note=64, velocity=0, time=0),\n",
      "    Message('note_on', channel=3, note=71, velocity=0, time=0),\n",
      "    Message('note_on', channel=3, note=69, velocity=84, time=12),\n",
      "    Message('note_on', channel=3, note=69, velocity=0, time=96),\n",
      "    Message('note_on', channel=3, note=71, velocity=84, time=24),\n",
      "    Message('note_on', channel=3, note=71, velocity=0, time=24),\n",
      "    Message('note_on', channel=3, note=72, velocity=84, time=6),\n",
      "    Message('note_on', channel=3, note=72, velocity=0, time=24),\n",
      "    Message('note_on', channel=3, note=71, velocity=84, time=6),\n",
      "    Message('note_on', channel=3, note=71, velocity=0, time=168),\n",
      "    Message('note_on', channel=3, note=69, velocity=84, time=12),\n",
      "    Message('note_on', channel=3, note=69, velocity=0, time=168),\n",
      "    Message('note_on', channel=3, note=67, velocity=84, time=12),\n",
      "    Message('note_on', channel=3, note=67, velocity=0, time=48),\n",
      "    Message('note_on', channel=3, note=71, velocity=84, time=12),\n",
      "    Message('note_on', channel=3, note=71, velocity=0, time=48),\n",
      "    Message('note_on', channel=3, note=74, velocity=84, time=12),\n",
      "    Message('note_on', channel=3, note=74, velocity=0, time=48),\n",
      "    Message('note_on', channel=3, note=79, velocity=84, time=12),\n",
      "    Message('note_on', channel=3, note=79, velocity=0, time=48),\n",
      "    Message('note_on', channel=3, note=74, velocity=84, time=12),\n",
      "    Message('note_on', channel=3, note=74, velocity=0, time=48),\n",
      "    Message('note_on', channel=3, note=71, velocity=84, time=12),\n",
      "    Message('note_on', channel=3, note=71, velocity=0, time=48),\n",
      "    Message('note_on', channel=3, note=67, velocity=84, time=12),\n",
      "    Message('note_on', channel=3, note=67, velocity=0, time=48),\n",
      "    Message('note_on', channel=3, note=71, velocity=84, time=12),\n",
      "    Message('note_on', channel=3, note=71, velocity=0, time=48),\n",
      "    Message('note_on', channel=3, note=74, velocity=84, time=12),\n",
      "    Message('note_on', channel=3, note=74, velocity=0, time=48),\n",
      "    Message('note_on', channel=3, note=77, velocity=84, time=12),\n",
      "    Message('note_on', channel=3, note=77, velocity=0, time=48),\n",
      "    Message('note_on', channel=3, note=74, velocity=84, time=12),\n",
      "    Message('note_on', channel=3, note=74, velocity=0, time=48),\n",
      "    Message('note_on', channel=3, note=71, velocity=84, time=12),\n",
      "    Message('note_on', channel=3, note=71, velocity=0, time=48),\n",
      "    Message('note_on', channel=3, note=67, velocity=84, time=12),\n",
      "    Message('note_on', channel=3, note=67, velocity=0, time=48),\n",
      "    Message('note_on', channel=3, note=71, velocity=84, time=12),\n",
      "    Message('note_on', channel=3, note=71, velocity=0, time=48),\n",
      "    Message('note_on', channel=3, note=74, velocity=84, time=12),\n",
      "    Message('note_on', channel=3, note=74, velocity=0, time=48),\n",
      "    Message('note_on', channel=3, note=76, velocity=84, time=12),\n",
      "    Message('note_on', channel=3, note=76, velocity=0, time=48),\n",
      "    Message('note_on', channel=3, note=72, velocity=84, time=12),\n",
      "    Message('note_on', channel=3, note=72, velocity=0, time=48),\n",
      "    Message('note_on', channel=3, note=69, velocity=84, time=12),\n",
      "    Message('note_on', channel=3, note=69, velocity=0, time=48),\n",
      "    Message('note_on', channel=3, note=66, velocity=84, time=12),\n",
      "    Message('note_on', channel=3, note=66, velocity=0, time=48),\n",
      "    Message('note_on', channel=3, note=69, velocity=84, time=12),\n",
      "    Message('note_on', channel=3, note=69, velocity=0, time=48),\n",
      "    Message('note_on', channel=3, note=72, velocity=84, time=12),\n",
      "    Message('note_on', channel=3, note=72, velocity=0, time=48),\n",
      "    Message('note_on', channel=3, note=74, velocity=84, time=12),\n",
      "    Message('note_on', channel=3, note=74, velocity=0, time=48),\n",
      "    Message('note_on', channel=3, note=71, velocity=84, time=12),\n",
      "    Message('note_on', channel=3, note=71, velocity=0, time=48),\n",
      "    Message('note_on', channel=3, note=67, velocity=84, time=12),\n",
      "    Message('note_on', channel=3, note=67, velocity=0, time=48),\n",
      "    Message('note_on', channel=3, note=64, velocity=84, time=12),\n",
      "    Message('note_on', channel=3, note=64, velocity=0, time=48),\n",
      "    Message('note_on', channel=3, note=67, velocity=84, time=12),\n",
      "    Message('note_on', channel=3, note=67, velocity=0, time=48),\n",
      "    Message('note_on', channel=3, note=71, velocity=84, time=12),\n",
      "    Message('note_on', channel=3, note=71, velocity=0, time=48),\n",
      "    Message('note_on', channel=3, note=72, velocity=84, time=12),\n",
      "    Message('note_on', channel=3, note=72, velocity=0, time=48),\n",
      "    Message('note_on', channel=3, note=69, velocity=84, time=12),\n",
      "    Message('note_on', channel=3, note=69, velocity=0, time=48),\n",
      "    Message('note_on', channel=3, note=66, velocity=84, time=12),\n",
      "    Message('note_on', channel=3, note=66, velocity=0, time=48),\n",
      "    Message('note_on', channel=3, note=62, velocity=84, time=12),\n",
      "    Message('note_on', channel=3, note=62, velocity=0, time=48),\n",
      "    Message('note_on', channel=3, note=66, velocity=84, time=12),\n",
      "    Message('note_on', channel=3, note=66, velocity=0, time=48),\n",
      "    Message('note_on', channel=3, note=69, velocity=84, time=12),\n",
      "    Message('note_on', channel=3, note=69, velocity=0, time=48),\n",
      "    Message('note_on', channel=3, note=72, velocity=84, time=12),\n",
      "    Message('note_on', channel=3, note=72, velocity=0, time=48),\n",
      "    Message('note_on', channel=3, note=71, velocity=84, time=12),\n",
      "    Message('note_on', channel=3, note=71, velocity=0, time=48),\n",
      "    Message('note_on', channel=3, note=69, velocity=84, time=12),\n",
      "    Message('note_on', channel=3, note=69, velocity=0, time=48),\n",
      "    Message('note_on', channel=3, note=71, velocity=84, time=12),\n",
      "    Message('note_on', channel=3, note=71, velocity=0, time=48),\n",
      "    Message('note_on', channel=3, note=67, velocity=84, time=12),\n",
      "    Message('note_on', channel=3, note=67, velocity=0, time=48),\n",
      "    Message('note_on', channel=3, note=69, velocity=84, time=12),\n",
      "    Message('note_on', channel=3, note=69, velocity=0, time=48),\n",
      "    Message('note_on', channel=3, note=71, velocity=84, time=12),\n",
      "    Message('note_on', channel=3, note=71, velocity=0, time=48),\n",
      "    Message('note_on', channel=3, note=74, velocity=84, time=12),\n",
      "    Message('note_on', channel=3, note=74, velocity=0, time=48),\n",
      "    Message('note_on', channel=3, note=72, velocity=84, time=12),\n",
      "    Message('note_on', channel=3, note=72, velocity=0, time=48),\n",
      "    Message('note_on', channel=3, note=72, velocity=84, time=12),\n",
      "    Message('note_on', channel=3, note=72, velocity=0, time=48),\n",
      "    Message('note_on', channel=3, note=76, velocity=84, time=12),\n",
      "    Message('note_on', channel=3, note=76, velocity=0, time=48),\n",
      "    Message('note_on', channel=3, note=74, velocity=84, time=12),\n",
      "    Message('note_on', channel=3, note=74, velocity=0, time=48),\n",
      "    Message('note_on', channel=3, note=74, velocity=84, time=12),\n",
      "    Message('note_on', channel=3, note=74, velocity=0, time=48),\n",
      "    Message('note_on', channel=3, note=79, velocity=84, time=12),\n",
      "    Message('note_on', channel=3, note=79, velocity=0, time=48),\n",
      "    Message('note_on', channel=3, note=78, velocity=84, time=12),\n",
      "    Message('note_on', channel=3, note=78, velocity=0, time=48),\n",
      "    Message('note_on', channel=3, note=79, velocity=84, time=12),\n",
      "    Message('note_on', channel=3, note=79, velocity=0, time=48),\n",
      "    Message('note_on', channel=3, note=74, velocity=84, time=12),\n",
      "    Message('note_on', channel=3, note=74, velocity=0, time=48),\n",
      "    Message('note_on', channel=3, note=71, velocity=84, time=12),\n",
      "    Message('note_on', channel=3, note=71, velocity=0, time=48),\n",
      "    Message('note_on', channel=3, note=67, velocity=84, time=12),\n",
      "    Message('note_on', channel=3, note=67, velocity=0, time=48),\n",
      "    Message('note_on', channel=3, note=69, velocity=84, time=12),\n",
      "    Message('note_on', channel=3, note=69, velocity=0, time=48),\n",
      "    Message('note_on', channel=3, note=71, velocity=84, time=12),\n",
      "    Message('note_on', channel=3, note=71, velocity=0, time=48),\n",
      "    Message('note_on', channel=3, note=72, velocity=84, time=12),\n",
      "    Message('note_on', channel=3, note=72, velocity=0, time=48),\n",
      "    Message('note_on', channel=3, note=74, velocity=84, time=12),\n",
      "    Message('note_on', channel=3, note=74, velocity=0, time=48),\n",
      "    Message('note_on', channel=3, note=76, velocity=84, time=12),\n",
      "    Message('note_on', channel=3, note=76, velocity=0, time=48),\n",
      "    Message('note_on', channel=3, note=74, velocity=84, time=12),\n",
      "    Message('note_on', channel=3, note=74, velocity=0, time=48),\n",
      "    Message('note_on', channel=3, note=72, velocity=84, time=12),\n",
      "    Message('note_on', channel=3, note=72, velocity=0, time=48),\n",
      "    Message('note_on', channel=3, note=71, velocity=84, time=12),\n",
      "    Message('note_on', channel=3, note=71, velocity=0, time=48),\n",
      "    Message('note_on', channel=3, note=69, velocity=84, time=12),\n",
      "    Message('note_on', channel=3, note=69, velocity=0, time=48),\n",
      "    Message('note_on', channel=3, note=71, velocity=84, time=12),\n",
      "    Message('note_on', channel=3, note=71, velocity=0, time=48),\n",
      "    Message('note_on', channel=3, note=67, velocity=84, time=12),\n",
      "    Message('note_on', channel=3, note=67, velocity=0, time=48),\n",
      "    Message('note_on', channel=3, note=66, velocity=84, time=12),\n",
      "    Message('note_on', channel=3, note=66, velocity=0, time=48),\n",
      "    Message('note_on', channel=3, note=67, velocity=84, time=12),\n",
      "    Message('note_on', channel=3, note=67, velocity=0, time=48),\n",
      "    Message('note_on', channel=3, note=69, velocity=84, time=12),\n",
      "    Message('note_on', channel=3, note=69, velocity=0, time=48),\n",
      "    Message('note_on', channel=3, note=62, velocity=84, time=12),\n",
      "    Message('note_on', channel=3, note=62, velocity=0, time=48),\n",
      "    Message('note_on', channel=3, note=66, velocity=84, time=12),\n",
      "    Message('note_on', channel=3, note=66, velocity=0, time=48),\n",
      "    Message('note_on', channel=3, note=69, velocity=84, time=12),\n",
      "    Message('note_on', channel=3, note=69, velocity=0, time=48),\n",
      "    Message('note_on', channel=3, note=72, velocity=84, time=12),\n",
      "    Message('note_on', channel=3, note=72, velocity=0, time=48),\n",
      "    Message('note_on', channel=3, note=71, velocity=84, time=12),\n",
      "    Message('note_on', channel=3, note=71, velocity=0, time=48),\n",
      "    Message('note_on', channel=3, note=69, velocity=84, time=12),\n",
      "    Message('note_on', channel=3, note=69, velocity=0, time=48),\n",
      "    Message('note_on', channel=3, note=71, velocity=84, time=12),\n",
      "    Message('note_on', channel=3, note=71, velocity=0, time=48),\n",
      "    Message('note_on', channel=3, note=67, velocity=84, time=12),\n",
      "    Message('note_on', channel=3, note=67, velocity=0, time=48),\n",
      "    Message('note_on', channel=3, note=69, velocity=84, time=12),\n",
      "    Message('note_on', channel=3, note=69, velocity=0, time=48),\n",
      "    Message('note_on', channel=3, note=71, velocity=84, time=12),\n",
      "    Message('note_on', channel=3, note=71, velocity=0, time=48),\n",
      "    Message('note_on', channel=3, note=74, velocity=84, time=12),\n",
      "    Message('note_on', channel=3, note=74, velocity=0, time=48),\n",
      "    Message('note_on', channel=3, note=72, velocity=84, time=12),\n",
      "    Message('note_on', channel=3, note=72, velocity=0, time=48),\n",
      "    Message('note_on', channel=3, note=72, velocity=84, time=12),\n",
      "    Message('note_on', channel=3, note=72, velocity=0, time=48),\n",
      "    Message('note_on', channel=3, note=76, velocity=84, time=12),\n",
      "    Message('note_on', channel=3, note=76, velocity=0, time=48),\n",
      "    Message('note_on', channel=3, note=74, velocity=84, time=12),\n",
      "    Message('note_on', channel=3, note=74, velocity=0, time=48),\n",
      "    Message('note_on', channel=3, note=74, velocity=84, time=12),\n",
      "    Message('note_on', channel=3, note=74, velocity=0, time=48),\n",
      "    Message('note_on', channel=3, note=79, velocity=84, time=12),\n",
      "    Message('note_on', channel=3, note=79, velocity=0, time=48),\n",
      "    Message('note_on', channel=3, note=78, velocity=84, time=12),\n",
      "    Message('note_on', channel=3, note=78, velocity=0, time=48),\n",
      "    Message('note_on', channel=3, note=79, velocity=84, time=12),\n",
      "    Message('note_on', channel=3, note=79, velocity=0, time=48),\n",
      "    Message('note_on', channel=3, note=74, velocity=84, time=12),\n",
      "    Message('note_on', channel=3, note=74, velocity=0, time=48),\n",
      "    Message('note_on', channel=3, note=71, velocity=84, time=12),\n",
      "    Message('note_on', channel=3, note=71, velocity=0, time=48),\n",
      "    Message('note_on', channel=3, note=67, velocity=84, time=12),\n",
      "    Message('note_on', channel=3, note=67, velocity=0, time=48),\n",
      "    Message('note_on', channel=3, note=69, velocity=84, time=12),\n",
      "    Message('note_on', channel=3, note=69, velocity=0, time=48),\n",
      "    Message('note_on', channel=3, note=71, velocity=84, time=12),\n",
      "    Message('note_on', channel=3, note=71, velocity=0, time=48),\n",
      "    Message('note_on', channel=3, note=64, velocity=84, time=12),\n",
      "    Message('note_on', channel=3, note=64, velocity=0, time=48),\n",
      "    Message('note_on', channel=3, note=74, velocity=84, time=12),\n",
      "    Message('note_on', channel=3, note=74, velocity=0, time=48),\n",
      "    Message('note_on', channel=3, note=72, velocity=84, time=12),\n",
      "    Message('note_on', channel=3, note=72, velocity=0, time=48),\n",
      "    Message('note_on', channel=3, note=71, velocity=84, time=12),\n",
      "    Message('note_on', channel=3, note=71, velocity=0, time=48),\n",
      "    Message('note_on', channel=3, note=69, velocity=84, time=12),\n",
      "    Message('note_on', channel=3, note=69, velocity=0, time=48),\n",
      "    Message('note_on', channel=3, note=67, velocity=84, time=12),\n",
      "    Message('note_on', channel=3, note=67, velocity=0, time=48),\n",
      "    Message('note_on', channel=3, note=62, velocity=84, time=12),\n",
      "    Message('note_on', channel=3, note=62, velocity=0, time=48),\n",
      "    Message('note_on', channel=3, note=67, velocity=84, time=12),\n",
      "    Message('note_on', channel=3, note=67, velocity=0, time=48),\n",
      "    Message('note_on', channel=3, note=66, velocity=84, time=12),\n",
      "    Message('note_on', channel=3, note=66, velocity=0, time=48),\n",
      "    Message('note_on', channel=3, note=62, velocity=58, time=12),\n",
      "    Message('note_on', channel=3, note=67, velocity=60, time=0),\n",
      "    Message('note_on', channel=3, note=59, velocity=57, time=0),\n",
      "    Message('note_on', channel=3, note=55, velocity=75, time=0),\n",
      "    Message('note_on', channel=3, note=62, velocity=0, time=456),\n",
      "    Message('note_on', channel=3, note=67, velocity=0, time=0),\n",
      "    Message('note_on', channel=3, note=59, velocity=0, time=0),\n",
      "    Message('note_on', channel=3, note=55, velocity=0, time=0),\n",
      "    MetaMessage('end_of_track', time=0)]),\n",
      "  MidiTrack([\n",
      "    MetaMessage('track_name', name='John Renfro Davis', time=0),\n",
      "    MetaMessage('instrument_name', name='Choir Aahs', time=0),\n",
      "    MetaMessage('midi_port', port=0, time=0),\n",
      "    Message('control_change', channel=4, control=0, value=80, time=0),\n",
      "    Message('control_change', channel=4, control=32, value=0, time=0),\n",
      "    Message('program_change', channel=4, program=52, time=0),\n",
      "    Message('note_on', channel=4, note=71, velocity=127, time=4320),\n",
      "    Message('note_on', channel=4, note=71, velocity=0, time=336),\n",
      "    Message('note_on', channel=4, note=72, velocity=127, time=24),\n",
      "    Message('note_on', channel=4, note=72, velocity=0, time=168),\n",
      "    Message('note_on', channel=4, note=74, velocity=127, time=12),\n",
      "    Message('note_on', channel=4, note=74, velocity=0, time=336),\n",
      "    Message('note_on', channel=4, note=74, velocity=127, time=24),\n",
      "    Message('note_on', channel=4, note=74, velocity=0, time=168),\n",
      "    Message('note_on', channel=4, note=72, velocity=127, time=12),\n",
      "    Message('note_on', channel=4, note=72, velocity=0, time=336),\n",
      "    Message('note_on', channel=4, note=71, velocity=127, time=24),\n",
      "    Message('note_on', channel=4, note=71, velocity=0, time=168),\n",
      "    Message('note_on', channel=4, note=69, velocity=127, time=12),\n",
      "    Message('note_on', channel=4, note=69, velocity=0, time=168),\n",
      "    Message('note_on', channel=4, note=69, velocity=127, time=12),\n",
      "    Message('note_on', channel=4, note=69, velocity=0, time=168),\n",
      "    Message('note_on', channel=4, note=71, velocity=127, time=732),\n",
      "    Message('note_on', channel=4, note=71, velocity=0, time=336),\n",
      "    Message('note_on', channel=4, note=72, velocity=127, time=24),\n",
      "    Message('note_on', channel=4, note=72, velocity=0, time=168),\n",
      "    Message('note_on', channel=4, note=74, velocity=127, time=12),\n",
      "    Message('note_on', channel=4, note=74, velocity=0, time=336),\n",
      "    Message('note_on', channel=4, note=71, velocity=127, time=24),\n",
      "    Message('note_on', channel=4, note=71, velocity=0, time=168),\n",
      "    Message('note_on', channel=4, note=69, velocity=127, time=12),\n",
      "    Message('note_on', channel=4, note=69, velocity=0, time=96),\n",
      "    Message('note_on', channel=4, note=71, velocity=127, time=24),\n",
      "    Message('note_on', channel=4, note=71, velocity=0, time=24),\n",
      "    Message('note_on', channel=4, note=72, velocity=127, time=6),\n",
      "    Message('note_on', channel=4, note=72, velocity=0, time=24),\n",
      "    Message('note_on', channel=4, note=71, velocity=127, time=6),\n",
      "    Message('note_on', channel=4, note=71, velocity=0, time=168),\n",
      "    Message('note_on', channel=4, note=69, velocity=127, time=12),\n",
      "    Message('note_on', channel=4, note=69, velocity=0, time=168),\n",
      "    Message('note_on', channel=4, note=67, velocity=127, time=12),\n",
      "    Message('note_on', channel=4, note=67, velocity=0, time=336),\n",
      "    Message('note_on', channel=4, note=71, velocity=127, time=3444),\n",
      "    Message('note_on', channel=4, note=71, velocity=0, time=336),\n",
      "    Message('note_on', channel=4, note=72, velocity=127, time=24),\n",
      "    Message('note_on', channel=4, note=72, velocity=0, time=168),\n",
      "    Message('note_on', channel=4, note=74, velocity=127, time=12),\n",
      "    Message('note_on', channel=4, note=74, velocity=0, time=336),\n",
      "    Message('note_on', channel=4, note=74, velocity=127, time=24),\n",
      "    Message('note_on', channel=4, note=74, velocity=0, time=168),\n",
      "    Message('note_on', channel=4, note=72, velocity=127, time=12),\n",
      "    Message('note_on', channel=4, note=72, velocity=0, time=336),\n",
      "    Message('note_on', channel=4, note=71, velocity=127, time=24),\n",
      "    Message('note_on', channel=4, note=71, velocity=0, time=168),\n",
      "    Message('note_on', channel=4, note=69, velocity=127, time=12),\n",
      "    Message('note_on', channel=4, note=69, velocity=0, time=168),\n",
      "    Message('note_on', channel=4, note=69, velocity=127, time=12),\n",
      "    Message('note_on', channel=4, note=69, velocity=0, time=168),\n",
      "    Message('note_on', channel=4, note=71, velocity=127, time=732),\n",
      "    Message('note_on', channel=4, note=71, velocity=0, time=336),\n",
      "    Message('note_on', channel=4, note=72, velocity=127, time=24),\n",
      "    Message('note_on', channel=4, note=72, velocity=0, time=168),\n",
      "    Message('note_on', channel=4, note=74, velocity=127, time=12),\n",
      "    Message('note_on', channel=4, note=74, velocity=0, time=336),\n",
      "    Message('note_on', channel=4, note=71, velocity=127, time=24),\n",
      "    Message('note_on', channel=4, note=71, velocity=0, time=168),\n",
      "    Message('note_on', channel=4, note=69, velocity=127, time=12),\n",
      "    Message('note_on', channel=4, note=69, velocity=0, time=96),\n",
      "    Message('note_on', channel=4, note=71, velocity=127, time=24),\n",
      "    Message('note_on', channel=4, note=71, velocity=0, time=24),\n",
      "    Message('note_on', channel=4, note=72, velocity=127, time=6),\n",
      "    Message('note_on', channel=4, note=72, velocity=0, time=24),\n",
      "    Message('note_on', channel=4, note=71, velocity=127, time=6),\n",
      "    Message('note_on', channel=4, note=71, velocity=0, time=168),\n",
      "    Message('note_on', channel=4, note=69, velocity=127, time=12),\n",
      "    Message('note_on', channel=4, note=69, velocity=0, time=168),\n",
      "    Message('note_on', channel=4, note=67, velocity=127, time=12),\n",
      "    Message('note_on', channel=4, note=67, velocity=0, time=336),\n",
      "    Message('note_on', channel=4, note=69, velocity=127, time=3984),\n",
      "    Message('note_on', channel=4, note=69, velocity=0, time=336),\n",
      "    Message('note_on', channel=4, note=71, velocity=127, time=24),\n",
      "    Message('note_on', channel=4, note=71, velocity=0, time=168),\n",
      "    Message('note_on', channel=4, note=72, velocity=127, time=12),\n",
      "    Message('note_on', channel=4, note=72, velocity=0, time=336),\n",
      "    Message('note_on', channel=4, note=72, velocity=127, time=24),\n",
      "    Message('note_on', channel=4, note=72, velocity=0, time=168),\n",
      "    Message('note_on', channel=4, note=71, velocity=127, time=12),\n",
      "    Message('note_on', channel=4, note=71, velocity=0, time=276),\n",
      "    Message('note_on', channel=4, note=72, velocity=127, time=24),\n",
      "    Message('note_on', channel=4, note=72, velocity=0, time=24),\n",
      "    Message('note_on', channel=4, note=74, velocity=127, time=6),\n",
      "    Message('note_on', channel=4, note=74, velocity=0, time=24),\n",
      "    Message('note_on', channel=4, note=71, velocity=127, time=6),\n",
      "    Message('note_on', channel=4, note=71, velocity=0, time=168),\n",
      "    Message('note_on', channel=4, note=69, velocity=127, time=12),\n",
      "    Message('note_on', channel=4, note=69, velocity=0, time=168),\n",
      "    Message('note_on', channel=4, note=69, velocity=127, time=12),\n",
      "    Message('note_on', channel=4, note=69, velocity=0, time=168),\n",
      "    Message('note_on', channel=4, note=72, velocity=127, time=1272),\n",
      "    Message('note_on', channel=4, note=72, velocity=0, time=336),\n",
      "    Message('note_on', channel=4, note=74, velocity=127, time=24),\n",
      "    Message('note_on', channel=4, note=74, velocity=0, time=168),\n",
      "    Message('note_on', channel=4, note=76, velocity=127, time=12),\n",
      "    Message('note_on', channel=4, note=76, velocity=0, time=336),\n",
      "    Message('note_on', channel=4, note=76, velocity=127, time=24),\n",
      "    Message('note_on', channel=4, note=76, velocity=0, time=168),\n",
      "    Message('note_on', channel=4, note=74, velocity=127, time=12),\n",
      "    Message('note_on', channel=4, note=74, velocity=0, time=276),\n",
      "    Message('note_on', channel=4, note=76, velocity=127, time=24),\n",
      "    Message('note_on', channel=4, note=76, velocity=0, time=24),\n",
      "    Message('note_on', channel=4, note=77, velocity=127, time=6),\n",
      "    Message('note_on', channel=4, note=77, velocity=0, time=24),\n",
      "    Message('note_on', channel=4, note=74, velocity=127, time=6),\n",
      "    Message('note_on', channel=4, note=74, velocity=0, time=168),\n",
      "    Message('note_on', channel=4, note=72, velocity=127, time=12),\n",
      "    Message('note_on', channel=4, note=72, velocity=0, time=168),\n",
      "    Message('note_on', channel=4, note=72, velocity=127, time=12),\n",
      "    Message('note_on', channel=4, note=72, velocity=0, time=168),\n",
      "    Message('note_on', channel=4, note=71, velocity=127, time=1272),\n",
      "    Message('note_on', channel=4, note=71, velocity=0, time=336),\n",
      "    Message('note_on', channel=4, note=72, velocity=127, time=24),\n",
      "    Message('note_on', channel=4, note=72, velocity=0, time=168),\n",
      "    Message('note_on', channel=4, note=74, velocity=127, time=12),\n",
      "    Message('note_on', channel=4, note=74, velocity=0, time=336),\n",
      "    Message('note_on', channel=4, note=74, velocity=127, time=24),\n",
      "    Message('note_on', channel=4, note=74, velocity=0, time=168),\n",
      "    Message('note_on', channel=4, note=72, velocity=127, time=12),\n",
      "    Message('note_on', channel=4, note=72, velocity=0, time=168),\n",
      "    Message('note_on', channel=4, note=71, velocity=127, time=12),\n",
      "    Message('note_on', channel=4, note=71, velocity=0, time=336),\n",
      "    Message('note_on', channel=4, note=69, velocity=127, time=24),\n",
      "    Message('note_on', channel=4, note=69, velocity=0, time=336),\n",
      "    Message('note_on', channel=4, note=71, velocity=127, time=744),\n",
      "    Message('note_on', channel=4, note=71, velocity=0, time=336),\n",
      "    Message('note_on', channel=4, note=72, velocity=127, time=24),\n",
      "    Message('note_on', channel=4, note=72, velocity=0, time=168),\n",
      "    Message('note_on', channel=4, note=74, velocity=127, time=12),\n",
      "    Message('note_on', channel=4, note=74, velocity=0, time=336),\n",
      "    Message('note_on', channel=4, note=71, velocity=127, time=24),\n",
      "    Message('note_on', channel=4, note=71, velocity=0, time=168),\n",
      "    Message('note_on', channel=4, note=69, velocity=127, time=12),\n",
      "    Message('note_on', channel=4, note=69, velocity=0, time=96),\n",
      "    Message('note_on', channel=4, note=71, velocity=127, time=24),\n",
      "    Message('note_on', channel=4, note=71, velocity=0, time=24),\n",
      "    Message('note_on', channel=4, note=72, velocity=127, time=6),\n",
      "    Message('note_on', channel=4, note=72, velocity=0, time=24),\n",
      "    Message('note_on', channel=4, note=71, velocity=127, time=6),\n",
      "    Message('note_on', channel=4, note=71, velocity=0, time=168),\n",
      "    Message('note_on', channel=4, note=69, velocity=127, time=12),\n",
      "    Message('note_on', channel=4, note=69, velocity=0, time=168),\n",
      "    Message('note_on', channel=4, note=67, velocity=127, time=12),\n",
      "    Message('note_on', channel=4, note=67, velocity=0, time=336),\n",
      "    Message('note_on', channel=4, note=71, velocity=127, time=10464),\n",
      "    Message('note_on', channel=4, note=71, velocity=0, time=336),\n",
      "    Message('note_on', channel=4, note=72, velocity=127, time=24),\n",
      "    Message('note_on', channel=4, note=72, velocity=0, time=168),\n",
      "    Message('note_on', channel=4, note=74, velocity=127, time=12),\n",
      "    Message('note_on', channel=4, note=74, velocity=0, time=336),\n",
      "    Message('note_on', channel=4, note=74, velocity=127, time=24),\n",
      "    Message('note_on', channel=4, note=74, velocity=0, time=168),\n",
      "    Message('note_on', channel=4, note=72, velocity=127, time=12),\n",
      "    Message('note_on', channel=4, note=72, velocity=0, time=336),\n",
      "    Message('note_on', channel=4, note=71, velocity=127, time=24),\n",
      "    Message('note_on', channel=4, note=71, velocity=0, time=168),\n",
      "    Message('note_on', channel=4, note=69, velocity=127, time=12),\n",
      "    Message('note_on', channel=4, note=69, velocity=0, time=168),\n",
      "    Message('note_on', channel=4, note=69, velocity=127, time=12),\n",
      "    Message('note_on', channel=4, note=69, velocity=0, time=168),\n",
      "    Message('note_on', channel=4, note=71, velocity=127, time=732),\n",
      "    Message('note_on', channel=4, note=71, velocity=0, time=336),\n",
      "    Message('note_on', channel=4, note=72, velocity=127, time=24),\n",
      "    Message('note_on', channel=4, note=72, velocity=0, time=168),\n",
      "    Message('note_on', channel=4, note=74, velocity=127, time=12),\n",
      "    Message('note_on', channel=4, note=74, velocity=0, time=336),\n",
      "    Message('note_on', channel=4, note=71, velocity=127, time=24),\n",
      "    Message('note_on', channel=4, note=71, velocity=0, time=168),\n",
      "    Message('note_on', channel=4, note=69, velocity=127, time=12),\n",
      "    Message('note_on', channel=4, note=69, velocity=0, time=96),\n",
      "    Message('note_on', channel=4, note=71, velocity=127, time=24),\n",
      "    Message('note_on', channel=4, note=71, velocity=0, time=24),\n",
      "    Message('note_on', channel=4, note=72, velocity=127, time=6),\n",
      "    Message('note_on', channel=4, note=72, velocity=0, time=24),\n",
      "    Message('note_on', channel=4, note=71, velocity=127, time=6),\n",
      "    Message('note_on', channel=4, note=71, velocity=0, time=168),\n",
      "    Message('note_on', channel=4, note=69, velocity=127, time=12),\n",
      "    Message('note_on', channel=4, note=69, velocity=0, time=168),\n",
      "    Message('note_on', channel=4, note=67, velocity=127, time=12),\n",
      "    Message('note_on', channel=4, note=67, velocity=0, time=336),\n",
      "    Message('note_on', channel=4, note=71, velocity=127, time=3444),\n",
      "    Message('note_on', channel=4, note=71, velocity=0, time=336),\n",
      "    Message('note_on', channel=4, note=72, velocity=127, time=24),\n",
      "    Message('note_on', channel=4, note=72, velocity=0, time=168),\n",
      "    Message('note_on', channel=4, note=74, velocity=127, time=12),\n",
      "    Message('note_on', channel=4, note=74, velocity=0, time=336),\n",
      "    Message('note_on', channel=4, note=74, velocity=127, time=24),\n",
      "    Message('note_on', channel=4, note=74, velocity=0, time=168),\n",
      "    Message('note_on', channel=4, note=72, velocity=127, time=12),\n",
      "    Message('note_on', channel=4, note=72, velocity=0, time=336),\n",
      "    Message('note_on', channel=4, note=71, velocity=127, time=24),\n",
      "    Message('note_on', channel=4, note=71, velocity=0, time=168),\n",
      "    Message('note_on', channel=4, note=69, velocity=127, time=12),\n",
      "    Message('note_on', channel=4, note=69, velocity=0, time=168),\n",
      "    Message('note_on', channel=4, note=69, velocity=127, time=12),\n",
      "    Message('note_on', channel=4, note=69, velocity=0, time=168),\n",
      "    Message('note_on', channel=4, note=71, velocity=127, time=732),\n",
      "    Message('note_on', channel=4, note=71, velocity=0, time=336),\n",
      "    Message('note_on', channel=4, note=72, velocity=127, time=24),\n",
      "    Message('note_on', channel=4, note=72, velocity=0, time=168),\n",
      "    Message('note_on', channel=4, note=74, velocity=127, time=12),\n",
      "    Message('note_on', channel=4, note=74, velocity=0, time=336),\n",
      "    Message('note_on', channel=4, note=71, velocity=127, time=24),\n",
      "    Message('note_on', channel=4, note=71, velocity=0, time=168),\n",
      "    Message('note_on', channel=4, note=69, velocity=127, time=12),\n",
      "    Message('note_on', channel=4, note=69, velocity=0, time=96),\n",
      "    Message('note_on', channel=4, note=71, velocity=127, time=24),\n",
      "    Message('note_on', channel=4, note=71, velocity=0, time=24),\n",
      "    Message('note_on', channel=4, note=72, velocity=127, time=6),\n",
      "    Message('note_on', channel=4, note=72, velocity=0, time=24),\n",
      "    Message('note_on', channel=4, note=71, velocity=127, time=6),\n",
      "    Message('note_on', channel=4, note=71, velocity=0, time=168),\n",
      "    Message('note_on', channel=4, note=69, velocity=127, time=12),\n",
      "    Message('note_on', channel=4, note=69, velocity=0, time=168),\n",
      "    Message('note_on', channel=4, note=67, velocity=127, time=12),\n",
      "    Message('note_on', channel=4, note=67, velocity=0, time=336),\n",
      "    Message('note_on', channel=4, note=69, velocity=127, time=3984),\n",
      "    Message('note_on', channel=4, note=69, velocity=0, time=336),\n",
      "    Message('note_on', channel=4, note=71, velocity=127, time=24),\n",
      "    Message('note_on', channel=4, note=71, velocity=0, time=168),\n",
      "    Message('note_on', channel=4, note=72, velocity=127, time=12),\n",
      "    Message('note_on', channel=4, note=72, velocity=0, time=336),\n",
      "    Message('note_on', channel=4, note=72, velocity=127, time=24),\n",
      "    Message('note_on', channel=4, note=72, velocity=0, time=168),\n",
      "    Message('note_on', channel=4, note=71, velocity=127, time=12),\n",
      "    Message('note_on', channel=4, note=71, velocity=0, time=276),\n",
      "    Message('note_on', channel=4, note=72, velocity=127, time=24),\n",
      "    Message('note_on', channel=4, note=72, velocity=0, time=24),\n",
      "    Message('note_on', channel=4, note=74, velocity=127, time=6),\n",
      "    Message('note_on', channel=4, note=74, velocity=0, time=24),\n",
      "    Message('note_on', channel=4, note=71, velocity=127, time=6),\n",
      "    Message('note_on', channel=4, note=71, velocity=0, time=168),\n",
      "    Message('note_on', channel=4, note=69, velocity=127, time=12),\n",
      "    Message('note_on', channel=4, note=69, velocity=0, time=168),\n",
      "    Message('note_on', channel=4, note=69, velocity=127, time=12),\n",
      "    Message('note_on', channel=4, note=69, velocity=0, time=168),\n",
      "    Message('note_on', channel=4, note=72, velocity=127, time=1272),\n",
      "    Message('note_on', channel=4, note=72, velocity=0, time=336),\n",
      "    Message('note_on', channel=4, note=74, velocity=127, time=24),\n",
      "    Message('note_on', channel=4, note=74, velocity=0, time=168),\n",
      "    Message('note_on', channel=4, note=76, velocity=127, time=12),\n",
      "    Message('note_on', channel=4, note=76, velocity=0, time=336),\n",
      "    Message('note_on', channel=4, note=76, velocity=127, time=24),\n",
      "    Message('note_on', channel=4, note=76, velocity=0, time=168),\n",
      "    Message('note_on', channel=4, note=74, velocity=127, time=12),\n",
      "    Message('note_on', channel=4, note=74, velocity=0, time=276),\n",
      "    Message('note_on', channel=4, note=76, velocity=127, time=24),\n",
      "    Message('note_on', channel=4, note=76, velocity=0, time=24),\n",
      "    Message('note_on', channel=4, note=77, velocity=127, time=6),\n",
      "    Message('note_on', channel=4, note=77, velocity=0, time=24),\n",
      "    Message('note_on', channel=4, note=74, velocity=127, time=6),\n",
      "    Message('note_on', channel=4, note=74, velocity=0, time=168),\n",
      "    Message('note_on', channel=4, note=72, velocity=127, time=12),\n",
      "    Message('note_on', channel=4, note=72, velocity=0, time=168),\n",
      "    Message('note_on', channel=4, note=72, velocity=127, time=12),\n",
      "    Message('note_on', channel=4, note=72, velocity=0, time=168),\n",
      "    Message('note_on', channel=4, note=71, velocity=127, time=1272),\n",
      "    Message('note_on', channel=4, note=71, velocity=0, time=336),\n",
      "    Message('note_on', channel=4, note=72, velocity=127, time=24),\n",
      "    Message('note_on', channel=4, note=72, velocity=0, time=168),\n",
      "    Message('note_on', channel=4, note=74, velocity=127, time=12),\n",
      "    Message('note_on', channel=4, note=74, velocity=0, time=336),\n",
      "    Message('note_on', channel=4, note=74, velocity=127, time=24),\n",
      "    Message('note_on', channel=4, note=74, velocity=0, time=168),\n",
      "    Message('note_on', channel=4, note=72, velocity=127, time=12),\n",
      "    Message('note_on', channel=4, note=72, velocity=0, time=168),\n",
      "    Message('note_on', channel=4, note=71, velocity=127, time=12),\n",
      "    Message('note_on', channel=4, note=71, velocity=0, time=336),\n",
      "    Message('note_on', channel=4, note=69, velocity=127, time=24),\n",
      "    Message('note_on', channel=4, note=69, velocity=0, time=336),\n",
      "    Message('note_on', channel=4, note=71, velocity=127, time=744),\n",
      "    Message('note_on', channel=4, note=71, velocity=0, time=336),\n",
      "    Message('note_on', channel=4, note=72, velocity=127, time=24),\n",
      "    Message('note_on', channel=4, note=72, velocity=0, time=168),\n",
      "    Message('note_on', channel=4, note=74, velocity=127, time=12),\n",
      "    Message('note_on', channel=4, note=74, velocity=0, time=336),\n",
      "    Message('note_on', channel=4, note=71, velocity=127, time=24),\n",
      "    Message('note_on', channel=4, note=71, velocity=0, time=168),\n",
      "    Message('note_on', channel=4, note=69, velocity=127, time=12),\n",
      "    Message('note_on', channel=4, note=69, velocity=0, time=96),\n",
      "    Message('note_on', channel=4, note=71, velocity=127, time=24),\n",
      "    Message('note_on', channel=4, note=71, velocity=0, time=24),\n",
      "    Message('note_on', channel=4, note=72, velocity=127, time=6),\n",
      "    Message('note_on', channel=4, note=72, velocity=0, time=24),\n",
      "    Message('note_on', channel=4, note=71, velocity=127, time=6),\n",
      "    Message('note_on', channel=4, note=71, velocity=0, time=168),\n",
      "    Message('note_on', channel=4, note=69, velocity=127, time=12),\n",
      "    Message('note_on', channel=4, note=69, velocity=0, time=168),\n",
      "    Message('note_on', channel=4, note=67, velocity=127, time=12),\n",
      "    Message('note_on', channel=4, note=67, velocity=0, time=336),\n",
      "    MetaMessage('end_of_track', time=0)]),\n",
      "  MidiTrack([\n",
      "    MetaMessage('track_name', name='Cut-N-Shoot, Tx', time=0),\n",
      "    MetaMessage('instrument_name', name='Choir Aahs', time=0),\n",
      "    MetaMessage('midi_port', port=0, time=0),\n",
      "    Message('program_change', channel=5, program=52, time=0),\n",
      "    Message('note_on', channel=5, note=59, velocity=127, time=4320),\n",
      "    Message('note_on', channel=5, note=59, velocity=0, time=336),\n",
      "    Message('note_on', channel=5, note=60, velocity=127, time=24),\n",
      "    Message('note_on', channel=5, note=60, velocity=0, time=168),\n",
      "    Message('note_on', channel=5, note=62, velocity=127, time=12),\n",
      "    Message('note_on', channel=5, note=62, velocity=0, time=336),\n",
      "    Message('note_on', channel=5, note=62, velocity=127, time=24),\n",
      "    Message('note_on', channel=5, note=62, velocity=0, time=168),\n",
      "    Message('note_on', channel=5, note=60, velocity=127, time=12),\n",
      "    Message('note_on', channel=5, note=60, velocity=0, time=336),\n",
      "    Message('note_on', channel=5, note=59, velocity=127, time=24),\n",
      "    Message('note_on', channel=5, note=59, velocity=0, time=168),\n",
      "    Message('note_on', channel=5, note=57, velocity=127, time=12),\n",
      "    Message('note_on', channel=5, note=57, velocity=0, time=168),\n",
      "    Message('note_on', channel=5, note=57, velocity=127, time=12),\n",
      "    Message('note_on', channel=5, note=57, velocity=0, time=168),\n",
      "    Message('note_on', channel=5, note=59, velocity=127, time=732),\n",
      "    Message('note_on', channel=5, note=59, velocity=0, time=336),\n",
      "    Message('note_on', channel=5, note=60, velocity=127, time=24),\n",
      "    Message('note_on', channel=5, note=60, velocity=0, time=168),\n",
      "    Message('note_on', channel=5, note=62, velocity=127, time=12),\n",
      "    Message('note_on', channel=5, note=62, velocity=0, time=336),\n",
      "    Message('note_on', channel=5, note=59, velocity=127, time=24),\n",
      "    Message('note_on', channel=5, note=59, velocity=0, time=168),\n",
      "    Message('note_on', channel=5, note=57, velocity=127, time=12),\n",
      "    Message('note_on', channel=5, note=57, velocity=0, time=96),\n",
      "    Message('note_on', channel=5, note=59, velocity=127, time=24),\n",
      "    Message('note_on', channel=5, note=59, velocity=0, time=24),\n",
      "    Message('note_on', channel=5, note=60, velocity=127, time=6),\n",
      "    Message('note_on', channel=5, note=60, velocity=0, time=24),\n",
      "    Message('note_on', channel=5, note=59, velocity=127, time=6),\n",
      "    Message('note_on', channel=5, note=59, velocity=0, time=168),\n",
      "    Message('note_on', channel=5, note=57, velocity=127, time=12),\n",
      "    Message('note_on', channel=5, note=57, velocity=0, time=168),\n",
      "    Message('note_on', channel=5, note=55, velocity=127, time=12),\n",
      "    Message('note_on', channel=5, note=55, velocity=0, time=336),\n",
      "    Message('note_on', channel=5, note=59, velocity=127, time=3444),\n",
      "    Message('note_on', channel=5, note=59, velocity=0, time=336),\n",
      "    Message('note_on', channel=5, note=60, velocity=127, time=24),\n",
      "    Message('note_on', channel=5, note=60, velocity=0, time=168),\n",
      "    Message('note_on', channel=5, note=62, velocity=127, time=12),\n",
      "    Message('note_on', channel=5, note=62, velocity=0, time=336),\n",
      "    Message('note_on', channel=5, note=62, velocity=127, time=24),\n",
      "    Message('note_on', channel=5, note=62, velocity=0, time=168),\n",
      "    Message('note_on', channel=5, note=60, velocity=127, time=12),\n",
      "    Message('note_on', channel=5, note=60, velocity=0, time=336),\n",
      "    Message('note_on', channel=5, note=59, velocity=127, time=24),\n",
      "    Message('note_on', channel=5, note=59, velocity=0, time=168),\n",
      "    Message('note_on', channel=5, note=57, velocity=127, time=12),\n",
      "    Message('note_on', channel=5, note=57, velocity=0, time=168),\n",
      "    Message('note_on', channel=5, note=57, velocity=127, time=12),\n",
      "    Message('note_on', channel=5, note=57, velocity=0, time=168),\n",
      "    Message('note_on', channel=5, note=59, velocity=127, time=732),\n",
      "    Message('note_on', channel=5, note=59, velocity=0, time=336),\n",
      "    Message('note_on', channel=5, note=60, velocity=127, time=24),\n",
      "    Message('note_on', channel=5, note=60, velocity=0, time=168),\n",
      "    Message('note_on', channel=5, note=62, velocity=127, time=12),\n",
      "    Message('note_on', channel=5, note=62, velocity=0, time=336),\n",
      "    Message('note_on', channel=5, note=59, velocity=127, time=24),\n",
      "    Message('note_on', channel=5, note=59, velocity=0, time=168),\n",
      "    Message('note_on', channel=5, note=57, velocity=127, time=12),\n",
      "    Message('note_on', channel=5, note=57, velocity=0, time=96),\n",
      "    Message('note_on', channel=5, note=59, velocity=127, time=24),\n",
      "    Message('note_on', channel=5, note=59, velocity=0, time=24),\n",
      "    Message('note_on', channel=5, note=60, velocity=127, time=6),\n",
      "    Message('note_on', channel=5, note=60, velocity=0, time=24),\n",
      "    Message('note_on', channel=5, note=59, velocity=127, time=6),\n",
      "    Message('note_on', channel=5, note=59, velocity=0, time=168),\n",
      "    Message('note_on', channel=5, note=57, velocity=127, time=12),\n",
      "    Message('note_on', channel=5, note=57, velocity=0, time=168),\n",
      "    Message('note_on', channel=5, note=55, velocity=127, time=12),\n",
      "    Message('note_on', channel=5, note=55, velocity=0, time=336),\n",
      "    Message('note_on', channel=5, note=57, velocity=127, time=3984),\n",
      "    Message('note_on', channel=5, note=57, velocity=0, time=336),\n",
      "    Message('note_on', channel=5, note=59, velocity=127, time=24),\n",
      "    Message('note_on', channel=5, note=59, velocity=0, time=168),\n",
      "    Message('note_on', channel=5, note=60, velocity=127, time=12),\n",
      "    Message('note_on', channel=5, note=60, velocity=0, time=336),\n",
      "    Message('note_on', channel=5, note=60, velocity=127, time=24),\n",
      "    Message('note_on', channel=5, note=60, velocity=0, time=168),\n",
      "    Message('note_on', channel=5, note=59, velocity=127, time=12),\n",
      "    Message('note_on', channel=5, note=59, velocity=0, time=276),\n",
      "    Message('note_on', channel=5, note=60, velocity=127, time=24),\n",
      "    Message('note_on', channel=5, note=60, velocity=0, time=24),\n",
      "    Message('note_on', channel=5, note=62, velocity=127, time=6),\n",
      "    Message('note_on', channel=5, note=62, velocity=0, time=24),\n",
      "    Message('note_on', channel=5, note=59, velocity=127, time=6),\n",
      "    Message('note_on', channel=5, note=59, velocity=0, time=168),\n",
      "    Message('note_on', channel=5, note=57, velocity=127, time=12),\n",
      "    Message('note_on', channel=5, note=57, velocity=0, time=168),\n",
      "    Message('note_on', channel=5, note=57, velocity=127, time=12),\n",
      "    Message('note_on', channel=5, note=57, velocity=0, time=168),\n",
      "    Message('note_on', channel=5, note=60, velocity=127, time=1272),\n",
      "    Message('note_on', channel=5, note=60, velocity=0, time=336),\n",
      "    Message('note_on', channel=5, note=62, velocity=127, time=24),\n",
      "    Message('note_on', channel=5, note=62, velocity=0, time=168),\n",
      "    Message('note_on', channel=5, note=64, velocity=127, time=12),\n",
      "    Message('note_on', channel=5, note=64, velocity=0, time=336),\n",
      "    Message('note_on', channel=5, note=64, velocity=127, time=24),\n",
      "    Message('note_on', channel=5, note=64, velocity=0, time=168),\n",
      "    Message('note_on', channel=5, note=62, velocity=127, time=12),\n",
      "    Message('note_on', channel=5, note=62, velocity=0, time=276),\n",
      "    Message('note_on', channel=5, note=64, velocity=127, time=24),\n",
      "    Message('note_on', channel=5, note=64, velocity=0, time=24),\n",
      "    Message('note_on', channel=5, note=65, velocity=127, time=6),\n",
      "    Message('note_on', channel=5, note=65, velocity=0, time=24),\n",
      "    Message('note_on', channel=5, note=62, velocity=127, time=6),\n",
      "    Message('note_on', channel=5, note=62, velocity=0, time=168),\n",
      "    Message('note_on', channel=5, note=60, velocity=127, time=12),\n",
      "    Message('note_on', channel=5, note=60, velocity=0, time=168),\n",
      "    Message('note_on', channel=5, note=60, velocity=127, time=12),\n",
      "    Message('note_on', channel=5, note=60, velocity=0, time=168),\n",
      "    Message('note_on', channel=5, note=59, velocity=127, time=1272),\n",
      "    Message('note_on', channel=5, note=59, velocity=0, time=336),\n",
      "    Message('note_on', channel=5, note=60, velocity=127, time=24),\n",
      "    Message('note_on', channel=5, note=60, velocity=0, time=168),\n",
      "    Message('note_on', channel=5, note=62, velocity=127, time=12),\n",
      "    Message('note_on', channel=5, note=62, velocity=0, time=336),\n",
      "    Message('note_on', channel=5, note=62, velocity=127, time=24),\n",
      "    Message('note_on', channel=5, note=62, velocity=0, time=168),\n",
      "    Message('note_on', channel=5, note=60, velocity=127, time=12),\n",
      "    Message('note_on', channel=5, note=60, velocity=0, time=168),\n",
      "    Message('note_on', channel=5, note=59, velocity=127, time=12),\n",
      "    Message('note_on', channel=5, note=59, velocity=0, time=336),\n",
      "    Message('note_on', channel=5, note=57, velocity=127, time=24),\n",
      "    Message('note_on', channel=5, note=57, velocity=0, time=336),\n",
      "    Message('note_on', channel=5, note=59, velocity=127, time=744),\n",
      "    Message('note_on', channel=5, note=59, velocity=0, time=336),\n",
      "    Message('note_on', channel=5, note=60, velocity=127, time=24),\n",
      "    Message('note_on', channel=5, note=60, velocity=0, time=168),\n",
      "    Message('note_on', channel=5, note=62, velocity=127, time=12),\n",
      "    Message('note_on', channel=5, note=62, velocity=0, time=336),\n",
      "    Message('note_on', channel=5, note=59, velocity=127, time=24),\n",
      "    Message('note_on', channel=5, note=59, velocity=0, time=168),\n",
      "    Message('note_on', channel=5, note=57, velocity=127, time=12),\n",
      "    Message('note_on', channel=5, note=57, velocity=0, time=96),\n",
      "    Message('note_on', channel=5, note=59, velocity=127, time=24),\n",
      "    Message('note_on', channel=5, note=59, velocity=0, time=24),\n",
      "    Message('note_on', channel=5, note=60, velocity=127, time=6),\n",
      "    Message('note_on', channel=5, note=60, velocity=0, time=24),\n",
      "    Message('note_on', channel=5, note=59, velocity=127, time=6),\n",
      "    Message('note_on', channel=5, note=59, velocity=0, time=168),\n",
      "    Message('note_on', channel=5, note=57, velocity=127, time=12),\n",
      "    Message('note_on', channel=5, note=57, velocity=0, time=168),\n",
      "    Message('note_on', channel=5, note=55, velocity=127, time=12),\n",
      "    Message('note_on', channel=5, note=55, velocity=0, time=336),\n",
      "    Message('note_on', channel=5, note=59, velocity=127, time=10464),\n",
      "    Message('note_on', channel=5, note=59, velocity=0, time=336),\n",
      "    Message('note_on', channel=5, note=60, velocity=127, time=24),\n",
      "    Message('note_on', channel=5, note=60, velocity=0, time=168),\n",
      "    Message('note_on', channel=5, note=62, velocity=127, time=12),\n",
      "    Message('note_on', channel=5, note=62, velocity=0, time=336),\n",
      "    Message('note_on', channel=5, note=62, velocity=127, time=24),\n",
      "    Message('note_on', channel=5, note=62, velocity=0, time=168),\n",
      "    Message('note_on', channel=5, note=60, velocity=127, time=12),\n",
      "    Message('note_on', channel=5, note=60, velocity=0, time=336),\n",
      "    Message('note_on', channel=5, note=59, velocity=127, time=24),\n",
      "    Message('note_on', channel=5, note=59, velocity=0, time=168),\n",
      "    Message('note_on', channel=5, note=57, velocity=127, time=12),\n",
      "    Message('note_on', channel=5, note=57, velocity=0, time=168),\n",
      "    Message('note_on', channel=5, note=57, velocity=127, time=12),\n",
      "    Message('note_on', channel=5, note=57, velocity=0, time=168),\n",
      "    Message('note_on', channel=5, note=59, velocity=127, time=732),\n",
      "    Message('note_on', channel=5, note=59, velocity=0, time=336),\n",
      "    Message('note_on', channel=5, note=60, velocity=127, time=24),\n",
      "    Message('note_on', channel=5, note=60, velocity=0, time=168),\n",
      "    Message('note_on', channel=5, note=62, velocity=127, time=12),\n",
      "    Message('note_on', channel=5, note=62, velocity=0, time=336),\n",
      "    Message('note_on', channel=5, note=59, velocity=127, time=24),\n",
      "    Message('note_on', channel=5, note=59, velocity=0, time=168),\n",
      "    Message('note_on', channel=5, note=57, velocity=127, time=12),\n",
      "    Message('note_on', channel=5, note=57, velocity=0, time=96),\n",
      "    Message('note_on', channel=5, note=59, velocity=127, time=24),\n",
      "    Message('note_on', channel=5, note=59, velocity=0, time=24),\n",
      "    Message('note_on', channel=5, note=60, velocity=127, time=6),\n",
      "    Message('note_on', channel=5, note=60, velocity=0, time=24),\n",
      "    Message('note_on', channel=5, note=59, velocity=127, time=6),\n",
      "    Message('note_on', channel=5, note=59, velocity=0, time=168),\n",
      "    Message('note_on', channel=5, note=57, velocity=127, time=12),\n",
      "    Message('note_on', channel=5, note=57, velocity=0, time=168),\n",
      "    Message('note_on', channel=5, note=55, velocity=127, time=12),\n",
      "    Message('note_on', channel=5, note=55, velocity=0, time=336),\n",
      "    Message('note_on', channel=5, note=59, velocity=127, time=3444),\n",
      "    Message('note_on', channel=5, note=59, velocity=0, time=336),\n",
      "    Message('note_on', channel=5, note=60, velocity=127, time=24),\n",
      "    Message('note_on', channel=5, note=60, velocity=0, time=168),\n",
      "    Message('note_on', channel=5, note=62, velocity=127, time=12),\n",
      "    Message('note_on', channel=5, note=62, velocity=0, time=336),\n",
      "    Message('note_on', channel=5, note=62, velocity=127, time=24),\n",
      "    Message('note_on', channel=5, note=62, velocity=0, time=168),\n",
      "    Message('note_on', channel=5, note=60, velocity=127, time=12),\n",
      "    Message('note_on', channel=5, note=60, velocity=0, time=336),\n",
      "    Message('note_on', channel=5, note=59, velocity=127, time=24),\n",
      "    Message('note_on', channel=5, note=59, velocity=0, time=168),\n",
      "    Message('note_on', channel=5, note=57, velocity=127, time=12),\n",
      "    Message('note_on', channel=5, note=57, velocity=0, time=168),\n",
      "    Message('note_on', channel=5, note=57, velocity=127, time=12),\n",
      "    Message('note_on', channel=5, note=57, velocity=0, time=168),\n",
      "    Message('note_on', channel=5, note=59, velocity=127, time=732),\n",
      "    Message('note_on', channel=5, note=59, velocity=0, time=336),\n",
      "    Message('note_on', channel=5, note=60, velocity=127, time=24),\n",
      "    Message('note_on', channel=5, note=60, velocity=0, time=168),\n",
      "    Message('note_on', channel=5, note=62, velocity=127, time=12),\n",
      "    Message('note_on', channel=5, note=62, velocity=0, time=336),\n",
      "    Message('note_on', channel=5, note=59, velocity=127, time=24),\n",
      "    Message('note_on', channel=5, note=59, velocity=0, time=168),\n",
      "    Message('note_on', channel=5, note=57, velocity=127, time=12),\n",
      "    Message('note_on', channel=5, note=57, velocity=0, time=96),\n",
      "    Message('note_on', channel=5, note=59, velocity=127, time=24),\n",
      "    Message('note_on', channel=5, note=59, velocity=0, time=24),\n",
      "    Message('note_on', channel=5, note=60, velocity=127, time=6),\n",
      "    Message('note_on', channel=5, note=60, velocity=0, time=24),\n",
      "    Message('note_on', channel=5, note=59, velocity=127, time=6),\n",
      "    Message('note_on', channel=5, note=59, velocity=0, time=168),\n",
      "    Message('note_on', channel=5, note=57, velocity=127, time=12),\n",
      "    Message('note_on', channel=5, note=57, velocity=0, time=168),\n",
      "    Message('note_on', channel=5, note=55, velocity=127, time=12),\n",
      "    Message('note_on', channel=5, note=55, velocity=0, time=336),\n",
      "    Message('note_on', channel=5, note=57, velocity=127, time=3984),\n",
      "    Message('note_on', channel=5, note=57, velocity=0, time=336),\n",
      "    Message('note_on', channel=5, note=59, velocity=127, time=24),\n",
      "    Message('note_on', channel=5, note=59, velocity=0, time=168),\n",
      "    Message('note_on', channel=5, note=60, velocity=127, time=12),\n",
      "    Message('note_on', channel=5, note=60, velocity=0, time=336),\n",
      "    Message('note_on', channel=5, note=60, velocity=127, time=24),\n",
      "    Message('note_on', channel=5, note=60, velocity=0, time=168),\n",
      "    Message('note_on', channel=5, note=59, velocity=127, time=12),\n",
      "    Message('note_on', channel=5, note=59, velocity=0, time=276),\n",
      "    Message('note_on', channel=5, note=60, velocity=127, time=24),\n",
      "    Message('note_on', channel=5, note=60, velocity=0, time=24),\n",
      "    Message('note_on', channel=5, note=62, velocity=127, time=6),\n",
      "    Message('note_on', channel=5, note=62, velocity=0, time=24),\n",
      "    Message('note_on', channel=5, note=59, velocity=127, time=6),\n",
      "    Message('note_on', channel=5, note=59, velocity=0, time=168),\n",
      "    Message('note_on', channel=5, note=57, velocity=127, time=12),\n",
      "    Message('note_on', channel=5, note=57, velocity=0, time=168),\n",
      "    Message('note_on', channel=5, note=57, velocity=127, time=12),\n",
      "    Message('note_on', channel=5, note=57, velocity=0, time=168),\n",
      "    Message('note_on', channel=5, note=60, velocity=127, time=1272),\n",
      "    Message('note_on', channel=5, note=60, velocity=0, time=336),\n",
      "    Message('note_on', channel=5, note=62, velocity=127, time=24),\n",
      "    Message('note_on', channel=5, note=62, velocity=0, time=168),\n",
      "    Message('note_on', channel=5, note=64, velocity=127, time=12),\n",
      "    Message('note_on', channel=5, note=64, velocity=0, time=336),\n",
      "    Message('note_on', channel=5, note=64, velocity=127, time=24),\n",
      "    Message('note_on', channel=5, note=64, velocity=0, time=168),\n",
      "    Message('note_on', channel=5, note=62, velocity=127, time=12),\n",
      "    Message('note_on', channel=5, note=62, velocity=0, time=276),\n",
      "    Message('note_on', channel=5, note=64, velocity=127, time=24),\n",
      "    Message('note_on', channel=5, note=64, velocity=0, time=24),\n",
      "    Message('note_on', channel=5, note=65, velocity=127, time=6),\n",
      "    Message('note_on', channel=5, note=65, velocity=0, time=24),\n",
      "    Message('note_on', channel=5, note=62, velocity=127, time=6),\n",
      "    Message('note_on', channel=5, note=62, velocity=0, time=168),\n",
      "    Message('note_on', channel=5, note=60, velocity=127, time=12),\n",
      "    Message('note_on', channel=5, note=60, velocity=0, time=168),\n",
      "    Message('note_on', channel=5, note=60, velocity=127, time=12),\n",
      "    Message('note_on', channel=5, note=60, velocity=0, time=168),\n",
      "    Message('note_on', channel=5, note=59, velocity=127, time=1272),\n",
      "    Message('note_on', channel=5, note=59, velocity=0, time=336),\n",
      "    Message('note_on', channel=5, note=60, velocity=127, time=24),\n",
      "    Message('note_on', channel=5, note=60, velocity=0, time=168),\n",
      "    Message('note_on', channel=5, note=62, velocity=127, time=12),\n",
      "    Message('note_on', channel=5, note=62, velocity=0, time=336),\n",
      "    Message('note_on', channel=5, note=62, velocity=127, time=24),\n",
      "    Message('note_on', channel=5, note=62, velocity=0, time=168),\n",
      "    Message('note_on', channel=5, note=60, velocity=127, time=12),\n",
      "    Message('note_on', channel=5, note=60, velocity=0, time=168),\n",
      "    Message('note_on', channel=5, note=59, velocity=127, time=12),\n",
      "    Message('note_on', channel=5, note=59, velocity=0, time=336),\n",
      "    Message('note_on', channel=5, note=57, velocity=127, time=24),\n",
      "    Message('note_on', channel=5, note=57, velocity=0, time=336),\n",
      "    Message('note_on', channel=5, note=59, velocity=127, time=744),\n",
      "    Message('note_on', channel=5, note=59, velocity=0, time=336),\n",
      "    Message('note_on', channel=5, note=60, velocity=127, time=24),\n",
      "    Message('note_on', channel=5, note=60, velocity=0, time=168),\n",
      "    Message('note_on', channel=5, note=62, velocity=127, time=12),\n",
      "    Message('note_on', channel=5, note=62, velocity=0, time=336),\n",
      "    Message('note_on', channel=5, note=59, velocity=127, time=24),\n",
      "    Message('note_on', channel=5, note=59, velocity=0, time=168),\n",
      "    Message('note_on', channel=5, note=57, velocity=127, time=12),\n",
      "    Message('note_on', channel=5, note=57, velocity=0, time=96),\n",
      "    Message('note_on', channel=5, note=59, velocity=127, time=24),\n",
      "    Message('note_on', channel=5, note=59, velocity=0, time=24),\n",
      "    Message('note_on', channel=5, note=60, velocity=127, time=6),\n",
      "    Message('note_on', channel=5, note=60, velocity=0, time=24),\n",
      "    Message('note_on', channel=5, note=59, velocity=127, time=6),\n",
      "    Message('note_on', channel=5, note=59, velocity=0, time=168),\n",
      "    Message('note_on', channel=5, note=57, velocity=127, time=12),\n",
      "    Message('note_on', channel=5, note=57, velocity=0, time=168),\n",
      "    Message('note_on', channel=5, note=55, velocity=127, time=12),\n",
      "    Message('note_on', channel=5, note=55, velocity=0, time=336),\n",
      "    MetaMessage('end_of_track', time=0)]),\n",
      "  MidiTrack([\n",
      "    MetaMessage('track_name', name='          [74046,757]', time=0),\n",
      "    MetaMessage('midi_port', port=0, time=0),\n",
      "    MetaMessage('end_of_track', time=0)])\n",
      "])\n"
     ]
    }
   ],
   "source": [
    "file_name2 = \"jesu1.mid\"\n",
    "file_path2 = os.path.join(\"midi_data\", file_name2)\n",
    "\n",
    "mid2 = MidiFile(file_path2)\n",
    "print(mid2)"
   ]
  },
  {
   "cell_type": "code",
   "execution_count": 15,
   "id": "92539381",
   "metadata": {},
   "outputs": [
    {
     "data": {
      "text/plain": [
       "8"
      ]
     },
     "execution_count": 15,
     "metadata": {},
     "output_type": "execute_result"
    }
   ],
   "source": [
    "len(mid2.tracks)"
   ]
  },
  {
   "cell_type": "code",
   "execution_count": 16,
   "id": "5b8fdd09",
   "metadata": {},
   "outputs": [
    {
     "data": {
      "text/plain": [
       "MidiTrack([\n",
       "  MetaMessage('sequencer_specific', data=(0, 0, 65), time=0),\n",
       "  MetaMessage('track_name', name='JESU        ', time=0),\n",
       "  MetaMessage('key_signature', key='G', time=0),\n",
       "  MetaMessage('midi_port', port=0, time=0),\n",
       "  MetaMessage('time_signature', numerator=9, denominator=8, clocks_per_click=24, notated_32nd_notes_per_beat=8, time=0),\n",
       "  MetaMessage('set_tempo', tempo=500000, time=38340),\n",
       "  MetaMessage('end_of_track', time=0)])"
      ]
     },
     "execution_count": 16,
     "metadata": {},
     "output_type": "execute_result"
    }
   ],
   "source": [
    "mid2.tracks[0]"
   ]
  },
  {
   "cell_type": "code",
   "execution_count": 17,
   "id": "cdf02c87",
   "metadata": {},
   "outputs": [
    {
     "data": {
      "text/plain": [
       "MidiTrack([\n",
       "  MetaMessage('track_name', name=\"Jesu, Joy of Man's\", time=0),\n",
       "  MetaMessage('instrument_name', name='Synths Strings 1', time=0),\n",
       "  MetaMessage('midi_port', port=0, time=0),\n",
       "  Message('control_change', channel=0, control=0, value=80, time=0),\n",
       "  Message('control_change', channel=0, control=32, value=0, time=0),\n",
       "  Message('program_change', channel=0, program=50, time=0),\n",
       "  Message('note_on', channel=0, note=67, velocity=104, time=60),\n",
       "  Message('note_on', channel=0, note=67, velocity=0, time=48),\n",
       "  Message('note_on', channel=0, note=69, velocity=104, time=12),\n",
       "  Message('note_on', channel=0, note=69, velocity=0, time=48),\n",
       "  Message('note_on', channel=0, note=71, velocity=104, time=12),\n",
       "  Message('note_on', channel=0, note=71, velocity=0, time=48),\n",
       "  Message('note_on', channel=0, note=74, velocity=104, time=12),\n",
       "  Message('note_on', channel=0, note=74, velocity=0, time=48),\n",
       "  Message('note_on', channel=0, note=72, velocity=104, time=12),\n",
       "  Message('note_on', channel=0, note=72, velocity=0, time=48),\n",
       "  Message('note_on', channel=0, note=72, velocity=104, time=12),\n",
       "  Message('note_on', channel=0, note=72, velocity=0, time=48),\n",
       "  Message('note_on', channel=0, note=76, velocity=104, time=12),\n",
       "  Message('note_on', channel=0, note=76, velocity=0, time=48),\n",
       "  Message('note_on', channel=0, note=74, velocity=104, time=12),\n",
       "  Message('note_on', channel=0, note=74, velocity=0, time=48),\n",
       "  Message('note_on', channel=0, note=74, velocity=104, time=12),\n",
       "  Message('note_on', channel=0, note=74, velocity=0, time=48),\n",
       "  Message('note_on', channel=0, note=79, velocity=104, time=12),\n",
       "  Message('note_on', channel=0, note=79, velocity=0, time=48),\n",
       "  Message('note_on', channel=0, note=78, velocity=104, time=12),\n",
       "  Message('note_on', channel=0, note=78, velocity=0, time=48),\n",
       "  Message('note_on', channel=0, note=79, velocity=104, time=12),\n",
       "  Message('note_on', channel=0, note=79, velocity=0, time=48),\n",
       "  Message('note_on', channel=0, note=74, velocity=104, time=12),\n",
       "  Message('note_on', channel=0, note=74, velocity=0, time=48),\n",
       "  Message('note_on', channel=0, note=71, velocity=104, time=12),\n",
       "  Message('note_on', channel=0, note=71, velocity=0, time=48),\n",
       "  Message('note_on', channel=0, note=67, velocity=104, time=12),\n",
       "  Message('note_on', channel=0, note=67, velocity=0, time=48),\n",
       "  Message('note_on', channel=0, note=69, velocity=104, time=12),\n",
       "  Message('note_on', channel=0, note=69, velocity=0, time=48),\n",
       "  Message('note_on', channel=0, note=71, velocity=104, time=12),\n",
       "  Message('note_on', channel=0, note=71, velocity=0, time=48),\n",
       "  Message('note_on', channel=0, note=72, velocity=104, time=12),\n",
       "  Message('note_on', channel=0, note=72, velocity=0, time=48),\n",
       "  Message('note_on', channel=0, note=74, velocity=104, time=12),\n",
       "  Message('note_on', channel=0, note=74, velocity=0, time=48),\n",
       "  Message('note_on', channel=0, note=76, velocity=104, time=12),\n",
       "  Message('note_on', channel=0, note=76, velocity=0, time=48),\n",
       "  Message('note_on', channel=0, note=74, velocity=104, time=12),\n",
       "  Message('note_on', channel=0, note=74, velocity=0, time=48),\n",
       "  Message('note_on', channel=0, note=72, velocity=104, time=12),\n",
       "  Message('note_on', channel=0, note=72, velocity=0, time=48),\n",
       "  Message('note_on', channel=0, note=71, velocity=104, time=12),\n",
       "  Message('note_on', channel=0, note=71, velocity=0, time=48),\n",
       "  Message('note_on', channel=0, note=69, velocity=104, time=12),\n",
       "  Message('note_on', channel=0, note=69, velocity=0, time=48),\n",
       "  Message('note_on', channel=0, note=71, velocity=104, time=12),\n",
       "  Message('note_on', channel=0, note=71, velocity=0, time=48),\n",
       "  Message('note_on', channel=0, note=67, velocity=104, time=12),\n",
       "  Message('note_on', channel=0, note=67, velocity=0, time=48),\n",
       "  Message('note_on', channel=0, note=66, velocity=104, time=12),\n",
       "  Message('note_on', channel=0, note=66, velocity=0, time=48),\n",
       "  Message('note_on', channel=0, note=67, velocity=104, time=12),\n",
       "  Message('note_on', channel=0, note=67, velocity=0, time=48),\n",
       "  Message('note_on', channel=0, note=69, velocity=104, time=12),\n",
       "  Message('note_on', channel=0, note=69, velocity=0, time=48),\n",
       "  Message('note_on', channel=0, note=62, velocity=104, time=12),\n",
       "  Message('note_on', channel=0, note=62, velocity=0, time=48),\n",
       "  Message('note_on', channel=0, note=66, velocity=104, time=12),\n",
       "  Message('note_on', channel=0, note=66, velocity=0, time=48),\n",
       "  Message('note_on', channel=0, note=69, velocity=104, time=12),\n",
       "  Message('note_on', channel=0, note=69, velocity=0, time=48),\n",
       "  Message('note_on', channel=0, note=72, velocity=104, time=12),\n",
       "  Message('note_on', channel=0, note=72, velocity=0, time=48),\n",
       "  Message('note_on', channel=0, note=71, velocity=104, time=12),\n",
       "  Message('note_on', channel=0, note=71, velocity=0, time=48),\n",
       "  Message('note_on', channel=0, note=69, velocity=104, time=12),\n",
       "  Message('note_on', channel=0, note=69, velocity=0, time=48),\n",
       "  Message('note_on', channel=0, note=71, velocity=104, time=12),\n",
       "  Message('note_on', channel=0, note=71, velocity=0, time=48),\n",
       "  Message('note_on', channel=0, note=67, velocity=104, time=12),\n",
       "  Message('note_on', channel=0, note=67, velocity=0, time=48),\n",
       "  Message('note_on', channel=0, note=69, velocity=104, time=12),\n",
       "  Message('note_on', channel=0, note=69, velocity=0, time=48),\n",
       "  Message('note_on', channel=0, note=71, velocity=104, time=12),\n",
       "  Message('note_on', channel=0, note=71, velocity=0, time=48),\n",
       "  Message('note_on', channel=0, note=74, velocity=104, time=12),\n",
       "  Message('note_on', channel=0, note=74, velocity=0, time=48),\n",
       "  Message('note_on', channel=0, note=72, velocity=104, time=12),\n",
       "  Message('note_on', channel=0, note=72, velocity=0, time=48),\n",
       "  Message('note_on', channel=0, note=72, velocity=104, time=12),\n",
       "  Message('note_on', channel=0, note=72, velocity=0, time=48),\n",
       "  Message('note_on', channel=0, note=76, velocity=104, time=12),\n",
       "  Message('note_on', channel=0, note=76, velocity=0, time=48),\n",
       "  Message('note_on', channel=0, note=74, velocity=104, time=12),\n",
       "  Message('note_on', channel=0, note=74, velocity=0, time=48),\n",
       "  Message('note_on', channel=0, note=74, velocity=104, time=12),\n",
       "  Message('note_on', channel=0, note=74, velocity=0, time=48),\n",
       "  Message('note_on', channel=0, note=79, velocity=104, time=12),\n",
       "  Message('note_on', channel=0, note=79, velocity=0, time=48),\n",
       "  Message('note_on', channel=0, note=78, velocity=104, time=12),\n",
       "  Message('note_on', channel=0, note=78, velocity=0, time=48),\n",
       "  Message('note_on', channel=0, note=79, velocity=104, time=12),\n",
       "  Message('note_on', channel=0, note=79, velocity=0, time=48),\n",
       "  Message('note_on', channel=0, note=74, velocity=104, time=12),\n",
       "  Message('note_on', channel=0, note=74, velocity=0, time=48),\n",
       "  Message('note_on', channel=0, note=71, velocity=104, time=12),\n",
       "  Message('note_on', channel=0, note=71, velocity=0, time=48),\n",
       "  Message('note_on', channel=0, note=67, velocity=104, time=12),\n",
       "  Message('note_on', channel=0, note=67, velocity=0, time=48),\n",
       "  Message('note_on', channel=0, note=69, velocity=104, time=12),\n",
       "  Message('note_on', channel=0, note=69, velocity=0, time=48),\n",
       "  Message('note_on', channel=0, note=71, velocity=104, time=12),\n",
       "  Message('note_on', channel=0, note=71, velocity=0, time=48),\n",
       "  Message('note_on', channel=0, note=64, velocity=104, time=12),\n",
       "  Message('note_on', channel=0, note=64, velocity=0, time=48),\n",
       "  Message('note_on', channel=0, note=74, velocity=104, time=12),\n",
       "  Message('note_on', channel=0, note=74, velocity=0, time=48),\n",
       "  Message('note_on', channel=0, note=72, velocity=104, time=12),\n",
       "  Message('note_on', channel=0, note=72, velocity=0, time=48),\n",
       "  Message('note_on', channel=0, note=71, velocity=104, time=12),\n",
       "  Message('note_on', channel=0, note=71, velocity=0, time=48),\n",
       "  Message('note_on', channel=0, note=69, velocity=104, time=12),\n",
       "  Message('note_on', channel=0, note=69, velocity=0, time=48),\n",
       "  Message('note_on', channel=0, note=67, velocity=104, time=12),\n",
       "  Message('note_on', channel=0, note=67, velocity=0, time=48),\n",
       "  Message('note_on', channel=0, note=62, velocity=104, time=12),\n",
       "  Message('note_on', channel=0, note=62, velocity=0, time=48),\n",
       "  Message('note_on', channel=0, note=67, velocity=104, time=12),\n",
       "  Message('note_on', channel=0, note=67, velocity=0, time=48),\n",
       "  Message('note_on', channel=0, note=66, velocity=104, time=12),\n",
       "  Message('note_on', channel=0, note=66, velocity=0, time=48),\n",
       "  Message('note_on', channel=0, note=67, velocity=104, time=12),\n",
       "  Message('note_on', channel=0, note=67, velocity=0, time=48),\n",
       "  Message('note_on', channel=0, note=71, velocity=104, time=12),\n",
       "  Message('note_on', channel=0, note=71, velocity=0, time=48),\n",
       "  Message('note_on', channel=0, note=74, velocity=104, time=12),\n",
       "  Message('note_on', channel=0, note=74, velocity=0, time=48),\n",
       "  Message('note_on', channel=0, note=79, velocity=104, time=12),\n",
       "  Message('note_on', channel=0, note=79, velocity=0, time=48),\n",
       "  Message('note_on', channel=0, note=74, velocity=104, time=12),\n",
       "  Message('note_on', channel=0, note=74, velocity=0, time=48),\n",
       "  Message('note_on', channel=0, note=71, velocity=104, time=12),\n",
       "  Message('note_on', channel=0, note=71, velocity=0, time=48),\n",
       "  Message('note_on', channel=0, note=67, velocity=104, time=12),\n",
       "  Message('note_on', channel=0, note=67, velocity=0, time=48),\n",
       "  Message('note_on', channel=0, note=71, velocity=104, time=12),\n",
       "  Message('note_on', channel=0, note=71, velocity=0, time=48),\n",
       "  Message('note_on', channel=0, note=74, velocity=104, time=12),\n",
       "  Message('note_on', channel=0, note=74, velocity=0, time=48),\n",
       "  Message('note_on', channel=0, note=62, velocity=104, time=12),\n",
       "  Message('note_on', channel=0, note=71, velocity=104, time=0),\n",
       "  Message('note_on', channel=0, note=67, velocity=104, time=0),\n",
       "  Message('note_on', channel=0, note=62, velocity=0, time=336),\n",
       "  Message('note_on', channel=0, note=71, velocity=0, time=0),\n",
       "  Message('note_on', channel=0, note=67, velocity=0, time=0),\n",
       "  Message('note_on', channel=0, note=64, velocity=104, time=24),\n",
       "  Message('note_on', channel=0, note=67, velocity=104, time=0),\n",
       "  Message('note_on', channel=0, note=60, velocity=104, time=0),\n",
       "  Message('note_on', channel=0, note=72, velocity=104, time=0),\n",
       "  Message('note_on', channel=0, note=64, velocity=0, time=168),\n",
       "  Message('note_on', channel=0, note=67, velocity=0, time=0),\n",
       "  Message('note_on', channel=0, note=60, velocity=0, time=0),\n",
       "  Message('note_on', channel=0, note=72, velocity=0, time=0),\n",
       "  Message('note_on', channel=0, note=74, velocity=104, time=12),\n",
       "  Message('note_on', channel=0, note=74, velocity=0, time=336),\n",
       "  Message('note_on', channel=0, note=66, velocity=104, time=24),\n",
       "  Message('note_on', channel=0, note=71, velocity=104, time=0),\n",
       "  Message('note_on', channel=0, note=74, velocity=104, time=0),\n",
       "  Message('note_on', channel=0, note=62, velocity=104, time=0),\n",
       "  Message('note_on', channel=0, note=66, velocity=0, time=168),\n",
       "  Message('note_on', channel=0, note=71, velocity=0, time=0),\n",
       "  Message('note_on', channel=0, note=74, velocity=0, time=0),\n",
       "  Message('note_on', channel=0, note=62, velocity=0, time=0),\n",
       "  Message('note_on', channel=0, note=72, velocity=104, time=12),\n",
       "  Message('note_on', channel=0, note=72, velocity=0, time=336),\n",
       "  Message('note_on', channel=0, note=67, velocity=104, time=24),\n",
       "  Message('note_on', channel=0, note=62, velocity=104, time=0),\n",
       "  Message('note_on', channel=0, note=71, velocity=104, time=0),\n",
       "  Message('note_on', channel=0, note=67, velocity=0, time=168),\n",
       "  Message('note_on', channel=0, note=62, velocity=0, time=0),\n",
       "  Message('note_on', channel=0, note=71, velocity=0, time=0),\n",
       "  Message('note_on', channel=0, note=66, velocity=104, time=12),\n",
       "  Message('note_on', channel=0, note=69, velocity=104, time=0),\n",
       "  Message('note_on', channel=0, note=66, velocity=0, time=48),\n",
       "  Message('note_on', channel=0, note=69, velocity=0, time=0),\n",
       "  Message('note_on', channel=0, note=62, velocity=104, time=12),\n",
       "  Message('note_on', channel=0, note=62, velocity=0, time=48),\n",
       "  Message('note_on', channel=0, note=64, velocity=104, time=12),\n",
       "  Message('note_on', channel=0, note=64, velocity=0, time=48),\n",
       "  Message('note_on', channel=0, note=66, velocity=104, time=12),\n",
       "  Message('note_on', channel=0, note=69, velocity=104, time=0),\n",
       "  Message('note_on', channel=0, note=66, velocity=0, time=48),\n",
       "  Message('note_on', channel=0, note=69, velocity=0, time=0),\n",
       "  Message('note_on', channel=0, note=69, velocity=104, time=12),\n",
       "  Message('note_on', channel=0, note=69, velocity=0, time=48),\n",
       "  Message('note_on', channel=0, note=67, velocity=104, time=12),\n",
       "  Message('note_on', channel=0, note=67, velocity=0, time=48),\n",
       "  Message('note_on', channel=0, note=69, velocity=104, time=12),\n",
       "  Message('note_on', channel=0, note=69, velocity=0, time=48),\n",
       "  Message('note_on', channel=0, note=72, velocity=104, time=12),\n",
       "  Message('note_on', channel=0, note=72, velocity=0, time=48),\n",
       "  Message('note_on', channel=0, note=71, velocity=104, time=12),\n",
       "  Message('note_on', channel=0, note=71, velocity=0, time=48),\n",
       "  Message('note_on', channel=0, note=72, velocity=104, time=12),\n",
       "  Message('note_on', channel=0, note=72, velocity=0, time=48),\n",
       "  Message('note_on', channel=0, note=69, velocity=104, time=12),\n",
       "  Message('note_on', channel=0, note=69, velocity=0, time=48),\n",
       "  Message('note_on', channel=0, note=66, velocity=104, time=12),\n",
       "  Message('note_on', channel=0, note=66, velocity=0, time=48),\n",
       "  Message('note_on', channel=0, note=62, velocity=104, time=12),\n",
       "  Message('note_on', channel=0, note=62, velocity=0, time=48),\n",
       "  Message('note_on', channel=0, note=66, velocity=104, time=12),\n",
       "  Message('note_on', channel=0, note=66, velocity=0, time=48),\n",
       "  Message('note_on', channel=0, note=69, velocity=104, time=12),\n",
       "  Message('note_on', channel=0, note=69, velocity=0, time=48),\n",
       "  Message('note_on', channel=0, note=72, velocity=104, time=12),\n",
       "  Message('note_on', channel=0, note=72, velocity=0, time=48),\n",
       "  Message('note_on', channel=0, note=71, velocity=104, time=12),\n",
       "  Message('note_on', channel=0, note=71, velocity=0, time=48),\n",
       "  Message('note_on', channel=0, note=69, velocity=104, time=12),\n",
       "  Message('note_on', channel=0, note=69, velocity=0, time=48),\n",
       "  Message('note_on', channel=0, note=67, velocity=104, time=12),\n",
       "  Message('note_on', channel=0, note=71, velocity=104, time=0),\n",
       "  Message('note_on', channel=0, note=67, velocity=0, time=336),\n",
       "  Message('note_on', channel=0, note=71, velocity=0, time=0),\n",
       "  Message('note_on', channel=0, note=64, velocity=104, time=24),\n",
       "  Message('note_on', channel=0, note=72, velocity=104, time=0),\n",
       "  Message('note_on', channel=0, note=67, velocity=104, time=0),\n",
       "  Message('note_on', channel=0, note=60, velocity=104, time=0),\n",
       "  Message('note_on', channel=0, note=64, velocity=0, time=168),\n",
       "  Message('note_on', channel=0, note=72, velocity=0, time=0),\n",
       "  Message('note_on', channel=0, note=67, velocity=0, time=0),\n",
       "  Message('note_on', channel=0, note=60, velocity=0, time=0),\n",
       "  Message('note_on', channel=0, note=67, velocity=104, time=12),\n",
       "  Message('note_on', channel=0, note=62, velocity=104, time=0),\n",
       "  Message('note_on', channel=0, note=74, velocity=104, time=0),\n",
       "  Message('note_on', channel=0, note=67, velocity=0, time=336),\n",
       "  Message('note_on', channel=0, note=62, velocity=0, time=0),\n",
       "  Message('note_on', channel=0, note=74, velocity=0, time=0),\n",
       "  Message('note_on', channel=0, note=67, velocity=104, time=24),\n",
       "  Message('note_on', channel=0, note=64, velocity=104, time=0),\n",
       "  Message('note_on', channel=0, note=71, velocity=104, time=0),\n",
       "  Message('note_on', channel=0, note=67, velocity=0, time=168),\n",
       "  Message('note_on', channel=0, note=64, velocity=0, time=0),\n",
       "  Message('note_on', channel=0, note=71, velocity=0, time=0),\n",
       "  Message('note_on', channel=0, note=69, velocity=63, time=12),\n",
       "  Message('note_on', channel=0, note=69, velocity=0, time=116),\n",
       "  Message('note_on', channel=0, note=71, velocity=74, time=4),\n",
       "  Message('note_on', channel=0, note=72, velocity=68, time=30),\n",
       "  Message('note_on', channel=0, note=71, velocity=0, time=14),\n",
       "  Message('note_on', channel=0, note=71, velocity=65, time=16),\n",
       "  Message('note_on', channel=0, note=66, velocity=67, time=0),\n",
       "  Message('note_on', channel=0, note=62, velocity=55, time=0),\n",
       "  Message('note_on', channel=0, note=72, velocity=0, time=14),\n",
       "  Message('note_on', channel=0, note=66, velocity=55, time=166),\n",
       "  Message('note_on', channel=0, note=60, velocity=46, time=0),\n",
       "  Message('note_on', channel=0, note=69, velocity=45, time=0),\n",
       "  Message('note_on', channel=0, note=71, velocity=0, time=8),\n",
       "  Message('note_on', channel=0, note=66, velocity=0, time=0),\n",
       "  Message('note_on', channel=0, note=62, velocity=0, time=0),\n",
       "  Message('note_on', channel=0, note=67, velocity=104, time=172),\n",
       "  Message('note_on', channel=0, note=66, velocity=0, time=8),\n",
       "  Message('note_on', channel=0, note=60, velocity=0, time=0),\n",
       "  Message('note_on', channel=0, note=69, velocity=0, time=0),\n",
       "  Message('note_on', channel=0, note=67, velocity=0, time=40),\n",
       "  Message('note_on', channel=0, note=71, velocity=104, time=12),\n",
       "  Message('note_on', channel=0, note=71, velocity=0, time=48),\n",
       "  Message('note_on', channel=0, note=69, velocity=104, time=12),\n",
       "  Message('note_on', channel=0, note=69, velocity=0, time=48),\n",
       "  Message('note_on', channel=0, note=71, velocity=104, time=12),\n",
       "  Message('note_on', channel=0, note=71, velocity=0, time=48),\n",
       "  Message('note_on', channel=0, note=74, velocity=104, time=12),\n",
       "  Message('note_on', channel=0, note=74, velocity=0, time=48),\n",
       "  Message('note_on', channel=0, note=72, velocity=104, time=12),\n",
       "  Message('note_on', channel=0, note=72, velocity=0, time=48),\n",
       "  Message('note_on', channel=0, note=72, velocity=104, time=12),\n",
       "  Message('note_on', channel=0, note=72, velocity=0, time=48),\n",
       "  Message('note_on', channel=0, note=76, velocity=104, time=12),\n",
       "  Message('note_on', channel=0, note=76, velocity=0, time=48),\n",
       "  Message('note_on', channel=0, note=74, velocity=104, time=12),\n",
       "  Message('note_on', channel=0, note=74, velocity=0, time=48),\n",
       "  Message('note_on', channel=0, note=74, velocity=104, time=12),\n",
       "  Message('note_on', channel=0, note=74, velocity=0, time=48),\n",
       "  Message('note_on', channel=0, note=79, velocity=104, time=12),\n",
       "  Message('note_on', channel=0, note=79, velocity=0, time=48),\n",
       "  Message('note_on', channel=0, note=78, velocity=104, time=12),\n",
       "  Message('note_on', channel=0, note=78, velocity=0, time=48),\n",
       "  Message('note_on', channel=0, note=79, velocity=104, time=12),\n",
       "  Message('note_on', channel=0, note=79, velocity=0, time=48),\n",
       "  Message('note_on', channel=0, note=74, velocity=104, time=12),\n",
       "  Message('note_on', channel=0, note=74, velocity=0, time=48),\n",
       "  Message('note_on', channel=0, note=71, velocity=104, time=12),\n",
       "  Message('note_on', channel=0, note=71, velocity=0, time=48),\n",
       "  Message('note_on', channel=0, note=67, velocity=104, time=12),\n",
       "  Message('note_on', channel=0, note=67, velocity=0, time=48),\n",
       "  Message('note_on', channel=0, note=69, velocity=104, time=12),\n",
       "  Message('note_on', channel=0, note=69, velocity=0, time=48),\n",
       "  Message('note_on', channel=0, note=71, velocity=104, time=12),\n",
       "  Message('note_on', channel=0, note=71, velocity=0, time=48),\n",
       "  Message('note_on', channel=0, note=72, velocity=104, time=12),\n",
       "  Message('note_on', channel=0, note=72, velocity=0, time=48),\n",
       "  Message('note_on', channel=0, note=74, velocity=104, time=12),\n",
       "  Message('note_on', channel=0, note=74, velocity=0, time=48),\n",
       "  Message('note_on', channel=0, note=76, velocity=104, time=12),\n",
       "  Message('note_on', channel=0, note=76, velocity=0, time=48),\n",
       "  Message('note_on', channel=0, note=74, velocity=104, time=12),\n",
       "  Message('note_on', channel=0, note=74, velocity=0, time=48),\n",
       "  Message('note_on', channel=0, note=72, velocity=104, time=12),\n",
       "  Message('note_on', channel=0, note=72, velocity=0, time=48),\n",
       "  Message('note_on', channel=0, note=71, velocity=104, time=12),\n",
       "  Message('note_on', channel=0, note=71, velocity=0, time=48),\n",
       "  Message('note_on', channel=0, note=69, velocity=104, time=12),\n",
       "  Message('note_on', channel=0, note=69, velocity=0, time=48),\n",
       "  Message('note_on', channel=0, note=71, velocity=104, time=12),\n",
       "  Message('note_on', channel=0, note=71, velocity=0, time=48),\n",
       "  Message('note_on', channel=0, note=67, velocity=104, time=12),\n",
       "  Message('note_on', channel=0, note=67, velocity=0, time=48),\n",
       "  Message('note_on', channel=0, note=66, velocity=104, time=12),\n",
       "  Message('note_on', channel=0, note=66, velocity=0, time=48),\n",
       "  Message('note_on', channel=0, note=67, velocity=104, time=12),\n",
       "  Message('note_on', channel=0, note=67, velocity=0, time=48),\n",
       "  Message('note_on', channel=0, note=69, velocity=104, time=12),\n",
       "  Message('note_on', channel=0, note=69, velocity=0, time=48),\n",
       "  Message('note_on', channel=0, note=62, velocity=104, time=12),\n",
       "  Message('note_on', channel=0, note=62, velocity=0, time=48),\n",
       "  Message('note_on', channel=0, note=66, velocity=104, time=12),\n",
       "  Message('note_on', channel=0, note=66, velocity=0, time=48),\n",
       "  Message('note_on', channel=0, note=69, velocity=104, time=12),\n",
       "  Message('note_on', channel=0, note=69, velocity=0, time=48),\n",
       "  Message('note_on', channel=0, note=72, velocity=104, time=12),\n",
       "  Message('note_on', channel=0, note=72, velocity=0, time=48),\n",
       "  Message('note_on', channel=0, note=71, velocity=104, time=12),\n",
       "  Message('note_on', channel=0, note=71, velocity=0, time=48),\n",
       "  Message('note_on', channel=0, note=69, velocity=104, time=12),\n",
       "  Message('note_on', channel=0, note=69, velocity=0, time=48),\n",
       "  Message('note_on', channel=0, note=71, velocity=104, time=12),\n",
       "  Message('note_on', channel=0, note=71, velocity=0, time=48),\n",
       "  Message('note_on', channel=0, note=67, velocity=104, time=12),\n",
       "  Message('note_on', channel=0, note=67, velocity=0, time=48),\n",
       "  Message('note_on', channel=0, note=69, velocity=104, time=12),\n",
       "  Message('note_on', channel=0, note=69, velocity=0, time=48),\n",
       "  Message('note_on', channel=0, note=71, velocity=104, time=12),\n",
       "  Message('note_on', channel=0, note=71, velocity=0, time=48),\n",
       "  Message('note_on', channel=0, note=74, velocity=104, time=12),\n",
       "  Message('note_on', channel=0, note=74, velocity=0, time=48),\n",
       "  Message('note_on', channel=0, note=72, velocity=104, time=12),\n",
       "  Message('note_on', channel=0, note=72, velocity=0, time=48),\n",
       "  Message('note_on', channel=0, note=72, velocity=104, time=12),\n",
       "  Message('note_on', channel=0, note=72, velocity=0, time=48),\n",
       "  Message('note_on', channel=0, note=76, velocity=104, time=12),\n",
       "  Message('note_on', channel=0, note=76, velocity=0, time=48),\n",
       "  Message('note_on', channel=0, note=74, velocity=104, time=12),\n",
       "  Message('note_on', channel=0, note=74, velocity=0, time=48),\n",
       "  Message('note_on', channel=0, note=74, velocity=104, time=12),\n",
       "  Message('note_on', channel=0, note=74, velocity=0, time=48),\n",
       "  Message('note_on', channel=0, note=79, velocity=104, time=12),\n",
       "  Message('note_on', channel=0, note=79, velocity=0, time=48),\n",
       "  Message('note_on', channel=0, note=78, velocity=104, time=12),\n",
       "  Message('note_on', channel=0, note=78, velocity=0, time=48),\n",
       "  Message('note_on', channel=0, note=79, velocity=104, time=12),\n",
       "  Message('note_on', channel=0, note=79, velocity=0, time=48),\n",
       "  Message('note_on', channel=0, note=74, velocity=104, time=12),\n",
       "  Message('note_on', channel=0, note=74, velocity=0, time=48),\n",
       "  Message('note_on', channel=0, note=71, velocity=104, time=12),\n",
       "  Message('note_on', channel=0, note=71, velocity=0, time=48),\n",
       "  Message('note_on', channel=0, note=67, velocity=104, time=12),\n",
       "  Message('note_on', channel=0, note=67, velocity=0, time=48),\n",
       "  Message('note_on', channel=0, note=69, velocity=104, time=12),\n",
       "  Message('note_on', channel=0, note=69, velocity=0, time=48),\n",
       "  Message('note_on', channel=0, note=71, velocity=104, time=12),\n",
       "  Message('note_on', channel=0, note=71, velocity=0, time=48),\n",
       "  Message('note_on', channel=0, note=64, velocity=104, time=12),\n",
       "  Message('note_on', channel=0, note=64, velocity=0, time=48),\n",
       "  Message('note_on', channel=0, note=74, velocity=104, time=12),\n",
       "  Message('note_on', channel=0, note=74, velocity=0, time=48),\n",
       "  Message('note_on', channel=0, note=72, velocity=104, time=12),\n",
       "  Message('note_on', channel=0, note=72, velocity=0, time=48),\n",
       "  Message('note_on', channel=0, note=71, velocity=104, time=12),\n",
       "  Message('note_on', channel=0, note=71, velocity=0, time=48),\n",
       "  Message('note_on', channel=0, note=69, velocity=104, time=12),\n",
       "  Message('note_on', channel=0, note=69, velocity=0, time=48),\n",
       "  Message('note_on', channel=0, note=67, velocity=104, time=12),\n",
       "  Message('note_on', channel=0, note=67, velocity=0, time=48),\n",
       "  Message('note_on', channel=0, note=62, velocity=104, time=12),\n",
       "  Message('note_on', channel=0, note=62, velocity=0, time=48),\n",
       "  Message('note_on', channel=0, note=67, velocity=104, time=12),\n",
       "  Message('note_on', channel=0, note=67, velocity=0, time=48),\n",
       "  Message('note_on', channel=0, note=66, velocity=104, time=12),\n",
       "  Message('note_on', channel=0, note=66, velocity=0, time=48),\n",
       "  Message('note_on', channel=0, note=67, velocity=104, time=12),\n",
       "  Message('note_on', channel=0, note=71, velocity=104, time=0),\n",
       "  Message('note_on', channel=0, note=67, velocity=0, time=336),\n",
       "  Message('note_on', channel=0, note=71, velocity=0, time=0),\n",
       "  Message('note_on', channel=0, note=64, velocity=104, time=24),\n",
       "  Message('note_on', channel=0, note=60, velocity=104, time=0),\n",
       "  Message('note_on', channel=0, note=67, velocity=104, time=0),\n",
       "  Message('note_on', channel=0, note=72, velocity=104, time=0),\n",
       "  Message('note_on', channel=0, note=64, velocity=0, time=168),\n",
       "  Message('note_on', channel=0, note=60, velocity=0, time=0),\n",
       "  Message('note_on', channel=0, note=67, velocity=0, time=0),\n",
       "  Message('note_on', channel=0, note=72, velocity=0, time=0),\n",
       "  Message('note_on', channel=0, note=74, velocity=104, time=12),\n",
       "  Message('note_on', channel=0, note=74, velocity=0, time=336),\n",
       "  Message('note_on', channel=0, note=66, velocity=104, time=24),\n",
       "  Message('note_on', channel=0, note=71, velocity=104, time=0),\n",
       "  Message('note_on', channel=0, note=74, velocity=104, time=0),\n",
       "  Message('note_on', channel=0, note=62, velocity=104, time=0),\n",
       "  Message('note_on', channel=0, note=66, velocity=0, time=168),\n",
       "  Message('note_on', channel=0, note=71, velocity=0, time=0),\n",
       "  Message('note_on', channel=0, note=74, velocity=0, time=0),\n",
       "  Message('note_on', channel=0, note=62, velocity=0, time=0),\n",
       "  Message('note_on', channel=0, note=72, velocity=104, time=12),\n",
       "  Message('note_on', channel=0, note=72, velocity=0, time=336),\n",
       "  Message('note_on', channel=0, note=67, velocity=104, time=24),\n",
       "  Message('note_on', channel=0, note=62, velocity=104, time=0),\n",
       "  Message('note_on', channel=0, note=71, velocity=104, time=0),\n",
       "  Message('note_on', channel=0, note=67, velocity=0, time=168),\n",
       "  Message('note_on', channel=0, note=62, velocity=0, time=0),\n",
       "  Message('note_on', channel=0, note=71, velocity=0, time=0),\n",
       "  Message('note_on', channel=0, note=66, velocity=104, time=12),\n",
       "  Message('note_on', channel=0, note=69, velocity=104, time=0),\n",
       "  Message('note_on', channel=0, note=66, velocity=0, time=48),\n",
       "  Message('note_on', channel=0, note=69, velocity=0, time=0),\n",
       "  Message('note_on', channel=0, note=62, velocity=104, time=12),\n",
       "  Message('note_on', channel=0, note=62, velocity=0, time=48),\n",
       "  Message('note_on', channel=0, note=64, velocity=104, time=12),\n",
       "  Message('note_on', channel=0, note=64, velocity=0, time=48),\n",
       "  Message('note_on', channel=0, note=66, velocity=104, time=12),\n",
       "  Message('note_on', channel=0, note=69, velocity=104, time=0),\n",
       "  Message('note_on', channel=0, note=66, velocity=0, time=48),\n",
       "  Message('note_on', channel=0, note=69, velocity=0, time=0),\n",
       "  Message('note_on', channel=0, note=69, velocity=104, time=12),\n",
       "  Message('note_on', channel=0, note=69, velocity=0, time=48),\n",
       "  Message('note_on', channel=0, note=67, velocity=104, time=12),\n",
       "  Message('note_on', channel=0, note=67, velocity=0, time=48),\n",
       "  Message('note_on', channel=0, note=69, velocity=104, time=12),\n",
       "  Message('note_on', channel=0, note=69, velocity=0, time=48),\n",
       "  Message('note_on', channel=0, note=72, velocity=104, time=12),\n",
       "  Message('note_on', channel=0, note=72, velocity=0, time=48),\n",
       "  Message('note_on', channel=0, note=71, velocity=104, time=12),\n",
       "  Message('note_on', channel=0, note=71, velocity=0, time=48),\n",
       "  Message('note_on', channel=0, note=72, velocity=104, time=12),\n",
       "  Message('note_on', channel=0, note=72, velocity=0, time=48),\n",
       "  Message('note_on', channel=0, note=69, velocity=104, time=12),\n",
       "  Message('note_on', channel=0, note=69, velocity=0, time=48),\n",
       "  Message('note_on', channel=0, note=66, velocity=104, time=12),\n",
       "  Message('note_on', channel=0, note=66, velocity=0, time=48),\n",
       "  Message('note_on', channel=0, note=62, velocity=104, time=12),\n",
       "  Message('note_on', channel=0, note=62, velocity=0, time=48),\n",
       "  Message('note_on', channel=0, note=66, velocity=104, time=12),\n",
       "  Message('note_on', channel=0, note=66, velocity=0, time=48),\n",
       "  Message('note_on', channel=0, note=69, velocity=104, time=12),\n",
       "  Message('note_on', channel=0, note=69, velocity=0, time=48),\n",
       "  Message('note_on', channel=0, note=72, velocity=104, time=12),\n",
       "  Message('note_on', channel=0, note=72, velocity=0, time=48),\n",
       "  Message('note_on', channel=0, note=71, velocity=104, time=12),\n",
       "  Message('note_on', channel=0, note=71, velocity=0, time=48),\n",
       "  Message('note_on', channel=0, note=69, velocity=104, time=12),\n",
       "  Message('note_on', channel=0, note=69, velocity=0, time=48),\n",
       "  Message('note_on', channel=0, note=71, velocity=104, time=12),\n",
       "  Message('note_on', channel=0, note=67, velocity=104, time=0),\n",
       "  Message('note_on', channel=0, note=71, velocity=0, time=336),\n",
       "  Message('note_on', channel=0, note=67, velocity=0, time=0),\n",
       "  Message('note_on', channel=0, note=64, velocity=104, time=24),\n",
       "  Message('note_on', channel=0, note=60, velocity=104, time=0),\n",
       "  Message('note_on', channel=0, note=67, velocity=104, time=0),\n",
       "  Message('note_on', channel=0, note=72, velocity=104, time=0),\n",
       "  Message('note_on', channel=0, note=64, velocity=0, time=168),\n",
       "  Message('note_on', channel=0, note=60, velocity=0, time=0),\n",
       "  Message('note_on', channel=0, note=67, velocity=0, time=0),\n",
       "  Message('note_on', channel=0, note=72, velocity=0, time=0),\n",
       "  Message('note_on', channel=0, note=67, velocity=104, time=12),\n",
       "  Message('note_on', channel=0, note=74, velocity=104, time=0),\n",
       "  Message('note_on', channel=0, note=62, velocity=104, time=0),\n",
       "  Message('note_on', channel=0, note=67, velocity=0, time=336),\n",
       "  Message('note_on', channel=0, note=74, velocity=0, time=0),\n",
       "  Message('note_on', channel=0, note=62, velocity=0, time=0),\n",
       "  Message('note_on', channel=0, note=67, velocity=104, time=24),\n",
       "  Message('note_on', channel=0, note=64, velocity=104, time=0),\n",
       "  Message('note_on', channel=0, note=71, velocity=104, time=0),\n",
       "  Message('note_on', channel=0, note=67, velocity=0, time=168),\n",
       "  Message('note_on', channel=0, note=64, velocity=0, time=0),\n",
       "  Message('note_on', channel=0, note=71, velocity=0, time=0),\n",
       "  Message('note_on', channel=0, note=69, velocity=104, time=12),\n",
       "  Message('note_on', channel=0, note=69, velocity=0, time=116),\n",
       "  Message('note_on', channel=0, note=71, velocity=104, time=4),\n",
       "  Message('note_on', channel=0, note=72, velocity=104, time=30),\n",
       "  Message('note_on', channel=0, note=71, velocity=0, time=14),\n",
       "  Message('note_on', channel=0, note=66, velocity=104, time=16),\n",
       "  Message('note_on', channel=0, note=71, velocity=104, time=0),\n",
       "  Message('note_on', channel=0, note=62, velocity=104, time=0),\n",
       "  Message('note_on', channel=0, note=72, velocity=0, time=14),\n",
       "  Message('note_on', channel=0, note=66, velocity=0, time=154),\n",
       "  Message('note_on', channel=0, note=71, velocity=0, time=0),\n",
       "  Message('note_on', channel=0, note=62, velocity=0, time=0),\n",
       "  Message('note_on', channel=0, note=66, velocity=104, time=12),\n",
       "  Message('note_on', channel=0, note=60, velocity=104, time=0),\n",
       "  Message('note_on', channel=0, note=69, velocity=104, time=0),\n",
       "  Message('note_on', channel=0, note=66, velocity=0, time=168),\n",
       "  Message('note_on', channel=0, note=60, velocity=0, time=0),\n",
       "  Message('note_on', channel=0, note=69, velocity=0, time=0),\n",
       "  Message('note_on', channel=0, note=67, velocity=104, time=12),\n",
       "  Message('note_on', channel=0, note=67, velocity=0, time=48),\n",
       "  Message('note_on', channel=0, note=71, velocity=104, time=12),\n",
       "  Message('note_on', channel=0, note=71, velocity=0, time=48),\n",
       "  Message('note_on', channel=0, note=69, velocity=104, time=12),\n",
       "  Message('note_on', channel=0, note=69, velocity=0, time=48),\n",
       "  Message('note_on', channel=0, note=71, velocity=104, time=12),\n",
       "  Message('note_on', channel=0, note=71, velocity=0, time=48),\n",
       "  Message('note_on', channel=0, note=74, velocity=104, time=12),\n",
       "  Message('note_on', channel=0, note=74, velocity=0, time=48),\n",
       "  Message('note_on', channel=0, note=72, velocity=104, time=12),\n",
       "  Message('note_on', channel=0, note=72, velocity=0, time=48),\n",
       "  Message('note_on', channel=0, note=72, velocity=104, time=12),\n",
       "  Message('note_on', channel=0, note=72, velocity=0, time=48),\n",
       "  Message('note_on', channel=0, note=76, velocity=104, time=12),\n",
       "  Message('note_on', channel=0, note=76, velocity=0, time=48),\n",
       "  Message('note_on', channel=0, note=74, velocity=104, time=12),\n",
       "  Message('note_on', channel=0, note=74, velocity=0, time=48),\n",
       "  Message('note_on', channel=0, note=74, velocity=104, time=12),\n",
       "  Message('note_on', channel=0, note=74, velocity=0, time=48),\n",
       "  Message('note_on', channel=0, note=79, velocity=104, time=12),\n",
       "  Message('note_on', channel=0, note=79, velocity=0, time=48),\n",
       "  Message('note_on', channel=0, note=78, velocity=104, time=12),\n",
       "  Message('note_on', channel=0, note=78, velocity=0, time=48),\n",
       "  Message('note_on', channel=0, note=79, velocity=104, time=12),\n",
       "  Message('note_on', channel=0, note=79, velocity=0, time=48),\n",
       "  Message('note_on', channel=0, note=74, velocity=104, time=12),\n",
       "  Message('note_on', channel=0, note=74, velocity=0, time=48),\n",
       "  Message('note_on', channel=0, note=71, velocity=104, time=12),\n",
       "  Message('note_on', channel=0, note=71, velocity=0, time=48),\n",
       "  Message('note_on', channel=0, note=67, velocity=104, time=12),\n",
       "  Message('note_on', channel=0, note=67, velocity=0, time=48),\n",
       "  Message('note_on', channel=0, note=69, velocity=104, time=12),\n",
       "  Message('note_on', channel=0, note=69, velocity=0, time=48),\n",
       "  Message('note_on', channel=0, note=71, velocity=104, time=12),\n",
       "  Message('note_on', channel=0, note=71, velocity=0, time=48),\n",
       "  Message('note_on', channel=0, note=72, velocity=104, time=12),\n",
       "  Message('note_on', channel=0, note=72, velocity=0, time=48),\n",
       "  Message('note_on', channel=0, note=74, velocity=104, time=12),\n",
       "  Message('note_on', channel=0, note=74, velocity=0, time=48),\n",
       "  Message('note_on', channel=0, note=76, velocity=104, time=12),\n",
       "  Message('note_on', channel=0, note=76, velocity=0, time=48),\n",
       "  Message('note_on', channel=0, note=74, velocity=104, time=12),\n",
       "  Message('note_on', channel=0, note=74, velocity=0, time=48),\n",
       "  Message('note_on', channel=0, note=72, velocity=104, time=12),\n",
       "  Message('note_on', channel=0, note=72, velocity=0, time=48),\n",
       "  Message('note_on', channel=0, note=71, velocity=104, time=12),\n",
       "  Message('note_on', channel=0, note=71, velocity=0, time=48),\n",
       "  Message('note_on', channel=0, note=69, velocity=104, time=12),\n",
       "  Message('note_on', channel=0, note=69, velocity=0, time=48),\n",
       "  Message('note_on', channel=0, note=71, velocity=104, time=12),\n",
       "  Message('note_on', channel=0, note=71, velocity=0, time=48),\n",
       "  Message('note_on', channel=0, note=67, velocity=104, time=12),\n",
       "  Message('note_on', channel=0, note=67, velocity=0, time=48),\n",
       "  Message('note_on', channel=0, note=66, velocity=104, time=12),\n",
       "  Message('note_on', channel=0, note=66, velocity=0, time=48),\n",
       "  Message('note_on', channel=0, note=67, velocity=104, time=12),\n",
       "  Message('note_on', channel=0, note=67, velocity=0, time=48),\n",
       "  Message('note_on', channel=0, note=69, velocity=104, time=12),\n",
       "  Message('note_on', channel=0, note=69, velocity=0, time=48),\n",
       "  Message('note_on', channel=0, note=62, velocity=104, time=12),\n",
       "  Message('note_on', channel=0, note=62, velocity=0, time=48),\n",
       "  Message('note_on', channel=0, note=66, velocity=104, time=12),\n",
       "  Message('note_on', channel=0, note=66, velocity=0, time=48),\n",
       "  Message('note_on', channel=0, note=69, velocity=104, time=12),\n",
       "  Message('note_on', channel=0, note=69, velocity=0, time=48),\n",
       "  Message('note_on', channel=0, note=72, velocity=104, time=12),\n",
       "  Message('note_on', channel=0, note=72, velocity=0, time=48),\n",
       "  Message('note_on', channel=0, note=71, velocity=104, time=12),\n",
       "  Message('note_on', channel=0, note=71, velocity=0, time=48),\n",
       "  Message('note_on', channel=0, note=69, velocity=104, time=12),\n",
       "  Message('note_on', channel=0, note=69, velocity=0, time=48),\n",
       "  Message('note_on', channel=0, note=71, velocity=104, time=12),\n",
       "  Message('note_on', channel=0, note=71, velocity=0, time=48),\n",
       "  Message('note_on', channel=0, note=67, velocity=104, time=12),\n",
       "  Message('note_on', channel=0, note=67, velocity=0, time=48),\n",
       "  Message('note_on', channel=0, note=69, velocity=104, time=12),\n",
       "  Message('note_on', channel=0, note=69, velocity=0, time=48),\n",
       "  Message('note_on', channel=0, note=71, velocity=104, time=12),\n",
       "  Message('note_on', channel=0, note=71, velocity=0, time=48),\n",
       "  Message('note_on', channel=0, note=74, velocity=104, time=12),\n",
       "  Message('note_on', channel=0, note=74, velocity=0, time=48),\n",
       "  Message('note_on', channel=0, note=72, velocity=104, time=12),\n",
       "  Message('note_on', channel=0, note=72, velocity=0, time=48),\n",
       "  Message('note_on', channel=0, note=72, velocity=104, time=12),\n",
       "  Message('note_on', channel=0, note=72, velocity=0, time=48),\n",
       "  Message('note_on', channel=0, note=76, velocity=104, time=12),\n",
       "  Message('note_on', channel=0, note=76, velocity=0, time=48),\n",
       "  Message('note_on', channel=0, note=74, velocity=104, time=12),\n",
       "  Message('note_on', channel=0, note=74, velocity=0, time=48),\n",
       "  Message('note_on', channel=0, note=74, velocity=104, time=12),\n",
       "  Message('note_on', channel=0, note=74, velocity=0, time=48),\n",
       "  Message('note_on', channel=0, note=79, velocity=104, time=12),\n",
       "  Message('note_on', channel=0, note=79, velocity=0, time=48),\n",
       "  Message('note_on', channel=0, note=78, velocity=104, time=12),\n",
       "  Message('note_on', channel=0, note=78, velocity=0, time=48),\n",
       "  Message('note_on', channel=0, note=79, velocity=104, time=12),\n",
       "  Message('note_on', channel=0, note=79, velocity=0, time=48),\n",
       "  Message('note_on', channel=0, note=74, velocity=104, time=12),\n",
       "  Message('note_on', channel=0, note=74, velocity=0, time=48),\n",
       "  Message('note_on', channel=0, note=71, velocity=104, time=12),\n",
       "  Message('note_on', channel=0, note=71, velocity=0, time=48),\n",
       "  Message('note_on', channel=0, note=67, velocity=104, time=12),\n",
       "  Message('note_on', channel=0, note=67, velocity=0, time=48),\n",
       "  Message('note_on', channel=0, note=69, velocity=104, time=12),\n",
       "  Message('note_on', channel=0, note=69, velocity=0, time=48),\n",
       "  Message('note_on', channel=0, note=71, velocity=104, time=12),\n",
       "  Message('note_on', channel=0, note=71, velocity=0, time=48),\n",
       "  Message('note_on', channel=0, note=64, velocity=104, time=12),\n",
       "  Message('note_on', channel=0, note=64, velocity=0, time=48),\n",
       "  Message('note_on', channel=0, note=74, velocity=104, time=12),\n",
       "  Message('note_on', channel=0, note=74, velocity=0, time=48),\n",
       "  Message('note_on', channel=0, note=72, velocity=104, time=12),\n",
       "  Message('note_on', channel=0, note=72, velocity=0, time=48),\n",
       "  Message('note_on', channel=0, note=71, velocity=104, time=12),\n",
       "  Message('note_on', channel=0, note=71, velocity=0, time=48),\n",
       "  Message('note_on', channel=0, note=69, velocity=104, time=12),\n",
       "  Message('note_on', channel=0, note=69, velocity=0, time=48),\n",
       "  Message('note_on', channel=0, note=67, velocity=104, time=12),\n",
       "  Message('note_on', channel=0, note=67, velocity=0, time=48),\n",
       "  Message('note_on', channel=0, note=62, velocity=104, time=12),\n",
       "  Message('note_on', channel=0, note=62, velocity=0, time=48),\n",
       "  Message('note_on', channel=0, note=67, velocity=104, time=12),\n",
       "  Message('note_on', channel=0, note=67, velocity=0, time=48),\n",
       "  Message('note_on', channel=0, note=66, velocity=104, time=12),\n",
       "  Message('note_on', channel=0, note=66, velocity=0, time=48),\n",
       "  Message('note_on', channel=0, note=67, velocity=104, time=12),\n",
       "  Message('note_on', channel=0, note=67, velocity=0, time=48),\n",
       "  Message('note_on', channel=0, note=71, velocity=104, time=12),\n",
       "  Message('note_on', channel=0, note=71, velocity=0, time=48),\n",
       "  Message('note_on', channel=0, note=74, velocity=104, time=12),\n",
       "  Message('note_on', channel=0, note=74, velocity=0, time=48),\n",
       "  Message('note_on', channel=0, note=79, velocity=104, time=12),\n",
       "  Message('note_on', channel=0, note=79, velocity=0, time=48),\n",
       "  Message('note_on', channel=0, note=74, velocity=104, time=12),\n",
       "  Message('note_on', channel=0, note=74, velocity=0, time=48),\n",
       "  Message('note_on', channel=0, note=71, velocity=104, time=12),\n",
       "  Message('note_on', channel=0, note=71, velocity=0, time=48),\n",
       "  Message('note_on', channel=0, note=67, velocity=104, time=12),\n",
       "  Message('note_on', channel=0, note=67, velocity=0, time=168),\n",
       "  Message('note_on', channel=0, note=66, velocity=94, time=13),\n",
       "  Message('note_on', channel=0, note=69, velocity=94, time=0),\n",
       "  Message('note_on', channel=0, note=66, velocity=0, time=336),\n",
       "  Message('note_on', channel=0, note=69, velocity=0, time=0),\n",
       "  Message('note_on', channel=0, note=68, velocity=94, time=24),\n",
       "  Message('note_on', channel=0, note=71, velocity=94, time=0),\n",
       "  Message('note_on', channel=0, note=62, velocity=94, time=0),\n",
       "  Message('note_on', channel=0, note=68, velocity=0, time=168),\n",
       "  Message('note_on', channel=0, note=71, velocity=0, time=0),\n",
       "  Message('note_on', channel=0, note=62, velocity=0, time=0),\n",
       "  Message('note_on', channel=0, note=72, velocity=94, time=12),\n",
       "  Message('note_on', channel=0, note=64, velocity=94, time=0),\n",
       "  Message('note_on', channel=0, note=69, velocity=94, time=0),\n",
       "  Message('note_on', channel=0, note=72, velocity=0, time=336),\n",
       "  Message('note_on', channel=0, note=64, velocity=0, time=0),\n",
       "  Message('note_on', channel=0, note=69, velocity=0, time=0),\n",
       "  Message('note_on', channel=0, note=69, velocity=94, time=24),\n",
       "  Message('note_on', channel=0, note=64, velocity=94, time=0),\n",
       "  Message('note_on', channel=0, note=72, velocity=94, time=0),\n",
       "  Message('note_on', channel=0, note=69, velocity=0, time=168),\n",
       "  Message('note_on', channel=0, note=64, velocity=0, time=0),\n",
       "  Message('note_on', channel=0, note=72, velocity=0, time=0),\n",
       "  Message('note_on', channel=0, note=71, velocity=94, time=12),\n",
       "  Message('note_on', channel=0, note=71, velocity=0, time=276),\n",
       "  Message('note_on', channel=0, note=72, velocity=94, time=24),\n",
       "  Message('note_on', channel=0, note=72, velocity=0, time=24),\n",
       "  Message('note_on', channel=0, note=74, velocity=94, time=6),\n",
       "  Message('note_on', channel=0, note=74, velocity=0, time=24),\n",
       "  Message('note_on', channel=0, note=71, velocity=94, time=6),\n",
       "  Message('note_on', channel=0, note=68, velocity=94, time=0),\n",
       "  Message('note_on', channel=0, note=71, velocity=0, time=168),\n",
       "  Message('note_on', channel=0, note=68, velocity=0, time=0),\n",
       "  Message('note_on', channel=0, note=69, velocity=94, time=12),\n",
       "  Message('note_on', channel=0, note=69, velocity=0, time=168),\n",
       "  Message('note_on', channel=0, note=69, velocity=94, time=12),\n",
       "  Message('note_on', channel=0, note=69, velocity=0, time=48),\n",
       "  Message('note_on', channel=0, note=76, velocity=94, time=12),\n",
       "  Message('note_on', channel=0, note=76, velocity=0, time=48),\n",
       "  Message('note_on', channel=0, note=74, velocity=94, time=12),\n",
       "  Message('note_on', channel=0, note=74, velocity=0, time=48),\n",
       "  Message('note_on', channel=0, note=74, velocity=94, time=12),\n",
       "  Message('note_on', channel=0, note=74, velocity=0, time=48),\n",
       "  Message('note_on', channel=0, note=77, velocity=94, time=12),\n",
       "  Message('note_on', channel=0, note=77, velocity=0, time=48),\n",
       "  Message('note_on', channel=0, note=76, velocity=94, time=12),\n",
       "  Message('note_on', channel=0, note=76, velocity=0, time=48),\n",
       "  Message('note_on', channel=0, note=76, velocity=94, time=12),\n",
       "  Message('note_on', channel=0, note=76, velocity=0, time=48),\n",
       "  Message('note_on', channel=0, note=81, velocity=94, time=12),\n",
       "  Message('note_on', channel=0, note=81, velocity=0, time=48),\n",
       "  Message('note_on', channel=0, note=80, velocity=94, time=12),\n",
       "  Message('note_on', channel=0, note=80, velocity=0, time=48),\n",
       "  Message('note_on', channel=0, note=81, velocity=94, time=12),\n",
       "  Message('note_on', channel=0, note=81, velocity=0, time=48),\n",
       "  Message('note_on', channel=0, note=76, velocity=94, time=12),\n",
       "  Message('note_on', channel=0, note=76, velocity=0, time=48),\n",
       "  Message('note_on', channel=0, note=72, velocity=94, time=12),\n",
       "  Message('note_on', channel=0, note=72, velocity=0, time=48),\n",
       "  Message('note_on', channel=0, note=69, velocity=94, time=12),\n",
       "  Message('note_on', channel=0, note=69, velocity=0, time=48),\n",
       "  Message('note_on', channel=0, note=71, velocity=94, time=12),\n",
       "  Message('note_on', channel=0, note=71, velocity=0, time=48),\n",
       "  Message('note_on', channel=0, note=72, velocity=94, time=12),\n",
       "  Message('note_on', channel=0, note=72, velocity=0, time=48),\n",
       "  Message('note_on', channel=0, note=77, velocity=94, time=12),\n",
       "  Message('note_on', channel=0, note=77, velocity=0, time=48),\n",
       "  Message('note_on', channel=0, note=76, velocity=94, time=12),\n",
       "  Message('note_on', channel=0, note=76, velocity=0, time=48),\n",
       "  Message('note_on', channel=0, note=74, velocity=94, time=12),\n",
       "  Message('note_on', channel=0, note=74, velocity=0, time=48),\n",
       "  Message('note_on', channel=0, note=72, velocity=94, time=12),\n",
       "  Message('note_on', channel=0, note=72, velocity=0, time=48),\n",
       "  Message('note_on', channel=0, note=71, velocity=94, time=12),\n",
       "  Message('note_on', channel=0, note=71, velocity=0, time=48),\n",
       "  Message('note_on', channel=0, note=69, velocity=94, time=12),\n",
       "  Message('note_on', channel=0, note=69, velocity=0, time=48),\n",
       "  Message('note_on', channel=0, note=64, velocity=94, time=12),\n",
       "  Message('note_on', channel=0, note=64, velocity=0, time=48),\n",
       "  Message('note_on', channel=0, note=69, velocity=94, time=12),\n",
       "  Message('note_on', channel=0, note=69, velocity=0, time=48),\n",
       "  Message('note_on', channel=0, note=68, velocity=94, time=12),\n",
       "  Message('note_on', channel=0, note=62, velocity=94, time=0),\n",
       "  Message('note_on', channel=0, note=68, velocity=0, time=48),\n",
       "  Message('note_on', channel=0, note=62, velocity=0, time=0),\n",
       "  Message('note_on', channel=0, note=64, velocity=94, time=12),\n",
       "  Message('note_on', channel=0, note=69, velocity=94, time=0),\n",
       "  Message('note_on', channel=0, note=72, velocity=94, time=0),\n",
       "  Message('note_on', channel=0, note=64, velocity=0, time=336),\n",
       "  Message('note_on', channel=0, note=69, velocity=0, time=0),\n",
       "  Message('note_on', channel=0, note=72, velocity=0, time=0),\n",
       "  Message('note_on', channel=0, note=74, velocity=94, time=24),\n",
       "  Message('note_on', channel=0, note=62, velocity=94, time=0),\n",
       "  Message('note_on', channel=0, note=67, velocity=94, time=0),\n",
       "  Message('note_on', channel=0, note=74, velocity=0, time=168),\n",
       "  Message('note_on', channel=0, note=62, velocity=0, time=0),\n",
       "  Message('note_on', channel=0, note=67, velocity=0, time=0),\n",
       "  Message('note_on', channel=0, note=72, velocity=94, time=12),\n",
       "  Message('note_on', channel=0, note=76, velocity=94, time=0),\n",
       "  Message('note_on', channel=0, note=72, velocity=0, time=336),\n",
       "  Message('note_on', channel=0, note=76, velocity=0, time=0),\n",
       "  Message('note_on', channel=0, note=72, velocity=94, time=24),\n",
       "  Message('note_on', channel=0, note=76, velocity=94, time=0),\n",
       "  Message('note_on', channel=0, note=67, velocity=94, time=0),\n",
       "  Message('note_on', channel=0, note=72, velocity=0, time=168),\n",
       "  Message('note_on', channel=0, note=76, velocity=0, time=0),\n",
       "  Message('note_on', channel=0, note=67, velocity=0, time=0),\n",
       "  Message('note_on', channel=0, note=74, velocity=94, time=12),\n",
       "  Message('note_on', channel=0, note=74, velocity=0, time=276),\n",
       "  Message('note_on', channel=0, note=76, velocity=94, time=24),\n",
       "  Message('note_on', channel=0, note=76, velocity=0, time=24),\n",
       "  Message('note_on', channel=0, note=77, velocity=94, time=6),\n",
       "  Message('note_on', channel=0, note=77, velocity=0, time=24),\n",
       "  Message('note_on', channel=0, note=74, velocity=94, time=6),\n",
       "  Message('note_on', channel=0, note=74, velocity=0, time=168),\n",
       "  Message('note_on', channel=0, note=64, velocity=94, time=12),\n",
       "  Message('note_on', channel=0, note=72, velocity=94, time=0),\n",
       "  Message('note_on', channel=0, note=64, velocity=0, time=168),\n",
       "  Message('note_on', channel=0, note=72, velocity=0, time=0),\n",
       "  Message('note_on', channel=0, note=72, velocity=94, time=12),\n",
       "  Message('note_on', channel=0, note=72, velocity=0, time=48),\n",
       "  Message('note_on', channel=0, note=76, velocity=94, time=12),\n",
       "  Message('note_on', channel=0, note=76, velocity=0, time=48),\n",
       "  Message('note_on', channel=0, note=72, velocity=94, time=12),\n",
       "  Message('note_on', channel=0, note=72, velocity=0, time=48),\n",
       "  Message('note_on', channel=0, note=67, velocity=94, time=12),\n",
       "  Message('note_on', channel=0, note=67, velocity=0, time=48),\n",
       "  Message('note_on', channel=0, note=69, velocity=94, time=12),\n",
       "  Message('note_on', channel=0, note=69, velocity=0, time=48),\n",
       "  Message('note_on', channel=0, note=70, velocity=94, time=12),\n",
       "  Message('note_on', channel=0, note=70, velocity=0, time=48),\n",
       "  Message('note_on', channel=0, note=69, velocity=94, time=12),\n",
       "  Message('note_on', channel=0, note=69, velocity=0, time=48),\n",
       "  Message('note_on', channel=0, note=72, velocity=94, time=12),\n",
       "  Message('note_on', channel=0, note=72, velocity=0, time=48),\n",
       "  Message('note_on', channel=0, note=71, velocity=94, time=12),\n",
       "  Message('note_on', channel=0, note=71, velocity=0, time=48),\n",
       "  Message('note_on', channel=0, note=72, velocity=94, time=12),\n",
       "  Message('note_on', channel=0, note=72, velocity=0, time=48),\n",
       "  Message('note_on', channel=0, note=69, velocity=94, time=12),\n",
       "  Message('note_on', channel=0, note=69, velocity=0, time=48),\n",
       "  Message('note_on', channel=0, note=66, velocity=94, time=12),\n",
       "  Message('note_on', channel=0, note=66, velocity=0, time=48),\n",
       "  Message('note_on', channel=0, note=62, velocity=94, time=12),\n",
       "  Message('note_on', channel=0, note=62, velocity=0, time=48),\n",
       "  Message('note_on', channel=0, note=64, velocity=94, time=12),\n",
       "  Message('note_on', channel=0, note=64, velocity=0, time=48),\n",
       "  Message('note_on', channel=0, note=66, velocity=94, time=12),\n",
       "  Message('note_on', channel=0, note=66, velocity=0, time=48),\n",
       "  Message('note_on', channel=0, note=64, velocity=94, time=12),\n",
       "  Message('note_on', channel=0, note=64, velocity=0, time=48),\n",
       "  Message('note_on', channel=0, note=60, velocity=94, time=12),\n",
       "  Message('note_on', channel=0, note=60, velocity=0, time=48),\n",
       "  Message('note_on', channel=0, note=62, velocity=94, time=12),\n",
       "  Message('note_on', channel=0, note=62, velocity=0, time=48),\n",
       "  Message('note_on', channel=0, note=64, velocity=94, time=12),\n",
       "  Message('note_on', channel=0, note=64, velocity=0, time=48),\n",
       "  Message('note_on', channel=0, note=67, velocity=94, time=12),\n",
       "  Message('note_on', channel=0, note=67, velocity=0, time=48),\n",
       "  Message('note_on', channel=0, note=66, velocity=94, time=12),\n",
       "  Message('note_on', channel=0, note=66, velocity=0, time=48),\n",
       "  Message('note_on', channel=0, note=67, velocity=94, time=12),\n",
       "  Message('note_on', channel=0, note=67, velocity=0, time=48),\n",
       "  Message('note_on', channel=0, note=71, velocity=94, time=12),\n",
       "  Message('note_on', channel=0, note=71, velocity=0, time=48),\n",
       "  Message('note_on', channel=0, note=69, velocity=94, time=12),\n",
       "  Message('note_on', channel=0, note=69, velocity=0, time=48),\n",
       "  Message('note_on', channel=0, note=67, velocity=94, time=12),\n",
       "  Message('note_on', channel=0, note=71, velocity=94, time=0),\n",
       "  Message('note_on', channel=0, note=67, velocity=0, time=336),\n",
       "  Message('note_on', channel=0, note=71, velocity=0, time=0),\n",
       "  Message('note_on', channel=0, note=64, velocity=94, time=24),\n",
       "  Message('note_on', channel=0, note=60, velocity=94, time=0),\n",
       "  Message('note_on', channel=0, note=67, velocity=94, time=0),\n",
       "  Message('note_on', channel=0, note=72, velocity=94, time=0),\n",
       "  Message('note_on', channel=0, note=64, velocity=0, time=168),\n",
       "  Message('note_on', channel=0, note=60, velocity=0, time=0),\n",
       "  Message('note_on', channel=0, note=67, velocity=0, time=0),\n",
       "  Message('note_on', channel=0, note=72, velocity=0, time=0),\n",
       "  Message('note_on', channel=0, note=74, velocity=94, time=12),\n",
       "  Message('note_on', channel=0, note=67, velocity=94, time=0),\n",
       "  Message('note_on', channel=0, note=62, velocity=94, time=0),\n",
       "  Message('note_on', channel=0, note=74, velocity=0, time=336),\n",
       "  Message('note_on', channel=0, note=67, velocity=0, time=0),\n",
       "  Message('note_on', channel=0, note=62, velocity=0, time=0),\n",
       "  Message('note_on', channel=0, note=74, velocity=94, time=24),\n",
       "  Message('note_on', channel=0, note=67, velocity=94, time=0),\n",
       "  Message('note_on', channel=0, note=62, velocity=94, time=0),\n",
       "  Message('note_on', channel=0, note=74, velocity=0, time=168),\n",
       "  Message('note_on', channel=0, note=67, velocity=0, time=0),\n",
       "  Message('note_on', channel=0, note=62, velocity=0, time=0),\n",
       "  Message('note_on', channel=0, note=69, velocity=94, time=12),\n",
       "  Message('note_on', channel=0, note=64, velocity=94, time=0),\n",
       "  Message('note_on', channel=0, note=72, velocity=94, time=0),\n",
       "  Message('note_on', channel=0, note=69, velocity=0, time=168),\n",
       "  Message('note_on', channel=0, note=64, velocity=0, time=0),\n",
       "  Message('note_on', channel=0, note=72, velocity=0, time=0),\n",
       "  Message('note_on', channel=0, note=71, velocity=94, time=12),\n",
       "  Message('note_on', channel=0, note=71, velocity=0, time=336),\n",
       "  Message('note_on', channel=0, note=66, velocity=94, time=24),\n",
       "  Message('note_on', channel=0, note=69, velocity=94, time=0),\n",
       "  Message('note_on', channel=0, note=66, velocity=0, time=48),\n",
       "  Message('note_on', channel=0, note=69, velocity=0, time=0),\n",
       "  Message('note_on', channel=0, note=62, velocity=94, time=12),\n",
       "  Message('note_on', channel=0, note=62, velocity=0, time=48),\n",
       "  Message('note_on', channel=0, note=64, velocity=94, time=12),\n",
       "  Message('note_on', channel=0, note=64, velocity=0, time=48),\n",
       "  Message('note_on', channel=0, note=66, velocity=94, time=12),\n",
       "  Message('note_on', channel=0, note=66, velocity=0, time=48),\n",
       "  Message('note_on', channel=0, note=69, velocity=94, time=12),\n",
       "  Message('note_on', channel=0, note=69, velocity=0, time=48),\n",
       "  Message('note_on', channel=0, note=67, velocity=94, time=12),\n",
       "  Message('note_on', channel=0, note=67, velocity=0, time=48),\n",
       "  Message('note_on', channel=0, note=69, velocity=94, time=12),\n",
       "  Message('note_on', channel=0, note=69, velocity=0, time=48),\n",
       "  Message('note_on', channel=0, note=72, velocity=94, time=12),\n",
       "  Message('note_on', channel=0, note=72, velocity=0, time=48),\n",
       "  Message('note_on', channel=0, note=71, velocity=94, time=12),\n",
       "  Message('note_on', channel=0, note=71, velocity=0, time=48),\n",
       "  Message('note_on', channel=0, note=72, velocity=94, time=12),\n",
       "  Message('note_on', channel=0, note=72, velocity=0, time=48),\n",
       "  Message('note_on', channel=0, note=69, velocity=94, time=12),\n",
       "  Message('note_on', channel=0, note=69, velocity=0, time=48),\n",
       "  Message('note_on', channel=0, note=66, velocity=94, time=12),\n",
       "  Message('note_on', channel=0, note=66, velocity=0, time=48),\n",
       "  Message('note_on', channel=0, note=62, velocity=94, time=12),\n",
       "  Message('note_on', channel=0, note=62, velocity=0, time=48),\n",
       "  Message('note_on', channel=0, note=66, velocity=94, time=12),\n",
       "  Message('note_on', channel=0, note=66, velocity=0, time=48),\n",
       "  Message('note_on', channel=0, note=69, velocity=94, time=12),\n",
       "  Message('note_on', channel=0, note=69, velocity=0, time=48),\n",
       "  Message('note_on', channel=0, note=72, velocity=94, time=12),\n",
       "  Message('note_on', channel=0, note=72, velocity=0, time=48),\n",
       "  Message('note_on', channel=0, note=71, velocity=94, time=12),\n",
       "  Message('note_on', channel=0, note=71, velocity=0, time=48),\n",
       "  Message('note_on', channel=0, note=69, velocity=94, time=12),\n",
       "  Message('note_on', channel=0, note=69, velocity=0, time=48),\n",
       "  Message('note_on', channel=0, note=67, velocity=94, time=12),\n",
       "  Message('note_on', channel=0, note=71, velocity=94, time=0),\n",
       "  Message('note_on', channel=0, note=67, velocity=0, time=336),\n",
       "  Message('note_on', channel=0, note=71, velocity=0, time=0),\n",
       "  Message('note_on', channel=0, note=72, velocity=94, time=24),\n",
       "  Message('note_on', channel=0, note=67, velocity=94, time=0),\n",
       "  Message('note_on', channel=0, note=64, velocity=94, time=0),\n",
       "  Message('note_on', channel=0, note=60, velocity=94, time=0),\n",
       "  Message('note_on', channel=0, note=72, velocity=0, time=168),\n",
       "  Message('note_on', channel=0, note=67, velocity=0, time=0),\n",
       "  Message('note_on', channel=0, note=64, velocity=0, time=0),\n",
       "  Message('note_on', channel=0, note=60, velocity=0, time=0),\n",
       "  Message('note_on', channel=0, note=74, velocity=94, time=12),\n",
       "  Message('note_on', channel=0, note=62, velocity=94, time=0),\n",
       "  Message('note_on', channel=0, note=67, velocity=94, time=0),\n",
       "  Message('note_on', channel=0, note=74, velocity=0, time=336),\n",
       "  Message('note_on', channel=0, note=62, velocity=0, time=0),\n",
       "  Message('note_on', channel=0, note=67, velocity=0, time=0),\n",
       "  Message('note_on', channel=0, note=67, velocity=94, time=24),\n",
       "  Message('note_on', channel=0, note=64, velocity=94, time=0),\n",
       "  Message('note_on', channel=0, note=71, velocity=94, time=0),\n",
       "  Message('note_on', channel=0, note=67, velocity=0, time=168),\n",
       "  Message('note_on', channel=0, note=64, velocity=0, time=0),\n",
       "  Message('note_on', channel=0, note=71, velocity=0, time=0),\n",
       "  Message('note_on', channel=0, note=69, velocity=94, time=12),\n",
       "  Message('note_on', channel=0, note=69, velocity=0, time=96),\n",
       "  Message('note_on', channel=0, note=71, velocity=94, time=24),\n",
       "  Message('note_on', channel=0, note=71, velocity=0, time=24),\n",
       "  Message('note_on', channel=0, note=72, velocity=94, time=6),\n",
       "  Message('note_on', channel=0, note=72, velocity=0, time=24),\n",
       "  Message('note_on', channel=0, note=71, velocity=94, time=6),\n",
       "  Message('note_on', channel=0, note=71, velocity=0, time=168),\n",
       "  Message('note_on', channel=0, note=69, velocity=94, time=12),\n",
       "  Message('note_on', channel=0, note=69, velocity=0, time=168),\n",
       "  Message('note_on', channel=0, note=67, velocity=94, time=12),\n",
       "  Message('note_on', channel=0, note=67, velocity=0, time=48),\n",
       "  Message('note_on', channel=0, note=71, velocity=94, time=12),\n",
       "  Message('note_on', channel=0, note=71, velocity=0, time=48),\n",
       "  Message('note_on', channel=0, note=74, velocity=94, time=12),\n",
       "  Message('note_on', channel=0, note=74, velocity=0, time=48),\n",
       "  Message('note_on', channel=0, note=79, velocity=94, time=12),\n",
       "  Message('note_on', channel=0, note=79, velocity=0, time=48),\n",
       "  Message('note_on', channel=0, note=74, velocity=94, time=12),\n",
       "  Message('note_on', channel=0, note=74, velocity=0, time=48),\n",
       "  Message('note_on', channel=0, note=71, velocity=94, time=12),\n",
       "  Message('note_on', channel=0, note=71, velocity=0, time=48),\n",
       "  Message('note_on', channel=0, note=67, velocity=94, time=12),\n",
       "  Message('note_on', channel=0, note=67, velocity=0, time=48),\n",
       "  Message('note_on', channel=0, note=71, velocity=94, time=12),\n",
       "  Message('note_on', channel=0, note=71, velocity=0, time=48),\n",
       "  Message('note_on', channel=0, note=74, velocity=94, time=12),\n",
       "  Message('note_on', channel=0, note=74, velocity=0, time=48),\n",
       "  Message('note_on', channel=0, note=77, velocity=94, time=12),\n",
       "  Message('note_on', channel=0, note=77, velocity=0, time=48),\n",
       "  Message('note_on', channel=0, note=74, velocity=94, time=12),\n",
       "  Message('note_on', channel=0, note=74, velocity=0, time=48),\n",
       "  Message('note_on', channel=0, note=71, velocity=94, time=12),\n",
       "  Message('note_on', channel=0, note=71, velocity=0, time=48),\n",
       "  Message('note_on', channel=0, note=67, velocity=94, time=12),\n",
       "  Message('note_on', channel=0, note=67, velocity=0, time=48),\n",
       "  Message('note_on', channel=0, note=71, velocity=94, time=12),\n",
       "  Message('note_on', channel=0, note=71, velocity=0, time=48),\n",
       "  Message('note_on', channel=0, note=74, velocity=94, time=12),\n",
       "  Message('note_on', channel=0, note=74, velocity=0, time=48),\n",
       "  Message('note_on', channel=0, note=76, velocity=94, time=12),\n",
       "  Message('note_on', channel=0, note=76, velocity=0, time=48),\n",
       "  Message('note_on', channel=0, note=72, velocity=94, time=12),\n",
       "  Message('note_on', channel=0, note=72, velocity=0, time=48),\n",
       "  Message('note_on', channel=0, note=69, velocity=94, time=12),\n",
       "  Message('note_on', channel=0, note=69, velocity=0, time=48),\n",
       "  Message('note_on', channel=0, note=66, velocity=94, time=12),\n",
       "  Message('note_on', channel=0, note=66, velocity=0, time=48),\n",
       "  Message('note_on', channel=0, note=69, velocity=94, time=12),\n",
       "  Message('note_on', channel=0, note=69, velocity=0, time=48),\n",
       "  Message('note_on', channel=0, note=72, velocity=94, time=12),\n",
       "  Message('note_on', channel=0, note=72, velocity=0, time=48),\n",
       "  Message('note_on', channel=0, note=74, velocity=94, time=12),\n",
       "  Message('note_on', channel=0, note=74, velocity=0, time=48),\n",
       "  Message('note_on', channel=0, note=71, velocity=94, time=12),\n",
       "  Message('note_on', channel=0, note=71, velocity=0, time=48),\n",
       "  Message('note_on', channel=0, note=67, velocity=94, time=12),\n",
       "  Message('note_on', channel=0, note=67, velocity=0, time=48),\n",
       "  Message('note_on', channel=0, note=64, velocity=94, time=12),\n",
       "  Message('note_on', channel=0, note=64, velocity=0, time=48),\n",
       "  Message('note_on', channel=0, note=67, velocity=94, time=12),\n",
       "  Message('note_on', channel=0, note=67, velocity=0, time=48),\n",
       "  Message('note_on', channel=0, note=71, velocity=94, time=12),\n",
       "  Message('note_on', channel=0, note=71, velocity=0, time=48),\n",
       "  Message('note_on', channel=0, note=72, velocity=94, time=12),\n",
       "  Message('note_on', channel=0, note=72, velocity=0, time=48),\n",
       "  Message('note_on', channel=0, note=69, velocity=94, time=12),\n",
       "  Message('note_on', channel=0, note=69, velocity=0, time=48),\n",
       "  Message('note_on', channel=0, note=66, velocity=94, time=12),\n",
       "  Message('note_on', channel=0, note=66, velocity=0, time=48),\n",
       "  Message('note_on', channel=0, note=62, velocity=94, time=12),\n",
       "  Message('note_on', channel=0, note=62, velocity=0, time=48),\n",
       "  Message('note_on', channel=0, note=66, velocity=94, time=12),\n",
       "  Message('note_on', channel=0, note=66, velocity=0, time=48),\n",
       "  Message('note_on', channel=0, note=69, velocity=94, time=12),\n",
       "  Message('note_on', channel=0, note=69, velocity=0, time=48),\n",
       "  Message('note_on', channel=0, note=72, velocity=94, time=12),\n",
       "  Message('note_on', channel=0, note=72, velocity=0, time=48),\n",
       "  Message('note_on', channel=0, note=71, velocity=94, time=12),\n",
       "  Message('note_on', channel=0, note=71, velocity=0, time=48),\n",
       "  Message('note_on', channel=0, note=69, velocity=94, time=12),\n",
       "  Message('note_on', channel=0, note=69, velocity=0, time=48),\n",
       "  Message('note_on', channel=0, note=71, velocity=94, time=12),\n",
       "  Message('note_on', channel=0, note=71, velocity=0, time=48),\n",
       "  Message('note_on', channel=0, note=67, velocity=94, time=12),\n",
       "  Message('note_on', channel=0, note=67, velocity=0, time=48),\n",
       "  Message('note_on', channel=0, note=69, velocity=94, time=12),\n",
       "  Message('note_on', channel=0, note=69, velocity=0, time=48),\n",
       "  Message('note_on', channel=0, note=71, velocity=94, time=12),\n",
       "  Message('note_on', channel=0, note=71, velocity=0, time=48),\n",
       "  Message('note_on', channel=0, note=74, velocity=94, time=12),\n",
       "  Message('note_on', channel=0, note=74, velocity=0, time=48),\n",
       "  Message('note_on', channel=0, note=72, velocity=94, time=12),\n",
       "  Message('note_on', channel=0, note=72, velocity=0, time=48),\n",
       "  Message('note_on', channel=0, note=72, velocity=94, time=12),\n",
       "  Message('note_on', channel=0, note=72, velocity=0, time=48),\n",
       "  Message('note_on', channel=0, note=76, velocity=94, time=12),\n",
       "  Message('note_on', channel=0, note=76, velocity=0, time=48),\n",
       "  Message('note_on', channel=0, note=74, velocity=94, time=12),\n",
       "  Message('note_on', channel=0, note=74, velocity=0, time=48),\n",
       "  Message('note_on', channel=0, note=74, velocity=94, time=12),\n",
       "  Message('note_on', channel=0, note=74, velocity=0, time=48),\n",
       "  Message('note_on', channel=0, note=79, velocity=94, time=12),\n",
       "  Message('note_on', channel=0, note=79, velocity=0, time=48),\n",
       "  Message('note_on', channel=0, note=78, velocity=94, time=12),\n",
       "  Message('note_on', channel=0, note=78, velocity=0, time=48),\n",
       "  Message('note_on', channel=0, note=79, velocity=94, time=12),\n",
       "  Message('note_on', channel=0, note=79, velocity=0, time=48),\n",
       "  Message('note_on', channel=0, note=74, velocity=94, time=12),\n",
       "  Message('note_on', channel=0, note=74, velocity=0, time=48),\n",
       "  Message('note_on', channel=0, note=71, velocity=94, time=12),\n",
       "  Message('note_on', channel=0, note=71, velocity=0, time=48),\n",
       "  Message('note_on', channel=0, note=67, velocity=94, time=12),\n",
       "  Message('note_on', channel=0, note=67, velocity=0, time=48),\n",
       "  Message('note_on', channel=0, note=69, velocity=94, time=12),\n",
       "  Message('note_on', channel=0, note=69, velocity=0, time=48),\n",
       "  Message('note_on', channel=0, note=71, velocity=94, time=12),\n",
       "  Message('note_on', channel=0, note=71, velocity=0, time=48),\n",
       "  Message('note_on', channel=0, note=72, velocity=94, time=12),\n",
       "  Message('note_on', channel=0, note=72, velocity=0, time=48),\n",
       "  Message('note_on', channel=0, note=74, velocity=94, time=12),\n",
       "  Message('note_on', channel=0, note=74, velocity=0, time=48),\n",
       "  Message('note_on', channel=0, note=76, velocity=94, time=12),\n",
       "  Message('note_on', channel=0, note=76, velocity=0, time=48),\n",
       "  Message('note_on', channel=0, note=74, velocity=94, time=12),\n",
       "  Message('note_on', channel=0, note=74, velocity=0, time=48),\n",
       "  Message('note_on', channel=0, note=72, velocity=94, time=12),\n",
       "  Message('note_on', channel=0, note=72, velocity=0, time=48),\n",
       "  Message('note_on', channel=0, note=71, velocity=94, time=12),\n",
       "  Message('note_on', channel=0, note=71, velocity=0, time=48),\n",
       "  Message('note_on', channel=0, note=69, velocity=94, time=12),\n",
       "  Message('note_on', channel=0, note=69, velocity=0, time=48),\n",
       "  Message('note_on', channel=0, note=71, velocity=94, time=12),\n",
       "  Message('note_on', channel=0, note=71, velocity=0, time=48),\n",
       "  Message('note_on', channel=0, note=67, velocity=94, time=12),\n",
       "  Message('note_on', channel=0, note=67, velocity=0, time=48),\n",
       "  Message('note_on', channel=0, note=66, velocity=94, time=12),\n",
       "  Message('note_on', channel=0, note=66, velocity=0, time=48),\n",
       "  Message('note_on', channel=0, note=67, velocity=94, time=12),\n",
       "  Message('note_on', channel=0, note=67, velocity=0, time=48),\n",
       "  Message('note_on', channel=0, note=69, velocity=94, time=12),\n",
       "  Message('note_on', channel=0, note=69, velocity=0, time=48),\n",
       "  Message('note_on', channel=0, note=62, velocity=94, time=12),\n",
       "  Message('note_on', channel=0, note=62, velocity=0, time=48),\n",
       "  Message('note_on', channel=0, note=66, velocity=94, time=12),\n",
       "  Message('note_on', channel=0, note=66, velocity=0, time=48),\n",
       "  Message('note_on', channel=0, note=69, velocity=94, time=12),\n",
       "  Message('note_on', channel=0, note=69, velocity=0, time=48),\n",
       "  Message('note_on', channel=0, note=72, velocity=94, time=12),\n",
       "  Message('note_on', channel=0, note=72, velocity=0, time=48),\n",
       "  Message('note_on', channel=0, note=71, velocity=94, time=12),\n",
       "  Message('note_on', channel=0, note=71, velocity=0, time=48),\n",
       "  Message('note_on', channel=0, note=69, velocity=94, time=12),\n",
       "  Message('note_on', channel=0, note=69, velocity=0, time=48),\n",
       "  Message('note_on', channel=0, note=71, velocity=94, time=12),\n",
       "  Message('note_on', channel=0, note=71, velocity=0, time=48),\n",
       "  Message('note_on', channel=0, note=67, velocity=94, time=12),\n",
       "  Message('note_on', channel=0, note=67, velocity=0, time=48),\n",
       "  Message('note_on', channel=0, note=69, velocity=94, time=12),\n",
       "  Message('note_on', channel=0, note=69, velocity=0, time=48),\n",
       "  Message('note_on', channel=0, note=71, velocity=94, time=12),\n",
       "  Message('note_on', channel=0, note=71, velocity=0, time=48),\n",
       "  Message('note_on', channel=0, note=74, velocity=94, time=12),\n",
       "  Message('note_on', channel=0, note=74, velocity=0, time=48),\n",
       "  Message('note_on', channel=0, note=72, velocity=94, time=12),\n",
       "  Message('note_on', channel=0, note=72, velocity=0, time=48),\n",
       "  Message('note_on', channel=0, note=72, velocity=94, time=12),\n",
       "  Message('note_on', channel=0, note=72, velocity=0, time=48),\n",
       "  Message('note_on', channel=0, note=76, velocity=94, time=12),\n",
       "  Message('note_on', channel=0, note=76, velocity=0, time=48),\n",
       "  Message('note_on', channel=0, note=74, velocity=94, time=12),\n",
       "  Message('note_on', channel=0, note=74, velocity=0, time=48),\n",
       "  Message('note_on', channel=0, note=74, velocity=94, time=12),\n",
       "  Message('note_on', channel=0, note=74, velocity=0, time=48),\n",
       "  Message('note_on', channel=0, note=79, velocity=94, time=12),\n",
       "  Message('note_on', channel=0, note=79, velocity=0, time=48),\n",
       "  Message('note_on', channel=0, note=78, velocity=94, time=12),\n",
       "  Message('note_on', channel=0, note=78, velocity=0, time=48),\n",
       "  Message('note_on', channel=0, note=79, velocity=94, time=12),\n",
       "  Message('note_on', channel=0, note=79, velocity=0, time=48),\n",
       "  Message('note_on', channel=0, note=74, velocity=94, time=12),\n",
       "  Message('note_on', channel=0, note=74, velocity=0, time=48),\n",
       "  Message('note_on', channel=0, note=71, velocity=94, time=12),\n",
       "  Message('note_on', channel=0, note=71, velocity=0, time=48),\n",
       "  Message('note_on', channel=0, note=67, velocity=94, time=12),\n",
       "  Message('note_on', channel=0, note=67, velocity=0, time=48),\n",
       "  Message('note_on', channel=0, note=69, velocity=94, time=12),\n",
       "  Message('note_on', channel=0, note=69, velocity=0, time=48),\n",
       "  Message('note_on', channel=0, note=71, velocity=94, time=12),\n",
       "  Message('note_on', channel=0, note=71, velocity=0, time=48),\n",
       "  Message('note_on', channel=0, note=64, velocity=94, time=12),\n",
       "  Message('note_on', channel=0, note=64, velocity=0, time=48),\n",
       "  Message('note_on', channel=0, note=74, velocity=94, time=12),\n",
       "  Message('note_on', channel=0, note=74, velocity=0, time=48),\n",
       "  Message('note_on', channel=0, note=72, velocity=94, time=12),\n",
       "  Message('note_on', channel=0, note=72, velocity=0, time=48),\n",
       "  Message('note_on', channel=0, note=71, velocity=94, time=12),\n",
       "  Message('note_on', channel=0, note=71, velocity=0, time=48),\n",
       "  Message('note_on', channel=0, note=69, velocity=94, time=12),\n",
       "  Message('note_on', channel=0, note=69, velocity=0, time=48),\n",
       "  Message('note_on', channel=0, note=67, velocity=94, time=12),\n",
       "  Message('note_on', channel=0, note=67, velocity=0, time=48),\n",
       "  Message('note_on', channel=0, note=62, velocity=94, time=12),\n",
       "  Message('note_on', channel=0, note=62, velocity=0, time=48),\n",
       "  Message('note_on', channel=0, note=67, velocity=94, time=12),\n",
       "  Message('note_on', channel=0, note=67, velocity=0, time=48),\n",
       "  Message('note_on', channel=0, note=66, velocity=94, time=12),\n",
       "  Message('note_on', channel=0, note=66, velocity=0, time=48),\n",
       "  Message('note_on', channel=0, note=62, velocity=94, time=12),\n",
       "  Message('note_on', channel=0, note=67, velocity=94, time=0),\n",
       "  Message('note_on', channel=0, note=59, velocity=94, time=0),\n",
       "  Message('note_on', channel=0, note=55, velocity=94, time=0),\n",
       "  Message('note_on', channel=0, note=62, velocity=0, time=456),\n",
       "  Message('note_on', channel=0, note=67, velocity=0, time=0),\n",
       "  Message('note_on', channel=0, note=59, velocity=0, time=0),\n",
       "  Message('note_on', channel=0, note=55, velocity=0, time=0),\n",
       "  Message('note_on', channel=0, note=67, velocity=104, time=143),\n",
       "  Message('note_on', channel=0, note=67, velocity=0, time=48),\n",
       "  Message('note_on', channel=0, note=69, velocity=104, time=12),\n",
       "  Message('note_on', channel=0, note=69, velocity=0, time=48),\n",
       "  Message('note_on', channel=0, note=71, velocity=104, time=12),\n",
       "  Message('note_on', channel=0, note=71, velocity=0, time=48),\n",
       "  Message('note_on', channel=0, note=74, velocity=104, time=12),\n",
       "  Message('note_on', channel=0, note=74, velocity=0, time=48),\n",
       "  Message('note_on', channel=0, note=72, velocity=104, time=12),\n",
       "  Message('note_on', channel=0, note=72, velocity=0, time=48),\n",
       "  Message('note_on', channel=0, note=72, velocity=104, time=12),\n",
       "  Message('note_on', channel=0, note=72, velocity=0, time=48),\n",
       "  Message('note_on', channel=0, note=76, velocity=104, time=12),\n",
       "  Message('note_on', channel=0, note=76, velocity=0, time=48),\n",
       "  Message('note_on', channel=0, note=74, velocity=104, time=12),\n",
       "  Message('note_on', channel=0, note=74, velocity=0, time=48),\n",
       "  Message('note_on', channel=0, note=74, velocity=104, time=12),\n",
       "  Message('note_on', channel=0, note=74, velocity=0, time=48),\n",
       "  Message('note_on', channel=0, note=79, velocity=104, time=12),\n",
       "  Message('note_on', channel=0, note=79, velocity=0, time=48),\n",
       "  Message('note_on', channel=0, note=78, velocity=104, time=12),\n",
       "  Message('note_on', channel=0, note=78, velocity=0, time=48),\n",
       "  Message('note_on', channel=0, note=79, velocity=104, time=12),\n",
       "  Message('note_on', channel=0, note=79, velocity=0, time=48),\n",
       "  Message('note_on', channel=0, note=74, velocity=104, time=12),\n",
       "  Message('note_on', channel=0, note=74, velocity=0, time=48),\n",
       "  Message('note_on', channel=0, note=71, velocity=104, time=12),\n",
       "  Message('note_on', channel=0, note=71, velocity=0, time=48),\n",
       "  Message('note_on', channel=0, note=67, velocity=104, time=12),\n",
       "  Message('note_on', channel=0, note=67, velocity=0, time=48),\n",
       "  Message('note_on', channel=0, note=69, velocity=104, time=12),\n",
       "  Message('note_on', channel=0, note=69, velocity=0, time=48),\n",
       "  Message('note_on', channel=0, note=71, velocity=104, time=12),\n",
       "  Message('note_on', channel=0, note=71, velocity=0, time=48),\n",
       "  Message('note_on', channel=0, note=72, velocity=104, time=12),\n",
       "  Message('note_on', channel=0, note=72, velocity=0, time=48),\n",
       "  Message('note_on', channel=0, note=74, velocity=104, time=12),\n",
       "  Message('note_on', channel=0, note=74, velocity=0, time=48),\n",
       "  Message('note_on', channel=0, note=76, velocity=104, time=12),\n",
       "  Message('note_on', channel=0, note=76, velocity=0, time=48),\n",
       "  Message('note_on', channel=0, note=74, velocity=104, time=12),\n",
       "  Message('note_on', channel=0, note=74, velocity=0, time=48),\n",
       "  Message('note_on', channel=0, note=72, velocity=104, time=12),\n",
       "  Message('note_on', channel=0, note=72, velocity=0, time=48),\n",
       "  Message('note_on', channel=0, note=71, velocity=104, time=12),\n",
       "  Message('note_on', channel=0, note=71, velocity=0, time=48),\n",
       "  Message('note_on', channel=0, note=69, velocity=104, time=12),\n",
       "  Message('note_on', channel=0, note=69, velocity=0, time=48),\n",
       "  Message('note_on', channel=0, note=71, velocity=104, time=12),\n",
       "  Message('note_on', channel=0, note=71, velocity=0, time=48),\n",
       "  Message('note_on', channel=0, note=67, velocity=104, time=12),\n",
       "  Message('note_on', channel=0, note=67, velocity=0, time=48),\n",
       "  Message('note_on', channel=0, note=66, velocity=104, time=12),\n",
       "  Message('note_on', channel=0, note=66, velocity=0, time=48),\n",
       "  Message('note_on', channel=0, note=67, velocity=104, time=12),\n",
       "  Message('note_on', channel=0, note=67, velocity=0, time=48),\n",
       "  Message('note_on', channel=0, note=69, velocity=104, time=12),\n",
       "  Message('note_on', channel=0, note=69, velocity=0, time=48),\n",
       "  Message('note_on', channel=0, note=62, velocity=104, time=12),\n",
       "  Message('note_on', channel=0, note=62, velocity=0, time=48),\n",
       "  Message('note_on', channel=0, note=66, velocity=104, time=12),\n",
       "  Message('note_on', channel=0, note=66, velocity=0, time=48),\n",
       "  Message('note_on', channel=0, note=69, velocity=104, time=12),\n",
       "  Message('note_on', channel=0, note=69, velocity=0, time=48),\n",
       "  Message('note_on', channel=0, note=72, velocity=104, time=12),\n",
       "  Message('note_on', channel=0, note=72, velocity=0, time=48),\n",
       "  Message('note_on', channel=0, note=71, velocity=104, time=12),\n",
       "  Message('note_on', channel=0, note=71, velocity=0, time=48),\n",
       "  Message('note_on', channel=0, note=69, velocity=104, time=12),\n",
       "  Message('note_on', channel=0, note=69, velocity=0, time=48),\n",
       "  Message('note_on', channel=0, note=71, velocity=104, time=12),\n",
       "  Message('note_on', channel=0, note=71, velocity=0, time=48),\n",
       "  Message('note_on', channel=0, note=67, velocity=104, time=12),\n",
       "  Message('note_on', channel=0, note=67, velocity=0, time=48),\n",
       "  Message('note_on', channel=0, note=69, velocity=104, time=12),\n",
       "  Message('note_on', channel=0, note=69, velocity=0, time=48),\n",
       "  Message('note_on', channel=0, note=71, velocity=104, time=12),\n",
       "  Message('note_on', channel=0, note=71, velocity=0, time=48),\n",
       "  Message('note_on', channel=0, note=74, velocity=104, time=12),\n",
       "  Message('note_on', channel=0, note=74, velocity=0, time=48),\n",
       "  Message('note_on', channel=0, note=72, velocity=104, time=12),\n",
       "  Message('note_on', channel=0, note=72, velocity=0, time=48),\n",
       "  Message('note_on', channel=0, note=72, velocity=104, time=12),\n",
       "  Message('note_on', channel=0, note=72, velocity=0, time=48),\n",
       "  Message('note_on', channel=0, note=76, velocity=104, time=12),\n",
       "  Message('note_on', channel=0, note=76, velocity=0, time=48),\n",
       "  Message('note_on', channel=0, note=74, velocity=104, time=12),\n",
       "  Message('note_on', channel=0, note=74, velocity=0, time=48),\n",
       "  Message('note_on', channel=0, note=74, velocity=104, time=12),\n",
       "  Message('note_on', channel=0, note=74, velocity=0, time=48),\n",
       "  Message('note_on', channel=0, note=79, velocity=104, time=12),\n",
       "  Message('note_on', channel=0, note=79, velocity=0, time=48),\n",
       "  Message('note_on', channel=0, note=78, velocity=104, time=12),\n",
       "  Message('note_on', channel=0, note=78, velocity=0, time=48),\n",
       "  Message('note_on', channel=0, note=79, velocity=104, time=12),\n",
       "  Message('note_on', channel=0, note=79, velocity=0, time=48),\n",
       "  Message('note_on', channel=0, note=74, velocity=104, time=12),\n",
       "  Message('note_on', channel=0, note=74, velocity=0, time=48),\n",
       "  Message('note_on', channel=0, note=71, velocity=104, time=12),\n",
       "  Message('note_on', channel=0, note=71, velocity=0, time=48),\n",
       "  Message('note_on', channel=0, note=67, velocity=104, time=12),\n",
       "  Message('note_on', channel=0, note=67, velocity=0, time=48),\n",
       "  Message('note_on', channel=0, note=69, velocity=104, time=12),\n",
       "  Message('note_on', channel=0, note=69, velocity=0, time=48),\n",
       "  Message('note_on', channel=0, note=71, velocity=104, time=12),\n",
       "  Message('note_on', channel=0, note=71, velocity=0, time=48),\n",
       "  Message('note_on', channel=0, note=64, velocity=104, time=12),\n",
       "  Message('note_on', channel=0, note=64, velocity=0, time=48),\n",
       "  Message('note_on', channel=0, note=74, velocity=104, time=12),\n",
       "  Message('note_on', channel=0, note=74, velocity=0, time=48),\n",
       "  Message('note_on', channel=0, note=72, velocity=104, time=12),\n",
       "  Message('note_on', channel=0, note=72, velocity=0, time=48),\n",
       "  Message('note_on', channel=0, note=71, velocity=104, time=12),\n",
       "  Message('note_on', channel=0, note=71, velocity=0, time=48),\n",
       "  Message('note_on', channel=0, note=69, velocity=104, time=12),\n",
       "  Message('note_on', channel=0, note=69, velocity=0, time=48),\n",
       "  Message('note_on', channel=0, note=67, velocity=104, time=12),\n",
       "  Message('note_on', channel=0, note=67, velocity=0, time=48),\n",
       "  Message('note_on', channel=0, note=62, velocity=104, time=12),\n",
       "  Message('note_on', channel=0, note=62, velocity=0, time=48),\n",
       "  Message('note_on', channel=0, note=67, velocity=104, time=12),\n",
       "  Message('note_on', channel=0, note=67, velocity=0, time=48),\n",
       "  Message('note_on', channel=0, note=66, velocity=104, time=12),\n",
       "  Message('note_on', channel=0, note=66, velocity=0, time=48),\n",
       "  Message('note_on', channel=0, note=67, velocity=104, time=12),\n",
       "  Message('note_on', channel=0, note=67, velocity=0, time=48),\n",
       "  Message('note_on', channel=0, note=71, velocity=104, time=12),\n",
       "  Message('note_on', channel=0, note=71, velocity=0, time=48),\n",
       "  Message('note_on', channel=0, note=74, velocity=104, time=12),\n",
       "  Message('note_on', channel=0, note=74, velocity=0, time=48),\n",
       "  Message('note_on', channel=0, note=79, velocity=104, time=12),\n",
       "  Message('note_on', channel=0, note=79, velocity=0, time=48),\n",
       "  Message('note_on', channel=0, note=74, velocity=104, time=12),\n",
       "  Message('note_on', channel=0, note=74, velocity=0, time=48),\n",
       "  Message('note_on', channel=0, note=71, velocity=104, time=12),\n",
       "  Message('note_on', channel=0, note=71, velocity=0, time=48),\n",
       "  Message('note_on', channel=0, note=67, velocity=104, time=12),\n",
       "  Message('note_on', channel=0, note=67, velocity=0, time=48),\n",
       "  Message('note_on', channel=0, note=71, velocity=104, time=12),\n",
       "  Message('note_on', channel=0, note=71, velocity=0, time=48),\n",
       "  Message('note_on', channel=0, note=74, velocity=104, time=12),\n",
       "  Message('note_on', channel=0, note=74, velocity=0, time=48),\n",
       "  Message('note_on', channel=0, note=62, velocity=104, time=12),\n",
       "  Message('note_on', channel=0, note=71, velocity=104, time=0),\n",
       "  Message('note_on', channel=0, note=67, velocity=104, time=0),\n",
       "  Message('note_on', channel=0, note=62, velocity=0, time=336),\n",
       "  Message('note_on', channel=0, note=71, velocity=0, time=0),\n",
       "  Message('note_on', channel=0, note=67, velocity=0, time=0),\n",
       "  Message('note_on', channel=0, note=64, velocity=104, time=24),\n",
       "  Message('note_on', channel=0, note=67, velocity=104, time=0),\n",
       "  Message('note_on', channel=0, note=60, velocity=104, time=0),\n",
       "  Message('note_on', channel=0, note=72, velocity=104, time=0),\n",
       "  Message('note_on', channel=0, note=64, velocity=0, time=168),\n",
       "  Message('note_on', channel=0, note=67, velocity=0, time=0),\n",
       "  Message('note_on', channel=0, note=60, velocity=0, time=0),\n",
       "  Message('note_on', channel=0, note=72, velocity=0, time=0),\n",
       "  Message('note_on', channel=0, note=74, velocity=104, time=12),\n",
       "  Message('note_on', channel=0, note=74, velocity=0, time=336),\n",
       "  Message('note_on', channel=0, note=66, velocity=104, time=24),\n",
       "  Message('note_on', channel=0, note=71, velocity=104, time=0),\n",
       "  Message('note_on', channel=0, note=74, velocity=104, time=0),\n",
       "  Message('note_on', channel=0, note=62, velocity=104, time=0),\n",
       "  Message('note_on', channel=0, note=66, velocity=0, time=168),\n",
       "  Message('note_on', channel=0, note=71, velocity=0, time=0),\n",
       "  Message('note_on', channel=0, note=74, velocity=0, time=0),\n",
       "  Message('note_on', channel=0, note=62, velocity=0, time=0),\n",
       "  Message('note_on', channel=0, note=72, velocity=104, time=12),\n",
       "  Message('note_on', channel=0, note=72, velocity=0, time=336),\n",
       "  Message('note_on', channel=0, note=67, velocity=104, time=24),\n",
       "  Message('note_on', channel=0, note=62, velocity=104, time=0),\n",
       "  Message('note_on', channel=0, note=71, velocity=104, time=0),\n",
       "  Message('note_on', channel=0, note=67, velocity=0, time=168),\n",
       "  Message('note_on', channel=0, note=62, velocity=0, time=0),\n",
       "  Message('note_on', channel=0, note=71, velocity=0, time=0),\n",
       "  Message('note_on', channel=0, note=66, velocity=104, time=12),\n",
       "  Message('note_on', channel=0, note=69, velocity=104, time=0),\n",
       "  Message('note_on', channel=0, note=66, velocity=0, time=48),\n",
       "  Message('note_on', channel=0, note=69, velocity=0, time=0),\n",
       "  Message('note_on', channel=0, note=62, velocity=104, time=12),\n",
       "  Message('note_on', channel=0, note=62, velocity=0, time=48),\n",
       "  Message('note_on', channel=0, note=64, velocity=104, time=12),\n",
       "  Message('note_on', channel=0, note=64, velocity=0, time=48),\n",
       "  Message('note_on', channel=0, note=66, velocity=104, time=12),\n",
       "  Message('note_on', channel=0, note=69, velocity=104, time=0),\n",
       "  Message('note_on', channel=0, note=66, velocity=0, time=48),\n",
       "  Message('note_on', channel=0, note=69, velocity=0, time=0),\n",
       "  Message('note_on', channel=0, note=69, velocity=104, time=12),\n",
       "  Message('note_on', channel=0, note=69, velocity=0, time=48),\n",
       "  Message('note_on', channel=0, note=67, velocity=104, time=12),\n",
       "  Message('note_on', channel=0, note=67, velocity=0, time=48),\n",
       "  Message('note_on', channel=0, note=69, velocity=104, time=12),\n",
       "  Message('note_on', channel=0, note=69, velocity=0, time=48),\n",
       "  Message('note_on', channel=0, note=72, velocity=104, time=12),\n",
       "  Message('note_on', channel=0, note=72, velocity=0, time=48),\n",
       "  Message('note_on', channel=0, note=71, velocity=104, time=12),\n",
       "  Message('note_on', channel=0, note=71, velocity=0, time=48),\n",
       "  Message('note_on', channel=0, note=72, velocity=104, time=12),\n",
       "  Message('note_on', channel=0, note=72, velocity=0, time=48),\n",
       "  Message('note_on', channel=0, note=69, velocity=104, time=12),\n",
       "  Message('note_on', channel=0, note=69, velocity=0, time=48),\n",
       "  Message('note_on', channel=0, note=66, velocity=104, time=12),\n",
       "  Message('note_on', channel=0, note=66, velocity=0, time=48),\n",
       "  Message('note_on', channel=0, note=62, velocity=104, time=12),\n",
       "  Message('note_on', channel=0, note=62, velocity=0, time=48),\n",
       "  Message('note_on', channel=0, note=66, velocity=104, time=12),\n",
       "  Message('note_on', channel=0, note=66, velocity=0, time=48),\n",
       "  Message('note_on', channel=0, note=69, velocity=104, time=12),\n",
       "  Message('note_on', channel=0, note=69, velocity=0, time=48),\n",
       "  Message('note_on', channel=0, note=72, velocity=104, time=12),\n",
       "  Message('note_on', channel=0, note=72, velocity=0, time=48),\n",
       "  Message('note_on', channel=0, note=71, velocity=104, time=12),\n",
       "  Message('note_on', channel=0, note=71, velocity=0, time=48),\n",
       "  Message('note_on', channel=0, note=69, velocity=104, time=12),\n",
       "  Message('note_on', channel=0, note=69, velocity=0, time=48),\n",
       "  Message('note_on', channel=0, note=67, velocity=104, time=12),\n",
       "  Message('note_on', channel=0, note=71, velocity=104, time=0),\n",
       "  Message('note_on', channel=0, note=67, velocity=0, time=336),\n",
       "  Message('note_on', channel=0, note=71, velocity=0, time=0),\n",
       "  Message('note_on', channel=0, note=64, velocity=104, time=24),\n",
       "  Message('note_on', channel=0, note=72, velocity=104, time=0),\n",
       "  Message('note_on', channel=0, note=67, velocity=104, time=0),\n",
       "  Message('note_on', channel=0, note=60, velocity=104, time=0),\n",
       "  Message('note_on', channel=0, note=64, velocity=0, time=168),\n",
       "  Message('note_on', channel=0, note=72, velocity=0, time=0),\n",
       "  Message('note_on', channel=0, note=67, velocity=0, time=0),\n",
       "  Message('note_on', channel=0, note=60, velocity=0, time=0),\n",
       "  Message('note_on', channel=0, note=67, velocity=104, time=12),\n",
       "  Message('note_on', channel=0, note=62, velocity=104, time=0),\n",
       "  Message('note_on', channel=0, note=74, velocity=104, time=0),\n",
       "  Message('note_on', channel=0, note=67, velocity=0, time=336),\n",
       "  Message('note_on', channel=0, note=62, velocity=0, time=0),\n",
       "  Message('note_on', channel=0, note=74, velocity=0, time=0),\n",
       "  Message('note_on', channel=0, note=67, velocity=104, time=24),\n",
       "  Message('note_on', channel=0, note=64, velocity=104, time=0),\n",
       "  Message('note_on', channel=0, note=71, velocity=104, time=0),\n",
       "  Message('note_on', channel=0, note=67, velocity=0, time=168),\n",
       "  Message('note_on', channel=0, note=64, velocity=0, time=0),\n",
       "  Message('note_on', channel=0, note=71, velocity=0, time=0),\n",
       "  Message('note_on', channel=0, note=69, velocity=63, time=12),\n",
       "  Message('note_on', channel=0, note=69, velocity=0, time=116),\n",
       "  Message('note_on', channel=0, note=71, velocity=74, time=4),\n",
       "  Message('note_on', channel=0, note=72, velocity=68, time=30),\n",
       "  Message('note_on', channel=0, note=71, velocity=0, time=14),\n",
       "  Message('note_on', channel=0, note=71, velocity=65, time=16),\n",
       "  Message('note_on', channel=0, note=66, velocity=67, time=0),\n",
       "  Message('note_on', channel=0, note=62, velocity=55, time=0),\n",
       "  Message('note_on', channel=0, note=72, velocity=0, time=14),\n",
       "  Message('note_on', channel=0, note=66, velocity=55, time=166),\n",
       "  Message('note_on', channel=0, note=60, velocity=46, time=0),\n",
       "  Message('note_on', channel=0, note=69, velocity=45, time=0),\n",
       "  Message('note_on', channel=0, note=71, velocity=0, time=8),\n",
       "  Message('note_on', channel=0, note=66, velocity=0, time=0),\n",
       "  Message('note_on', channel=0, note=62, velocity=0, time=0),\n",
       "  Message('note_on', channel=0, note=67, velocity=104, time=172),\n",
       "  Message('note_on', channel=0, note=66, velocity=0, time=8),\n",
       "  Message('note_on', channel=0, note=60, velocity=0, time=0),\n",
       "  Message('note_on', channel=0, note=69, velocity=0, time=0),\n",
       "  Message('note_on', channel=0, note=67, velocity=0, time=40),\n",
       "  Message('note_on', channel=0, note=71, velocity=104, time=12),\n",
       "  Message('note_on', channel=0, note=71, velocity=0, time=48),\n",
       "  Message('note_on', channel=0, note=69, velocity=104, time=12),\n",
       "  Message('note_on', channel=0, note=69, velocity=0, time=48),\n",
       "  Message('note_on', channel=0, note=71, velocity=104, time=12),\n",
       "  Message('note_on', channel=0, note=71, velocity=0, time=48),\n",
       "  Message('note_on', channel=0, note=74, velocity=104, time=12),\n",
       "  Message('note_on', channel=0, note=74, velocity=0, time=48),\n",
       "  Message('note_on', channel=0, note=72, velocity=104, time=12),\n",
       "  Message('note_on', channel=0, note=72, velocity=0, time=48),\n",
       "  Message('note_on', channel=0, note=72, velocity=104, time=12),\n",
       "  Message('note_on', channel=0, note=72, velocity=0, time=48),\n",
       "  Message('note_on', channel=0, note=76, velocity=104, time=12),\n",
       "  Message('note_on', channel=0, note=76, velocity=0, time=48),\n",
       "  Message('note_on', channel=0, note=74, velocity=104, time=12),\n",
       "  Message('note_on', channel=0, note=74, velocity=0, time=48),\n",
       "  Message('note_on', channel=0, note=74, velocity=104, time=12),\n",
       "  Message('note_on', channel=0, note=74, velocity=0, time=48),\n",
       "  Message('note_on', channel=0, note=79, velocity=104, time=12),\n",
       "  Message('note_on', channel=0, note=79, velocity=0, time=48),\n",
       "  Message('note_on', channel=0, note=78, velocity=104, time=12),\n",
       "  Message('note_on', channel=0, note=78, velocity=0, time=48),\n",
       "  Message('note_on', channel=0, note=79, velocity=104, time=12),\n",
       "  Message('note_on', channel=0, note=79, velocity=0, time=48),\n",
       "  Message('note_on', channel=0, note=74, velocity=104, time=12),\n",
       "  Message('note_on', channel=0, note=74, velocity=0, time=48),\n",
       "  Message('note_on', channel=0, note=71, velocity=104, time=12),\n",
       "  Message('note_on', channel=0, note=71, velocity=0, time=48),\n",
       "  Message('note_on', channel=0, note=67, velocity=104, time=12),\n",
       "  Message('note_on', channel=0, note=67, velocity=0, time=48),\n",
       "  Message('note_on', channel=0, note=69, velocity=104, time=12),\n",
       "  Message('note_on', channel=0, note=69, velocity=0, time=48),\n",
       "  Message('note_on', channel=0, note=71, velocity=104, time=12),\n",
       "  Message('note_on', channel=0, note=71, velocity=0, time=48),\n",
       "  Message('note_on', channel=0, note=72, velocity=104, time=12),\n",
       "  Message('note_on', channel=0, note=72, velocity=0, time=48),\n",
       "  Message('note_on', channel=0, note=74, velocity=104, time=12),\n",
       "  Message('note_on', channel=0, note=74, velocity=0, time=48),\n",
       "  Message('note_on', channel=0, note=76, velocity=104, time=12),\n",
       "  Message('note_on', channel=0, note=76, velocity=0, time=48),\n",
       "  Message('note_on', channel=0, note=74, velocity=104, time=12),\n",
       "  Message('note_on', channel=0, note=74, velocity=0, time=48),\n",
       "  Message('note_on', channel=0, note=72, velocity=104, time=12),\n",
       "  Message('note_on', channel=0, note=72, velocity=0, time=48),\n",
       "  Message('note_on', channel=0, note=71, velocity=104, time=12),\n",
       "  Message('note_on', channel=0, note=71, velocity=0, time=48),\n",
       "  Message('note_on', channel=0, note=69, velocity=104, time=12),\n",
       "  Message('note_on', channel=0, note=69, velocity=0, time=48),\n",
       "  Message('note_on', channel=0, note=71, velocity=104, time=12),\n",
       "  Message('note_on', channel=0, note=71, velocity=0, time=48),\n",
       "  Message('note_on', channel=0, note=67, velocity=104, time=12),\n",
       "  Message('note_on', channel=0, note=67, velocity=0, time=48),\n",
       "  Message('note_on', channel=0, note=66, velocity=104, time=12),\n",
       "  Message('note_on', channel=0, note=66, velocity=0, time=48),\n",
       "  Message('note_on', channel=0, note=67, velocity=104, time=12),\n",
       "  Message('note_on', channel=0, note=67, velocity=0, time=48),\n",
       "  Message('note_on', channel=0, note=69, velocity=104, time=12),\n",
       "  Message('note_on', channel=0, note=69, velocity=0, time=48),\n",
       "  Message('note_on', channel=0, note=62, velocity=104, time=12),\n",
       "  Message('note_on', channel=0, note=62, velocity=0, time=48),\n",
       "  Message('note_on', channel=0, note=66, velocity=104, time=12),\n",
       "  Message('note_on', channel=0, note=66, velocity=0, time=48),\n",
       "  Message('note_on', channel=0, note=69, velocity=104, time=12),\n",
       "  Message('note_on', channel=0, note=69, velocity=0, time=48),\n",
       "  Message('note_on', channel=0, note=72, velocity=104, time=12),\n",
       "  Message('note_on', channel=0, note=72, velocity=0, time=48),\n",
       "  Message('note_on', channel=0, note=71, velocity=104, time=12),\n",
       "  Message('note_on', channel=0, note=71, velocity=0, time=48),\n",
       "  Message('note_on', channel=0, note=69, velocity=104, time=12),\n",
       "  Message('note_on', channel=0, note=69, velocity=0, time=48),\n",
       "  Message('note_on', channel=0, note=71, velocity=104, time=12),\n",
       "  Message('note_on', channel=0, note=71, velocity=0, time=48),\n",
       "  Message('note_on', channel=0, note=67, velocity=104, time=12),\n",
       "  Message('note_on', channel=0, note=67, velocity=0, time=48),\n",
       "  Message('note_on', channel=0, note=69, velocity=104, time=12),\n",
       "  Message('note_on', channel=0, note=69, velocity=0, time=48),\n",
       "  Message('note_on', channel=0, note=71, velocity=104, time=12),\n",
       "  Message('note_on', channel=0, note=71, velocity=0, time=48),\n",
       "  Message('note_on', channel=0, note=74, velocity=104, time=12),\n",
       "  Message('note_on', channel=0, note=74, velocity=0, time=48),\n",
       "  Message('note_on', channel=0, note=72, velocity=104, time=12),\n",
       "  Message('note_on', channel=0, note=72, velocity=0, time=48),\n",
       "  Message('note_on', channel=0, note=72, velocity=104, time=12),\n",
       "  Message('note_on', channel=0, note=72, velocity=0, time=48),\n",
       "  Message('note_on', channel=0, note=76, velocity=104, time=12),\n",
       "  Message('note_on', channel=0, note=76, velocity=0, time=48),\n",
       "  Message('note_on', channel=0, note=74, velocity=104, time=12),\n",
       "  Message('note_on', channel=0, note=74, velocity=0, time=48),\n",
       "  Message('note_on', channel=0, note=74, velocity=104, time=12),\n",
       "  Message('note_on', channel=0, note=74, velocity=0, time=48),\n",
       "  Message('note_on', channel=0, note=79, velocity=104, time=12),\n",
       "  Message('note_on', channel=0, note=79, velocity=0, time=48),\n",
       "  Message('note_on', channel=0, note=78, velocity=104, time=12),\n",
       "  Message('note_on', channel=0, note=78, velocity=0, time=48),\n",
       "  Message('note_on', channel=0, note=79, velocity=104, time=12),\n",
       "  Message('note_on', channel=0, note=79, velocity=0, time=48),\n",
       "  Message('note_on', channel=0, note=74, velocity=104, time=12),\n",
       "  Message('note_on', channel=0, note=74, velocity=0, time=48),\n",
       "  Message('note_on', channel=0, note=71, velocity=104, time=12),\n",
       "  Message('note_on', channel=0, note=71, velocity=0, time=48),\n",
       "  Message('note_on', channel=0, note=67, velocity=104, time=12),\n",
       "  Message('note_on', channel=0, note=67, velocity=0, time=48),\n",
       "  Message('note_on', channel=0, note=69, velocity=104, time=12),\n",
       "  Message('note_on', channel=0, note=69, velocity=0, time=48),\n",
       "  Message('note_on', channel=0, note=71, velocity=104, time=12),\n",
       "  Message('note_on', channel=0, note=71, velocity=0, time=48),\n",
       "  Message('note_on', channel=0, note=64, velocity=104, time=12),\n",
       "  Message('note_on', channel=0, note=64, velocity=0, time=48),\n",
       "  Message('note_on', channel=0, note=74, velocity=104, time=12),\n",
       "  Message('note_on', channel=0, note=74, velocity=0, time=48),\n",
       "  Message('note_on', channel=0, note=72, velocity=104, time=12),\n",
       "  Message('note_on', channel=0, note=72, velocity=0, time=48),\n",
       "  Message('note_on', channel=0, note=71, velocity=104, time=12),\n",
       "  Message('note_on', channel=0, note=71, velocity=0, time=48),\n",
       "  Message('note_on', channel=0, note=69, velocity=104, time=12),\n",
       "  Message('note_on', channel=0, note=69, velocity=0, time=48),\n",
       "  Message('note_on', channel=0, note=67, velocity=104, time=12),\n",
       "  Message('note_on', channel=0, note=67, velocity=0, time=48),\n",
       "  Message('note_on', channel=0, note=62, velocity=104, time=12),\n",
       "  Message('note_on', channel=0, note=62, velocity=0, time=48),\n",
       "  Message('note_on', channel=0, note=67, velocity=104, time=12),\n",
       "  Message('note_on', channel=0, note=67, velocity=0, time=48),\n",
       "  Message('note_on', channel=0, note=66, velocity=104, time=12),\n",
       "  Message('note_on', channel=0, note=66, velocity=0, time=48),\n",
       "  Message('note_on', channel=0, note=67, velocity=104, time=12),\n",
       "  Message('note_on', channel=0, note=71, velocity=104, time=0),\n",
       "  Message('note_on', channel=0, note=67, velocity=0, time=336),\n",
       "  Message('note_on', channel=0, note=71, velocity=0, time=0),\n",
       "  Message('note_on', channel=0, note=64, velocity=104, time=24),\n",
       "  Message('note_on', channel=0, note=60, velocity=104, time=0),\n",
       "  Message('note_on', channel=0, note=67, velocity=104, time=0),\n",
       "  Message('note_on', channel=0, note=72, velocity=104, time=0),\n",
       "  Message('note_on', channel=0, note=64, velocity=0, time=168),\n",
       "  Message('note_on', channel=0, note=60, velocity=0, time=0),\n",
       "  Message('note_on', channel=0, note=67, velocity=0, time=0),\n",
       "  Message('note_on', channel=0, note=72, velocity=0, time=0),\n",
       "  Message('note_on', channel=0, note=74, velocity=104, time=12),\n",
       "  Message('note_on', channel=0, note=74, velocity=0, time=336),\n",
       "  Message('note_on', channel=0, note=66, velocity=104, time=24),\n",
       "  Message('note_on', channel=0, note=71, velocity=104, time=0),\n",
       "  Message('note_on', channel=0, note=74, velocity=104, time=0),\n",
       "  Message('note_on', channel=0, note=62, velocity=104, time=0),\n",
       "  Message('note_on', channel=0, note=66, velocity=0, time=168),\n",
       "  Message('note_on', channel=0, note=71, velocity=0, time=0),\n",
       "  Message('note_on', channel=0, note=74, velocity=0, time=0),\n",
       "  Message('note_on', channel=0, note=62, velocity=0, time=0),\n",
       "  Message('note_on', channel=0, note=72, velocity=104, time=12),\n",
       "  Message('note_on', channel=0, note=72, velocity=0, time=336),\n",
       "  Message('note_on', channel=0, note=67, velocity=104, time=24),\n",
       "  Message('note_on', channel=0, note=62, velocity=104, time=0),\n",
       "  Message('note_on', channel=0, note=71, velocity=104, time=0),\n",
       "  Message('note_on', channel=0, note=67, velocity=0, time=168),\n",
       "  Message('note_on', channel=0, note=62, velocity=0, time=0),\n",
       "  Message('note_on', channel=0, note=71, velocity=0, time=0),\n",
       "  Message('note_on', channel=0, note=66, velocity=104, time=12),\n",
       "  Message('note_on', channel=0, note=69, velocity=104, time=0),\n",
       "  Message('note_on', channel=0, note=66, velocity=0, time=48),\n",
       "  Message('note_on', channel=0, note=69, velocity=0, time=0),\n",
       "  Message('note_on', channel=0, note=62, velocity=104, time=12),\n",
       "  Message('note_on', channel=0, note=62, velocity=0, time=48),\n",
       "  Message('note_on', channel=0, note=64, velocity=104, time=12),\n",
       "  Message('note_on', channel=0, note=64, velocity=0, time=48),\n",
       "  Message('note_on', channel=0, note=66, velocity=104, time=12),\n",
       "  Message('note_on', channel=0, note=69, velocity=104, time=0),\n",
       "  Message('note_on', channel=0, note=66, velocity=0, time=48),\n",
       "  Message('note_on', channel=0, note=69, velocity=0, time=0),\n",
       "  Message('note_on', channel=0, note=69, velocity=104, time=12),\n",
       "  Message('note_on', channel=0, note=69, velocity=0, time=48),\n",
       "  Message('note_on', channel=0, note=67, velocity=104, time=12),\n",
       "  Message('note_on', channel=0, note=67, velocity=0, time=48),\n",
       "  Message('note_on', channel=0, note=69, velocity=104, time=12),\n",
       "  Message('note_on', channel=0, note=69, velocity=0, time=48),\n",
       "  Message('note_on', channel=0, note=72, velocity=104, time=12),\n",
       "  Message('note_on', channel=0, note=72, velocity=0, time=48),\n",
       "  Message('note_on', channel=0, note=71, velocity=104, time=12),\n",
       "  Message('note_on', channel=0, note=71, velocity=0, time=48),\n",
       "  Message('note_on', channel=0, note=72, velocity=104, time=12),\n",
       "  Message('note_on', channel=0, note=72, velocity=0, time=48),\n",
       "  Message('note_on', channel=0, note=69, velocity=104, time=12),\n",
       "  Message('note_on', channel=0, note=69, velocity=0, time=48),\n",
       "  Message('note_on', channel=0, note=66, velocity=104, time=12),\n",
       "  Message('note_on', channel=0, note=66, velocity=0, time=48),\n",
       "  Message('note_on', channel=0, note=62, velocity=104, time=12),\n",
       "  Message('note_on', channel=0, note=62, velocity=0, time=48),\n",
       "  Message('note_on', channel=0, note=66, velocity=104, time=12),\n",
       "  Message('note_on', channel=0, note=66, velocity=0, time=48),\n",
       "  Message('note_on', channel=0, note=69, velocity=104, time=12),\n",
       "  Message('note_on', channel=0, note=69, velocity=0, time=48),\n",
       "  Message('note_on', channel=0, note=72, velocity=104, time=12),\n",
       "  Message('note_on', channel=0, note=72, velocity=0, time=48),\n",
       "  Message('note_on', channel=0, note=71, velocity=104, time=12),\n",
       "  Message('note_on', channel=0, note=71, velocity=0, time=48),\n",
       "  Message('note_on', channel=0, note=69, velocity=104, time=12),\n",
       "  Message('note_on', channel=0, note=69, velocity=0, time=48),\n",
       "  Message('note_on', channel=0, note=71, velocity=104, time=12),\n",
       "  Message('note_on', channel=0, note=67, velocity=104, time=0),\n",
       "  Message('note_on', channel=0, note=71, velocity=0, time=336),\n",
       "  Message('note_on', channel=0, note=67, velocity=0, time=0),\n",
       "  Message('note_on', channel=0, note=64, velocity=104, time=24),\n",
       "  Message('note_on', channel=0, note=60, velocity=104, time=0),\n",
       "  Message('note_on', channel=0, note=67, velocity=104, time=0),\n",
       "  Message('note_on', channel=0, note=72, velocity=104, time=0),\n",
       "  Message('note_on', channel=0, note=64, velocity=0, time=168),\n",
       "  Message('note_on', channel=0, note=60, velocity=0, time=0),\n",
       "  Message('note_on', channel=0, note=67, velocity=0, time=0),\n",
       "  Message('note_on', channel=0, note=72, velocity=0, time=0),\n",
       "  Message('note_on', channel=0, note=67, velocity=104, time=12),\n",
       "  Message('note_on', channel=0, note=74, velocity=104, time=0),\n",
       "  Message('note_on', channel=0, note=62, velocity=104, time=0),\n",
       "  Message('note_on', channel=0, note=67, velocity=0, time=336),\n",
       "  Message('note_on', channel=0, note=74, velocity=0, time=0),\n",
       "  Message('note_on', channel=0, note=62, velocity=0, time=0),\n",
       "  Message('note_on', channel=0, note=67, velocity=104, time=24),\n",
       "  Message('note_on', channel=0, note=64, velocity=104, time=0),\n",
       "  Message('note_on', channel=0, note=71, velocity=104, time=0),\n",
       "  Message('note_on', channel=0, note=67, velocity=0, time=168),\n",
       "  Message('note_on', channel=0, note=64, velocity=0, time=0),\n",
       "  Message('note_on', channel=0, note=71, velocity=0, time=0),\n",
       "  Message('note_on', channel=0, note=69, velocity=104, time=12),\n",
       "  Message('note_on', channel=0, note=69, velocity=0, time=116),\n",
       "  Message('note_on', channel=0, note=71, velocity=104, time=4),\n",
       "  Message('note_on', channel=0, note=72, velocity=104, time=30),\n",
       "  Message('note_on', channel=0, note=71, velocity=0, time=14),\n",
       "  Message('note_on', channel=0, note=66, velocity=104, time=16),\n",
       "  Message('note_on', channel=0, note=71, velocity=104, time=0),\n",
       "  Message('note_on', channel=0, note=62, velocity=104, time=0),\n",
       "  Message('note_on', channel=0, note=72, velocity=0, time=14),\n",
       "  Message('note_on', channel=0, note=66, velocity=0, time=154),\n",
       "  Message('note_on', channel=0, note=71, velocity=0, time=0),\n",
       "  Message('note_on', channel=0, note=62, velocity=0, time=0),\n",
       "  Message('note_on', channel=0, note=66, velocity=104, time=12),\n",
       "  Message('note_on', channel=0, note=60, velocity=104, time=0),\n",
       "  Message('note_on', channel=0, note=69, velocity=104, time=0),\n",
       "  Message('note_on', channel=0, note=66, velocity=0, time=168),\n",
       "  Message('note_on', channel=0, note=60, velocity=0, time=0),\n",
       "  Message('note_on', channel=0, note=69, velocity=0, time=0),\n",
       "  Message('note_on', channel=0, note=67, velocity=104, time=12),\n",
       "  Message('note_on', channel=0, note=67, velocity=0, time=48),\n",
       "  Message('note_on', channel=0, note=71, velocity=104, time=12),\n",
       "  Message('note_on', channel=0, note=71, velocity=0, time=48),\n",
       "  Message('note_on', channel=0, note=69, velocity=104, time=12),\n",
       "  Message('note_on', channel=0, note=69, velocity=0, time=48),\n",
       "  Message('note_on', channel=0, note=71, velocity=104, time=12),\n",
       "  Message('note_on', channel=0, note=71, velocity=0, time=48),\n",
       "  Message('note_on', channel=0, note=74, velocity=104, time=12),\n",
       "  Message('note_on', channel=0, note=74, velocity=0, time=48),\n",
       "  Message('note_on', channel=0, note=72, velocity=104, time=12),\n",
       "  Message('note_on', channel=0, note=72, velocity=0, time=48),\n",
       "  Message('note_on', channel=0, note=72, velocity=104, time=12),\n",
       "  Message('note_on', channel=0, note=72, velocity=0, time=48),\n",
       "  Message('note_on', channel=0, note=76, velocity=104, time=12),\n",
       "  Message('note_on', channel=0, note=76, velocity=0, time=48),\n",
       "  Message('note_on', channel=0, note=74, velocity=104, time=12),\n",
       "  Message('note_on', channel=0, note=74, velocity=0, time=48),\n",
       "  Message('note_on', channel=0, note=74, velocity=104, time=12),\n",
       "  Message('note_on', channel=0, note=74, velocity=0, time=48),\n",
       "  Message('note_on', channel=0, note=79, velocity=104, time=12),\n",
       "  Message('note_on', channel=0, note=79, velocity=0, time=48),\n",
       "  Message('note_on', channel=0, note=78, velocity=104, time=12),\n",
       "  Message('note_on', channel=0, note=78, velocity=0, time=48),\n",
       "  Message('note_on', channel=0, note=79, velocity=104, time=12),\n",
       "  Message('note_on', channel=0, note=79, velocity=0, time=48),\n",
       "  Message('note_on', channel=0, note=74, velocity=104, time=12),\n",
       "  Message('note_on', channel=0, note=74, velocity=0, time=48),\n",
       "  Message('note_on', channel=0, note=71, velocity=104, time=12),\n",
       "  Message('note_on', channel=0, note=71, velocity=0, time=48),\n",
       "  Message('note_on', channel=0, note=67, velocity=104, time=12),\n",
       "  Message('note_on', channel=0, note=67, velocity=0, time=48),\n",
       "  Message('note_on', channel=0, note=69, velocity=104, time=12),\n",
       "  Message('note_on', channel=0, note=69, velocity=0, time=48),\n",
       "  Message('note_on', channel=0, note=71, velocity=104, time=12),\n",
       "  Message('note_on', channel=0, note=71, velocity=0, time=48),\n",
       "  Message('note_on', channel=0, note=72, velocity=104, time=12),\n",
       "  Message('note_on', channel=0, note=72, velocity=0, time=48),\n",
       "  Message('note_on', channel=0, note=74, velocity=104, time=12),\n",
       "  Message('note_on', channel=0, note=74, velocity=0, time=48),\n",
       "  Message('note_on', channel=0, note=76, velocity=104, time=12),\n",
       "  Message('note_on', channel=0, note=76, velocity=0, time=48),\n",
       "  Message('note_on', channel=0, note=74, velocity=104, time=12),\n",
       "  Message('note_on', channel=0, note=74, velocity=0, time=48),\n",
       "  Message('note_on', channel=0, note=72, velocity=104, time=12),\n",
       "  Message('note_on', channel=0, note=72, velocity=0, time=48),\n",
       "  Message('note_on', channel=0, note=71, velocity=104, time=12),\n",
       "  Message('note_on', channel=0, note=71, velocity=0, time=48),\n",
       "  Message('note_on', channel=0, note=69, velocity=104, time=12),\n",
       "  Message('note_on', channel=0, note=69, velocity=0, time=48),\n",
       "  Message('note_on', channel=0, note=71, velocity=104, time=12),\n",
       "  Message('note_on', channel=0, note=71, velocity=0, time=48),\n",
       "  Message('note_on', channel=0, note=67, velocity=104, time=12),\n",
       "  Message('note_on', channel=0, note=67, velocity=0, time=48),\n",
       "  Message('note_on', channel=0, note=66, velocity=104, time=12),\n",
       "  Message('note_on', channel=0, note=66, velocity=0, time=48),\n",
       "  Message('note_on', channel=0, note=67, velocity=104, time=12),\n",
       "  Message('note_on', channel=0, note=67, velocity=0, time=48),\n",
       "  Message('note_on', channel=0, note=69, velocity=104, time=12),\n",
       "  Message('note_on', channel=0, note=69, velocity=0, time=48),\n",
       "  Message('note_on', channel=0, note=62, velocity=104, time=12),\n",
       "  Message('note_on', channel=0, note=62, velocity=0, time=48),\n",
       "  Message('note_on', channel=0, note=66, velocity=104, time=12),\n",
       "  Message('note_on', channel=0, note=66, velocity=0, time=48),\n",
       "  Message('note_on', channel=0, note=69, velocity=104, time=12),\n",
       "  Message('note_on', channel=0, note=69, velocity=0, time=48),\n",
       "  Message('note_on', channel=0, note=72, velocity=104, time=12),\n",
       "  Message('note_on', channel=0, note=72, velocity=0, time=48),\n",
       "  Message('note_on', channel=0, note=71, velocity=104, time=12),\n",
       "  Message('note_on', channel=0, note=71, velocity=0, time=48),\n",
       "  Message('note_on', channel=0, note=69, velocity=104, time=12),\n",
       "  Message('note_on', channel=0, note=69, velocity=0, time=48),\n",
       "  Message('note_on', channel=0, note=71, velocity=104, time=12),\n",
       "  Message('note_on', channel=0, note=71, velocity=0, time=48),\n",
       "  Message('note_on', channel=0, note=67, velocity=104, time=12),\n",
       "  Message('note_on', channel=0, note=67, velocity=0, time=48),\n",
       "  Message('note_on', channel=0, note=69, velocity=104, time=12),\n",
       "  Message('note_on', channel=0, note=69, velocity=0, time=48),\n",
       "  Message('note_on', channel=0, note=71, velocity=104, time=12),\n",
       "  Message('note_on', channel=0, note=71, velocity=0, time=48),\n",
       "  Message('note_on', channel=0, note=74, velocity=104, time=12),\n",
       "  Message('note_on', channel=0, note=74, velocity=0, time=48),\n",
       "  Message('note_on', channel=0, note=72, velocity=104, time=12),\n",
       "  Message('note_on', channel=0, note=72, velocity=0, time=48),\n",
       "  Message('note_on', channel=0, note=72, velocity=104, time=12),\n",
       "  Message('note_on', channel=0, note=72, velocity=0, time=48),\n",
       "  Message('note_on', channel=0, note=76, velocity=104, time=12),\n",
       "  Message('note_on', channel=0, note=76, velocity=0, time=48),\n",
       "  Message('note_on', channel=0, note=74, velocity=104, time=12),\n",
       "  Message('note_on', channel=0, note=74, velocity=0, time=48),\n",
       "  Message('note_on', channel=0, note=74, velocity=104, time=12),\n",
       "  Message('note_on', channel=0, note=74, velocity=0, time=48),\n",
       "  Message('note_on', channel=0, note=79, velocity=104, time=12),\n",
       "  Message('note_on', channel=0, note=79, velocity=0, time=48),\n",
       "  Message('note_on', channel=0, note=78, velocity=104, time=12),\n",
       "  Message('note_on', channel=0, note=78, velocity=0, time=48),\n",
       "  Message('note_on', channel=0, note=79, velocity=104, time=12),\n",
       "  Message('note_on', channel=0, note=79, velocity=0, time=48),\n",
       "  Message('note_on', channel=0, note=74, velocity=104, time=12),\n",
       "  Message('note_on', channel=0, note=74, velocity=0, time=48),\n",
       "  Message('note_on', channel=0, note=71, velocity=104, time=12),\n",
       "  Message('note_on', channel=0, note=71, velocity=0, time=48),\n",
       "  Message('note_on', channel=0, note=67, velocity=104, time=12),\n",
       "  Message('note_on', channel=0, note=67, velocity=0, time=48),\n",
       "  Message('note_on', channel=0, note=69, velocity=104, time=12),\n",
       "  Message('note_on', channel=0, note=69, velocity=0, time=48),\n",
       "  Message('note_on', channel=0, note=71, velocity=104, time=12),\n",
       "  Message('note_on', channel=0, note=71, velocity=0, time=48),\n",
       "  Message('note_on', channel=0, note=64, velocity=104, time=12),\n",
       "  Message('note_on', channel=0, note=64, velocity=0, time=48),\n",
       "  Message('note_on', channel=0, note=74, velocity=104, time=12),\n",
       "  Message('note_on', channel=0, note=74, velocity=0, time=48),\n",
       "  Message('note_on', channel=0, note=72, velocity=104, time=12),\n",
       "  Message('note_on', channel=0, note=72, velocity=0, time=48),\n",
       "  Message('note_on', channel=0, note=71, velocity=104, time=12),\n",
       "  Message('note_on', channel=0, note=71, velocity=0, time=48),\n",
       "  Message('note_on', channel=0, note=69, velocity=104, time=12),\n",
       "  Message('note_on', channel=0, note=69, velocity=0, time=48),\n",
       "  Message('note_on', channel=0, note=67, velocity=104, time=12),\n",
       "  Message('note_on', channel=0, note=67, velocity=0, time=48),\n",
       "  Message('note_on', channel=0, note=62, velocity=104, time=12),\n",
       "  Message('note_on', channel=0, note=62, velocity=0, time=48),\n",
       "  Message('note_on', channel=0, note=67, velocity=104, time=12),\n",
       "  Message('note_on', channel=0, note=67, velocity=0, time=48),\n",
       "  Message('note_on', channel=0, note=66, velocity=104, time=12),\n",
       "  Message('note_on', channel=0, note=66, velocity=0, time=48),\n",
       "  Message('note_on', channel=0, note=67, velocity=104, time=12),\n",
       "  Message('note_on', channel=0, note=67, velocity=0, time=48),\n",
       "  Message('note_on', channel=0, note=71, velocity=104, time=12),\n",
       "  Message('note_on', channel=0, note=71, velocity=0, time=48),\n",
       "  Message('note_on', channel=0, note=74, velocity=104, time=12),\n",
       "  Message('note_on', channel=0, note=74, velocity=0, time=48),\n",
       "  Message('note_on', channel=0, note=79, velocity=104, time=12),\n",
       "  Message('note_on', channel=0, note=79, velocity=0, time=48),\n",
       "  Message('note_on', channel=0, note=74, velocity=104, time=12),\n",
       "  Message('note_on', channel=0, note=74, velocity=0, time=48),\n",
       "  Message('note_on', channel=0, note=71, velocity=104, time=12),\n",
       "  Message('note_on', channel=0, note=71, velocity=0, time=48),\n",
       "  Message('note_on', channel=0, note=67, velocity=104, time=12),\n",
       "  Message('note_on', channel=0, note=67, velocity=0, time=168),\n",
       "  Message('note_on', channel=0, note=66, velocity=94, time=13),\n",
       "  Message('note_on', channel=0, note=69, velocity=94, time=0),\n",
       "  Message('note_on', channel=0, note=66, velocity=0, time=336),\n",
       "  Message('note_on', channel=0, note=69, velocity=0, time=0),\n",
       "  Message('note_on', channel=0, note=68, velocity=94, time=24),\n",
       "  Message('note_on', channel=0, note=71, velocity=94, time=0),\n",
       "  Message('note_on', channel=0, note=62, velocity=94, time=0),\n",
       "  Message('note_on', channel=0, note=68, velocity=0, time=168),\n",
       "  Message('note_on', channel=0, note=71, velocity=0, time=0),\n",
       "  Message('note_on', channel=0, note=62, velocity=0, time=0),\n",
       "  Message('note_on', channel=0, note=72, velocity=94, time=12),\n",
       "  Message('note_on', channel=0, note=64, velocity=94, time=0),\n",
       "  Message('note_on', channel=0, note=69, velocity=94, time=0),\n",
       "  Message('note_on', channel=0, note=72, velocity=0, time=336),\n",
       "  Message('note_on', channel=0, note=64, velocity=0, time=0),\n",
       "  Message('note_on', channel=0, note=69, velocity=0, time=0),\n",
       "  Message('note_on', channel=0, note=69, velocity=94, time=24),\n",
       "  Message('note_on', channel=0, note=64, velocity=94, time=0),\n",
       "  Message('note_on', channel=0, note=72, velocity=94, time=0),\n",
       "  Message('note_on', channel=0, note=69, velocity=0, time=168),\n",
       "  Message('note_on', channel=0, note=64, velocity=0, time=0),\n",
       "  Message('note_on', channel=0, note=72, velocity=0, time=0),\n",
       "  Message('note_on', channel=0, note=71, velocity=94, time=12),\n",
       "  Message('note_on', channel=0, note=71, velocity=0, time=276),\n",
       "  Message('note_on', channel=0, note=72, velocity=94, time=24),\n",
       "  Message('note_on', channel=0, note=72, velocity=0, time=24),\n",
       "  Message('note_on', channel=0, note=74, velocity=94, time=6),\n",
       "  Message('note_on', channel=0, note=74, velocity=0, time=24),\n",
       "  Message('note_on', channel=0, note=71, velocity=94, time=6),\n",
       "  Message('note_on', channel=0, note=68, velocity=94, time=0),\n",
       "  Message('note_on', channel=0, note=71, velocity=0, time=168),\n",
       "  Message('note_on', channel=0, note=68, velocity=0, time=0),\n",
       "  Message('note_on', channel=0, note=69, velocity=94, time=12),\n",
       "  Message('note_on', channel=0, note=69, velocity=0, time=168),\n",
       "  Message('note_on', channel=0, note=69, velocity=94, time=12),\n",
       "  Message('note_on', channel=0, note=69, velocity=0, time=48),\n",
       "  Message('note_on', channel=0, note=76, velocity=94, time=12),\n",
       "  Message('note_on', channel=0, note=76, velocity=0, time=48),\n",
       "  Message('note_on', channel=0, note=74, velocity=94, time=12),\n",
       "  Message('note_on', channel=0, note=74, velocity=0, time=48),\n",
       "  Message('note_on', channel=0, note=74, velocity=94, time=12),\n",
       "  Message('note_on', channel=0, note=74, velocity=0, time=48),\n",
       "  Message('note_on', channel=0, note=77, velocity=94, time=12),\n",
       "  Message('note_on', channel=0, note=77, velocity=0, time=48),\n",
       "  Message('note_on', channel=0, note=76, velocity=94, time=12),\n",
       "  Message('note_on', channel=0, note=76, velocity=0, time=48),\n",
       "  Message('note_on', channel=0, note=76, velocity=94, time=12),\n",
       "  Message('note_on', channel=0, note=76, velocity=0, time=48),\n",
       "  Message('note_on', channel=0, note=81, velocity=94, time=12),\n",
       "  Message('note_on', channel=0, note=81, velocity=0, time=48),\n",
       "  Message('note_on', channel=0, note=80, velocity=94, time=12),\n",
       "  Message('note_on', channel=0, note=80, velocity=0, time=48),\n",
       "  Message('note_on', channel=0, note=81, velocity=94, time=12),\n",
       "  Message('note_on', channel=0, note=81, velocity=0, time=48),\n",
       "  Message('note_on', channel=0, note=76, velocity=94, time=12),\n",
       "  Message('note_on', channel=0, note=76, velocity=0, time=48),\n",
       "  Message('note_on', channel=0, note=72, velocity=94, time=12),\n",
       "  Message('note_on', channel=0, note=72, velocity=0, time=48),\n",
       "  Message('note_on', channel=0, note=69, velocity=94, time=12),\n",
       "  Message('note_on', channel=0, note=69, velocity=0, time=48),\n",
       "  Message('note_on', channel=0, note=71, velocity=94, time=12),\n",
       "  Message('note_on', channel=0, note=71, velocity=0, time=48),\n",
       "  Message('note_on', channel=0, note=72, velocity=94, time=12),\n",
       "  Message('note_on', channel=0, note=72, velocity=0, time=48),\n",
       "  Message('note_on', channel=0, note=77, velocity=94, time=12),\n",
       "  Message('note_on', channel=0, note=77, velocity=0, time=48),\n",
       "  Message('note_on', channel=0, note=76, velocity=94, time=12),\n",
       "  Message('note_on', channel=0, note=76, velocity=0, time=48),\n",
       "  Message('note_on', channel=0, note=74, velocity=94, time=12),\n",
       "  Message('note_on', channel=0, note=74, velocity=0, time=48),\n",
       "  Message('note_on', channel=0, note=72, velocity=94, time=12),\n",
       "  Message('note_on', channel=0, note=72, velocity=0, time=48),\n",
       "  Message('note_on', channel=0, note=71, velocity=94, time=12),\n",
       "  Message('note_on', channel=0, note=71, velocity=0, time=48),\n",
       "  Message('note_on', channel=0, note=69, velocity=94, time=12),\n",
       "  Message('note_on', channel=0, note=69, velocity=0, time=48),\n",
       "  Message('note_on', channel=0, note=64, velocity=94, time=12),\n",
       "  Message('note_on', channel=0, note=64, velocity=0, time=48),\n",
       "  Message('note_on', channel=0, note=69, velocity=94, time=12),\n",
       "  Message('note_on', channel=0, note=69, velocity=0, time=48),\n",
       "  Message('note_on', channel=0, note=68, velocity=94, time=12),\n",
       "  Message('note_on', channel=0, note=62, velocity=94, time=0),\n",
       "  Message('note_on', channel=0, note=68, velocity=0, time=48),\n",
       "  Message('note_on', channel=0, note=62, velocity=0, time=0),\n",
       "  Message('note_on', channel=0, note=64, velocity=94, time=12),\n",
       "  Message('note_on', channel=0, note=69, velocity=94, time=0),\n",
       "  Message('note_on', channel=0, note=72, velocity=94, time=0),\n",
       "  Message('note_on', channel=0, note=64, velocity=0, time=336),\n",
       "  Message('note_on', channel=0, note=69, velocity=0, time=0),\n",
       "  Message('note_on', channel=0, note=72, velocity=0, time=0),\n",
       "  Message('note_on', channel=0, note=74, velocity=94, time=24),\n",
       "  Message('note_on', channel=0, note=62, velocity=94, time=0),\n",
       "  Message('note_on', channel=0, note=67, velocity=94, time=0),\n",
       "  Message('note_on', channel=0, note=74, velocity=0, time=168),\n",
       "  Message('note_on', channel=0, note=62, velocity=0, time=0),\n",
       "  Message('note_on', channel=0, note=67, velocity=0, time=0),\n",
       "  Message('note_on', channel=0, note=72, velocity=94, time=12),\n",
       "  Message('note_on', channel=0, note=76, velocity=94, time=0),\n",
       "  Message('note_on', channel=0, note=72, velocity=0, time=336),\n",
       "  Message('note_on', channel=0, note=76, velocity=0, time=0),\n",
       "  Message('note_on', channel=0, note=72, velocity=94, time=24),\n",
       "  Message('note_on', channel=0, note=76, velocity=94, time=0),\n",
       "  Message('note_on', channel=0, note=67, velocity=94, time=0),\n",
       "  Message('note_on', channel=0, note=72, velocity=0, time=168),\n",
       "  Message('note_on', channel=0, note=76, velocity=0, time=0),\n",
       "  Message('note_on', channel=0, note=67, velocity=0, time=0),\n",
       "  Message('note_on', channel=0, note=74, velocity=94, time=12),\n",
       "  Message('note_on', channel=0, note=74, velocity=0, time=276),\n",
       "  Message('note_on', channel=0, note=76, velocity=94, time=24),\n",
       "  Message('note_on', channel=0, note=76, velocity=0, time=24),\n",
       "  Message('note_on', channel=0, note=77, velocity=94, time=6),\n",
       "  Message('note_on', channel=0, note=77, velocity=0, time=24),\n",
       "  Message('note_on', channel=0, note=74, velocity=94, time=6),\n",
       "  Message('note_on', channel=0, note=74, velocity=0, time=168),\n",
       "  Message('note_on', channel=0, note=64, velocity=94, time=12),\n",
       "  Message('note_on', channel=0, note=72, velocity=94, time=0),\n",
       "  Message('note_on', channel=0, note=64, velocity=0, time=168),\n",
       "  Message('note_on', channel=0, note=72, velocity=0, time=0),\n",
       "  Message('note_on', channel=0, note=72, velocity=94, time=12),\n",
       "  Message('note_on', channel=0, note=72, velocity=0, time=48),\n",
       "  Message('note_on', channel=0, note=76, velocity=94, time=12),\n",
       "  Message('note_on', channel=0, note=76, velocity=0, time=48),\n",
       "  Message('note_on', channel=0, note=72, velocity=94, time=12),\n",
       "  Message('note_on', channel=0, note=72, velocity=0, time=48),\n",
       "  Message('note_on', channel=0, note=67, velocity=94, time=12),\n",
       "  Message('note_on', channel=0, note=67, velocity=0, time=48),\n",
       "  Message('note_on', channel=0, note=69, velocity=94, time=12),\n",
       "  Message('note_on', channel=0, note=69, velocity=0, time=48),\n",
       "  Message('note_on', channel=0, note=70, velocity=94, time=12),\n",
       "  Message('note_on', channel=0, note=70, velocity=0, time=48),\n",
       "  Message('note_on', channel=0, note=69, velocity=94, time=12),\n",
       "  Message('note_on', channel=0, note=69, velocity=0, time=48),\n",
       "  Message('note_on', channel=0, note=72, velocity=94, time=12),\n",
       "  Message('note_on', channel=0, note=72, velocity=0, time=48),\n",
       "  Message('note_on', channel=0, note=71, velocity=94, time=12),\n",
       "  Message('note_on', channel=0, note=71, velocity=0, time=48),\n",
       "  Message('note_on', channel=0, note=72, velocity=94, time=12),\n",
       "  Message('note_on', channel=0, note=72, velocity=0, time=48),\n",
       "  Message('note_on', channel=0, note=69, velocity=94, time=12),\n",
       "  Message('note_on', channel=0, note=69, velocity=0, time=48),\n",
       "  Message('note_on', channel=0, note=66, velocity=94, time=12),\n",
       "  Message('note_on', channel=0, note=66, velocity=0, time=48),\n",
       "  Message('note_on', channel=0, note=62, velocity=94, time=12),\n",
       "  Message('note_on', channel=0, note=62, velocity=0, time=48),\n",
       "  Message('note_on', channel=0, note=64, velocity=94, time=12),\n",
       "  Message('note_on', channel=0, note=64, velocity=0, time=48),\n",
       "  Message('note_on', channel=0, note=66, velocity=94, time=12),\n",
       "  Message('note_on', channel=0, note=66, velocity=0, time=48),\n",
       "  Message('note_on', channel=0, note=64, velocity=94, time=12),\n",
       "  Message('note_on', channel=0, note=64, velocity=0, time=48),\n",
       "  Message('note_on', channel=0, note=60, velocity=94, time=12),\n",
       "  Message('note_on', channel=0, note=60, velocity=0, time=48),\n",
       "  Message('note_on', channel=0, note=62, velocity=94, time=12),\n",
       "  Message('note_on', channel=0, note=62, velocity=0, time=48),\n",
       "  Message('note_on', channel=0, note=64, velocity=94, time=12),\n",
       "  Message('note_on', channel=0, note=64, velocity=0, time=48),\n",
       "  Message('note_on', channel=0, note=67, velocity=94, time=12),\n",
       "  Message('note_on', channel=0, note=67, velocity=0, time=48),\n",
       "  Message('note_on', channel=0, note=66, velocity=94, time=12),\n",
       "  Message('note_on', channel=0, note=66, velocity=0, time=48),\n",
       "  Message('note_on', channel=0, note=67, velocity=94, time=12),\n",
       "  Message('note_on', channel=0, note=67, velocity=0, time=48),\n",
       "  Message('note_on', channel=0, note=71, velocity=94, time=12),\n",
       "  Message('note_on', channel=0, note=71, velocity=0, time=48),\n",
       "  Message('note_on', channel=0, note=69, velocity=94, time=12),\n",
       "  Message('note_on', channel=0, note=69, velocity=0, time=48),\n",
       "  Message('note_on', channel=0, note=67, velocity=94, time=12),\n",
       "  Message('note_on', channel=0, note=71, velocity=94, time=0),\n",
       "  Message('note_on', channel=0, note=67, velocity=0, time=336),\n",
       "  Message('note_on', channel=0, note=71, velocity=0, time=0),\n",
       "  Message('note_on', channel=0, note=64, velocity=94, time=24),\n",
       "  Message('note_on', channel=0, note=60, velocity=94, time=0),\n",
       "  Message('note_on', channel=0, note=67, velocity=94, time=0),\n",
       "  Message('note_on', channel=0, note=72, velocity=94, time=0),\n",
       "  Message('note_on', channel=0, note=64, velocity=0, time=168),\n",
       "  Message('note_on', channel=0, note=60, velocity=0, time=0),\n",
       "  Message('note_on', channel=0, note=67, velocity=0, time=0),\n",
       "  Message('note_on', channel=0, note=72, velocity=0, time=0),\n",
       "  Message('note_on', channel=0, note=74, velocity=94, time=12),\n",
       "  Message('note_on', channel=0, note=67, velocity=94, time=0),\n",
       "  Message('note_on', channel=0, note=62, velocity=94, time=0),\n",
       "  Message('note_on', channel=0, note=74, velocity=0, time=336),\n",
       "  Message('note_on', channel=0, note=67, velocity=0, time=0),\n",
       "  Message('note_on', channel=0, note=62, velocity=0, time=0),\n",
       "  Message('note_on', channel=0, note=74, velocity=94, time=24),\n",
       "  Message('note_on', channel=0, note=67, velocity=94, time=0),\n",
       "  Message('note_on', channel=0, note=62, velocity=94, time=0),\n",
       "  Message('note_on', channel=0, note=74, velocity=0, time=168),\n",
       "  Message('note_on', channel=0, note=67, velocity=0, time=0),\n",
       "  Message('note_on', channel=0, note=62, velocity=0, time=0),\n",
       "  Message('note_on', channel=0, note=69, velocity=94, time=12),\n",
       "  Message('note_on', channel=0, note=64, velocity=94, time=0),\n",
       "  Message('note_on', channel=0, note=72, velocity=94, time=0),\n",
       "  Message('note_on', channel=0, note=69, velocity=0, time=168),\n",
       "  Message('note_on', channel=0, note=64, velocity=0, time=0),\n",
       "  Message('note_on', channel=0, note=72, velocity=0, time=0),\n",
       "  Message('note_on', channel=0, note=71, velocity=94, time=12),\n",
       "  Message('note_on', channel=0, note=71, velocity=0, time=336),\n",
       "  Message('note_on', channel=0, note=66, velocity=94, time=24),\n",
       "  Message('note_on', channel=0, note=69, velocity=94, time=0),\n",
       "  Message('note_on', channel=0, note=66, velocity=0, time=48),\n",
       "  Message('note_on', channel=0, note=69, velocity=0, time=0),\n",
       "  Message('note_on', channel=0, note=62, velocity=94, time=12),\n",
       "  Message('note_on', channel=0, note=62, velocity=0, time=48),\n",
       "  Message('note_on', channel=0, note=64, velocity=94, time=12),\n",
       "  Message('note_on', channel=0, note=64, velocity=0, time=48),\n",
       "  Message('note_on', channel=0, note=66, velocity=94, time=12),\n",
       "  Message('note_on', channel=0, note=66, velocity=0, time=48),\n",
       "  Message('note_on', channel=0, note=69, velocity=94, time=12),\n",
       "  Message('note_on', channel=0, note=69, velocity=0, time=48),\n",
       "  Message('note_on', channel=0, note=67, velocity=94, time=12),\n",
       "  Message('note_on', channel=0, note=67, velocity=0, time=48),\n",
       "  Message('note_on', channel=0, note=69, velocity=94, time=12),\n",
       "  Message('note_on', channel=0, note=69, velocity=0, time=48),\n",
       "  Message('note_on', channel=0, note=72, velocity=94, time=12),\n",
       "  Message('note_on', channel=0, note=72, velocity=0, time=48),\n",
       "  Message('note_on', channel=0, note=71, velocity=94, time=12),\n",
       "  Message('note_on', channel=0, note=71, velocity=0, time=48),\n",
       "  Message('note_on', channel=0, note=72, velocity=94, time=12),\n",
       "  Message('note_on', channel=0, note=72, velocity=0, time=48),\n",
       "  Message('note_on', channel=0, note=69, velocity=94, time=12),\n",
       "  Message('note_on', channel=0, note=69, velocity=0, time=48),\n",
       "  Message('note_on', channel=0, note=66, velocity=94, time=12),\n",
       "  Message('note_on', channel=0, note=66, velocity=0, time=48),\n",
       "  Message('note_on', channel=0, note=62, velocity=94, time=12),\n",
       "  Message('note_on', channel=0, note=62, velocity=0, time=48),\n",
       "  Message('note_on', channel=0, note=66, velocity=94, time=12),\n",
       "  Message('note_on', channel=0, note=66, velocity=0, time=48),\n",
       "  Message('note_on', channel=0, note=69, velocity=94, time=12),\n",
       "  Message('note_on', channel=0, note=69, velocity=0, time=48),\n",
       "  Message('note_on', channel=0, note=72, velocity=94, time=12),\n",
       "  Message('note_on', channel=0, note=72, velocity=0, time=48),\n",
       "  Message('note_on', channel=0, note=71, velocity=94, time=12),\n",
       "  Message('note_on', channel=0, note=71, velocity=0, time=48),\n",
       "  Message('note_on', channel=0, note=69, velocity=94, time=12),\n",
       "  Message('note_on', channel=0, note=69, velocity=0, time=48),\n",
       "  Message('note_on', channel=0, note=67, velocity=94, time=12),\n",
       "  Message('note_on', channel=0, note=71, velocity=94, time=0),\n",
       "  Message('note_on', channel=0, note=67, velocity=0, time=336),\n",
       "  Message('note_on', channel=0, note=71, velocity=0, time=0),\n",
       "  Message('note_on', channel=0, note=72, velocity=94, time=24),\n",
       "  Message('note_on', channel=0, note=67, velocity=94, time=0),\n",
       "  Message('note_on', channel=0, note=64, velocity=94, time=0),\n",
       "  Message('note_on', channel=0, note=60, velocity=94, time=0),\n",
       "  Message('note_on', channel=0, note=72, velocity=0, time=168),\n",
       "  Message('note_on', channel=0, note=67, velocity=0, time=0),\n",
       "  Message('note_on', channel=0, note=64, velocity=0, time=0),\n",
       "  Message('note_on', channel=0, note=60, velocity=0, time=0),\n",
       "  Message('note_on', channel=0, note=74, velocity=94, time=12),\n",
       "  Message('note_on', channel=0, note=62, velocity=94, time=0),\n",
       "  Message('note_on', channel=0, note=67, velocity=94, time=0),\n",
       "  Message('note_on', channel=0, note=74, velocity=0, time=336),\n",
       "  Message('note_on', channel=0, note=62, velocity=0, time=0),\n",
       "  Message('note_on', channel=0, note=67, velocity=0, time=0),\n",
       "  Message('note_on', channel=0, note=67, velocity=94, time=24),\n",
       "  Message('note_on', channel=0, note=64, velocity=94, time=0),\n",
       "  Message('note_on', channel=0, note=71, velocity=94, time=0),\n",
       "  Message('note_on', channel=0, note=67, velocity=0, time=168),\n",
       "  Message('note_on', channel=0, note=64, velocity=0, time=0),\n",
       "  Message('note_on', channel=0, note=71, velocity=0, time=0),\n",
       "  Message('note_on', channel=0, note=69, velocity=94, time=12),\n",
       "  Message('note_on', channel=0, note=69, velocity=0, time=96),\n",
       "  Message('note_on', channel=0, note=71, velocity=94, time=24),\n",
       "  Message('note_on', channel=0, note=71, velocity=0, time=24),\n",
       "  Message('note_on', channel=0, note=72, velocity=94, time=6),\n",
       "  Message('note_on', channel=0, note=72, velocity=0, time=24),\n",
       "  Message('note_on', channel=0, note=71, velocity=94, time=6),\n",
       "  Message('note_on', channel=0, note=71, velocity=0, time=168),\n",
       "  Message('note_on', channel=0, note=69, velocity=94, time=12),\n",
       "  Message('note_on', channel=0, note=69, velocity=0, time=168),\n",
       "  Message('note_on', channel=0, note=67, velocity=94, time=12),\n",
       "  Message('note_on', channel=0, note=67, velocity=0, time=48),\n",
       "  Message('note_on', channel=0, note=71, velocity=94, time=12),\n",
       "  Message('note_on', channel=0, note=71, velocity=0, time=48),\n",
       "  Message('note_on', channel=0, note=74, velocity=94, time=12),\n",
       "  Message('note_on', channel=0, note=74, velocity=0, time=48),\n",
       "  Message('note_on', channel=0, note=79, velocity=94, time=12),\n",
       "  Message('note_on', channel=0, note=79, velocity=0, time=48),\n",
       "  Message('note_on', channel=0, note=74, velocity=94, time=12),\n",
       "  Message('note_on', channel=0, note=74, velocity=0, time=48),\n",
       "  Message('note_on', channel=0, note=71, velocity=94, time=12),\n",
       "  Message('note_on', channel=0, note=71, velocity=0, time=48),\n",
       "  Message('note_on', channel=0, note=67, velocity=94, time=12),\n",
       "  Message('note_on', channel=0, note=67, velocity=0, time=48),\n",
       "  Message('note_on', channel=0, note=71, velocity=94, time=12),\n",
       "  Message('note_on', channel=0, note=71, velocity=0, time=48),\n",
       "  Message('note_on', channel=0, note=74, velocity=94, time=12),\n",
       "  Message('note_on', channel=0, note=74, velocity=0, time=48),\n",
       "  Message('note_on', channel=0, note=77, velocity=94, time=12),\n",
       "  Message('note_on', channel=0, note=77, velocity=0, time=48),\n",
       "  Message('note_on', channel=0, note=74, velocity=94, time=12),\n",
       "  Message('note_on', channel=0, note=74, velocity=0, time=48),\n",
       "  Message('note_on', channel=0, note=71, velocity=94, time=12),\n",
       "  Message('note_on', channel=0, note=71, velocity=0, time=48),\n",
       "  Message('note_on', channel=0, note=67, velocity=94, time=12),\n",
       "  Message('note_on', channel=0, note=67, velocity=0, time=48),\n",
       "  Message('note_on', channel=0, note=71, velocity=94, time=12),\n",
       "  Message('note_on', channel=0, note=71, velocity=0, time=48),\n",
       "  Message('note_on', channel=0, note=74, velocity=94, time=12),\n",
       "  Message('note_on', channel=0, note=74, velocity=0, time=48),\n",
       "  Message('note_on', channel=0, note=76, velocity=94, time=12),\n",
       "  Message('note_on', channel=0, note=76, velocity=0, time=48),\n",
       "  Message('note_on', channel=0, note=72, velocity=94, time=12),\n",
       "  Message('note_on', channel=0, note=72, velocity=0, time=48),\n",
       "  Message('note_on', channel=0, note=69, velocity=94, time=12),\n",
       "  Message('note_on', channel=0, note=69, velocity=0, time=48),\n",
       "  Message('note_on', channel=0, note=66, velocity=94, time=12),\n",
       "  Message('note_on', channel=0, note=66, velocity=0, time=48),\n",
       "  Message('note_on', channel=0, note=69, velocity=94, time=12),\n",
       "  Message('note_on', channel=0, note=69, velocity=0, time=48),\n",
       "  Message('note_on', channel=0, note=72, velocity=94, time=12),\n",
       "  Message('note_on', channel=0, note=72, velocity=0, time=48),\n",
       "  Message('note_on', channel=0, note=74, velocity=94, time=12),\n",
       "  Message('note_on', channel=0, note=74, velocity=0, time=48),\n",
       "  Message('note_on', channel=0, note=71, velocity=94, time=12),\n",
       "  Message('note_on', channel=0, note=71, velocity=0, time=48),\n",
       "  Message('note_on', channel=0, note=67, velocity=94, time=12),\n",
       "  Message('note_on', channel=0, note=67, velocity=0, time=48),\n",
       "  Message('note_on', channel=0, note=64, velocity=94, time=12),\n",
       "  Message('note_on', channel=0, note=64, velocity=0, time=48),\n",
       "  Message('note_on', channel=0, note=67, velocity=94, time=12),\n",
       "  Message('note_on', channel=0, note=67, velocity=0, time=48),\n",
       "  Message('note_on', channel=0, note=71, velocity=94, time=12),\n",
       "  Message('note_on', channel=0, note=71, velocity=0, time=48),\n",
       "  Message('note_on', channel=0, note=72, velocity=94, time=12),\n",
       "  Message('note_on', channel=0, note=72, velocity=0, time=48),\n",
       "  Message('note_on', channel=0, note=69, velocity=94, time=12),\n",
       "  Message('note_on', channel=0, note=69, velocity=0, time=48),\n",
       "  Message('note_on', channel=0, note=66, velocity=94, time=12),\n",
       "  Message('note_on', channel=0, note=66, velocity=0, time=48),\n",
       "  Message('note_on', channel=0, note=62, velocity=94, time=12),\n",
       "  Message('note_on', channel=0, note=62, velocity=0, time=48),\n",
       "  Message('note_on', channel=0, note=66, velocity=94, time=12),\n",
       "  Message('note_on', channel=0, note=66, velocity=0, time=48),\n",
       "  Message('note_on', channel=0, note=69, velocity=94, time=12),\n",
       "  Message('note_on', channel=0, note=69, velocity=0, time=48),\n",
       "  Message('note_on', channel=0, note=72, velocity=94, time=12),\n",
       "  Message('note_on', channel=0, note=72, velocity=0, time=48),\n",
       "  Message('note_on', channel=0, note=71, velocity=94, time=12),\n",
       "  Message('note_on', channel=0, note=71, velocity=0, time=48),\n",
       "  Message('note_on', channel=0, note=69, velocity=94, time=12),\n",
       "  Message('note_on', channel=0, note=69, velocity=0, time=48),\n",
       "  Message('note_on', channel=0, note=71, velocity=94, time=12),\n",
       "  Message('note_on', channel=0, note=71, velocity=0, time=48),\n",
       "  Message('note_on', channel=0, note=67, velocity=94, time=12),\n",
       "  Message('note_on', channel=0, note=67, velocity=0, time=48),\n",
       "  Message('note_on', channel=0, note=69, velocity=94, time=12),\n",
       "  Message('note_on', channel=0, note=69, velocity=0, time=48),\n",
       "  Message('note_on', channel=0, note=71, velocity=94, time=12),\n",
       "  Message('note_on', channel=0, note=71, velocity=0, time=48),\n",
       "  Message('note_on', channel=0, note=74, velocity=94, time=12),\n",
       "  Message('note_on', channel=0, note=74, velocity=0, time=48),\n",
       "  Message('note_on', channel=0, note=72, velocity=94, time=12),\n",
       "  Message('note_on', channel=0, note=72, velocity=0, time=48),\n",
       "  Message('note_on', channel=0, note=72, velocity=94, time=12),\n",
       "  Message('note_on', channel=0, note=72, velocity=0, time=48),\n",
       "  Message('note_on', channel=0, note=76, velocity=94, time=12),\n",
       "  Message('note_on', channel=0, note=76, velocity=0, time=48),\n",
       "  Message('note_on', channel=0, note=74, velocity=94, time=12),\n",
       "  Message('note_on', channel=0, note=74, velocity=0, time=48),\n",
       "  Message('note_on', channel=0, note=74, velocity=94, time=12),\n",
       "  Message('note_on', channel=0, note=74, velocity=0, time=48),\n",
       "  Message('note_on', channel=0, note=79, velocity=94, time=12),\n",
       "  Message('note_on', channel=0, note=79, velocity=0, time=48),\n",
       "  Message('note_on', channel=0, note=78, velocity=94, time=12),\n",
       "  Message('note_on', channel=0, note=78, velocity=0, time=48),\n",
       "  Message('note_on', channel=0, note=79, velocity=94, time=12),\n",
       "  Message('note_on', channel=0, note=79, velocity=0, time=48),\n",
       "  Message('note_on', channel=0, note=74, velocity=94, time=12),\n",
       "  Message('note_on', channel=0, note=74, velocity=0, time=48),\n",
       "  Message('note_on', channel=0, note=71, velocity=94, time=12),\n",
       "  Message('note_on', channel=0, note=71, velocity=0, time=48),\n",
       "  Message('note_on', channel=0, note=67, velocity=94, time=12),\n",
       "  Message('note_on', channel=0, note=67, velocity=0, time=48),\n",
       "  Message('note_on', channel=0, note=69, velocity=94, time=12),\n",
       "  Message('note_on', channel=0, note=69, velocity=0, time=48),\n",
       "  Message('note_on', channel=0, note=71, velocity=94, time=12),\n",
       "  Message('note_on', channel=0, note=71, velocity=0, time=48),\n",
       "  Message('note_on', channel=0, note=72, velocity=94, time=12),\n",
       "  Message('note_on', channel=0, note=72, velocity=0, time=48),\n",
       "  Message('note_on', channel=0, note=74, velocity=94, time=12),\n",
       "  Message('note_on', channel=0, note=74, velocity=0, time=48),\n",
       "  Message('note_on', channel=0, note=76, velocity=94, time=12),\n",
       "  Message('note_on', channel=0, note=76, velocity=0, time=48),\n",
       "  Message('note_on', channel=0, note=74, velocity=94, time=12),\n",
       "  Message('note_on', channel=0, note=74, velocity=0, time=48),\n",
       "  Message('note_on', channel=0, note=72, velocity=94, time=12),\n",
       "  Message('note_on', channel=0, note=72, velocity=0, time=48),\n",
       "  Message('note_on', channel=0, note=71, velocity=94, time=12),\n",
       "  Message('note_on', channel=0, note=71, velocity=0, time=48),\n",
       "  Message('note_on', channel=0, note=69, velocity=94, time=12),\n",
       "  Message('note_on', channel=0, note=69, velocity=0, time=48),\n",
       "  Message('note_on', channel=0, note=71, velocity=94, time=12),\n",
       "  Message('note_on', channel=0, note=71, velocity=0, time=48),\n",
       "  Message('note_on', channel=0, note=67, velocity=94, time=12),\n",
       "  Message('note_on', channel=0, note=67, velocity=0, time=48),\n",
       "  Message('note_on', channel=0, note=66, velocity=94, time=12),\n",
       "  Message('note_on', channel=0, note=66, velocity=0, time=48),\n",
       "  Message('note_on', channel=0, note=67, velocity=94, time=12),\n",
       "  Message('note_on', channel=0, note=67, velocity=0, time=48),\n",
       "  Message('note_on', channel=0, note=69, velocity=94, time=12),\n",
       "  Message('note_on', channel=0, note=69, velocity=0, time=48),\n",
       "  Message('note_on', channel=0, note=62, velocity=94, time=12),\n",
       "  Message('note_on', channel=0, note=62, velocity=0, time=48),\n",
       "  Message('note_on', channel=0, note=66, velocity=94, time=12),\n",
       "  Message('note_on', channel=0, note=66, velocity=0, time=48),\n",
       "  Message('note_on', channel=0, note=69, velocity=94, time=12),\n",
       "  Message('note_on', channel=0, note=69, velocity=0, time=48),\n",
       "  Message('note_on', channel=0, note=72, velocity=94, time=12),\n",
       "  Message('note_on', channel=0, note=72, velocity=0, time=48),\n",
       "  Message('note_on', channel=0, note=71, velocity=94, time=12),\n",
       "  Message('note_on', channel=0, note=71, velocity=0, time=48),\n",
       "  Message('note_on', channel=0, note=69, velocity=94, time=12),\n",
       "  Message('note_on', channel=0, note=69, velocity=0, time=48),\n",
       "  Message('note_on', channel=0, note=71, velocity=94, time=12),\n",
       "  Message('note_on', channel=0, note=71, velocity=0, time=48),\n",
       "  Message('note_on', channel=0, note=67, velocity=94, time=12),\n",
       "  Message('note_on', channel=0, note=67, velocity=0, time=48),\n",
       "  Message('note_on', channel=0, note=69, velocity=94, time=12),\n",
       "  Message('note_on', channel=0, note=69, velocity=0, time=48),\n",
       "  Message('note_on', channel=0, note=71, velocity=94, time=12),\n",
       "  Message('note_on', channel=0, note=71, velocity=0, time=48),\n",
       "  Message('note_on', channel=0, note=74, velocity=94, time=12),\n",
       "  Message('note_on', channel=0, note=74, velocity=0, time=48),\n",
       "  Message('note_on', channel=0, note=72, velocity=94, time=12),\n",
       "  Message('note_on', channel=0, note=72, velocity=0, time=48),\n",
       "  Message('note_on', channel=0, note=72, velocity=94, time=12),\n",
       "  Message('note_on', channel=0, note=72, velocity=0, time=48),\n",
       "  Message('note_on', channel=0, note=76, velocity=94, time=12),\n",
       "  Message('note_on', channel=0, note=76, velocity=0, time=48),\n",
       "  Message('note_on', channel=0, note=74, velocity=94, time=12),\n",
       "  Message('note_on', channel=0, note=74, velocity=0, time=48),\n",
       "  Message('note_on', channel=0, note=74, velocity=94, time=12),\n",
       "  Message('note_on', channel=0, note=74, velocity=0, time=48),\n",
       "  Message('note_on', channel=0, note=79, velocity=94, time=12),\n",
       "  Message('note_on', channel=0, note=79, velocity=0, time=48),\n",
       "  Message('note_on', channel=0, note=78, velocity=94, time=12),\n",
       "  Message('note_on', channel=0, note=78, velocity=0, time=48),\n",
       "  Message('note_on', channel=0, note=79, velocity=94, time=12),\n",
       "  Message('note_on', channel=0, note=79, velocity=0, time=48),\n",
       "  Message('note_on', channel=0, note=74, velocity=94, time=12),\n",
       "  Message('note_on', channel=0, note=74, velocity=0, time=48),\n",
       "  Message('note_on', channel=0, note=71, velocity=94, time=12),\n",
       "  Message('note_on', channel=0, note=71, velocity=0, time=48),\n",
       "  Message('note_on', channel=0, note=67, velocity=94, time=12),\n",
       "  Message('note_on', channel=0, note=67, velocity=0, time=48),\n",
       "  Message('note_on', channel=0, note=69, velocity=94, time=12),\n",
       "  Message('note_on', channel=0, note=69, velocity=0, time=48),\n",
       "  Message('note_on', channel=0, note=71, velocity=94, time=12),\n",
       "  Message('note_on', channel=0, note=71, velocity=0, time=48),\n",
       "  Message('note_on', channel=0, note=64, velocity=94, time=12),\n",
       "  Message('note_on', channel=0, note=64, velocity=0, time=48),\n",
       "  Message('note_on', channel=0, note=74, velocity=94, time=12),\n",
       "  Message('note_on', channel=0, note=74, velocity=0, time=48),\n",
       "  Message('note_on', channel=0, note=72, velocity=94, time=12),\n",
       "  Message('note_on', channel=0, note=72, velocity=0, time=48),\n",
       "  Message('note_on', channel=0, note=71, velocity=94, time=12),\n",
       "  Message('note_on', channel=0, note=71, velocity=0, time=48),\n",
       "  Message('note_on', channel=0, note=69, velocity=94, time=12),\n",
       "  Message('note_on', channel=0, note=69, velocity=0, time=48),\n",
       "  Message('note_on', channel=0, note=67, velocity=94, time=12),\n",
       "  Message('note_on', channel=0, note=67, velocity=0, time=48),\n",
       "  Message('note_on', channel=0, note=62, velocity=94, time=12),\n",
       "  Message('note_on', channel=0, note=62, velocity=0, time=48),\n",
       "  Message('note_on', channel=0, note=67, velocity=94, time=12),\n",
       "  Message('note_on', channel=0, note=67, velocity=0, time=48),\n",
       "  Message('note_on', channel=0, note=66, velocity=94, time=12),\n",
       "  Message('note_on', channel=0, note=66, velocity=0, time=48),\n",
       "  Message('note_on', channel=0, note=62, velocity=94, time=12),\n",
       "  Message('note_on', channel=0, note=67, velocity=94, time=0),\n",
       "  Message('note_on', channel=0, note=59, velocity=94, time=0),\n",
       "  Message('note_on', channel=0, note=55, velocity=94, time=0),\n",
       "  Message('note_on', channel=0, note=62, velocity=0, time=456),\n",
       "  Message('note_on', channel=0, note=67, velocity=0, time=0),\n",
       "  Message('note_on', channel=0, note=59, velocity=0, time=0),\n",
       "  Message('note_on', channel=0, note=55, velocity=0, time=0),\n",
       "  MetaMessage('end_of_track', time=0)])"
      ]
     },
     "execution_count": 17,
     "metadata": {},
     "output_type": "execute_result"
    }
   ],
   "source": [
    "mid2.tracks[1]"
   ]
  },
  {
   "cell_type": "code",
   "execution_count": null,
   "id": "18626d91",
   "metadata": {},
   "outputs": [],
   "source": [
    "// pending"
   ]
  }
 ],
 "metadata": {
  "kernelspec": {
   "display_name": "Python 3 (ipykernel)",
   "language": "python",
   "name": "python3"
  },
  "language_info": {
   "codemirror_mode": {
    "name": "ipython",
    "version": 3
   },
   "file_extension": ".py",
   "mimetype": "text/x-python",
   "name": "python",
   "nbconvert_exporter": "python",
   "pygments_lexer": "ipython3",
   "version": "3.7.9"
  }
 },
 "nbformat": 4,
 "nbformat_minor": 5
}
