{
 "cells": [
  {
   "cell_type": "markdown",
   "id": "f42c6053",
   "metadata": {},
   "source": [
    "#### (1). 해야할 일\n",
    "- (1). Midifile -> Info Data 추출\n",
    "- (2). Audio -> Midifile로 Convert"
   ]
  },
  {
   "cell_type": "markdown",
   "id": "5f93cb73",
   "metadata": {},
   "source": [
    "### 1. MIDO\n",
    "- python 라이브러리"
   ]
  },
  {
   "cell_type": "markdown",
   "id": "20675b36",
   "metadata": {},
   "source": [
    "#### (1). MIDO 설치하기"
   ]
  },
  {
   "cell_type": "code",
   "execution_count": 2,
   "id": "e3dc4ad3",
   "metadata": {},
   "outputs": [],
   "source": [
    "# pip install mido"
   ]
  },
  {
   "cell_type": "markdown",
   "id": "58cb08a9",
   "metadata": {},
   "source": [
    "#### (2). MIDO 데이터 설명하기"
   ]
  },
  {
   "cell_type": "markdown",
   "id": "74dd9afc",
   "metadata": {},
   "source": [
    "- MidiFile(type=1, ticks_per_beat=480, tracks=[...]):\n",
    "    - type=1 : 여러 track 을 가질 수 있으며 각 트랙은 자체 음악 이벤트 세트를 가짐\n",
    "    - ticks_per_beat=480 : MIDI의 시간 단위인 tick 당 분해를 의미, 타이밍의 해상도\n",
    "    - tracks : MIDI 트랙\n",
    "        * MetaMessage('track_name') : 트랙의 이름\n",
    "        * MetaMessage('set_tempo', tempo=500000, .. ) : 트랙의 템포, 500,000 마이크로초당 4분음표\n",
    "        * MetaMessage('time_signature', numerator=4, denominator=4, ... ) : 트랙의 박자, 4/4 박자\n",
    "        * 이벤트 ( 3가지 )\n",
    "            - ▫️ Message('note_on', channel=0, note=45, velocity=78, time=64), \n",
    "                * (1). 'note on' : 음표를 연주, 소리를 On\n",
    "                * (2). channel = 0 : MIDI 채널을 나타냄, 0번 채널\n",
    "                * (3). note = 45 : 연주할 음표의 MIDI 노트 넘버\n",
    "                * (4). velocity = 78 : 연주되는 음표의 강도 또는 속도 // 강도에 대한 정보\n",
    "                * (5). time = 64 : MIDI 이벤트가 트랙에 삽입된 시간 ( 단위 : tick ), 64 tick 이후 발생\n",
    "                * (6). control = MIDI 컨트롤러 조작 (ex. control=0 // 전체 볼륨 조절 )\n",
    "                * (7). value = 컨트롤러에 할당된 값\n",
    "            - ▫️ Message('note_off', channel=0, note=45, velocity=64, time=152), // 연주 음표가 멈춤\n",
    "            - ▫️ Message('aftertouch', channel=0, value=4, time=291), // MIDI 키보드에서 손가락 압력을 감지"
   ]
  },
  {
   "cell_type": "markdown",
   "id": "0b542fc4",
   "metadata": {},
   "source": [
    "- MIDI 데이터\n",
    "    - 트랙 이름\n",
    "    - 트랙 정보 : ( 템포, 박자, 총 시간 ( tick ) )\n",
    "    - 소리 정보 : ( MIDI 노트 넘버, 채널, 강도, 시간 )\n",
    "    "
   ]
  },
  {
   "cell_type": "markdown",
   "id": "64244816",
   "metadata": {},
   "source": [
    "- 부가 설명\n",
    "    - MIDI 음악 이벤트\n",
    "        - note_on : 특정 음표를 연주하거나, 소리를 켜는 것, 보통 새로운 음표의 시작\n",
    "        - aftertouch : 이미 연주 중인 음표에 대한 압력 변화, \n",
    "    - track\n",
    "    - channel\n",
    "        - 16개의 채널을 가짐\n",
    "        - 하나의 트랙 내에서 (( 여러 채널 )) 을 사용하여, 동시에 여러 악기를 연주\n",
    "        - \n",
    "    - 악기 연주가 바뀌는 순간\n",
    "        - Message('program_change', channel=2, program=26, time=0),// program_change 로 알 수 있음\n",
    "        - program : 0 ~ 127\n",
    "        - General MIDI Level 1의 0부터 127까지의 MIDI 프로그램 넘버에 대응하는 일반적인 악기\n",
    "            - 0   Acoustic Grand Piano\n",
    "            - 4   Electric Piano 1\n",
    "            - 5   Electric Piano 2"
   ]
  },
  {
   "cell_type": "markdown",
   "id": "bab32286",
   "metadata": {},
   "source": [
    "- 관련 사이트\n",
    "    * https://newt.phys.unsw.edu.au/jw/notes.html"
   ]
  },
  {
   "cell_type": "markdown",
   "id": "f865c5d5",
   "metadata": {},
   "source": [
    "#### (3). MIDO 개발"
   ]
  },
  {
   "cell_type": "code",
   "execution_count": 3,
   "id": "a8de3a9a",
   "metadata": {},
   "outputs": [
    {
     "name": "stdout",
     "output_type": "stream",
     "text": [
      "MidiFile(type=1, ticks_per_beat=480, tracks=[\n",
      "  MidiTrack([\n",
      "    MetaMessage('track_name', name='Wikipedia MIDI (extended)', time=0),\n",
      "    MetaMessage('set_tempo', tempo=500000, time=0),\n",
      "    MetaMessage('time_signature', numerator=4, denominator=4, clocks_per_click=24, notated_32nd_notes_per_beat=8, time=0),\n",
      "    MetaMessage('end_of_track', time=0)]),\n",
      "  MidiTrack([\n",
      "    MetaMessage('track_name', name='Bass', time=0),\n",
      "    Message('control_change', channel=0, control=0, value=121, time=0),\n",
      "    Message('control_change', channel=0, control=32, value=0, time=0),\n",
      "    Message('program_change', channel=0, program=33, time=0),\n",
      "    Message('note_on', channel=0, note=45, velocity=78, time=0),\n",
      "    Message('note_off', channel=0, note=45, velocity=64, time=256),\n",
      "    Message('note_on', channel=0, note=48, velocity=81, time=464),\n",
      "    Message('note_on', channel=0, note=50, velocity=79, time=240),\n",
      "    Message('note_off', channel=0, note=48, velocity=64, time=4),\n",
      "    Message('note_on', channel=0, note=52, velocity=68, time=236),\n",
      "    Message('note_off', channel=0, note=50, velocity=64, time=16),\n",
      "    Message('note_off', channel=0, note=52, velocity=64, time=110),\n",
      "    Message('note_on', channel=0, note=45, velocity=82, time=354),\n",
      "    Message('note_off', channel=0, note=45, velocity=64, time=702),\n",
      "    Message('note_on', channel=0, note=43, velocity=62, time=18),\n",
      "    Message('note_off', channel=0, note=43, velocity=64, time=458),\n",
      "    Message('note_on', channel=0, note=45, velocity=80, time=22),\n",
      "    Message('note_off', channel=0, note=45, velocity=64, time=268),\n",
      "    Message('note_on', channel=0, note=45, velocity=88, time=692),\n",
      "    Message('note_off', channel=0, note=45, velocity=64, time=152),\n",
      "    Message('note_on', channel=0, note=48, velocity=77, time=568),\n",
      "    Message('note_off', channel=0, note=48, velocity=64, time=152),\n",
      "    Message('note_on', channel=0, note=50, velocity=90, time=88),\n",
      "    Message('note_on', channel=0, note=52, velocity=75, time=240),\n",
      "    Message('note_off', channel=0, note=50, velocity=64, time=2),\n",
      "    Message('note_off', channel=0, note=52, velocity=64, time=190),\n",
      "    Message('note_on', channel=0, note=45, velocity=75, time=288),\n",
      "    Message('note_on', channel=0, note=48, velocity=77, time=720),\n",
      "    Message('note_off', channel=0, note=45, velocity=64, time=8),\n",
      "    Message('note_off', channel=0, note=48, velocity=64, time=450),\n",
      "    Message('note_on', channel=0, note=45, velocity=78, time=22),\n",
      "    Message('note_off', channel=0, note=45, velocity=64, time=178),\n",
      "    Message('note_on', channel=0, note=45, velocity=80, time=782),\n",
      "    Message('note_off', channel=0, note=45, velocity=64, time=164),\n",
      "    Message('note_on', channel=0, note=45, velocity=78, time=76),\n",
      "    Message('note_off', channel=0, note=45, velocity=64, time=152),\n",
      "    Message('note_on', channel=0, note=43, velocity=80, time=328),\n",
      "    Message('note_off', channel=0, note=43, velocity=64, time=204),\n",
      "    Message('note_on', channel=0, note=45, velocity=76, time=36),\n",
      "    Message('note_off', channel=0, note=45, velocity=64, time=152),\n",
      "    Message('note_on', channel=0, note=45, velocity=78, time=88),\n",
      "    Message('note_off', channel=0, note=45, velocity=64, time=128),\n",
      "    Message('note_on', channel=0, note=43, velocity=75, time=352),\n",
      "    Message('note_off', channel=0, note=43, velocity=64, time=218),\n",
      "    Message('note_on', channel=0, note=45, velocity=76, time=22),\n",
      "    Message('note_off', channel=0, note=45, velocity=64, time=152),\n",
      "    Message('note_on', channel=0, note=45, velocity=76, time=88),\n",
      "    Message('note_off', channel=0, note=45, velocity=64, time=150),\n",
      "    Message('note_on', channel=0, note=48, velocity=70, time=330),\n",
      "    Message('note_on', channel=0, note=50, velocity=69, time=720),\n",
      "    Message('note_off', channel=0, note=48, velocity=64, time=8),\n",
      "    Message('note_off', channel=0, note=50, velocity=64, time=172),\n",
      "    Message('note_on', channel=0, note=45, velocity=79, time=300),\n",
      "    Message('note_off', channel=0, note=45, velocity=64, time=140),\n",
      "    Message('note_on', channel=0, note=45, velocity=78, time=100),\n",
      "    Message('note_off', channel=0, note=45, velocity=64, time=140),\n",
      "    Message('note_on', channel=0, note=43, velocity=74, time=340),\n",
      "    Message('note_off', channel=0, note=43, velocity=64, time=232),\n",
      "    Message('note_on', channel=0, note=45, velocity=75, time=8),\n",
      "    Message('note_off', channel=0, note=45, velocity=64, time=176),\n",
      "    Message('note_on', channel=0, note=45, velocity=78, time=64),\n",
      "    Message('note_off', channel=0, note=45, velocity=64, time=152),\n",
      "    Message('aftertouch', channel=0, value=4, time=291),\n",
      "    Message('note_on', channel=0, note=43, velocity=74, time=37),\n",
      "    Message('note_off', channel=0, note=43, velocity=64, time=216),\n",
      "    Message('note_on', channel=0, note=45, velocity=75, time=24),\n",
      "    Message('note_off', channel=0, note=45, velocity=64, time=164),\n",
      "    Message('note_on', channel=0, note=45, velocity=73, time=76),\n",
      "    Message('note_off', channel=0, note=45, velocity=64, time=216),\n",
      "    Message('note_on', channel=0, note=48, velocity=74, time=24),\n",
      "    Message('note_on', channel=0, note=45, velocity=76, time=240),\n",
      "    Message('note_off', channel=0, note=48, velocity=64, time=16),\n",
      "    Message('note_off', channel=0, note=45, velocity=64, time=752),\n",
      "    Message('note_on', channel=0, note=45, velocity=78, time=38832),\n",
      "    Message('note_off', channel=0, note=45, velocity=64, time=256),\n",
      "    Message('note_on', channel=0, note=48, velocity=81, time=464),\n",
      "    Message('note_on', channel=0, note=50, velocity=79, time=240),\n",
      "    Message('note_off', channel=0, note=48, velocity=64, time=4),\n",
      "    Message('note_on', channel=0, note=52, velocity=68, time=236),\n",
      "    Message('note_off', channel=0, note=50, velocity=64, time=16),\n",
      "    Message('note_off', channel=0, note=52, velocity=64, time=110),\n",
      "    Message('note_on', channel=0, note=45, velocity=82, time=354),\n",
      "    Message('note_off', channel=0, note=45, velocity=64, time=702),\n",
      "    Message('note_on', channel=0, note=43, velocity=62, time=18),\n",
      "    Message('note_off', channel=0, note=43, velocity=64, time=458),\n",
      "    Message('note_on', channel=0, note=45, velocity=80, time=22),\n",
      "    Message('note_off', channel=0, note=45, velocity=64, time=268),\n",
      "    Message('note_on', channel=0, note=45, velocity=88, time=692),\n",
      "    Message('note_off', channel=0, note=45, velocity=64, time=152),\n",
      "    Message('note_on', channel=0, note=48, velocity=77, time=568),\n",
      "    Message('note_off', channel=0, note=48, velocity=64, time=152),\n",
      "    Message('note_on', channel=0, note=50, velocity=90, time=88),\n",
      "    Message('note_on', channel=0, note=52, velocity=75, time=240),\n",
      "    Message('note_off', channel=0, note=50, velocity=64, time=2),\n",
      "    Message('note_off', channel=0, note=52, velocity=64, time=190),\n",
      "    Message('note_on', channel=0, note=45, velocity=75, time=288),\n",
      "    Message('note_on', channel=0, note=48, velocity=77, time=720),\n",
      "    Message('note_off', channel=0, note=45, velocity=64, time=8),\n",
      "    Message('note_off', channel=0, note=48, velocity=64, time=450),\n",
      "    Message('note_on', channel=0, note=45, velocity=78, time=22),\n",
      "    Message('note_off', channel=0, note=45, velocity=64, time=178),\n",
      "    Message('note_on', channel=0, note=45, velocity=80, time=782),\n",
      "    Message('note_off', channel=0, note=45, velocity=64, time=164),\n",
      "    Message('note_on', channel=0, note=45, velocity=78, time=76),\n",
      "    Message('note_off', channel=0, note=45, velocity=64, time=152),\n",
      "    Message('note_on', channel=0, note=43, velocity=80, time=328),\n",
      "    Message('note_off', channel=0, note=43, velocity=64, time=204),\n",
      "    Message('note_on', channel=0, note=45, velocity=76, time=36),\n",
      "    Message('note_off', channel=0, note=45, velocity=64, time=152),\n",
      "    Message('note_on', channel=0, note=45, velocity=78, time=88),\n",
      "    Message('note_off', channel=0, note=45, velocity=64, time=128),\n",
      "    Message('note_on', channel=0, note=43, velocity=75, time=352),\n",
      "    Message('note_off', channel=0, note=43, velocity=64, time=218),\n",
      "    Message('note_on', channel=0, note=45, velocity=76, time=22),\n",
      "    Message('note_off', channel=0, note=45, velocity=64, time=152),\n",
      "    Message('note_on', channel=0, note=45, velocity=76, time=88),\n",
      "    Message('note_off', channel=0, note=45, velocity=64, time=150),\n",
      "    Message('note_on', channel=0, note=48, velocity=70, time=330),\n",
      "    Message('note_on', channel=0, note=50, velocity=69, time=720),\n",
      "    Message('note_off', channel=0, note=48, velocity=64, time=8),\n",
      "    Message('note_off', channel=0, note=50, velocity=64, time=172),\n",
      "    Message('note_on', channel=0, note=45, velocity=79, time=300),\n",
      "    Message('note_off', channel=0, note=45, velocity=64, time=140),\n",
      "    Message('note_on', channel=0, note=45, velocity=78, time=100),\n",
      "    Message('note_off', channel=0, note=45, velocity=64, time=140),\n",
      "    Message('note_on', channel=0, note=43, velocity=74, time=340),\n",
      "    Message('note_off', channel=0, note=43, velocity=64, time=232),\n",
      "    Message('note_on', channel=0, note=45, velocity=75, time=8),\n",
      "    Message('note_off', channel=0, note=45, velocity=64, time=176),\n",
      "    Message('note_on', channel=0, note=45, velocity=78, time=64),\n",
      "    Message('note_off', channel=0, note=45, velocity=64, time=152),\n",
      "    Message('aftertouch', channel=0, value=4, time=291),\n",
      "    Message('note_on', channel=0, note=43, velocity=74, time=37),\n",
      "    Message('note_off', channel=0, note=43, velocity=64, time=216),\n",
      "    Message('note_on', channel=0, note=45, velocity=75, time=24),\n",
      "    Message('note_off', channel=0, note=45, velocity=64, time=164),\n",
      "    Message('note_on', channel=0, note=45, velocity=73, time=76),\n",
      "    Message('note_off', channel=0, note=45, velocity=64, time=216),\n",
      "    Message('note_on', channel=0, note=48, velocity=74, time=24),\n",
      "    Message('note_on', channel=0, note=45, velocity=76, time=240),\n",
      "    Message('note_off', channel=0, note=48, velocity=64, time=16),\n",
      "    Message('note_off', channel=0, note=45, velocity=64, time=752),\n",
      "    Message('note_on', channel=0, note=45, velocity=80, time=8112),\n",
      "    Message('note_off', channel=0, note=45, velocity=64, time=164),\n",
      "    Message('note_on', channel=0, note=45, velocity=78, time=76),\n",
      "    Message('note_off', channel=0, note=45, velocity=64, time=152),\n",
      "    Message('note_on', channel=0, note=43, velocity=80, time=328),\n",
      "    Message('note_off', channel=0, note=43, velocity=64, time=204),\n",
      "    Message('note_on', channel=0, note=45, velocity=76, time=36),\n",
      "    Message('note_off', channel=0, note=45, velocity=64, time=152),\n",
      "    Message('note_on', channel=0, note=45, velocity=78, time=88),\n",
      "    Message('note_off', channel=0, note=45, velocity=64, time=128),\n",
      "    Message('note_on', channel=0, note=43, velocity=75, time=352),\n",
      "    Message('note_off', channel=0, note=43, velocity=64, time=218),\n",
      "    Message('note_on', channel=0, note=45, velocity=76, time=22),\n",
      "    Message('note_off', channel=0, note=45, velocity=64, time=152),\n",
      "    Message('note_on', channel=0, note=45, velocity=76, time=88),\n",
      "    Message('note_off', channel=0, note=45, velocity=64, time=150),\n",
      "    Message('note_on', channel=0, note=48, velocity=70, time=330),\n",
      "    Message('note_on', channel=0, note=50, velocity=69, time=720),\n",
      "    Message('note_off', channel=0, note=48, velocity=64, time=8),\n",
      "    Message('note_off', channel=0, note=50, velocity=64, time=172),\n",
      "    Message('note_on', channel=0, note=45, velocity=79, time=300),\n",
      "    Message('note_off', channel=0, note=45, velocity=64, time=140),\n",
      "    Message('note_on', channel=0, note=45, velocity=78, time=100),\n",
      "    Message('note_off', channel=0, note=45, velocity=64, time=140),\n",
      "    Message('note_on', channel=0, note=43, velocity=74, time=340),\n",
      "    Message('note_off', channel=0, note=43, velocity=64, time=232),\n",
      "    Message('note_on', channel=0, note=45, velocity=75, time=8),\n",
      "    Message('note_off', channel=0, note=45, velocity=64, time=176),\n",
      "    Message('note_on', channel=0, note=45, velocity=78, time=64),\n",
      "    Message('note_off', channel=0, note=45, velocity=64, time=152),\n",
      "    Message('aftertouch', channel=0, value=4, time=291),\n",
      "    Message('note_on', channel=0, note=43, velocity=74, time=37),\n",
      "    Message('note_off', channel=0, note=43, velocity=64, time=216),\n",
      "    Message('note_on', channel=0, note=45, velocity=75, time=24),\n",
      "    Message('note_off', channel=0, note=45, velocity=64, time=164),\n",
      "    Message('note_on', channel=0, note=45, velocity=73, time=76),\n",
      "    Message('note_off', channel=0, note=45, velocity=64, time=216),\n",
      "    Message('note_on', channel=0, note=48, velocity=74, time=24),\n",
      "    Message('note_on', channel=0, note=45, velocity=76, time=240),\n",
      "    Message('note_off', channel=0, note=48, velocity=64, time=16),\n",
      "    Message('note_off', channel=0, note=45, velocity=64, time=752),\n",
      "    Message('note_on', channel=0, note=45, velocity=78, time=15792),\n",
      "    Message('note_off', channel=0, note=45, velocity=64, time=256),\n",
      "    Message('note_on', channel=0, note=48, velocity=81, time=464),\n",
      "    Message('note_on', channel=0, note=50, velocity=79, time=240),\n",
      "    Message('note_off', channel=0, note=48, velocity=64, time=4),\n",
      "    Message('note_on', channel=0, note=52, velocity=68, time=236),\n",
      "    Message('note_off', channel=0, note=50, velocity=64, time=16),\n",
      "    Message('note_off', channel=0, note=52, velocity=64, time=110),\n",
      "    Message('note_on', channel=0, note=45, velocity=82, time=354),\n",
      "    Message('note_off', channel=0, note=45, velocity=64, time=702),\n",
      "    Message('note_on', channel=0, note=43, velocity=62, time=18),\n",
      "    Message('note_off', channel=0, note=43, velocity=64, time=458),\n",
      "    Message('note_on', channel=0, note=45, velocity=80, time=22),\n",
      "    Message('note_off', channel=0, note=45, velocity=64, time=268),\n",
      "    Message('note_on', channel=0, note=45, velocity=88, time=692),\n",
      "    Message('note_off', channel=0, note=45, velocity=64, time=152),\n",
      "    Message('note_on', channel=0, note=48, velocity=77, time=568),\n",
      "    Message('note_off', channel=0, note=48, velocity=64, time=152),\n",
      "    Message('note_on', channel=0, note=50, velocity=90, time=88),\n",
      "    Message('note_on', channel=0, note=52, velocity=75, time=240),\n",
      "    Message('note_off', channel=0, note=50, velocity=64, time=2),\n",
      "    Message('note_off', channel=0, note=52, velocity=64, time=190),\n",
      "    Message('note_on', channel=0, note=45, velocity=75, time=288),\n",
      "    Message('note_on', channel=0, note=48, velocity=77, time=720),\n",
      "    Message('note_off', channel=0, note=45, velocity=64, time=8),\n",
      "    Message('note_off', channel=0, note=48, velocity=64, time=450),\n",
      "    Message('note_on', channel=0, note=45, velocity=78, time=22),\n",
      "    Message('note_off', channel=0, note=45, velocity=64, time=178),\n",
      "    Message('note_on', channel=0, note=45, velocity=80, time=782),\n",
      "    Message('note_off', channel=0, note=45, velocity=64, time=164),\n",
      "    Message('note_on', channel=0, note=45, velocity=78, time=76),\n",
      "    Message('note_off', channel=0, note=45, velocity=64, time=152),\n",
      "    Message('note_on', channel=0, note=43, velocity=80, time=328),\n",
      "    Message('note_off', channel=0, note=43, velocity=64, time=204),\n",
      "    Message('note_on', channel=0, note=45, velocity=76, time=36),\n",
      "    Message('note_off', channel=0, note=45, velocity=64, time=152),\n",
      "    Message('note_on', channel=0, note=45, velocity=78, time=88),\n",
      "    Message('note_off', channel=0, note=45, velocity=64, time=128),\n",
      "    Message('note_on', channel=0, note=43, velocity=75, time=352),\n",
      "    Message('note_off', channel=0, note=43, velocity=64, time=218),\n",
      "    Message('note_on', channel=0, note=45, velocity=76, time=22),\n",
      "    Message('note_off', channel=0, note=45, velocity=64, time=152),\n",
      "    Message('note_on', channel=0, note=45, velocity=76, time=88),\n",
      "    Message('note_off', channel=0, note=45, velocity=64, time=150),\n",
      "    Message('note_on', channel=0, note=48, velocity=70, time=330),\n",
      "    Message('note_on', channel=0, note=50, velocity=69, time=720),\n",
      "    Message('note_off', channel=0, note=48, velocity=64, time=8),\n",
      "    Message('note_off', channel=0, note=50, velocity=64, time=172),\n",
      "    Message('note_on', channel=0, note=45, velocity=79, time=300),\n",
      "    Message('note_off', channel=0, note=45, velocity=64, time=140),\n",
      "    Message('note_on', channel=0, note=45, velocity=78, time=100),\n",
      "    Message('note_off', channel=0, note=45, velocity=64, time=140),\n",
      "    Message('note_on', channel=0, note=43, velocity=74, time=340),\n",
      "    Message('note_off', channel=0, note=43, velocity=64, time=232),\n",
      "    Message('note_on', channel=0, note=45, velocity=75, time=8),\n",
      "    Message('note_off', channel=0, note=45, velocity=64, time=176),\n",
      "    Message('note_on', channel=0, note=45, velocity=78, time=64),\n",
      "    Message('note_off', channel=0, note=45, velocity=64, time=152),\n",
      "    Message('aftertouch', channel=0, value=4, time=291),\n",
      "    Message('note_on', channel=0, note=43, velocity=74, time=37),\n",
      "    Message('note_off', channel=0, note=43, velocity=64, time=216),\n",
      "    Message('note_on', channel=0, note=45, velocity=75, time=24),\n",
      "    Message('note_off', channel=0, note=45, velocity=64, time=164),\n",
      "    Message('note_on', channel=0, note=45, velocity=73, time=76),\n",
      "    Message('note_off', channel=0, note=45, velocity=64, time=216),\n",
      "    Message('note_on', channel=0, note=48, velocity=74, time=24),\n",
      "    Message('note_on', channel=0, note=45, velocity=76, time=240),\n",
      "    Message('note_off', channel=0, note=48, velocity=64, time=16),\n",
      "    Message('note_off', channel=0, note=45, velocity=64, time=752),\n",
      "    Message('note_on', channel=0, note=50, velocity=109, time=432),\n",
      "    Message('note_on', channel=0, note=50, velocity=0, time=117),\n",
      "    Message('note_on', channel=0, note=50, velocity=114, time=123),\n",
      "    Message('note_on', channel=0, note=48, velocity=114, time=480),\n",
      "    Message('note_on', channel=0, note=50, velocity=0, time=24),\n",
      "    Message('note_on', channel=0, note=48, velocity=0, time=174),\n",
      "    Message('note_on', channel=0, note=50, velocity=109, time=42),\n",
      "    Message('note_on', channel=0, note=50, velocity=0, time=103),\n",
      "    Message('note_on', channel=0, note=50, velocity=109, time=137),\n",
      "    Message('note_on', channel=0, note=50, velocity=0, time=478),\n",
      "    Message('note_on', channel=0, note=48, velocity=120, time=2),\n",
      "    Message('note_on', channel=0, note=48, velocity=0, time=211),\n",
      "    Message('note_on', channel=0, note=45, velocity=114, time=29),\n",
      "    Message('note_on', channel=0, note=45, velocity=0, time=111),\n",
      "    Message('note_on', channel=0, note=45, velocity=104, time=129),\n",
      "    Message('note_on', channel=0, note=43, velocity=120, time=480),\n",
      "    Message('note_on', channel=0, note=45, velocity=0, time=26),\n",
      "    Message('note_on', channel=0, note=43, velocity=0, time=142),\n",
      "    Message('note_on', channel=0, note=45, velocity=114, time=72),\n",
      "    Message('note_on', channel=0, note=45, velocity=0, time=120),\n",
      "    Message('note_on', channel=0, note=45, velocity=104, time=120),\n",
      "    Message('note_on', channel=0, note=45, velocity=0, time=221),\n",
      "    Message('note_on', channel=0, note=43, velocity=104, time=19),\n",
      "    Message('note_on', channel=0, note=43, velocity=0, time=223),\n",
      "    Message('note_on', channel=0, note=43, velocity=66, time=17),\n",
      "    Message('note_on', channel=0, note=43, velocity=0, time=148),\n",
      "    Message('note_on', channel=0, note=40, velocity=74, time=92),\n",
      "    Message('note_on', channel=0, note=40, velocity=0, time=130),\n",
      "    Message('note_on', channel=0, note=40, velocity=104, time=110),\n",
      "    Message('note_on', channel=0, note=40, velocity=0, time=368),\n",
      "    Message('note_on', channel=0, note=40, velocity=109, time=112),\n",
      "    Message('note_on', channel=0, note=40, velocity=0, time=177),\n",
      "    Message('note_on', channel=0, note=44, velocity=120, time=63),\n",
      "    Message('note_on', channel=0, note=44, velocity=0, time=189),\n",
      "    Message('note_on', channel=0, note=40, velocity=109, time=51),\n",
      "    Message('note_on', channel=0, note=40, velocity=0, time=143),\n",
      "    Message('note_on', channel=0, note=44, velocity=120, time=97),\n",
      "    Message('note_on', channel=0, note=44, velocity=0, time=228),\n",
      "    Message('note_on', channel=0, note=47, velocity=95, time=12),\n",
      "    Message('note_on', channel=0, note=47, velocity=0, time=159),\n",
      "    Message('note_on', channel=0, note=45, velocity=124, time=81),\n",
      "    Message('note_on', channel=0, note=45, velocity=0, time=143),\n",
      "    Message('note_on', channel=0, note=45, velocity=109, time=97),\n",
      "    Message('note_on', channel=0, note=45, velocity=0, time=166),\n",
      "    Message('note_on', channel=0, note=40, velocity=104, time=74),\n",
      "    Message('note_on', channel=0, note=40, velocity=0, time=181),\n",
      "    Message('note_on', channel=0, note=43, velocity=98, time=59),\n",
      "    Message('note_on', channel=0, note=43, velocity=0, time=183),\n",
      "    Message('note_on', channel=0, note=45, velocity=120, time=57),\n",
      "    Message('note_on', channel=0, note=45, velocity=0, time=277),\n",
      "    MetaMessage('end_of_track', time=0)]),\n",
      "  MidiTrack([\n",
      "    MetaMessage('track_name', name='Piano', time=0),\n",
      "    Message('control_change', channel=1, control=0, value=121, time=0),\n",
      "    Message('control_change', channel=1, control=32, value=0, time=0),\n",
      "    Message('program_change', channel=1, program=0, time=0),\n",
      "    Message('note_on', channel=1, note=45, velocity=124, time=69120),\n",
      "    Message('note_on', channel=1, note=57, velocity=120, time=0),\n",
      "    Message('note_on', channel=1, note=45, velocity=0, time=391),\n",
      "    Message('note_on', channel=1, note=57, velocity=0, time=81),\n",
      "    Message('note_on', channel=1, note=60, velocity=120, time=8),\n",
      "    Message('note_on', channel=1, note=64, velocity=114, time=0),\n",
      "    Message('note_on', channel=1, note=60, velocity=0, time=124),\n",
      "    Message('note_on', channel=1, note=64, velocity=0, time=2),\n",
      "    Message('note_on', channel=1, note=48, velocity=120, time=114),\n",
      "    Message('note_on', channel=1, note=60, velocity=114, time=0),\n",
      "    Message('note_on', channel=1, note=60, velocity=0, time=184),\n",
      "    Message('note_on', channel=1, note=48, velocity=0, time=38),\n",
      "    Message('note_on', channel=1, note=50, velocity=109, time=18),\n",
      "    Message('note_on', channel=1, note=62, velocity=109, time=0),\n",
      "    Message('note_on', channel=1, note=62, velocity=0, time=194),\n",
      "    Message('note_on', channel=1, note=50, velocity=0, time=24),\n",
      "    Message('note_on', channel=1, note=52, velocity=120, time=22),\n",
      "    Message('note_on', channel=1, note=60, velocity=124, time=0),\n",
      "    Message('note_on', channel=1, note=64, velocity=127, time=0),\n",
      "    Message('note_on', channel=1, note=64, velocity=0, time=150),\n",
      "    Message('note_on', channel=1, note=60, velocity=0, time=33),\n",
      "    Message('note_on', channel=1, note=52, velocity=0, time=2),\n",
      "    Message('note_on', channel=1, note=45, velocity=127, time=295),\n",
      "    Message('note_on', channel=1, note=57, velocity=98, time=0),\n",
      "    Message('note_on', channel=1, note=60, velocity=114, time=480),\n",
      "    Message('note_on', channel=1, note=64, velocity=109, time=0),\n",
      "    Message('note_on', channel=1, note=57, velocity=0, time=44),\n",
      "    Message('note_on', channel=1, note=64, velocity=0, time=122),\n",
      "    Message('note_on', channel=1, note=60, velocity=0, time=1),\n",
      "    Message('note_on', channel=1, note=45, velocity=0, time=24),\n",
      "    Message('note_on', channel=1, note=43, velocity=127, time=49),\n",
      "    Message('note_on', channel=1, note=55, velocity=124, time=0),\n",
      "    Message('note_on', channel=1, note=59, velocity=120, time=240),\n",
      "    Message('note_on', channel=1, note=62, velocity=114, time=0),\n",
      "    Message('note_on', channel=1, note=59, velocity=0, time=92),\n",
      "    Message('note_on', channel=1, note=62, velocity=0, time=30),\n",
      "    Message('note_on', channel=1, note=55, velocity=0, time=14),\n",
      "    Message('note_on', channel=1, note=45, velocity=127, time=104),\n",
      "    Message('note_on', channel=1, note=57, velocity=124, time=0),\n",
      "    Message('note_on', channel=1, note=43, velocity=0, time=38),\n",
      "    Message('note_on', channel=1, note=45, velocity=0, time=58),\n",
      "    Message('note_on', channel=1, note=57, velocity=0, time=43),\n",
      "    Message('note_on', channel=1, note=40, velocity=104, time=101),\n",
      "    Message('note_on', channel=1, note=52, velocity=109, time=0),\n",
      "    Message('note_on', channel=1, note=52, velocity=0, time=120),\n",
      "    Message('note_on', channel=1, note=40, velocity=0, time=8),\n",
      "    Message('note_on', channel=1, note=40, velocity=114, time=112),\n",
      "    Message('note_on', channel=1, note=52, velocity=109, time=0),\n",
      "    Message('note_on', channel=1, note=40, velocity=0, time=181),\n",
      "    Message('note_on', channel=1, note=52, velocity=0, time=20),\n",
      "    Message('note_on', channel=1, note=43, velocity=114, time=39),\n",
      "    Message('note_on', channel=1, note=55, velocity=120, time=0),\n",
      "    Message('note_on', channel=1, note=55, velocity=0, time=180),\n",
      "    Message('note_on', channel=1, note=43, velocity=0, time=12),\n",
      "    Message('note_on', channel=1, note=45, velocity=124, time=48),\n",
      "    Message('note_on', channel=1, note=57, velocity=120, time=0),\n",
      "    Message('note_on', channel=1, note=45, velocity=0, time=215),\n",
      "    Message('note_on', channel=1, note=57, velocity=0, time=221),\n",
      "    Message('note_on', channel=1, note=45, velocity=124, time=44),\n",
      "    Message('note_on', channel=1, note=60, velocity=124, time=0),\n",
      "    Message('note_on', channel=1, note=64, velocity=120, time=0),\n",
      "    Message('note_on', channel=1, note=60, velocity=0, time=126),\n",
      "    Message('note_on', channel=1, note=64, velocity=0, time=14),\n",
      "    Message('note_on', channel=1, note=48, velocity=114, time=100),\n",
      "    Message('note_on', channel=1, note=60, velocity=104, time=0),\n",
      "    Message('note_on', channel=1, note=45, velocity=0, time=4),\n",
      "    Message('note_on', channel=1, note=60, velocity=0, time=175),\n",
      "    Message('note_on', channel=1, note=48, velocity=0, time=35),\n",
      "    Message('note_on', channel=1, note=50, velocity=114, time=26),\n",
      "    Message('note_on', channel=1, note=62, velocity=109, time=0),\n",
      "    Message('note_on', channel=1, note=50, velocity=0, time=209),\n",
      "    Message('note_on', channel=1, note=62, velocity=0, time=7),\n",
      "    Message('note_on', channel=1, note=52, velocity=124, time=24),\n",
      "    Message('note_on', channel=1, note=60, velocity=114, time=0),\n",
      "    Message('note_on', channel=1, note=64, velocity=109, time=0),\n",
      "    Message('note_on', channel=1, note=52, velocity=0, time=131),\n",
      "    Message('note_on', channel=1, note=60, velocity=0, time=3),\n",
      "    Message('note_on', channel=1, note=64, velocity=0, time=0),\n",
      "    Message('aftertouch', channel=1, value=5, time=257),\n",
      "    Message('note_on', channel=1, note=45, velocity=120, time=89),\n",
      "    Message('note_on', channel=1, note=52, velocity=114, time=0),\n",
      "    Message('note_on', channel=1, note=57, velocity=120, time=0),\n",
      "    Message('note_on', channel=1, note=60, velocity=127, time=0),\n",
      "    Message('note_on', channel=1, note=45, velocity=0, time=223),\n",
      "    Message('note_on', channel=1, note=45, velocity=114, time=257),\n",
      "    Message('note_on', channel=1, note=52, velocity=0, time=95),\n",
      "    Message('note_on', channel=1, note=57, velocity=0, time=24),\n",
      "    Message('note_on', channel=1, note=60, velocity=0, time=73),\n",
      "    Message('note_on', channel=1, note=47, velocity=121, time=48),\n",
      "    Message('note_on', channel=1, note=52, velocity=114, time=0),\n",
      "    Message('note_on', channel=1, note=56, velocity=109, time=0),\n",
      "    Message('note_on', channel=1, note=59, velocity=127, time=0),\n",
      "    Message('note_on', channel=1, note=45, velocity=0, time=4),\n",
      "    Message('note_on', channel=1, note=59, velocity=0, time=128),\n",
      "    Message('note_on', channel=1, note=56, velocity=0, time=4),\n",
      "    Message('note_on', channel=1, note=52, velocity=0, time=29),\n",
      "    Message('note_on', channel=1, note=47, velocity=0, time=73),\n",
      "    Message('note_on', channel=1, note=45, velocity=127, time=242),\n",
      "    Message('note_on', channel=1, note=48, velocity=120, time=0),\n",
      "    Message('note_on', channel=1, note=52, velocity=120, time=0),\n",
      "    Message('note_on', channel=1, note=57, velocity=127, time=0),\n",
      "    Message('note_on', channel=1, note=57, velocity=0, time=251),\n",
      "    Message('note_on', channel=1, note=48, velocity=0, time=30),\n",
      "    Message('note_on', channel=1, note=52, velocity=0, time=3),\n",
      "    Message('note_on', channel=1, note=45, velocity=0, time=84),\n",
      "    Message('note_on', channel=1, note=60, velocity=114, time=592),\n",
      "    Message('note_on', channel=1, note=64, velocity=120, time=0),\n",
      "    Message('note_on', channel=1, note=69, velocity=124, time=0),\n",
      "    Message('note_on', channel=1, note=64, velocity=0, time=92),\n",
      "    Message('note_on', channel=1, note=60, velocity=0, time=5),\n",
      "    Message('note_on', channel=1, note=69, velocity=0, time=6),\n",
      "    Message('note_on', channel=1, note=60, velocity=109, time=137),\n",
      "    Message('note_on', channel=1, note=64, velocity=114, time=0),\n",
      "    Message('note_on', channel=1, note=69, velocity=120, time=0),\n",
      "    Message('note_on', channel=1, note=64, velocity=0, time=305),\n",
      "    Message('note_on', channel=1, note=60, velocity=0, time=64),\n",
      "    Message('note_on', channel=1, note=69, velocity=0, time=92),\n",
      "    Message('note_on', channel=1, note=59, velocity=98, time=19),\n",
      "    Message('note_on', channel=1, note=62, velocity=104, time=0),\n",
      "    Message('note_on', channel=1, note=67, velocity=114, time=0),\n",
      "    Message('note_on', channel=1, note=62, velocity=0, time=86),\n",
      "    Message('note_on', channel=1, note=59, velocity=0, time=30),\n",
      "    Message('note_on', channel=1, note=67, velocity=0, time=57),\n",
      "    Message('note_on', channel=1, note=60, velocity=104, time=67),\n",
      "    Message('note_on', channel=1, note=64, velocity=114, time=0),\n",
      "    Message('note_on', channel=1, note=69, velocity=120, time=0),\n",
      "    Message('note_on', channel=1, note=69, velocity=0, time=78),\n",
      "    Message('note_on', channel=1, note=60, velocity=0, time=9),\n",
      "    Message('note_on', channel=1, note=64, velocity=0, time=3),\n",
      "    Message('note_on', channel=1, note=60, velocity=109, time=150),\n",
      "    Message('note_on', channel=1, note=64, velocity=95, time=0),\n",
      "    Message('note_on', channel=1, note=69, velocity=120, time=0),\n",
      "    Message('note_on', channel=1, note=64, velocity=0, time=220),\n",
      "    Message('note_on', channel=1, note=60, velocity=0, time=56),\n",
      "    Message('note_on', channel=1, note=69, velocity=0, time=199),\n",
      "    Message('note_on', channel=1, note=59, velocity=98, time=5),\n",
      "    Message('note_on', channel=1, note=62, velocity=114, time=0),\n",
      "    Message('note_on', channel=1, note=67, velocity=109, time=0),\n",
      "    Message('note_on', channel=1, note=59, velocity=0, time=93),\n",
      "    Message('note_on', channel=1, note=62, velocity=0, time=19),\n",
      "    Message('note_on', channel=1, note=67, velocity=0, time=52),\n",
      "    Message('note_on', channel=1, note=60, velocity=114, time=76),\n",
      "    Message('note_on', channel=1, note=64, velocity=114, time=0),\n",
      "    Message('note_on', channel=1, note=69, velocity=124, time=0),\n",
      "    Message('note_on', channel=1, note=69, velocity=0, time=88),\n",
      "    Message('note_on', channel=1, note=64, velocity=0, time=17),\n",
      "    Message('note_on', channel=1, note=60, velocity=0, time=10),\n",
      "    Message('note_on', channel=1, note=60, velocity=104, time=125),\n",
      "    Message('note_on', channel=1, note=64, velocity=109, time=0),\n",
      "    Message('note_on', channel=1, note=69, velocity=124, time=0),\n",
      "    Message('note_on', channel=1, note=60, velocity=0, time=115),\n",
      "    Message('note_on', channel=1, note=69, velocity=0, time=9),\n",
      "    Message('note_on', channel=1, note=64, velocity=0, time=11),\n",
      "    Message('note_on', channel=1, note=64, velocity=114, time=345),\n",
      "    Message('note_on', channel=1, note=67, velocity=109, time=0),\n",
      "    Message('note_on', channel=1, note=72, velocity=127, time=0),\n",
      "    Message('note_on', channel=1, note=64, velocity=0, time=501),\n",
      "    Message('note_on', channel=1, note=67, velocity=0, time=93),\n",
      "    Message('note_on', channel=1, note=72, velocity=0, time=53),\n",
      "    Message('note_on', channel=1, note=68, velocity=88, time=73),\n",
      "    Message('note_on', channel=1, note=71, velocity=124, time=0),\n",
      "    Message('note_on', channel=1, note=74, velocity=127, time=0),\n",
      "    Message('note_on', channel=1, note=68, velocity=0, time=180),\n",
      "    Message('note_on', channel=1, note=74, velocity=0, time=53),\n",
      "    Message('note_on', channel=1, note=71, velocity=0, time=15),\n",
      "    Message('note_on', channel=1, note=60, velocity=98, time=232),\n",
      "    Message('note_on', channel=1, note=64, velocity=98, time=0),\n",
      "    Message('note_on', channel=1, note=69, velocity=114, time=0),\n",
      "    Message('note_on', channel=1, note=60, velocity=0, time=95),\n",
      "    Message('note_on', channel=1, note=69, velocity=0, time=7),\n",
      "    Message('note_on', channel=1, note=64, velocity=0, time=2),\n",
      "    Message('note_on', channel=1, note=60, velocity=104, time=136),\n",
      "    Message('note_on', channel=1, note=64, velocity=98, time=0),\n",
      "    Message('note_on', channel=1, note=69, velocity=104, time=0),\n",
      "    Message('note_on', channel=1, note=69, velocity=0, time=147),\n",
      "    Message('note_on', channel=1, note=60, velocity=0, time=0),\n",
      "    Message('note_on', channel=1, note=64, velocity=0, time=18),\n",
      "    Message('note_on', channel=1, note=59, velocity=98, time=315),\n",
      "    Message('note_on', channel=1, note=62, velocity=109, time=0),\n",
      "    Message('note_on', channel=1, note=67, velocity=114, time=0),\n",
      "    Message('note_on', channel=1, note=59, velocity=0, time=205),\n",
      "    Message('note_on', channel=1, note=67, velocity=0, time=26),\n",
      "    Message('note_on', channel=1, note=60, velocity=104, time=9),\n",
      "    Message('note_on', channel=1, note=64, velocity=104, time=0),\n",
      "    Message('note_on', channel=1, note=69, velocity=114, time=0),\n",
      "    Message('note_on', channel=1, note=62, velocity=0, time=43),\n",
      "    Message('note_on', channel=1, note=60, velocity=0, time=30),\n",
      "    Message('note_on', channel=1, note=69, velocity=0, time=3),\n",
      "    Message('note_on', channel=1, note=64, velocity=0, time=15),\n",
      "    Message('note_on', channel=1, note=60, velocity=109, time=149),\n",
      "    Message('note_on', channel=1, note=64, velocity=109, time=0),\n",
      "    Message('note_on', channel=1, note=69, velocity=120, time=0),\n",
      "    Message('note_on', channel=1, note=60, velocity=0, time=196),\n",
      "    Message('note_on', channel=1, note=69, velocity=0, time=2),\n",
      "    Message('note_on', channel=1, note=64, velocity=0, time=18),\n",
      "    Message('aftertouch', channel=1, value=3, time=168),\n",
      "    Message('aftertouch', channel=1, value=4, time=62),\n",
      "    Message('note_on', channel=1, note=59, velocity=109, time=34),\n",
      "    Message('note_on', channel=1, note=62, velocity=114, time=0),\n",
      "    Message('note_on', channel=1, note=67, velocity=109, time=0),\n",
      "    Message('note_on', channel=1, note=59, velocity=0, time=223),\n",
      "    Message('note_on', channel=1, note=67, velocity=0, time=14),\n",
      "    Message('note_on', channel=1, note=60, velocity=88, time=3),\n",
      "    Message('note_on', channel=1, note=64, velocity=88, time=0),\n",
      "    Message('note_on', channel=1, note=69, velocity=124, time=0),\n",
      "    Message('note_on', channel=1, note=62, velocity=0, time=20),\n",
      "    Message('note_on', channel=1, note=69, velocity=0, time=63),\n",
      "    Message('note_on', channel=1, note=64, velocity=0, time=11),\n",
      "    Message('note_on', channel=1, note=60, velocity=0, time=3),\n",
      "    Message('note_on', channel=1, note=60, velocity=91, time=23),\n",
      "    Message('note_on', channel=1, note=69, velocity=104, time=0),\n",
      "    Message('note_on', channel=1, note=64, velocity=98, time=120),\n",
      "    Message('note_on', channel=1, note=60, velocity=0, time=5),\n",
      "    Message('note_on', channel=1, note=69, velocity=0, time=10),\n",
      "    Message('note_on', channel=1, note=64, velocity=0, time=79),\n",
      "    Message('note_on', channel=1, note=64, velocity=120, time=146),\n",
      "    Message('note_on', channel=1, note=69, velocity=120, time=0),\n",
      "    Message('note_on', channel=1, note=72, velocity=120, time=0),\n",
      "    Message('note_on', channel=1, note=64, velocity=0, time=179),\n",
      "    Message('note_on', channel=1, note=72, velocity=0, time=22),\n",
      "    Message('note_on', channel=1, note=69, velocity=0, time=4),\n",
      "    Message('note_on', channel=1, note=60, velocity=120, time=35),\n",
      "    Message('note_on', channel=1, note=64, velocity=120, time=0),\n",
      "    Message('note_on', channel=1, note=69, velocity=127, time=0),\n",
      "    Message('note_on', channel=1, note=64, velocity=0, time=334),\n",
      "    Message('note_on', channel=1, note=60, velocity=0, time=8),\n",
      "    Message('note_on', channel=1, note=69, velocity=0, time=13),\n",
      "    Message('note_on', channel=1, note=45, velocity=124, time=16205),\n",
      "    Message('note_on', channel=1, note=57, velocity=120, time=0),\n",
      "    Message('note_on', channel=1, note=45, velocity=0, time=391),\n",
      "    Message('note_on', channel=1, note=57, velocity=0, time=81),\n",
      "    Message('note_on', channel=1, note=60, velocity=120, time=8),\n",
      "    Message('note_on', channel=1, note=64, velocity=114, time=0),\n",
      "    Message('note_on', channel=1, note=60, velocity=0, time=124),\n",
      "    Message('note_on', channel=1, note=64, velocity=0, time=2),\n",
      "    Message('note_on', channel=1, note=48, velocity=120, time=114),\n",
      "    Message('note_on', channel=1, note=60, velocity=114, time=0),\n",
      "    Message('note_on', channel=1, note=60, velocity=0, time=184),\n",
      "    Message('note_on', channel=1, note=48, velocity=0, time=38),\n",
      "    Message('note_on', channel=1, note=50, velocity=109, time=18),\n",
      "    Message('note_on', channel=1, note=62, velocity=109, time=0),\n",
      "    Message('note_on', channel=1, note=62, velocity=0, time=194),\n",
      "    Message('note_on', channel=1, note=50, velocity=0, time=24),\n",
      "    Message('note_on', channel=1, note=52, velocity=120, time=22),\n",
      "    Message('note_on', channel=1, note=60, velocity=124, time=0),\n",
      "    Message('note_on', channel=1, note=64, velocity=127, time=0),\n",
      "    Message('note_on', channel=1, note=64, velocity=0, time=150),\n",
      "    Message('note_on', channel=1, note=60, velocity=0, time=33),\n",
      "    Message('note_on', channel=1, note=52, velocity=0, time=2),\n",
      "    Message('note_on', channel=1, note=45, velocity=127, time=295),\n",
      "    Message('note_on', channel=1, note=57, velocity=98, time=0),\n",
      "    Message('note_on', channel=1, note=60, velocity=114, time=480),\n",
      "    Message('note_on', channel=1, note=64, velocity=109, time=0),\n",
      "    Message('note_on', channel=1, note=57, velocity=0, time=44),\n",
      "    Message('note_on', channel=1, note=64, velocity=0, time=122),\n",
      "    Message('note_on', channel=1, note=60, velocity=0, time=1),\n",
      "    Message('note_on', channel=1, note=45, velocity=0, time=24),\n",
      "    Message('note_on', channel=1, note=43, velocity=127, time=49),\n",
      "    Message('note_on', channel=1, note=55, velocity=124, time=0),\n",
      "    Message('note_on', channel=1, note=59, velocity=120, time=240),\n",
      "    Message('note_on', channel=1, note=62, velocity=114, time=0),\n",
      "    Message('note_on', channel=1, note=59, velocity=0, time=92),\n",
      "    Message('note_on', channel=1, note=62, velocity=0, time=30),\n",
      "    Message('note_on', channel=1, note=55, velocity=0, time=14),\n",
      "    Message('note_on', channel=1, note=45, velocity=127, time=104),\n",
      "    Message('note_on', channel=1, note=57, velocity=124, time=0),\n",
      "    Message('note_on', channel=1, note=43, velocity=0, time=38),\n",
      "    Message('note_on', channel=1, note=45, velocity=0, time=58),\n",
      "    Message('note_on', channel=1, note=57, velocity=0, time=43),\n",
      "    Message('note_on', channel=1, note=40, velocity=104, time=101),\n",
      "    Message('note_on', channel=1, note=52, velocity=109, time=0),\n",
      "    Message('note_on', channel=1, note=52, velocity=0, time=120),\n",
      "    Message('note_on', channel=1, note=40, velocity=0, time=8),\n",
      "    Message('note_on', channel=1, note=40, velocity=114, time=112),\n",
      "    Message('note_on', channel=1, note=52, velocity=109, time=0),\n",
      "    Message('note_on', channel=1, note=40, velocity=0, time=181),\n",
      "    Message('note_on', channel=1, note=52, velocity=0, time=20),\n",
      "    Message('note_on', channel=1, note=43, velocity=114, time=39),\n",
      "    Message('note_on', channel=1, note=55, velocity=120, time=0),\n",
      "    Message('note_on', channel=1, note=55, velocity=0, time=180),\n",
      "    Message('note_on', channel=1, note=43, velocity=0, time=12),\n",
      "    Message('note_on', channel=1, note=45, velocity=124, time=48),\n",
      "    Message('note_on', channel=1, note=57, velocity=120, time=0),\n",
      "    Message('note_on', channel=1, note=45, velocity=0, time=215),\n",
      "    Message('note_on', channel=1, note=57, velocity=0, time=221),\n",
      "    Message('note_on', channel=1, note=45, velocity=124, time=44),\n",
      "    Message('note_on', channel=1, note=60, velocity=124, time=0),\n",
      "    Message('note_on', channel=1, note=64, velocity=120, time=0),\n",
      "    Message('note_on', channel=1, note=60, velocity=0, time=126),\n",
      "    Message('note_on', channel=1, note=64, velocity=0, time=14),\n",
      "    Message('note_on', channel=1, note=48, velocity=114, time=100),\n",
      "    Message('note_on', channel=1, note=60, velocity=104, time=0),\n",
      "    Message('note_on', channel=1, note=45, velocity=0, time=4),\n",
      "    Message('note_on', channel=1, note=60, velocity=0, time=175),\n",
      "    Message('note_on', channel=1, note=48, velocity=0, time=35),\n",
      "    Message('note_on', channel=1, note=50, velocity=114, time=26),\n",
      "    Message('note_on', channel=1, note=62, velocity=109, time=0),\n",
      "    Message('note_on', channel=1, note=50, velocity=0, time=209),\n",
      "    Message('note_on', channel=1, note=62, velocity=0, time=7),\n",
      "    Message('note_on', channel=1, note=52, velocity=124, time=24),\n",
      "    Message('note_on', channel=1, note=60, velocity=114, time=0),\n",
      "    Message('note_on', channel=1, note=64, velocity=109, time=0),\n",
      "    Message('note_on', channel=1, note=52, velocity=0, time=131),\n",
      "    Message('note_on', channel=1, note=60, velocity=0, time=3),\n",
      "    Message('note_on', channel=1, note=64, velocity=0, time=0),\n",
      "    Message('aftertouch', channel=1, value=5, time=257),\n",
      "    Message('note_on', channel=1, note=45, velocity=120, time=89),\n",
      "    Message('note_on', channel=1, note=52, velocity=114, time=0),\n",
      "    Message('note_on', channel=1, note=57, velocity=120, time=0),\n",
      "    Message('note_on', channel=1, note=60, velocity=127, time=0),\n",
      "    Message('note_on', channel=1, note=45, velocity=0, time=223),\n",
      "    Message('note_on', channel=1, note=45, velocity=114, time=257),\n",
      "    Message('note_on', channel=1, note=52, velocity=0, time=95),\n",
      "    Message('note_on', channel=1, note=57, velocity=0, time=24),\n",
      "    Message('note_on', channel=1, note=60, velocity=0, time=73),\n",
      "    Message('note_on', channel=1, note=47, velocity=121, time=48),\n",
      "    Message('note_on', channel=1, note=52, velocity=114, time=0),\n",
      "    Message('note_on', channel=1, note=56, velocity=109, time=0),\n",
      "    Message('note_on', channel=1, note=59, velocity=127, time=0),\n",
      "    Message('note_on', channel=1, note=45, velocity=0, time=4),\n",
      "    Message('note_on', channel=1, note=59, velocity=0, time=128),\n",
      "    Message('note_on', channel=1, note=56, velocity=0, time=4),\n",
      "    Message('note_on', channel=1, note=52, velocity=0, time=29),\n",
      "    Message('note_on', channel=1, note=47, velocity=0, time=73),\n",
      "    Message('note_on', channel=1, note=45, velocity=127, time=242),\n",
      "    Message('note_on', channel=1, note=48, velocity=120, time=0),\n",
      "    Message('note_on', channel=1, note=52, velocity=120, time=0),\n",
      "    Message('note_on', channel=1, note=57, velocity=127, time=0),\n",
      "    Message('note_on', channel=1, note=57, velocity=0, time=251),\n",
      "    Message('note_on', channel=1, note=48, velocity=0, time=30),\n",
      "    Message('note_on', channel=1, note=52, velocity=0, time=3),\n",
      "    Message('note_on', channel=1, note=45, velocity=0, time=84),\n",
      "    Message('note_on', channel=1, note=60, velocity=114, time=592),\n",
      "    Message('note_on', channel=1, note=64, velocity=120, time=0),\n",
      "    Message('note_on', channel=1, note=69, velocity=124, time=0),\n",
      "    Message('note_on', channel=1, note=64, velocity=0, time=92),\n",
      "    Message('note_on', channel=1, note=60, velocity=0, time=5),\n",
      "    Message('note_on', channel=1, note=69, velocity=0, time=6),\n",
      "    Message('note_on', channel=1, note=60, velocity=109, time=137),\n",
      "    Message('note_on', channel=1, note=64, velocity=114, time=0),\n",
      "    Message('note_on', channel=1, note=69, velocity=120, time=0),\n",
      "    Message('note_on', channel=1, note=64, velocity=0, time=305),\n",
      "    Message('note_on', channel=1, note=60, velocity=0, time=64),\n",
      "    Message('note_on', channel=1, note=69, velocity=0, time=92),\n",
      "    Message('note_on', channel=1, note=59, velocity=98, time=19),\n",
      "    Message('note_on', channel=1, note=62, velocity=104, time=0),\n",
      "    Message('note_on', channel=1, note=67, velocity=114, time=0),\n",
      "    Message('note_on', channel=1, note=62, velocity=0, time=86),\n",
      "    Message('note_on', channel=1, note=59, velocity=0, time=30),\n",
      "    Message('note_on', channel=1, note=67, velocity=0, time=57),\n",
      "    Message('note_on', channel=1, note=60, velocity=104, time=67),\n",
      "    Message('note_on', channel=1, note=64, velocity=114, time=0),\n",
      "    Message('note_on', channel=1, note=69, velocity=120, time=0),\n",
      "    Message('note_on', channel=1, note=69, velocity=0, time=78),\n",
      "    Message('note_on', channel=1, note=60, velocity=0, time=9),\n",
      "    Message('note_on', channel=1, note=64, velocity=0, time=3),\n",
      "    Message('note_on', channel=1, note=60, velocity=109, time=150),\n",
      "    Message('note_on', channel=1, note=64, velocity=95, time=0),\n",
      "    Message('note_on', channel=1, note=69, velocity=120, time=0),\n",
      "    Message('note_on', channel=1, note=64, velocity=0, time=220),\n",
      "    Message('note_on', channel=1, note=60, velocity=0, time=56),\n",
      "    Message('note_on', channel=1, note=69, velocity=0, time=199),\n",
      "    Message('note_on', channel=1, note=59, velocity=98, time=5),\n",
      "    Message('note_on', channel=1, note=62, velocity=114, time=0),\n",
      "    Message('note_on', channel=1, note=67, velocity=109, time=0),\n",
      "    Message('note_on', channel=1, note=59, velocity=0, time=93),\n",
      "    Message('note_on', channel=1, note=62, velocity=0, time=19),\n",
      "    Message('note_on', channel=1, note=67, velocity=0, time=52),\n",
      "    Message('note_on', channel=1, note=60, velocity=114, time=76),\n",
      "    Message('note_on', channel=1, note=64, velocity=114, time=0),\n",
      "    Message('note_on', channel=1, note=69, velocity=124, time=0),\n",
      "    Message('note_on', channel=1, note=69, velocity=0, time=88),\n",
      "    Message('note_on', channel=1, note=64, velocity=0, time=17),\n",
      "    Message('note_on', channel=1, note=60, velocity=0, time=10),\n",
      "    Message('note_on', channel=1, note=60, velocity=104, time=125),\n",
      "    Message('note_on', channel=1, note=64, velocity=109, time=0),\n",
      "    Message('note_on', channel=1, note=69, velocity=124, time=0),\n",
      "    Message('note_on', channel=1, note=60, velocity=0, time=115),\n",
      "    Message('note_on', channel=1, note=69, velocity=0, time=9),\n",
      "    Message('note_on', channel=1, note=64, velocity=0, time=11),\n",
      "    Message('note_on', channel=1, note=64, velocity=114, time=345),\n",
      "    Message('note_on', channel=1, note=67, velocity=109, time=0),\n",
      "    Message('note_on', channel=1, note=72, velocity=127, time=0),\n",
      "    Message('note_on', channel=1, note=64, velocity=0, time=501),\n",
      "    Message('note_on', channel=1, note=67, velocity=0, time=93),\n",
      "    Message('note_on', channel=1, note=72, velocity=0, time=53),\n",
      "    Message('note_on', channel=1, note=68, velocity=88, time=73),\n",
      "    Message('note_on', channel=1, note=71, velocity=124, time=0),\n",
      "    Message('note_on', channel=1, note=74, velocity=127, time=0),\n",
      "    Message('note_on', channel=1, note=68, velocity=0, time=180),\n",
      "    Message('note_on', channel=1, note=74, velocity=0, time=53),\n",
      "    Message('note_on', channel=1, note=71, velocity=0, time=15),\n",
      "    Message('note_on', channel=1, note=60, velocity=98, time=232),\n",
      "    Message('note_on', channel=1, note=64, velocity=98, time=0),\n",
      "    Message('note_on', channel=1, note=69, velocity=114, time=0),\n",
      "    Message('note_on', channel=1, note=60, velocity=0, time=95),\n",
      "    Message('note_on', channel=1, note=69, velocity=0, time=7),\n",
      "    Message('note_on', channel=1, note=64, velocity=0, time=2),\n",
      "    Message('note_on', channel=1, note=60, velocity=104, time=136),\n",
      "    Message('note_on', channel=1, note=64, velocity=98, time=0),\n",
      "    Message('note_on', channel=1, note=69, velocity=104, time=0),\n",
      "    Message('note_on', channel=1, note=69, velocity=0, time=147),\n",
      "    Message('note_on', channel=1, note=60, velocity=0, time=0),\n",
      "    Message('note_on', channel=1, note=64, velocity=0, time=18),\n",
      "    Message('note_on', channel=1, note=59, velocity=98, time=315),\n",
      "    Message('note_on', channel=1, note=62, velocity=109, time=0),\n",
      "    Message('note_on', channel=1, note=67, velocity=114, time=0),\n",
      "    Message('note_on', channel=1, note=59, velocity=0, time=205),\n",
      "    Message('note_on', channel=1, note=67, velocity=0, time=26),\n",
      "    Message('note_on', channel=1, note=60, velocity=104, time=9),\n",
      "    Message('note_on', channel=1, note=64, velocity=104, time=0),\n",
      "    Message('note_on', channel=1, note=69, velocity=114, time=0),\n",
      "    Message('note_on', channel=1, note=62, velocity=0, time=43),\n",
      "    Message('note_on', channel=1, note=60, velocity=0, time=30),\n",
      "    Message('note_on', channel=1, note=69, velocity=0, time=3),\n",
      "    Message('note_on', channel=1, note=64, velocity=0, time=15),\n",
      "    Message('note_on', channel=1, note=60, velocity=109, time=149),\n",
      "    Message('note_on', channel=1, note=64, velocity=109, time=0),\n",
      "    Message('note_on', channel=1, note=69, velocity=120, time=0),\n",
      "    Message('note_on', channel=1, note=60, velocity=0, time=196),\n",
      "    Message('note_on', channel=1, note=69, velocity=0, time=2),\n",
      "    Message('note_on', channel=1, note=64, velocity=0, time=18),\n",
      "    Message('aftertouch', channel=1, value=3, time=168),\n",
      "    Message('aftertouch', channel=1, value=4, time=62),\n",
      "    Message('note_on', channel=1, note=59, velocity=109, time=34),\n",
      "    Message('note_on', channel=1, note=62, velocity=114, time=0),\n",
      "    Message('note_on', channel=1, note=67, velocity=109, time=0),\n",
      "    Message('note_on', channel=1, note=59, velocity=0, time=223),\n",
      "    Message('note_on', channel=1, note=67, velocity=0, time=14),\n",
      "    Message('note_on', channel=1, note=60, velocity=88, time=3),\n",
      "    Message('note_on', channel=1, note=64, velocity=88, time=0),\n",
      "    Message('note_on', channel=1, note=69, velocity=124, time=0),\n",
      "    Message('note_on', channel=1, note=62, velocity=0, time=20),\n",
      "    Message('note_on', channel=1, note=69, velocity=0, time=63),\n",
      "    Message('note_on', channel=1, note=64, velocity=0, time=11),\n",
      "    Message('note_on', channel=1, note=60, velocity=0, time=3),\n",
      "    Message('note_on', channel=1, note=60, velocity=91, time=23),\n",
      "    Message('note_on', channel=1, note=69, velocity=104, time=0),\n",
      "    Message('note_on', channel=1, note=64, velocity=98, time=120),\n",
      "    Message('note_on', channel=1, note=60, velocity=0, time=5),\n",
      "    Message('note_on', channel=1, note=69, velocity=0, time=10),\n",
      "    Message('note_on', channel=1, note=64, velocity=0, time=79),\n",
      "    Message('note_on', channel=1, note=64, velocity=120, time=146),\n",
      "    Message('note_on', channel=1, note=69, velocity=120, time=0),\n",
      "    Message('note_on', channel=1, note=72, velocity=120, time=0),\n",
      "    Message('note_on', channel=1, note=64, velocity=0, time=179),\n",
      "    Message('note_on', channel=1, note=72, velocity=0, time=22),\n",
      "    Message('note_on', channel=1, note=69, velocity=0, time=4),\n",
      "    Message('note_on', channel=1, note=60, velocity=120, time=35),\n",
      "    Message('note_on', channel=1, note=64, velocity=120, time=0),\n",
      "    Message('note_on', channel=1, note=69, velocity=127, time=0),\n",
      "    Message('note_on', channel=1, note=64, velocity=0, time=334),\n",
      "    Message('note_on', channel=1, note=60, velocity=0, time=8),\n",
      "    Message('note_on', channel=1, note=69, velocity=0, time=13),\n",
      "    Message('note_on', channel=1, note=38, velocity=120, time=845),\n",
      "    Message('note_on', channel=1, note=57, velocity=120, time=0),\n",
      "    Message('note_on', channel=1, note=62, velocity=109, time=0),\n",
      "    Message('note_on', channel=1, note=65, velocity=120, time=0),\n",
      "    Message('note_on', channel=1, note=69, velocity=124, time=0),\n",
      "    Message('note_on', channel=1, note=57, velocity=0, time=376),\n",
      "    Message('note_on', channel=1, note=38, velocity=0, time=18),\n",
      "    Message('note_on', channel=1, note=41, velocity=120, time=86),\n",
      "    Message('note_on', channel=1, note=57, velocity=120, time=0),\n",
      "    Message('note_on', channel=1, note=69, velocity=0, time=72),\n",
      "    Message('note_on', channel=1, note=65, velocity=0, time=12),\n",
      "    Message('note_on', channel=1, note=62, velocity=0, time=10),\n",
      "    Message('note_on', channel=1, note=41, velocity=0, time=70),\n",
      "    Message('note_on', channel=1, note=45, velocity=114, time=76),\n",
      "    Message('note_on', channel=1, note=62, velocity=114, time=0),\n",
      "    Message('note_on', channel=1, note=65, velocity=124, time=0),\n",
      "    Message('note_on', channel=1, note=69, velocity=120, time=0),\n",
      "    Message('note_on', channel=1, note=45, velocity=0, time=221),\n",
      "    Message('note_on', channel=1, note=57, velocity=0, time=174),\n",
      "    Message('note_on', channel=1, note=38, velocity=120, time=85),\n",
      "    Message('note_on', channel=1, note=57, velocity=114, time=0),\n",
      "    Message('note_on', channel=1, note=69, velocity=0, time=14),\n",
      "    Message('note_on', channel=1, note=62, velocity=0, time=20),\n",
      "    Message('note_on', channel=1, note=65, velocity=0, time=23),\n",
      "    Message('note_on', channel=1, note=38, velocity=0, time=141),\n",
      "    Message('note_on', channel=1, note=50, velocity=114, time=42),\n",
      "    Message('note_on', channel=1, note=62, velocity=114, time=0),\n",
      "    Message('note_on', channel=1, note=65, velocity=124, time=0),\n",
      "    Message('note_on', channel=1, note=69, velocity=124, time=0),\n",
      "    Message('note_on', channel=1, note=57, velocity=0, time=75),\n",
      "    Message('note_on', channel=1, note=50, velocity=0, time=132),\n",
      "    Message('note_on', channel=1, note=45, velocity=120, time=33),\n",
      "    Message('note_on', channel=1, note=57, velocity=109, time=0),\n",
      "    Message('note_on', channel=1, note=69, velocity=0, time=23),\n",
      "    Message('note_on', channel=1, note=62, velocity=0, time=1),\n",
      "    Message('note_on', channel=1, note=65, velocity=0, time=19),\n",
      "    Message('note_on', channel=1, note=45, velocity=0, time=48),\n",
      "    Message('note_on', channel=1, note=57, velocity=0, time=37),\n",
      "    Message('note_on', channel=1, note=45, velocity=120, time=112),\n",
      "    Message('note_on', channel=1, note=57, velocity=120, time=0),\n",
      "    Message('note_on', channel=1, note=60, velocity=98, time=0),\n",
      "    Message('note_on', channel=1, note=64, velocity=120, time=0),\n",
      "    Message('note_on', channel=1, note=69, velocity=124, time=0),\n",
      "    Message('note_on', channel=1, note=45, velocity=0, time=225),\n",
      "    Message('note_on', channel=1, note=48, velocity=114, time=15),\n",
      "    Message('note_on', channel=1, note=57, velocity=0, time=147),\n",
      "    Message('note_on', channel=1, note=48, velocity=0, time=91),\n",
      "    Message('note_on', channel=1, note=52, velocity=110, time=2),\n",
      "    Message('note_on', channel=1, note=57, velocity=120, time=0),\n",
      "    Message('note_on', channel=1, note=57, velocity=0, time=135),\n",
      "    Message('note_on', channel=1, note=69, velocity=0, time=8),\n",
      "    Message('note_on', channel=1, note=64, velocity=0, time=14),\n",
      "    Message('note_on', channel=1, note=60, velocity=0, time=4),\n",
      "    Message('note_on', channel=1, note=52, velocity=0, time=77),\n",
      "    Message('note_on', channel=1, note=57, velocity=120, time=2),\n",
      "    Message('note_on', channel=1, note=57, velocity=114, time=0),\n",
      "    Message('note_on', channel=1, note=57, velocity=0, time=178),\n",
      "    Message('note_on', channel=1, note=45, velocity=120, time=302),\n",
      "    Message('note_on', channel=1, note=60, velocity=114, time=0),\n",
      "    Message('note_on', channel=1, note=64, velocity=120, time=0),\n",
      "    Message('note_on', channel=1, note=69, velocity=124, time=0),\n",
      "    Message('note_on', channel=1, note=57, velocity=0, time=90),\n",
      "    Message('note_on', channel=1, note=45, velocity=0, time=106),\n",
      "    Message('note_on', channel=1, note=52, velocity=120, time=44),\n",
      "    Message('note_on', channel=1, note=57, velocity=120, time=0),\n",
      "    Message('note_on', channel=1, note=57, velocity=0, time=140),\n",
      "    Message('note_on', channel=1, note=60, velocity=0, time=1),\n",
      "    Message('note_on', channel=1, note=52, velocity=0, time=49),\n",
      "    Message('note_on', channel=1, note=48, velocity=120, time=50),\n",
      "    Message('note_on', channel=1, note=57, velocity=104, time=0),\n",
      "    Message('note_on', channel=1, note=64, velocity=0, time=75),\n",
      "    Message('note_on', channel=1, note=48, velocity=0, time=12),\n",
      "    Message('note_on', channel=1, note=57, velocity=0, time=53),\n",
      "    Message('note_on', channel=1, note=40, velocity=120, time=100),\n",
      "    Message('note_on', channel=1, note=56, velocity=124, time=0),\n",
      "    Message('note_on', channel=1, note=59, velocity=127, time=0),\n",
      "    Message('note_on', channel=1, note=69, velocity=0, time=64),\n",
      "    Message('note_on', channel=1, note=40, velocity=0, time=92),\n",
      "    Message('note_on', channel=1, note=40, velocity=104, time=84),\n",
      "    Message('note_on', channel=1, note=40, velocity=0, time=151),\n",
      "    Message('note_on', channel=1, note=44, velocity=124, time=89),\n",
      "    Message('note_on', channel=1, note=64, velocity=114, time=0),\n",
      "    Message('note_on', channel=1, note=68, velocity=114, time=0),\n",
      "    Message('note_on', channel=1, note=59, velocity=0, time=105),\n",
      "    Message('note_on', channel=1, note=56, velocity=0, time=19),\n",
      "    Message('note_on', channel=1, note=44, velocity=0, time=35),\n",
      "    Message('note_on', channel=1, note=40, velocity=98, time=81),\n",
      "    Message('note_on', channel=1, note=56, velocity=91, time=0),\n",
      "    Message('note_on', channel=1, note=59, velocity=98, time=0),\n",
      "    Message('note_on', channel=1, note=40, velocity=0, time=174),\n",
      "    Message('note_on', channel=1, note=56, velocity=0, time=48),\n",
      "    Message('note_on', channel=1, note=50, velocity=109, time=18),\n",
      "    Message('note_on', channel=1, note=52, velocity=91, time=0),\n",
      "    Message('note_on', channel=1, note=59, velocity=0, time=33),\n",
      "    Message('note_on', channel=1, note=50, velocity=0, time=74),\n",
      "    Message('note_on', channel=1, note=52, velocity=0, time=25),\n",
      "    Message('note_on', channel=1, note=64, velocity=0, time=60),\n",
      "    Message('note_on', channel=1, note=68, velocity=0, time=29),\n",
      "    Message('note_on', channel=1, note=47, velocity=109, time=19),\n",
      "    Message('note_on', channel=1, note=56, velocity=109, time=0),\n",
      "    Message('note_on', channel=1, note=59, velocity=120, time=0),\n",
      "    Message('note_on', channel=1, note=47, velocity=0, time=151),\n",
      "    Message('note_on', channel=1, note=44, velocity=120, time=89),\n",
      "    Message('note_on', channel=1, note=64, velocity=124, time=0),\n",
      "    Message('note_on', channel=1, note=68, velocity=114, time=0),\n",
      "    Message('note_on', channel=1, note=59, velocity=0, time=14),\n",
      "    Message('note_on', channel=1, note=56, velocity=0, time=67),\n",
      "    Message('note_on', channel=1, note=44, velocity=0, time=129),\n",
      "    Message('note_on', channel=1, note=40, velocity=104, time=30),\n",
      "    Message('note_on', channel=1, note=56, velocity=88, time=0),\n",
      "    Message('note_on', channel=1, note=59, velocity=109, time=0),\n",
      "    Message('note_on', channel=1, note=56, velocity=0, time=124),\n",
      "    Message('note_on', channel=1, note=40, velocity=0, time=3),\n",
      "    Message('note_on', channel=1, note=59, velocity=0, time=12),\n",
      "    Message('note_on', channel=1, note=64, velocity=0, time=8),\n",
      "    Message('note_on', channel=1, note=68, velocity=0, time=19),\n",
      "    Message('note_on', channel=1, note=45, velocity=120, time=74),\n",
      "    Message('note_on', channel=1, note=57, velocity=124, time=0),\n",
      "    Message('note_on', channel=1, note=60, velocity=109, time=0),\n",
      "    Message('note_on', channel=1, note=64, velocity=120, time=0),\n",
      "    Message('note_on', channel=1, note=69, velocity=120, time=0),\n",
      "    Message('note_on', channel=1, note=45, velocity=0, time=179),\n",
      "    Message('note_on', channel=1, note=40, velocity=114, time=181),\n",
      "    Message('note_on', channel=1, note=64, velocity=0, time=28),\n",
      "    Message('note_on', channel=1, note=60, velocity=0, time=38),\n",
      "    Message('note_on', channel=1, note=69, velocity=0, time=14),\n",
      "    Message('note_on', channel=1, note=57, velocity=0, time=3),\n",
      "    Message('note_on', channel=1, note=56, velocity=114, time=37),\n",
      "    Message('note_on', channel=1, note=64, velocity=120, time=0),\n",
      "    Message('note_on', channel=1, note=68, velocity=114, time=0),\n",
      "    Message('note_on', channel=1, note=40, velocity=0, time=48),\n",
      "    Message('note_on', channel=1, note=45, velocity=124, time=192),\n",
      "    Message('note_on', channel=1, note=64, velocity=0, time=20),\n",
      "    Message('note_on', channel=1, note=68, velocity=0, time=18),\n",
      "    Message('note_on', channel=1, note=56, velocity=0, time=47),\n",
      "    Message('note_on', channel=1, note=45, velocity=0, time=118),\n",
      "    Message('note_on', channel=1, note=55, velocity=120, time=37),\n",
      "    Message('note_on', channel=1, note=57, velocity=114, time=0),\n",
      "    Message('note_on', channel=1, note=60, velocity=124, time=0),\n",
      "    Message('note_on', channel=1, note=64, velocity=114, time=0),\n",
      "    Message('note_on', channel=1, note=55, velocity=0, time=89),\n",
      "    Message('note_on', channel=1, note=64, velocity=0, time=267),\n",
      "    Message('note_on', channel=1, note=60, velocity=0, time=1),\n",
      "    Message('note_on', channel=1, note=57, velocity=0, time=14),\n",
      "    Message('note_on', channel=1, note=33, velocity=124, time=109),\n",
      "    Message('note_on', channel=1, note=33, velocity=0, time=238),\n",
      "    MetaMessage('end_of_track', time=0)]),\n",
      "  MidiTrack([\n",
      "    MetaMessage('track_name', name='Hi-hat only', time=0),\n",
      "    Message('control_change', channel=9, control=0, value=120, time=0),\n",
      "    Message('control_change', channel=9, control=32, value=0, time=0),\n",
      "    Message('program_change', channel=9, program=0, time=0),\n",
      "    Message('note_on', channel=9, note=42, velocity=89, time=30720),\n",
      "    Message('note_off', channel=9, note=42, velocity=64, time=88),\n",
      "    Message('note_on', channel=9, note=46, velocity=96, time=152),\n",
      "    Message('note_off', channel=9, note=46, velocity=64, time=114),\n",
      "    Message('note_on', channel=9, note=42, velocity=96, time=126),\n",
      "    Message('note_off', channel=9, note=42, velocity=64, time=50),\n",
      "    Message('note_on', channel=9, note=46, velocity=104, time=190),\n",
      "    Message('note_off', channel=9, note=46, velocity=64, time=138),\n",
      "    Message('note_on', channel=9, note=42, velocity=109, time=102),\n",
      "    Message('note_off', channel=9, note=42, velocity=64, time=74),\n",
      "    Message('note_on', channel=9, note=42, velocity=92, time=166),\n",
      "    Message('note_off', channel=9, note=42, velocity=64, time=52),\n",
      "    Message('note_on', channel=9, note=42, velocity=84, time=68),\n",
      "    Message('note_off', channel=9, note=42, velocity=64, time=64),\n",
      "    Message('note_on', channel=9, note=42, velocity=114, time=56),\n",
      "    Message('note_off', channel=9, note=42, velocity=64, time=62),\n",
      "    Message('note_on', channel=9, note=42, velocity=96, time=178),\n",
      "    Message('note_off', channel=9, note=42, velocity=64, time=38),\n",
      "    Message('note_on', channel=9, note=42, velocity=79, time=82),\n",
      "    Message('note_off', channel=9, note=42, velocity=64, time=50),\n",
      "    Message('note_on', channel=9, note=42, velocity=114, time=70),\n",
      "    Message('note_off', channel=9, note=42, velocity=64, time=74),\n",
      "    Message('note_on', channel=9, note=46, velocity=92, time=166),\n",
      "    Message('note_off', channel=9, note=46, velocity=64, time=190),\n",
      "    Message('note_on', channel=9, note=42, velocity=104, time=50),\n",
      "    Message('note_off', channel=9, note=42, velocity=64, time=62),\n",
      "    Message('note_on', channel=9, note=46, velocity=100, time=178),\n",
      "    Message('note_off', channel=9, note=46, velocity=64, time=192),\n",
      "    Message('note_on', channel=9, note=42, velocity=104, time=48),\n",
      "    Message('note_off', channel=9, note=42, velocity=64, time=74),\n",
      "    Message('note_on', channel=9, note=42, velocity=89, time=166),\n",
      "    Message('note_off', channel=9, note=42, velocity=64, time=62),\n",
      "    Message('note_on', channel=9, note=42, velocity=104, time=58),\n",
      "    Message('note_off', channel=9, note=42, velocity=64, time=62),\n",
      "    Message('note_on', channel=9, note=42, velocity=84, time=58),\n",
      "    Message('note_off', channel=9, note=42, velocity=64, time=88),\n",
      "    Message('note_on', channel=9, note=42, velocity=89, time=152),\n",
      "    Message('note_off', channel=9, note=42, velocity=64, time=48),\n",
      "    Message('note_on', channel=9, note=42, velocity=81, time=72),\n",
      "    Message('note_off', channel=9, note=42, velocity=64, time=48),\n",
      "    Message('note_on', channel=9, note=42, velocity=104, time=72),\n",
      "    Message('note_off', channel=9, note=42, velocity=64, time=62),\n",
      "    Message('note_on', channel=9, note=46, velocity=96, time=178),\n",
      "    Message('note_off', channel=9, note=46, velocity=64, time=176),\n",
      "    Message('note_on', channel=9, note=42, velocity=104, time=64),\n",
      "    Message('note_off', channel=9, note=42, velocity=64, time=64),\n",
      "    Message('note_on', channel=9, note=46, velocity=89, time=176),\n",
      "    Message('note_off', channel=9, note=46, velocity=64, time=152),\n",
      "    Message('note_on', channel=9, note=42, velocity=100, time=88),\n",
      "    Message('note_off', channel=9, note=42, velocity=64, time=64),\n",
      "    Message('note_on', channel=9, note=42, velocity=81, time=176),\n",
      "    Message('note_off', channel=9, note=42, velocity=64, time=36),\n",
      "    Message('note_on', channel=9, note=42, velocity=73, time=84),\n",
      "    Message('note_off', channel=9, note=42, velocity=64, time=50),\n",
      "    Message('note_on', channel=9, note=42, velocity=92, time=70),\n",
      "    Message('note_off', channel=9, note=42, velocity=64, time=60),\n",
      "    Message('note_on', channel=9, note=42, velocity=92, time=180),\n",
      "    Message('note_off', channel=9, note=42, velocity=64, time=50),\n",
      "    Message('note_on', channel=9, note=42, velocity=77, time=70),\n",
      "    Message('note_off', channel=9, note=42, velocity=64, time=48),\n",
      "    Message('note_on', channel=9, note=42, velocity=104, time=72),\n",
      "    Message('note_off', channel=9, note=42, velocity=64, time=50),\n",
      "    Message('note_on', channel=9, note=46, velocity=92, time=190),\n",
      "    Message('note_off', channel=9, note=46, velocity=64, time=150),\n",
      "    Message('note_on', channel=9, note=42, velocity=100, time=90),\n",
      "    Message('note_off', channel=9, note=42, velocity=64, time=62),\n",
      "    Message('note_on', channel=9, note=46, velocity=92, time=178),\n",
      "    Message('note_off', channel=9, note=46, velocity=64, time=138),\n",
      "    Message('note_on', channel=9, note=42, velocity=92, time=102),\n",
      "    Message('note_off', channel=9, note=42, velocity=64, time=50),\n",
      "    Message('note_on', channel=9, note=42, velocity=84, time=70),\n",
      "    Message('note_off', channel=9, note=42, velocity=64, time=64),\n",
      "    Message('note_on', channel=9, note=42, velocity=100, time=56),\n",
      "    Message('note_off', channel=9, note=42, velocity=64, time=50),\n",
      "    Message('note_on', channel=9, note=46, velocity=92, time=70),\n",
      "    Message('note_off', channel=9, note=46, velocity=64, time=76),\n",
      "    Message('note_on', channel=9, note=42, velocity=109, time=44),\n",
      "    Message('note_off', channel=9, note=42, velocity=64, time=100),\n",
      "    Message('note_on', channel=9, note=42, velocity=89, time=54140),\n",
      "    Message('note_off', channel=9, note=42, velocity=64, time=88),\n",
      "    Message('note_on', channel=9, note=46, velocity=96, time=152),\n",
      "    Message('note_off', channel=9, note=46, velocity=64, time=114),\n",
      "    Message('note_on', channel=9, note=42, velocity=96, time=126),\n",
      "    Message('note_off', channel=9, note=42, velocity=64, time=50),\n",
      "    Message('note_on', channel=9, note=46, velocity=104, time=190),\n",
      "    Message('note_off', channel=9, note=46, velocity=64, time=138),\n",
      "    Message('note_on', channel=9, note=42, velocity=109, time=102),\n",
      "    Message('note_off', channel=9, note=42, velocity=64, time=74),\n",
      "    Message('note_on', channel=9, note=42, velocity=92, time=166),\n",
      "    Message('note_off', channel=9, note=42, velocity=64, time=52),\n",
      "    Message('note_on', channel=9, note=42, velocity=84, time=68),\n",
      "    Message('note_off', channel=9, note=42, velocity=64, time=64),\n",
      "    Message('note_on', channel=9, note=42, velocity=114, time=56),\n",
      "    Message('note_off', channel=9, note=42, velocity=64, time=62),\n",
      "    Message('note_on', channel=9, note=42, velocity=96, time=178),\n",
      "    Message('note_off', channel=9, note=42, velocity=64, time=38),\n",
      "    Message('note_on', channel=9, note=42, velocity=79, time=82),\n",
      "    Message('note_off', channel=9, note=42, velocity=64, time=50),\n",
      "    Message('note_on', channel=9, note=42, velocity=114, time=70),\n",
      "    Message('note_off', channel=9, note=42, velocity=64, time=74),\n",
      "    Message('note_on', channel=9, note=46, velocity=92, time=166),\n",
      "    Message('note_off', channel=9, note=46, velocity=64, time=190),\n",
      "    Message('note_on', channel=9, note=42, velocity=104, time=50),\n",
      "    Message('note_off', channel=9, note=42, velocity=64, time=62),\n",
      "    Message('note_on', channel=9, note=46, velocity=100, time=178),\n",
      "    Message('note_off', channel=9, note=46, velocity=64, time=192),\n",
      "    Message('note_on', channel=9, note=42, velocity=104, time=48),\n",
      "    Message('note_off', channel=9, note=42, velocity=64, time=74),\n",
      "    Message('note_on', channel=9, note=42, velocity=89, time=166),\n",
      "    Message('note_off', channel=9, note=42, velocity=64, time=62),\n",
      "    Message('note_on', channel=9, note=42, velocity=104, time=58),\n",
      "    Message('note_off', channel=9, note=42, velocity=64, time=62),\n",
      "    Message('note_on', channel=9, note=42, velocity=84, time=58),\n",
      "    Message('note_off', channel=9, note=42, velocity=64, time=88),\n",
      "    Message('note_on', channel=9, note=42, velocity=89, time=152),\n",
      "    Message('note_off', channel=9, note=42, velocity=64, time=48),\n",
      "    Message('note_on', channel=9, note=42, velocity=81, time=72),\n",
      "    Message('note_off', channel=9, note=42, velocity=64, time=48),\n",
      "    Message('note_on', channel=9, note=42, velocity=104, time=72),\n",
      "    Message('note_off', channel=9, note=42, velocity=64, time=62),\n",
      "    Message('note_on', channel=9, note=46, velocity=96, time=178),\n",
      "    Message('note_off', channel=9, note=46, velocity=64, time=176),\n",
      "    Message('note_on', channel=9, note=42, velocity=104, time=64),\n",
      "    Message('note_off', channel=9, note=42, velocity=64, time=64),\n",
      "    Message('note_on', channel=9, note=46, velocity=89, time=176),\n",
      "    Message('note_off', channel=9, note=46, velocity=64, time=152),\n",
      "    Message('note_on', channel=9, note=42, velocity=100, time=88),\n",
      "    Message('note_off', channel=9, note=42, velocity=64, time=64),\n",
      "    Message('note_on', channel=9, note=42, velocity=81, time=176),\n",
      "    Message('note_off', channel=9, note=42, velocity=64, time=36),\n",
      "    Message('note_on', channel=9, note=42, velocity=73, time=84),\n",
      "    Message('note_off', channel=9, note=42, velocity=64, time=50),\n",
      "    Message('note_on', channel=9, note=42, velocity=92, time=70),\n",
      "    Message('note_off', channel=9, note=42, velocity=64, time=60),\n",
      "    Message('note_on', channel=9, note=42, velocity=92, time=180),\n",
      "    Message('note_off', channel=9, note=42, velocity=64, time=50),\n",
      "    Message('note_on', channel=9, note=42, velocity=77, time=70),\n",
      "    Message('note_off', channel=9, note=42, velocity=64, time=48),\n",
      "    Message('note_on', channel=9, note=42, velocity=104, time=72),\n",
      "    Message('note_off', channel=9, note=42, velocity=64, time=50),\n",
      "    Message('note_on', channel=9, note=46, velocity=92, time=190),\n",
      "    Message('note_off', channel=9, note=46, velocity=64, time=150),\n",
      "    Message('note_on', channel=9, note=42, velocity=100, time=90),\n",
      "    Message('note_off', channel=9, note=42, velocity=64, time=62),\n",
      "    Message('note_on', channel=9, note=46, velocity=92, time=178),\n",
      "    Message('note_off', channel=9, note=46, velocity=64, time=138),\n",
      "    Message('note_on', channel=9, note=42, velocity=92, time=102),\n",
      "    Message('note_off', channel=9, note=42, velocity=64, time=50),\n",
      "    Message('note_on', channel=9, note=42, velocity=84, time=70),\n",
      "    Message('note_off', channel=9, note=42, velocity=64, time=64),\n",
      "    Message('note_on', channel=9, note=42, velocity=100, time=56),\n",
      "    Message('note_off', channel=9, note=42, velocity=64, time=50),\n",
      "    Message('note_on', channel=9, note=46, velocity=92, time=70),\n",
      "    Message('note_off', channel=9, note=46, velocity=64, time=76),\n",
      "    Message('note_on', channel=9, note=42, velocity=109, time=44),\n",
      "    Message('note_off', channel=9, note=42, velocity=64, time=100),\n",
      "    MetaMessage('end_of_track', time=0)]),\n",
      "  MidiTrack([\n",
      "    MetaMessage('track_name', name='Drums', time=0),\n",
      "    Message('control_change', channel=9, control=0, value=120, time=0),\n",
      "    Message('control_change', channel=9, control=32, value=0, time=0),\n",
      "    Message('program_change', channel=9, program=0, time=0),\n",
      "    Message('note_on', channel=9, note=36, velocity=97, time=15360),\n",
      "    Message('note_off', channel=9, note=36, velocity=64, time=120),\n",
      "    Message('note_on', channel=9, note=38, velocity=94, time=360),\n",
      "    Message('note_off', channel=9, note=38, velocity=64, time=240),\n",
      "    Message('note_on', channel=9, note=36, velocity=94, time=0),\n",
      "    Message('note_off', channel=9, note=36, velocity=64, time=308),\n",
      "    Message('note_on', channel=9, note=36, velocity=94, time=172),\n",
      "    Message('note_off', channel=9, note=36, velocity=64, time=152),\n",
      "    Message('note_on', channel=9, note=38, velocity=101, time=88),\n",
      "    Message('note_off', channel=9, note=38, velocity=64, time=202),\n",
      "    Message('note_on', channel=9, note=36, velocity=90, time=278),\n",
      "    Message('note_off', channel=9, note=36, velocity=64, time=154),\n",
      "    Message('note_on', channel=9, note=38, velocity=99, time=326),\n",
      "    Message('note_on', channel=9, note=36, velocity=88, time=240),\n",
      "    Message('note_off', channel=9, note=38, velocity=64, time=2),\n",
      "    Message('note_off', channel=9, note=36, velocity=64, time=368),\n",
      "    Message('note_on', channel=9, note=36, velocity=94, time=110),\n",
      "    Message('note_off', channel=9, note=36, velocity=64, time=218),\n",
      "    Message('note_on', channel=9, note=38, velocity=97, time=22),\n",
      "    Message('note_off', channel=9, note=38, velocity=64, time=204),\n",
      "    Message('note_on', channel=9, note=36, velocity=79, time=36),\n",
      "    Message('note_off', channel=9, note=36, velocity=64, time=88),\n",
      "    Message('note_on', channel=9, note=36, velocity=101, time=152),\n",
      "    Message('note_off', channel=9, note=36, velocity=64, time=166),\n",
      "    Message('note_on', channel=9, note=38, velocity=94, time=314),\n",
      "    Message('note_on', channel=9, note=36, velocity=97, time=240),\n",
      "    Message('note_off', channel=9, note=38, velocity=64, time=2),\n",
      "    Message('note_off', channel=9, note=36, velocity=64, time=290),\n",
      "    Message('note_on', channel=9, note=36, velocity=99, time=188),\n",
      "    Message('note_off', channel=9, note=36, velocity=64, time=128),\n",
      "    Message('note_on', channel=9, note=38, velocity=101, time=112),\n",
      "    Message('note_off', channel=9, note=38, velocity=64, time=192),\n",
      "    Message('note_on', channel=9, note=36, velocity=101, time=288),\n",
      "    Message('note_off', channel=9, note=36, velocity=64, time=164),\n",
      "    Message('note_on', channel=9, note=38, velocity=99, time=316),\n",
      "    Message('note_off', channel=9, note=38, velocity=64, time=240),\n",
      "    Message('note_on', channel=9, note=36, velocity=97, time=0),\n",
      "    Message('note_off', channel=9, note=36, velocity=64, time=344),\n",
      "    Message('note_on', channel=9, note=36, velocity=94, time=136),\n",
      "    Message('note_off', channel=9, note=36, velocity=64, time=116),\n",
      "    Message('note_on', channel=9, note=38, velocity=101, time=124),\n",
      "    Message('note_off', channel=9, note=38, velocity=64, time=140),\n",
      "    Message('note_on', channel=9, note=36, velocity=92, time=340),\n",
      "    Message('note_off', channel=9, note=36, velocity=64, time=102),\n",
      "    Message('note_on', channel=9, note=36, velocity=85, time=138),\n",
      "    Message('note_off', channel=9, note=36, velocity=64, time=78),\n",
      "    Message('note_on', channel=9, note=38, velocity=94, time=162),\n",
      "    Message('note_off', channel=9, note=38, velocity=64, time=190),\n",
      "    Message('note_on', channel=9, note=36, velocity=101, time=50),\n",
      "    Message('note_off', channel=9, note=36, velocity=64, time=114),\n",
      "    Message('note_on', channel=9, note=36, velocity=79, time=846),\n",
      "    Message('note_off', channel=9, note=36, velocity=64, time=64),\n",
      "    Message('note_on', channel=9, note=36, velocity=101, time=176),\n",
      "    Message('note_off', channel=9, note=36, velocity=64, time=114),\n",
      "    Message('note_on', channel=9, note=36, velocity=97, time=126),\n",
      "    Message('note_off', channel=9, note=36, velocity=64, time=88),\n",
      "    Message('note_on', channel=9, note=38, velocity=107, time=152),\n",
      "    Message('note_off', channel=9, note=38, velocity=64, time=204),\n",
      "    Message('note_on', channel=9, note=36, velocity=104, time=36),\n",
      "    Message('note_off', channel=9, note=36, velocity=64, time=268),\n",
      "    Message('note_on', channel=9, note=36, velocity=94, time=212),\n",
      "    Message('note_off', channel=9, note=36, velocity=64, time=64),\n",
      "    Message('note_on', channel=9, note=38, velocity=107, time=176),\n",
      "    Message('note_off', channel=9, note=38, velocity=64, time=164),\n",
      "    Message('note_on', channel=9, note=36, velocity=74, time=76),\n",
      "    Message('note_off', channel=9, note=36, velocity=64, time=88),\n",
      "    Message('note_on', channel=9, note=36, velocity=92, time=152),\n",
      "    Message('note_off', channel=9, note=36, velocity=64, time=102),\n",
      "    Message('note_on', channel=9, note=36, velocity=85, time=138),\n",
      "    Message('note_off', channel=9, note=36, velocity=64, time=78),\n",
      "    Message('note_on', channel=9, note=38, velocity=94, time=162),\n",
      "    Message('note_off', channel=9, note=38, velocity=64, time=190),\n",
      "    Message('note_on', channel=9, note=36, velocity=101, time=50),\n",
      "    Message('note_off', channel=9, note=36, velocity=64, time=114),\n",
      "    Message('note_on', channel=9, note=36, velocity=79, time=846),\n",
      "    Message('aftertouch', channel=9, value=4, time=55),\n",
      "    Message('aftertouch', channel=9, value=3, time=7),\n",
      "    Message('note_off', channel=9, note=36, velocity=64, time=2),\n",
      "    Message('note_on', channel=9, note=36, velocity=101, time=176),\n",
      "    Message('note_off', channel=9, note=36, velocity=64, time=114),\n",
      "    Message('note_on', channel=9, note=36, velocity=97, time=126),\n",
      "    Message('note_off', channel=9, note=36, velocity=64, time=88),\n",
      "    Message('note_on', channel=9, note=38, velocity=107, time=152),\n",
      "    Message('note_off', channel=9, note=38, velocity=64, time=204),\n",
      "    Message('note_on', channel=9, note=36, velocity=104, time=36),\n",
      "    Message('note_off', channel=9, note=36, velocity=64, time=268),\n",
      "    Message('note_on', channel=9, note=36, velocity=94, time=212),\n",
      "    Message('note_off', channel=9, note=36, velocity=64, time=64),\n",
      "    Message('note_on', channel=9, note=38, velocity=107, time=176),\n",
      "    Message('note_off', channel=9, note=38, velocity=64, time=164),\n",
      "    Message('note_on', channel=9, note=36, velocity=74, time=76),\n",
      "    Message('note_off', channel=9, note=36, velocity=64, time=88),\n",
      "    Message('note_on', channel=9, note=36, velocity=97, time=7832),\n",
      "    Message('note_on', channel=9, note=42, velocity=89, time=0),\n",
      "    Message('note_off', channel=9, note=42, velocity=64, time=88),\n",
      "    Message('note_off', channel=9, note=36, velocity=64, time=32),\n",
      "    Message('note_on', channel=9, note=46, velocity=96, time=120),\n",
      "    Message('note_off', channel=9, note=46, velocity=64, time=114),\n",
      "    Message('note_on', channel=9, note=38, velocity=94, time=126),\n",
      "    Message('note_on', channel=9, note=42, velocity=96, time=0),\n",
      "    Message('note_off', channel=9, note=42, velocity=64, time=50),\n",
      "    Message('note_off', channel=9, note=38, velocity=64, time=190),\n",
      "    Message('note_on', channel=9, note=36, velocity=94, time=0),\n",
      "    Message('note_on', channel=9, note=46, velocity=104, time=0),\n",
      "    Message('note_off', channel=9, note=46, velocity=64, time=138),\n",
      "    Message('note_on', channel=9, note=42, velocity=109, time=102),\n",
      "    Message('note_off', channel=9, note=36, velocity=64, time=68),\n",
      "    Message('note_off', channel=9, note=42, velocity=64, time=6),\n",
      "    Message('note_on', channel=9, note=36, velocity=94, time=166),\n",
      "    Message('note_on', channel=9, note=42, velocity=92, time=0),\n",
      "    Message('note_off', channel=9, note=42, velocity=64, time=52),\n",
      "    Message('note_on', channel=9, note=42, velocity=84, time=68),\n",
      "    Message('note_off', channel=9, note=36, velocity=64, time=32),\n",
      "    Message('note_off', channel=9, note=42, velocity=64, time=32),\n",
      "    Message('note_on', channel=9, note=38, velocity=101, time=56),\n",
      "    Message('note_on', channel=9, note=42, velocity=114, time=0),\n",
      "    Message('note_off', channel=9, note=42, velocity=64, time=62),\n",
      "    Message('note_off', channel=9, note=38, velocity=64, time=140),\n",
      "    Message('note_on', channel=9, note=42, velocity=96, time=38),\n",
      "    Message('note_off', channel=9, note=42, velocity=64, time=38),\n",
      "    Message('note_on', channel=9, note=42, velocity=79, time=82),\n",
      "    Message('note_off', channel=9, note=42, velocity=64, time=50),\n",
      "    Message('note_on', channel=9, note=36, velocity=90, time=70),\n",
      "    Message('note_on', channel=9, note=42, velocity=114, time=0),\n",
      "    Message('note_off', channel=9, note=42, velocity=64, time=74),\n",
      "    Message('note_off', channel=9, note=36, velocity=64, time=80),\n",
      "    Message('note_on', channel=9, note=46, velocity=92, time=86),\n",
      "    Message('note_off', channel=9, note=46, velocity=64, time=190),\n",
      "    Message('note_on', channel=9, note=38, velocity=99, time=50),\n",
      "    Message('note_on', channel=9, note=42, velocity=104, time=0),\n",
      "    Message('note_off', channel=9, note=42, velocity=64, time=62),\n",
      "    Message('note_on', channel=9, note=36, velocity=88, time=178),\n",
      "    Message('note_on', channel=9, note=46, velocity=100, time=0),\n",
      "    Message('note_off', channel=9, note=38, velocity=64, time=2),\n",
      "    Message('note_off', channel=9, note=46, velocity=64, time=190),\n",
      "    Message('note_on', channel=9, note=42, velocity=104, time=48),\n",
      "    Message('note_off', channel=9, note=42, velocity=64, time=74),\n",
      "    Message('note_off', channel=9, note=36, velocity=64, time=56),\n",
      "    Message('note_on', channel=9, note=36, velocity=94, time=110),\n",
      "    Message('note_on', channel=9, note=42, velocity=89, time=0),\n",
      "    Message('note_off', channel=9, note=42, velocity=64, time=62),\n",
      "    Message('note_on', channel=9, note=42, velocity=104, time=58),\n",
      "    Message('note_off', channel=9, note=42, velocity=64, time=62),\n",
      "    Message('note_off', channel=9, note=36, velocity=64, time=36),\n",
      "    Message('note_on', channel=9, note=38, velocity=97, time=22),\n",
      "    Message('note_on', channel=9, note=42, velocity=84, time=0),\n",
      "    Message('note_off', channel=9, note=42, velocity=64, time=88),\n",
      "    Message('note_off', channel=9, note=38, velocity=64, time=116),\n",
      "    Message('note_on', channel=9, note=36, velocity=79, time=36),\n",
      "    Message('note_on', channel=9, note=42, velocity=89, time=0),\n",
      "    Message('note_off', channel=9, note=42, velocity=64, time=48),\n",
      "    Message('note_off', channel=9, note=36, velocity=64, time=40),\n",
      "    Message('note_on', channel=9, note=42, velocity=81, time=32),\n",
      "    Message('note_off', channel=9, note=42, velocity=64, time=48),\n",
      "    Message('note_on', channel=9, note=36, velocity=101, time=72),\n",
      "    Message('note_on', channel=9, note=42, velocity=104, time=0),\n",
      "    Message('note_off', channel=9, note=42, velocity=64, time=62),\n",
      "    Message('note_off', channel=9, note=36, velocity=64, time=104),\n",
      "    Message('note_on', channel=9, note=46, velocity=96, time=74),\n",
      "    Message('note_off', channel=9, note=46, velocity=64, time=176),\n",
      "    Message('note_on', channel=9, note=38, velocity=94, time=64),\n",
      "    Message('note_on', channel=9, note=42, velocity=104, time=0),\n",
      "    Message('note_off', channel=9, note=42, velocity=64, time=64),\n",
      "    Message('note_on', channel=9, note=36, velocity=97, time=176),\n",
      "    Message('note_on', channel=9, note=46, velocity=89, time=0),\n",
      "    Message('note_off', channel=9, note=38, velocity=64, time=2),\n",
      "    Message('note_off', channel=9, note=46, velocity=64, time=150),\n",
      "    Message('note_on', channel=9, note=42, velocity=100, time=88),\n",
      "    Message('note_off', channel=9, note=36, velocity=64, time=52),\n",
      "    Message('note_off', channel=9, note=42, velocity=64, time=12),\n",
      "    Message('note_on', channel=9, note=36, velocity=99, time=176),\n",
      "    Message('note_on', channel=9, note=42, velocity=81, time=0),\n",
      "    Message('note_off', channel=9, note=42, velocity=64, time=36),\n",
      "    Message('note_on', channel=9, note=42, velocity=73, time=84),\n",
      "    Message('note_off', channel=9, note=36, velocity=64, time=8),\n",
      "    Message('note_off', channel=9, note=42, velocity=64, time=42),\n",
      "    Message('note_on', channel=9, note=38, velocity=101, time=70),\n",
      "    Message('note_on', channel=9, note=42, velocity=92, time=0),\n",
      "    Message('note_off', channel=9, note=42, velocity=64, time=60),\n",
      "    Message('note_off', channel=9, note=38, velocity=64, time=132),\n",
      "    Message('note_on', channel=9, note=42, velocity=92, time=48),\n",
      "    Message('note_off', channel=9, note=42, velocity=64, time=50),\n",
      "    Message('note_on', channel=9, note=42, velocity=77, time=70),\n",
      "    Message('note_off', channel=9, note=42, velocity=64, time=48),\n",
      "    Message('note_on', channel=9, note=36, velocity=101, time=72),\n",
      "    Message('note_on', channel=9, note=42, velocity=104, time=0),\n",
      "    Message('note_off', channel=9, note=42, velocity=64, time=50),\n",
      "    Message('note_off', channel=9, note=36, velocity=64, time=114),\n",
      "    Message('note_on', channel=9, note=46, velocity=92, time=76),\n",
      "    Message('note_off', channel=9, note=46, velocity=64, time=150),\n",
      "    Message('note_on', channel=9, note=38, velocity=99, time=90),\n",
      "    Message('note_on', channel=9, note=42, velocity=100, time=0),\n",
      "    Message('note_off', channel=9, note=42, velocity=64, time=62),\n",
      "    Message('note_off', channel=9, note=38, velocity=64, time=178),\n",
      "    Message('note_on', channel=9, note=36, velocity=97, time=0),\n",
      "    Message('note_on', channel=9, note=46, velocity=92, time=0),\n",
      "    Message('note_off', channel=9, note=46, velocity=64, time=138),\n",
      "    Message('note_on', channel=9, note=42, velocity=92, time=102),\n",
      "    Message('note_off', channel=9, note=42, velocity=64, time=50),\n",
      "    Message('note_off', channel=9, note=36, velocity=64, time=54),\n",
      "    Message('note_on', channel=9, note=42, velocity=84, time=16),\n",
      "    Message('note_off', channel=9, note=42, velocity=64, time=64),\n",
      "    Message('note_on', channel=9, note=36, velocity=94, time=56),\n",
      "    Message('note_on', channel=9, note=42, velocity=100, time=0),\n",
      "    Message('note_off', channel=9, note=42, velocity=64, time=50),\n",
      "    Message('note_off', channel=9, note=36, velocity=64, time=66),\n",
      "    Message('note_on', channel=9, note=46, velocity=92, time=4),\n",
      "    Message('note_off', channel=9, note=46, velocity=64, time=76),\n",
      "    Message('note_on', channel=9, note=38, velocity=101, time=44),\n",
      "    Message('note_on', channel=9, note=42, velocity=109, time=0),\n",
      "    Message('note_off', channel=9, note=42, velocity=64, time=100),\n",
      "    Message('note_off', channel=9, note=38, velocity=64, time=40),\n",
      "    Message('note_on', channel=9, note=36, velocity=92, time=340),\n",
      "    Message('note_on', channel=9, note=42, velocity=89, time=0),\n",
      "    Message('note_off', channel=9, note=42, velocity=64, time=88),\n",
      "    Message('note_off', channel=9, note=36, velocity=64, time=14),\n",
      "    Message('note_on', channel=9, note=36, velocity=85, time=138),\n",
      "    Message('note_on', channel=9, note=46, velocity=96, time=0),\n",
      "    Message('note_off', channel=9, note=36, velocity=64, time=78),\n",
      "    Message('note_off', channel=9, note=46, velocity=64, time=36),\n",
      "    Message('note_on', channel=9, note=38, velocity=94, time=126),\n",
      "    Message('note_on', channel=9, note=42, velocity=96, time=0),\n",
      "    Message('note_off', channel=9, note=42, velocity=64, time=50),\n",
      "    Message('note_off', channel=9, note=38, velocity=64, time=140),\n",
      "    Message('note_on', channel=9, note=36, velocity=101, time=50),\n",
      "    Message('note_on', channel=9, note=46, velocity=104, time=0),\n",
      "    Message('note_off', channel=9, note=36, velocity=64, time=114),\n",
      "    Message('note_off', channel=9, note=46, velocity=64, time=24),\n",
      "    Message('note_on', channel=9, note=42, velocity=109, time=102),\n",
      "    Message('note_off', channel=9, note=42, velocity=64, time=74),\n",
      "    Message('note_on', channel=9, note=42, velocity=92, time=166),\n",
      "    Message('note_off', channel=9, note=42, velocity=64, time=52),\n",
      "    Message('note_on', channel=9, note=42, velocity=84, time=68),\n",
      "    Message('note_off', channel=9, note=42, velocity=64, time=64),\n",
      "    Message('note_on', channel=9, note=42, velocity=114, time=56),\n",
      "    Message('note_off', channel=9, note=42, velocity=64, time=62),\n",
      "    Message('note_on', channel=9, note=36, velocity=79, time=178),\n",
      "    Message('note_on', channel=9, note=42, velocity=96, time=0),\n",
      "    Message('note_off', channel=9, note=42, velocity=64, time=38),\n",
      "    Message('note_off', channel=9, note=36, velocity=64, time=26),\n",
      "    Message('note_on', channel=9, note=42, velocity=79, time=56),\n",
      "    Message('note_off', channel=9, note=42, velocity=64, time=50),\n",
      "    Message('note_on', channel=9, note=36, velocity=101, time=70),\n",
      "    Message('note_on', channel=9, note=42, velocity=114, time=0),\n",
      "    Message('note_off', channel=9, note=42, velocity=64, time=74),\n",
      "    Message('note_off', channel=9, note=36, velocity=64, time=40),\n",
      "    Message('note_on', channel=9, note=36, velocity=97, time=126),\n",
      "    Message('note_on', channel=9, note=46, velocity=92, time=0),\n",
      "    Message('note_off', channel=9, note=36, velocity=64, time=88),\n",
      "    Message('note_off', channel=9, note=46, velocity=64, time=102),\n",
      "    Message('note_on', channel=9, note=38, velocity=107, time=50),\n",
      "    Message('note_on', channel=9, note=42, velocity=104, time=0),\n",
      "    Message('note_off', channel=9, note=42, velocity=64, time=62),\n",
      "    Message('note_off', channel=9, note=38, velocity=64, time=142),\n",
      "    Message('note_on', channel=9, note=36, velocity=104, time=36),\n",
      "    Message('note_on', channel=9, note=46, velocity=100, time=0),\n",
      "    Message('note_off', channel=9, note=46, velocity=64, time=192),\n",
      "    Message('note_on', channel=9, note=42, velocity=104, time=48),\n",
      "    Message('note_off', channel=9, note=36, velocity=64, time=28),\n",
      "    Message('note_off', channel=9, note=42, velocity=64, time=46),\n",
      "    Message('note_on', channel=9, note=36, velocity=94, time=166),\n",
      "    Message('note_on', channel=9, note=42, velocity=89, time=0),\n",
      "    Message('note_off', channel=9, note=42, velocity=64, time=62),\n",
      "    Message('note_off', channel=9, note=36, velocity=64, time=2),\n",
      "    Message('note_on', channel=9, note=42, velocity=104, time=56),\n",
      "    Message('note_off', channel=9, note=42, velocity=64, time=62),\n",
      "    Message('note_on', channel=9, note=38, velocity=107, time=58),\n",
      "    Message('note_on', channel=9, note=42, velocity=84, time=0),\n",
      "    Message('note_off', channel=9, note=42, velocity=64, time=88),\n",
      "    Message('note_off', channel=9, note=38, velocity=64, time=76),\n",
      "    Message('note_on', channel=9, note=36, velocity=74, time=76),\n",
      "    Message('note_on', channel=9, note=42, velocity=89, time=0),\n",
      "    Message('note_off', channel=9, note=42, velocity=64, time=48),\n",
      "    Message('note_off', channel=9, note=36, velocity=64, time=40),\n",
      "    Message('note_on', channel=9, note=42, velocity=81, time=32),\n",
      "    Message('note_off', channel=9, note=42, velocity=64, time=48),\n",
      "    Message('note_on', channel=9, note=36, velocity=92, time=72),\n",
      "    Message('note_on', channel=9, note=42, velocity=104, time=0),\n",
      "    Message('note_off', channel=9, note=42, velocity=64, time=62),\n",
      "    Message('note_off', channel=9, note=36, velocity=64, time=40),\n",
      "    Message('note_on', channel=9, note=36, velocity=85, time=138),\n",
      "    Message('note_on', channel=9, note=46, velocity=96, time=0),\n",
      "    Message('note_off', channel=9, note=36, velocity=64, time=78),\n",
      "    Message('note_off', channel=9, note=46, velocity=64, time=98),\n",
      "    Message('note_on', channel=9, note=38, velocity=94, time=64),\n",
      "    Message('note_on', channel=9, note=42, velocity=104, time=0),\n",
      "    Message('note_off', channel=9, note=42, velocity=64, time=64),\n",
      "    Message('note_off', channel=9, note=38, velocity=64, time=126),\n",
      "    Message('note_on', channel=9, note=36, velocity=101, time=50),\n",
      "    Message('note_on', channel=9, note=46, velocity=89, time=0),\n",
      "    Message('note_off', channel=9, note=36, velocity=64, time=114),\n",
      "    Message('note_off', channel=9, note=46, velocity=64, time=38),\n",
      "    Message('note_on', channel=9, note=42, velocity=100, time=88),\n",
      "    Message('note_off', channel=9, note=42, velocity=64, time=64),\n",
      "    Message('note_on', channel=9, note=42, velocity=81, time=176),\n",
      "    Message('note_off', channel=9, note=42, velocity=64, time=36),\n",
      "    Message('note_on', channel=9, note=42, velocity=73, time=84),\n",
      "    Message('note_off', channel=9, note=42, velocity=64, time=50),\n",
      "    Message('note_on', channel=9, note=42, velocity=92, time=70),\n",
      "    Message('note_off', channel=9, note=42, velocity=64, time=60),\n",
      "    Message('note_on', channel=9, note=36, velocity=79, time=180),\n",
      "    Message('note_on', channel=9, note=42, velocity=92, time=0),\n",
      "    Message('note_off', channel=9, note=42, velocity=64, time=50),\n",
      "    Message('aftertouch', channel=9, value=4, time=5),\n",
      "    Message('aftertouch', channel=9, value=3, time=7),\n",
      "    Message('note_off', channel=9, note=36, velocity=64, time=2),\n",
      "    Message('note_on', channel=9, note=42, velocity=77, time=56),\n",
      "    Message('note_off', channel=9, note=42, velocity=64, time=48),\n",
      "    Message('note_on', channel=9, note=36, velocity=101, time=72),\n",
      "    Message('note_on', channel=9, note=42, velocity=104, time=0),\n",
      "    Message('note_off', channel=9, note=42, velocity=64, time=50),\n",
      "    Message('note_off', channel=9, note=36, velocity=64, time=64),\n",
      "    Message('note_on', channel=9, note=36, velocity=97, time=126),\n",
      "    Message('note_on', channel=9, note=46, velocity=92, time=0),\n",
      "    Message('note_off', channel=9, note=36, velocity=64, time=88),\n",
      "    Message('note_off', channel=9, note=46, velocity=64, time=62),\n",
      "    Message('note_on', channel=9, note=38, velocity=107, time=90),\n",
      "    Message('note_on', channel=9, note=42, velocity=100, time=0),\n",
      "    Message('note_off', channel=9, note=42, velocity=64, time=62),\n",
      "    Message('note_off', channel=9, note=38, velocity=64, time=142),\n",
      "    Message('note_on', channel=9, note=36, velocity=104, time=36),\n",
      "    Message('note_on', channel=9, note=46, velocity=92, time=0),\n",
      "    Message('note_off', channel=9, note=46, velocity=64, time=138),\n",
      "    Message('note_on', channel=9, note=42, velocity=92, time=102),\n",
      "    Message('note_off', channel=9, note=36, velocity=64, time=28),\n",
      "    Message('note_off', channel=9, note=42, velocity=64, time=22),\n",
      "    Message('note_on', channel=9, note=42, velocity=84, time=70),\n",
      "    Message('note_off', channel=9, note=42, velocity=64, time=64),\n",
      "    Message('note_on', channel=9, note=36, velocity=94, time=56),\n",
      "    Message('note_on', channel=9, note=42, velocity=100, time=0),\n",
      "    Message('note_off', channel=9, note=42, velocity=64, time=50),\n",
      "    Message('note_off', channel=9, note=36, velocity=64, time=14),\n",
      "    Message('note_on', channel=9, note=46, velocity=92, time=56),\n",
      "    Message('note_off', channel=9, note=46, velocity=64, time=76),\n",
      "    Message('note_on', channel=9, note=38, velocity=107, time=44),\n",
      "    Message('note_on', channel=9, note=42, velocity=109, time=0),\n",
      "    Message('note_off', channel=9, note=42, velocity=64, time=100),\n",
      "    Message('note_off', channel=9, note=38, velocity=64, time=64),\n",
      "    Message('note_on', channel=9, note=36, velocity=74, time=76),\n",
      "    Message('note_off', channel=9, note=36, velocity=64, time=88),\n",
      "    Message('note_on', channel=9, note=36, velocity=97, time=152),\n",
      "    Message('note_off', channel=9, note=36, velocity=64, time=120),\n",
      "    Message('note_on', channel=9, note=38, velocity=94, time=360),\n",
      "    Message('note_off', channel=9, note=38, velocity=64, time=240),\n",
      "    Message('note_on', channel=9, note=36, velocity=94, time=0),\n",
      "    Message('note_off', channel=9, note=36, velocity=64, time=308),\n",
      "    Message('note_on', channel=9, note=36, velocity=94, time=172),\n",
      "    Message('note_off', channel=9, note=36, velocity=64, time=152),\n",
      "    Message('note_on', channel=9, note=38, velocity=101, time=88),\n",
      "    Message('note_off', channel=9, note=38, velocity=64, time=202),\n",
      "    Message('note_on', channel=9, note=36, velocity=90, time=278),\n",
      "    Message('note_off', channel=9, note=36, velocity=64, time=154),\n",
      "    Message('note_on', channel=9, note=38, velocity=99, time=326),\n",
      "    Message('note_on', channel=9, note=36, velocity=88, time=240),\n",
      "    Message('note_off', channel=9, note=38, velocity=64, time=2),\n",
      "    Message('note_off', channel=9, note=36, velocity=64, time=368),\n",
      "    Message('note_on', channel=9, note=36, velocity=94, time=110),\n",
      "    Message('note_off', channel=9, note=36, velocity=64, time=218),\n",
      "    Message('note_on', channel=9, note=38, velocity=97, time=22),\n",
      "    Message('note_off', channel=9, note=38, velocity=64, time=204),\n",
      "    Message('note_on', channel=9, note=36, velocity=79, time=36),\n",
      "    Message('note_off', channel=9, note=36, velocity=64, time=88),\n",
      "    Message('note_on', channel=9, note=36, velocity=101, time=152),\n",
      "    Message('note_off', channel=9, note=36, velocity=64, time=166),\n",
      "    Message('note_on', channel=9, note=38, velocity=94, time=314),\n",
      "    Message('note_on', channel=9, note=36, velocity=97, time=240),\n",
      "    Message('note_off', channel=9, note=38, velocity=64, time=2),\n",
      "    Message('note_off', channel=9, note=36, velocity=64, time=290),\n",
      "    Message('note_on', channel=9, note=36, velocity=99, time=188),\n",
      "    Message('note_off', channel=9, note=36, velocity=64, time=128),\n",
      "    Message('note_on', channel=9, note=38, velocity=101, time=112),\n",
      "    Message('note_off', channel=9, note=38, velocity=64, time=192),\n",
      "    Message('note_on', channel=9, note=36, velocity=101, time=288),\n",
      "    Message('note_off', channel=9, note=36, velocity=64, time=164),\n",
      "    Message('note_on', channel=9, note=38, velocity=99, time=316),\n",
      "    Message('note_off', channel=9, note=38, velocity=64, time=240),\n",
      "    Message('note_on', channel=9, note=36, velocity=97, time=0),\n",
      "    Message('note_off', channel=9, note=36, velocity=64, time=344),\n",
      "    Message('note_on', channel=9, note=36, velocity=94, time=136),\n",
      "    Message('note_off', channel=9, note=36, velocity=64, time=116),\n",
      "    Message('note_on', channel=9, note=38, velocity=101, time=124),\n",
      "    Message('note_off', channel=9, note=38, velocity=64, time=140),\n",
      "    Message('note_on', channel=9, note=36, velocity=92, time=340),\n",
      "    Message('note_off', channel=9, note=36, velocity=64, time=102),\n",
      "    Message('note_on', channel=9, note=36, velocity=85, time=138),\n",
      "    Message('note_off', channel=9, note=36, velocity=64, time=78),\n",
      "    Message('note_on', channel=9, note=38, velocity=94, time=162),\n",
      "    Message('note_off', channel=9, note=38, velocity=64, time=190),\n",
      "    Message('note_on', channel=9, note=36, velocity=101, time=50),\n",
      "    Message('note_off', channel=9, note=36, velocity=64, time=114),\n",
      "    Message('note_on', channel=9, note=36, velocity=79, time=846),\n",
      "    Message('note_off', channel=9, note=36, velocity=64, time=64),\n",
      "    Message('note_on', channel=9, note=36, velocity=101, time=176),\n",
      "    Message('note_off', channel=9, note=36, velocity=64, time=114),\n",
      "    Message('note_on', channel=9, note=36, velocity=97, time=126),\n",
      "    Message('note_off', channel=9, note=36, velocity=64, time=88),\n",
      "    Message('note_on', channel=9, note=38, velocity=107, time=152),\n",
      "    Message('note_off', channel=9, note=38, velocity=64, time=204),\n",
      "    Message('note_on', channel=9, note=36, velocity=104, time=36),\n",
      "    Message('note_off', channel=9, note=36, velocity=64, time=268),\n",
      "    Message('note_on', channel=9, note=36, velocity=94, time=212),\n",
      "    Message('note_off', channel=9, note=36, velocity=64, time=64),\n",
      "    Message('note_on', channel=9, note=38, velocity=107, time=176),\n",
      "    Message('note_off', channel=9, note=38, velocity=64, time=164),\n",
      "    Message('note_on', channel=9, note=36, velocity=74, time=76),\n",
      "    Message('note_off', channel=9, note=36, velocity=64, time=88),\n",
      "    Message('note_on', channel=9, note=36, velocity=92, time=152),\n",
      "    Message('note_off', channel=9, note=36, velocity=64, time=102),\n",
      "    Message('note_on', channel=9, note=36, velocity=85, time=138),\n",
      "    Message('note_off', channel=9, note=36, velocity=64, time=78),\n",
      "    Message('note_on', channel=9, note=38, velocity=94, time=162),\n",
      "    Message('note_off', channel=9, note=38, velocity=64, time=190),\n",
      "    Message('note_on', channel=9, note=36, velocity=101, time=50),\n",
      "    Message('note_off', channel=9, note=36, velocity=64, time=114),\n",
      "    Message('note_on', channel=9, note=36, velocity=79, time=846),\n",
      "    Message('aftertouch', channel=9, value=4, time=55),\n",
      "    Message('aftertouch', channel=9, value=3, time=7),\n",
      "    Message('note_off', channel=9, note=36, velocity=64, time=2),\n",
      "    Message('note_on', channel=9, note=36, velocity=101, time=176),\n",
      "    Message('note_off', channel=9, note=36, velocity=64, time=114),\n",
      "    Message('note_on', channel=9, note=36, velocity=97, time=126),\n",
      "    Message('note_off', channel=9, note=36, velocity=64, time=88),\n",
      "    Message('note_on', channel=9, note=38, velocity=107, time=152),\n",
      "    Message('note_off', channel=9, note=38, velocity=64, time=204),\n",
      "    Message('note_on', channel=9, note=36, velocity=104, time=36),\n",
      "    Message('note_off', channel=9, note=36, velocity=64, time=268),\n",
      "    Message('note_on', channel=9, note=36, velocity=94, time=212),\n",
      "    Message('note_off', channel=9, note=36, velocity=64, time=64),\n",
      "    Message('note_on', channel=9, note=38, velocity=107, time=176),\n",
      "    Message('note_off', channel=9, note=38, velocity=64, time=164),\n",
      "    Message('note_on', channel=9, note=36, velocity=74, time=76),\n",
      "    Message('note_off', channel=9, note=36, velocity=64, time=88),\n",
      "    Message('note_on', channel=9, note=36, velocity=97, time=30872),\n",
      "    Message('note_on', channel=9, note=42, velocity=89, time=0),\n",
      "    Message('note_off', channel=9, note=42, velocity=64, time=88),\n",
      "    Message('note_off', channel=9, note=36, velocity=64, time=32),\n",
      "    Message('note_on', channel=9, note=46, velocity=96, time=120),\n",
      "    Message('note_off', channel=9, note=46, velocity=64, time=114),\n",
      "    Message('note_on', channel=9, note=38, velocity=94, time=126),\n",
      "    Message('note_on', channel=9, note=42, velocity=96, time=0),\n",
      "    Message('note_off', channel=9, note=42, velocity=64, time=50),\n",
      "    Message('note_off', channel=9, note=38, velocity=64, time=190),\n",
      "    Message('note_on', channel=9, note=36, velocity=94, time=0),\n",
      "    Message('note_on', channel=9, note=46, velocity=104, time=0),\n",
      "    Message('note_off', channel=9, note=46, velocity=64, time=138),\n",
      "    Message('note_on', channel=9, note=42, velocity=109, time=102),\n",
      "    Message('note_off', channel=9, note=36, velocity=64, time=68),\n",
      "    Message('note_off', channel=9, note=42, velocity=64, time=6),\n",
      "    Message('note_on', channel=9, note=36, velocity=94, time=166),\n",
      "    Message('note_on', channel=9, note=42, velocity=92, time=0),\n",
      "    Message('note_off', channel=9, note=42, velocity=64, time=52),\n",
      "    Message('note_on', channel=9, note=42, velocity=84, time=68),\n",
      "    Message('note_off', channel=9, note=36, velocity=64, time=32),\n",
      "    Message('note_off', channel=9, note=42, velocity=64, time=32),\n",
      "    Message('note_on', channel=9, note=38, velocity=101, time=56),\n",
      "    Message('note_on', channel=9, note=42, velocity=114, time=0),\n",
      "    Message('note_off', channel=9, note=42, velocity=64, time=62),\n",
      "    Message('note_off', channel=9, note=38, velocity=64, time=140),\n",
      "    Message('note_on', channel=9, note=42, velocity=96, time=38),\n",
      "    Message('note_off', channel=9, note=42, velocity=64, time=38),\n",
      "    Message('note_on', channel=9, note=42, velocity=79, time=82),\n",
      "    Message('note_off', channel=9, note=42, velocity=64, time=50),\n",
      "    Message('note_on', channel=9, note=36, velocity=90, time=70),\n",
      "    Message('note_on', channel=9, note=42, velocity=114, time=0),\n",
      "    Message('note_off', channel=9, note=42, velocity=64, time=74),\n",
      "    Message('note_off', channel=9, note=36, velocity=64, time=80),\n",
      "    Message('note_on', channel=9, note=46, velocity=92, time=86),\n",
      "    Message('note_off', channel=9, note=46, velocity=64, time=190),\n",
      "    Message('note_on', channel=9, note=38, velocity=99, time=50),\n",
      "    Message('note_on', channel=9, note=42, velocity=104, time=0),\n",
      "    Message('note_off', channel=9, note=42, velocity=64, time=62),\n",
      "    Message('note_on', channel=9, note=36, velocity=88, time=178),\n",
      "    Message('note_on', channel=9, note=46, velocity=100, time=0),\n",
      "    Message('note_off', channel=9, note=38, velocity=64, time=2),\n",
      "    Message('note_off', channel=9, note=46, velocity=64, time=190),\n",
      "    Message('note_on', channel=9, note=42, velocity=104, time=48),\n",
      "    Message('note_off', channel=9, note=42, velocity=64, time=74),\n",
      "    Message('note_off', channel=9, note=36, velocity=64, time=56),\n",
      "    Message('note_on', channel=9, note=36, velocity=94, time=110),\n",
      "    Message('note_on', channel=9, note=42, velocity=89, time=0),\n",
      "    Message('note_off', channel=9, note=42, velocity=64, time=62),\n",
      "    Message('note_on', channel=9, note=42, velocity=104, time=58),\n",
      "    Message('note_off', channel=9, note=42, velocity=64, time=62),\n",
      "    Message('note_off', channel=9, note=36, velocity=64, time=36),\n",
      "    Message('note_on', channel=9, note=38, velocity=97, time=22),\n",
      "    Message('note_on', channel=9, note=42, velocity=84, time=0),\n",
      "    Message('note_off', channel=9, note=42, velocity=64, time=88),\n",
      "    Message('note_off', channel=9, note=38, velocity=64, time=116),\n",
      "    Message('note_on', channel=9, note=36, velocity=79, time=36),\n",
      "    Message('note_on', channel=9, note=42, velocity=89, time=0),\n",
      "    Message('note_off', channel=9, note=42, velocity=64, time=48),\n",
      "    Message('note_off', channel=9, note=36, velocity=64, time=40),\n",
      "    Message('note_on', channel=9, note=42, velocity=81, time=32),\n",
      "    Message('note_off', channel=9, note=42, velocity=64, time=48),\n",
      "    Message('note_on', channel=9, note=36, velocity=101, time=72),\n",
      "    Message('note_on', channel=9, note=42, velocity=104, time=0),\n",
      "    Message('note_off', channel=9, note=42, velocity=64, time=62),\n",
      "    Message('note_off', channel=9, note=36, velocity=64, time=104),\n",
      "    Message('note_on', channel=9, note=46, velocity=96, time=74),\n",
      "    Message('note_off', channel=9, note=46, velocity=64, time=176),\n",
      "    Message('note_on', channel=9, note=38, velocity=94, time=64),\n",
      "    Message('note_on', channel=9, note=42, velocity=104, time=0),\n",
      "    Message('note_off', channel=9, note=42, velocity=64, time=64),\n",
      "    Message('note_on', channel=9, note=36, velocity=97, time=176),\n",
      "    Message('note_on', channel=9, note=46, velocity=89, time=0),\n",
      "    Message('note_off', channel=9, note=38, velocity=64, time=2),\n",
      "    Message('note_off', channel=9, note=46, velocity=64, time=150),\n",
      "    Message('note_on', channel=9, note=42, velocity=100, time=88),\n",
      "    Message('note_off', channel=9, note=36, velocity=64, time=52),\n",
      "    Message('note_off', channel=9, note=42, velocity=64, time=12),\n",
      "    Message('note_on', channel=9, note=36, velocity=99, time=176),\n",
      "    Message('note_on', channel=9, note=42, velocity=81, time=0),\n",
      "    Message('note_off', channel=9, note=42, velocity=64, time=36),\n",
      "    Message('note_on', channel=9, note=42, velocity=73, time=84),\n",
      "    Message('note_off', channel=9, note=36, velocity=64, time=8),\n",
      "    Message('note_off', channel=9, note=42, velocity=64, time=42),\n",
      "    Message('note_on', channel=9, note=38, velocity=101, time=70),\n",
      "    Message('note_on', channel=9, note=42, velocity=92, time=0),\n",
      "    Message('note_off', channel=9, note=42, velocity=64, time=60),\n",
      "    Message('note_off', channel=9, note=38, velocity=64, time=132),\n",
      "    Message('note_on', channel=9, note=42, velocity=92, time=48),\n",
      "    Message('note_off', channel=9, note=42, velocity=64, time=50),\n",
      "    Message('note_on', channel=9, note=42, velocity=77, time=70),\n",
      "    Message('note_off', channel=9, note=42, velocity=64, time=48),\n",
      "    Message('note_on', channel=9, note=36, velocity=101, time=72),\n",
      "    Message('note_on', channel=9, note=42, velocity=104, time=0),\n",
      "    Message('note_off', channel=9, note=42, velocity=64, time=50),\n",
      "    Message('note_off', channel=9, note=36, velocity=64, time=114),\n",
      "    Message('note_on', channel=9, note=46, velocity=92, time=76),\n",
      "    Message('note_off', channel=9, note=46, velocity=64, time=150),\n",
      "    Message('note_on', channel=9, note=38, velocity=99, time=90),\n",
      "    Message('note_on', channel=9, note=42, velocity=100, time=0),\n",
      "    Message('note_off', channel=9, note=42, velocity=64, time=62),\n",
      "    Message('note_off', channel=9, note=38, velocity=64, time=178),\n",
      "    Message('note_on', channel=9, note=36, velocity=97, time=0),\n",
      "    Message('note_on', channel=9, note=46, velocity=92, time=0),\n",
      "    Message('note_off', channel=9, note=46, velocity=64, time=138),\n",
      "    Message('note_on', channel=9, note=42, velocity=92, time=102),\n",
      "    Message('note_off', channel=9, note=42, velocity=64, time=50),\n",
      "    Message('note_off', channel=9, note=36, velocity=64, time=54),\n",
      "    Message('note_on', channel=9, note=42, velocity=84, time=16),\n",
      "    Message('note_off', channel=9, note=42, velocity=64, time=64),\n",
      "    Message('note_on', channel=9, note=36, velocity=94, time=56),\n",
      "    Message('note_on', channel=9, note=42, velocity=100, time=0),\n",
      "    Message('note_off', channel=9, note=42, velocity=64, time=50),\n",
      "    Message('note_off', channel=9, note=36, velocity=64, time=66),\n",
      "    Message('note_on', channel=9, note=46, velocity=92, time=4),\n",
      "    Message('note_off', channel=9, note=46, velocity=64, time=76),\n",
      "    Message('note_on', channel=9, note=38, velocity=101, time=44),\n",
      "    Message('note_on', channel=9, note=42, velocity=109, time=0),\n",
      "    Message('note_off', channel=9, note=42, velocity=64, time=100),\n",
      "    Message('note_off', channel=9, note=38, velocity=64, time=40),\n",
      "    Message('note_on', channel=9, note=36, velocity=92, time=340),\n",
      "    Message('note_on', channel=9, note=42, velocity=89, time=0),\n",
      "    Message('note_off', channel=9, note=42, velocity=64, time=88),\n",
      "    Message('note_off', channel=9, note=36, velocity=64, time=14),\n",
      "    Message('note_on', channel=9, note=36, velocity=85, time=138),\n",
      "    Message('note_on', channel=9, note=46, velocity=96, time=0),\n",
      "    Message('note_off', channel=9, note=36, velocity=64, time=78),\n",
      "    Message('note_off', channel=9, note=46, velocity=64, time=36),\n",
      "    Message('note_on', channel=9, note=38, velocity=94, time=126),\n",
      "    Message('note_on', channel=9, note=42, velocity=96, time=0),\n",
      "    Message('note_off', channel=9, note=42, velocity=64, time=50),\n",
      "    Message('note_off', channel=9, note=38, velocity=64, time=140),\n",
      "    Message('note_on', channel=9, note=36, velocity=101, time=50),\n",
      "    Message('note_on', channel=9, note=46, velocity=104, time=0),\n",
      "    Message('note_off', channel=9, note=36, velocity=64, time=114),\n",
      "    Message('note_off', channel=9, note=46, velocity=64, time=24),\n",
      "    Message('note_on', channel=9, note=42, velocity=109, time=102),\n",
      "    Message('note_off', channel=9, note=42, velocity=64, time=74),\n",
      "    Message('note_on', channel=9, note=42, velocity=92, time=166),\n",
      "    Message('note_off', channel=9, note=42, velocity=64, time=52),\n",
      "    Message('note_on', channel=9, note=42, velocity=84, time=68),\n",
      "    Message('note_off', channel=9, note=42, velocity=64, time=64),\n",
      "    Message('note_on', channel=9, note=42, velocity=114, time=56),\n",
      "    Message('note_off', channel=9, note=42, velocity=64, time=62),\n",
      "    Message('note_on', channel=9, note=36, velocity=79, time=178),\n",
      "    Message('note_on', channel=9, note=42, velocity=96, time=0),\n",
      "    Message('note_off', channel=9, note=42, velocity=64, time=38),\n",
      "    Message('note_off', channel=9, note=36, velocity=64, time=26),\n",
      "    Message('note_on', channel=9, note=42, velocity=79, time=56),\n",
      "    Message('note_off', channel=9, note=42, velocity=64, time=50),\n",
      "    Message('note_on', channel=9, note=36, velocity=101, time=70),\n",
      "    Message('note_on', channel=9, note=42, velocity=114, time=0),\n",
      "    Message('note_off', channel=9, note=42, velocity=64, time=74),\n",
      "    Message('note_off', channel=9, note=36, velocity=64, time=40),\n",
      "    Message('note_on', channel=9, note=36, velocity=97, time=126),\n",
      "    Message('note_on', channel=9, note=46, velocity=92, time=0),\n",
      "    Message('note_off', channel=9, note=36, velocity=64, time=88),\n",
      "    Message('note_off', channel=9, note=46, velocity=64, time=102),\n",
      "    Message('note_on', channel=9, note=38, velocity=107, time=50),\n",
      "    Message('note_on', channel=9, note=42, velocity=104, time=0),\n",
      "    Message('note_off', channel=9, note=42, velocity=64, time=62),\n",
      "    Message('note_off', channel=9, note=38, velocity=64, time=142),\n",
      "    Message('note_on', channel=9, note=36, velocity=104, time=36),\n",
      "    Message('note_on', channel=9, note=46, velocity=100, time=0),\n",
      "    Message('note_off', channel=9, note=46, velocity=64, time=192),\n",
      "    Message('note_on', channel=9, note=42, velocity=104, time=48),\n",
      "    Message('note_off', channel=9, note=36, velocity=64, time=28),\n",
      "    Message('note_off', channel=9, note=42, velocity=64, time=46),\n",
      "    Message('note_on', channel=9, note=36, velocity=94, time=166),\n",
      "    Message('note_on', channel=9, note=42, velocity=89, time=0),\n",
      "    Message('note_off', channel=9, note=42, velocity=64, time=62),\n",
      "    Message('note_off', channel=9, note=36, velocity=64, time=2),\n",
      "    Message('note_on', channel=9, note=42, velocity=104, time=56),\n",
      "    Message('note_off', channel=9, note=42, velocity=64, time=62),\n",
      "    Message('note_on', channel=9, note=38, velocity=107, time=58),\n",
      "    Message('note_on', channel=9, note=42, velocity=84, time=0),\n",
      "    Message('note_off', channel=9, note=42, velocity=64, time=88),\n",
      "    Message('note_off', channel=9, note=38, velocity=64, time=76),\n",
      "    Message('note_on', channel=9, note=36, velocity=74, time=76),\n",
      "    Message('note_on', channel=9, note=42, velocity=89, time=0),\n",
      "    Message('note_off', channel=9, note=42, velocity=64, time=48),\n",
      "    Message('note_off', channel=9, note=36, velocity=64, time=40),\n",
      "    Message('note_on', channel=9, note=42, velocity=81, time=32),\n",
      "    Message('note_off', channel=9, note=42, velocity=64, time=48),\n",
      "    Message('note_on', channel=9, note=36, velocity=92, time=72),\n",
      "    Message('note_on', channel=9, note=42, velocity=104, time=0),\n",
      "    Message('note_off', channel=9, note=42, velocity=64, time=62),\n",
      "    Message('note_off', channel=9, note=36, velocity=64, time=40),\n",
      "    Message('note_on', channel=9, note=36, velocity=85, time=138),\n",
      "    Message('note_on', channel=9, note=46, velocity=96, time=0),\n",
      "    Message('note_off', channel=9, note=36, velocity=64, time=78),\n",
      "    Message('note_off', channel=9, note=46, velocity=64, time=98),\n",
      "    Message('note_on', channel=9, note=38, velocity=94, time=64),\n",
      "    Message('note_on', channel=9, note=42, velocity=104, time=0),\n",
      "    Message('note_off', channel=9, note=42, velocity=64, time=64),\n",
      "    Message('note_off', channel=9, note=38, velocity=64, time=126),\n",
      "    Message('note_on', channel=9, note=36, velocity=101, time=50),\n",
      "    Message('note_on', channel=9, note=46, velocity=89, time=0),\n",
      "    Message('note_off', channel=9, note=36, velocity=64, time=114),\n",
      "    Message('note_off', channel=9, note=46, velocity=64, time=38),\n",
      "    Message('note_on', channel=9, note=42, velocity=100, time=88),\n",
      "    Message('note_off', channel=9, note=42, velocity=64, time=64),\n",
      "    Message('note_on', channel=9, note=42, velocity=81, time=176),\n",
      "    Message('note_off', channel=9, note=42, velocity=64, time=36),\n",
      "    Message('note_on', channel=9, note=42, velocity=73, time=84),\n",
      "    Message('note_off', channel=9, note=42, velocity=64, time=50),\n",
      "    Message('note_on', channel=9, note=42, velocity=92, time=70),\n",
      "    Message('note_off', channel=9, note=42, velocity=64, time=60),\n",
      "    Message('note_on', channel=9, note=36, velocity=79, time=180),\n",
      "    Message('note_on', channel=9, note=42, velocity=92, time=0),\n",
      "    Message('note_off', channel=9, note=42, velocity=64, time=50),\n",
      "    Message('aftertouch', channel=9, value=4, time=5),\n",
      "    Message('aftertouch', channel=9, value=3, time=7),\n",
      "    Message('note_off', channel=9, note=36, velocity=64, time=2),\n",
      "    Message('note_on', channel=9, note=42, velocity=77, time=56),\n",
      "    Message('note_off', channel=9, note=42, velocity=64, time=48),\n",
      "    Message('note_on', channel=9, note=36, velocity=101, time=72),\n",
      "    Message('note_on', channel=9, note=42, velocity=104, time=0),\n",
      "    Message('note_off', channel=9, note=42, velocity=64, time=50),\n",
      "    Message('note_off', channel=9, note=36, velocity=64, time=64),\n",
      "    Message('note_on', channel=9, note=36, velocity=97, time=126),\n",
      "    Message('note_on', channel=9, note=46, velocity=92, time=0),\n",
      "    Message('note_off', channel=9, note=36, velocity=64, time=88),\n",
      "    Message('note_off', channel=9, note=46, velocity=64, time=62),\n",
      "    Message('note_on', channel=9, note=38, velocity=107, time=90),\n",
      "    Message('note_on', channel=9, note=42, velocity=100, time=0),\n",
      "    Message('note_off', channel=9, note=42, velocity=64, time=62),\n",
      "    Message('note_off', channel=9, note=38, velocity=64, time=142),\n",
      "    Message('note_on', channel=9, note=36, velocity=104, time=36),\n",
      "    Message('note_on', channel=9, note=46, velocity=92, time=0),\n",
      "    Message('note_off', channel=9, note=46, velocity=64, time=138),\n",
      "    Message('note_on', channel=9, note=42, velocity=92, time=102),\n",
      "    Message('note_off', channel=9, note=36, velocity=64, time=28),\n",
      "    Message('note_off', channel=9, note=42, velocity=64, time=22),\n",
      "    Message('note_on', channel=9, note=42, velocity=84, time=70),\n",
      "    Message('note_off', channel=9, note=42, velocity=64, time=64),\n",
      "    Message('note_on', channel=9, note=36, velocity=94, time=56),\n",
      "    Message('note_on', channel=9, note=42, velocity=100, time=0),\n",
      "    Message('note_off', channel=9, note=42, velocity=64, time=50),\n",
      "    Message('note_off', channel=9, note=36, velocity=64, time=14),\n",
      "    Message('note_on', channel=9, note=46, velocity=92, time=56),\n",
      "    Message('note_off', channel=9, note=46, velocity=64, time=76),\n",
      "    Message('note_on', channel=9, note=38, velocity=107, time=44),\n",
      "    Message('note_on', channel=9, note=42, velocity=109, time=0),\n",
      "    Message('note_off', channel=9, note=42, velocity=64, time=100),\n",
      "    Message('note_off', channel=9, note=38, velocity=64, time=64),\n",
      "    Message('note_on', channel=9, note=36, velocity=74, time=76),\n",
      "    Message('note_off', channel=9, note=36, velocity=64, time=88),\n",
      "    Message('note_on', channel=9, note=36, velocity=104, time=152),\n",
      "    Message('note_on', channel=9, note=42, velocity=100, time=0),\n",
      "    Message('note_on', channel=9, note=36, velocity=0, time=124),\n",
      "    Message('note_off', channel=9, note=42, velocity=64, time=114),\n",
      "    Message('note_on', channel=9, note=36, velocity=85, time=2),\n",
      "    Message('note_on', channel=9, note=42, velocity=100, time=0),\n",
      "    Message('note_on', channel=9, note=36, velocity=0, time=152),\n",
      "    Message('note_off', channel=9, note=42, velocity=64, time=86),\n",
      "    Message('note_on', channel=9, note=38, velocity=120, time=2),\n",
      "    Message('note_on', channel=9, note=42, velocity=100, time=0),\n",
      "    Message('note_on', channel=9, note=38, velocity=0, time=159),\n",
      "    Message('note_off', channel=9, note=42, velocity=64, time=79),\n",
      "    Message('note_on', channel=9, note=36, velocity=104, time=2),\n",
      "    Message('note_on', channel=9, note=42, velocity=100, time=0),\n",
      "    Message('note_on', channel=9, note=36, velocity=0, time=123),\n",
      "    Message('note_off', channel=9, note=42, velocity=64, time=115),\n",
      "    Message('note_on', channel=9, note=36, velocity=88, time=2),\n",
      "    Message('note_on', channel=9, note=42, velocity=100, time=0),\n",
      "    Message('note_on', channel=9, note=36, velocity=0, time=127),\n",
      "    Message('note_off', channel=9, note=42, velocity=64, time=111),\n",
      "    Message('note_on', channel=9, note=36, velocity=82, time=2),\n",
      "    Message('note_on', channel=9, note=42, velocity=100, time=0),\n",
      "    Message('note_on', channel=9, note=36, velocity=0, time=115),\n",
      "    Message('note_off', channel=9, note=42, velocity=64, time=123),\n",
      "    Message('note_on', channel=9, note=38, velocity=114, time=2),\n",
      "    Message('note_on', channel=9, note=42, velocity=100, time=0),\n",
      "    Message('note_on', channel=9, note=38, velocity=0, time=163),\n",
      "    Message('note_off', channel=9, note=42, velocity=64, time=75),\n",
      "    Message('note_on', channel=9, note=36, velocity=91, time=2),\n",
      "    Message('note_on', channel=9, note=42, velocity=100, time=0),\n",
      "    Message('note_on', channel=9, note=36, velocity=0, time=117),\n",
      "    Message('note_off', channel=9, note=42, velocity=64, time=121),\n",
      "    Message('note_on', channel=9, note=36, velocity=104, time=2),\n",
      "    Message('note_on', channel=9, note=42, velocity=100, time=0),\n",
      "    Message('note_on', channel=9, note=36, velocity=0, time=135),\n",
      "    Message('note_off', channel=9, note=42, velocity=64, time=103),\n",
      "    Message('note_on', channel=9, note=36, velocity=70, time=2),\n",
      "    Message('note_on', channel=9, note=42, velocity=100, time=0),\n",
      "    Message('note_on', channel=9, note=36, velocity=0, time=109),\n",
      "    Message('note_off', channel=9, note=42, velocity=64, time=129),\n",
      "    Message('note_on', channel=9, note=38, velocity=114, time=2),\n",
      "    Message('note_on', channel=9, note=42, velocity=100, time=0),\n",
      "    Message('note_on', channel=9, note=38, velocity=0, time=143),\n",
      "    Message('note_off', channel=9, note=42, velocity=64, time=95),\n",
      "    Message('note_on', channel=9, note=36, velocity=114, time=2),\n",
      "    Message('note_on', channel=9, note=42, velocity=100, time=0),\n",
      "    Message('note_on', channel=9, note=36, velocity=0, time=223),\n",
      "    Message('note_off', channel=9, note=42, velocity=64, time=15),\n",
      "    Message('note_on', channel=9, note=42, velocity=100, time=2),\n",
      "    Message('note_off', channel=9, note=42, velocity=64, time=238),\n",
      "    Message('note_on', channel=9, note=36, velocity=104, time=2),\n",
      "    Message('note_on', channel=9, note=42, velocity=100, time=0),\n",
      "    Message('note_on', channel=9, note=36, velocity=0, time=155),\n",
      "    Message('note_off', channel=9, note=42, velocity=64, time=83),\n",
      "    Message('note_on', channel=9, note=38, velocity=127, time=2),\n",
      "    Message('note_on', channel=9, note=42, velocity=100, time=0),\n",
      "    Message('note_on', channel=9, note=38, velocity=0, time=158),\n",
      "    Message('note_off', channel=9, note=42, velocity=64, time=80),\n",
      "    Message('note_on', channel=9, note=36, velocity=71, time=2),\n",
      "    Message('note_on', channel=9, note=42, velocity=100, time=0),\n",
      "    Message('note_on', channel=9, note=36, velocity=0, time=81),\n",
      "    Message('note_off', channel=9, note=42, velocity=64, time=157),\n",
      "    Message('note_on', channel=9, note=36, velocity=109, time=2),\n",
      "    Message('note_on', channel=9, note=42, velocity=100, time=0),\n",
      "    Message('note_on', channel=9, note=36, velocity=0, time=189),\n",
      "    Message('note_off', channel=9, note=42, velocity=64, time=49),\n",
      "    Message('note_on', channel=9, note=42, velocity=100, time=2),\n",
      "    Message('note_off', channel=9, note=42, velocity=64, time=238),\n",
      "    Message('note_on', channel=9, note=38, velocity=120, time=2),\n",
      "    Message('note_on', channel=9, note=42, velocity=100, time=0),\n",
      "    Message('note_on', channel=9, note=38, velocity=0, time=171),\n",
      "    Message('note_off', channel=9, note=42, velocity=64, time=67),\n",
      "    Message('note_on', channel=9, note=36, velocity=109, time=2),\n",
      "    Message('note_on', channel=9, note=42, velocity=100, time=0),\n",
      "    Message('note_on', channel=9, note=36, velocity=0, time=159),\n",
      "    Message('note_off', channel=9, note=42, velocity=64, time=79),\n",
      "    Message('note_on', channel=9, note=42, velocity=100, time=2),\n",
      "    Message('note_off', channel=9, note=42, velocity=64, time=238),\n",
      "    Message('note_on', channel=9, note=36, velocity=109, time=2),\n",
      "    Message('note_on', channel=9, note=42, velocity=100, time=0),\n",
      "    Message('note_on', channel=9, note=36, velocity=0, time=171),\n",
      "    Message('note_off', channel=9, note=42, velocity=64, time=67),\n",
      "    Message('note_on', channel=9, note=38, velocity=109, time=2),\n",
      "    Message('note_on', channel=9, note=42, velocity=100, time=0),\n",
      "    Message('note_on', channel=9, note=38, velocity=0, time=165),\n",
      "    Message('note_off', channel=9, note=42, velocity=64, time=73),\n",
      "    Message('note_on', channel=9, note=36, velocity=85, time=2),\n",
      "    Message('note_on', channel=9, note=42, velocity=100, time=0),\n",
      "    Message('note_on', channel=9, note=36, velocity=0, time=108),\n",
      "    Message('note_off', channel=9, note=42, velocity=64, time=130),\n",
      "    Message('note_on', channel=9, note=36, velocity=109, time=2),\n",
      "    Message('note_on', channel=9, note=42, velocity=100, time=0),\n",
      "    Message('note_on', channel=9, note=36, velocity=0, time=132),\n",
      "    Message('note_off', channel=9, note=42, velocity=64, time=106),\n",
      "    Message('note_on', channel=9, note=36, velocity=82, time=2),\n",
      "    Message('note_on', channel=9, note=42, velocity=100, time=0),\n",
      "    Message('note_on', channel=9, note=36, velocity=0, time=116),\n",
      "    Message('note_off', channel=9, note=42, velocity=64, time=122),\n",
      "    Message('note_on', channel=9, note=38, velocity=104, time=2),\n",
      "    Message('note_on', channel=9, note=42, velocity=100, time=0),\n",
      "    Message('note_on', channel=9, note=38, velocity=0, time=162),\n",
      "    Message('note_off', channel=9, note=42, velocity=64, time=76),\n",
      "    Message('note_on', channel=9, note=36, velocity=98, time=2),\n",
      "    Message('note_on', channel=9, note=42, velocity=100, time=0),\n",
      "    Message('note_on', channel=9, note=36, velocity=0, time=128),\n",
      "    Message('note_off', channel=9, note=42, velocity=64, time=110),\n",
      "    Message('note_on', channel=9, note=36, velocity=104, time=2),\n",
      "    Message('note_on', channel=9, note=42, velocity=100, time=0),\n",
      "    Message('note_on', channel=9, note=36, velocity=0, time=108),\n",
      "    Message('note_off', channel=9, note=42, velocity=64, time=130),\n",
      "    Message('note_on', channel=9, note=42, velocity=100, time=2),\n",
      "    Message('note_off', channel=9, note=42, velocity=64, time=238),\n",
      "    Message('note_on', channel=9, note=42, velocity=100, time=2),\n",
      "    Message('note_on', channel=9, note=55, velocity=124, time=0),\n",
      "    Message('note_on', channel=9, note=55, velocity=0, time=86),\n",
      "    Message('note_off', channel=9, note=42, velocity=64, time=152),\n",
      "    Message('note_on', channel=9, note=42, velocity=100, time=2),\n",
      "    Message('note_off', channel=9, note=42, velocity=64, time=238),\n",
      "    MetaMessage('end_of_track', time=0)]),\n",
      "  MidiTrack([\n",
      "    MetaMessage('track_name', name='Jazz Guitar', time=0),\n",
      "    Message('control_change', channel=2, control=0, value=121, time=0),\n",
      "    Message('control_change', channel=2, control=32, value=0, time=0),\n",
      "    Message('program_change', channel=2, program=26, time=0),\n",
      "    Message('note_on', channel=2, note=52, velocity=95, time=84480),\n",
      "    Message('note_on', channel=2, note=57, velocity=98, time=0),\n",
      "    Message('note_on', channel=2, note=60, velocity=95, time=720),\n",
      "    Message('note_on', channel=2, note=62, velocity=104, time=240),\n",
      "    Message('note_on', channel=2, note=52, velocity=0, time=41),\n",
      "    Message('note_on', channel=2, note=60, velocity=0, time=46),\n",
      "    Message('note_on', channel=2, note=64, velocity=114, time=153),\n",
      "    Message('note_on', channel=2, note=62, velocity=0, time=42),\n",
      "    Message('note_on', channel=2, note=57, velocity=0, time=56),\n",
      "    Message('note_on', channel=2, note=64, velocity=0, time=374),\n",
      "    Message('note_on', channel=2, note=52, velocity=95, time=8),\n",
      "    Message('note_on', channel=2, note=57, velocity=104, time=0),\n",
      "    Message('note_on', channel=2, note=57, velocity=0, time=705),\n",
      "    Message('note_on', channel=2, note=55, velocity=98, time=15),\n",
      "    Message('note_on', channel=2, note=57, velocity=98, time=480),\n",
      "    Message('note_on', channel=2, note=55, velocity=0, time=115),\n",
      "    Message('note_on', channel=2, note=52, velocity=0, time=238),\n",
      "    Message('note_on', channel=2, note=52, velocity=98, time=367),\n",
      "    Message('note_on', channel=2, note=57, velocity=0, time=28),\n",
      "    Message('note_on', channel=2, note=52, velocity=0, time=154),\n",
      "    Message('note_on', channel=2, note=52, velocity=88, time=58),\n",
      "    Message('note_on', channel=2, note=57, velocity=104, time=0),\n",
      "    Message('note_on', channel=2, note=60, velocity=88, time=720),\n",
      "    Message('note_on', channel=2, note=57, velocity=0, time=42),\n",
      "    Message('note_on', channel=2, note=52, velocity=0, time=166),\n",
      "    Message('note_on', channel=2, note=60, velocity=0, time=9),\n",
      "    Message('note_on', channel=2, note=57, velocity=88, time=23),\n",
      "    Message('note_on', channel=2, note=62, velocity=104, time=0),\n",
      "    Message('note_on', channel=2, note=64, velocity=114, time=240),\n",
      "    Message('note_on', channel=2, note=62, velocity=0, time=16),\n",
      "    Message('note_on', channel=2, note=57, velocity=0, time=318),\n",
      "    Message('aftertouch', channel=2, value=4, time=102),\n",
      "    Message('aftertouch', channel=2, value=4, time=22),\n",
      "    Message('note_on', channel=2, note=64, velocity=0, time=20),\n",
      "    Message('note_on', channel=2, note=52, velocity=109, time=2),\n",
      "    Message('note_on', channel=2, note=57, velocity=104, time=0),\n",
      "    Message('note_on', channel=2, note=52, velocity=0, time=395),\n",
      "    Message('note_on', channel=2, note=57, velocity=0, time=64),\n",
      "    Message('note_on', channel=2, note=55, velocity=98, time=261),\n",
      "    Message('note_on', channel=2, note=60, velocity=114, time=0),\n",
      "    Message('note_on', channel=2, note=55, velocity=0, time=418),\n",
      "    Message('note_on', channel=2, note=60, velocity=0, time=40),\n",
      "    Message('note_on', channel=2, note=52, velocity=98, time=22),\n",
      "    Message('note_on', channel=2, note=57, velocity=109, time=0),\n",
      "    Message('note_on', channel=2, note=57, velocity=0, time=466),\n",
      "    Message('note_on', channel=2, note=52, velocity=0, time=2),\n",
      "    Message('note_on', channel=2, note=57, velocity=91, time=492),\n",
      "    Message('note_on', channel=2, note=60, velocity=98, time=0),\n",
      "    Message('note_on', channel=2, note=57, velocity=0, time=119),\n",
      "    Message('note_on', channel=2, note=57, velocity=95, time=121),\n",
      "    Message('note_on', channel=2, note=64, velocity=88, time=0),\n",
      "    Message('note_on', channel=2, note=60, velocity=0, time=162),\n",
      "    Message('note_on', channel=2, note=69, velocity=88, time=78),\n",
      "    Message('note_on', channel=2, note=64, velocity=0, time=9),\n",
      "    Message('note_on', channel=2, note=55, velocity=104, time=231),\n",
      "    Message('note_on', channel=2, note=64, velocity=88, time=0),\n",
      "    Message('note_on', channel=2, note=57, velocity=0, time=17),\n",
      "    Message('note_on', channel=2, note=69, velocity=0, time=23),\n",
      "    Message('note_on', channel=2, note=55, velocity=0, time=161),\n",
      "    Message('note_on', channel=2, note=57, velocity=95, time=39),\n",
      "    Message('note_on', channel=2, note=60, velocity=70, time=0),\n",
      "    Message('note_on', channel=2, note=64, velocity=0, time=15),\n",
      "    Message('note_on', channel=2, note=57, velocity=0, time=109),\n",
      "    Message('note_on', channel=2, note=57, velocity=98, time=116),\n",
      "    Message('note_on', channel=2, note=64, velocity=88, time=0),\n",
      "    Message('note_on', channel=2, note=60, velocity=0, time=183),\n",
      "    Message('note_on', channel=2, note=69, velocity=95, time=57),\n",
      "    Message('note_on', channel=2, note=64, velocity=0, time=46),\n",
      "    Message('note_on', channel=2, note=55, velocity=114, time=194),\n",
      "    Message('note_on', channel=2, note=64, velocity=82, time=0),\n",
      "    Message('note_on', channel=2, note=57, velocity=0, time=9),\n",
      "    Message('note_on', channel=2, note=69, velocity=0, time=115),\n",
      "    Message('note_on', channel=2, note=55, velocity=0, time=73),\n",
      "    Message('note_on', channel=2, note=57, velocity=98, time=43),\n",
      "    Message('note_on', channel=2, note=60, velocity=74, time=0),\n",
      "    Message('note_on', channel=2, note=64, velocity=0, time=2),\n",
      "    Message('note_on', channel=2, note=57, velocity=0, time=126),\n",
      "    Message('note_on', channel=2, note=57, velocity=104, time=112),\n",
      "    Message('note_on', channel=2, note=64, velocity=95, time=0),\n",
      "    Message('note_on', channel=2, note=60, velocity=0, time=84),\n",
      "    Message('note_on', channel=2, note=64, velocity=0, time=155),\n",
      "    Message('note_on', channel=2, note=69, velocity=98, time=1),\n",
      "    Message('note_on', channel=2, note=60, velocity=95, time=240),\n",
      "    Message('note_on', channel=2, note=64, velocity=95, time=0),\n",
      "    Message('note_on', channel=2, note=57, velocity=0, time=6),\n",
      "    Message('note_on', channel=2, note=69, velocity=0, time=26),\n",
      "    Message('note_on', channel=2, note=60, velocity=74, time=208),\n",
      "    Message('note_on', channel=2, note=64, velocity=0, time=28),\n",
      "    Message('note_on', channel=2, note=64, velocity=95, time=212),\n",
      "    Message('note_on', channel=2, note=60, velocity=0, time=79),\n",
      "    Message('note_on', channel=2, note=60, velocity=0, time=57),\n",
      "    Message('note_on', channel=2, note=62, velocity=98, time=104),\n",
      "    Message('note_on', channel=2, note=69, velocity=104, time=0),\n",
      "    Message('note_on', channel=2, note=64, velocity=0, time=19),\n",
      "    Message('note_on', channel=2, note=64, velocity=91, time=221),\n",
      "    Message('note_on', channel=2, note=69, velocity=0, time=24),\n",
      "    Message('note_on', channel=2, note=62, velocity=0, time=27),\n",
      "    Message('note_on', channel=2, note=57, velocity=95, time=189),\n",
      "    Message('note_on', channel=2, note=60, velocity=95, time=0),\n",
      "    Message('note_on', channel=2, note=64, velocity=0, time=32),\n",
      "    Message('note_on', channel=2, note=57, velocity=0, time=85),\n",
      "    Message('note_on', channel=2, note=57, velocity=104, time=123),\n",
      "    Message('note_on', channel=2, note=64, velocity=95, time=0),\n",
      "    Message('note_on', channel=2, note=60, velocity=0, time=68),\n",
      "    Message('note_on', channel=2, note=69, velocity=95, time=172),\n",
      "    Message('note_on', channel=2, note=64, velocity=0, time=21),\n",
      "    Message('note_on', channel=2, note=57, velocity=0, time=204),\n",
      "    Message('note_on', channel=2, note=55, velocity=109, time=15),\n",
      "    Message('note_on', channel=2, note=64, velocity=85, time=0),\n",
      "    Message('note_on', channel=2, note=69, velocity=0, time=32),\n",
      "    Message('note_on', channel=2, note=55, velocity=0, time=161),\n",
      "    Message('note_on', channel=2, note=57, velocity=98, time=47),\n",
      "    Message('note_on', channel=2, note=60, velocity=95, time=0),\n",
      "    Message('note_on', channel=2, note=64, velocity=0, time=11),\n",
      "    Message('note_on', channel=2, note=57, velocity=0, time=99),\n",
      "    Message('note_on', channel=2, note=57, velocity=104, time=130),\n",
      "    Message('note_on', channel=2, note=64, velocity=91, time=0),\n",
      "    Message('note_on', channel=2, note=60, velocity=0, time=64),\n",
      "    Message('note_on', channel=2, note=69, velocity=95, time=176),\n",
      "    Message('note_on', channel=2, note=64, velocity=0, time=19),\n",
      "    Message('aftertouch', channel=2, value=4, time=173),\n",
      "    Message('note_on', channel=2, note=55, velocity=109, time=48),\n",
      "    Message('note_on', channel=2, note=64, velocity=88, time=0),\n",
      "    Message('note_on', channel=2, note=69, velocity=0, time=49),\n",
      "    Message('note_on', channel=2, note=57, velocity=0, time=1),\n",
      "    Message('note_on', channel=2, note=55, velocity=0, time=128),\n",
      "    Message('note_on', channel=2, note=57, velocity=104, time=62),\n",
      "    Message('note_on', channel=2, note=60, velocity=91, time=0),\n",
      "    Message('note_on', channel=2, note=64, velocity=0, time=25),\n",
      "    Message('note_on', channel=2, note=57, velocity=0, time=84),\n",
      "    Message('note_on', channel=2, note=57, velocity=95, time=131),\n",
      "    Message('note_on', channel=2, note=64, velocity=95, time=0),\n",
      "    Message('note_on', channel=2, note=60, velocity=0, time=126),\n",
      "    Message('note_on', channel=2, note=60, velocity=104, time=114),\n",
      "    Message('note_on', channel=2, note=69, velocity=85, time=0),\n",
      "    Message('note_on', channel=2, note=57, velocity=0, time=6),\n",
      "    Message('note_on', channel=2, note=64, velocity=0, time=29),\n",
      "    Message('note_on', channel=2, note=60, velocity=0, time=205),\n",
      "    Message('note_on', channel=2, note=57, velocity=104, time=0),\n",
      "    Message('note_on', channel=2, note=64, velocity=88, time=0),\n",
      "    Message('note_on', channel=2, note=69, velocity=0, time=182),\n",
      "    Message('note_on', channel=2, note=60, velocity=80, time=58),\n",
      "    Message('note_on', channel=2, note=64, velocity=0, time=42),\n",
      "    Message('note_on', channel=2, note=64, velocity=95, time=198),\n",
      "    Message('note_on', channel=2, note=60, velocity=0, time=95),\n",
      "    Message('note_on', channel=2, note=69, velocity=91, time=145),\n",
      "    Message('note_on', channel=2, note=57, velocity=0, time=1),\n",
      "    Message('note_on', channel=2, note=64, velocity=0, time=31),\n",
      "    Message('note_on', channel=2, note=64, velocity=95, time=208),\n",
      "    Message('note_on', channel=2, note=69, velocity=0, time=16),\n",
      "    Message('note_on', channel=2, note=64, velocity=0, time=208),\n",
      "    Message('note_on', channel=2, note=52, velocity=95, time=16),\n",
      "    Message('note_on', channel=2, note=57, velocity=98, time=0),\n",
      "    Message('note_on', channel=2, note=60, velocity=95, time=720),\n",
      "    Message('note_on', channel=2, note=62, velocity=104, time=240),\n",
      "    Message('note_on', channel=2, note=52, velocity=0, time=41),\n",
      "    Message('note_on', channel=2, note=60, velocity=0, time=46),\n",
      "    Message('note_on', channel=2, note=64, velocity=114, time=153),\n",
      "    Message('note_on', channel=2, note=62, velocity=0, time=42),\n",
      "    Message('note_on', channel=2, note=57, velocity=0, time=56),\n",
      "    Message('note_on', channel=2, note=64, velocity=0, time=374),\n",
      "    Message('note_on', channel=2, note=52, velocity=95, time=8),\n",
      "    Message('note_on', channel=2, note=57, velocity=104, time=0),\n",
      "    Message('note_on', channel=2, note=57, velocity=0, time=705),\n",
      "    Message('note_on', channel=2, note=55, velocity=98, time=15),\n",
      "    Message('note_on', channel=2, note=57, velocity=98, time=480),\n",
      "    Message('note_on', channel=2, note=55, velocity=0, time=115),\n",
      "    Message('note_on', channel=2, note=52, velocity=0, time=238),\n",
      "    Message('note_on', channel=2, note=52, velocity=98, time=367),\n",
      "    Message('note_on', channel=2, note=57, velocity=0, time=28),\n",
      "    Message('note_on', channel=2, note=52, velocity=0, time=154),\n",
      "    Message('note_on', channel=2, note=52, velocity=88, time=58),\n",
      "    Message('note_on', channel=2, note=57, velocity=104, time=0),\n",
      "    Message('note_on', channel=2, note=60, velocity=88, time=720),\n",
      "    Message('note_on', channel=2, note=57, velocity=0, time=42),\n",
      "    Message('note_on', channel=2, note=52, velocity=0, time=166),\n",
      "    Message('note_on', channel=2, note=60, velocity=0, time=9),\n",
      "    Message('note_on', channel=2, note=57, velocity=88, time=23),\n",
      "    Message('note_on', channel=2, note=62, velocity=104, time=0),\n",
      "    Message('note_on', channel=2, note=64, velocity=114, time=240),\n",
      "    Message('note_on', channel=2, note=62, velocity=0, time=16),\n",
      "    Message('note_on', channel=2, note=57, velocity=0, time=318),\n",
      "    Message('aftertouch', channel=2, value=4, time=102),\n",
      "    Message('aftertouch', channel=2, value=4, time=22),\n",
      "    Message('note_on', channel=2, note=64, velocity=0, time=20),\n",
      "    Message('note_on', channel=2, note=52, velocity=109, time=2),\n",
      "    Message('note_on', channel=2, note=57, velocity=104, time=0),\n",
      "    Message('note_on', channel=2, note=52, velocity=0, time=395),\n",
      "    Message('note_on', channel=2, note=57, velocity=0, time=64),\n",
      "    Message('note_on', channel=2, note=55, velocity=98, time=261),\n",
      "    Message('note_on', channel=2, note=60, velocity=114, time=0),\n",
      "    Message('note_on', channel=2, note=55, velocity=0, time=418),\n",
      "    Message('note_on', channel=2, note=60, velocity=0, time=40),\n",
      "    Message('note_on', channel=2, note=52, velocity=98, time=22),\n",
      "    Message('note_on', channel=2, note=57, velocity=109, time=0),\n",
      "    Message('note_on', channel=2, note=57, velocity=0, time=466),\n",
      "    Message('note_on', channel=2, note=52, velocity=0, time=2),\n",
      "    Message('note_on', channel=2, note=57, velocity=91, time=492),\n",
      "    Message('note_on', channel=2, note=60, velocity=98, time=0),\n",
      "    Message('note_on', channel=2, note=57, velocity=0, time=119),\n",
      "    Message('note_on', channel=2, note=57, velocity=95, time=121),\n",
      "    Message('note_on', channel=2, note=64, velocity=88, time=0),\n",
      "    Message('note_on', channel=2, note=60, velocity=0, time=162),\n",
      "    Message('note_on', channel=2, note=69, velocity=88, time=78),\n",
      "    Message('note_on', channel=2, note=64, velocity=0, time=9),\n",
      "    Message('note_on', channel=2, note=55, velocity=104, time=231),\n",
      "    Message('note_on', channel=2, note=64, velocity=88, time=0),\n",
      "    Message('note_on', channel=2, note=57, velocity=0, time=17),\n",
      "    Message('note_on', channel=2, note=69, velocity=0, time=23),\n",
      "    Message('note_on', channel=2, note=55, velocity=0, time=161),\n",
      "    Message('note_on', channel=2, note=57, velocity=95, time=39),\n",
      "    Message('note_on', channel=2, note=60, velocity=70, time=0),\n",
      "    Message('note_on', channel=2, note=64, velocity=0, time=15),\n",
      "    Message('note_on', channel=2, note=57, velocity=0, time=109),\n",
      "    Message('note_on', channel=2, note=57, velocity=98, time=116),\n",
      "    Message('note_on', channel=2, note=64, velocity=88, time=0),\n",
      "    Message('note_on', channel=2, note=60, velocity=0, time=183),\n",
      "    Message('note_on', channel=2, note=69, velocity=95, time=57),\n",
      "    Message('note_on', channel=2, note=64, velocity=0, time=46),\n",
      "    Message('note_on', channel=2, note=55, velocity=114, time=194),\n",
      "    Message('note_on', channel=2, note=64, velocity=82, time=0),\n",
      "    Message('note_on', channel=2, note=57, velocity=0, time=9),\n",
      "    Message('note_on', channel=2, note=69, velocity=0, time=115),\n",
      "    Message('note_on', channel=2, note=55, velocity=0, time=73),\n",
      "    Message('note_on', channel=2, note=57, velocity=98, time=43),\n",
      "    Message('note_on', channel=2, note=60, velocity=74, time=0),\n",
      "    Message('note_on', channel=2, note=64, velocity=0, time=2),\n",
      "    Message('note_on', channel=2, note=57, velocity=0, time=126),\n",
      "    Message('note_on', channel=2, note=57, velocity=104, time=112),\n",
      "    Message('note_on', channel=2, note=64, velocity=95, time=0),\n",
      "    Message('note_on', channel=2, note=60, velocity=0, time=84),\n",
      "    Message('note_on', channel=2, note=64, velocity=0, time=155),\n",
      "    Message('note_on', channel=2, note=69, velocity=98, time=1),\n",
      "    Message('note_on', channel=2, note=60, velocity=95, time=240),\n",
      "    Message('note_on', channel=2, note=64, velocity=95, time=0),\n",
      "    Message('note_on', channel=2, note=57, velocity=0, time=6),\n",
      "    Message('note_on', channel=2, note=69, velocity=0, time=26),\n",
      "    Message('note_on', channel=2, note=60, velocity=74, time=208),\n",
      "    Message('note_on', channel=2, note=64, velocity=0, time=28),\n",
      "    Message('note_on', channel=2, note=64, velocity=95, time=212),\n",
      "    Message('note_on', channel=2, note=60, velocity=0, time=79),\n",
      "    Message('note_on', channel=2, note=60, velocity=0, time=57),\n",
      "    Message('note_on', channel=2, note=62, velocity=98, time=104),\n",
      "    Message('note_on', channel=2, note=69, velocity=104, time=0),\n",
      "    Message('note_on', channel=2, note=64, velocity=0, time=19),\n",
      "    Message('note_on', channel=2, note=64, velocity=91, time=221),\n",
      "    Message('note_on', channel=2, note=69, velocity=0, time=24),\n",
      "    Message('note_on', channel=2, note=62, velocity=0, time=27),\n",
      "    Message('note_on', channel=2, note=57, velocity=95, time=189),\n",
      "    Message('note_on', channel=2, note=60, velocity=95, time=0),\n",
      "    Message('note_on', channel=2, note=64, velocity=0, time=32),\n",
      "    Message('note_on', channel=2, note=57, velocity=0, time=85),\n",
      "    Message('note_on', channel=2, note=57, velocity=104, time=123),\n",
      "    Message('note_on', channel=2, note=64, velocity=95, time=0),\n",
      "    Message('note_on', channel=2, note=60, velocity=0, time=68),\n",
      "    Message('note_on', channel=2, note=69, velocity=95, time=172),\n",
      "    Message('note_on', channel=2, note=64, velocity=0, time=21),\n",
      "    Message('note_on', channel=2, note=57, velocity=0, time=204),\n",
      "    Message('note_on', channel=2, note=55, velocity=109, time=15),\n",
      "    Message('note_on', channel=2, note=64, velocity=85, time=0),\n",
      "    Message('note_on', channel=2, note=69, velocity=0, time=32),\n",
      "    Message('note_on', channel=2, note=55, velocity=0, time=161),\n",
      "    Message('note_on', channel=2, note=57, velocity=98, time=47),\n",
      "    Message('note_on', channel=2, note=60, velocity=95, time=0),\n",
      "    Message('note_on', channel=2, note=64, velocity=0, time=11),\n",
      "    Message('note_on', channel=2, note=57, velocity=0, time=99),\n",
      "    Message('note_on', channel=2, note=57, velocity=104, time=130),\n",
      "    Message('note_on', channel=2, note=64, velocity=91, time=0),\n",
      "    Message('note_on', channel=2, note=60, velocity=0, time=64),\n",
      "    Message('note_on', channel=2, note=69, velocity=95, time=176),\n",
      "    Message('note_on', channel=2, note=64, velocity=0, time=19),\n",
      "    Message('aftertouch', channel=2, value=4, time=173),\n",
      "    Message('note_on', channel=2, note=55, velocity=109, time=48),\n",
      "    Message('note_on', channel=2, note=64, velocity=88, time=0),\n",
      "    Message('note_on', channel=2, note=69, velocity=0, time=49),\n",
      "    Message('note_on', channel=2, note=57, velocity=0, time=1),\n",
      "    Message('note_on', channel=2, note=55, velocity=0, time=128),\n",
      "    Message('note_on', channel=2, note=57, velocity=104, time=62),\n",
      "    Message('note_on', channel=2, note=60, velocity=91, time=0),\n",
      "    Message('note_on', channel=2, note=64, velocity=0, time=25),\n",
      "    Message('note_on', channel=2, note=57, velocity=0, time=84),\n",
      "    Message('note_on', channel=2, note=57, velocity=95, time=131),\n",
      "    Message('note_on', channel=2, note=64, velocity=95, time=0),\n",
      "    Message('note_on', channel=2, note=60, velocity=0, time=126),\n",
      "    Message('note_on', channel=2, note=60, velocity=104, time=114),\n",
      "    Message('note_on', channel=2, note=69, velocity=85, time=0),\n",
      "    Message('note_on', channel=2, note=57, velocity=0, time=6),\n",
      "    Message('note_on', channel=2, note=64, velocity=0, time=29),\n",
      "    Message('note_on', channel=2, note=60, velocity=0, time=205),\n",
      "    Message('note_on', channel=2, note=57, velocity=104, time=0),\n",
      "    Message('note_on', channel=2, note=64, velocity=88, time=0),\n",
      "    Message('note_on', channel=2, note=69, velocity=0, time=182),\n",
      "    Message('note_on', channel=2, note=60, velocity=80, time=58),\n",
      "    Message('note_on', channel=2, note=64, velocity=0, time=42),\n",
      "    Message('note_on', channel=2, note=64, velocity=95, time=198),\n",
      "    Message('note_on', channel=2, note=60, velocity=0, time=95),\n",
      "    Message('note_on', channel=2, note=69, velocity=91, time=145),\n",
      "    Message('note_on', channel=2, note=57, velocity=0, time=1),\n",
      "    Message('note_on', channel=2, note=64, velocity=0, time=31),\n",
      "    Message('note_on', channel=2, note=64, velocity=95, time=208),\n",
      "    Message('note_on', channel=2, note=69, velocity=0, time=16),\n",
      "    Message('note_on', channel=2, note=64, velocity=0, time=208),\n",
      "    Message('note_on', channel=2, note=62, velocity=98, time=16),\n",
      "    Message('note_on', channel=2, note=65, velocity=95, time=240),\n",
      "    Message('note_on', channel=2, note=62, velocity=0, time=198),\n",
      "    Message('note_on', channel=2, note=65, velocity=0, time=42),\n",
      "    Message('note_on', channel=2, note=69, velocity=85, time=0),\n",
      "    Message('note_on', channel=2, note=65, velocity=98, time=240),\n",
      "    Message('note_on', channel=2, note=65, velocity=0, time=224),\n",
      "    Message('note_on', channel=2, note=62, velocity=91, time=16),\n",
      "    Message('note_on', channel=2, note=69, velocity=0, time=16),\n",
      "    Message('note_on', channel=2, note=65, velocity=104, time=224),\n",
      "    Message('note_on', channel=2, note=69, velocity=82, time=240),\n",
      "    Message('note_on', channel=2, note=65, velocity=0, time=20),\n",
      "    Message('note_on', channel=2, note=65, velocity=98, time=220),\n",
      "    Message('note_on', channel=2, note=62, velocity=0, time=49),\n",
      "    Message('note_on', channel=2, note=65, velocity=0, time=181),\n",
      "    Message('note_on', channel=2, note=60, velocity=78, time=10),\n",
      "    Message('note_on', channel=2, note=69, velocity=0, time=62),\n",
      "    Message('note_on', channel=2, note=64, velocity=85, time=178),\n",
      "    Message('note_on', channel=2, note=60, velocity=0, time=198),\n",
      "    Message('note_on', channel=2, note=69, velocity=85, time=42),\n",
      "    Message('note_on', channel=2, note=64, velocity=0, time=60),\n",
      "    Message('note_on', channel=2, note=64, velocity=98, time=180),\n",
      "    Message('note_on', channel=2, note=64, velocity=0, time=233),\n",
      "    Message('note_on', channel=2, note=60, velocity=80, time=7),\n",
      "    Message('note_on', channel=2, note=69, velocity=0, time=93),\n",
      "    Message('note_on', channel=2, note=64, velocity=88, time=147),\n",
      "    Message('note_on', channel=2, note=60, velocity=0, time=201),\n",
      "    Message('note_on', channel=2, note=69, velocity=91, time=39),\n",
      "    Message('note_on', channel=2, note=64, velocity=0, time=31),\n",
      "    Message('note_on', channel=2, note=64, velocity=91, time=209),\n",
      "    Message('note_on', channel=2, note=69, velocity=0, time=50),\n",
      "    Message('note_on', channel=2, note=59, velocity=91, time=190),\n",
      "    Message('note_on', channel=2, note=64, velocity=0, time=18),\n",
      "    Message('note_on', channel=2, note=64, velocity=104, time=222),\n",
      "    Message('note_on', channel=2, note=68, velocity=98, time=240),\n",
      "    Message('note_on', channel=2, note=64, velocity=0, time=47),\n",
      "    Message('note_on', channel=2, note=64, velocity=98, time=193),\n",
      "    Message('note_on', channel=2, note=59, velocity=0, time=28),\n",
      "    Message('note_on', channel=2, note=68, velocity=0, time=184),\n",
      "    Message('note_on', channel=2, note=59, velocity=91, time=28),\n",
      "    Message('note_on', channel=2, note=64, velocity=0, time=14),\n",
      "    Message('note_on', channel=2, note=64, velocity=85, time=226),\n",
      "    Message('note_on', channel=2, note=64, velocity=0, time=198),\n",
      "    Message('note_on', channel=2, note=68, velocity=104, time=42),\n",
      "    Message('note_on', channel=2, note=64, velocity=98, time=240),\n",
      "    Message('note_on', channel=2, note=59, velocity=0, time=29),\n",
      "    Message('note_on', channel=2, note=68, velocity=0, time=49),\n",
      "    Message('note_on', channel=2, note=64, velocity=0, time=157),\n",
      "    Message('note_on', channel=2, note=69, velocity=114, time=5),\n",
      "    Message('note_on', channel=2, note=64, velocity=85, time=240),\n",
      "    Message('note_on', channel=2, note=69, velocity=0, time=124),\n",
      "    Message('note_on', channel=2, note=64, velocity=0, time=75),\n",
      "    Message('note_on', channel=2, note=60, velocity=98, time=41),\n",
      "    Message('note_on', channel=2, note=64, velocity=82, time=240),\n",
      "    Message('note_on', channel=2, note=60, velocity=0, time=226),\n",
      "    Message('note_on', channel=2, note=57, velocity=98, time=14),\n",
      "    Message('note_on', channel=2, note=64, velocity=0, time=26),\n",
      "    Message('note_on', channel=2, note=57, velocity=0, time=515),\n",
      "    MetaMessage('end_of_track', time=0)])\n",
      "])\n"
     ]
    }
   ],
   "source": [
    "from mido import MidiFile\n",
    "\n",
    "mid_file = MidiFile('MIDI_sample.mid', clip=True)\n",
    "print(mid_file)"
   ]
  },
  {
   "cell_type": "code",
   "execution_count": null,
   "id": "c064c482",
   "metadata": {},
   "outputs": [],
   "source": []
  },
  {
   "cell_type": "code",
   "execution_count": null,
   "id": "941dc597",
   "metadata": {},
   "outputs": [],
   "source": []
  },
  {
   "cell_type": "code",
   "execution_count": null,
   "id": "fde6a50d",
   "metadata": {},
   "outputs": [],
   "source": []
  },
  {
   "cell_type": "code",
   "execution_count": null,
   "id": "e60517a7",
   "metadata": {},
   "outputs": [],
   "source": []
  },
  {
   "cell_type": "code",
   "execution_count": null,
   "id": "5eaf585d",
   "metadata": {},
   "outputs": [],
   "source": []
  },
  {
   "cell_type": "code",
   "execution_count": null,
   "id": "11ed0e83",
   "metadata": {},
   "outputs": [],
   "source": []
  }
 ],
 "metadata": {
  "kernelspec": {
   "display_name": "Python 3 (ipykernel)",
   "language": "python",
   "name": "python3"
  },
  "language_info": {
   "codemirror_mode": {
    "name": "ipython",
    "version": 3
   },
   "file_extension": ".py",
   "mimetype": "text/x-python",
   "name": "python",
   "nbconvert_exporter": "python",
   "pygments_lexer": "ipython3",
   "version": "3.7.9"
  }
 },
 "nbformat": 4,
 "nbformat_minor": 5
}
